<svg xmlns="http://www.w3.org/2000/svg" viewBox="0 0 286.06 161.53"><defs><style>.cls-1{fill:#ededec;}.cls-2{fill:#aaabaa;}.cls-3{fill:#2b2b29;}.cls-4{fill:#1d1d1c;}.cls-5{fill:#b9bab6;}.cls-6{fill:#3f3f3f;}.cls-7{fill:#a1a1a1;}.cls-8{fill:#898989;}.cls-9{fill:#d9d5d1;}.cls-10{fill:#d04a37;}.cls-11{fill:#747272;}.cls-12{fill:#62605e;}.cls-13{fill:#dcb14e;}</style></defs><title>Asset 1</title><g id="Layer_2" data-name="Layer 2"><g id="Layer_1-2" data-name="Layer 1"><path class="cls-1" d="M139.07,8Q126.52,13.35,114,18.71c-.79.34-1.56,1.63-2.34.24-.16-.29.66-1.51,1.27-1.8,10-4.77,19.89-9.56,30-14.08,1.64-.74,3.06-1.06,3.2-3.08h2c9.76,15.9,26.91,15.51,42.23,19.14L187,22.95l-4,.14c-1.23-1.19-.19-4.14-3.12-4l-24.89-1c1.72-5.17-.23-9.61-3.93-12.71-2.72-2.28-6.71-3.28-7,2.76-2.29.85-2.27,2.78-2.23,4.73L138,12.65l1-4.65,1.26-.35-.23-.37Z"/><path class="cls-1" d="M286.06,51c-1.45-.55-2.24,2.61-3.62.87a2.81,2.81,0,0,1,.72-3.92c1.67-1.29-.25-4.61,2.9-5Z"/><path class="cls-1" d="M286.06,41l-1.52-1.23,1.52-.77Z"/><path class="cls-2" d="M39.06,29.12V31l-4,0L31,30.9c.37-1.69-.15-2.8-2-3,.24-2.56,3.23-1.17,4.09-2.85,2.38-4.12,4.62-1.85,6.85.16l-.17,1.75Z"/><path class="cls-3" d="M260.18,105.71a.68.68,0,0,0-.13-.7l-.4-2,1.28-4.2c1.71-1.28,3.31.11,5,.17,2.21.08,4.79.11,2.59-3.36l.77-.83c5.31-5.06,4.64-9.06-1.95-11.66L239.05,72l0-2.09,30,11.16,4.4,2.31,1.23.68c2.4,3.92-1.57,7.21-1.08,10.95l-1.51,2.25-.66.21.49.88-.13,1.5c-3,.89-.83,3.54-1.76,5.14l-.72.72c-1.86,2.36-5.1,3.72-5.32,7.28H261.1l.29-3.89C262.74,107.35,261.13,106.65,260.18,105.71Zm2.1-2.8c.89,1.83,1.82,4.71,2.35,4.64,2.49-.33.66-2.13.65-3.39,0-.35.56-1,.81-1,1.48.14,3.38.76,2.31-1.89-.56-1.39-2-1.63-3.44-1.17A3.5,3.5,0,0,0,262.29,102.91Z"/><path class="cls-3" d="M269.72,38.18c1.07-2.54,2.24-5,5.33-5.57l3,.34c1.66,4.23,3.32,8.46,3,13.13a2.51,2.51,0,0,0-1,0L278.2,45c-.64-1.59-1.88-3.22-1.76-4.75.14-1.85,1.56-4.47-.64-5-3-.67-3.58,2.62-4.51,4.86a19.54,19.54,0,0,1-1.48,2.49l-.86.4V40Z"/><path class="cls-4" d="M198,12.86c2-1,3.52,0,5,1.09-.07,2.16.45,3.88,3,4,1.49,3.14.13,4.79-2.91,5.56A5,5,0,0,0,200.85,19a24.45,24.45,0,0,0-1.73,2l-.12.12-1.58-1c-1.25-3.3-4.16,1.47-5.55-1.15L196.19,15C197.74,15.1,199,15,198,12.86Z"/><path class="cls-5" d="M213.85,34.19l3.52,1.57.14.7.55-.44,2.16,1.84q-.07,1-.13,2l-3,0c-2.35-3.66-2,.68-2.87,1.1-3.3,1.59-2.64,9.2-9.18,6,2.78-3.23,6.94-5.7,6-11C212.4,36.07,213.87,36.24,213.85,34.19Z"/><path class="cls-6" d="M217.1,39.92l3,0,1.84.35,35.16.53,2.11,1.14c-9.63.79-19.34-1.08-28.93.91l-1.2.2-5.15.42-4.84-.57-2-.74Z"/><path class="cls-3" d="M197.42,20l1.58,1,.49.17-.37-.29a24.45,24.45,0,0,1,1.73-2,5,5,0,0,1,2.35,4.56l-1.74,1.84-1.1,3.48-1.74.26A4,4,0,0,1,195,27.29l.09-1.26,1.94-3.8-.8-1.19Z"/><path class="cls-7" d="M197.42,20l-1.23,1,.8,1.19L195.06,26l-3-1.08c-2.21.67-3.36-1.31-5-2l3.26-3.81,1.58-.25C193.26,21.52,196.18,16.74,197.42,20Z"/><path class="cls-3" d="M266.22,123l2.25,2.17.56.84-1,4-.95,1-3,0-1.33-3c1.95-.86,2.64-2.08,1.16-4Z"/><path class="cls-6" d="M213.85,34.19c0,2.05-1.45,1.88-2.81,1.87l-2-1.07-2-1c-1.62-2.11-3.74-2.1-6-1.41a1.67,1.67,0,0,0,0-.57l.25-2.36a2,2,0,0,0,.85-.13C206.77,29.31,209.71,33.23,213.85,34.19Z"/><path class="cls-6" d="M278.2,45l1.9,1.14a1.63,1.63,0,0,0,.2.87c-2.21,2.24-1.46,6.29-4.81,7.84A2.85,2.85,0,0,1,274.08,52l0,0c1.67.2,1.91-.93,2-2.17l.06-3Z"/><path class="cls-1" d="M276.08,117,273,118l1-6a1.9,1.9,0,0,1,2,2Q276.08,115.51,276.08,117Z"/><path class="cls-3" d="M206.12,18c-2.6-.15-3.11-1.87-3-4C205.59,14.15,206.18,15.82,206.12,18Z"/><path class="cls-1" d="M268,130l1-4h2l-1,5h0Z"/><path class="cls-8" d="M274.08,52a2.85,2.85,0,0,0,1.41,2.86,1.21,1.21,0,0,1-.66.69l-3,.29a.71.71,0,0,1-.3-.68Z"/><path class="cls-1" d="M278.07,33l-3-.34a4.74,4.74,0,0,0-.13-.69C276.49,30.68,277.68,30.6,278.07,33Z"/><path class="cls-9" d="M202.17,29.48a2,2,0,0,1-.85.13l-1-.75,1.1-3.48Z"/><path class="cls-3" d="M198,12.86c1,2.1-.29,2.24-1.84,2.15C196.41,14,196.77,13,198,12.86Z"/><path class="cls-1" d="M274.07,66.15q0,.93,0,1.86h-2v0l0-3.07Z"/><path class="cls-9" d="M221.93,40.24l-1.84-.35.13-2A2,2,0,0,1,221.93,40.24Z"/><path class="cls-1" d="M280.3,47a1.63,1.63,0,0,1-.2-.87,2.51,2.51,0,0,1,1,0Z"/><path class="cls-9" d="M218.07,36l-.55.44-.14-.7C217.6,35.85,217.83,35.94,218.07,36Z"/><path class="cls-4" d="M103.08,47.87l-1.9-.94c2.6-4.63.42-8.66-4.69-8.86-1.14,0-2.73.71-3.41-1.06l1-.26L95,36l.69-.76,3.12-.34c1.6,0,2.23-.83,2-2.37L102.07,31c1.8-2.18,6,1,6.93-3.15.58-1.45,2-.74,3-1.13L113,27l1,1,0,2-1.93,1a1.69,1.69,0,0,0-.41.2c-.06,0,0,.2,0,.3l.37-.57,2,.06,2,.63,3.07,1.32c1.08,2.41,3.73.61,5.22,1.94q0,.51,0,1c-2,9.5-9.06,16.09-13.93,23.93-2.27,3.65-1,5.32,2.38,5,7.76-.7,14.85,2.45,22.34,3.11V69l-3,3c-2.14,1.07-1.08-2.75-3-2a16.37,16.37,0,0,0-9-2.15l-8-.79c-1.93-.53-3.86-1.67-5.77,0-2.13-1.64-3.27-5.41-7.14-3.29-2.33.22-4.16.68-2.95,3.8,1.38,3.55,3.51,3,6,1.41l1.12,1.34c-2.87,1-1.56,6.75-6.34,5.62,1.15-4.21-4.45-4.23-4.68-7.42-.31-4.36-2.91-4.82-6.41-4.38-2.59.32-5.2.41-7.81.6l-1-1.71L100,61.56c3.54.14,7.27.8,9-3.57a.89.89,0,0,0,.3-.68c.79-1.18,2.48-3.09,2.22-3.41-1.37-1.68-3.55-.61-5.4-.85L105,51.81C108.28,48.59,104.49,48.81,103.08,47.87Zm10-6.86c1.14-2,3-.77,4.48-1,1.08-.13,2.56.25,2.5-1.55-.09-3.06-3.22-3.59-5-4.76-2-1.33-5.09-1-7.71-1.34-.26,2.19-1.94,4.32-.31,6.6-1.07,4.85,2.21,9.44,6.69,9.67,2.12.11,2.42-1.24,2.9-2.65.62-1.79-.54-2-1.81-1.93C112.08,44.27,112.91,42.46,113.06,41Z"/><path class="cls-5" d="M124.33,34.86c-1.48-1.33-4.13.47-5.22-1.94.35-1.49,1.59-3.45-.59-4.15-2-.64-1.91,1.62-2.48,2.84l-2-.63a5.36,5.36,0,0,0,0-1l0-2,.47-1.52L113,27,112,26.71c.49-2.86,4-1.74,5.06-3.8l2.41-1.61c1.47-.39,2.54-2.16,4.39-1.28,3.93-.24,8.15-2.35,11.38,1.79-2,5-8.81,6.53-9.31,12.67l-1.1.42A.32.32,0,0,0,124.33,34.86Z"/><path class="cls-10" d="M66.46,22.06a.29.29,0,0,1,.47,0c5.15,4.32,10.93,5.1,17.21,3C86.35,28,90,27.55,92.88,28.9q0,.49,0,1c-2.74,2.94-5.85,1.89-9.2,1.27-5.34-1-11.17-5.18-15.85,1.48l-12-2.9c.52-3.44,5.31-3.82,5.41-7.56l.45,0,.45,0Z"/><path class="cls-5" d="M41.06,20c.79-2.44,2.87-3,5-3.39l1,.35c2.62.33,4.62-1.21,6.8-2.23,3.39-1.59,5.37-.92,5.06,3.26-3.66,0-7.71-.87-9,4.2a7.28,7.28,0,0,0-6,1L41,24C39.62,22.68,40.64,21.36,41.06,20Z"/><path class="cls-4" d="M138,12.65l3.83.25,2.37,0c1.74-.16,1.84,2,2.79,2.28,3.49,1.07,1.62-1.75,1.91-3l1-1.1a5.65,5.65,0,0,1,1.56,5c-3.38,2.52-7.8,3.53-10.4,7.18.23-2.57-1.64-3.86-3.25-5.29.17-1.29.11-2.39-1.7-2l-.14-3Z"/><path class="cls-3" d="M12.24,37.08c-1.73,2.09-.76,7.2-5.58,5.71C4,42-1,42.33.16,37.39c1-4.5,5.15-1.82,7.91-2.32C8.47,37.8,10.71,36.71,12.24,37.08Z"/><path class="cls-3" d="M137.9,18c1.62,1.44,3.48,2.72,3.25,5.29L140.81,25l-1.7,0c-2.13,0-.42-4.8-3.91-3.18-3.24-4.14-7.46-2-11.38-1.79.91-3.2,4.15-2.61,6.27-3.85l3-2.16,1.11-.45,1.6,2.28c-1.13-.05-2.31,1-1.86,1.49A2.71,2.71,0,0,0,137.9,18Z"/><path class="cls-7" d="M50,22.22c1.28-5.07,5.32-4.23,9-4.2l3-2.11.17,1.1,2,3.86c-.72.33-2-.23-2,1.29l-.45,0-.45,0C57,19.6,53.54,23,49.72,23.77Z"/><path class="cls-6" d="M29,27.86c1.84.24,2.36,1.35,2,3-3.91.58-6.86,5.05-11.46,2.78a.1.1,0,0,0,0-.16l.65-2.76-.07.14,1.49-.74-.11,0,1.75,1.36c1.8.74,1.86-.37,1.77-1.66l1.58-1.41,0,.18Z"/><path class="cls-1" d="M85.89,24.1c.92-.39,2.85-.61.74-1.9-1.19-.72-2.89-.54-4.21-1.12-1.05-.46-3-.61-2.5-2.31.16-.53,2.58-1,3.46-.59a41.27,41.27,0,0,0,10.55,3.67c3.23.69.87,2.82,1.07,4.3l-2-.32c-.1-1.07.2-2.45-1.39-2.61-1.27-.13-1.48.94-1.64,1.92Z"/><path class="cls-3" d="M53,12.7c3.88-1.43,7.45-2,8.93,3.22L59,18c.31-4.18-1.66-4.86-5.06-3.26-2.18,1-4.18,2.56-6.8,2.23l-.18-1Z"/><path class="cls-4" d="M84.14,25.13c-6.28,2.05-12.06,1.27-17.21-3l8.22.64c2,2.64,4.62.35,6.88.9l2,.63A1.52,1.52,0,0,0,84.14,25.13Z"/><path class="cls-6" d="M41.06,20c-.42,1.33-1.44,2.65,0,4l-1.12,1.16c-2.24-2-4.47-4.29-6.85-.16-1.1-2.5-.65-3.79,1.92-4.37A47.07,47.07,0,0,1,41.06,20Z"/><path class="cls-3" d="M109,27.84c-.9,4.15-5.13,1-6.93,3.15l-7-2.29,0-1.74C99.69,27.67,104.24,29.34,109,27.84Z"/><path class="cls-6" d="M95.07,27l0,1.74-2.22.19C90,27.55,86.35,28,84.14,25.13a1.52,1.52,0,0,1-.12-.88l1.87-.15L90,25.15l3,.69,2,.32A1.24,1.24,0,0,1,95.07,27Z"/><path class="cls-4" d="M12.24,37.08c-1.54-.37-3.78.71-4.17-2a14.24,14.24,0,0,1,9-1L16,35.86Z"/><path class="cls-1" d="M82,23.62c-2.26-.55-4.89,1.74-6.88-.9C77.69,21.12,79.88,22.21,82,23.62Z"/><path class="cls-11" d="M16,35.86l1.07-1.76c.51-1.44,1.19-2.21,2.43-.59a.1.1,0,0,1,0,.16A3.4,3.4,0,0,1,16,35.86Z"/><path class="cls-1" d="M135.82,15.84l-1.6-2.28,1.85-.56.14,3Z"/><path class="cls-11" d="M25,29.85c.09,1.28,0,2.39-1.77,1.66C23.33,30.47,23.46,29.42,25,29.85Z"/><path class="cls-1" d="M107.07,23.79l-1.21.68c-.19-.39-.58-.82-.52-1.17s.6-.53.93-.79Z"/><path class="cls-1" d="M133.11,14l-3,2.16C130.15,14.13,131.52,13.93,133.11,14Z"/><path class="cls-1" d="M119.44,21.3,117,22.91C117.25,21.5,118,20.89,119.44,21.3Z"/><path class="cls-4" d="M62.18,22.16c-.06-1.53,1.25-1,2-1.29l2.31,1.19Z"/><path class="cls-11" d="M20.08,30.91l.07-.14-.33,0Z"/><path class="cls-11" d="M21.45,30.15l.11,0-.05-.64c.07.11.19.23.18.33S21.54,30.05,21.45,30.15Z"/><path class="cls-7" d="M109.32,57.3A.9.9,0,0,1,109,58a11.83,11.83,0,0,0-9,3.57L77.09,63.1c-7.66,1.06-15.58.32-23,3.34L53,66.18l-4,.09,0-1.27c-.78-1.89.77-3.3,1-5h1c3.08,1.4,3.82,1.19,9.76-2.8L62,57c1.75.29,3.53,1,5.23.8,12.85-1.26,25.68-2.68,38.52-4.05Z"/><path class="cls-8" d="M41.07,139.06l3-7.08,4.39-1.05,3.74.15c-.5,1.45-2.42,2.52-1.18,4.44q-.47,0-.45.43c-3.43.4-2.47,3-2.51,5L47,143.89l-1.43,1.36L47,146l15.12,3.7-1,1.3-4.86,5.75-2.33-.9c-3.7-2.29-7.45-4.32-11.91-1.91l-2.1-.2C36.46,148.59,40,143.92,41.07,139.06Z"/><path class="cls-2" d="M64,112.13l1.1-2.23c6.08,0,12,1.1,17.93,2.36,1.33,1.51,2.48-.4,3.75-.21l.13,2.62c-.65,1.11-3.17,1.1-2,3.31l.07-.06C83,117.21,82.4,118,83,120l.06-.07c-1.25-1.17-1.53.22-2.11.81l-1.92.42c-4.43-4.57-13.51-4.66-15.77-.16l-2.19,2.09c-2.85-.19-3.26,2.88-5.21,3.88-2-.23-1.71-1.87-1.9-3.2Z"/><path class="cls-11" d="M56.32,156.78,61.18,151c1.77,1.79,3.56,3.66,3.93-.87L67.06,146c1.13-.25,2.54-.33,1.07-2l.49-2.55,1.35-.53c2.07,0,2.09-1.47,2.1-2.94L79,126l1.21-2.86h-.1l1-1,.06.09c1.59.08,1.89-.92,1.85-2.21L83,120l2.07-2.07L85,118l2-.34c-.48,4.83-5.4,7.49-6,12.26l-3.07,5c-2,.27-2.16,1.9-3,3.32-3,5.1-3.77,10.93-5.81,16.32-.88.72-3.17,1-.83,2.7A1.15,1.15,0,0,1,68,158l-8,.53-3.12-.43Z"/><path class="cls-4" d="M39.92,25.18,41,24l3-.79c.06,1.27-.06,2.66,1.79,2.79,3.39,1.1,6.25,3.65,10,3.7l12,2.9L90.05,39c2.95,1.3,5.65,2.88,7,6-4.09.38-7.18-2.56-10.93-3.28l-2.08-.61L71.25,37.3l-4-1.7-2.12-.72-4-.8-10-2.82-1-.19a17.67,17.67,0,0,0-8.56-3.89l-1.76-.27Z"/><path class="cls-5" d="M76.32,102c4.81-6.31,9.56-12.66,14.48-18.89.59-.75,2-.82,3.08-1.21,3.42.39,1,2.55,1.21,3.94-3.29,2.14-3.94,5.45-3.95,9L85,102.65l-2,0A9.17,9.17,0,0,0,76.32,102Z"/><path class="cls-3" d="M105.77,53.75C92.93,55.12,80.1,56.55,67.25,57.8c-1.7.17-3.49-.51-5.23-.8,8.77-3.14,18-3,27.08-3.39l1-.61,8-.22c.81.14,1.69.45,2-.72l3-.42,1.94.16L106.14,53A2.69,2.69,0,0,0,105.77,53.75Z"/><path class="cls-2" d="M95.09,85.88c-.16-1.38,2.22-3.55-1.21-3.93q.1-.48.17-1L95,79l.37-1.92L96.95,76c4.78,1.13,3.47-4.6,6.34-5.62l3-3.27c1.91-1.71,3.85-.57,5.77,0a5,5,0,0,1,.1.81l-2,1.88L108,70a1.86,1.86,0,0,0-2,1.9L104,75l-.93,1C101.68,80.32,98.38,83.1,95.09,85.88Z"/><path class="cls-3" d="M30.05,84c-2.93,1.42-6,2.55-8.72,4.34-1.92,1.29-6.43,1.92-2.59,6.31,1.07,1.23-1.4,1.38-2.66,1.17L15,94c.58-6-3.47-2.79-5.84-2.91L7,89.85,14,88.11c.68.58,1.36,1,2,0,4-1.62,7-4.51,9.88-7.62C27.85,81.05,31.1,80,30.05,84Z"/><path class="cls-5" d="M97.07,45.05c-1.37-3.14-4.07-4.72-7-6-.4-2.78,1.29-2.44,3-2,.68,1.77,2.26,1,3.41,1.06,5.11.2,7.29,4.24,4.69,8.86C99.49,47,98,46.74,97.07,45.05Z"/><path class="cls-6" d="M15,94l1,1.82L7.57,97.45v.08c.32-2.6-6.68-4.65-.58-7.69L9.2,91.08c-.37.52-1.22,1.84-.4,1.54C11.4,91.65,12.92,93.95,15,94Z"/><path class="cls-12" d="M41.07,139.06c-1.07,4.85-4.61,9.52-1.08,14.71-2.39-.77-5.2-1.89-4.72-4.65C35.94,145.27,37,141.16,41.07,139.06Z"/><path class="cls-2" d="M76.32,102a9.16,9.16,0,0,1,6.72.65L80.57,104c-1.23,1.33-2.75,2.51-2.6,4.62-1.73-.43-4.53,1.78-4.9-2C73,104.28,75.41,103.7,76.32,102Z"/><path class="cls-4" d="M73.08,106.63c.38,3.76,3.17,1.56,4.9,2,1.19,1.93,5.49-.48,5.1,3.66-5.91-1.26-11.84-2.4-17.93-2.36C66.71,106.19,70.26,107.31,73.08,106.63Z"/><path class="cls-3" d="M64,112.13,54,123.75,52,124l.1.1.85-3.25,3.38-3.62C59.34,116.15,59.69,111.09,64,112.13Z"/><path class="cls-6" d="M32.87,76.39c1.38-3.09,1-7.21,5.17-8.65l3.6-.34.58,1.41-.38.48-2.37.77c-5.07.42-2.34,4.64-3.42,7l.07-.05-1.88.2Z"/><path class="cls-6" d="M42.08,154c4.46-2.42,8.2-.39,11.91,1.91l-1.95.49A22.41,22.41,0,0,1,42.08,154Z"/><path class="cls-3" d="M48.47,130.93,44.08,132c2.31-3,3.93-6.73,8-7.92L52,124C52.46,127.11,48.3,127.92,48.47,130.93Z"/><path class="cls-1" d="M56.35,117.19,53,120.81c-.5-1-1.05-2-1.5-3.11a2.77,2.77,0,0,1,1.78-4C55.89,113,55.57,115.78,56.35,117.19Z"/><path class="cls-9" d="M30.05,84c1-4-2.2-2.94-4.08-3.49,1.26-2.42,3.73-2.79,6-3.55L32.06,80l1,2.93C32.34,84.12,31.24,84.17,30.05,84Z"/><path class="cls-3" d="M42.22,68.81l-.58-1.41L41.57,66l5.49-3.11c1.29.2,1.11,1.23,1.18,2.12l-1.5.68L48,66.83,48,68Z"/><path class="cls-3" d="M60.86,57.23c-5.94,4-6.68,4.2-9.76,2.8l2.1-1.29C55.46,56.73,58.11,56.72,60.86,57.23Z"/><path class="cls-9" d="M7.56,97.54v-.08c.68,1.77,0,2.9-1.72,3.38A2,2,0,0,1,3.06,99Z"/><path class="cls-3" d="M39.74,26.92l1.76.27a2,2,0,0,1-2.45,1.92Z"/><path class="cls-1" d="M46.07,161l-1-2h2l1,2Z"/><path class="cls-1" d="M55.79,110.43c.28.13.68.19.75.38a.56.56,0,0,1-1,.41C55.43,111,55.68,110.71,55.79,110.43Z"/><path class="cls-1" d="M56.06,160l-.78,1.52L54.06,160Z"/><path class="cls-9" d="M16.09,88.12c-.69,1-1.37.57-2,0C14.73,87.13,15.41,87.07,16.09,88.12Z"/><path class="cls-6" d="M32.06,80,31.95,77l.93-.57,1.37.83Z"/><path class="cls-7" d="M239.05,72,267.3,83.15c6.59,2.6,7.26,6.6,1.95,11.66-5.32-5.46-12.4-5.19-19.18-5.86-3.11-1.3-6.18-2.74-9.36-3.84-2-.7-4.53-1.92-5.43,1.62L233.1,87c-.24-1.11-.77-1.86-2.07-1.66l-2.1.09-1-1.62c-.54-.57-1.05-1.59-1.63-1.63-12.12-.78-21.72-8.76-33.16-11.46-.91-4-1.93-7.67,4.72-7,2.23.21,3.92-2.65,5.24-4.76,2.34.6,4,3.44,7,2,.94.15,1.81.15,2.19-1l5,.25C223.3,66.31,231.17,69.19,239.05,72Z"/><path class="cls-4" d="M183.34,94.8c-1.35,2.13-3.33,1.66-5.29,1.26-.1-1.78-1-3.31-2.65-3.58s-1.22,1.42-1.33,2.45A14.08,14.08,0,0,1,166.85,85L165.2,83l-1.5,1.54-.09.07-4.9,3.19L154,90.84c-5.59,1.23-7.74,8.19-13.95,8.4l3-3.29,15-10.95c6.11-3.23,12-16.2,11-24.35a18.3,18.3,0,0,0-.94-3.08,21.76,21.76,0,0,0-3,2.43c-1.55,1.79-.45,3.86-.17,5.74.51,3.4-.55,5.47-4.11,5.93l-.16-1.74c1.55-.93,3.08-1.87,1.34-3.92l-.22-3c0-3.13,2.39-5.27,3.38-8,5.44-1.9,1.91-6.74,3.27-10l.61-1.08c1.8,1.15.19,4.11,2.6,4.94q.19-2.89.38-5.79c0-.33,0-.66,0-1l1.28-.87,4.72-3.42c2.76-.77,5.06.77,7.56,1.25,3.59.69,6.44,3.85,10.38,2.94l0,3,0-.11c-2.27.05-3.08,1.28-2.8,3.44.22,1.69-.16,2.92-2.26,2.64l.11-1.93c2.25-2.64-.21-4.55-1.09-6.68-.08-.19-.7-.16-1.07-.22.24,2.22-.43,4.67,1.66,6.4a4.87,4.87,0,0,1,.35.36c-1.44.13-1.73,1.08-1.64,2.3a2.62,2.62,0,0,0-.28.78l-2,1c-1.56-1.5,2.38-5.6-.93-4.83-4.06.94-9.92-2.6-12.33,3.74-4.92,0-.47,4.92-3.18,6.09.52.29,1.06.87,1.55.82,2.83-.3,3.86-2.16,3.86-4.8,3.86,1.51,7.4-.38,11.05-1,1.8,1.75-7,3.27-.11,5.13-3.62,3.69-8,3.26-12.49,2.33-1.18-.24-2.82-1-3.21,1-.27,1.36-.56,3,1,4,1.31.88,2.64,1.73,4,2.6-6.56,1.05-6.56,1.05-5.25,6.09l.06,1.84c-.59.7-1.82,1.66-1.66,2,.81,1.93,2.14.26,2.63-.19,4.31-3.91,8.5-2.49,12.74,0,1.52,2.12,4,3.77,3.39,6.94,0,1.76-.33,3.61,1.76,4.54l-1.42,2.76c-1.84.56-2.69,3.05-5,2.58q0-2.18,0-4.36c.33-1.46,3.25-2.68.51-4.39a12.84,12.84,0,0,0-3.17-1c-.44,1.67-1.52,3.5-1.16,5,.49,2,2.44.44,3.76.46Zm-4.26-50.59c1.71.48,3.41,1,5.14,1.42,1.24.28,3,.76,2.52-1.52a4.77,4.77,0,0,0-3.52-3.81c-1.51-.36-3.71-1.45-4.3,1.46-3-.74-4.48,1.13-5.5,3.49-.18.41.2,1.51.5,1.58C176.34,47.43,178,46.34,179.09,44.21Zm-8.2,40.22c.31,3.08,1.47,6.19,4.66,6,2.85-.15.75-4.75,3.37-6-1.37-2.57-4.15-1-6.13-2.06C170.59,81.22,171.11,83.38,170.89,84.43Zm10.5-25.31,1.71-.78A10.32,10.32,0,0,0,181,57.21a1.24,1.24,0,0,0-1.72,1.18C179.29,59.8,180.35,59.15,181.39,59.12Zm.17,33.45,0,.77c.09-.11.24-.21.25-.33S181.66,92.76,181.56,92.57Z"/><path class="cls-3" d="M189.91,89.36c-2.09-.93-1.81-2.78-1.76-4.54,2-2.15,4-3.58,6.84-.93.38.36,2-.64,3.08-1a32.62,32.62,0,0,0,4.27-1c1.5-.55,3.58-1,3.75-2.78.23-2.47-2.24-1.72-3.62-2.26-3.41-1.34-6.82-2.69-10.23-4-.31-1-.2-1.74.88-2.13,11.43,2.7,21,10.68,33.16,11.46.58,0,1.09,1.06,1.63,1.63l-1.86.4L214,82l-1-.73-3-.35c-1.59-.74-1.79.78-2.47,1.52l-.08.37,0-.37L199,85.73c-2.73.29-4.76,2-6.9,3.45Z"/><path class="cls-9" d="M138.33,103.32c-8.18,8.72-16.94,16.72-27.48,22.56-.25-1,1.46-1.74.35-2.83l-.07.09c1.27,1,1.56-.3,2.16-.9l2-2c1.91-2.24,5.17-3.14,6.2-6.26,3.45-1.47,6.06-4,8.53-6.71l7.86-4.41Z"/><path class="cls-11" d="M109.15,126.81l-3,1.2c-2.52-2.34.38-6-2-8.36l.58-.66c5.44-1.42,6.91-7.48,11.53-9.85a3.09,3.09,0,0,1,.94-.14c2.9,3.54-3.9,4.85-1.88,8.19l-.07-.13c-3.8-.43-4.28,1.95-4.11,4.87l.08,1.2.07-.09C108.56,123.24,109.23,125.23,109.15,126.81Z"/><path class="cls-1" d="M101.08,134.46c-.17.94-.81,2.4-.44,2.72,1.35,1.17,1.84-.49,2.56-1.21,1.23-1.23,3-1.54,4-.47,1.47,1.65-.94,3.31-1.58,3.28-3.2-.13-6.55,9.42-9.59,0l.27-1.75-.12,0c1.56.22,1.81-1,2.18-2l.73-.8Z"/><path class="cls-9" d="M140,99.24c6.21-.21,8.36-7.16,13.95-8.4-.43,4.09-9.77,11.54-15.65,12.48l-.4-.45.5-1.86Z"/><path class="cls-3" d="M250.07,89c6.78.68,13.86.41,19.18,5.86l-.77.83c-1.8-.66-3.43-2-5.55-1.34a1.2,1.2,0,0,0-.94,0c-.86-1.61-2.3-1.69-3.86-1.46l-2.08-.59-6-1.39Z"/><path class="cls-6" d="M250.07,89l0,1.86-5.87-1.34a4.92,4.92,0,0,0-4.17-1.24l-4.77-1.49c.9-3.54,3.41-2.32,5.43-1.62C243.89,86.21,247,87.65,250.07,89Z"/><path class="cls-3" d="M96.26,137,96,138.79c-4.56,1.46-7.27,5.44-11,8l-5,1.68C84.4,143.21,89.15,138.45,96.26,137Z"/><path class="cls-4" d="M266.22,123l-2.32,1.08c-1.37-2.33-3.55-1.93-5.68-1.7L257.06,121c5.09-.77,1.72-5.82,4-8H264C264.5,116.39,260.7,120.73,266.22,123Z"/><path class="cls-4" d="M101.08,134.46l-2-.19,1.14-2.21c4.17-3.51,3-7.84,1.87-12.17l2-.23c2.42,2.36-.48,6,2,8.36L104,132.94c-.74.19-1.81-.21-2,1.07Z"/><path class="cls-2" d="M262.93,94.3c2.11-.65,3.75.68,5.55,1.34,2.21,3.47-.38,3.44-2.59,3.36-1.65-.06-3.24-1.45-5-.17l1.1-3Z"/><path class="cls-12" d="M257.06,121l1.15,1.38c-1.79,1.92-3.57,3.82,1.17,3.71a1.44,1.44,0,0,1,1.63,1.85c-3.15,0-7.94,3-7.28-4C254.89,123,254.8,120.71,257.06,121Z"/><path class="cls-3" d="M68.27,157.25c-2.35-1.7-.05-2,.83-2.71l7.38-3.15.8.86L77,153.88l-3.42,1.95-1.52.43-3,1.2A1.84,1.84,0,0,0,68.27,157.25Z"/><path class="cls-1" d="M80,148.51l5-1.68a7.78,7.78,0,0,1-6.68,5.24l.82-2.13Z"/><path class="cls-9" d="M250.09,99l-8-4.05C245.07,95.62,249.34,93.82,250.09,99Z"/><path class="cls-3" d="M174.08,94.93c.11-1-.32-2.73,1.33-2.45s2.55,1.8,2.65,3.58A4.3,4.3,0,0,1,174.08,94.93Z"/><path class="cls-9" d="M158.7,87.79l4.9-3.19C163.62,88.2,161.06,87.84,158.7,87.79Z"/><path class="cls-3" d="M109.15,126.81c.08-1.58-.59-3.57,2-3.76,1.12,1.09-.6,1.84-.35,2.83Z"/><path class="cls-1" d="M256.07,112c-2.16-.43-2.6-1.41-1-3Z"/><path class="cls-9" d="M163.69,84.53,165.2,83,166.85,85Z"/><path class="cls-2" d="M259.66,103l.4,2-1.53-.89Z"/><path class="cls-1" d="M253.09,116c-1.62-1.72-.2-1.81,1.06-2Z"/><path class="cls-3" d="M183.44,90.33q0,2.18,0,4.36l-.1.1q0-2.2,0-4.4Z"/><path class="cls-3" d="M79.14,149.94l-.82,2.13-1,.17-.8-.85C77.07,150.35,77.82,149.63,79.14,149.94Z"/><path class="cls-1" d="M102.07,134c.16-1.28,1.23-.87,2-1.07Z"/><path class="cls-1" d="M109.22,133.27c0,.12.12.31.08.34a1.09,1.09,0,0,1-.39.14c0-.12-.12-.31-.08-.34A1.06,1.06,0,0,1,109.22,133.27Z"/><path class="cls-2" d="M196,42.05c-3.95.92-6.79-2.25-10.38-2.94-2.5-.48-4.81-2-7.56-1.25q0-.89,0-1.77a5.51,5.51,0,0,1,5.53-.65c.35.13.82-.09,1.24-.15-.17-.39-.38-1.12-.5-1.11-2.65.31-1.51-3-3.32-3.44,1.56-3.47.59-6.36-2-8.87l.94-2.8c2.93-.13,1.89,2.82,3.12,4,.84,2.46-1.42,9.31,5.21,3.58.83-.72,2.5-.47,3.77-.66L195,27.29a4,4,0,0,0,3.65,1.83c.39,1.32.84,2.58,2.45,2.85a1.67,1.67,0,0,1,0,.57C203.4,37.84,197.27,38.65,196,42.05Z"/><path class="cls-4" d="M180,19.08l-.94,2.8c-6.68-.61-13.37-1.25-20.05-1.81a7.52,7.52,0,0,0-2.26.54c.16.38.21.92.49,1.13,1.94,1.44,3.94,2.8,5.91,4.19L164,33c-1.15-.11-2.47.22-3.11-1.21l0-2.53c-.21-4.5-5.84-2-6.91-5.34-.61-1.27-1.69-.7-2.63-.68l-2.53.71c.22-3.45,4.62-2.37,5.52-5.09l.73-.76Z"/><path class="cls-3" d="M192.06,26c-1.28.2-2.95-.05-3.77.66-6.62,5.73-4.37-1.13-5.21-3.58l4-.14c1.66.69,2.82,2.67,5,2Z"/><path class="cls-6" d="M144.1,8.17c2.79-.74,5.33-1,5.89,2.86l-1,1.1c-1-.86-1.4-2.66-3.27-2.24-1.71.38-1.64,1.65-1.43,3l-2.37,0C141.83,11,141.81,9,144.1,8.17Z"/><path class="cls-1" d="M269.06,79l0,2.09-30-11.16-13.16-6.42c1.13-2.25,2.57-.77,3.75-.19C242.38,69.6,256.89,71.36,269.06,79Z"/><path class="cls-6" d="M260.2,53.08c-8.78,3.43-18.1,1.84-27.13,2.92-.91-4.53,2.94-.85,3.85-2.23l2.35-.27h2.59c1.52.29,3.06.74,4.39-.53L259.12,51a3.86,3.86,0,0,0,0,.94Z"/><path class="cls-6" d="M225.91,63.51l13.16,6.42,0,2.09c-7.88-2.84-15.75-5.72-21.83-11.86C220.61,60,223,62.52,225.91,63.51Z"/><path class="cls-4" d="M271.58,55.13a.71.71,0,0,0,.3.68c-1.55,1.94-.69,3.25,1.14,4.29l.12,2h0l-1-.11-2.06-.56c-1.07-.37-2.25-1.26-2.86.59-1.54.33-3.15.52-4.08,2H262l-1.29-2c2.57-3,8.08-3.45,7.71-9l1.67.41-.64,2.42.66-.85Z"/><path class="cls-6" d="M271.58,55.13,270.06,55V53.43l0,.25-1.63-1.57-.73.09-1.83-.36-1.79-1,0-1.48c4.36.87,4.61-3.76,7.15-5.33l.5,0,.48.12,1,1.53c-2.4,1.35-.45,3.55-1,5.26l-.25.4.25-.4,1.65-2.2.3,1.34L274,52l0,0Z"/><path class="cls-5" d="M236.92,53.77c-.92,1.38-4.76-2.3-3.85,2.23-1.66,1.36-3.33,1.47-5,0-3-2.11-6.51-.74-9.74-1.24L220,53.24l5-.41,2.19-.07,8.76-.39Z"/><path class="cls-3" d="M218.32,54.77c3.24.5,6.71-.87,9.74,1.24-5,.65-10,1.41-15,1.91-2,.2-1.61.9-.81,2C211.86,61,211,61,210,60.88c.62-2.13-1.89-3-2-4.81,2.65-.58,5.72,1.11,8-1.49v-.09Z"/><path class="cls-6" d="M262,64h1.16c1.64,1.47,3.5.68,5.31.51l1.7.46-1.9,2a.31.31,0,0,0-.35.38l-4.83-.13-2.19-.24Z"/><path class="cls-1" d="M263.05,67.3l4.83.13c0,1.37.74,3.31-1.58,3.3A3,3,0,0,1,263.05,67.3Z"/><path class="cls-1" d="M262,64l-1.1,3c-5.42-1.49-2.26-3.3-.19-5.07Z"/><path class="cls-9" d="M268.23,67l1.9-2,0,0c1.13-.44.66-.86,0-1.27V61.4l2.06.56,0,3,0,3.07Z"/><path class="cls-4" d="M265.82,51.85l1.83.36c-2.29,1.94-5,.32-7.46.88L259.07,52Z"/><path class="cls-12" d="M270.06,53.43V55l-.66.85.64-2.42Z"/><path class="cls-4" d="M268.39,52.11,270,53.68C268.64,54,268.09,53.5,268.39,52.11Z"/><path class="cls-2" d="M262.29,102.91a3.5,3.5,0,0,1,2.68-2.81c1.4-.45,2.88-.21,3.44,1.17,1.06,2.65-.83,2-2.31,1.89-.25,0-.81.65-.81,1,0,1.26,1.84,3.06-.65,3.39C264.11,107.62,263.18,104.73,262.29,102.91Z"/><path class="cls-7" d="M271.15,44.06c-2.54,1.57-2.79,6.21-7.15,5.33-2-.91-4.11,1.31-6.07-.25l.25-1c1.3-1.49.89-3.3.93-5l.85-1a15.36,15.36,0,0,1,9,.93l.86-.4Z"/><path class="cls-5" d="M271.15,44.06l-1.35-1.44a20,20,0,0,0,1.48-2.49c.93-2.24,1.48-5.53,4.51-4.86,2.2.49.79,3.11.64,5-.12,1.53,1.12,3.16,1.76,4.75l-2.06,1.89c-.42-2.27-2.07-2.7-4-2.71l-.48-.12Z"/><path class="cls-9" d="M196,42.05c1.24-3.4,7.37-4.22,5-9.51,2.28-.68,4.39-.69,6,1.41.24.83.23,2.14.76,2.4,1,.52,1-.68,1.22-1.37l2,1.07c1,5.27-3.21,7.74-6,11-3-.76-5.6-3.09-9-2Z"/><path class="cls-3" d="M196.08,45.06c3.38-1.12,6,1.2,9,2,6.53,3.19,5.88-4.42,9.18-6,.86-.42.52-4.75,2.87-1.1q0,1.1,0,2.21L215,46.94A5.62,5.62,0,0,0,214,52l-1,.88c-7.23.72-11.11-5.71-17-7.95Z"/><path class="cls-9" d="M214,52a5.62,5.62,0,0,1,.93-5.06c2.85.13,3.28-2.17,4.1-4.08l4.84.57c.25,1.31-.32,2.94,1.7,3.47,2.48.65,1.63-2.41,3.19-2.72,2.58,5.12,7.23,2.41,11,2.72,2.34.2,4.32-.07,4.31,3l-.05.27-16,1-3,.11Z"/><path class="cls-12" d="M244.11,50c0-3.12-2-2.85-4.31-3-3.75-.31-8.4,2.4-11-2.72l.25-1.17,1.2-.2,28.84.27c0,1.72.36,3.53-.93,5l-.1-.09c-.11-2.76-1.31-4.15-4.31-4.07-5.94.14-11.88,0-17.82.08-1.11,0-3.23-.76-3.09,1.13.11,1.52,2.2.64,3.38.92,3.27.77,7.41-2,9.8,2.41Z"/><path class="cls-4" d="M259.11,43.08l-28.84-.27c9.59-2,19.3-.12,28.93-.91q.38.07.76.18Z"/><path class="cls-2" d="M229.07,43l-.25,1.17c-1.56.32-.72,3.38-3.19,2.72-2-.53-1.45-2.17-1.7-3.47Z"/><path class="cls-2" d="M219.08,42.86c-.82,1.91-1.26,4.21-4.1,4.08l2.14-4.82Z"/><path class="cls-4" d="M192.06,26V25l3,1.08L195,27.29Z"/><path class="cls-4" d="M201.07,32c-1.61-.27-2.06-1.53-2.45-2.85l1.74-.26,1,.75Z"/><path class="cls-4" d="M199.12,21l.37.29-.49-.17Z"/><path class="cls-4" d="M197,22.24l-.8-1.19Z"/><path class="cls-12" d="M272.08,64.93l0-3,1,.11a2.07,2.07,0,0,0,1.75,2.4l-.82,1.68Z"/><path class="cls-1" d="M274.26,61l.92,1.95-.3,1.54a2.07,2.07,0,0,1-1.75-2.4h0Z"/><path class="cls-12" d="M274.26,61l-1.13,1.09-.12-2a2.69,2.69,0,0,1,.83,0A1.79,1.79,0,0,0,274.26,61Z"/><path class="cls-7" d="M261,127.93a1.44,1.44,0,0,0-1.63-1.85c-4.73.11-3-1.79-1.17-3.71,2.13-.23,4.31-.63,5.68,1.7,1.48,1.87.78,3.09-1.16,4Z"/><path class="cls-1" d="M267.06,131c-.14,1-.44,2.09-1.7,1.75-.55-.15-.88-1.12-1.3-1.71Z"/><path class="cls-5" d="M209.07,35c-.19.69-.2,1.89-1.22,1.37-.52-.26-.52-1.57-.76-2.4Z"/><path class="cls-4" d="M272.13,44.16c1.94,0,3.6.44,4,2.71l-.06,3-2,.24-.3-1.34c.26-1.11.63-2.25-.63-3.05Z"/><path class="cls-8" d="M274.07,50.08l2-.24c-.13,1.24-.37,2.38-2,2.17Z"/><path class="cls-12" d="M135.13,67.93c-7.49-.67-14.58-3.81-22.34-3.11-3.38.3-4.64-1.36-2.38-5,4.87-7.84,11.93-14.43,13.93-23.93a2.28,2.28,0,0,1,.73.12c7.54,2.23,15.36,2.18,23.09,2.91,1.77.17,4.45-.12,5.09.86,1.21,1.84-1.43,2.92-2.44,4.28-3.25,4.41-6.9,8.54-9.93,13.1-2,3.08-6,5.05-5.81,9.51Z"/><path class="cls-2" d="M120.07,67.88a16.37,16.37,0,0,1,9,2.15c1.65,2.31-3.73,3.48-1,6,1.65,2.35-.27,2.56-1.8,3-5.14.34-7.24,4.16-9.25,8.08L116,88c-4.09.62-5.88,4.1-8.34,6.74-.82.58-1.88,1-1.6,2.34l.06-.08c-1,.36-2.13.63-1,2v0L103,99,100,98.87c5.69-6.06,11.46-12,17-18.22,2.17-2.42,6.5-4,4.12-8.7l-1.08-2Z"/><path class="cls-9" d="M93.08,37c-1.74-.42-3.42-.75-3,2L67.84,32.62c4.68-6.66,10.51-2.46,15.85-1.48,3.35.62,6.47,1.67,9.2-1.27,2.05,1.2.14,4.48,2.81,5.35L95,36l-1,.76Z"/><path class="cls-5" d="M126.3,79c1.52-.45,3.45-.67,1.8-3,.9-1.75,4-1.3,4-4l3-3c1.36.08,2.68.09,3-1.69l1.94-.41c3.88,2.16,6.54-2.27,10.09-1.87-.34.73-.5,1.86-1.06,2.12-9.25,4.29-16.8,10.94-24.44,17.47-1.23,1.06-2.5,2.95-4.62,1.32Z"/><path class="cls-12" d="M107.06,39c-1.63-2.28.06-4.41.31-6.6,2.62.37,5.74,0,7.71,1.34,1.73,1.18,4.86,1.7,5,4.76.06,1.8-1.42,1.42-2.5,1.55-1.52.18-3.34-1-4.48,1Z"/><path class="cls-11" d="M107.06,39l6,2c-.15,1.46-1,3.26,1.79,3.08,1.27-.08,2.42.14,1.81,1.93-.49,1.41-.79,2.76-2.9,2.65C109.27,48.43,106,43.85,107.06,39Z"/><path class="cls-3" d="M54.14,66.44c7.37-3,15.29-2.29,23-3.34l1,1.71c-5.94.82-11.88,1.66-17.83,2.42-1.14.14-2.33-.09-2.65,1.44l-3.51-.84Z"/><path class="cls-5" d="M95.7,35.23c-2.67-.87-.76-4.15-2.81-5.35q0-.49,0-1l2.22-.19,7,2.29-1.21,1.52c-1.2.34-2.1.95-2,2.37Z"/><path class="cls-11" d="M102.17,69.05c-2.48,1.59-4.61,2.15-6-1.41-1.21-3.12.62-3.59,2.95-3.8C98.93,66.28,102.79,66.36,102.17,69.05Z"/><path class="cls-3" d="M102.17,69.05c.62-2.69-3.23-2.77-3-5.21,3.86-2.13,5,1.64,7.14,3.28l-3,3.27Z"/><path class="cls-8" d="M100,61.56A11.83,11.83,0,0,1,109,58C107.26,62.36,103.53,61.7,100,61.56Z"/><path class="cls-8" d="M105.77,53.75a2.69,2.69,0,0,1,.37-.71c1.85.24,4-.83,5.4.85.26.32-1.43,2.23-2.22,3.41Z"/><path class="cls-8" d="M132.07,72c0,2.68-3.08,2.23-4,4-2.78-2.49,2.61-3.66,1-6C131,69.28,129.93,73.09,132.07,72Z"/><path class="cls-8" d="M116,31.6c.57-1.21.52-3.47,2.48-2.84,2.18.71.94,2.66.59,4.15Z"/><path class="cls-8" d="M120.07,67.88q0,1-.07,2l-7.86-2a5,5,0,0,0-.1-.81Z"/><path class="cls-7" d="M138.1,67.34c-.3,1.78-1.62,1.77-3,1.69V67.93l0-1.28Z"/><path class="cls-7" d="M113,27l1.47-.56L114,28Z"/><path class="cls-3" d="M98.82,34.89c-.06-1.42.84-2,2-2.37C101,34.05,100.42,34.89,98.82,34.89Z"/><path class="cls-7" d="M114.06,30a5.36,5.36,0,0,1,0,1l-2-.06.07.06Z"/><path class="cls-5" d="M94,36.75,95,36Z"/><path class="cls-8" d="M125.08,36a2.28,2.28,0,0,0-.73-.12v-1a.32.32,0,0,1,.47,0Z"/><path class="cls-12" d="M112.06,30.91l-.37.57c0-.1,0-.25,0-.3a1.69,1.69,0,0,1,.41-.2Z"/><path class="cls-4" d="M125.08,36l-.28-1.1,1.1-.42c3.47-.27,6.62-2.78,10.32-1.51l-1.43,2.57,2.34,0,5.91.5c1.12,1.54,2.67.67,4.06.73,2.35-1.38,6,2.53,7.6-1.86h-.14c-2.18,2.7,2.76,3.47,1.6,5.9l-1.12,2q-7.1,8.91-14.18,17.84a22.65,22.65,0,0,0-1.47,2.41,5.2,5.2,0,0,0,1.61.46c8.93-.49,16.65-9.28,15.37-17.47L158,46l.87,1.06.82,7.83-1.6,3.18a3.39,3.39,0,0,0-3,1.92l-1.92,1.22L140,66.93l-1.94.41-3-.68c-.21-4.46,3.76-6.43,5.81-9.51,3-4.55,6.67-8.69,9.93-13.1,1-1.36,3.64-2.44,2.44-4.28-.65-1-3.32-.69-5.09-.86C140.44,38.18,132.61,38.23,125.08,36Z"/><path class="cls-8" d="M136.22,33c-3.7-1.27-6.85,1.23-10.32,1.51.5-6.14,7.33-7.62,9.31-12.67C138.69,20.19,137,25,139.11,25L138,31.19l-.79,2.15Z"/><path class="cls-5" d="M55.86,29.72c-3.78,0-6.64-2.59-10-3.7.55-2,2.36-1.89,3.88-2.25C53.54,23,57,19.6,61.27,22.16,61.17,25.9,56.38,26.28,55.86,29.72Z"/><path class="cls-3" d="M49.72,23.77c-1.52.36-3.33.22-3.88,2.25C44,25.89,44.11,24.5,44,23.23a7.28,7.28,0,0,1,6-1Z"/><path class="cls-1" d="M151.55,16.07c1.74.13,2.34,1.39,2.78,2.8-.9,2.72-5.29,1.64-5.52,5.09-1.71.78-3.77,1-4.8,2.88-2.78,2.39-2.74-.15-3.21-1.82l.35-1.77C143.76,19.6,148.18,18.59,151.55,16.07Z"/><path class="cls-8" d="M144.24,12.85c-.21-1.32-.27-2.59,1.43-3,1.87-.42,2.25,1.39,3.27,2.24-.3,1.26,1.58,4.07-1.91,3C146.08,14.83,146,12.69,144.24,12.85Z"/><path class="cls-9" d="M135.82,15.84l.39.13c1.81-.4,1.87.7,1.7,2a2.71,2.71,0,0,1-4-.62C133.51,16.8,134.69,15.79,135.82,15.84Z"/><path class="cls-4" d="M140.81,25c.46,1.67.43,4.22,3.21,1.82l1.15,3.33c.25.72.87,1.59.66,2.13a1.49,1.49,0,0,1-2.41.39A6,6,0,0,0,138,31.19l1.07-6.2Z"/><path class="cls-6" d="M54.14,66.44l-.08,1.39.32,2.67c-2,3.73-4.77,5.6-9.08,3.84-1-1.31-1.2-3.78-3.86-2.6a.39.39,0,0,1,.38-.4l0-2,.38-.48L48,68c1.79-.27,4.23,1.23,5-1.86Z"/><path class="cls-4" d="M41.45,71.74c2.66-1.18,2.87,1.29,3.86,2.6-2.47,3.53-5.3,6.42-10.17,5.6l1-2.92-.07.05C39.52,77,43.63,77.54,41.45,71.74Z"/><path class="cls-5" d="M36.13,77l-1,2.92-2.09,3-1-2.93,2.19-2.79Z"/><path class="cls-1" d="M80.32,69.84h5.1c0,.15,0,.37-.07.45C83.77,71.61,82,70.88,80.32,69.84Z"/><path class="cls-12" d="M54.39,70.5l-.32-2.67,3.51.84Z"/><path class="cls-1" d="M89.7,70.75c-.13.28-.2.69-.39.77s-.52-.19-.78-.3c.11-.27.17-.68.36-.76S89.41,70.63,89.7,70.75Z"/><path class="cls-4" d="M53,66.18c-.73,3.09-3.18,1.59-5,1.86q0-.6,0-1.2l1-.57Z"/><path class="cls-12" d="M49,66.27l-1,.57-1.28-1.19,1.5-.68a2.52,2.52,0,0,1,.83,0Z"/><path class="cls-11" d="M50.58,136q0-.47.45-.43c1.7-1.45,3.26-3,3-5.48L56,128l3.07,0,0,0c1.14,3.17,2.46,2.48,3.87.19,2.22-4.61,6.15-3.78,10-3.16-3,5.86-9.62,9.65-10,17.07-4.39-.07-3.65-3.35-3.8-6.07h0l1.42-1c.68-.65,1.75-1.24,1.07-2.31-.19-.3-1.56-.23-2,.13A38.27,38.27,0,0,0,56.08,136l-4,3-2-1Z"/><path class="cls-2" d="M59.11,136c.15,2.72-.6,6,3.8,6.07l.06,0L64.07,144l-1.22,6a4.11,4.11,0,0,0-.69-.25L47,146,47,143.89,48.06,141a5.22,5.22,0,0,1,.75-.18c1.46.09,3,.37,3.26-1.79l4-3Z"/><path class="cls-7" d="M56,128l-1.94,2-1.85,1-3.74-.15c-.17-3,4-3.82,3.56-7l1.93-.22c.19,1.33-.15,3,1.9,3.2Z"/><path class="cls-12" d="M62.17,149.73a4.12,4.12,0,0,1,.69.25l2.26.17c-.37,4.53-2.16,2.67-3.93.87Z"/><path class="cls-3" d="M52.21,131.09l1.85-1c.23,2.52-1.33,4-3,5.48C49.79,133.61,51.71,132.54,52.21,131.09Z"/><path class="cls-3" d="M48.81,140.83a5.22,5.22,0,0,0-.75.18c0-2.08-.91-4.65,2.51-5L50.12,138Z"/><path class="cls-7" d="M47,143.89,47,146l-1.5-.79Z"/><path class="cls-11" d="M102.06,119.88c1.17,4.33,2.29,8.66-1.87,12.17-2.17-1.57-.09-4.48-2-6.14-1.13-1.84-3-2.54-4.92-3.19l-1.17-2c-.29-2.53-3.75-1-4.23-3.3-.09-1,.69-2.29-1-2.71q-.06-1.31-.13-2.62l1.25-.08c2.32,1.27,3.54-4.79,6.24-.93-2.07,2.45.7,3.28,1.64,4.63s3.75.59,3.11,3.31a2.11,2.11,0,0,0,3.06,1Z"/><path class="cls-12" d="M72.92,125c-3.87-.62-7.8-1.45-10,3.16L59,128l0,0,2-5L63.25,121c4.72-2.4,9.16-3,12.74,2v0Z"/><path class="cls-3" d="M70,140.94l-1.35.52-.81-.68c.51-3.65,5-5.59,4.23-9.79l0,0c1.87.32,2-.9,2-2.26A6.16,6.16,0,0,0,76,122.94v0l3-1.81,1.92-.42.26,1.4-.06-.08-1,1h.1c-2.15.22-2.74,1.09-1.21,2.87l-6.93,12A3.6,3.6,0,0,0,70,140.94Z"/><path class="cls-8" d="M88.07,112l-1.25.08c-1.26-.19-2.41,1.72-3.75.21.39-4.13-3.91-1.72-5.1-3.66-.15-2.11,1.37-3.28,2.6-4.62.51,7.18,6.09,3.15,9.36,4.23Z"/><path class="cls-4" d="M79,121.14,76,123c-3.59-4.94-8-4.37-12.74-2C65.51,116.48,74.59,116.57,79,121.14Z"/><path class="cls-3" d="M61.06,123.07l-2,5L56,128,55.85,127C57.81,125.95,58.22,122.88,61.06,123.07Z"/><path class="cls-4" d="M86.95,114.68c1.67.42.88,1.72,1,2.71a1,1,0,0,0-.93.26L85,118C83.78,115.78,86.3,115.78,86.95,114.68Z"/><path class="cls-4" d="M81.19,122.13l-.26-1.4c.58-.59.85-2,2.11-.81C83.09,121.21,82.78,122.2,81.19,122.13Z"/><path class="cls-4" d="M85.05,117.92,83,120C82.4,118,83,117.21,85.05,117.92Z"/><path class="cls-8" d="M98.24,125.91c1.86,1.66-.22,4.58,1.95,6.15L99,134.26l-.73.8c-1.42-.06-2.23.52-2.18,2l.12,0c-7.11,1.41-11.86,6.17-16.22,11.47l-.9,1.43c-1.32-.31-2.07.42-2.66,1.45l-7.39,3.15c2-5.39,2.78-11.22,5.81-16.32.85-1.42,1-3,3-3.32.54,6.9,3.92,4.27,7.15,2.14l4-2C94.76,134.62,97.2,131,98.24,125.91Z"/><path class="cls-7" d="M85.07,137c-3.23,2.13-6.61,4.76-7.15-2.14l3.07-5c3.21-.2,2.94-4.59,6-5,.7,2.72-1,4.62-2.23,6.71C83.7,133.51,82.48,135.39,85.07,137Z"/><path class="cls-8" d="M87,124.94c-3.06.38-2.79,4.77-6,5,.61-4.77,5.53-7.43,6-12.26a1,1,0,0,1,.93-.26c.48,2.29,3.93.77,4.23,3.3C89.29,120.71,88.32,123,87,124.94Z"/><path class="cls-3" d="M65.11,150.15,62.85,150l1.22-6c2.3.15,2.33-2.32,3.72-3.22l.82.68q-.24,1.28-.49,2.55l-1.07,2Z"/><path class="cls-4" d="M79,126c-1.54-1.77-.94-2.65,1.21-2.87Z"/><path class="cls-12" d="M70,140.94a3.6,3.6,0,0,1,2.1-2.94C72.06,139.47,72,140.93,70,140.94Z"/><path class="cls-12" d="M67.06,146l1.07-2C69.6,145.66,68.18,145.75,67.06,146Z"/><path class="cls-4" d="M80.1,123.08l1-1Z"/><path class="cls-13" d="M108,70l2.09-.21c3.45.23,7.18-.38,9.51,3.19-5.11,7.35-12,13-18.07,19.46-3.17,3.37-6.3,4.43-10.44,2.48,0-3.58.66-6.88,3.95-9,3.3-2.78,6.59-5.56,8-9.89l.93-1,2.06-3.09C107.36,71.93,108,71.24,108,70Z"/><path class="cls-9" d="M91.14,94.91c4.14,1.94,7.27.89,10.44-2.48,6.07-6.45,13-12.11,18.07-19.46l1.44-1c2.38,4.65-1.95,6.28-4.12,8.7-5.55,6.18-11.33,12.16-17,18.22l0,0c-4,1.81-6.18,5.26-8.05,9q-.4,0-.79,0c.9-5.14-4.17-3.4-6.1-5.29Z"/><path class="cls-13" d="M85,102.65c1.93,1.88,7,.15,6.1,5.29l-1.19.29c-3.27-1.08-8.84,2.95-9.36-4.23L83,102.7Z"/><path class="cls-5" d="M121.08,72l-1.44,1c-2.33-3.57-6.06-3-9.51-3.19l2-1.88,7.86,2Z"/><path class="cls-5" d="M108,70c-.08,1.24-.68,1.94-2,1.9A1.86,1.86,0,0,1,108,70Z"/><path class="cls-5" d="M104,75l-.93,1Z"/><path class="cls-5" d="M15,94c-2.13,0-3.65-2.34-6.24-1.37-.82.31,0-1,.4-1.54C11.58,91.2,15.62,88,15,94Z"/><path class="cls-5" d="M41.45,71.74c2.18,5.8-1.93,5.23-5.39,5.33,1.08-2.37-1.65-6.59,3.42-7,.62.73,1,1.83,2.35,1.28A.39.39,0,0,0,41.45,71.74Z"/><path class="cls-4" d="M41.83,71.34c-1.31.55-1.73-.54-2.35-1.28l2.37-.77Q41.83,70.32,41.83,71.34Z"/><path class="cls-8" d="M193.13,70.7c-1.08.39-1.19,1.17-.88,2.13-.71.53-3.68-.55-1.4,2.15.9,1.07,3.17,2.54.28,4.08-3,.12-3.46-3.54-6-4.15L184,73.78A3.35,3.35,0,0,0,181,72c-.28-2.73,0-4.8,3.63-3.31.67.28,2.24-.27,1.65-.75-2.08-1.7-4.65-3.1-7.43-2.66-3,.47-.36,1.61,0,2.47s.29,1.84-.76,1.83c-.61,0-1.22-.93-1.82-1.45-1.32-.86-2.65-1.72-4-2.6-1.54-1-1.25-2.67-1-4,.38-2,2-1.2,3.21-1,4.5.93,8.87,1.36,12.49-2.33l1.91-3.69,1.87-1.14.44,3.19c-.58.3-1.57.5-1.66.9-.29,1.26.75,1,1.54,1L203,58.13a2.34,2.34,0,0,1,.12.78c-1.32,2.11-3,5-5.24,4.76C191.2,63,192.22,66.72,193.13,70.7Z"/><path class="cls-4" d="M203.09,58.91a2.35,2.35,0,0,0-.12-.78l.14-1.92,4.94-.14c.11,1.84,2.61,2.68,2,4.81C207.12,62.35,205.42,59.51,203.09,58.91Z"/><path class="cls-9" d="M120,86c2.12,1.63,3.39-.27,4.62-1.32,7.64-6.54,15.19-13.18,24.44-17.47.56-.26.71-1.39,1.06-2.12l1.91-1c3.35.49,6.24-3.25,9.77-1.06l.22,3c-1.68.89-2.54,2.05-1.34,3.92l.16,1.74.11.13c-3-.15-3.91,2.81-5.92,4.14-3.75,1.72-5.62,6.06-9.87,7.07-1.52-6.52-5.72-6.42-9.91-3.25C128.33,85,121.94,91,115.18,96.45c-4.21,3.41-3.58,6.5,0,9.74l-.23,1.7a18.81,18.81,0,0,0-6.6,5.3c-1.77-.06-3.56,0-5.31-.22-3.29-.44-6.24-1.28-3.9-5.67,1.14-.42,2-1,1.78-2.46l.84-1c1.53.2,2.25-.46,2.15-2,0-1.07,2.29-1.18,1.19-2.74v0c1.55-.08,2.44-.48,1-2l-.06.08c2.25,1.39,2.7-.75,3.68-1.87l1.29-.21,1.54.31-.27-1.74a.39.39,0,0,1,.51-.25l1.24-.24C115.62,91.73,116,89.92,116,88l1-.91Z"/><path class="cls-5" d="M163.1,25.93c-2-1.39-4-2.76-5.91-4.19-.29-.21-.33-.74-.49-1.13a7.52,7.52,0,0,1,2.26-.54c6.69.56,13.37,1.19,20.05,1.81,2.62,2.51,3.59,5.4,2,8.87-2.11,3-6.59,2.74-8.42,6.13L170.87,39l-.18.28A5.21,5.21,0,0,0,169.07,44l-.61,1.08c-1.69-.52-3.72,2-5-.12s1.24-3.43,2-5.14c1.33-2.88,5.29-4.82,3.39-8.92-.63-.72.92-2-.63-2.48-.54-1.27,1.15-3-.56-3.93C165.82,23.46,164.42,24.74,163.1,25.93Z"/><path class="cls-11" d="M158.06,85,143,95.95c-1.58-3.55-3.3-1.56-5.23-.26s-2.67,4.54-5.88,2.78c6.94-8.43,17-13.3,24.28-21.37l3.8-2.56C160.73,78.28,158,81.37,158.06,85Z"/><path class="cls-8" d="M131.93,98.47c3.21,1.75,4.09-1.58,5.88-2.78s3.64-3.29,5.23.26l-3,3.29-1.6,1.77c-3.61,1-7.47,1.65-8.37,6.27-2.47,2.71-5.09,5.24-8.54,6.71-2.66,0-4.22,2.09-6.3,3.21-2-3.34,4.78-4.65,1.88-8.19l9.94-7c1.24.59,2.13.63,1.89-1.17Z"/><path class="cls-9" d="M208.06,56.07l-4.94.14-11.88.32-.44-3.19-1.87,1.14c.05-.82.1-1.63.15-2.45a2.62,2.62,0,0,1,.28-.78L191,51c2.1.27,2.48-.95,2.26-2.64-.28-2.16.53-3.38,2.8-3.44,5.84,2.24,9.72,8.67,17,7.95l2,.35,1,1.34C213.77,57.18,210.7,55.49,208.06,56.07Z"/><path class="cls-9" d="M168.88,30.91c1.9,4.1-2.06,6-3.39,8.92-.79,1.71-3.33,3-2,5.14s3.31-.4,5,.12c-1.36,3.24,2.16,8.08-3.27,10l-5.5-.18-.82-7.83c2.81-2.73-.77-5.54.11-8.3C162.82,36.82,166.37,34.51,168.88,30.91Z"/><path class="cls-12" d="M158.06,85c-.09-3.63,2.67-6.72,1.95-10.47L161,71.8l-.11-.13c3.56-.46,4.62-2.53,4.11-5.93-.28-1.88-1.39-3.95.17-5.74a21.76,21.76,0,0,1,3-2.43,18.3,18.3,0,0,1,.94,3.08C170,68.8,164.17,81.77,158.06,85Z"/><path class="cls-11" d="M173.85,52c2.41-6.34,8.27-2.8,12.33-3.74,3.31-.77-.63,3.33.93,4.83l0,0c-3.65.66-7.19,2.56-11.05,1Z"/><path class="cls-7" d="M176.26,68.08c.61.51,1.21,1.44,1.82,1.45,1.05,0,1.08-1,.76-1.83s-3-2,0-2.47c2.79-.44,5.36,1,7.43,2.66.6.49-1,1-1.65.75-3.63-1.48-3.91.58-3.63,3.31-2.47,1.4-6.1-1.65-8,2.08h0c-.76-1-1.42-.26-2.09.14C169.7,69.14,169.7,69.14,176.26,68.08Z"/><path class="cls-5" d="M159.7,54.89l5.5.18c-1,2.72-3.36,4.85-3.38,8-3.53-2.19-6.42,1.55-9.77,1.05l1.1-2.89L155.07,60c1.45,0,2.85,0,3-1.92Z"/><path class="cls-2" d="M185.13,74.9c2.53.61,3,4.27,6,4.15,1.84,2.15,6.46-.77,7,3.82-1.06.37-2.71,1.36-3.08,1-2.81-2.64-4.82-1.21-6.84.93.63-3.17-1.87-4.81-3.38-6.94Z"/><path class="cls-11" d="M170.89,84.43c.22-1-.29-3.21,1.9-2.06,2,1,4.76-.51,6.13,2.06-2.62,1.27-.52,5.88-3.37,6C172.35,90.62,171.2,87.51,170.89,84.43Z"/><path class="cls-11" d="M178.93,41.76c.59-2.9,2.79-1.81,4.3-1.46a4.77,4.77,0,0,1,3.52,3.81c.45,2.28-1.27,1.8-2.52,1.52-1.73-.39-3.43-.94-5.14-1.42Z"/><path class="cls-5" d="M185.13,74.9l-.36,3c-4.24-2.5-8.42-3.92-12.74,0-.49.45-1.82,2.12-2.63.19-.16-.38,1.07-1.35,1.66-2l2-2h0L184,73.78Z"/><path class="cls-11" d="M183.44,90.33l-.06.07c-1.32,0-3.26,1.54-3.75-.47-.36-1.48.72-3.31,1.16-5a12.84,12.84,0,0,1,3.17,1C186.68,87.66,183.77,88.88,183.44,90.33Z"/><path class="cls-3" d="M173.85,52l2.22,2.12c0,2.64-1,4.5-3.86,4.8-.48.05-1-.53-1.55-.82C173.38,56.89,168.93,52,173.85,52Z"/><path class="cls-12" d="M178.93,41.76l.16,2.46c-1.09,2.13-2.75,3.22-5.16,2.62-.3-.07-.67-1.18-.5-1.58C174.45,42.89,175.89,41,178.93,41.76Z"/><path class="cls-3" d="M169.07,44a5.2,5.2,0,0,1,1.62-4.76l.43,1.93,1,1c0,.33,0,.67,0,1q-.19,2.89-.38,5.79C169.26,48.11,170.87,45.16,169.07,44Z"/><path class="cls-11" d="M191,48.94a4.84,4.84,0,0,0-.35-.36c-2.09-1.74-1.42-4.19-1.66-6.4.37.07,1,0,1.07.22.88,2.13,3.34,4,1.09,6.68Z"/><path class="cls-8" d="M178.09,36.09q0,.89,0,1.77l-4.72,3.42-1-1,.51-1.28,1.73-1.75Z"/><path class="cls-7" d="M189.08,52c0,.81-.1,1.63-.15,2.45L187,58.17c-6.92-1.86,1.91-3.38.11-5.13l0,0Z"/><path class="cls-3" d="M181.39,59.12c-1,0-2.1.68-2.1-.73A1.24,1.24,0,0,1,181,57.21a10.32,10.32,0,0,1,2.08,1.13Z"/><path class="cls-7" d="M160.69,69.93c-1.2-1.87-.33-3,1.34-3.92C163.77,68.06,162.24,69,160.69,69.93Z"/><path class="cls-11" d="M191,51l-1.68.23c-.09-1.22.21-2.17,1.64-2.3l.15.14Q191.1,50.06,191,51Z"/><path class="cls-6" d="M173.1,74l-2,2L171,74.17C171.68,73.78,172.34,73.08,173.1,74Z"/><path class="cls-3" d="M181.56,92.57c.1.19.23.32.22.44s-.16.22-.25.33Z"/><path class="cls-8" d="M172.08,42.16l-1-1,1.2-.86,1,1Z"/><path class="cls-5" d="M198.08,82.88c-.49-4.59-5.12-1.68-7-3.82,2.89-1.54.62-3-.28-4.08-2.27-2.7.7-1.61,1.4-2.15,3.41,1.35,6.82,2.71,10.23,4,1.38.54,3.84-.21,3.62,2.26-.17,1.8-2.25,2.24-3.75,2.78A32.62,32.62,0,0,1,198.08,82.88Z"/><path class="cls-3" d="M130.07,107.28c.89-4.62,4.76-5.27,8.37-6.27l-.5,1.86Z"/><path class="cls-3" d="M115.23,117.2c2.07-1.12,3.64-3.23,6.3-3.21-1,3.11-4.29,4-6.2,6.26l-1-.87.79-2.31Z"/><path class="cls-3" d="M115.33,120.24l-2,2-.85-.91,1.92-2Z"/><path class="cls-3" d="M111.13,123.14l-.08-1.2,1.39-.6.85.91C112.69,122.84,112.4,124.15,111.13,123.14Z"/><path class="cls-3" d="M131.93,98.47l-3,2.35L127,102l-9.94,7a3.1,3.1,0,0,0-.94.14L115,107.88l.23-1.7c11.9-5.25,20.34-15,30-23.16,4.25-1,6.12-5.36,9.87-7.07l1.18,1.15C148.95,85.16,138.87,90,131.93,98.47Z"/><path class="cls-5" d="M99.17,107.29c-2.34,4.39.61,5.23,3.9,5.67,1.75.24,3.54.16,5.31.22L104.65,119l-.58.66-2,.23.05.07c-.55-1.82-1.94-.94-3.06-1,.65-2.72-2.25-2.08-3.11-3.31s-3.72-2.17-1.65-4.63a1.39,1.39,0,0,0,.76-.53c1.23-1.3,1.47-3.66,3.92-3.65Z"/><path class="cls-6" d="M104.65,119l3.73-5.81a18.82,18.82,0,0,1,6.6-5.3l1.19,1.26C111.55,111.51,110.08,117.57,104.65,119Z"/><path class="cls-8" d="M112.44,121.33l-1.39.6c-.17-2.93.31-5.3,4.11-4.88l-.79,2.31Z"/><path class="cls-11" d="M96.14,137.09c0-1.5.77-2.09,2.18-2C97.94,136.11,97.7,137.31,96.14,137.09Z"/><path class="cls-4" d="M178.09,36.09l-3.53,1.19-1.94-.41c1.83-3.39,6.31-3.13,8.42-6.13,1.82.43.67,3.75,3.32,3.44.12,0,.33.72.5,1.11-.42.06-.89.27-1.24.15A5.51,5.51,0,0,0,178.09,36.09Z"/><path class="cls-5" d="M138,31.19a6,6,0,0,1,5.37,1.51,1.49,1.49,0,0,0,2.41-.39c.21-.55-.41-1.41-.66-2.13l4-.92h2.19l1.51.14c1.63.76,2.12-1,3.18-1.46l4.89,1.36,0,2.53-2,.74c-3,.91-6.43.21-9.46,2.39h5.2c-1.61,4.4-5.26.48-7.6,1.87-.6-4.44-2.54-1.38-4.06-.73l-5.91-.5.12-2.24Z"/><path class="cls-6" d="M149.12,29.25l-4,.92L144,26.84c1-1.91,3.09-2.1,4.8-2.88l2.53-.71,2.63.68c1.07,3.38,6.71.84,6.91,5.34L156,27.91c-2.06-1.68-2.75-.4-3.18,1.46l-1.51-.14C150.57,28.27,149.84,27.73,149.12,29.25Z"/><path class="cls-6" d="M159,32.55l2-.74c.64,1.42,2,1.1,3.11,1.21l4.23-4.58c1.55.49,0,1.76.63,2.48-2.52,3.6-6.06,5.91-9.89,7.86-3.41-1.33,1.92-2.53.06-3.84Z"/><path class="cls-9" d="M168.26,28.43,164,33l-.93-7.08c1.32-1.19,2.72-2.47,4.6-1.43C169.4,25.45,167.72,27.16,168.26,28.43Z"/><path class="cls-12" d="M154,23.94l-2.63-.68C152.29,23.24,153.37,22.67,154,23.94Z"/><path class="cls-3" d="M244.11,50,246,48.47c1.93-1.4,3.56.72,5.39.45,2.11,1.74,4.29,1.39,6.5.22,2,1.56,4.08-.66,6.07.25l0,1.48-4.92.16L246.25,53h-2.18l0-2.76Z"/><path class="cls-7" d="M259.12,51l4.92-.16,1.79,1-6.76.12A3.86,3.86,0,0,1,259.12,51Z"/><path class="cls-5" d="M241.86,53.5h-2.59l-.11-1.3c1,.17,2.36-.72,2.79,1Z"/><path class="cls-8" d="M239.16,52.21l.11,1.3-2.35.27-1-1.4Z"/><path class="cls-8" d="M241.86,53.5l.09-.28,2.12-.24h2.18C244.92,54.23,243.38,53.78,241.86,53.5Z"/><path class="cls-12" d="M268.42,64.54c-1.8.18-3.66,1-5.31-.51.94-1.53,2.55-1.71,4.08-2l-.12-.06v1.48Z"/><path class="cls-2" d="M268.42,64.54l-1.33-1.14c.83-.49,1-1,0-1.48l.12.06c.61-1.85,1.79-1,2.86-.59v2.38l0,1.27,0,0Z"/><path class="cls-8" d="M273.14,45.69c1.25.8.89,1.94.63,3.05l-1.65,2.2h0C272.69,49.24,270.74,47,273.14,45.69Z"/><path class="cls-12" d="M272.12,50.95l-.25.4.25-.4Z"/><path class="cls-6" d="M244.07,53l-2.12.24c-.42-1.73-1.8-.84-2.79-1l-3.22.17-8.76.39.9-1.55,16-1Q244.06,51.6,244.07,53Z"/><path class="cls-6" d="M215,53.24l-2-.35,1-.88,11-.68-.08,1.5-5,.41-2.86,0Z"/><path class="cls-12" d="M225,52.83l.08-1.5,3-.11-.9,1.55Z"/><path class="cls-9" d="M217.11,53.22l2.86,0-1.64,1.52-2.27-.28Z"/><path class="cls-5" d="M217.11,53.22l-1,1.27v.09l-1-1.34Z"/><path class="cls-12" d="M270.08,65l0-1.27C270.74,64.19,271.21,64.61,270.08,65Z"/><path class="cls-12" d="M257.93,49.14c-2.21,1.17-4.39,1.52-6.5-.22,2-1.53,4.48-.3,6.65-.91l.1.09Z"/><path class="cls-10" d="M258.08,48c-2.18.61-4.61-.62-6.65.91-1.83.27-3.46-1.84-5.39-.45-2.39-4.37-6.52-1.64-9.8-2.41-1.19-.28-3.27.6-3.38-.92-.14-1.9,2-1.12,3.09-1.13,5.94-.09,11.88.07,17.82-.08C256.77,43.87,258,45.25,258.08,48Z"/><path class="cls-6" d="M111.06,95l-1.29.21-2.07-.47c2.46-2.64,4.24-6.12,8.34-6.74-.07,1.91-.41,3.73-1.95,5.08l-1.24.24a.38.38,0,0,0-.51.25Z"/><path class="cls-3" d="M120,86l-3,1.13c2-3.92,4.11-7.74,9.25-8.08Z"/><path class="cls-3" d="M101.79,103.82l-.84,1-1.78.37L98,105l2.23-3.58L103,99l2.12.09c1.1,1.56-1.15,1.68-1.19,2.74Z"/><path class="cls-3" d="M107.69,94.75l2.07.47c-1,1.12-1.43,3.26-3.67,1.87C105.82,95.75,106.87,95.33,107.69,94.75Z"/><path class="cls-7" d="M103,99l-2.74,2.43-.3-2.5,0,0Z"/><path class="cls-3" d="M106.15,97c1.43,1.55.54,2-1,2C104,97.65,105.17,97.37,106.15,97Z"/><path class="cls-7" d="M153.15,61.22,152,64.11l-1.92,1c-3.55-.4-6.21,4-10.09,1.87Z"/><path class="cls-12" d="M156.37,46.07c1.28,8.19-6.44,17-15.37,17.47a5.2,5.2,0,0,1-1.61-.46,22.65,22.65,0,0,1,1.47-2.41q7.06-8.94,14.18-17.83Z"/><path class="cls-5" d="M159.05,34.93c1.86,1.31-3.47,2.5-.06,3.84-.88,2.75,2.7,5.57-.11,8.29L158,46l-1.85-5.18c1.16-2.43-3.78-3.19-1.6-5.89Z"/><path class="cls-3" d="M159.05,34.93H149.5c3-2.18,6.44-1.48,9.46-2.39Z"/><path class="cls-7" d="M143,36.08c1.51-.66,3.46-3.72,4.06.73C145.71,36.75,144.16,37.62,143,36.08Z"/><path class="cls-3" d="M156.16,40.83,158,46l-1.65.07L155,42.83Z"/><path class="cls-7" d="M137.25,33.34l-.12,2.24-2.34,0L136.22,33Z"/><path class="cls-7" d="M158.09,58.08c-.18,1.95-1.58,2-3,1.92A3.39,3.39,0,0,1,158.09,58.08Z"/><path class="cls-4" d="M76,122.94a6.16,6.16,0,0,1-1.89,5.77c-1.12.36-2.32.64-2,2.25l0,0c-4.81,2.26-5,8.25-9.06,11.15l-.06,0c.39-7.42,7-11.2,10-17.07Z"/><path class="cls-8" d="M59.11,136h-3a38.31,38.31,0,0,1,3.44-3.21c.49-.36,1.86-.42,2-.13.68,1.08-.4,1.67-1.08,2.31l-1.42,1Z"/><path class="cls-8" d="M48.81,140.83l1.3-2.81,2,1C51.84,141.2,50.28,140.93,48.81,140.83Z"/><path class="cls-3" d="M59,128l3.87.19C61.49,130.48,60.17,131.17,59,128Z"/><path class="cls-2" d="M59.07,136l1.42-1Z"/><path class="cls-11" d="M63,142.14c4-2.9,4.25-8.89,9.06-11.15.74,4.19-3.72,6.14-4.23,9.79-1.39.91-1.42,3.37-3.72,3.22Z"/><path class="cls-5" d="M87,124.94c1.33-1.89,2.3-4.22,5.17-4.25l1.16,2c.1,4.62-.73,8.93-4.24,12.31l-4,2c-2.59-1.65-1.37-3.53-.32-5.39C85.94,129.56,87.69,127.66,87,124.94Z"/><path class="cls-7" d="M89.09,135c3.51-3.38,4.33-7.69,4.24-12.31,1.91.65,3.78,1.35,4.92,3.19C97.2,131,94.76,134.62,89.09,135Z"/><path class="cls-7" d="M95.07,110.53a1.39,1.39,0,0,1-.76.53c-2.7-3.86-3.92,2.2-6.24.93l1.87-3.77,1.19-.29c.26,0,.53,0,.79,0l2.19.11Z"/><path class="cls-4" d="M99.06,119c1.11,0,2.51-.86,3.06,1A2.11,2.11,0,0,1,99.06,119Z"/><path class="cls-11" d="M72,131c-.27-1.61.93-1.9,2-2.25C74.08,130.07,73.92,131.29,72,131Z"/><path class="cls-2" d="M94.11,108l-2.19-.11c1.88-3.72,4.06-7.16,8.05-9l.3,2.5L98,105C96,105,95,106.42,94.11,108Z"/><path class="cls-6" d="M191.23,56.53l11.88-.32L203,58.13l-11.86.32c-.78,0-1.82.25-1.54-1C189.66,57,190.65,56.83,191.23,56.53Z"/><path class="cls-6" d="M184,73.78,173.09,74c1.86-3.73,5.49-.68,8-2.08A3.35,3.35,0,0,1,184,73.78Z"/><path class="cls-10" d="M145.17,83c-9.61,8.2-18.06,17.92-30,23.16-3.6-3.23-4.24-6.32,0-9.74C121.94,91,128.33,85,135.26,79.77,139.45,76.6,143.65,76.49,145.17,83Z"/><path class="cls-4" d="M156.21,77.1,155,75.94c2-1.33,2.87-4.29,5.92-4.14L160,74.53Z"/><path class="cls-2" d="M101.79,103.82l2.15-2C104,103.36,103.32,104,101.79,103.82Z"/><path class="cls-2" d="M111.06,95l1.28-1.43.27,1.74Z"/><path class="cls-2" d="M99.18,105.19l1.78-.37c.24,1.43-.64,2-1.78,2.46l-.18-.41Z"/><path class="cls-2" d="M112.84,93.33l1.24-.24Z"/><path class="cls-3" d="M172.62,36.88l1.94.41L172.83,39l-2-.06Z"/><path class="cls-4" d="M170.87,39l2,.06-.51,1.28-1.2.86-.43-1.93Z"/><path class="cls-11" d="M127,102l1.89-1.17C129.18,102.61,128.29,102.58,127,102Z"/><path class="cls-11" d="M99.18,105.19,99,106.88c-2.45,0-2.7,2.35-3.92,3.65l-1-2.53c.88-1.57,1.9-3,3.94-3Z"/><path class="cls-4" d="M152.82,29.38c.43-1.86,1.12-3.15,3.18-1.46C154.94,28.39,154.45,30.13,152.82,29.38Z"/><path class="cls-4" d="M149.12,29.25c.72-1.52,1.45-1,2.18,0Z"/><path class="cls-4" d="M267.09,61.93c1,.49.84,1,0,1.48Q267.09,62.67,267.09,61.93Z"/></g></g></svg>