<svg xmlns="http://www.w3.org/2000/svg" viewBox="0 0 173.54 369.84"><defs><style>.cls-1{fill:#120c08;}.cls-2{fill:#f79452;}.cls-3{fill:#f89553;}.cls-4{fill:#ef8f4f;}.cls-5{fill:#f29151;}.cls-6{fill:#f49351;}.cls-7{fill:#e1874b;}.cls-8{fill:#e6b800;}.cls-9{fill:#261809;}.cls-10{fill:#50301a;}.cls-11{fill:#d47f46;}.cls-12{fill:#b99202;}.cls-13{fill:#8a532e;}.cls-14{fill:#b96f3d;}</style></defs><title>Asset 1</title><g id="Layer_2" data-name="Layer 2"><g id="Layer_1-2" data-name="Layer 1"><path class="cls-1" d="M81.41,280.32c1.9,20.46-3.66,37-1,54,1.16,7.44,2.93,14.68,4.73,21.94,1.4,5.64-.71,9.18-5.78,11a44.72,44.72,0,0,1-30.35-.1c-7-2.44-9-8.34-4.67-16.52,4.23-8,6.8-16.06,7-25.09.11-4.5.49-8.94-.31-13.43-2.33-13.06-1.7-26.23-1.16-39.39.14-3.34.21-6.62-1.15-9.82-.94-2.21-1.82-3.79-4.71-2.88-2.26.71-4.08-.27-5.66-2.14-8-9.43-14.46-19.66-18.18-31.56a20.33,20.33,0,0,0-3.9-6.34C8,209.78,3.64,197.8.45,185.3c-1.36-5.31.43-9.78,4.13-13.66,8.14-8.54,15.47-17.41,19.55-29,2.16-6.11,8.78-8.69,15.35-9.78,5.41-.9,10.74-2.44,16.17-2.92,4.51-.4,5.32-3.25,5.62-6.55.32-3.49-3.11-2.8-4.94-3.48-6.75-2.52-11.47-6.39-12.18-14.17-.45-5-1.64-9.84-2.47-14.76-.11-.65.13-1.73-.2-1.93C31,82.78,37.38,72.57,35.84,64.24c-.68-3.7,0-7.65-.07-11.48-.06-4.09.46-7.59,5.29-8.92,2.13-.59,2.34-3.06,3-4.93,4.57-13.87,13.23-23.7,27.57-27.84,2.87-.83,4.24-3,5.75-5.2C82.71-2,90.88-2,95.74,6.06a12.91,12.91,0,0,0,7.48,5.85A38.35,38.35,0,0,1,125,30.69c2.85,5.41,3.65,12.09,10,15.47,2,1.06,1.66,4.21,1.66,6.54q0,14.25-.07,28.5c0,1.13.08,2.88-.56,3.3-7.67,5-6.2,13.56-7.68,20.72-1.72,8.35-5.31,14.19-14.06,16-1,.2-3.06.38-2.32,1.75,1.16,2.13-.34,5.64,3.47,6.46,5.52,1.19,10.94,2.85,16.47,4,8.49,1.73,15.16,4.87,19.12,13.77a77.82,77.82,0,0,0,17.5,24.13c5.42,5.22,6,11,3.89,18.2-3.83,13.23-11.84,24-18.39,35.7-5.94,10.64-10.81,21.81-18.69,31.29a11.55,11.55,0,0,1-6.9,4.34c-5.26,1.13-5.28,5.82-5.09,10,.56,12.47,1.77,24.89-.27,37.38-2.37,14.47-1.81,28.47,5.49,42,6.21,11.5,1.43,18.56-11.74,19a177.34,177.34,0,0,1-18-.18c-8.41-.59-12.29-5.38-10.07-13.31a126.54,126.54,0,0,0,3-55.39,56.78,56.78,0,0,1-.15-14.47c1.22-12.81-1.39-25.17-3.85-37.56-.14-.72-.51-2-.79-2-1.35,0-1.28,1.23-1.43,2.17C83.76,260.24,79.33,271.74,81.41,280.32ZM95.17,229.9l1.21-1.33.81-.77,1.55-1.72,3-2.75,1-.72c1.28-1.27,1.23-3.67,3.48-4.11l2.5,2.25L104.58,227h-1.91a22.34,22.34,0,0,0-8,7.92c-1.7,2.67-3.78,5.73-1,9.07a1,1,0,0,0,.23.49l-.27,1.34c-2.54,3.13,1.16,2.21,2,3.13q0,.49,0,1c-1,.39-2.36.13-2.74,1.67-1.4,5.71,3.49,12.09,9.46,12.27l2.64,0c12.15-.15,11.87-.14,11.66-8.63-.16-6.55-5,1-6-2.3l.46-1.86c5.82-1.4,7.83-6.14,9.66-11l2,0c2.54,6.06,7.54,7.57,13.13,5.83,5.26-1.64,6.48-6.55,6.69-11.6l.22-1.79c2.43,1.4,3.76-.08,4.66-2,1.09-2.3-1.14-2.76-2.41-3.54a84.86,84.86,0,0,0-8.21-4.58c-1.49-.7-3.45-2.38-4.88-.36s.2,3.67,1.71,5.06l-1.18,1.1c-3.62-2.07-5.86.55-8.31,2.44l-1.33-1.12,1.43-2.83-2.29-.39-1.28-1.09c2.65-1.12,2.65-2.9,1.41-5.15-2.46-4.45-6-2.9-9.46-1.8l-.06-3.33c.8-1.63,2.16-2.54,3.61-3.64,3.16-2.38,1.73-6.16.18-8.4-1.69-2.45-3,1-4.54,1.82-1.33-2.31-2.36-2-3.17.35a4.15,4.15,0,0,0-1.41.3c-12.49,8.14-25.33,10.05-38.76,2.27-1.26-.73-2.72-1.42-3.78.43a1.35,1.35,0,0,0-.46.62c-1-1.06-2.09-2.12-3.15-3.17-1.45-1.43-2.27-4.29-5-3.18-2,.82-1.2,3.19-1.48,4.94-.51,3.22,1.92,3.33,4,3.86,1.36,1.25-4,2.74.13,3.9l2.87,1.17v2c-.76-.29-1.51-.59-2.28-.86-3.1-1.06-6-1.72-8,2-2.18,3.86.9,5,2.91,7.05,1.18,1.2,3.88,1,3.54,3.67-1,.31-2.33-.38-2.84,1.1-.56,1.65.85,2.17,1.72,3l0,1.64c-3.47.15-1.15,1.9-.85,3.09L54.65,240l-2.26-1.76a14.47,14.47,0,0,0-.76,2.59c-.67,6.62,4.29,8.23,9,10l0,2c-4.3-1.21-4.19,3.33-6.39,4.84-.7.48-2.27.05-2,1.47.22,1.19,1,1.89,2.51,2.43a28.79,28.79,0,0,0,12.9,1.08l2,0c8.28,2.4,9.66-2.91,10.57-9.18.43-3-1-3.92-3.16-3.28s-6.64-3-6,3l-1.64-.15c-.42-9.94,1.93-20.07-2-29.78l.25-3.13,6.87,6a1.91,1.91,0,0,0,1.83,1.85l1.1.63h0l-.28.21-1.67,1.24-3.91-3.63q-.79-1-1.17.22c.23,3.79.36,7.59.72,11.37.18,1.81-1.21,4.57,1.33,5.19s5.83.85,7.66-.41c2.06-1.43,0-4.44-.36-6.79-.26-1.64-3.88-2.88-.72-5l2.3,2.15c0,2,1.15,1.25,2.13.94l1,.81c1.09,2-1.72,5.76,2.17,6.09,4.15.35,1.36-3.5,2.34-5.19.28-.49,1-.73,1.47-1.09,2.3-.54,2.68-2.83,3.93-4.33A1.4,1.4,0,0,0,95.17,229.9ZM107.68,270l-1.06,0c-5.43-.34-8.28,3.53-9.13,7.62C94.28,293.15,95.28,308.42,102,323c-4.18-.53-4.12,2.53-4.1,5.17,0,1.41-1.18,4.21,1,4.05,2.43-.17,4.94-1.87,7.05-3.4,2.78-2-2.73-2.07-1.2-4,2.55-.77,1.71-2.93,1.73-4.58.12-8,0-16,.23-24,.06-2.09-1.39-4.66,1.2-6.33,0,8.76-.07,17.53.18,26.29.08,3-1,6.29,1.63,8.82-.16,1.38-2.41,3.11.13,4.06s4.83,4,7.7,3.07c.74-.25.13-4.57.1-7,0-3-2.44-1.74-3.93-2.11,6.67-13.83,7.37-28.42,4.87-43.2-.86-5.1-3.25-9.9-9.85-9.86Zm47.9-95,0-.05c-2.75-.67-3.38,1.78-4.65,3.24-.21.25,0,.9.09,1.37l3.68-2.34.31.15c3,2.74,7.87-.16,10.7,3.5.24.31,1.71-.6,1.19-2.25-.73-2.29-2.66-2.61-4.28-3.54l-1-1C159.34,172.56,157.13,171.66,155.59,175ZM113.68,63.09l.71-1,2.08,0,.36,5.95c-.31,3.62,2.4,1.62,3.81,2.05,1.16,4-1.78,6.71-3.2,9.9l-4.48,0c-3.44.09-6.89.27-10.33.22-1.57,0-3.08-.39-2.95,2-4.71-1.81-6.37-6.51-9.17-10-3.08-3.87-5.08-4.7-8.16,0-2.8,4.23-6,8.3-10.79,10.67.33-3-2-2.88-3.57-2.42-2.73.78-6.41-2.67-8.25,1.82a1.79,1.79,0,0,0-.92-.23l-1.13-1.5c-2.28.79-1.06,2.52-1.06,3.92L47.47,65c-.61-1.64-1.13-1.14-1.61.07-1.58,21.14,4.5,39.31,20.82,53.45,2,1.71,4.39,3.59,4.49-1.38l1.38-.1c.3,2.1.15,4.28,2.46,5.64,5.55,3.26,21.65,1.72,26.54-2.67l1-.45c2.91-.26,4.66-2.43,6.53-4.2,11.67-11.05,16.28-25.11,17.12-40.75.41-7.59.48-7.59-5.46-6.56l1-4c2.14-1.21.24-2.66.23-4L123.5,57c1.35,1.41-.1,5,2.36,4.72,1.32-.13.59-3.37-.15-5.18v-2c-.4-2-1.18-3.93-3.36-4.43-1.29-.3-1.54.81-1.22,1.93l-.46-1.44c2.09.16,1.7-.89,1-2.09l0,0c2.93-1.27,1.4-3.08.59-4.81C115.65,29.41,104,23.23,88.75,22.84,71.81,22.4,57.34,26.6,49.8,43.71c-1.92.81,0,1.55,0,2.33a20.38,20.38,0,0,0-3.68,11.28c-1.72,1.49-2.48,3.79-.48,4.82,2.35,1.21,1.58-2.42,3-3.16l1,.17,1.9,2c.58,3-2.6,6.37.84,9.12L54.4,73a6,6,0,0,0,3.86,3.24l.21.16C66,80.65,72.79,79.35,78.4,72.58c1.14-1.71,3.23-3.19,1.32-5.62,2-2.13.53-4.71.9-7l3.75.81c.15,2-2,5.12,1.8,5.42,4.2.33,1.79-3.31,2.38-5.14a52.55,52.55,0,0,0,1.17-5.34c2.71.46,1,2.25.95,3.43-.42,6.24.67,11.87,5.9,16l3.09,2,.91.45c3,1.29,6,1.07,9.13.46l.46,0,.45-.11,1.12,0,1-.6.19-.12c2.52-.57,4.58-1.36,1.93-4.27,1.26-3.49-.13-6.66-1.16-9.88Zm-2.08-40h0c-3-5.54-8.5-6.81-14-7.92a.89.89,0,0,0-.87,0C92,13.87,94,7.21,89.28,5.83c-5.59-2.69-7.72.89-9.44,5.22-.75,3.25-3.45,3.7-6.09,4.21C68.91,17.06,63.21,17.4,60.61,23c-1.25,1.08-2.58,2.09-3.73,3.27a16,16,0,0,0-1.73,2.62c1.22.62,2.17,0,3.2-.61,18.36-11.49,36.8-10.93,55.29-.28,1.44-.39,2.33-1.23,1.78-2.78A3.07,3.07,0,0,0,111.6,23.12ZM69.68,185c1.91,4.72,5.62,7.41,10.14,9.37,2.61,1.13,3.67.33,4-2.23l1-.13c.41,3.17,2.54,3.13,4.94,2.7,12.42-2.26,18.83-16.14,12.8-27.48-.48-.91-4-2.64.13-3.63,3.32,9.8,10.53,8.12,17.88,6.06,2.08-.58,4.17-1.17,6.29-1.58,2.32-.46,3.57-1.45,3-4.07-.61-3.08-1-6.21-1.5-9.31l-1.89-1.65c3.42-6.41.16-14.91-6.6-17.2-9.94-3.37-19.4,3.29-29.27,1.39l-1.92,0c-1.74-1.69-3.34-1.9-4.71.44L84,142.85l-1.14.12c.69-5.19-1.9-6.39-6.62-6.09-4.1.26-8.43.84-12.35-.81-10.24-4.31-19.44,1.36-19.9,12.36-.07,1.68,1,3,0,5.13-4.41,9.29-1.85,14.07,8.1,16.21,2.76.59,5.64.73,8.31,1.59,3.48,1.12,4.85-.14,6.29-3.3,6-13.16,21.76-17,32.34-8-1.7,2.68-3.23.3-4.61-.3C86.73,156.4,78.55,157.48,73,163c-5.91,5.92-7.17,12.88-4,20.64Zm63.92-36.79-2.33,4.17c2.16.69,3.17-1.3,4.7-2.06a17.6,17.6,0,0,0,3.74-2.43c1.48-1.3,4.79-1.59,4.13-4s-3.76-2.12-6.06-2.19c-2.07-2.85-5.17-1.89-7.68-1.52-2,.3-.52,2.52-.34,3.76C130.07,146.1,130.06,148.88,133.6,148.24Zm-96.06.22.07.08c-.83,1.9,1.08,2.45,1.84,2.4,3.1-.19-.69-3.29,1.87-4.74,1.44-.81,3.11-4.64,1.19-6.89-2-2.4-4.65-.59-6.9.58L31.66,141c-1.06.74-2.8,1.92-1.93,2.9C31.76,146.18,33.87,148.84,37.55,148.46Zm100.31,5.34-.35,1.93c-.87-.33-1.94-1.14-2.57-.88-1.17.49-.46,1.69-.16,2.59,2.36,7.27,11.76,9.56,12.69,18,.15,1.35,1.95.27,2.75-.54a17.08,17.08,0,0,1,7.05-4.47c1.11-.35,2.5-1,1.43-2.4-2.06-2.78-2.58-7-7-7.65l-.53-1.24c.37-2.4-1.29-4-2.47-5.66-1.33-1.87-1.94-5.28-4.93-4.68C141.27,149.32,138.33,150.4,137.86,153.8ZM29.67,231l.47,1.54c-1.5,2.92.09,5.46,1.06,8,1.71,4.54,5.53,5.43,9.73,5.06,4.61-.4,7.51-3.05,8.79-7.54s-.51-7.52-4-10.24c-3.3-2.55-6.08,1-9.11.22a9.87,9.87,0,0,1,1.9-2c1.67-1,4.17-1.46,2.92-4.21-1.32-2.93-3.52-1.69-5.47-.68-2.8,1.46-5.62,2.91-8.33,4.53-1.43.85-3.77,1.39-2.59,4C26,231.83,27.79,231.68,29.67,231ZM94.59,359.62c-.75-.1-1.78-.73-2,.49-.31,1.62,1,2.5,2.2,2.9a41.93,41.93,0,0,0,29-.25c2.74-1,2.67-2.68-.33-3.64,2.89-1.94,2.85-4.07,1.25-7.11-2.39-4.54-6-8.05-9.05-12,.64-.52,2.51.39,2-1.25-1-3.47-4-5.27-7.1-6.49a8.11,8.11,0,0,0-9.83,2.75c-1.91,2.45-5.06,4.95-2.53,8.83a31.88,31.88,0,0,0-2.32,5.45c-.67,2.93-4.5,5.49-1.24,9ZM23,158.64,22.65,160c-5.12.49-6.2,5.23-7.69,8.57-1.14,2.54,3.16,1.35,4.55,2.72,1.06,1,2.42,1.78,3.45,2.84,3.1,3.16,4.13,1.17,4.75-1.84.41-2-.5-4.79,2.23-5.53,5.22-1.41,6.43-6.34,9.2-9.88.39-.5.16-1.49.22-2.26l-2.69.59c-3.37,0,.94-3.45-1.86-4.11-2.09-.49-4.07-4.22-5.82-2.51C26.27,151.22,22.51,153.85,23,158.64ZM56.57,339.34l.1,1.7c-1.25,1.3-2.87,2.4-3.69,3.94-2.16,4.06-7.31,7.27-4.11,13-4.25,5.53,2.21,3.67,3.64,5.27,7,2,14.06,1.57,21.14.69a4,4,0,0,0,3.78-1.28.91.91,0,0,0,.61-.37c1.35-.28,2.8-1,2.37-2.41-.56-1.89-1.76,0-2.7,0,4-6.33.27-11.11-3.21-15.93,3.81-2.46.91-5.12-.16-7.25-1.9-3.75-5.19-6.7-9.6-5.46C60.94,332.36,56.21,333.56,56.57,339.34ZM66.71,285c0,10.4,0,20.8.17,31.2,0,2.67-.56,5.61,1.71,7.85,1,1.68-2.93,3.05-.39,4.69,2.2,1.42,4.55,3.29,6.95,3.47,1.6.12.78-2.87.42-4.21-.61-2.31,1.55-6.73-3.86-6,6.36-13.76,6.73-28.24,4.88-42.91-.48-3.78-3-6.61-5.9-9C68,268,67.74,269.93,67.5,272l-1.42-.06c0-4.83-2.85-3.07-4.87-1.85-6.16,3.75-7,10.12-7.47,16.5-.82,11.71,1.61,23.08,3.88,34.46-3.79,3-1.41,7.23-2.11,10.84-.13.69.58,1.05,1.35.6,2.67-1.55,6.19-2.51,7.76-4.81,1.2-1.75-3.12-2.18-4-4.16a4.46,4.46,0,0,1-.19-1c3.7,1.82,4.71-.15,4.76-3.4q.25-17,.47-34.09Zm72.12-102.7c-.41-4.38,1-9-1.71-13.11-1-1.61-1-2.13-3.23-.27-4.47,3.7-4.6,9.52-8.19,13.31-10.39,11-3.27,22.25-.68,33.4.28,1.19.91,3.76,2.79,3.33,1.27-.29,2.7-2.12,3.13-3.55C134.23,204.57,140,194.26,138.83,182.32Zm-103.89.51c-.72,11.45,3.65,21.81,7,32.35.5,1.56,2.26,2.73,3.43,4.08.9-1.34,2.29-2.56,2.62-4,1.63-7.23,3-14.51,4.38-21.8.23-1.23.18-3.11-.57-3.82-5.62-5.33-9.45-11.8-12.64-18.75-.32-.71-1.55-1-2.36-1.49a8.56,8.56,0,0,0-1.16,2.54C35.31,175.54,35.15,179.18,34.93,182.82Zm-18.67-3.3c-.93,0-3-.33-1.65,2.52q8.32,17.8,16.67,35.58c.83,1.79,2.28,1.84,3.75,1.3a2.41,2.41,0,0,0,1.67-3.14c-2.77-10.75-5-21.71-11.57-31C23.17,182,20.67,179.83,16.26,179.52ZM157.8,180.9c-5.33.33-8,2.92-10.21,6.21-6,9-8.77,19.27-11.66,29.5-.4,1.4-.41,2.79,1.21,3.3a3.06,3.06,0,0,0,4.07-1.74q8.7-17.08,17.57-34.07C160,181.67,159.4,180.71,157.8,180.9Zm8.78,9.7c-.52-1.4-.77-4.34-2-4.78-2-.76-2.32,2.15-3.06,3.54-4.73,8.93-9.44,17.87-13.8,27-1.22,2.54-5,6.08-1.83,8.08,2.55,1.62,4.3-3.18,6-5.33C158.43,210.69,164.39,201.92,166.58,190.6ZM7.2,190.07c1.67,11.61,8.91,21.2,16,30.87.92,1.26,2,3.51,3.74,2.48,2.12-1.24.43-3.33-.27-4.85q-7.08-15.4-14.39-30.7c-.72-1.49-.95-4.39-3.09-3.85S7.62,187.34,7.2,190.07Zm60.54-2.63c-2.13-3.68-2-8.45-3.88-12.33-.75-1.56-5.09-1.42-7.81-2q-3.64-.78-7.31-1.43a27.56,27.56,0,0,0-2.86-.22,12.94,12.94,0,0,0,.32,3.22c2.45,6.76,12.68,14.2,19.61,14.38C66.83,189.1,67.9,189.36,67.75,187.44ZM121.86,172c-3.72.66-8.13,1.45-12.55,2.21-1.72.29-1.93,1.55-2,2.94a25.08,25.08,0,0,1-2.94,10.47c-.86,1.51-.93,2.39,1.36,2.22,6.65-.47,17.17-8.65,18.85-14.84C125,173.3,125.41,171.58,121.86,172ZM41,82.43c2.14-10.75,2.48-21.57-.11-32.35C39,60.84,38.57,71.59,41,82.43Zm90.73-1.9a98.3,98.3,0,0,0-.26-31.81C129.15,55.22,129.1,72.56,131.7,80.53ZM53.25,254.63c-1.09-3.62-2.65-6.72-5.9-8.41-1-.53-2,.65-1.54,1.73,1.39,3,3.05,6,6,7.74C52.71,256.23,53.22,255.31,53.25,254.63Zm50-120.68v-.83H65.45v.83ZM12.19,173a35.27,35.27,0,0,0-4.27,1.78c-.24.13-.09,1.71.35,2.19,1.39,1.54,2.57-.4,3.91-.49a19.09,19.09,0,0,0,4.37-.62c1.12-.35,2.7.87,3.39-.93-1.67-.49-2.52-2.82-4.55-2.27C14.46,172.94,13.93,174.65,12.19,173Zm107.62,83a19.9,19.9,0,0,0,6.13-7.32c.5-.9-.22-2-1-1.72-3.34,1.22-4.69,4.36-6.26,7.21C118.32,254.92,118.39,255.83,119.81,256ZM59.1,265.3c-2.93-.39-5-.26-4.51,3,.16,1-.43,3.22.76,2.77a21.49,21.49,0,0,0,7.22-4.72C62.95,266,60,265.54,59.1,265.3ZM48,97.27c-.57,1.32-1.16,2-1.09,2.65A26.9,26.9,0,0,0,48,106.19a35.49,35.49,0,0,0,3.08,5.43c1.76-2.17-.54-3.79-.82-5.68-.31-2.11-.92-4.17-1.43-6.25C48.7,99.12,48.44,98.56,48,97.27Zm70.67,171.65c.54-3.09-1.05-3.51-3.18-3.08-1.19.24-3.8.2-3.31.92a12.74,12.74,0,0,0,5.65,4.52C119.16,271.8,118.39,269.54,118.63,268.93Zm-14.17-2.42c-2.66-.24-4.19-.46-5.73-.49-2.55,0-2.26,1.83-2.19,3.49.06,1.26.68,1.92,1.87,1.19C100.16,269.62,101.8,268.37,104.46,266.51ZM38.52,248.32c-1.21-.05-1.19.74-.89,1.26,1.3,2.26,2.39,4.81,4.9,6,1,.47,1.41-.72,1-1.49A13.45,13.45,0,0,0,38.52,248.32Zm64.21-121.1c1.55-.8,5.15.18,4.85-1-.56-2.21-3.68-1.1-5.7-1.17-1.53-.06-4.58-.34-4.35.77C98,128.19,100.83,126.51,102.74,127.23Zm-30.79,0c1.72-.5,4.93.7,4.76-.62-.23-1.9-3.3-1.35-5.19-1.41a38.49,38.49,0,0,0-5.28.52C67.7,128.13,70.14,126.5,71.95,127.25Zm51.58-20.93-.79-1.15c-1.18,2.35-4.46,3.38-4.23,6.6.05.73-.88,2.66.71,2C122,112.51,122.4,109.3,123.53,106.32ZM72.78,265.89c-.76.51-3.09-.48-2.39,1,.8,1.66,3,2.83,4.86,3.71.88.42,1.52-1,1.44-2C76.5,266.19,74.8,265.84,72.78,265.89ZM134.53,250c0-1.21-.92-1.25-1.31-.85a72,72,0,0,0-5.23,5.89c-.51.66.32,1.33,1,1C131.53,254.66,133.06,252.28,134.53,250Zm-58.29-1.93c1.16-.79,3.9.81,3.92-1.31,0-1.67-2.69-.83-4.17-.89a30.38,30.38,0,0,0-4.71.53C72.22,248.91,74.41,247.53,76.24,248.11Zm68.67-70.33c-.49-1.63.6-3.89-1.25-4-1.49-.07-.86,2.12-.89,3.3,0,1.4-.28,3,1.34,3.88Zm-68.39-46.6,6.29-.62c-.05-.4,0-1.09-.18-1.16C80.78,128.71,79.27,129.61,76.52,131.18ZM91.17,129l-1,1c.33.27.65.76,1,.76s.66-.48,1-.76Zm4.76,1.19-.21.61c.15,0,.34.16.44.1a3.56,3.56,0,0,0,.61-.46C96.49,130.35,96.22,130.26,95.93,130.19Zm19.59-15a6.17,6.17,0,0,0-1.43-.09c-.21,0-.36.41-.54.63a7.69,7.69,0,0,0,1.37.15C115.08,115.89,115.23,115.56,115.53,115.21Zm2-.8-.32-.36a2.88,2.88,0,0,0-.3.61c0,.07.19.2.3.3Z"/><path class="cls-2" d="M128.44,154.71c.49,3.11.88,6.23,1.5,9.31.52,2.63-.73,3.61-3,4.07-2.12.42-4.21,1-6.29,1.58-7.35,2.06-14.56,3.74-17.88-6.06A4.28,4.28,0,0,0,99,160c-10.58-8.92-26.36-5.11-32.34,8-1.44,3.16-2.81,4.42-6.29,3.3-2.66-.86-5.55-1-8.31-1.59-9.95-2.14-12.51-6.91-8.1-16.21,1-2.11-.05-3.45,0-5.13.46-11,9.66-16.67,19.9-12.36,3.92,1.65,8.25,1.07,12.35.81,4.72-.3,7.31.9,6.62,6.09,1.14,5.55-1,7.8-6.67,6.93a25.25,25.25,0,0,0-6.44.19c-1.31.14-3.85-.41-3.56,1.38.44,2.69,2.51.58,3.92.43,2.47-.27,5-.86,7.41-.57,7.27.89,8.05-2.82,6.48-8.49q0-2.56.07-5.11l4.66.47c-.1,6.35-2,13.83,8.51,13.48a33.68,33.68,0,0,0,3.77-.29c.16,0,.42-.94.26-1.27-.73-1.58-2.32-1.24-3.48-1-6.1,1-8-1.75-7.12-7.38a30.31,30.31,0,0,0,0-4.46c9.87,1.9,19.33-4.77,29.27-1.39,6.77,2.3,10,10.79,6.6,17.2-3.71.27-7.18-.8-10.68-1.78-.84-.23-2.16-.76-2.35.72-.14,1,.62,1.72,1.81,1.92C119.67,154.67,124,156.12,128.44,154.71Zm-17.23-3.22c.05-1.08-.69-1.57-1.52-1.34-1.19.34-2.63.75-3.3,1.64-.56.73.68,1.17,1.52,1.2C109.24,153,110.53,153,111.2,151.49Z"/><path class="cls-3" d="M49.8,43.71c7.54-17.11,22-21.31,38.95-20.87,15.24.39,26.9,6.57,33.56,20.82.81,1.73,2.34,3.54-.59,4.81a1.13,1.13,0,0,1-1.82.64c2.45-8.46-3.74-1.75-5.37-3.06-11.81-3.28-19.15-.43-24.83,9.64h0A52.46,52.46,0,0,1,88.56,61c-.59,1.82,1.82,5.47-2.38,5.14-3.77-.3-1.66-3.43-1.8-5.42a2.93,2.93,0,0,0-1.13-3.49c-2.94-8.11-9.14-12.75-17-12.73-8.53,0-14.73,5-18,14.34l-2.11-1.54A20.44,20.44,0,0,1,49.84,46c.89-.1,2.17.19,2.18-1.07C52,44.56,50.58,44.13,49.8,43.71Zm39.51-1-1,1-1,1L84,45.39c.24.4.38,1,.74,1.17,1.59,1,2.32-.31,3.11-1.34l1-1,1.1-.9L91,42.39l1.88-1.08,1.35-1c-.79-.8-1.36-.18-1.95.3L90.43,41.8ZM99.68,38c.65.05,1.3.09,1.94.15,1.07.11,2.14.24,3.21.31a5.91,5.91,0,0,0,.16-.83,27.3,27.3,0,0,0-3.69-.53c-.54,0-1.1.57-1.64.88-.92.14-2,.09-2.22,1.31,0,.14.36.51.57.53C99.31,40,99.53,39,99.68,38ZM70.21,39.39,80.67,43.6c.07-.41.36-1,.19-1.22C78.45,39.43,75.06,39.35,70.21,39.39ZM57.48,42c-.45-.35-.84-.85-1.09-.79a3.44,3.44,0,0,0-1.49.88c-.11.1.24.68.37,1Zm3.08-.55-.73-1.53a2.81,2.81,0,0,0-1,.53.88.88,0,0,0,.24.83A4.7,4.7,0,0,0,60.56,41.47Zm53.63,1.67,1.16-1c-.38-.18-.77-.51-1.15-.51s-.77.32-1.16.5ZM64.64,39.78l.38-.21c-.11-.09-.21-.25-.33-.26s-.25.12-.38.19Zm45.29.65-.39-.14c0,.12-.15.3-.11.33a1.13,1.13,0,0,0,.38.15Z"/><path class="cls-3" d="M71.17,117.18c-.1,5-2.52,3.09-4.49,1.38C50.35,104.42,44.27,86.25,45.86,65.11L47.47,65l9.16,19.21c1.25,3,2.48,6.07,3.79,9.08.23.52,1,1.32,1.2,1.24,1.25-.4.46-1.25.2-1.92-1.35-3.52-2.73-7-4.1-10.54l1.1-.28a1.78,1.78,0,0,1,.92.23l-.1,0,1,1,0,0,1,1,0,0,1,1,0,0c2,2.74,4,3,6.06,0l0,0L70.1,84c.85,0,1.47-.33,1.46-1.32,4.77-2.37,8-6.43,10.79-10.67,3.08-4.66,5.08-3.83,8.16,0,2.8,3.52,4.46,8.22,9.17,10,2.14,2.5,3.95,5.53,8,5l2-2h0l1-1h0l1-1-.05,0c5,2.46-.87,4.65-.17,7-3.49,3.42-2.35,11.52-10.42,10.31L94.59,99c0-.12-.15-.25-.13-.35a4.25,4.25,0,0,1,.23-.65l3-1,.39.21L97.67,97c.14-3-1.18-4.31-4.19-3.85-4.47,0-8.94-.11-13.41-.07-1,0-2.8-.62-2.71,1,.08,1.46,1.85.85,2.89.85,4.47,0,8.94,0,13.41-.07l-1,1.9a96.53,96.53,0,0,0-10.22.28c-2.41.3-5.64-1.95-7.15,1.88-3.33,1.73-6.89.58-10.34.81l-.78-2.59-1.55.31,1.12.53.38,2.46c5.17.76,6,4.44,6.14,8.8C70.34,111.93,70.85,114.55,71.17,117.18Z"/><path class="cls-4" d="M58.65,211.07c-2.05-.54-4.48-.65-4-3.86.28-1.74-.52-4.12,1.48-4.94,2.7-1.11,3.52,1.76,5,3.18,1.06,1,2.1,2.11,3.15,3.17l2.87,3.09c.18-.33.57-.7.52-1A3.33,3.33,0,0,0,64.73,208c1.06-1.85,2.52-1.16,3.78-.43,13.43,7.78,26.27,5.87,38.76-2.27a4.15,4.15,0,0,1,1.41-.3l-.58,2.47L106,209.91c1.8,1,2.25-.55,3-1.56l2.83-3.71c1.51-.81,2.84-4.26,4.54-1.82,1.55,2.24,3,6-.18,8.4-1.45,1.09-2.81,2-3.61,3.64-1.36.08-2.52.46-3,1.92-1.35.07-2.71.12-3.23,1.73l-.15,0c-2.25.45-2.2,2.84-3.48,4.12-.12-1.15-.17-2.5-1.81-2.25-.64.1-1.64.88-1.67,1.39-.08,1.68,1.56,1.18,2.5,1.58l-3,2.75L97.1,226a6.41,6.41,0,0,0,.21-.92c0-.07-.34-.23-.34-.23-1.79,2.68-6.5,2.79-6.36,7.18l0,0-1,.68,1,.72-.08,1.48c-.5.36-1.19.61-1.47,1.09-1,1.68,1.81,5.53-2.34,5.19-3.89-.32-1.08-4.14-2.17-6.09,1.24-3.7-.83-5.4-3.91-6.49.32-1,.24-1.69-1.06-1.59l.07.07c.3-1,.08-1.51-1.07-1.07l.07.07c.41-1.14,0-1.41-1.09-1.07l.08.08c.2-2.25-1.07-3-3.07-3.08l.08.08c.32-1,0-1.36-1.06-1.08l.06,0c-.13-1.56-1.21-.82-2-.83,0-2.17-.44-4-3.13-4.14a1.61,1.61,0,0,0-.91-.07h0c-.94-1.45-1.91-2.87-4-2h0C63,211.36,60.62,211.55,58.65,211.07ZM74,214.64a2.51,2.51,0,0,0-3-.44L73,215.67c2.88,1.81,5.69,3.86,9.42,3-1.93-2.71-5.47-2.13-7.89-3.87A1.49,1.49,0,0,0,74,214.64Z"/><path class="cls-5" d="M71.12,253.28c-.67-6.05,3.9-2.4,6-3s3.59.32,3.16,3.28c-.91,6.27-2.29,11.58-10.57,9.18l-1-1.3-1,1.34a28.79,28.79,0,0,1-12.9-1.08c-1.53-.54-2.29-1.24-2.51-2.43-.26-1.42,1.31-1,2-1.47,2.2-1.51,2.09-6,6.39-4.84,2.85-.88,3-2.76,1.62-4.92-2.06-3.14-4.31-6.15-6.48-9.21-.3-1.19-2.62-2.94.85-3.09,2.12,1,4.67,2.17,6-.39s-1.12-4-3-5.21c-.61-.52-1.19-1.42-2-.17l.09,0c.34-2.63-2.36-2.47-3.54-3.67-2-2-5.09-3.19-2.91-7.05,2.09-3.7,4.95-3,8-2,.77.26,1.52.57,2.28.86.92.55,1.42,2.38,3,1h0l-.23.83,1.2.14,0,0c-.77,1.9,1.16,2.23,1.9,3.25,3.88,9.72,1.53,19.84,2,29.78-1.43,1.43-.48,2.69.36,3.88.2.28,1.09.47,1.19.34A3.51,3.51,0,0,0,71.12,253.28Z"/><path class="cls-3" d="M101.55,120c-4.89,4.39-21,5.92-26.54,2.67-2.32-1.36-2.17-3.53-2.46-5.64-.3-3.93-.5-7.87-.92-11.78-.28-2.59.6-3.54,3.25-3.48,8.59.21,17.19.24,25.79.34l.16,3.2C101.08,110.25,99.82,115.22,101.55,120Z"/><path class="cls-2" d="M78,362.32a.87.87,0,0,1-.61.36C76.33,361,75,359,72.88,360.26s1.27,2.26.77,3.7c-7.08.88-14.15,1.34-21.14-.69,1.51-1.57,3.13-2,5.19-.89,1.23.68,3.18,1.54,3.56-.55.41-2.24-1.89-1.57-3.18-1.84-3.07-.65-6.4-.12-9.21-2-3.2-5.76,2-9,4.11-13,.81-1.53,2.43-2.64,3.69-3.94l2-2-.06,0,2.07-1-.07,0,7.91-.24,6,6.15c3.48,4.82,7.19,9.6,3.21,15.93Zm-8.6-1a1.27,1.27,0,0,0-1.76-1.09c-1.1.29-2.24.79-2.18,2.16,0,.23,1.3.56,2,.57C68.54,363,69.47,362.69,69.45,361.35Z"/><path class="cls-2" d="M115.64,340c3.09,3.94,6.66,7.45,9.05,12,1.6,3,1.64,5.16-1.25,7.11-2.29,1.84-5.56-.28-7.77,1.91l-13,.17-8-2.93c-3.26-3.47.57-6,1.24-9a31.9,31.9,0,0,1,2.32-5.45c1.82-.92,3.67-1.82,4.49-3.9,2.95-2.64,6.57-1.7,10-1.89l-.06-.07c.27,1.21,1.09,1.36,2.12,1.07l-.11-.08c-.28,1,.35,1.09,1.07,1.1Z"/><path class="cls-6" d="M57.63,321c-2.27-11.38-4.7-22.75-3.88-34.46.45-6.39,1.3-12.75,7.47-16.5,2-1.22,4.86-3,4.87,1.85L65.71,285q-.23,17-.47,34.09c0,3.25-1.06,5.22-4.76,3.41Z"/><path class="cls-6" d="M109.65,325c-2.68-2.53-1.55-5.86-1.63-8.82-.24-8.76-.14-17.52-.18-26.29a16.88,16.88,0,0,0,.17-10.83l-.12-8.11.78-1c6.6,0,9,4.76,9.85,9.86,2.5,14.79,1.79,29.37-4.87,43.2Z"/><path class="cls-5" d="M100.82,105.35l-.16-3.2c.93-.41.85-1,.39-1.76,8.07,1.21,6.93-6.89,10.42-10.31,4.14-2.12,4.06-6.71,6-10.14,1.42-3.19,4.35-5.88,3.2-9.9q0-1,0-2l.08,0c5.95-1,5.88-1,5.46,6.56-.85,15.64-5.45,29.7-17.12,40.75-1.87,1.77-3.62,3.94-6.53,4.2,0-2.1.37-4.29-.08-6.29C101.86,110.67,105.06,107.2,100.82,105.35Z"/><path class="cls-5" d="M108,279.11a16.88,16.88,0,0,1-.17,10.83c-2.58,1.67-1.13,4.24-1.2,6.33-.24,8-.1,16-.23,24,0,1.64.82,3.81-1.73,4.58-.14-1.74-1.4-1.82-2.71-1.8-6.69-14.59-7.7-29.86-4.48-45.33.85-4.09,3.7-8,9.13-7.62C107.29,273,104.71,276.53,108,279.11Z"/><path class="cls-5" d="M68.59,324.07c-2.28-2.24-1.67-5.18-1.71-7.85-.16-10.4-.13-20.8-.17-31.2l.79-13c.24-2,.53-4,3.19-1.84,2.94,2.36,5.43,5.2,5.9,9,1.85,14.67,1.48,29.15-4.88,42.91Z"/><path class="cls-6" d="M110.68,252.94c1,3.32,5.84-4.25,6,2.3.21,8.49.49,8.48-11.66,8.63l-.28-2.13-.06-1.66a135,135,0,0,1-.11-33.06l4.13-6.29v-.08l1.21-.76,2.73-1.7c3.47-1.1,7-2.65,9.46,1.8,1.24,2.25,1.24,4-1.41,5.15-2.51,1.54-5.07,3-7.5,4.66-2,1.35-5.09,2.67-4,5.46,1.28,3.3,4.51,1.44,7,1.14l.82,1c-2.3,3.26-4.7,6.46-6.88,9.8C108.86,249.1,107.42,251.32,110.68,252.94Z"/><path class="cls-5" d="M16.26,179.52c4.41.31,6.91,2.49,8.87,5.25,6.6,9.3,8.8,20.26,11.57,31A2.41,2.41,0,0,1,35,218.92c-1.47.54-2.92.49-3.75-1.3Q23,199.82,14.61,182C13.28,179.19,15.34,179.52,16.26,179.52Z"/><path class="cls-6" d="M157.8,180.9c1.6-.18,2.23.78,1,3.2q-8.84,17-17.57,34.07a3.06,3.06,0,0,1-4.07,1.74c-1.62-.51-1.6-1.9-1.21-3.3,2.9-10.23,5.67-20.5,11.66-29.5C149.78,183.82,152.47,181.23,157.8,180.9Z"/><path class="cls-6" d="M36.58,228.09c3,.73,5.81-2.77,9.11-.22,3.52,2.72,5.31,5.76,4,10.24s-4.18,7.14-8.79,7.54c-4.2.36-8-.53-9.73-5.06-1-2.57-2.56-5.11-1.06-8,2.25-1.39,5.6-1.17,6.54-4.49Z"/><path class="cls-2" d="M124.18,230.58c2.46-1.89,4.69-4.51,8.31-2.44l10.09,6.1c-.21,5.05-1.43,10-6.69,11.6-5.59,1.74-10.59.23-13.13-5.83C122.82,236.8,121.68,233.41,124.18,230.58Z"/><path class="cls-7" d="M99,160a4.28,4.28,0,0,1,3.73,3.61c-4.14,1-.62,2.73-.13,3.63,6,11.33-.38,25.22-12.8,27.48-2.41.44-4.53.47-4.94-2.7l3.78,0c1.92-1,4.09-1.88,3.11-4.79l.45-.21.49,0,.54,3.17c1.85-.36,1.22-1.95,1.52-3.08l-.12-.22,1.05.28c1.36.92,1.69.2,1.69-1.05l0-1.33.63-1.15c1.25,1.65,2.4,1.89,3.05-.39,1.47-5.18,2.6-10.37-1.53-15A1.59,1.59,0,0,0,99,168c0-2.76-2.41-3-4.14-4-3.61-4.29-8.44-3.14-13.05-2.95-1.91.25-3.76.58-4.1,3-.55.12-1.51-.19-1,1l.07-.05c-1.26-.81-1.61.23-2.08,1l0,0c-.82.45-1.81.82-1,2.07l0-.06c-3,1.47-3.78,3.92-3,7l0,4c-2,1-.14,2.23-.21,3.34L69,183.64c-3.14-7.76-1.88-14.72,4-20.64,5.51-5.52,13.69-6.61,21.34-3.3C95.76,160.3,97.29,162.69,99,160Z"/><path class="cls-4" d="M166.58,190.6c-2.19,11.33-8.15,20.1-14.68,28.48-1.67,2.15-3.43,7-6,5.33-3.14-2,.61-5.54,1.83-8.08,4.37-9.11,9.07-18.06,13.8-27,.74-1.4,1-4.3,3.06-3.54C165.81,186.26,166.06,189.19,166.58,190.6Z"/><path class="cls-5" d="M7.2,190.07c.41-2.73-.18-5.53,1.95-6.05s2.38,2.36,3.09,3.85q7.34,15.28,14.39,30.7c.7,1.52,2.39,3.61.27,4.85-1.78,1-2.82-1.22-3.74-2.48C16.12,211.27,8.87,201.69,7.2,190.07Z"/><path class="cls-5" d="M67.75,187.44c.15,1.92-.92,1.66-1.93,1.63-6.93-.19-17.16-7.62-19.61-14.38a12.94,12.94,0,0,1-.32-3.22,27.56,27.56,0,0,1,2.86.22q3.67.65,7.31,1.43c2.72.58,7.06.45,7.81,2C65.72,179,65.61,183.76,67.75,187.44Z"/><path class="cls-4" d="M96.7,15.22a.89.89,0,0,1,.87,0c3.72,4.35,9.05,5.82,14,7.92h0l2,4.88c-18.48-10.65-36.92-11.21-55.29.28-1,.64-2,1.23-3.2.61a16,16,0,0,1,1.73-2.62C58,25.09,59.36,24.08,60.61,23c4.21-2.87,10.15-2.8,13.14-7.74,2.65-.52,5.34-1,6.09-4.21l2.13.09c-1.76,4.15.43,6.57,3.9,8C88.95,20.36,89.81,16,92.53,16,93.88,15.49,95.84,18.45,96.7,15.22Z"/><path class="cls-5" d="M121.86,172c3.55-.45,3.14,1.27,2.67,3-1.68,6.19-12.2,14.37-18.85,14.84-2.29.16-2.22-.71-1.36-2.22a25.08,25.08,0,0,0,2.94-10.47c.12-1.4.33-2.65,2-2.94C113.72,173.48,118.14,172.69,121.86,172Z"/><path class="cls-5" d="M151.68,160.39c4.43.62,5,4.87,7,7.65,1.07,1.44-.31,2-1.43,2.4a17.08,17.08,0,0,0-7.05,4.47c-.8.81-2.6,1.89-2.75.54-.93-8.45-10.33-10.74-12.69-18-.29-.9-1-2.1.16-2.59.62-.26,1.7.55,2.57.88C140.93,161.26,145.86,162.16,151.68,160.39Z"/><path class="cls-5" d="M36.67,155.18l2.69-.59c-.06.77.18,1.76-.22,2.26-2.77,3.55-4,8.47-9.2,9.88-2.74.74-1.82,3.53-2.23,5.53-.62,3-1.65,5-4.75,1.84-1-1.06-2.39-1.8-3.45-2.84-1.39-1.37-5.69-.18-4.55-2.72,1.49-3.35,2.57-8.08,7.69-8.57,3.06,1.49,6,2,8.56-1A5.92,5.92,0,0,0,36.67,155.18Z"/><path class="cls-8" d="M54.4,73l-1.91-2.74c4.79-1,5-4,3.52-7.85l.7-9.42-.1.08c4.17,3.37.6,8.2,2.86,13.13-.64-5.77,4.37-4.8,6.3-7.26,1.87,2.52.61,5.42.95,8.12.16,1.31.13,2.64.19,4l-.33,5c-2.22-1-4.37-2.41-6.67-2.74C58.16,73,56.35,68.72,54.4,73Z"/><path class="cls-9" d="M124.18,230.58c-2.5,2.84-1.36,6.22-1.42,9.42l-2,0c-3.2-.31-7.78,4.93-9.66,11l-.46,1.86c-3.26-1.63-1.82-3.85-.55-5.79,2.18-3.34,4.57-6.54,6.88-9.8l.37-1.06-1.19.1c-2.48.3-5.71,2.16-7-1.14-1.08-2.79,2-4.11,4-5.46,2.43-1.66,5-3.12,7.5-4.66l1.27,1.09c-1.18,1.23-3.29,2.44-2.1,4.28,1,1.51,1.9-.76,3-1.06Zm-11.09,4.34c2.11-.63,4-1.1,4.2-3.32,0-.39-.92-1.32-1.06-1.25-1.77.84-3.5,1.79-4.22,3.77C112,234.26,112.83,234.73,113.09,234.92Z"/><path class="cls-8" d="M80.62,59.92c-.37,2.34,1.08,4.91-.9,7-.69,1.16-1.81,1.08-2.92,1l-.49-2.93V56.6c-1.35,1.71-.54,4.18-2.55,5.2-1.4-1.55-2.93-3.28-3,.67s.12,7.61.19,11.42l-2.16.1-.53-3c1-4.12-2.1-8.66,1.31-12.52l1.26.32V58.2l-1.29.26L67.5,55c-1-4.76,1.89-4.89,5.26-4.5,1.76,1,4.05,1.28,4.89,3.55l.51,2,.6,2.78c.25,1,1,1.24,1.88,1.15Z"/><path class="cls-4" d="M104.69,260.08l.06,1.66c-2.81-1.5-1.52,1.5-2.36,2.16-6-.19-10.87-6.56-9.46-12.27.38-1.54,1.73-1.28,2.74-1.67,5.23-.43,8,1.47,7.18,7.21C102.72,258.07,101.41,260.85,104.69,260.08Z"/><path class="cls-6" d="M79.18,231.15c-3.16,2.09.46,3.33.72,5,.38,2.35,2.42,5.37.36,6.79-1.82,1.26-5.21,1-7.66.41s-1.15-3.38-1.33-5.19c-.37-3.78-.5-7.58-.72-11.37l1.17-.22,3.91,3.63c1,1,1.65,3.53,3.58.9Z"/><path class="cls-9" d="M77.65,54.07c-.84-2.27-3.13-2.54-4.89-3.55l0,.1c.14-3.37-2.34-3.26-4.62-3.6-9.8-1.46-14.51,4.71-18.42,12.14l-1-.17-.44-.13c3.25-9.37,9.45-14.32,18-14.34,7.87,0,14.08,4.62,17,12.73l-1.55.47C80,56.85,81,53,77.65,54.07Z"/><path class="cls-9" d="M119.9,49.1a1.13,1.13,0,0,0,1.82-.64l0,0c-1.91-.07-2.14.68-1,2.09l.46,1.44c1.5.88,1.31,4.85,4.58,2.5q0,1,0,2c-1-1.15-1.68-.7-2.21.46L122,60.06c.08-3.88-1.88-6.71-4.71-9.08l-.09,0a6.87,6.87,0,0,0-4.56-2.93c-2.88-2.86-5,3.72-7.94.61-5.91-2.93-8.46,1.44-11.3,5.19-2.08,2.85-2.08,2.85-3.71,1.81,5.68-10.07,13-12.92,24.83-9.64Z"/><path class="cls-7" d="M74.51,344l-6-6.15c-2.68-1.48-5.39-3.9-7.91.24l.07,0c-1.13-.53-1.93-.41-2.07,1l.06,0-2.15.3c-.36-5.78,4.38-7,8.18-8,4.41-1.25,7.71,1.71,9.6,5.46C75.43,338.87,78.32,341.53,74.51,344Z"/><path class="cls-6" d="M93.7,244c-2.79-3.34-.72-6.4,1-9.07a22.34,22.34,0,0,1,8-7.92c-1.58,5.54,1.11,11.61-2.13,16.94Z"/><path class="cls-10" d="M101.06,100.39c.46.72.53,1.35-.39,1.76-8.6-.1-17.19-.13-25.79-.34-2.65-.06-3.53.89-3.25,3.48.42,3.92.63,7.85.92,11.78l-1.38.1c-.32-2.63-.83-5.25-.91-7.89-.13-4.36-1-8-6.14-8.8l.83-.71c3.45-.23,7,.92,10.34-.81,4.77,1.7,9.7,1.07,14.59,1,1.55-.56,3.52.87,4.78-1l-.08.07Z"/><path class="cls-4" d="M36.67,155.18A5.92,5.92,0,0,1,31.21,159L23,158.64c-.48-4.79,3.28-7.43,6-10.08,1.75-1.71,3.73,2,5.82,2.51C37.61,151.73,33.3,155.13,36.67,155.18Z"/><path class="cls-7" d="M102.68,340c-.82,2.08-2.67,3-4.49,3.9-2.53-3.89.62-6.38,2.53-8.83a8.11,8.11,0,0,1,9.83-2.75c3.09,1.22,6.05,3,7.1,6.49.49,1.64-1.38.73-2,1.25l.05.07-1.07-1.1.11.08L112.61,338l.06.07C108.64,335,105.18,335,102.68,340Z"/><path class="cls-7" d="M115.67,361c2.21-2.19,5.47-.07,7.77-1.91,3,1,3.07,2.63.33,3.64a41.93,41.93,0,0,1-29,.25c-1.16-.4-2.52-1.28-2.2-2.9.24-1.22,1.27-.59,2-.49a18,18,0,0,0,8.11,2.87C107.11,362.8,111.78,365.35,115.67,361Z"/><path class="cls-4" d="M29.67,231c-1.88.66-3.66.82-4.65-1.36-1.18-2.59,1.16-3.12,2.59-4,2.71-1.62,5.52-3.07,8.33-4.53,2-1,4.15-2.25,5.47.68,1.25,2.75-1.25,3.22-2.92,4.21a9.87,9.87,0,0,0-1.9,2l.09,0C33.75,227.66,31.88,229.75,29.67,231Z"/><path class="cls-4" d="M133.67,227c-1.5-1.39-3.15-3-1.71-5.06s3.39-.34,4.88.36a84.86,84.86,0,0,1,8.21,4.58c1.27.78,3.5,1.24,2.41,3.54-.9,1.9-2.24,3.38-4.66,2Z"/><path class="cls-7" d="M41,82.43c-2.4-10.84-1.94-21.59-.11-32.35C43.45,60.86,43.1,71.68,41,82.43Z"/><path class="cls-11" d="M79.18,231.15l0-.08-1.91-2.14.28-.21h0l-1.1-.63-1.83-1.85-6.87-6c-.69-.5-1.34-1.66-2.15-.12l0,0,.11-1-1.09.08h0c.47-2.45-1.76-2.19-3-3L58.79,215c1.24-2.32,3.36-.22,4.91-1h0c.84,1.66,2,2.62,4,2h0c-.51.76-.39,1.32.52,1.62l.39-1.55c2.7.13,3.14,2,3.13,4.14l2,.83-.06,0,1.06,1.08-.08-.08a5.1,5.1,0,0,0,3.07,3.08l-.08-.08,1.09,1.07-.07-.07,1.07,1.07-.07-.07,1.06,1.59c3.08,1.09,5.16,2.79,3.91,6.49l-1-.81c-.19-1.5-.45-2.83-2.13-.94Z"/><path class="cls-4" d="M137.86,153.8c.48-3.4,3.41-4.49,5.9-5,3-.61,3.6,2.8,4.93,4.68,1.18,1.66,2.84,3.26,2.47,5.66C145.56,160.24,141.56,157.4,137.86,153.8Z"/><path class="cls-7" d="M35.61,139.9c2.25-1.17,4.85-3,6.9-.58,1.92,2.25.25,6.08-1.19,6.89-2.57,1.44,1.23,4.55-1.87,4.74-.76,0-2.66-.51-1.84-2.4.29-.69.59-1.37.85-2.07a5.19,5.19,0,0,0-.57-.29l-.34,2.28c-3.68.38-5.78-2.28-7.81-4.53-.87-1,.86-2.16,1.93-2.9,1.39.85.88,3.88,2.79,3.45C36.77,144,35.24,141.48,35.61,139.9Z"/><path class="cls-7" d="M131.7,80.53c-2.6-8-2.54-25.32-.26-31.81A98.3,98.3,0,0,1,131.7,80.53Z"/><path class="cls-12" d="M68.79,74l2.16-.1.71-.89h3.26l2.42-1.22,1.07.82C72.79,79.35,66,80.65,58.47,76.4l.45-.65-.67.49A6,6,0,0,1,54.4,73c2-4.28,3.77,0,5.51.29,2.31.33,4.46,1.77,6.67,2.74C68,76.13,68.71,75.37,68.79,74Z"/><path class="cls-8" d="M89.7,55.68c1.64,1,1.64,1,3.71-1.81L95.3,54l-.38,1c-2.15,3.46-1.26,7.29-1.1,10.94.07,1.56.08,4.51,2,4.39s.35-2.82.91-4.27l1.76,0-.72,7.81-1.19,1.21c-5.23-4.13-6.32-9.77-5.9-16,.08-1.18,1.77-3-.95-3.43Z"/><path class="cls-9" d="M100.54,244c3.23-5.33.55-11.41,2.13-16.94h1.91a135,135,0,0,0,.11,33.06c-3.28.77-2-2-1.84-2.92.8-5.74-2-7.64-7.18-7.21q0-.49,0-1C98.26,248.24,103.56,250.16,100.54,244Z"/><path class="cls-7" d="M57.63,321l2.85,1.52a4.4,4.4,0,0,0,.18,1c.86,2,5.18,2.41,4,4.16-1.58,2.3-5.09,3.26-7.76,4.81-.77.45-1.49.09-1.35-.6C56.22,328.25,53.84,324,57.63,321Z"/><path class="cls-8" d="M49.74,59.16c3.91-7.43,8.62-13.6,18.42-12.14,2.28.34,4.77.23,4.62,3.6C70,48.87,67.11,47.28,63.67,49c-5.13-.37-1.53,3-2,4.68s1.1,4.35-1.38,4.54c-1.32.1-.33-2.74-.67-4.2-.23-1,1-2.53-.6-2.94-1.2-.3-2,.85-2.41,2l.1-.08c-2.88,1.51-3.71,4.15-3.9,7.13l-1.16,1Z"/><path class="cls-7" d="M109.65,325l4-2c1.49.37,3.89-.91,3.93,2.11,0,2.45.64,6.77-.1,7-2.88,1-5-2.07-7.7-3.07S109.49,326.43,109.65,325Z"/><path class="cls-7" d="M107.66,87.1c-4,.51-5.84-2.52-8-5-.13-2.35,1.38-2,2.95-2,3.44,0,6.89-.13,10.33-.22l-1.31,3.18.05,0-1,1h0l-1,1h0C108,84.69,107.58,85.66,107.66,87.1Z"/><path class="cls-7" d="M137.79,141.74c2.3.07,5.36-.34,6.06,2.19s-2.66,2.69-4.13,4a17.6,17.6,0,0,1-3.74,2.43c-1.52.76-2.54,2.75-4.7,2.06l2.33-4.17C134.08,145.48,138.74,145.42,137.79,141.74Z"/><path class="cls-7" d="M68.59,324.07,71.71,322c5.42-.73,3.26,3.69,3.86,6,.35,1.34,1.18,4.33-.42,4.21-2.4-.18-4.75-2.05-6.95-3.47C65.66,327.12,69.63,325.75,68.59,324.07Z"/><path class="cls-7" d="M102,323c1.32,0,2.57.06,2.71,1.8-1.53,2,4,2,1.2,4-2.12,1.53-4.62,3.23-7.05,3.4-2.14.15-.95-2.65-1-4.05C97.85,325.54,97.79,322.48,102,323Z"/><path class="cls-12" d="M111.73,77.88l-1.12,0-.91.07c-3.08.61-6.14.83-9.13-.46L102.45,75,103.63,76c2.63.34,3-1.27,3-3.34,0-4.3.14-8.59.22-12.89h1.63c.05,2.14-.23,4.36.24,6.4.68,2.9-2.23,6.61,1.87,8.74L113,77.16l-.19.12Z"/><path class="cls-7" d="M60.64,250.92c-4.72-1.81-9.68-3.43-9-10a14.47,14.47,0,0,1,.76-2.59L54.65,240C56.38,243.82,60.11,246.49,60.64,250.92Z"/><path class="cls-4" d="M137.79,141.74c1,3.68-3.71,3.74-4.19,6.5-3.54.64-3.54-2.14-3.84-4.26-.18-1.24-1.68-3.46.34-3.76C132.62,139.85,135.72,138.9,137.79,141.74Z"/><path class="cls-4" d="M71.57,82.67c0,1-.62,1.28-1.47,1.32l-1.44,1.07,0,0H62.64l0,0-1-1,0,0-1-1,0,0-1-1,.1,0c1.85-4.49,5.52-1,8.25-1.82C69.61,79.79,71.89,79.65,71.57,82.67Z"/><path class="cls-6" d="M90.67,137.25a30.31,30.31,0,0,1,0,4.46c-.84,5.63,1,8.42,7.12,7.38,1.17-.2,2.75-.53,3.48,1,.15.33-.1,1.24-.26,1.27a33.68,33.68,0,0,1-3.77.29c-10.5.35-8.61-7.13-8.51-13.48a2.25,2.25,0,0,0,0-.9Z"/><path class="cls-7" d="M111.14,251.08c1.88-6.11,6.46-11.34,9.66-11C119,244.94,117,249.68,111.14,251.08Z"/><path class="cls-10" d="M84,142.85c1.57,5.67.79,9.38-6.48,8.49-2.41-.29-4.94.3-7.41.57-1.41.15-3.49,2.27-3.92-.43-.29-1.79,2.25-1.24,3.56-1.38a25.25,25.25,0,0,1,6.44-.19c5.69.86,7.81-1.39,6.67-6.93Z"/><path class="cls-11" d="M48.87,358c2.81,1.87,6.14,1.34,9.21,2,1.29.27,3.59-.4,3.18,1.84-.39,2.09-2.33,1.23-3.56.55-2.05-1.14-3.68-.68-5.19.89C51.08,361.67,44.62,363.53,48.87,358Z"/><path class="cls-8" d="M121.78,64.06l-1,4-.08,0L116.83,68,116.47,62l.45-6.92Z"/><path class="cls-8" d="M102.45,75l-1.87,2.55-.91-.45,0-1.86C101,70.4,98,65,101.62,60.54l1.19.49Z"/><path class="cls-11" d="M53.25,254.63c0,.68-.53,1.61-1.44,1.06-2.94-1.79-4.6-4.73-6-7.74-.5-1.08.52-2.26,1.54-1.73C50.6,247.9,52.16,251,53.25,254.63Z"/><path class="cls-11" d="M83.8,192.17c-.31,2.56-1.37,3.36-4,2.23-4.53-2-8.23-4.65-10.14-9.37l1.23-1.45c2.27,3.43,4.8,6.58,8.71,8.29,1.78,2.22,2.41-1.5,3.9-.76Z"/><path class="cls-3" d="M103.2,133.94H65.45v-.83H103.2Z"/><path class="cls-12" d="M51.64,61.13l1.16-1c-.11,2.41.82,3.36,3.2,2.29,1.5,3.82,1.26,6.86-3.52,7.85C49,67.5,52.22,64.14,51.64,61.13Z"/><path class="cls-7" d="M100.54,244c3,6.18-2.29,4.26-4.86,5-.87-.92-4.57,0-2-3.13l1.24-.49-1-.85a1,1,0,0,1-.23-.49Z"/><path class="cls-13" d="M12.19,173c1.73,1.63,2.26-.08,3.19-.33,2-.55,2.88,1.78,4.55,2.27-.69,1.8-2.26.59-3.39.93a19.09,19.09,0,0,1-4.37.62c-1.34.09-2.52,2-3.91.49-.44-.49-.58-2.06-.35-2.19A35.27,35.27,0,0,1,12.19,173Z"/><path class="cls-4" d="M162.67,175.08c1.62.93,3.56,1.25,4.28,3.54.52,1.65-1,2.55-1.19,2.25-2.83-3.66-7.7-.75-10.7-3.5l.63-1.31h0C158,175.8,160.53,176.7,162.67,175.08Z"/><path class="cls-11" d="M96.7,15.22c-.86,3.23-2.82.27-4.17.74l-1.18-2c.68-3.08-1.48-4-3.7-4.89,0-1.34.11-2.67,1.63-3.29C94,7.21,92,13.87,96.7,15.22Z"/><path class="cls-13" d="M111.6,23.11c-5-2.1-10.32-3.58-14-7.92C103.1,16.3,108.56,17.57,111.6,23.11Z"/><path class="cls-6" d="M128.44,154.71c-4.47,1.41-8.77,0-13.11-.79-1.19-.2-1.95-.89-1.81-1.92.2-1.49,1.52-1,2.35-.72,3.5,1,7,2.05,10.68,1.78Z"/><path class="cls-10" d="M137.86,153.8c3.7,3.59,7.7,6.44,13.29,5.34l.53,1.24c-5.82,1.78-10.76.87-14.18-4.66Z"/><path class="cls-11" d="M119.81,256c-1.42-.21-1.49-1.12-1.1-1.83,1.57-2.85,2.92-6,6.26-7.21.75-.28,1.47.82,1,1.72A19.9,19.9,0,0,1,119.81,256Z"/><path class="cls-9" d="M60.64,250.92c-.53-4.43-4.26-7.1-6-10.88l1.15-1.24c2.17,3.07,4.42,6.08,6.48,9.21,1.42,2.16,1.23,4-1.62,4.92Z"/><path class="cls-11" d="M59.1,265.3c.89.24,3.85.71,3.47,1.08a21.49,21.49,0,0,1-7.22,4.72c-1.19.45-.61-1.77-.76-2.77C54.07,265,56.17,264.91,59.1,265.3Z"/><path class="cls-11" d="M48,97.27c.47,1.29.73,1.84.88,2.43.51,2.07,1.12,4.14,1.43,6.25.28,1.89,2.58,3.51.82,5.68A35.49,35.49,0,0,1,48,106.19a26.9,26.9,0,0,1-1.15-6.27C46.8,99.29,47.39,98.59,48,97.27Z"/><path class="cls-13" d="M113,77.16l-2.37-2.24c1.72-4.7.71-9.57.86-14.37l1.29.48a1.17,1.17,0,0,0,.9.39v.35l0,1.32,0-.09c-2.13,3-.9,6.46-.92,9.69,0,1.81,1.35.2,2.08.19C117.54,75.8,115.48,76.58,113,77.16Z"/><path class="cls-7" d="M89.28,5.83c-1.51.61-1.58,1.95-1.63,3.29l-2.05.74-2,.36-.95.82-.71.11L79.84,11C81.55,6.72,83.68,3.14,89.28,5.83Z"/><path class="cls-10" d="M100.82,105.35c4.24,1.85,1,5.32,1.64,8,.45,2,.08,4.18.08,6.29l-1,.45C99.82,115.22,101.08,110.25,100.82,105.35Z"/><path class="cls-12" d="M121.78,64.06l-4.85-8.93.37-4.14c2.83,2.37,4.79,5.2,4.71,9.08C122,61.4,123.91,62.84,121.78,64.06Z"/><path class="cls-14" d="M73.75,15.26c-3,4.93-8.93,4.87-13.14,7.74C63.21,17.4,68.91,17.06,73.75,15.26Z"/><path class="cls-10" d="M111.65,83.07,113,79.9l4.48,0c-1.9,3.43-1.82,8-6,10.14C110.77,87.73,116.69,85.53,111.65,83.07Z"/><path class="cls-10" d="M57.73,82.11c1.37,3.51,2.75,7,4.1,10.54.26.67,1,1.53-.2,1.92-.25.08-1-.72-1.2-1.24-1.31-3-2.53-6-3.79-9.08,0-1.4-1.22-3.13,1.06-3.92Z"/><path class="cls-7" d="M118.63,268.93c-.24.61.53,2.87-.83,2.35a12.74,12.74,0,0,1-5.65-4.52c-.49-.72,2.12-.68,3.31-.92C117.58,265.42,119.17,265.84,118.63,268.93Z"/><path class="cls-9" d="M59.65,230.12c1.92,1.24,4.43,2.63,3,5.21s-3.93,1.43-6,.39l0-1.64,3.77.28-1.9-3.25Z"/><path class="cls-10" d="M117.29,51l-.37,4.14L116.47,62l-2.08,0a.73.73,0,0,1-.75-.31v-.36c.22-3.27,4.82-6.95-.92-9.64L117.2,51Z"/><path class="cls-8" d="M114.89,72.89c-.74,0-2.09,1.62-2.08-.19,0-3.23-1.21-6.65.92-9.69C114.76,66.22,116.15,69.4,114.89,72.89Z"/><path class="cls-10" d="M67.5,272l-.79,13-1,0,.37-13.14Z"/><path class="cls-7" d="M104.46,266.51c-2.66,1.86-4.3,3.11-6,4.19-1.18.73-1.81.07-1.87-1.19-.08-1.66-.36-3.53,2.19-3.49C100.27,266,101.8,266.27,104.46,266.51Z"/><path class="cls-11" d="M38.52,248.32a13.45,13.45,0,0,1,5,5.73c.4.78,0,2-1,1.49-2.51-1.16-3.6-3.7-4.9-6C37.33,249.06,37.32,248.27,38.52,248.32Z"/><path class="cls-13" d="M102.74,127.23c-1.91-.72-4.7,1-5.2-1.4-.23-1.11,2.82-.83,4.35-.77,2,.07,5.14-1,5.7,1.17C107.89,127.41,104.29,126.42,102.74,127.23Z"/><path class="cls-14" d="M71.95,127.25c-1.81-.75-4.25.87-5.7-1.51a38.49,38.49,0,0,1,5.28-.52c1.89.06,5-.49,5.19,1.41C76.88,128,73.67,126.75,71.95,127.25Z"/><path class="cls-9" d="M133.67,227l9.13,5.4-.22,1.79-10.09-6.1Z"/><path class="cls-14" d="M123.53,106.32c-1.14,3-1.54,6.19-4.31,7.42-1.59.71-.66-1.22-.71-2-.23-3.23,3-4.25,4.23-6.6Z"/><path class="cls-4" d="M72.78,265.89c2-.05,3.72.3,3.91,2.68.08,1-.56,2.41-1.44,2-1.84-.88-4.06-2-4.86-3.71C69.7,265.41,72,266.4,72.78,265.89Z"/><path class="cls-11" d="M134.53,250c-1.47,2.24-3,4.63-5.56,6-.66.36-1.5-.32-1-1a72,72,0,0,1,5.23-5.89C133.61,248.78,134.5,248.83,134.53,250Z"/><path class="cls-14" d="M58.53,231.11l1.9,3.25-3.77-.28c-.88-.83-2.29-1.35-1.72-3,.51-1.48,1.87-.79,2.84-1.1l-.08,0Z"/><path class="cls-7" d="M76.24,248.11c-1.84-.58-4,.8-5-1.67a30.38,30.38,0,0,1,4.71-.53c1.48.05,4.19-.78,4.17.89C80.14,248.92,77.4,247.32,76.24,248.11Z"/><path class="cls-14" d="M122.84,229.45c-1.06.3-2,2.57-3,1.06-1.2-1.84.92-3.05,2.1-4.28l2.29.39Z"/><path class="cls-10" d="M144.91,177.78l-.8,3.22c-1.62-.88-1.37-2.49-1.34-3.88,0-1.18-.6-3.37.89-3.3C145.51,173.89,144.43,176.15,144.91,177.78Z"/><path class="cls-10" d="M29.67,231c2.21-1.27,4.08-3.35,7-2.94-.93,3.31-4.28,3.1-6.53,4.49Z"/><path class="cls-10" d="M63.7,214c-1.55.76-3.67-1.35-4.91,1-4.13-1.16,1.23-2.64-.13-3.9C60.62,211.55,63,211.36,63.7,214Z"/><path class="cls-11" d="M35.61,139.9c-.37,1.58,1.16,4.07-1.15,4.59-1.91.43-1.4-2.6-2.79-3.45Z"/><path class="cls-11" d="M73.65,364c.5-1.44-2.78-2.52-.77-3.7s3.45.77,4.55,2.42A4,4,0,0,1,73.65,364Z"/><path class="cls-10" d="M23,158.64l8.23.38c-2.56,2.91-5.51,2.45-8.56,1Z"/><path class="cls-9" d="M102.7,362.49a18,18,0,0,1-8.11-2.87l.05-1.35,8,2.93Z"/><path class="cls-4" d="M71.12,253.28a3.51,3.51,0,0,1-.09,4.07c-.09.13-1-.07-1.19-.34-.84-1.19-1.79-2.45-.36-3.88Z"/><path class="cls-13" d="M113.64,28l-2-4.88a3.07,3.07,0,0,1,3.82,2.1C116,26.77,115.08,27.61,113.64,28Z"/><path class="cls-12" d="M76.8,68c1.11.06,2.24.14,2.92-1,1.91,2.42-.18,3.91-1.32,5.62l-1.06-.82Z"/><path class="cls-10" d="M108.09,207.46l.59-2.47c.81-2.3,1.84-2.66,3.17-.35L109,208.35Z"/><path class="cls-13" d="M162.67,175.08c-2.13,1.62-4.63.72-7,1l-.08-1.12,0,.05,6.06-1Z"/><path class="cls-4" d="M48.26,58.86l.44.13c-1.44.73-.67,4.36-3,3.15-2-1-1.24-3.33.48-4.82Z"/><path class="cls-9" d="M76.52,131.18c2.74-1.57,4.26-2.46,6.11-1.77.18.07.13.76.18,1.16Z"/><path class="cls-3" d="M123.5,57c.52-1.17,1.2-1.61,2.21-.46.73,1.81,1.46,5.06.15,5.18C123.4,62,124.86,58.42,123.5,57Z"/><path class="cls-11" d="M155.63,174.94l.08,1.12h0l-.94,1.16-3.68,2.34c0-.47-.3-1.12-.09-1.37C152.25,176.72,152.88,174.27,155.63,174.94Z"/><path class="cls-13" d="M83.8,192.17l-.28-1.05.15-1.06-.15-.32,1.19-.73c2.07,0,3.12,1.32,3.9,3l-3.78,0Z"/><path class="cls-14" d="M101.75,223.32c-.94-.4-2.58.09-2.5-1.58,0-.51,1-1.29,1.67-1.39,1.64-.25,1.69,1.1,1.81,2.25Z"/><path class="cls-9" d="M112.66,218.19l-2.73,1.7-.33-3.11c.48-1.46,1.64-1.84,3-1.92Z"/><path class="cls-3" d="M125.72,54.53c-3.26,2.35-3.08-1.62-4.58-2.5-.32-1.12-.08-2.23,1.22-1.93C124.54,50.6,125.31,52.51,125.72,54.53Z"/><path class="cls-10" d="M88.75,137.3a2.25,2.25,0,0,1,0,.9L84,137.74C85.41,135.39,87,135.61,88.75,137.3Z"/><path class="cls-4" d="M81.7,57.71l1.55-.47a2.93,2.93,0,0,1,1.13,3.49l-3.75-.81,0,.08Z"/><path class="cls-10" d="M108,279.11c-3.31-2.58-.73-6.06-1.39-9l1.06,0a2,2,0,0,0,.21,1Z"/><path class="cls-14" d="M90.6,234.86l.08-1.48L90.63,232l0,0,2.77-2.26,1.16.78C93.28,232,92.91,234.32,90.6,234.86Z"/><path class="cls-12" d="M116.83,68l3.82.07q0,1,0,2C119.23,69.61,116.52,71.61,116.83,68Z"/><path class="cls-11" d="M161.65,174l-6.06,1C157.13,171.66,159.34,172.56,161.65,174Z"/><path class="cls-9" d="M61.66,216.13c1.2.77,3.44.51,3,3-1.55,1.43-2.06-.41-3-1Z"/><path class="cls-4" d="M49.8,43.71c.78.42,2.22.85,2.22,1.26,0,1.26-1.29,1-2.18,1.07C49.81,45.26,47.88,44.52,49.8,43.71Z"/><path class="cls-9" d="M91.17,129l1,1c-.33.27-.66.76-1,.76s-.65-.49-1-.76Z"/><path class="cls-11" d="M78,362.32l-.33-2.39c.93,0,2.13-1.9,2.7,0C80.85,361.35,79.39,362,78,362.32Z"/><path class="cls-9" d="M77.29,228.94l1.91,2.14c-1.93,2.63-2.56.09-3.58-.9Z"/><path class="cls-4" d="M81.48,233.31c1.68-1.9,1.94-.56,2.13.94C82.63,234.55,81.46,235.29,81.48,233.31Z"/><path class="cls-12" d="M99.71,75.2l0,1.86-3.09-2,1.19-1.21Z"/><path class="cls-9" d="M65.63,220.09c.81-1.54,1.46-.38,2.15.12l-.25,3.13C66.79,222.32,64.86,222,65.63,220.09Z"/><path class="cls-4" d="M67.67,262.77l1-1.34,1,1.3Z"/><path class="cls-9" d="M102.38,263.9c.84-.66-.45-3.66,2.36-2.16l.28,2.13Z"/><path class="cls-9" d="M95.93,130.18l.84.27a3.56,3.56,0,0,1-.61.46c-.11.05-.29-.06-.44-.1Z"/><path class="cls-9" d="M74.65,226.25l1.83,1.85A1.91,1.91,0,0,1,74.65,226.25Z"/><path class="cls-14" d="M115.53,115.21c-.29.34-.44.68-.61.69a7.69,7.69,0,0,1-1.37-.15c.18-.22.33-.59.54-.63A6.17,6.17,0,0,1,115.53,115.21Z"/><path class="cls-10" d="M56.57,339.34l2.15-.3-2,2Z"/><path class="cls-6" d="M47.47,65l-1.61.07C46.34,63.9,46.86,63.41,47.47,65Z"/><path class="cls-14" d="M97.1,226l1.64.08-1.55,1.72-.89-1.13Z"/><path class="cls-7" d="M70.91,183.58,69.68,185,69,183.64l1.47-1.25Z"/><path class="cls-13" d="M57.73,82.11l0-1.78,1.13,1.5Z"/><path class="cls-13" d="M111.73,77.88l1-.6Z"/><path class="cls-13" d="M154.75,177.21l.94-1.16-.63,1.31Z"/><path class="cls-8" d="M109.7,78l.91-.07-.45.11Z"/><path class="cls-10" d="M71.72,226.55l-1.17.22Q70.93,225.57,71.72,226.55Z"/><path class="cls-9" d="M77.57,228.73h0Z"/><path class="cls-5" d="M107.89,271a2,2,0,0,1-.21-1l1-.06Z"/><path class="cls-14" d="M96.38,228.57l-1.21,1.33-.88-1.24,1-1Z"/><path class="cls-14" d="M95.17,229.9a1.42,1.42,0,0,1-.63.63l-1.16-.78.91-1.1Z"/><path class="cls-8" d="M113.64,61.77a.73.73,0,0,0,.75.31l-.71,1Z"/><path class="cls-14" d="M117.49,114.42l-.33.55c-.11-.1-.32-.23-.3-.3a2.88,2.88,0,0,1,.3-.61Z"/><path class="cls-3" d="M120.68,50.59c-1.12-1.41-.89-2.16,1-2.09C122.39,49.7,122.78,50.75,120.68,50.59Z"/><path class="cls-9" d="M93.92,244.51l1,.85-1.24.49Z"/><path class="cls-9" d="M108.71,220.73l-2.5-2.25.15,0,2.34,2.14Z"/><path class="cls-14" d="M97.19,227.79l-.81.77-1-.87,1-1Z"/><path class="cls-6" d="M111.2,151.5c-.67,1.46-2,1.55-3.31,1.49-.83,0-2.07-.47-1.52-1.2.67-.89,2.11-1.3,3.3-1.64C110.51,149.92,111.25,150.41,111.2,151.5Z"/><path class="cls-4" d="M70.21,39.39c4.86,0,8.24,0,10.65,3,.17.21-.12.8-.19,1.22Z"/><path class="cls-4" d="M119.9,49.1,114.53,46C116.15,47.35,122.35,40.64,119.9,49.1Z"/><path class="cls-4" d="M99.66,38c.55-.31,1.1-.89,1.65-.88a27.3,27.3,0,0,1,3.69.53,5.91,5.91,0,0,1-.16.83c-1.07-.07-2.14-.2-3.21-.31-.65-.06-1.29-.1-1.94-.15Z"/><path class="cls-4" d="M57.48,42l-2.21,1.13c-.14-.36-.48-.94-.37-1a3.44,3.44,0,0,1,1.49-.88C56.64,41.17,57,41.68,57.48,42Z"/><path class="cls-13" d="M87.86,45.22c-.79,1-1.51,2.29-3.11,1.34-.35-.21-.5-.77-.74-1.17l3.27-.72Z"/><path class="cls-4" d="M60.56,41.47a4.7,4.7,0,0,1-1.46-.16.88.88,0,0,1-.24-.83,2.81,2.81,0,0,1,1-.53Z"/><path class="cls-4" d="M99.68,38c-.15,1-.37,1.93-1.67,1.82-.21,0-.6-.39-.57-.53.25-1.22,1.3-1.17,2.22-1.31Z"/><path class="cls-4" d="M114.19,43.14l-1.15-1c.39-.18.77-.5,1.16-.5s.77.33,1.15.51Z"/><path class="cls-4" d="M64.64,39.78l-.33-.28c.13-.07.26-.2.38-.19s.22.17.33.26Z"/><path class="cls-13" d="M92.91,41.3,91,42.39l-.59-.58,1.87-1.18Z"/><path class="cls-4" d="M109.93,40.43l-.12.35a1.13,1.13,0,0,1-.38-.15s.07-.22.11-.33Z"/><path class="cls-13" d="M92.31,40.62c.59-.48,1.16-1.1,1.95-.3l-1.35,1Z"/><path class="cls-13" d="M87.29,44.67l1-1,.55.53-1,1Z"/><path class="cls-13" d="M90,43.34l-1.1.89-.55-.53,1-1Z"/><path class="cls-13" d="M89.31,42.67l1.12-.87.59.58L90,43.34Z"/><path class="cls-1" d="M89.88,100c-4.89,0-9.82.67-14.59-1,1.5-3.82,4.74-1.58,7.15-1.88a96.53,96.53,0,0,1,10.22-.28l2,1.22a4.25,4.25,0,0,0-.23.65c0,.1.08.23.13.35l.08-.07C93,99.06,91.17,98.25,89.88,100Z"/><path class="cls-13" d="M93.67,94.92c-4.47,0-8.94.1-13.41.07-1,0-2.81.6-2.89-.85-.09-1.64,1.72-1,2.71-1,4.47,0,8.94,0,13.42.07Z"/><path class="cls-11" d="M93.67,94.92l-.18-1.73c3-.46,4.33.89,4.18,3.85h0l-3,1-2-1.22Z"/><path class="cls-13" d="M62.64,85H68.7C66.68,88,64.66,87.76,62.64,85Z"/><path class="cls-13" d="M107.66,87.1c-.08-1.44.3-2.41,2-2Z"/><path class="cls-10" d="M64.12,100.49,63.73,98a1.48,1.48,0,0,0,.43-.84l.78,2.59Z"/><path class="cls-6" d="M64.17,97.2a1.48,1.48,0,0,1-.43.84l-1.12-.53Z"/><path class="cls-13" d="M110.69,84.06l1-1Z"/><path class="cls-11" d="M97.67,97l.39.21L97.67,97Z"/><path class="cls-13" d="M109.69,85.06l1-1Z"/><path class="cls-13" d="M68.66,85.06,70.1,84Z"/><path class="cls-13" d="M61.64,84l1,1Z"/><path class="cls-13" d="M60.64,83l1,1Z"/><path class="cls-13" d="M59.65,82l1,1Z"/><path class="cls-10" d="M74,214.64a1.53,1.53,0,0,1,.47.14c2.41,1.74,6,1.16,7.89,3.87-3.73.88-6.54-1.16-9.42-3Z"/><path class="cls-10" d="M96.3,226.67l-1,1-1,1-.91,1.1L90.61,232c-.14-4.39,4.56-4.49,6.36-7.18,0,0,.35.16.34.23a6.41,6.41,0,0,1-.21.92Z"/><path class="cls-1" d="M108.71,220.66l-2.34-2.14c.52-1.62,1.88-1.67,3.23-1.74l.33,3.11Z"/><path class="cls-9" d="M64.73,208a3.33,3.33,0,0,1,2.93,2.71c.05.29-.33.66-.52,1l-2.87-3.09A1.35,1.35,0,0,1,64.73,208Z"/><path class="cls-9" d="M77.72,225.07A5.1,5.1,0,0,1,74.64,222C76.65,222,77.92,222.82,77.72,225.07Z"/><path class="cls-10" d="M67.71,216c-2,.6-3.17-.36-4-2C65.8,213.14,66.77,214.56,67.71,216Z"/><path class="cls-10" d="M109,208.35c-.74,1-1.19,2.58-3,1.56l2.07-2.45Z"/><path class="cls-10" d="M73,215.67,71,214.19a2.51,2.51,0,0,1,3,.44Z"/><path class="cls-9" d="M73.73,221l-2-.83C72.51,220.21,73.6,219.47,73.73,221Z"/><path class="cls-10" d="M68.61,216.07l-.39,1.55c-.91-.31-1-.86-.52-1.62A1.61,1.61,0,0,1,68.61,216.07Z"/><path class="cls-9" d="M78.72,226.05,77.64,225C78.69,224.64,79.13,224.91,78.72,226.05Z"/><path class="cls-9" d="M79.72,227.05,78.65,226C79.8,225.54,80,226,79.72,227.05Z"/><path class="cls-9" d="M80.71,228.56,79.65,227C81,226.87,81,227.58,80.71,228.56Z"/><path class="cls-10" d="M90.63,232l.05,1.39-1-.72Z"/><path class="cls-9" d="M74.72,222.06,73.66,221C74.67,220.69,75,221,74.72,222.06Z"/><path class="cls-1" d="M58.53,231.11,57.69,230c.77-1.25,1.35-.35,2,.17Z"/><path class="cls-9" d="M64.63,219.09l1.09-.08-.11,1-1.2-.14Z"/><path class="cls-10" d="M60.65,338.08c2.52-4.14,5.23-1.71,7.91-.24Z"/><path class="cls-11" d="M69.44,361.36c0,1.33-.91,1.66-1.92,1.63-.71,0-2-.34-2-.57-.06-1.36,1.08-1.87,2.18-2.16A1.26,1.26,0,0,1,69.44,361.36Z"/><path class="cls-10" d="M58.65,339.08c.13-1.45.93-1.57,2.07-1Z"/><path class="cls-10" d="M102.7,362.49l-.08-1.3,13-.17C111.78,365.35,107.11,362.8,102.7,362.49Z"/><path class="cls-10" d="M102.68,340c2.5-5,6-4.94,10-1.89C109.26,338.27,105.63,337.33,102.68,340Z"/><path class="cls-1" d="M112.61,338l2.12,1.07C113.69,339.37,112.88,339.22,112.61,338Z"/><path class="cls-1" d="M114.62,339l1.07,1.1C115,340.09,114.34,340,114.62,339Z"/><path class="cls-9" d="M70.91,183.58l-.43-1.19c.07-1.11-1.74-2.35.21-3.34l.37,0h.37l.36.87,4.84,6,2,1.14.37,1.34c.13-.09.38-.25.38-.25-.22-.38-.47-.75-.71-1.11A1.9,1.9,0,0,0,77,184.73a21.87,21.87,0,0,1-1-13c4.32-5.8,9.89-6.64,16.3-4.13l.11,0c1.59,2,2.61,4.5,5.28,5.42-.9,3-1.93,6.07,0,9.1l.27,1.53-.64,1.14c-2.76-1.69-3.09-.25-2.7,2.1l.12.22L92.67,187l-.49,0-.45.21-8,1.75a6.77,6.77,0,0,0-.19.76l.15.32a3.2,3.2,0,0,0-4.05,1.83C75.71,190.17,73.18,187,70.91,183.58Zm15,2.35c5.5-.55,8.69-3.48,8.73-8.69,0-5.39-3.47-8.19-8.65-8.33-5.56-.15-8.3,3.49-8.5,8.48C77.25,182.9,81.26,185,85.88,185.93Z"/><path class="cls-11" d="M92.28,167.58c-6.42-2.52-12-1.67-16.31,4.12A2.78,2.78,0,0,0,73.33,170l.34-2,0,.06c1-.37,2.17-.64,1-2.07l0,0c1.42,1.12,1.63-.19,2.08-1l-.07.05,1-1c.35-2.4,2.2-2.73,4.1-3,.68,6.1,5.48,1.45,7.89,3Z"/><path class="cls-10" d="M97.95,183.67l-.27-1.53c-.95-4.17,4.75-7.74,1.1-12.16l.69-1.7c4.14,4.63,3,9.81,1.53,15C100.35,185.56,99.19,185.32,97.95,183.67Z"/><path class="cls-1" d="M89.66,164.1c-2.41-1.58-7.21,3.07-7.89-3,4.62-.19,9.45-1.34,13.05,2.95q-.1.48-.17,1a3.53,3.53,0,0,1-1-.07C92.64,163.21,91,164.24,89.66,164.1Z"/><path class="cls-11" d="M93.7,164.92a3.53,3.53,0,0,0,1,.07c.94,1.7,2.07,3.15,4.3,3a1.59,1.59,0,0,1,.51.3L98.78,170c-1.29.68-1.08,1.92-1.11,3.06-2.67-.92-3.7-3.45-5.29-5.43Z"/><path class="cls-14" d="M83.71,189l8-1.75c1,2.91-1.19,3.76-3.11,4.79-.78-1.68-1.83-3-3.9-3Z"/><path class="cls-9" d="M73.68,168l-.34,2-1.41,3.18-.51,1.8a2.2,2.2,0,0,0-.71,0C69.89,171.91,70.64,169.46,73.68,168Z"/><path class="cls-14" d="M99,168c-2.23.15-3.36-1.3-4.3-3q.07-.48.17-1C96.55,165,99,165.23,99,168Z"/><path class="cls-14" d="M92.67,187l2.05.09c-.29,1.13.33,2.71-1.52,3.08Z"/><path class="cls-10" d="M94.61,186.92c-.39-2.35-.06-3.79,2.7-2.1,0,.45,0,.89,0,1.33l-1.69,1.06Z"/><path class="cls-10" d="M70.71,175a2.2,2.2,0,0,1,.71,0l0,4.12h-.37l-.37,0Z"/><path class="cls-13" d="M95.66,187.2l1.69-1.06C97.35,187.4,97,188.12,95.66,187.2Z"/><path class="cls-9" d="M74.66,166c1.14,1.43-.06,1.7-1,2.07C72.86,166.81,73.85,166.44,74.66,166Z"/><path class="cls-9" d="M76.7,165c-.44.85-.66,2.15-2.08,1C75.09,165.23,75.43,164.19,76.7,165Z"/><path class="cls-9" d="M77.66,164.06l-1,1C76.16,163.86,77.11,164.17,77.66,164.06Z"/><path class="cls-9" d="M83.63,10.21l2-.36C84.55,15.36,88,14.6,91.35,14l1.18,2c-2.72,0-3.58,4.39-6.65,3.15-3.48-1.4-5.66-3.82-3.9-8l.71-.11Z"/><path class="cls-9" d="M56.62,53.07c.41-1.16,1.21-2.31,2.41-2,1.64.41.37,1.94.6,2.94.33,1.46-.65,4.3.67,4.2,2.48-.19.92-2.94,1.38-4.54s-3.12-5,2-4.68l1,.89c-.94,2.19-1.59,4.56.2,6.45.95,1,1.56-.44,2-1.29h.64l2,3.44h0c-3.42,3.86-.35,8.4-1.31,12.51l-1.35,0c-.06-1.32,0-2.65-.19-4-.34-2.71.93-5.6-.95-8.12-1.93,2.46-6.94,1.49-6.3,7.26C57.22,61.26,60.78,56.44,56.62,53.07Z"/><path class="cls-9" d="M56,62.4c-2.38,1.08-3.31.12-3.2-2.29.2-3,1-5.62,3.9-7.13Z"/><path class="cls-10" d="M66.91,71l1.35,0,.53,3c-.08,1.39-.74,2.15-2.21,2.05Z"/><path class="cls-14" d="M113.09,234.92c-.26-.19-1.13-.66-1.08-.8.72-2,2.45-2.94,4.22-3.77.14-.07,1.1.86,1.06,1.25C117,233.81,115.2,234.29,113.09,234.92Z"/><path class="cls-6" d="M116.18,236.4l1.19-.1-.37,1.06Z"/><path class="cls-13" d="M71.66,73l-.71.89c-.07-3.81-.25-7.61-.19-11.42s1.6-2.22,3-.67a3.07,3.07,0,0,1-.13.95C69.85,65.56,72.16,69.54,71.66,73Z"/><path class="cls-10" d="M64.68,49.86l-1-.89c3.44-1.69,6.29-.11,9.11,1.64l0-.1c-3.37-.39-6.29-.26-5.26,4.5h-.64C66,53.38,68.3,50.36,64.68,49.86Z"/><path class="cls-9" d="M76.8,68l.54,3.77L74.92,73l-.18-8,1.57.06Z"/><path class="cls-10" d="M76.3,65.06,74.74,65l-1.11-2.25a3.07,3.07,0,0,0,.13-.95c2-1,1.2-3.49,2.55-5.2Z"/><path class="cls-12" d="M81.7,57.71,80.64,60c-.91.08-1.64-.15-1.88-1.15,1.42-1.28.9-2.13-.6-2.78l-.51-2C81,53,80,56.85,81.7,57.71Z"/><path class="cls-13" d="M78.16,56.07c1.5.65,2,1.51.6,2.78Z"/><path class="cls-10" d="M69.57,58.47h0l1.29-.26v.59Z"/><path class="cls-8" d="M111.45,60.55c-.14,4.8.87,9.67-.86,14.37-4.11-2.13-1.2-5.84-1.87-8.74-.48-2-.19-4.26-.24-6.4.3-1.24,1.75-3.49-.45-3.29-2,.18-5.6-1.31-6.33,2.64-4.16-1.83-1.08-5.46-2-8.1,2-.16,4.5.88,5-2.36,2.9,3.11,5.06-3.46,7.94-.61C109.06,51.92,110.93,56.3,111.45,60.55Z"/><path class="cls-12" d="M111.45,60.55c-.52-4.25-2.39-8.63,1.2-12.48A6.87,6.87,0,0,1,117.21,51l-4.48.77q0,4.63,0,9.26Z"/><path class="cls-12" d="M104.71,48.68c-.53,3.23-3.06,2.19-5,2.36L97.55,52.2,95.31,54l-1.89-.16C96.25,50.12,98.8,45.75,104.71,48.68Z"/><path class="cls-11" d="M89.88,100c1.29-1.75,3.13-.94,4.78-1C93.4,100.86,91.43,99.44,89.88,100Z"/><path class="cls-11" d="M37.55,148.46l.34-2.28a5.19,5.19,0,0,1,.57.29c-.26.7-.55,1.38-.85,2.07Z"/><path class="cls-8" d="M73.63,62.75,74.74,65l.18,8H71.66C72.16,69.54,69.85,65.56,73.63,62.75Z"/><path class="cls-8" d="M58.25,76.24l.67-.49-.45.65Z"/><path class="cls-1" d="M97.55,52.2,99.68,51c.93,2.64-2.16,6.27,2,8.1l-.07,1.41C98,65,101,70.4,99.71,75.2l-1.95-1.3.72-7.81.06-12.21Z"/><path class="cls-9" d="M96.72,66.05c-.56,1.45,1,4.16-.91,4.27s-1.92-2.84-2-4.39c-.16-3.66-1.05-7.49,1.1-10.94L96,54.87A23.69,23.69,0,0,0,96.72,66.05Z"/><path class="cls-12" d="M96.72,66.05A23.73,23.73,0,0,1,96,54.87l2.55-1-.06,12.21Z"/><path class="cls-13" d="M98.54,53.88l-2.55,1L94.92,55l.38-1,2.25-1.83Z"/><path class="cls-8" d="M106.84,59.78c-.08,4.3-.2,8.59-.22,12.89,0,2.07-.36,3.68-3,3.34q0-7.46,0-14.92C104.5,60.1,104.52,57.16,106.84,59.78Z"/><path class="cls-9" d="M106.84,59.78c-2.32-2.62-2.34.32-3.17,1.31a3.41,3.41,0,0,0-.86-.06l-1.19-.49.07-1.41c.74-4,4.3-2.46,6.33-2.64,2.2-.2.75,2.05.45,3.29Z"/><path class="cls-10" d="M102.81,61a3.41,3.41,0,0,1,.86.06q0,7.46,0,14.92L102.45,75Z"/><path class="cls-14" d="M79.62,191.88a3.2,3.2,0,0,1,4.05-1.83l-.15,1.06C82,190.38,81.4,194.1,79.62,191.88Z"/><path class="cls-1" d="M91.35,14c-3.34.59-6.8,1.35-5.75-4.15l2.05-.74C89.87,10,92,10.93,91.35,14Z"/><path class="cls-8" d="M112.74,61q0-4.63,0-9.26c5.74,2.7,1.14,6.38.92,9.64A1.17,1.17,0,0,1,112.74,61Z"/><path class="cls-1" d="M83.63,10.21l-.95.82Z"/><path class="cls-10" d="M83.71,189l1,0-1.19.73A6.51,6.51,0,0,1,83.71,189Z"/><path class="cls-2" d="M85.88,185.93c-4.62-.9-8.64-3-8.42-8.54.2-5,2.94-8.64,8.5-8.48,5.18.14,8.69,2.94,8.65,8.33C94.57,182.46,91.38,185.38,85.88,185.93Z"/><path class="cls-14" d="M71.93,173.17,73.33,170A2.78,2.78,0,0,1,76,171.7a21.89,21.89,0,0,0,1,13l-.33,1.2-4.84-6C73.28,177.72,73,175.45,71.93,173.17Z"/><path class="cls-14" d="M97.67,173c0-1.14-.18-2.37,1.11-3.06,3.65,4.42-2,8-1.1,12.16C95.74,179.11,96.77,176.07,97.67,173Z"/><path class="cls-14" d="M93.7,164.92l-1.32,2.69-.11,0-2.62-3.48C91,164.24,92.64,163.21,93.7,164.92Z"/><path class="cls-7" d="M71.93,173.17c1.08,2.29,1.35,4.56-.13,6.79l-.36-.87,0-4.12Z"/><path class="cls-13" d="M76.63,185.94l.33-1.2a1.9,1.9,0,0,1,1.75,2.32l0,0Z"/><path class="cls-10" d="M78.71,187.05c.24.37.49.73.71,1.11,0,0-.25.17-.38.25l-.37-1.34Z"/><path class="cls-8" d="M64.68,49.86c3.63.49,1.28,3.51,2.18,5.16-.42.85-1,2.3-2,1.29C63.09,54.42,63.74,52.06,64.68,49.86Z"/></g></g></svg>