<svg xmlns="http://www.w3.org/2000/svg" viewBox="0 0 521.38 276.36"><defs><style>.cls-1{fill:#4e1912;}.cls-2{fill:#6a2215;}.cls-3{fill:#2c2a27;}.cls-4{fill:#371610;}.cls-5{fill:#755746;}.cls-6{fill:#42403c;}.cls-7{fill:#2b0c08;}.cls-8{fill:#552c27;}.cls-9{fill:#121210;}.cls-10{fill:#a27760;}.cls-11{fill:#514c48;}.cls-12{fill:#1c1b19;}.cls-13{fill:#82614d;}.cls-14{fill:#896652;}.cls-15{fill:#595652;}</style></defs><title>Asset 1</title><g id="Layer_2" data-name="Layer 2"><g id="Layer_1-2" data-name="Layer 1"><path class="cls-1" d="M461.51,140.4c-.35,2.74,2.45,3.81,3.15,6-1.5,1.32-2.79,3-5,3-5.52-5.57-13.3-5.38-20-7.9l-1.2.05c-13.08-3.51-26.48-3.78-39.89-3.88l-2,0-1,.69-5.93.16-2,.15-2.93.62c-8.61.76-17.15,1.83-25.16,5.39l-16.89,5.78-10.73,2.25-5.34-1.33,0-1.91c4.24-.67,8.48-1.35,12-4.08,2.72-.68,5.61-1,8.14-2.1,5.23-2.31,12.74-3.74,14.91-7.86,5.36-10.16,10.08-21.37,4.9-33.54-.69-1.62-1.53-2.53-3.26-2.39s-3.32,2.08-2.52,2.89c2.89,2.91-6.34,9.26,3,10.08.61.05,1.56,2.33,1.45,3.48-.52,5.56-1.47,11.28-6.28,14.73-2,1.45-5.36,1.21-8.12,1.4-.91.06-1-1.31-.52-2,3.36-4.76-1.18-11.82,4.61-15.89.14-.1-.28-1-.45-1.55-5.67,2.2-9.4-4.57-14.88-3.23-2.8-.48-3-5.3-6.83-4.08.6-2.46-1.61-3.89-2.14-5.94,2.43-1.33,2.52-3.48,1.49-5.55-1.16-2.33-3.19-1.13-4.79-.47-3.22,1.33-5.09,1-4.77-3.09.14-1.75-1.51-2.4-2.46-3.5-.68-.78-1.86-1.93-.53-2.94,1.09-.83,3.11-.88,3.53.37,1.72,5.06,2.5,1.56,3.83-.16a6.74,6.74,0,0,1,2.86-1.61c.82-.33,2.34.16,2.11-1.27-.1-.64-1.42-1.39-2.29-1.55-6.63-1.2-13.07-3.62-20-3.26-.72-1.25-1.08-2.87-3-3-.8-2.67-3.16-3.41-5.37-4.35l23.29-10.84,4.14-3.76c3.84-1,6.16-3.71,8-7,5-3.35,6.08-8.6,6.86-14l5-1.06,1.6,1c9.34,8.45,21.06,9.94,32.84,10.95,5.78.49,11.63.13,17.45.32,3.48.11,4.91-.74,3.23-4.44a9.94,9.94,0,0,1-.65-6.82c7.11.78,4.11,7.54,6.54,11.08q0,2,0,4h0l-1.47.12c-16.73,2-32.54,7.65-48.61,12.25L315.69,71.86l14.85,2.52c5.9,2,11.57,4.94,18,4.93l7,1.14c3.23,1.77,6.72.59,10.08.85,7.33.18,14.66.56,21.92-.93l16.86-2.16c2.58,2.52,7.73-.42,9.24,4.36-5.62,2.4-11.29,4.7-16.84,7.26-1.94.89-4.77,1.28-4.44,4.54l-.7,0c-5.16.3-7.92,3.77-10.28,7.76a6.77,6.77,0,0,0-3.82,4.31l-1.09,2c-3.34,1.91-1.4,5.33-2.28,7.95-1.63,4.32-3.23,8.65-4.9,13-.46,1.2-.44,2.22,1.08,1.57,6.25-2.65,13.31-2.82,19.26-6.35,8.52-1.95,17-4.11,24.94-7.8-.08,1.43.18,2.62,1.94,2.74a4.31,4.31,0,0,0,4,4c.14,1.14.38,2.26,1.74,2.49.23,0,.83-.57.79-.79-.23-1.36-1.35-1.59-2.49-1.74-.37-2.29-1.13-4.2-4-4l-.08-2.55,34.16-11.31,2-.25.43,0,.42-.09c8.36-2.44,16.45-5.85,25.2-6.88l.95.9,0,2.21h0c-12.68,3.48-21.82,10.9-24.41,24.17C454.06,131.27,455.83,137,461.51,140.4Zm-114-86-.39-.21.37.22,1,1,1,1,1,1q0,1,0,2l-1.25.37.24.36,1-.72,1.53-.77-1.53-1.24-1-1-1-1ZM343.3,51l.38.14c0-.11.14-.29.11-.32a1.14,1.14,0,0,0-.37-.15Z"/><path class="cls-2" d="M2.49,189.38l3.27-9h5.42a2.38,2.38,0,0,1,.22,1c-1.32,3.11-2,6.76.19,9.18s5.81.92,8.79.14l4.19-1.11,1.09,2.24c-1.28,1-3.37.78-4.12,2.64-7.21,3.47-9.15,9.64-5,16.05l.93,1a27.39,27.39,0,0,0,7.88,8.88c12.84,9.85,27.78,13.74,43.56,15,20.6,1.68,40.21-2.85,59.4-9.8,13.7-5,28.07-7.93,41.4-14a35,35,0,0,0,5.36-.87q41.3-13.34,82.57-26.8l13-3.59,1-.8h.07l1.91-.81c17.61-4.5,34.8-10.33,52-16.25l16.06-5.16,17-4.76,10.83-.5c2.43.25,4.89,1,7.18-.53l1.84,0,1.13,0,1.92-.07,16,1c2.95,2.3,7.35-.38,10,2.93.58,2.09,3.12,3.95.77,6.39-16-2.23-32-2-47.75,1.78l-2.1.36-3.83.9c-11.13,2-21.52,6.4-32.23,9.77-12,3.78-23.9,7.93-35.84,11.92-4.9,1.56-9.81,3.11-14.71,4.69q-76.16,24.54-152.31,49.12c-27.9,9.07-55.82,9.83-83.44-.22-10-3.65-19.62-9.13-25-19.39,2.18-.67,3.83-1.91,4.33-4.25a1.63,1.63,0,0,0-.54-1.12c-2.2.45-2.73,2.69-4.17,4a3,3,0,0,1-.42.27c-4.64-4.32-2.47-9.34-1.5-14.26.7-3.55,3.33-5.93,5.11-8.83-3.22-1.72-6.23,2.11-9.46.37-.29-.16-.59-.29-.89-.43Z"/><path class="cls-3" d="M468.75,45.5,453.19,75.38c-12.32-3.7-23.4,1.33-34.69,4.92-.36-4.41,1.73-8.85-.12-13.26l6.08-11.59h11c-3.45-2.6-9.44-.82-8-7l1.16-3.21c6.49.05,4.5-5,5.4-9.06-.46,6.08,3.72,4,6.45,4.41l3,.82c10.71-.17,20.48-3.87,30.14-8,4.89-3,10.77-2.87,15.93-5,1.85-.14,2.85-2.72,5.08-1.76l0,5.34-3.12,1.39a3,3,0,0,0-3.67-.77c-14.72,6.16-30,10.47-45.34,14.86A7.81,7.81,0,0,0,441,46.29c-.46-.2-1.56-3-1.38-.17s-1.7,4.79-2.08,7.28l-.22.42.24-.4c7.28-2.14,14.5-4.54,21.87-6.31C462.45,46.38,465.24,43.5,468.75,45.5Z"/><path class="cls-4" d="M373.53,185.32l-6.87,2.16c-1.45-.23-1.88.71-2.13,1.86a1.3,1.3,0,0,1-.94.25c-7.13-2.45-11.81,2.46-17.05,5.66l-3.78.34-1.24-.37-3-15.86,1-2,15.12-6.45c17.16-4.3,34.4-6.19,51.86-1.75.78,3.37-5.51,4.22-2.93,8.23v2l-1,3.05h-3c.23-4,.23-4-2-3-1.67.27-3.57-.61-5,1q-.5,0-1,0C385.22,180.71,378.81,180.94,373.53,185.32Z"/><path class="cls-5" d="M34.55,146.53c4.82-5.38,11-8.39,17.81-10.48l.69.53-.36-.76.41-.11c3.1-.25,6-1.74,9.34-.7,1.72.53,3.26-1.29,3.2-3.53,2.26-.75,4.7-1.18,6.75-2.31,5.08-2.81,11.27-2.34,16.12-5.69l4.07-1c1.34,1.7,2.7.39,4.05,0l14.85-4c2.77,3.36,6.21-.4,9.18.87-6.77,4.75-13.32,9.72-18.65,16.13-1.13,1.35-1.36,4.8-3.88,3.29a7.57,7.57,0,0,1-3-5.93c.38-5.09-3.36-6.38-6.38-6.22-4.58.25,0,3.92-1.19,5.79-1.2.22-3,.11-2.88,1.62.07.71,2,.37,2.86-.68,2.27,6.24,11.57,10.32,5.85,19-6.2-1.7-10.63-6.65-16.18-9.58-2.62-1.38-7.49-.24-8.64-4.47-.59-2.15-1.82-2.05-3.39-1.24s-2.75,2-2.21,3.49c1,2.7,1.88-.43,2.91-.31a6.34,6.34,0,0,1,1.25.17c.1,2.61,1.09,5.91-.14,7.62-1.11,1.55-4.61,1.58-7.11,1.88-2,.24-2-1.61-2.42-3.07-1.39-4.65-7.37-6.78-11.83-4.62-3.82,1.85-6.87,5.13-11.22,6Zm42.06-9.14,2-1.36c-.51-.17-1.11-.59-1.52-.45a7.43,7.43,0,0,0-1.79,1.26ZM82,135l-.69-.2c0,.12.07.35.11.35A2.35,2.35,0,0,0,82,135Z"/><path class="cls-1" d="M313.56,206.4l-3,1.05c-1.64-1.58-2.24-.1-3,1l-26.95,9c-2.14.51-3.15-1.74-5-2l-1.14-2c4.57-3.31-.66-6.65,0-10,8.42-1.79,15.54-7.14,24.15-8.55,9.22-1.51,17.64-9.18,27.77-3.46l.46,0C324.15,197.87,318.88,202.16,313.56,206.4Z"/><path class="cls-5" d="M452.6,105.27l-2,.25c-9.86-4.37-20.75-3.51-31-6-.86-.21-1.8.21-1.72,1.25.3,4-3.68,4-5.17,3.78a5,5,0,0,1-4.25-6.2l25-8,9-2c2.88.69,6,.87,8.58,2.17,6.6,3.33,10.31.93,12.54-5.4l15,13.19c-8.74,1-16.84,4.44-25.2,6.88Z"/><path class="cls-3" d="M211.82,239.56c.78,1,.78,1.27-.57,1.75-8.28,2.89-16.55,5.83-24.9,8.54-22.48,7.29-44.48,16-67.36,22.11a27.7,27.7,0,0,1-3.44.48c-4.17-2.87,2.94-3.68,1.12-6.12,1-.53,3.72,1.54,2.83-1.87,2.5,1.85,5.25,5.33,6.56-1,0-.06.31-.05.47-.07,2,7,4,.76,6,0l0,0c3,.3,4.75-.94,5-4l0,0c1.76,1.87,2.89,1.86,3-1l0,0c2-.1,2.17-1.47,2-3l3,1,0,0,4.9,1.87,1.13.12c1.37,0,2-.68,2-2l0,0c5.11.65,5.64-7,10.94-6l2,0,1,0c3.85-1.23,9.38,1.15,10.92-5.07.17-.69.26-1.07,1.23-.61,6.87,3.3,12.81-1.85,16.34-5.06,4.34-3.94,8.06-.44,11.51-2.28C208.29,239.44,210.12,239.37,211.82,239.56Z"/><path class="cls-6" d="M33.38,262.9c-12.11-7.79-19.89-19.29-26.92-31.43,1-1.34.75-3.49,2.7-4.24,3,2.8,5.94,5.74,9.1,8.37,9.74,8.12,21.05,13,33.32,15.89a2.36,2.36,0,0,0,0,.84l-.91.94-1,1-1.16,1.12v2a4.37,4.37,0,0,0,0,1l-.93.28C41.77,256.32,37.29,258.65,33.38,262.9Zm11.16-9.48c1,1.18,2,1.24,3-.05Q46,251.57,44.55,253.43Z"/><path class="cls-7" d="M461.51,140.4c-5.68-3.4-7.45-9.13-6.34-14.79,2.59-13.27,11.73-20.69,24.41-24.17Z"/><path class="cls-8" d="M442.54,88.37l-9,2c-2.62-2.44,8.09-3.78.92-5.39a96.23,96.23,0,0,0-16.95-2.53l0-.3,1-1.84c11.29-3.59,22.37-8.62,34.69-4.92l6.29,6.12c-1.16.54-2.58.82-3.43,1.66C452.29,86.94,446.1,84.23,442.54,88.37Z"/><path class="cls-9" d="M427.55,48.42c-1.48,6.22,4.51,4.44,8,7h-11c-4.27.18-8.11-1.31-11.88-3.09,5-4.93-.09-6-3-8-2.44-3.54.57-10.3-6.54-11.08a13.22,13.22,0,0,1,4.47-11.13c.52,2.84,2.7,3.06,5,3.16l.17.13.8.85c3,4.58,5.08,9.46,5.11,15-.93.68-.94,1.35,0,2l0,2c-1.54,1.87-1.93,4.49,0,5.5C421.88,52.6,425.13,51.33,427.55,48.42Z"/><path class="cls-3" d="M275.69,215.43c1.81.29,2.82,2.54,5,2-21.53,8-43.25,15.46-65.28,22-.19.05-.52-.38-.78-.58.81-1.93,4.77-2.21,2.91-5.54l-1-3.93v-1l0,0,2.06.05c0,1.39-.44,2.9.91,4q.06.44.07.89c.65,1.25,1.81,1,2.9,1,4,0,9.09,1.27,7.07-5.92l1-2c1.49-1,1-2.53,1-3.92l1.11,0-1,6.94c3.85,2.12,6.07-.06,8-3,.63,4,3.74,0,5.13,1.59l.87-2.6,0,0c2.21.2,3.24-.78,3-3h0c.65-.38,2.24.94,2-1.09a7,7,0,0,0,0-.91q0-.5,0-1c1.26-1.69,5.06,3,5-2q0-.5,0-1t0-1c2.19,2.32,3.92,5.92,8,2.92,3.85.23,1.09-2.74,1.93-4l2.11.15.24,4.8c1.3-1,2.93-1.68,3.8-2.93C272.89,214.61,274.6,216.65,275.69,215.43Z"/><path class="cls-6" d="M449.55,205.34c-7.81,4.25-15.74,8-25,5.7a1.68,1.68,0,0,1,0-.81c1.4-.6,1-1.83,1.06-2.93q0-.95,0-1.89,0-.55,0-1.11l.78-.83,1.22-.06,6,0,1,1.93-1.05,1.53c2.11,1.34,3.85-.64,5.81-.78.54,0-.51-.62-.91-.88l.16-2.85c.88-1.29-1.09-1.09-1-2l3,0,1.05,0c3.89.31,2.08-3.75,3.86-5.05,5.55,4.63,8.92-2.48,13.71-2.89,2.33-.2,6.55.42,8.35-3l10.07-2c-5.73,4.8-12.94,6.35-19.74,8.58C452.9,197.64,450.06,200.21,449.55,205.34ZM446.93,201l-.65-.2.1.37Z"/><path class="cls-6" d="M468.28,149.4l1.16.06c.18,1.7,1.08,3,2.82,2.73,9.44-1.53,18.85-3.22,28.28-4.85,2.28.25,3.19,1.65,3.23,3.8-12.51,3-25.42,4.26-37.53,8.9a20.35,20.35,0,0,1-8.71,1.39h0a1.83,1.83,0,0,0-2-2l-5.9-.11c.16-1.44,1.15-1.64,2.39-1.9,4.41-.91,8.79-2,13.16-3C467.75,153.72,469.29,152.34,468.28,149.4Z"/><path class="cls-5" d="M324.55,58.19,301.26,69l-4.69,1.24-19,5-.14-2.78,5.48-2.17c6.62-1.57,12.55-4.32,16.89-9.8l3.74-2.2c2.94,2.28,5.61,1.15,8.6-.21C316.17,56.32,320.42,56.62,324.55,58.19Z"/><path class="cls-1" d="M425.65,205.41q0,.95,0,1.9l-1.06,2.93a1.68,1.68,0,0,0,0,.81l-4,.11c-1.63-1.2-3.46-.67-5.23-.61-7.5-.6-13.58-8.18-15.95-19.85q.11-4.13.22-8.26h3c-2.59,3.75,3.61,2.46,3,5.25-1,4.21,2.52,7.59,2.23,11.89-.24,3.71,3.31,5.72,6.26,5.59,4.13-.19,1.62-3.67,1.65-5.83,0-1.32.06-2.64.1-4,3.89,1.68.09,6.08,2.89,8.15C420.15,207.11,423.34,204.64,425.65,205.41Z"/><path class="cls-10" d="M206.58,91.53C218.82,85.6,232,82.35,245,78.83c3-.81,6.33-.29,9.51-.38-4.14,3.4-9.8,2.37-14.24,4.9-2.49,0-5-.14-6.88,2-3.05.77-6.28,1.14-9.11,2.41-4.22,1.9-9.56,1.33-12.69,5.63l-2,1c-2.48-1.63-2.62.41-3.08,2-7.57,3.77-13.69,9-17,17l-2,2.12-1.14-1.22c2.14-7.32,7.14-12.41,13.12-16.72Z"/><path class="cls-11" d="M61.54,272.41c-5,.23-10,.6-14.22-2.84,1.93-.47,3.32-2.74,2.29-3.49-6.73-4.86,2.56-2.66,1.93-4.65q0-.49,0-1l0-1.07q0-.47,0-.95a4.52,4.52,0,0,0,0-1v-1l2-1q0-.47,0-.95l-.05-1.09a4,4,0,0,0,0-1l.89-.79c2.27-.51,2.93.88,3.2,2.73-.55.56-2.26-1-2,1.06a3.31,3.31,0,0,0,0,.9l-1,1.06q0,.5,0,1l-1,1q0,.43,0,.87l0,1.08-1,.86,0,1.12v1a1.89,1.89,0,0,0,.08,1l-1.09,1v1.06a2.53,2.53,0,0,0,4,0v-2.11a1.66,1.66,0,0,0-.1-.9l1.11-1.1,0-1a5.82,5.82,0,0,0,0-.89l1.07-1.07a8.36,8.36,0,0,0,0-.93c.59-.33.75-.68.06-1.08q0-.5,0-1l.92-1,1-.83-1.07-1.35c.48-.44,1.09-1.35,1.42-1.26,6.86,1.91,13.86-.26,20.73.73-4.16,1.89-8.88-.7-13,1.59q0,.59,0,1.17a1.48,1.48,0,0,0,.1.82l-1.11,1-1,1.05q0,.48,0,1l-2,0,0,0,0-1q0-.49,0-1c-1.28-1.93-2.63-1.11-4-.09l0,1a2.48,2.48,0,0,0,.07,1l-1.08,1,.05,1a4,4,0,0,0,.06.91l-1.09,1,0,1,1,1q0,.49,0,1c.92,1.75,1.94,1,3,.12l0-1.13a2,2,0,0,0,0-1q0-.49,0-1l1-1.14a4.78,4.78,0,0,0-.06-.81l1.08-.4.32.33.69,1v1l-1,1a7.6,7.6,0,0,1,0,.88v1l0,1.05-1,.94,0,1.06a1.64,1.64,0,0,0,.27.91Z"/><path class="cls-12" d="M299.53,50.73c-8.54,1.44-17.08,3-25-2.19l1.17-2.14h1.81c.9,4.87,4.72,1.22,7,2.16,1.43.58.67-2.31,1.13-3.57.56-1.52,1.14-3,1.71-4.55l.4,2.81c0,.33-.06.66-.1,1-.42,3.44,2,3.47,4.13,3s5.87-.66,5.8-2.63-3.18.6-4.94-.21a31.86,31.86,0,0,0-3.13-1.07l4.1-2,1-1.9,1.95-.12c4.14.49,1-2.76,2-3.88l1-.16c.28,2.3-1.38,5.76,3.26,5.47l-.21,2.65Z"/><path class="cls-6" d="M308.3,9.23c10.66-2.56,21.5-3.42,32.41-4,2.71-.15,5.27-1,7.86.33q0,.43,0,.85c-1.06.79-.58,1.72-.3,2.69.43,1.5-.35,2.27-1.78,2.27-2,0-4-.17-5.95-.27a5.73,5.73,0,0,1,.16-1.6c.31-.77,2.3-.62,1.44-1.79-.36-.49-2.34-.28-3.24.22-1.35.75-2.74,3.16-3.51,2.92-8.71-2.73-17.2.94-25.79.59Z"/><path class="cls-8" d="M299.53,50.73l3.06-7.27,2.92-.1,7.06-2.91-1,5-3,7-5,6-3.74,2.2c-1.15-1.55-2.87-1.06-4.41-1.22Z"/><path class="cls-12" d="M513.54,148.41c11.59,2.77,7.66,10.06,4.94,17-3.25.2-5.88.35-6.48-4.35-.34-2.61-1.22-6.15-4.48-7.63C507.42,149.22,511.34,149.85,513.54,148.41Z"/><path class="cls-3" d="M449.55,205.34c.51-5.13,3.35-7.7,8.31-9.32,6.8-2.23,14-3.78,19.73-8.58,2.87-1.14,5.63-2.73,8.91-2.12-.53,3.29-3,4.25-5.79,4.71-2.26.38-2.64,1.13-.75,2.61a25.48,25.48,0,0,1-10.23,3.81c-5.77,1.4-12.3,1-16.17,6.85Z"/><path class="cls-12" d="M442.53,47.44c15.3-4.38,30.61-8.7,45.34-14.86a3,3,0,0,1,3.67.77L470.6,42.53c-.7-.31-1.71-1.09-2-.86-6.45,4.38-14.54,3.74-21.34,7C445.37,49.58,443.42,50.36,442.53,47.44Z"/><path class="cls-12" d="M508.85,17.2l-1.26,4.19-.92,1.22.08-.07c-4,.59-3.74-3.12-5.17-5.13L498.37,6.86c-1.72-5.51,2.29-3.33,4.6-3.44l3.56,4C506.85,10.8,509.33,13.65,508.85,17.2Z"/><path class="cls-12" d="M348.56,6.39q0-.43,0-.85c5.82-3.49,8.76,1,12.11,4.36-.9,4,2.81,7.6.91,11.66a1.53,1.53,0,0,1-.2.85c-3.59,1.06-4.69-1.69-6.07-4l-2.5-5A9.1,9.1,0,0,0,348.56,6.39Z"/><path class="cls-11" d="M442.54,88.37c3.56-4.15,9.75-1.44,13.52-5.21.85-.85,2.27-1.12,3.43-1.66l4.17,3.64c-2.23,6.33-5.94,8.73-12.54,5.4C448.55,89.24,445.41,89.06,442.54,88.37Z"/><path class="cls-9" d="M507.52,153.42c3.26,1.48,4.14,5,4.48,7.63.61,4.7,3.24,4.55,6.48,4.35-.19,9.75-8.71,11.13-14.92,14.83q0-1.89,0-3.77c2.87-1.81,6.9-2.47,7-7l.2-2.89c-.3-4.53-1.79-8.75-3.45-12.92Z"/><path class="cls-3" d="M449.53,5.48a233.64,233.64,0,0,1,40-4.94l0,1c-4.12,3-9,2.29-13.66,2.81-5.51.62-11.24,0-16.35,2.86l-2,.12-1.94,0-2.29,0C451.71,7.37,449.87,7.87,449.53,5.48Z"/><path class="cls-3" d="M500.53,147.33c-9.42,1.63-18.84,3.32-28.28,4.85-1.74.28-2.63-1-2.82-2.73,8.95-2.14,17.88-4.37,27.09-5.09Z"/><path class="cls-1" d="M11.18,180.36H5.76C9,170.26,16.23,162.85,23.15,155.26l1.76.41L14.67,171.42l-.25,1.89-.09-.07C11.27,174.73,12.86,178.26,11.18,180.36Z"/><path class="cls-11" d="M120.68,119.41c-3-1.27-6.41,2.5-9.18-.87.61-1.39,3.09-.84,3-2.92l2.78-.29c1.46-.13,3.18.72,4.19-1.11.34-1.09,1.19-1,2-.85,3.58,1.45,6.34-.14,8.93-2.39l11.08-2.54,6,0-26.06,9.87-1,.18Z"/><path class="cls-13" d="M313.56,206.4c5.32-4.24,10.59-8.53,13.4-15,5.6.13,4.22,5.83,6.73,8.43l-2.11.65c-1.79-1.88-2.32-.12-3.07,1C323.65,203.52,318.8,205.57,313.56,206.4Z"/><path class="cls-9" d="M277.46,46.4h-1.81c-1.05-6.17-2.18-12.31-6.86-17-.15-3.67,1.88-6.09,4.67-8.07,1.26,1.74-4,3.32-.12,5.12,4.2,4.47,3.54,10.57,5.32,15.85Z"/><path class="cls-3" d="M240.26,83.35c4.44-2.53,10.1-1.5,14.24-4.9l23-5.92.14,2.78-2.86.13-1.3,1h-.78c-1.31-.48-2.85-1.68-3.12,1l0,0c-.64.14-1.28.31-1.92.42C258.46,79.39,250.22,85.64,240.26,83.35Z"/><path class="cls-4" d="M449.53,5.48c.35,2.39,2.18,1.9,3.75,1.93l-1,1.93c-5.25-.6-10.43-.81-14.78,3h-3l0,.05-1-1a1.89,1.89,0,0,0-2.09,1.87l-1.82-.24c-3.41-2.39-5.9,2-9.09,1.24l0-1.65Z"/><path class="cls-8" d="M61.54,272.41l1.27-1.1c1.61-.07,3.37.68,4.73-.83l0-.07,1.2,0a4.75,4.75,0,0,1,.68,0c-.12,2.44,1.33,3.56,3.4,2.92,5.61-1.73,11.12.84,16.67.11l0,2.55-3,.18H85.51C77.27,276.52,69,276.93,61.54,272.41Z"/><path class="cls-9" d="M442.53,47.44c.9,2.92,2.84,2.15,4.7,1.25,6.79-3.29,14.88-2.64,21.34-7,.33-.23,1.35.55,2,.86l-1.85,3c-3.51-2-6.31.88-9.33,1.6-7.37,1.77-14.59,4.17-21.87,6.31l0,0c.39-2.48,2.27-4.35,2.08-7.28s.93,0,1.38.17A7.81,7.81,0,0,1,442.53,47.44Z"/><path class="cls-9" d="M500.53,147.33l-4-3c6.73-3.13,12.19-.87,17,4-2.2,1.43-6.12.81-6,5l-.18.18q-.41-.08-.81-.2a3,3,0,0,0-2.74-2.13l0-.14C503.72,149,502.81,147.58,500.53,147.33Z"/><path class="cls-11" d="M116.68,266.32c1.82,2.44-5.3,3.25-1.12,6.12l-13,3.07q0-.49,0-1c-1-1.64-2.66-1-4-1.29a5.14,5.14,0,0,0,0-.69c1.61-.67,3.82,1,5-1.29q0-.43,0-.86l0-1c4.36-.79,9.51.33,12-4.94Z"/><path class="cls-3" d="M468.28,149.4c1,2.94-.54,4.32-3.12,5-4.37,1.07-8.75,2.13-13.16,3-1.24.26-2.23.46-2.39,1.9h-3.05c.28-1.31-2.32-3.37,1-3.89,4.71-1,9.39-2.18,14.15-2.92a5.85,5.85,0,0,0,4.83-3.56Z"/><path class="cls-3" d="M420.61,12.64l0,1.65c.55,1.67-1.91,3.84.85,5.15q.1.48.23,1a5.48,5.48,0,0,0,0,.94c-6-2.31-9.84-.62-9.19,4-2.26-.1-4.45-.33-5-3.16l.8-.89A2.64,2.64,0,0,0,411.44,19C414.21,16.5,417,14,420.61,12.64Z"/><path class="cls-1" d="M268.78,29.38c4.69,4.71,5.81,10.85,6.86,17l-1.17,2.14C270.08,42.9,268.47,36.43,268.78,29.38Z"/><path class="cls-9" d="M501.58,17.41c1.42,2,1.16,5.73,5.17,5.13-.58,7.58-8.13,6.21-12.1,9.42q0-2.67,0-5.34c3.45-.8,7.13-1.34,6.59-6.31Z"/><path class="cls-11" d="M33.38,262.9c3.91-4.25,8.39-6.58,14.26-4.25a4,4,0,0,1-.08.66q0,.53,0,1.05v1c-2.72,1.91-7,.2-9,3.93Z"/><path class="cls-12" d="M466.55,148.94a5.85,5.85,0,0,1-4.83,3.56c-4.75.74-9.44,1.92-14.15,2.92l-1.22-1.23c4-2.9,8.87-3.12,13.27-4.77,2.26-.05,3.55-1.71,5-3Z"/><path class="cls-14" d="M2.49,189.38l1.08,7c-2.27,1.07-1.84,3.15-2.06,5.09-.84,7.31,1.2,14.16,3.06,21.06l-1.81,1.87C-1.17,212.75-.58,201.08,2.49,189.38Z"/><path class="cls-9" d="M355.33,18.42c1.39,2.3,2.48,5,6.07,4,.31,4.85-2.48,7.35-6.68,8.71-1.64.53-3.52.51-4.59,2.21l-1.6-1c.73-3.27,5.89-2.09,6-6l.83-4.1Z"/><path class="cls-5" d="M333.69,199.81c-2.51-2.6-1.13-8.3-6.73-8.43l-.46,0q.05-2,.11-4l2.9,0c-.2,2.9,1.77,3.08,3.87,3.09,1.21,4.16,3.22,7,8.14,4.71l1.24.37C340.76,199.2,336.7,198.39,333.69,199.81Z"/><path class="cls-3" d="M503.6,176.46l0,3.77-2,1.1c-.22-1.65-1.21-2.12-2.73-1.77l.75,2.85h0l-2,1.11.09,0-2.05,1.12.11-.07c-2.72-.69-5.92,2.79-8.28-1l10.1-6.12C499.42,176.25,501.51,176.36,503.6,176.46Z"/><path class="cls-3" d="M38.58,265.33c1.93-3.72,6.24-2,9-3.93l4,0c.63,2-8.66-.21-1.93,4.65,1,.75-.36,3-2.29,3.49Z"/><path class="cls-8" d="M282.59,15.5c3.2-2.62,7.24-2.18,10.94-3q0,.53,0,1.06-1.87,3.92,1.95,6c.46,3.09-2.16,2.64-3.81,3.26-.48.18-1,.54-1.23-.61-1.63-7.38-1.69-7.37-7.81-4.89Z"/><path class="cls-4" d="M295.42,59.34c1.54.16,3.25-.34,4.41,1.22-4.34,5.49-10.27,8.24-16.89,9.8C287.4,67,292.36,64.26,295.42,59.34Z"/><path class="cls-4" d="M293.5,13.57q0-.53,0-1.07L308.3,9.23l1.29,2.19h-.13c-3.1,2.14-8.48-.26-10,5C297.6,15.24,296.3,12.83,293.5,13.57Z"/><path class="cls-8" d="M88.53,123.49c-4.85,3.35-11,2.88-16.12,5.69-2,1.13-4.49,1.56-6.75,2.31l-1.26-1.39C72.17,126.92,79.92,123.65,88.53,123.49Z"/><path class="cls-6" d="M169.42,101.33l26.1-6.86c-1.76,3.14-5.87,1.5-8,3.93h0l-3.05,1a3.58,3.58,0,0,1-.88,0l-3.08,1a6.73,6.73,0,0,1-1,0l-3,1h0l-6.28.06A1.56,1.56,0,0,1,169.42,101.33Z"/><path class="cls-6" d="M114.52,115.62c.07,2.09-2.41,1.53-3,2.92l-14.85,4c-1.35.36-2.72,1.67-4.05,0C99.26,118.12,107.2,117.85,114.52,115.62Z"/><path class="cls-11" d="M373.53,185.32c5.27-4.39,11.68-4.61,18.07-4.93q0,.94,0,1.88Z"/><path class="cls-4" d="M282.59,15.5q0,.91,0,1.81c-4.76,1.28-1.22,4-1.07,6.14-3.67-1.58-6.62-1.17-8.2,3-3.91-1.8,1.39-3.38.12-5.12C275.89,18.42,279.24,17,282.59,15.5Z"/><path class="cls-12" d="M487.44,183.57c2.36,3.75,5.56.27,8.28,1-5.11,3-10.08,6.26-15.77,8.12-1.89-1.49-1.51-2.24.75-2.61,2.79-.46,5.26-1.42,5.8-4.71Z"/><path class="cls-6" d="M346.54,195.25c5.25-3.21,9.93-8.11,17.05-5.66Z"/><path class="cls-11" d="M187.54,98.41c2.11-2.43,6.22-.79,8-3.93,3.82-.49,7-3.37,11.06-2.94l-7,6C195.35,95.12,191.65,99.55,187.54,98.41Z"/><path class="cls-12" d="M453.55,203.31c3.87-5.86,10.4-5.46,16.17-6.85C465.36,201.17,459.16,201.55,453.55,203.31Z"/><path class="cls-9" d="M361.6,21.56c1.9-4.06-1.82-7.68-.91-11.66C368.09,13.74,368.25,15.77,361.6,21.56Z"/><path class="cls-9" d="M489.52,1.56l0-1c4.76-.39,9.76-1.91,13.41,2.88-2.31.11-6.33-2.07-4.6,3.43L496.69,6C495.44,2.65,492.82,1.54,489.52,1.56Z"/><path class="cls-6" d="M64.39,130.1l1.26,1.39c.06,2.24-1.48,4.05-3.2,3.53-3.37-1-6.25.45-9.34.7C56.25,132.61,60.18,131.07,64.39,130.1Z"/><path class="cls-4" d="M98.51,273.24c1.38.32,3.08-.35,4,1.29l-2,1.12L89.56,276q0-1.27,0-2.55l6.08-.13Z"/><path class="cls-3" d="M2.76,224.39l1.81-1.87c2.14,1,3.38,2.84,4.59,4.72-1.94.75-1.69,2.89-2.7,4.24A12.18,12.18,0,0,1,2.76,224.39Z"/><path class="cls-6" d="M217.5,233.32c1.86,3.34-2.1,3.61-2.91,5.54-1.26-1.11-1.84.5-2.77.7-1.7-.19-3.53-.13-4.29-2.18l.95-.1,2.06-1Z"/><path class="cls-4" d="M24.91,155.67l-1.76-.41c3.64-3.12,6.58-7.16,11.4-8.73l-.12,1.74,0,0a3.15,3.15,0,0,0-2.83,2.14Z"/><path class="cls-3" d="M391.58,182.27q0-.94,0-1.88.5,0,1,0c1.65-.37,3.56.54,5-1,2.23-1,2.23-1,2,3q-.11,4.13-.22,8.26c-.24-.75-.8-1.55-.68-2.23C399.75,182.37,397.35,180.42,391.58,182.27Z"/><path class="cls-9" d="M508.85,17.2c.47-3.55-2-6.4-2.32-9.76C512.42,9.48,511.7,13.08,508.85,17.2Z"/><path class="cls-11" d="M155.51,105.5l3.93-1.15,6.1,0c-3.7,2.2-7.79,2.86-12,3.06Z"/><path class="cls-8" d="M155.51,105.5l-2,1.94,0,0c-1.4.14-3-.34-4.05,1l0,0-6,0A23.94,23.94,0,0,1,155.51,105.5Z"/><path class="cls-3" d="M165.55,104.38l-6.1,0c3-2.16,6.57-2.27,10-3a1.56,1.56,0,0,0,.84.13l-4.74,2.93Z"/><path class="cls-3" d="M132.46,111c-2.59,2.25-5.35,3.84-8.93,2.39Z"/><path class="cls-12" d="M499.55,182.41l-.75-2.85c1.52-.35,2.51.12,2.73,1.77Z"/><path class="cls-6" d="M415.29,210.54c1.77-.06,3.6-.59,5.23.61C418.73,211.36,416.9,211.9,415.29,210.54Z"/><path class="cls-13" d="M307.59,208.47c.72-1.11,1.31-2.6,3-1C309.82,208.55,308.74,208.59,307.59,208.47Z"/><path class="cls-5" d="M328.51,201.51c.75-1.16,1.28-2.93,3.07-1Z"/><path class="cls-9" d="M411.44,19a2.64,2.64,0,0,1-3.17,2.27Z"/><path class="cls-6" d="M364.54,189.34c.24-1.15.67-2.09,2.13-1.86C366.51,188.73,366,189.61,364.54,189.34Z"/><path class="cls-3" d="M121.5,114.22c-1,1.83-2.73,1-4.19,1.11C118.37,113.7,120.08,114.53,121.5,114.22Z"/><path class="cls-15" d="M100.51,275.65l2-1.12q0,.49,0,1C101.92,276.1,101.25,276.38,100.51,275.65Z"/><path class="cls-12" d="M497.58,183.52l2-1.11Z"/><path class="cls-12" d="M495.62,184.59l2.05-1.12Z"/><path class="cls-7" d="M479.57,101.44l0-2.21C481,100,480.28,100.71,479.57,101.44Z"/><path class="cls-6" d="M52.69,135.83l.36.76-.69-.53Z"/><path class="cls-9" d="M506.68,22.61l.92-1.22Z"/><path class="cls-15" d="M85.51,276.14h0Z"/><path class="cls-9" d="M296.56,70.28,301.26,69c2.2.94,4.56,1.68,5.36,4.35-1,0-2.15-.32-3,.07-2.27,1.1-4.18-3.67-5.34-1-.84,1.93,2.19,4.15,4,6.06,2.9,3,6.55,5.66,7.22,10.44.29,2.05-1.52,5.6,1.54,5.82,1.61.11,3.56-3.27,5.17-5.24a11.12,11.12,0,0,0,1.24-3.12c.81,6,1.91,11.72,10.08,11.28,1-.05,2,1.11,3,1.71.53,2,2.75,3.49,2.14,5.94-2.24.55-3.65-1.27-5.49-1.9-1.33-.45-2.65-.95-4-1.42-.7,2.18,1.37,2.77,2.37,3.85,6.37,6.9,10.33,14.68,10,24.37-.06,2-1.58,5.49,1.71,5.82,2.93.29,6.29-.84,7.19-4.68,2.14,3.66,5.17,7.51-2.56,8.17-3.62.31-3.6,3.12-3.43,5.85-3.54,2.73-7.78,3.41-12,4.08,2.62-3.41-.9-1.89-1.76-2-7.73-1.09-15.48-2.05-23.22-3-2.75-1-5.5-2-8.25-3a100.43,100.43,0,0,1-35.77-22,8.4,8.4,0,0,1,7.81-3.91c5.24.53,8.31-3.33,11.21-6.06,7.92-7.45,10.12-18,13-28Zm17.87,26.63c-1.09-.31-1.78.16-1.69,1.09a2.85,2.85,0,0,0,2.67,2.87c.55,0,1.54-1.22,1.64-2C317.3,97,315.27,97.57,314.44,96.91Z"/><path class="cls-5" d="M412.58,52.37c3.76,1.78,7.6,3.27,11.88,3.09l-6.08,11.59c-3.72,4.9-6.81,10.59-14,11.17l-16.86,2.17c-.9-.33-1.78-.71-2.69-1-3.06-.87-10.46,2.21-5.42-6a2.73,2.73,0,0,0-.87-2.5c-1.1-.66-1.61.35-2,1.4-1.91,5.08-6.31,7.22-10.94,9-3.36-.26-6.85.91-10.08-.85,4.8-2.36,4.65-10.55,11.87-10.05h1.14l1,1,0,1.79,1.7,1.22,1.22,0,.47.39-.39-.48-1.06-1,0,0-2-2-1-1-1-1,0,0-1-1,0,0-1.32-1a7.41,7.41,0,0,1-8.48-2.27c-1.85-2.31,3.58-1.68,2.7-4.33,16.07-4.61,31.89-10.25,48.62-12.26C408.68,50.86,410.58,51.68,412.58,52.37Z"/><path class="cls-11" d="M407.55,155.33c-2.65-3.31-7.06-.63-10-2.93l.89-.76c-.12-.07-.25-.13-.37-.2-1.07-.67-5.68,2.24-2.34-3.18,1.41-2.29,4.11-6.51,2.78-10.57,13.41.1,26.81.37,39.89,3.88l1.13.85h0l1,1h0l1,1,0,0,1,1,0,0,1,1,0,0,1,1h0l0,1.11c-4.83,2.66-9.4,5.65-15.56,4.46-1.94-.37-5.15,1.32-6.4,3.06-1.38,1.93,2.9.62,2.87,2.72,0,.5.07,1,.11,1.49l-3.91.22C417.52,157.1,412.52,156.25,407.55,155.33Z"/><path class="cls-13" d="M408.54,98.34a5,5,0,0,0,4.25,6.2c1.49.22,5.47.27,5.17-3.78-.08-1,.86-1.46,1.72-1.25,10.23,2.5,21.11,1.64,31,6l-34.16,11.3-1.91-.14c-8,3.68-16.42,5.85-24.94,7.8-2.56-1.72-4.94-4-1.61-6.56,3.16-2.42,7-4,11.37-2,6.35,2.79,8,1.6,7.19-4.62l2.13-.81,1.07-.66-1.3-.35-1.94-.06v0l-1-1,0,0a1.84,1.84,0,0,0-2-2l0,0-1-1,0,0,0-1.1C404.23,102,404.31,98.09,408.54,98.34Zm20.94,8.4c-.18-1.61-.71-2.26-1.88-2.3s-2.83-.25-3.29,1.27c-.18.59.83,2.19,1.22,2.16A18,18,0,0,0,429.48,106.75Zm-14.81,2.75c1.92-.27,3.92.35,4.32-1.9.19-1.07-1-1.32-1.71-1.07a50.17,50.17,0,0,0-4.64,2.25Z"/><path class="cls-4" d="M338.54,145.39c-.17-2.73-.19-5.54,3.43-5.85,7.74-.65,4.7-4.51,2.56-8.17-1.16-7.44-2.25-14.89-5-22,5.49-1.34,9.21,5.43,14.88,3.23.16.53.59,1.45.45,1.55-5.79,4.07-1.25,11.13-4.61,15.89-.49.7-.39,2.07.52,2,2.76-.19,6.1,0,8.12-1.4,4.82-3.45,5.77-9.17,6.28-14.73.11-1.16-.84-3.43-1.45-3.48-9.32-.82-.1-7.17-3-10.08-.8-.81.71-2.75,2.52-2.89s2.57.76,3.26,2.39c5.19,12.16.46,23.38-4.9,33.54-2.17,4.12-9.68,5.55-14.91,7.86C344.15,144.4,341.27,144.71,338.54,145.39Z"/><path class="cls-3" d="M301.54,144.41c7.74,1,15.49,2,23.22,3,.86.12,4.38-1.4,1.76,2q0,1,0,1.91c-7.15,0-13.34,3.72-20.09,5.29-8,1.86-15.41,5.9-23.71,6.8-1.48-.41-3.24.63-4.51-.87a21.86,21.86,0,0,0,3.1-2.55c1.23-1.44,2.2-3.09,3.28-4.65,3.34-.4,7,1.16,10-1.72.77-.74,2.47-1,.46-2.15-1.13-.66-3.77.6-3.45-1.34.27-1.59,2.92-.81,4.46-.75C299.64,149.6,299.54,145.9,301.54,144.41Z"/><path class="cls-13" d="M367.4,70.41c-7.22-.5-7.07,7.69-11.87,10.05l-7-1.14c.46-2.91,1-5.82,1.37-8.74a3.09,3.09,0,0,0-.31-1.76,1.47,1.47,0,0,0-1.31.05c-4.35,5.95-10.81,2.81-16.29,3.67-1.63.26-2.09.29-1.47,1.84l-14.85-2.52,43.77-11.09c.88,2.66-4.55,2-2.7,4.33a7.41,7.41,0,0,0,8.48,2.27l1.32,1,0,0,1,1,0,0Zm-15.47-5.74c.29.12.61.37.8.29s.25-.48.36-.75c-.26-.11-.58-.38-.77-.3S352.06,64.39,351.93,64.67Z"/><path class="cls-5" d="M406.59,111.26c.82,6.22-.84,7.41-7.19,4.62-4.4-1.93-8.21-.37-11.37,2-3.32,2.54-.95,4.84,1.61,6.56-5.95,3.53-13,3.7-19.26,6.35-1.52.65-1.55-.37-1.08-1.57,1.66-4.31,3.27-8.63,4.9-13l2.35-.91h0c.8.21,1.58.46,2.39.63,4.83,1,6.9-.42,5.84-4a2.23,2.23,0,0,1,1.84-3,35.46,35.46,0,0,1,7.57-.81c3.08.12,6.35,4.64,9.42.14l2,.07,0,0,1,1,0,0Z"/><path class="cls-5" d="M392.36,94.38c-.33-3.26,2.51-3.65,4.44-4.54,5.55-2.56,11.22-4.86,16.84-7.26l3.9-.44,0,.3c-.9,1.63-.84,2.88,1.34,3.18s4.24.58,6.36.76c1.65.14,3.66-.12,4,2,.36,2.43-1.84,1.69-3.13,2l-28.51,8-2-.08,0,0-1-1,0,0-1-1,0,0Z"/><path class="cls-6" d="M311.58,45.44l1-5V40.4c10.65-.83,20.59-4.82,30.94-7l0,0c-.77,5.41-1.87,10.66-6.86,14-2.49.44-4.74-6.06-6.78-1-1.32,3.28-3.8,3.92-5.44,3.57C320,49.06,315.85,47,311.58,45.44Z"/><path class="cls-12" d="M339.51,109.43c2.77,7.07,3.87,14.52,5,22-.9,3.84-4.26,5-7.19,4.68-3.29-.33-1.77-3.82-1.71-5.82.28-9.68-3.68-17.47-10-24.37-1-1.08-3.07-1.67-2.37-3.85,1.33.48,2.64,1,4,1.42,1.83.63,3.25,2.45,5.49,1.9C336.51,104.12,336.71,108.95,339.51,109.43Z"/><path class="cls-2" d="M282.68,163.47c8.3-.91,15.71-4.94,23.71-6.8,6.76-1.57,12.95-5.26,20.09-5.29l5.34,1.32-4.3,2.58-50,15.21-1.93.08c-1.15-.74-3.29-1.55-3.25-2.21.11-1.69,2.27-.45,3.22-1.28a6.59,6.59,0,0,0,1-1.59C278.79,165.28,281.27,166,282.68,163.47Z"/><path class="cls-6" d="M425.51,160.25c0-.5-.12-1-.11-1.49,0-2.1-4.25-.8-2.87-2.72,1.25-1.74,4.46-3.43,6.4-3.06,6.16,1.19,10.73-1.81,15.57-4.47l1-.09,1,2,.42.2-.41-.22-1-2-1.05-1h0l-1-1,0,0-1-1,0,0-1-1,0,0-1-1h0l-1-1h0q0-.45.07-.9c6.72,2.52,14.51,2.33,20,7.9-4.4,1.66-9.32,1.88-13.27,4.78Z"/><path class="cls-13" d="M376.54,115.4l-2.35.91c.88-2.61-1.07-6,2.28-7.95,1.17-.2,2.64-.24,1.09-2a6.76,6.76,0,0,1,3.82-4.31c3.23,3.33,12.27,3.44,15.17.19l4,1.31.84.8,1.18,1,0,0,1,1,0,0,.06,1.94c-3.07,4.51-6.35,0-9.42-.14a35.46,35.46,0,0,0-7.57.81,2.23,2.23,0,0,0-1.84,3c1.07,3.62-1,5.07-5.84,4-.8-.17-1.59-.42-2.39-.63l-.39-.22Z"/><path class="cls-4" d="M330.55,99.4c-1-.6-2-1.76-3-1.71-8.17.43-9.27-5.26-10.08-11.28-2.49-3.47-3.75-7.91-7.93-10,6.88-.37,13.32,2.06,20,3.26.87.16,2.18.91,2.29,1.55.23,1.43-1.29.95-2.11,1.27a6.74,6.74,0,0,0-2.86,1.61c-1.33,1.72-2.11,5.23-3.83.16-.42-1.24-2.44-1.2-3.53-.37-1.33,1-.15,2.15.53,2.94,1,1.1,2.6,1.76,2.46,3.5-.32,4.09,1.55,4.43,4.77,3.09,1.6-.66,3.63-1.86,4.79.47C333.06,95.92,333,98.07,330.55,99.4Z"/><path class="cls-15" d="M398.5,137.69c1.33,4.06-1.37,8.28-2.78,10.57-3.34,5.42,1.27,2.51,2.34,3.18.12.07.25.13.37.2l-.89.76-16-1c-5.62-4.87-3.57-6.7,2.71-7.43,2.84-.33,5.56-1.64,5.32-5.41l5.93-.16,1-.69Z"/><path class="cls-12" d="M309.57,76.37c4.18,2.14,5.44,6.58,7.93,10a11.13,11.13,0,0,1-1.24,3.12c-1.6,2-3.56,5.36-5.17,5.24C308,94.56,309.84,91,309.55,89c-.66-4.78-4.32-7.42-7.22-10.44-1.83-1.91-4.86-4.13-4-6.06,1.15-2.67,3.07,2.1,5.34,1,.81-.39,2-.07,3-.07C308.5,73.5,308.85,75.12,309.57,76.37Z"/><path class="cls-13" d="M389.55,138.51c.24,3.77-2.48,5.08-5.32,5.41-6.28.73-8.33,2.57-2.71,7.43l-1.92.07-1.13,0-1.84,0-2.09-2.07c1.79-4.23-1.43-3-3.21-2.73-3.35.54-6.15,3.14-9.8,2.73l-2.09-4.73c8-3.56,16.55-4.62,25.16-5.39a12.93,12.93,0,0,0-2.4,1.42c-.38.35-3.09.55-.62,1.55,1.8.73,3.78-.44,5.22-1.85a5.09,5.09,0,0,0,.74-1.74Z"/><path class="cls-11" d="M311.58,45.44C315.85,47,320,49.06,324.44,50c1.64.35,4.12-.29,5.44-3.57,2-5.05,4.29,1.44,6.78,1-1.82,3.3-4.14,6-8,7-6.54-2.34-13.58.32-20.11-2Z"/><path class="cls-10" d="M359.44,144.67l2.09,4.73c-1.3.73-3,1.07-2.93,3.1l-17,4.76.95-6.81Z"/><path class="cls-13" d="M342.55,150.45l-.95,6.81-16.06,5.16a9.26,9.26,0,0,1,2-7.14l4.3-2.58Z"/><path class="cls-5" d="M396.55,102.29c-2.9,3.25-11.94,3.14-15.17-.19,2.36-4,5.12-7.47,10.28-7.77l1.89,2.08,0,0,1,1,0,0,1,1,0,0C395.21,99.86,395,101.31,396.55,102.29Z"/><path class="cls-5" d="M330.54,74.39c-.62-1.54-.16-1.58,1.47-1.84,5.48-.86,11.94,2.28,16.29-3.67a1.47,1.47,0,0,1,1.31-.05,3.09,3.09,0,0,1,.31,1.76c-.41,2.92-.9,5.83-1.37,8.74C342.1,79.33,336.44,76.43,330.54,74.39Z"/><path class="cls-15" d="M308.57,52.39c6.53,2.36,13.58-.3,20.11,2l-4.14,3.76c-4.12-1.58-8.38-1.87-12.38-.05-3,1.36-5.66,2.5-8.6.21Z"/><path class="cls-4" d="M417.54,82.14l-3.9.44c-1.51-4.78-6.66-1.85-9.24-4.36,7.17-.58,10.26-6.27,14-11.17,1.85,4.4-.24,8.84.12,13.25Z"/><path class="cls-13" d="M365.61,81.31c4.63-1.83,9-4,10.94-9,.39-1,.9-2.06,2-1.4a2.73,2.73,0,0,1,.87,2.5c-5,8.25,2.36,5.17,5.42,6,.91.26,1.8.64,2.69,1C380.27,81.87,372.94,81.5,365.61,81.31Z"/><path class="cls-12" d="M354.53,26.38c-.11,3.89-5.28,2.71-6,6l-5,1.06,0,0c.62-1.6-1.9-4.13,1.41-4.91S351.33,27.08,354.53,26.38Z"/><path class="cls-4" d="M412.58,52.37c-2-.69-3.9-1.51-4.51-3.85l1.47-.12,1,.72.23-.36-1.24-.35q0-2,0-4C412.49,46.33,417.55,47.44,412.58,52.37Z"/><path class="cls-15" d="M387.53,138.67a5.09,5.09,0,0,1-.74,1.74c-1.44,1.41-3.42,2.58-5.22,1.85-2.47-1,.23-1.2.62-1.55a12.93,12.93,0,0,1,2.4-1.42Z"/><path class="cls-4" d="M416.57,119.38c2.87-.2,3.62,1.72,4,4l0,0a4.31,4.31,0,0,1-4-4Z"/><path class="cls-4" d="M420.56,123.38c1.14.15,2.26.38,2.49,1.74,0,.23-.57.83-.79.79-1.36-.23-1.6-1.35-1.74-2.49Z"/><path class="cls-4" d="M414.58,116.69l1.91.14.08,2.55,0,0C414.76,119.3,414.49,118.12,414.58,116.69Z"/><path class="cls-4" d="M350.54,59.4q0-1,0-2h0l1.53,1.24-1.53.77Z"/><path class="cls-5" d="M377.56,106.41c1.55,1.72.08,1.75-1.09,2Z"/><path class="cls-8" d="M393.56,96.42l-1.89-2.08.7,0Z"/><path class="cls-4" d="M350.55,59.4l-1,.72-.24-.36,1.25-.37Z"/><path class="cls-4" d="M343.3,51l.12-.34a1.14,1.14,0,0,1,.37.15s-.07.21-.11.32Z"/><path class="cls-13" d="M452.6,105.27l.85-.06-.42.09Z"/><path class="cls-4" d="M349.55,56.4l1,1h0l-1-1Z"/><path class="cls-4" d="M349.54,56.4l-1-1h0l1,1Z"/><path class="cls-4" d="M347.55,54.39l1,1h0l-1-1Z"/><path class="cls-4" d="M347.54,54.41l-.37-.22.39.21Z"/><path class="cls-3" d="M439.59,141.51q0,.45-.07.9l-1.13-.85Z"/><path class="cls-11" d="M396.5,137.66l-1,.69Z"/><path class="cls-14" d="M21.54,194.4c.75-1.85,2.84-1.61,4.12-2.64l3.92-.69,1-.66,2.93.14,1.72,2.1,1.09,1.93a3.63,3.63,0,0,0,2.07,2.94,5.14,5.14,0,0,0,4.1,3.93l1,1,2,1c-.11,1.4.72,1.92,2,2.06l2,1,1,1a3.81,3.81,0,0,0,4,2c.72,1.2,1.86,1.1,3,1l2,1A51.52,51.52,0,0,0,85,215.76c10-.73,20.31-1.58,29.75-6.09a127.3,127.3,0,0,1-55.21,1.75l-2-1-3-1c-.8-1.7-2.26-2.1-4-2l-1-1-1.94-1.07a2,2,0,0,0-2.09-1.9l-2-1-1-1a5.39,5.39,0,0,0-3.82-4.15l-2.07-2.94-1-2-1-2.68,36.77-10.24,1.26.6c-4.6,1.55,1.34,5.86-1,6.36-7.77,1.63-7.71,10.06-12.92,13.7-.41.29-.44,1.12-.65,1.7.6.13,1.36.57,1.79.35,10.25-5.11,23-4.77,31.17-14.48,1.55-1.84,3.46-1.52,5,.54.87,1.17,2.32,1.87,3.18.16.64-1.26.82-3.15-1.18-3.69a53.15,53.15,0,0,0-6.81-1.17c-1.9-.25-4.68.67-5.22-1.71-.91-4-3.86-4-6.74-4.42a11.39,11.39,0,0,1,6.28-1.91c3.5,3.53,7.63-.93,11.26.9,10.83,14.11,25.33,21.71,42.77,24.11-2.64,3.16-7.33,2.08-10.13,4.89-1.37.13-2.89-.27-3.9,1.11-1.12,0-2.28-.2-3,1-1.9-.05-3.78,0-5.33,1.7a5.22,5.22,0,0,0,5.39-1.64c1.09,0,2.3.24,3-1,1.42,0,2.95.45,4.06-.92a27.33,27.33,0,0,0,11.92-3.83l8-.09c17.76,2.38,34.7-.81,51.1-7.59,10-2.88,20.05-5.59,30-8.69,10.25-3.2,20.27-7.2,30.89-9.17l.06,1.3c-4.66.12-3.77,3.62-3.93,6.47Q216.33,197.3,175,210.68a35,35,0,0,1-5.36.87c-3.89-4.29-8-7.19-13.49-2.32-1,.91-2.07.55-3.22.6-8.59.37-17.41.5-25.32,3.95-5.56,2.42-13.47,1.53-15.89,9.57-.42,1.4-2.06.36-3.37.1-4.88-.94-11.63-5.88-12.29,4.67-.08,1.32-1.23.95-1.77.3-3.31-4-6.52-1.5-9.78,0-.87.41-1.85,2.57-2.68.83-2.72-5.7-4.64.43-6.64.14-3.14-.46,1.18-6.07-3.58-6.5-1.63-.15-3.78-1.66-4.72-1-4.22,2.76-8,.26-11.71-.71-5.86-1.54-13.62-.55-15.26-9.36-.27-1.44-2.1-1.33-3.44-1.44-1-.08-2.6.37-2.53-1.5.14-3.83-1.19-1.78-2.6-.8-1.08.74-.3,4.37-3,2.29-1.7-1.3-1.94-3.18-.4-5.26.89-1.2,1.12-4.44-.53-4C20.37,202.85,22.72,197.23,21.54,194.4Zm33.25,8.14c-.13-.38-.22-.87-.3-.87a7.36,7.36,0,0,0-1.3.24l.33,1.09Z"/><path class="cls-1" d="M85.54,175.38a11.37,11.37,0,0,0-6.27,1.92l-7.83,2.05L34.66,189.58c-1.57-1.08-.87.53-1.15,1l-2.93-.14-1,.66-3.92.69-1.09-2.23,1-1.1c1.82-2.16,5.86.77,7-3l.93,0c.19,2,1.46,1.23,2.49.92q13.3-4,26.58-8c6.4-1.73,12.81-3.44,19.2-5.19,11.3-3.1,11.29-3.11,10.88-14.82l.05-1.92.74-4c5.72-8.7-3.58-12.78-5.85-19q0-.47,0-.93c1.15-1.86-3.39-5.54,1.19-5.79,3-.16,6.76,1.13,6.38,6.22a7.57,7.57,0,0,0,3,5.93c2.53,1.51,2.76-1.94,3.88-3.29,5.33-6.41,11.89-11.39,18.65-16.13l1.85-1a4.69,4.69,0,0,0,1-.18l26.06-9.87,0,0c1.4-.15,3,.31,4.05-1l0,0c4.21-.2,8.29-.86,12-3.06l0,0c3.85-.33,7.63-.93,11-3h0c1.09,0,2.28.19,3-1a6.77,6.77,0,0,0,1,0l3.08-1a3.58,3.58,0,0,0,.88,0l3.05-1h0c4.11,1.15,7.81-3.29,12-.88-6,4.31-11,9.39-13.12,16.72a3.21,3.21,0,0,1-.88-.06c0-2.37-.69-2.75-2.36-.87-4.75,5.34-8.2,11.14-8.8,18.58-.47,5.88,0,11.17,4.44,15.48l.72.83,1,2.19h0a5.73,5.73,0,0,0,5,5l0,0a1.82,1.82,0,0,0,2,2l0,0a1.9,1.9,0,0,0,2.15,2c13.19,4.26,25.43,12.39,40.27,10,2.68-.43,6.48,1.5,7.84-1.11,1.59-3.05-4.1-2-4.29-4.84l3,0,1,0,1,.95,2,0c2.5,2,5.47.53,8.16,1.07,3.41.68,7.13,2.71,7.73-3.58.14-1.46,2.84-3,5.81-1.51,4.5,2.31,9.07,4.85,14.37,5.12a6.62,6.62,0,0,1-1,1.59c-1,.83-3.11-.41-3.22,1.28,0,.66,2.1,1.47,3.25,2.21l-14.14,5.53c-10.62,2-20.63,6-30.89,9.17-9.93,3.1-20,5.81-30,8.69-3.86-4.82-8.65-2.74-13.05-1.43-3.58,1.07-6.6,1.49-9-2l7.05-3a6.83,6.83,0,0,0,8-2.27l.26-.07.26.09c4.6.11,9-.41,12.42-4l.31-.09.31,0c2.14-.55,5.19,1.76,6.31-2l0,0,1.15,0c1.54-.45,3.3-.5,4.11-2.27a29.88,29.88,0,0,0-3.92-1.54,135.33,135.33,0,0,1-25.14-9.28l-6-3.91c-4.79-5.07-8.84-12.59-17.13-10.53-15.54,3.87-30.79,8.88-46.17,13.42l-4.79,1.21-2.12.79a27.51,27.51,0,0,0-10.17,3c-6.45,3.37.5,4.81,1,7.18.4,3,3.83,2.88,5.1,5,1.44,2.22,3.94,2.84,6.06,4,1.73.94,3.4,2,5.18,2.79,11.78,5.29,24.34,5.33,36.9,5.41-.07,1.94-2.36,1.44-3,2.75h0l-12.94,3-2,0c-17.44-2.4-31.94-10-42.77-24.11C93.66,168.35,89.36,174.87,85.54,175.38Zm48-54.9h0c-3.89-.15-7.43,1.16-10.87,2.75-.69.32-2.25-.53-1.94,1.08.1.54,1.32.87,2,1.29-3.21,2.33-6.61,4.44-9.6,7-9,7.78-16.53,16.41-15.69,29.44.27,4.18,1.14,6.47,6.57,4.77,18.05-5.65,36.3-10.68,54.47-15.93,11.71-3.38,12.79-5.24,10-17.55A37.91,37.91,0,0,1,179,111.32c.67-.69,1.77-2,1.61-2.25-1-1.21-2,0-3,.27q-16.34,4-32.66,8.16C140.75,117.06,136.74,117.17,133.58,120.48ZM225,179c1.51,0,1.06-.89,1.07-1.67,0-2.29-1.75-3.06-3.36-3.48-1.2-.31-1.38,1.32-1.34,2.14C221.49,178.3,224.21,177.59,225,179Zm3.9-4.06-.62-.2.1.35Z"/><path class="cls-10" d="M9.16,227.24c-1.21-1.88-2.46-3.74-4.59-4.72-1.86-6.9-3.9-13.75-3.06-21.06.22-1.94-.21-4,2.06-5.09.3.14.6.27.89.43,3.23,1.75,6.23-2.09,9.46-.37-1.78,2.89-4.41,5.27-5.11,8.83-1,4.93-3.14,9.94,1.5,14.26l.79,1.13c5.38,10.26,15,15.73,25,19.39,27.63,10.05,55.54,9.29,83.44.22q76.1-24.73,152.31-49.12c4.9-1.58,9.81-3.13,14.71-4.69l2,5.87-13.08,4.86-1.87.38-20.13,6.77-24.14,7.95-9.77,3.08q-29.35,9.45-58.7,18.89c-26.28,8.43-52,19-80.26,19.48-6.88-1-13.87,1.18-20.73-.73-.33-.09-.94.81-1.42,1.26a1.56,1.56,0,0,1-.82.13c-.27-1.85-.93-3.24-3.2-2.73l-2.81-.14c-12.27-2.86-23.58-7.77-33.32-15.89C15.1,233,12.19,230,9.16,227.24Z"/><path class="cls-10" d="M21.54,194.4c1.18,2.83-1.17,8.45,5.86,6.68,1.65-.41,1.42,2.83.53,4-1.54,2.08-1.3,4,.4,5.26,2.74,2.09,2-1.55,3-2.29,1.41-1,2.75-3,2.6.8-.07,1.87,1.48,1.41,2.53,1.5,1.34.11,3.17,0,3.44,1.44,1.64,8.81,9.4,7.82,15.26,9.36,3.67,1,7.49,3.46,11.71.71.93-.61,3.09.9,4.72,1,4.76.43.44,6,3.58,6.5,2,.29,3.92-5.84,6.64-.14.83,1.74,1.81-.42,2.68-.83,3.26-1.54,6.47-4,9.78,0,.54.64,1.69,1,1.77-.3.66-10.55,7.41-5.61,12.29-4.67,1.31.25,2.95,1.29,3.37-.1,2.43-8,10.33-7.15,15.89-9.57,7.91-3.45,16.73-3.58,25.32-3.95,1.15,0,2.2.31,3.22-.6,5.45-4.87,9.6-2,13.49,2.32-13.33,6-27.7,9-41.4,14-19.2,7-38.8,11.49-59.4,9.8-15.78-1.29-30.72-5.18-43.56-15a27.37,27.37,0,0,1-7.88-8.88c1.69-1.67,2.94-3.56,2.77-6.06,0-.16-.51-.28-.78-.42-.85,1.72-1.7,3.45-2.56,5.17-.07.14-.24.23-.36.34C12.39,204,14.33,197.88,21.54,194.4Z"/><path class="cls-14" d="M288.52,192.32l-2-5.87c11.94-4,23.83-8.14,35.84-11.92,10.71-3.37,21.1-7.8,32.23-9.77q0,3.06,0,6.13l-15.12,6.45-9,3c-2.75.74-6,.19-7.93,3a26.24,26.24,0,0,0-4.93.45C307.91,186.6,298.22,189.48,288.52,192.32Z"/><path class="cls-14" d="M32.53,185.4c-1.1,3.8-5.14.88-7,3-1.86-1.53-3.45-3.76-6.4-1.91-.73.46-2.41.76-2.66.41-1.3-1.8,1.17-1.29,1.56-2.18.65-1.49,1.37-3,2.07-4.42-.42-.14-1.05-.53-1.22-.38-2.25,2-5.13.28-7.51,1.38a2.38,2.38,0,0,0-.22-1c1.68-2.1.1-5.63,3.15-7.12.78,1.13-.67,4.44,1.87,3.34,2-.85,6.16-2.48,4.54-5.66-1.87-3.68-.19-4.55,2.36-5.94,3.11-1.7,7.75-3.4,7.8-6.72.13-8.88,6.66-.08,8.88-3.75,1.2-2,1.94,1,2.79,1.93l0,2,0-.05-1,1,0,0-1,2.05,0-.05c-2.3.38-2.71,2.17-3,4l0,0C32.87,171.3,32.13,178.21,32.53,185.4Z"/><path class="cls-14" d="M327.53,155.28a9.26,9.26,0,0,0-2,7.14c-17.16,5.92-34.35,11.76-52,16.25,0-3.39,2.36-5.59,4-8.18Z"/><path class="cls-10" d="M354.62,170.89q0-3.07,0-6.13l3.83-.9c1.07,2.07,1.67,1.37,2.1-.35,15.8-3.78,31.73-4,47.75-1.78l6.08,1.73L413,165.6c-2.27,1-3.3,4.27-6.51,3.53C389,164.69,371.78,166.58,354.62,170.89Z"/><path class="cls-10" d="M11.4,181.33c2.37-1.1,5.26.59,7.51-1.38.17-.15.8.24,1.22.38-.69,1.47-1.42,2.93-2.07,4.42-.39.89-2.86.38-1.56,2.18.25.35,1.93.05,2.66-.41,3-1.85,4.54.38,6.4,1.91l-1,1.1-4.19,1.11c-3,.78-6.55,2.29-8.79-.14S10.08,184.44,11.4,181.33Z"/><path class="cls-1" d="M414.39,163.45l-6.08-1.73c2.35-2.44-.19-4.3-.77-6.39,5,.92,10,1.77,14,5.14Z"/><path class="cls-10" d="M257.61,183.88c.16-2.86-.72-6.35,3.93-6.47l2,0,.83,1.49,1.22-1.53c3.09-2.4,4.56,0,6.13,2.08h-.07l-1,.8Z"/><path class="cls-13" d="M271.67,179.48c-1.58-2.07-3-4.48-6.13-2.08l-2,0-2,0-.06-1.3,14.14-5.54,1.93-.08c-1.61,2.59-4,4.79-4,8.18Z"/><path class="cls-14" d="M358.6,152.5c-.08-2,1.63-2.38,2.93-3.1,3.64.41,6.45-2.19,9.8-2.73,1.78-.29,5-1.5,3.21,2.73-2.15,0-4.41-.26-5.1,2.6Z"/><path class="cls-5" d="M369.44,152c.68-2.86,2.95-2.61,5.1-2.6l2.09,2.07C374.33,153,371.86,152.25,369.44,152Z"/><path class="cls-1" d="M11.1,220.65l-.79-1.13a2.94,2.94,0,0,0,.42-.27c1.44-1.29,2-3.52,4.17-4a1.63,1.63,0,0,1,.54,1.12C14.93,218.74,13.28,220,11.1,220.65Z"/><path class="cls-14" d="M16.5,210.46c.12-.11.29-.2.36-.34.86-1.72,1.71-3.44,2.56-5.17.27.14.77.26.78.42.16,2.5-1.08,4.39-2.77,6.06Z"/><path class="cls-14" d="M360.56,163.5c-.43,1.72-1,2.43-2.1.35Z"/><path class="cls-5" d="M378.47,151.44l1.13,0Z"/><path class="cls-13" d="M270.56,180.29l1-.8Z"/><path class="cls-15" d="M421.64,20.4q-.12-.48-.23-1a3.64,3.64,0,0,1,4.13,0c6.95,4.22,10.65,3.41,15-3.12l.9.1,10.06,15c-2.69,6.53-5.34,0-8,0a7,7,0,0,1,0-.93l-.92-1.09a5.73,5.73,0,0,0-.92-.13c-.58-1.66.93-4.74-1.41-4.76-1.37,0-.58,3.39-.52,5.27,0,.57.57,1.11.87,1.67l0,9.12c-2.73-.43-6.92,1.67-6.45-4.41-.9,4,1.09,9.11-5.4,9.06-.74-3.59.88-7.44-1.14-10.9q0-.44,0-.88c.06-2.23-.13-4.38-1.93-6l0-.09c.44-2.71-2.08-3.89-3-5.88Z"/><path class="cls-1" d="M489.59,28.38c-5.16,2.14-11,2-15.93,5-6,.41-12.07,3.91-18.05-.15,2.33-3.66,6-4.05,9.81-3.83s6.33-1.32,7.18-5.18l8,2.14c1.42,1.58,3.21.87,4.9.79l1.85-.06Z"/><path class="cls-11" d="M455.61,33.24c6,4.06,12,.56,18,.15-9.66,4.12-19.43,7.81-30.14,8q0-1.94.06-3.88c.12-.12.35-.26.33-.34a4.25,4.25,0,0,0-.33-.79l0-5c2.67,0,5.33,6.55,8,0Z"/><path class="cls-4" d="M427.57,34.31c2,3.46.4,7.3,1.14,10.9l-1.15,3.21c-2.42,2.91-5.67,4.17-9,2.47-2-1-1.56-3.63,0-5.5,7.61,1.51,10.27-1.86,9-9.13A11.88,11.88,0,0,1,427.57,34.31Z"/><path class="cls-6" d="M489.59,28.38,487.4,27.1c0-1.51-1.59-3.37,1.77-3.81,4.09-.53,8.06-1.95,12.09-3,.54,5-3.14,5.51-6.59,6.31C492.44,25.66,491.44,28.24,489.59,28.38Z"/><path class="cls-8" d="M443.54,31.4q0,2.48,0,5,0,.56,0,1.13,0,1.94-.06,3.88l-3-.82q0-4.56,0-9.12l1.06-2.18a5.72,5.72,0,0,1,.92.13l.92,1.09A7,7,0,0,0,443.54,31.4Z"/><path class="cls-9" d="M437.55,53.41l-.24.4.22-.42Z"/><path class="cls-9" d="M415.72,195.35c0,1.32-.08,2.64-.1,4,0,2.16,2.48,5.64-1.65,5.83-2.95.14-6.5-1.88-6.26-5.59.28-4.3-3.18-7.68-2.23-11.89.63-2.78-5.56-1.49-3-5.25l1-3.05,4,1C411.58,184.67,415,189.26,415.72,195.35Z"/><path class="cls-7" d="M341.52,195.23c-4.93,2.25-6.93-.55-8.14-4.71.73-4.16,1.36-8.38,5.13-11.15Z"/><path class="cls-8" d="M338.5,179.37c-3.77,2.77-4.39,7-5.13,11.15-2.1,0-4.07-.19-3.87-3.09l1-7.07,9-3Z"/><path class="cls-1" d="M407.54,180.41l-4-1q0-1,0-2l2-1,1-1c1.91-1.49,2.91-4.33,6-4l1,1.1C412.5,175.83,412.23,179.79,407.54,180.41Z"/><path class="cls-9" d="M412.56,171.37c-3.1-.28-4.1,2.56-6,4l-1,1-2,1c-2.58-4,3.71-4.86,2.93-8.23,3.21.74,4.24-2.53,6.51-3.53l.66.89Z"/><path class="cls-11" d="M397.55,179.38c-1.4,1.56-3.31.65-5,1C394,178.77,395.89,179.66,397.55,179.38Z"/><path class="cls-13" d="M42.56,156.44c-.85-.9-1.59-3.91-2.79-1.93-2.21,3.67-8.75-5.14-8.88,3.75,0,3.31-4.69,5-7.8,6.72-2.55,1.39-4.22,2.26-2.36,5.94,1.62,3.18-2.57,4.81-4.54,5.66-2.55,1.1-1.1-2.21-1.87-3.34l.09.07,1.66-1-1.41-.87,10.24-15.75,6.72-5.23c1.46,0,2.9-.09,2.83-2.14l0,0c4.34-.84,7.4-4.12,11.22-6,4.46-2.16,10.44,0,11.83,4.62.44,1.47.41,3.31,2.42,3.07,2.5-.29,6-.33,7.11-1.88,1.22-1.71.23-5,.14-7.62a6.34,6.34,0,0,0-1.25-.17c-1-.12-1.94,3-2.91.31-.54-1.5.79-2.76,2.21-3.49s2.8-.91,3.39,1.24c1.15,4.23,6,3.08,8.64,4.47,5.56,2.93,10,7.89,16.18,9.58l-.74,4c-2.92-.66-5,1.34-7.29,2.44-.11.05.08.77.14,1.17l6.62-1.63a4.54,4.54,0,0,1,.49-.07c.42,11.71.42,11.72-10.88,14.82-6.4,1.75-12.8,3.46-19.2,5.19-2.31-1.88-4.64-.69-7-.18-1.07.23-2.75,2-3.31.05-.48-1.63,1.58-1.62,2.83-1.93,5.22-1.33,9.75-3,8-10.13-.35-1.44,1.69-3.08,3.53-2.54,4.1,1.2,4.62-3.73,4.41-4-2.37-3.62.6-4.36,2.64-5.66,1.15-.73,2.42-1.51,1.46-3.12-1.18-2-2.38-.69-3.71,0s-2.85,1.61-4.11,1.4c-6.47-1.09-7.09,2.15-5.72,7.15-.09,1.9-4.46-.44-3,3-3.69,3.1-9.39,3.7-12.21,6.73-3.48,3.74-6.44,6.83-11.6,7.28l2.8-11,0,0c2.44-.27,2.54-2.3,3-4l0,.05,1-2.05,0,0,1-1,0,.05,1-2a1.3,1.3,0,0,0,.36-.13c.06,0,.06-.17.09-.26l-.44.39Q43.05,156.41,42.56,156.44Zm6-4a5,5,0,0,0,5.29-2.75c.09-.15-.48-1-.68-1a5.84,5.84,0,0,0-4.6,3.17,1.43,1.43,0,0,0-.07.49l-.41.45Z"/><path class="cls-8" d="M76.62,137.39l-1.31-.56a7.43,7.43,0,0,1,1.79-1.26c.41-.14,1,.28,1.52.45Z"/><path class="cls-8" d="M87.58,132.47q0,.47,0,.93c-.83,1-2.79,1.39-2.86.68C84.54,132.58,86.38,132.69,87.58,132.47Z"/><path class="cls-8" d="M82,135a2.35,2.35,0,0,1-.58.15s-.07-.23-.11-.35Z"/><path class="cls-4" d="M288.52,192.32c9.7-2.84,19.39-5.71,29.12-8.46a26.25,26.25,0,0,1,4.93-.45l4,4q-.05,2-.11,4c-10.13-5.72-18.55,1.95-27.77,3.46-8.61,1.41-15.74,6.75-24.15,8.55l-.05-.05c-.67-1.92,2.38-1.27,2-3l-1-1.15-.13-2.08Z"/><path class="cls-4" d="M274.57,203.42c-.68,3.32,4.55,6.66,0,10-1.73,0-2.91-2.78-5-1l0-3,.09-1,.89-1.84.9-1.05,3.11-2.08Z"/><path class="cls-9" d="M269.55,212.38c2.09-1.77,3.27,1,5,1l1.14,2c-1.09,1.21-2.8-.82-4,.94-.87,1.25-2.51,2-3.8,2.93l-.24-4.8.94-1.1Z"/><path class="cls-11" d="M401.38,104.4l-.84-.81c.09-2.34-1.49-3.7-3-5.13l28.51-8c1.28-.36,3.49.38,3.13-2-.32-2.17-2.33-1.91-4-2-2.13-.18-4.25-.47-6.36-.76s-2.24-1.55-1.34-3.18A96.27,96.27,0,0,1,434.47,85c7.18,1.6-3.53,3-.92,5.39l-25,8c-4.23-.25-4.31,3.65-6,6Z"/><path class="cls-12" d="M208.48,237.28l-.94.1c-3.45,1.84-7.17-1.67-11.51,2.28-3.53,3.21-9.47,8.35-16.34,5.06-1-.47-1.06-.08-1.23.61-1.54,6.22-7.07,3.84-10.92,5.07h0l-1-.95,0-1c-8.84-.89-17.7-1.89-25,5a28.52,28.52,0,0,0-15,7,15.31,15.31,0,0,0-8.08,2c-2.33-1.68-6.67-3-1-6,1.47,1.34,3,3,3.1-.84a23.22,23.22,0,0,1,2.8-1c1.83-.38,4,.15,5.25-1.81-1.88-.46-3.75-1.26-5.64-1.32-3.69-.12-.42-1.38-.44-2.07l0,0c1.73-.11,3.61.54,5-1l0,0,3-1,0,0a9.8,9.8,0,0,0,6-2l0,0c1.11,0,2.31.2,3-1h0c1.37.24,3-.67,4,1l-3,1-3,1-2.14.44c.08.13.22.38.25.37.63-.26,1.26-.54,1.88-.82,1.11,0,2.3.23,3-1,1.11,0,2.32.28,3-1,14.06-1.84,26.7-7.31,38.49-15l.17,0a10.41,10.41,0,0,0,6.39-2.05l-.06,0,3.06-1-.06,0,3.05-1,0,0,3-1,0,0a10,10,0,0,0,6-2l-.05,0,2-.05h2.06l3,1,1,3-5,2-1.29.72,1.27.24,1,.08h0Zm-11.73-2.19a10,10,0,0,0-1.73.15c-.26.08-.46.36-.68.55.33.15.69.48,1,.42S195.95,235.75,196.75,235.09ZM188,238.4l.83-.45c-.26-.16-.52-.43-.79-.44s-.55.25-.83.38Zm-55.2,13.44c-.31-.15-.58-.39-.85-.38s-.53.27-.79.42c.27.14.54.38.81.38S132.54,252,132.84,251.84Zm75.09-25c-.3-.15-.58-.38-.84-.37s-.53.27-.79.42c.27.13.54.38.8.37S207.63,227,207.93,226.86ZM191.6,237.2l.36-.26-.31-.32-.46.44Z"/><path class="cls-11" d="M141.55,253.4c7.31-6.85,16.17-5.85,25-5-1.33,0-2.16.47-2.08,1.95-5.3-1-5.83,6.67-10.94,6l-.34-.24.37.22c0,1.31-.63,2-2,2-.39-1.64-.59-3.4-3.09-4.57l2,4.45-4.9-1.87.23-.37-.2.39-3-1h0l-1-2Zm13.4-1.27a1.21,1.21,0,0,0-.12.4s.21.09.32.13a1.17,1.17,0,0,0,.12-.4S155.06,252.18,155,252.13Zm-3,1.64.2-.64-.36.1Z"/><path class="cls-11" d="M126.57,260.42a28.52,28.52,0,0,1,15-7l0,0,1,2h0c.15,1.56,0,2.92-2,3-.24-.34.45-1.3-.69-1l.72,1c-.15,2.89-1.27,2.9-3,1-.23-.34.45-1.29-.68-1l.72,1c-.28,3.09-2,4.33-5,4l-.36-.25.39.22c-2,.78-4,7-6,0h0l2.46-1-2.48-2.06Zm4.72,0-.2-.38c-.09.11-.24.21-.25.33s.12.25.18.38Z"/><path class="cls-9" d="M117.5,256.39c-5.69,3-1.35,4.34,1,6l1,2c.89,3.41-1.83,1.34-2.83,1.87l-1.14-1.87c-.7-1.3-1-2.94-3-3.06l-1-.25q0-.37,0-.74c.19-1.81-1-1.29-2-1.18-.29-1.28.57-3.63-1.41-3.47-2.22.18.1,2.37-.65,3.5l-2-.79-1.95-3.88,5-1.26,9,2.06Z"/><path class="cls-11" d="M119.51,264.45l-1-2a15.31,15.31,0,0,1,8.08-2l0,0,0,3h0c-.16,0-.46,0-.47.07C124.76,269.78,122,266.3,119.51,264.45Z"/><path class="cls-6" d="M150.43,258.26l-2-4.45c2.5,1.17,2.7,2.93,3.09,4.57Z"/><path class="cls-9" d="M164.47,250.39c-.08-1.48.75-2,2.08-1.95l0,1q0,.45,0,.91l-.06.07Z"/><path class="cls-9" d="M167.54,250.4l-1,0,.06-.06,1,0Z"/><path class="cls-15" d="M53.55,254.49q0,.47,0,.95l-5,0,1.16-1.12Z"/><path class="cls-12" d="M48.54,255.4l5,0-2,1h-3Z"/><path class="cls-12" d="M53.55,254.49l-3.85-.21,1-1,2.8.1Z"/><path class="cls-14" d="M47.57,259.31a4,4,0,0,0,.08-.66l.93-.28,3,0q0,.47,0,.95Z"/><path class="cls-12" d="M51.58,251.51l2.81.14-.89.79-1.9-.09A2.36,2.36,0,0,1,51.58,251.51Z"/><path class="cls-9" d="M44.55,253.43q1.47-1.86,3-.05Z"/><path class="cls-13" d="M51.6,252.35l1.9.09a4,4,0,0,1,0,1l-2.8-.1Z"/><path class="cls-15" d="M44.55,253.43l3-.05C46.57,254.66,45.57,254.61,44.55,253.43Z"/><path class="cls-15" d="M48.54,256.4h3q0,.52,0,1l-3,0Z"/><path class="cls-12" d="M48.54,257.41l3,0a4.55,4.55,0,0,1,0,1l-3,0A4.44,4.44,0,0,1,48.54,257.41Z"/><path class="cls-2" d="M427.57,34.31a11.88,11.88,0,0,0,0,1.95c1.26,7.27-1.4,10.63-9,9.13l0-2,0-2c0-5.58-2.14-10.46-5.11-15l-.81-.85-.17-.13c-.65-4.64,3.22-6.34,9.19-4l0,0c.87,2.28,1.15,5,4,5.94l0,.09c-.22,2.28.07,4.4,1.93,6Q427.57,33.87,427.57,34.31Z"/><path class="cls-4" d="M418.52,41.39l0,2C417.58,42.74,417.59,42.07,418.52,41.39Z"/><path class="cls-3" d="M412.6,25.5l.81.85Z"/><path class="cls-12" d="M231.48,222.53c0,1.39.48,2.91-1,3.92-1-.25-2.76-.32-2.87-.78-.91-3.84-.75-3.66-4.44-2.59-3.05.89-4.81,3.07-6.66,5.3l0,0-3,1,0,0h-3l0,0,2-2c.26-.78-.11-2.79.92-2.11,4.29,2.83,1.06-1.72,2.07-1.95l2.92-2.9,12.1-1.05Z"/><path class="cls-6" d="M216.51,228.39c1.84-2.23,3.6-4.41,6.66-5.3,3.69-1.07,3.53-1.26,4.44,2.59.11.46,1.87.53,2.87.78l-1,2a9.61,9.61,0,0,0-1,.17c-3.33-.1-6.64-1.65-10-.13Z"/><path class="cls-6" d="M245.55,225.39l-.87,2.6c-1.39-1.58-4.5,2.42-5.13-1.59v0l-1-2-.1-.1.11-1.94,0,0,2-1h4l1,1,3,0c.24,2.24-.8,3.21-3,3l-.35-.23Z"/><path class="cls-12" d="M217.5,233.32l-7,3-3-5.94h0c.74-1.17,1.92-1,3-1l0,0c1,1.31,2,1.39,3,0l0,0,3,0Z"/><path class="cls-7" d="M228.56,228.58a9.61,9.61,0,0,1,1-.17c2,7.2-3.1,5.88-7.07,5.92a3.65,3.65,0,0,0,.08-.93C221.82,228.4,227.73,231.66,228.56,228.58Z"/><path class="cls-12" d="M228.56,228.58c-.84,3.08-6.74-.18-6,4.83l-1.06-.13-2-.83c-1.35-1.1-.87-2.6-.91-4C221.92,226.93,225.23,228.48,228.56,228.58Z"/><path class="cls-6" d="M231.48,222.53l-.93-3.13,2-.95,2.88-.08c2,0,2.39,1.68,3.11,3v1l0,0-6,.1Z"/><path class="cls-6" d="M263.59,218.32c-4.12,3-5.85-.6-8-2.92h0l0-1,0,0h3l0,0c1.06,1.51,2.66.86,4.06,1Z"/><path class="cls-6" d="M239.55,226.41c-1.93,3-4.16,5.14-8,3,2.7-1.17,3.48-4.94,6.91-5.1l.1.1,1,2Z"/><path class="cls-12" d="M238.46,224.32c-3.44.17-4.21,3.94-6.91,5.1l1-6.94,6-.1Z"/><path class="cls-11" d="M263.59,218.32l-1-2.91,1.94-2,1,.18q0,.39,0,.77C264.68,215.58,267.43,218.55,263.59,218.32Z"/><path class="cls-6" d="M255.54,217.4c.06,5-3.74.31-5,2h0q0-.5,0-1l2-1Z"/><path class="cls-12" d="M248.54,222.39l-3,0,0-1,2-1h3a7,7,0,0,1,0,.91l-2,1.09Z"/><path class="cls-6" d="M221.46,233.27l1.06.13a3.66,3.66,0,0,1-.08.93c-1.09,0-2.25.24-2.9-1Z"/><path class="cls-6" d="M255.54,215.4q0,.5,0,1h-3l0-1-.05,0,3,0Z"/><path class="cls-12" d="M252.52,216.4h3v1h-3v-1Z"/><path class="cls-6" d="M250.54,220.4h-3q0-.5,0-1h3Q250.54,219.9,250.54,220.4Z"/><path class="cls-6" d="M248.51,222.39l2-1.09C250.75,223.33,249.17,222,248.51,222.39Z"/><path class="cls-6" d="M265.51,214.35c0-.26,0-.52,0-.78l3.07-.18-.94,1.1Z"/><path class="cls-6" d="M216.54,229.39l-3,0,3-1Z"/><path class="cls-7" d="M221.46,233.27l-1.91.06q0-.45-.07-.89Z"/><path class="cls-2" d="M407.54,180.41c4.68-.61,5-4.57,6-7.94l1,.92a3,3,0,0,0,2.89,2.08,18.45,18.45,0,0,0,1.86,4,31.23,31.23,0,0,1,7.07,24l-.78.83-4.08.09-1-.89h-1.9c-2.8-2.06,1-6.47-2.89-8.15C415,189.26,411.58,184.67,407.54,180.41Z"/><path class="cls-1" d="M487.44,183.57l-.94,1.75c-3.28-.61-6,1-8.91,2.12l-10.07,2h-6a6.14,6.14,0,0,0-1,0,2.88,2.88,0,0,0-.82-.07l-.31-1.88c5.2.81,9.38-.66,13.17-4.56,2.37-2.44,7.67-1.55,8-6.66l3.91.37c2.9,1.68,6,.5,9.06.8l4,0Z"/><path class="cls-11" d="M459.73,189.35a2.89,2.89,0,0,1,.82.07l1,0h6c-1.8,3.47-6,2.85-8.35,3-4.79.4-8.16,7.52-13.71,2.89q0-1,0-2C450.18,191.86,453.92,186.95,459.73,189.35Z"/><path class="cls-2" d="M445.5,193.41q0,1,0,2c-1.79,1.3,0,5.36-3.86,5.05q0-.51,0-1,0-2,0-4c1.11-4.32-2.25-7.89-2-12.07v-1.86c4.64.82,2.74,5.6,4.83,8l.94,2Z"/><path class="cls-11" d="M433.59,203.43l-6,0q0-2,0-4c6.14,2.33,5.42-1.89,5.22-5.52-.12-2.15-2.46-4.18-.32-6.44l2.07,7.91c-.73,2.7,1,3.94,3,5.08-.06.86,1.9.67,1,2Z"/><path class="cls-4" d="M427.6,199.4q0,2,0,4l-1.22.06a31.24,31.24,0,0,0-7.07-24,18.41,18.41,0,0,1-1.86-4l.25-.25,4.61,3.42C424.27,185.51,428.6,191.78,427.6,199.4Z"/><path class="cls-15" d="M437.55,200.42c-1.94-1.14-3.71-2.37-3-5.08l7,.07q0,2,0,4l-1,1Z"/><path class="cls-3" d="M433.59,203.43l5-1q-.08,1.42-.16,2.85l-3.85.13Z"/><path class="cls-11" d="M434.56,205.36l3.85-.13c.39.26,1.44.84.91.88-2,.14-3.7,2.12-5.81.78Z"/><path class="cls-4" d="M421.55,204.39l4.08-.09q0,.55,0,1.11c-2.31-.77-5.5,1.7-7-1.91h1.9Z"/><path class="cls-4" d="M424.55,210.23l1.06-2.93C425.6,208.4,426,209.63,424.55,210.23Z"/><path class="cls-3" d="M446.93,201l-.55.16-.1-.37Z"/><path class="cls-11" d="M440.54,200.4l1-1q0,.51,0,1Z"/><path class="cls-11" d="M457.53,161.42a20.35,20.35,0,0,0,8.71-1.39c12.11-4.63,25-5.93,37.53-8.9l0,.14-1.25,3.1c-5.18.42-8.65,6.11-13.36,5.71-6.19-.52-11.68,1.14-17.47,2.19-3.23.59-4.84,1.76-4.26,5.14l-5.83-2.05Z"/><path class="cls-1" d="M457.53,161.42l4.1,3.95-5.09,0c-.22-1.72-1.24-2.22-2.78-1.72-.27.09-.35.74-.52,1.13l3.3.58c-1.17,4.8-7,3.5-9.17,7l-8-8-1.87-1.12-.1-1c2.4-3,5.82-2.82,9.14-3h3.05l5.9.11a1.87,1.87,0,0,0,2,2Z"/><path class="cls-11" d="M457.53,161.42a1.87,1.87,0,0,1-2-2A1.83,1.83,0,0,1,457.53,161.42Z"/><path class="cls-4" d="M296.56,70.28l-7,11.11c-3.72-2.35-7.67-3.38-12-2-2.23-2.35-5.74.43-8-2l0,0,3.12-1h.78l1.3-1,2.86-.13Z"/><path class="cls-5" d="M187.57,115.46l2-2.12a9.46,9.46,0,0,0,2.27-.79c9.73-6.53,16.83-17.29,29.92-18.48,1.76-.16,1.83-2.09,1.84-3.62l4-1c.16.76.25,1.73,1.31,1.53,1.29-.24,1.57-1.37,1.67-2.52l2.09-.08,2,2.13q0,.46-.12.92c-5.23,2.25-11.45,2.6-15.06,7.92-6.17,2.08-12.74,3.62-14.9,11.09-3.89,3.92-5.26,9.09-7,14.07-3.27.12-5,3.15-4.33,5,2.1,5.75-.25,11.78,1.82,17.4,1.18,3.19-1.16,5-3.3,6.28-2.88,1.76-3.67-.64-4.29-2.84-2.45-6.07-5.5-12-3.94-18.93,3.68-1.48,1.36-4.67,2-7C183.38,120.77,188.89,118.9,187.57,115.46Z"/><path class="cls-8" d="M234.67,90.49l-2-2.13.75-3c1.87-2.14,4.39-2,6.88-2,10,2.3,18.2-4,27.38-5.52.65-.11,1.28-.28,1.92-.42,2.22,2.41,5.72-.37,8,2Z"/><path class="cls-13" d="M223.54,90.44c0,1.53-.08,3.46-1.84,3.62-13.09,1.19-20.19,11.95-29.92,18.48a9.46,9.46,0,0,1-2.27.79c3.29-8,9.4-13.26,17-17a2.89,2.89,0,0,0,3.08-2l2-1Z"/><path class="cls-14" d="M223.54,90.44l-12,2.95c3.13-4.3,8.47-3.73,12.69-5.63,2.82-1.27,6.06-1.64,9.11-2.41l-.75,3-2.09.08-3,1Z"/><path class="cls-14" d="M187.57,115.46c1.33,3.44-4.19,5.31-2.05,8.94l-2,1h0l-.22-5.41,2.29-5.83a3.14,3.14,0,0,0,.87.06Z"/><path class="cls-14" d="M209.57,94.35a2.89,2.89,0,0,1-3.08,2C207,94.76,207.1,92.72,209.57,94.35Z"/><path class="cls-3" d="M232.55,218.45l-2,.95-12.1,1.05h.07l0-1.12q0-.47,0-.93a1.32,1.32,0,0,0,.34-.16c.06,0,0-.17.07-.26l-.42.41c-3.81,1.33-8.77.13-11,5h-2.06c-.69-1.22-1.35-1-2,.05l.05,0c-2.21.09-4.71-.67-6,2l0,0c-1.15,0-2.34-.23-3,1l0,0c-1.14,0-2.35-.25-3.05,1l.06,0c-1.13,0-2.34-.22-3.06,1l.06,0c-2.37-.05-4.83-.4-6.39,2.05l-.17,0c-5.39-.44-9.87,2.58-14.66,4.16-9.34,3.07-19.05,5.16-27.82,9.86h0c-1.15-.08-2.33-.24-3,1l0,0c-2.28-.12-4.47,0-6,2l0,0c-1.15-.06-2.33-.24-3,1l0,0c-1.73.11-3.62-.63-5,1l0,0c-4.88,0-9.47,1.44-14,2.95-2.43.34-5,.41-7,2.07h0c-4.46,0-9-.81-13.07,2-1.66-1.4-3.32,0-5,0-5.18-2.3-10.66-.31-15.94-1.07,4.11-2.29,8.83.3,13-1.59,28.22-.47,54-11,80.26-19.48q29.36-9.42,58.7-18.89c3.32,2.8,6.66-1,10,0C230.83,216.11,232.5,216.49,232.55,218.45Z"/><path class="cls-9" d="M83.51,256.39c1.66,0,3.32-1.39,5,0-4.85,2.08-10,.4-14.93,1h-2l-3.85-.13a1.48,1.48,0,0,1-.1-.82Z"/><path class="cls-15" d="M83.51,256.39l-15.94.1q0-.58,0-1.17C72.86,256.08,78.33,254.08,83.51,256.39Z"/><path class="cls-3" d="M63.52,260.39l2,0,4,.12q0,.5,0,1c-1.76.11-3.7-.71-5.17,1a1.66,1.66,0,0,1-.52,0l-.32-.33,0-.29Z"/><path class="cls-15" d="M67.67,257.31l3.85.13,0,1.95h0l-1.16,0c-1-1.53-2.54-.71-3.82-1Z"/><path class="cls-12" d="M63.85,262.43a1.66,1.66,0,0,0,.52,0l5.16.07-1,.88-4,0Z"/><path class="cls-12" d="M53.56,259.44l1-1h3c.68.4.52.75-.06,1.08Z"/><path class="cls-12" d="M66.56,258.34c1.28.33,2.87-.49,3.82,1a3.4,3.4,0,0,0-.85.05l-4,0Z"/><path class="cls-15" d="M63.52,260.39c0,.47,0,.94,0,1.41l-5-.44,1.08-1,3.94.06Z"/><path class="cls-12" d="M58.54,261.37l5,.44,0,.3-1.08.39-3.85-.1Z"/><path class="cls-12" d="M59.56,258.35c1.35-1,2.69-1.84,4,.09Z"/><path class="cls-3" d="M57.56,264.36l1.09-1H62.5l-1,1.13Z"/><path class="cls-12" d="M57.6,254.38a1.56,1.56,0,0,0,.82-.13l1.07,1.35-3.87-.16C55.34,253.35,57,254.94,57.6,254.38Z"/><path class="cls-12" d="M63.56,265.43l1-1,3.91.23-1,.83Z"/><path class="cls-12" d="M62.56,269.33l1-.94,4,.22a2.54,2.54,0,0,0,0,.65Z"/><path class="cls-15" d="M62.56,269.33l5-.07,0,1.15,0,.07-5-.08Z"/><path class="cls-3" d="M62.54,270.39l5,.08c-1.36,1.51-3.12.76-4.73.83A1.67,1.67,0,0,1,62.54,270.39Z"/><path class="cls-13" d="M55.62,255.44l3.87.16-1,.84-2.87-.09A3.31,3.31,0,0,1,55.62,255.44Z"/><path class="cls-12" d="M55.59,256.34l2.87.09-.92,1h-3Z"/><path class="cls-12" d="M53.58,261.4l0-1.08,4,.1-1.07,1.07Z"/><path class="cls-15" d="M51.54,261.42l-4,0q0-.52,0-1l4,.07Q51.54,260.93,51.54,261.42Z"/><path class="cls-12" d="M56.5,262.37l0,1h-4l0-1.12Z"/><path class="cls-14" d="M62.5,263.3H58.65a4,4,0,0,1-.06-.92l3.85.1A4.88,4.88,0,0,1,62.5,263.3Z"/><path class="cls-15" d="M65.55,259.39l4,0v1.05l-4-.12Q65.54,259.87,65.55,259.39Z"/><path class="cls-15" d="M52.55,263.37h4l-1.11,1.1-2.89-.07Z"/><path class="cls-12" d="M63.56,260.43l-3.94-.06a2.5,2.5,0,0,1-.07-1l4,0Z"/><path class="cls-15" d="M68.45,264.63l-3.91-.23v-1l4,0Z"/><path class="cls-15" d="M57.56,264.36l4,.08q0,.49,0,1l-4,0Z"/><path class="cls-13" d="M57.53,260.41l-4-.1q0-.44,0-.87l3.92,0A8.63,8.63,0,0,1,57.53,260.41Z"/><path class="cls-15" d="M63.54,259.41l-4,0,0-1,4,.09Q63.55,258.92,63.54,259.41Z"/><path class="cls-15" d="M51.54,266.37l1.09-1h2.91q0,.53,0,1.07Z"/><path class="cls-12" d="M57.54,265.38l4,0a2,2,0,0,1,0,1l-3,0Z"/><path class="cls-14" d="M63.56,265.43l3.92,0a6.7,6.7,0,0,1,.05,1l-4-.12A7.6,7.6,0,0,0,63.56,265.43Z"/><path class="cls-12" d="M51.54,266.37l4,.06q0,.52,0,1l-4,0Z"/><path class="cls-12" d="M63.55,266.31l4,.12q0,.44,0,.88l-4,0Z"/><path class="cls-15" d="M51.55,267.43l4,0A2.53,2.53,0,0,1,51.55,267.43Z"/><path class="cls-12" d="M61.51,267.52c-1,.84-2,1.64-3-.12Z"/><path class="cls-15" d="M63.56,267.34l4,0,0,1.29-4-.22Z"/><path class="cls-12" d="M51.55,260.43l-4-.07q0-.53,0-1.05l4,.06Q51.54,259.9,51.55,260.43Z"/><path class="cls-14" d="M56.5,262.37l-3.91-.11,1-.86,2.87.08A5.91,5.91,0,0,1,56.5,262.37Z"/><path class="cls-12" d="M55.53,265.36H52.62a1.9,1.9,0,0,1-.08-1l2.89.07A1.67,1.67,0,0,1,55.53,265.36Z"/><path class="cls-15" d="M61.51,267.52l-3-.12q0-.49,0-1l3,0Z"/><path class="cls-15" d="M54.54,257.4h3q0,.5,0,1h-3Q54.54,257.9,54.54,257.4Z"/><path class="cls-4" d="M277.46,46.4l1.19-4.11c6.89,1,7.54-3.11,6.92-8.32l1.89,2.49q0,1.48.05,3l-.17,1c-.57,1.52-1.15,3-1.71,4.55-.46,1.26.3,4.15-1.13,3.57C282.18,47.61,278.36,51.26,277.46,46.4Z"/><path class="cls-11" d="M287.52,39.42q0-1.48,0-3a22.16,22.16,0,0,0,1.83-2.88c.86-1.93-2.51-5.24.11-5.53,2.2-.25.33,4,1.5,6a11.87,11.87,0,0,1,.6,1.36l-1.47.91.57.57.91-1.47c1.46-.12,3.07.33,4.17-1.13l.92,1.23-.08,3.85-1.95.12-4.06-.1Z"/><path class="cls-3" d="M305.5,43.37l-2.92.1.21-2.65c-4.64.29-3-3.17-3.26-5.47,0-.38,0-.76,0-1.14,3.52,2.45,4.41.09,5.05-2.75,1.35,1.09.77,2.65,1,4Z"/><path class="cls-8" d="M299.54,34.2q0,.57,0,1.14l-1,.16-1.9,0-.92-1.22q-.08-1-.16-1.93l-.9-3c.12-1.52-.71-3.57,1.2-4.26,1.38-.5,1.57,1.16,1.84,2.22Z"/><path class="cls-3" d="M289.5,43.36a31.86,31.86,0,0,1,3.13,1.07c1.76.8,4.88-1.75,4.94.21s-3.63,2.2-5.8,2.63-4.55.41-4.13-3c0-.33.07-.66.1-1Z"/><path class="cls-6" d="M289.5,43.36l-1.76-.11q-.2-1.41-.4-2.81l.17-1,3,0,3.09,2Z"/><path class="cls-3" d="M296.61,35.53l1.9,0c-1,1.12,2.15,4.37-2,3.88Z"/><path class="cls-3" d="M293.61,41.39l-3.09-2,4.06.1Z"/><path class="cls-15" d="M348.56,6.39a9.09,9.09,0,0,1,4.27,7c-3.49,5.19-9.24,6.79-14.64,7.82a82.24,82.24,0,0,0-22.63,7.53c-2.75,1.42-2.92-.06-3.91-1.36-.51-5.35-2.7-10.46-2.17-16h.13c8.59.35,17.07-3.33,25.79-.59.77.24,2.16-2.17,3.51-2.92.9-.5,2.88-.71,3.24-.22.85,1.17-1.14,1-1.44,1.79a5.73,5.73,0,0,0-.16,1.6c2,.1,4,.26,5.95.27,1.42,0,2.2-.77,1.78-2.27C348,8.11,347.49,7.18,348.56,6.39Z"/><path class="cls-7" d="M305.5,43.37q0-4,.09-7.9l6-.09,1,5v.05Z"/><path class="cls-15" d="M501.26,20.31c-4,1-8,2.45-12.09,3-3.37.44-1.75,2.3-1.77,3.81l-1.85.06c-1.47-1.29-3.25-.65-4.9-.79l-8-2.14a54.12,54.12,0,0,1-13.05-9,1.83,1.83,0,0,0-2-1.81h0l2-2,2-1c5.09-2.17,9.6-.41,14,2,2.33,6.43,4.67.21,7,0l1-4c4.29-1.32,8.59-2.62,13.16-2.43l1.68.89,3.21,10.56Zm-8.64-4.72c1.3-.55,3.48.63,3.8-1.95.22-1.76-.87-2.42-2.43-2.11-1.8.35-4,1-4.35,2.74C489.26,16.43,491.6,14.82,492.62,15.59Z"/><path class="cls-6" d="M311.64,27.36c1,1.31,1.16,2.79,3.91,1.36a82.24,82.24,0,0,1,22.63-7.53c5.4-1,11.15-2.63,14.64-7.82l2.51,5q0,1.93,0,3.86l-2.85.16c-3.88-4.31-5.35,1.19-8,2h0l-.91,1A27.92,27.92,0,0,0,325,28.19a27.67,27.67,0,0,1-13.38,3.19l-.11-1Z"/><path class="cls-15" d="M467.46,167.42c-.58-3.38,1-4.55,4.26-5.14,5.79-1.05,11.28-2.71,17.47-2.19,4.72.4,8.19-5.29,13.36-5.71l4-1q.4.11.81.2c1.65,4.17,3.15,8.39,3.44,12.92-9.18,1.22-16.31,8.49-25.83,8.75-.16,0-.29.88-.44,1.35l-3.91-.37C476.22,173.32,471.1,171.47,467.46,167.42Zm30.1-2c.67,0,1.33.06,2,0,2.39-.14,5.17.68,6.57-2.11.26-.52-.53-2.1-1.22-2.47-2.91-1.54-4.42,1.29-6.48,2.41-.4.22-.62.76-.93,1.15-.12.1-.36.25-.35.29A4.87,4.87,0,0,0,497.56,165.39Z"/><path class="cls-11" d="M484.52,176.62c.15-.47.28-1.34.44-1.35,9.52-.26,16.66-7.53,25.83-8.75q-.1,1.45-.19,2.89a42,42,0,0,0-17,8C490.56,177.12,487.41,178.3,484.52,176.62Z"/><path class="cls-6" d="M493.58,177.43a42,42,0,0,1,17-8c-.1,4.56-4.13,5.23-7,7-2.09-.1-4.18-.21-6.06,1Z"/><path class="cls-6" d="M482.53,12.4c-2.33.2-4.67,6.42-7,0,2.18-.45,4.54-.93,3.77-3.95-.7-2.78-2.83-1.2-4.48-1.14-3.29.11-6.59.14-9.89.07-2.17-.05-3.56.53-3.42,3l-2,1,0-4.14c5.11-2.9,10.84-2.24,16.35-2.86,4.64-.52,9.54.23,13.66-2.81,3.3,0,5.92,1.09,7.18,4.41-4.57-.2-8.86,1.11-13.16,2.43C480.81,9.13,481.12,10.63,482.53,12.4Z"/><path class="cls-11" d="M459.51,7.23l0,4.14-2,2-3.93-2-1.32-2,1-1.93,2.29,0c.25.51.44,1.4.78,1.46,1.08.21,1-.77,1.16-1.49Z"/><path class="cls-6" d="M457.5,7.35c-.12.72-.08,1.7-1.16,1.49-.34-.07-.52-1-.78-1.46Z"/><path class="cls-14" d="M14.67,171.42l1.41.87-1.66,1Z"/><path class="cls-5" d="M123.51,118.28a4.69,4.69,0,0,1-1,.18Z"/><path class="cls-2" d="M285.57,34c.62,5.21,0,9.36-6.92,8.32-1.78-5.28-1.11-11.39-5.32-15.86,1.58-4.15,4.53-4.56,8.2-3C283.84,26.59,284.78,30.25,285.57,34Z"/><path class="cls-8" d="M272.67,76.4l-3.12,1C269.82,74.72,271.36,75.92,272.67,76.4Z"/><path class="cls-8" d="M274.75,75.44l-1.3,1Z"/><path class="cls-11" d="M440.59,16.32c-4.4,6.53-8.1,7.34-15,3.12a3.64,3.64,0,0,0-4.13,0c-2.76-1.31-.3-3.47-.85-5.15,3.19.79,5.68-3.63,9.09-1.24-.64,2.13-3.53,4.18-1.19,6.44,2,1.95,4.22.09,6.15-1.1,5.54-2.07-1.66-4-.05-6h3Z"/><path class="cls-1" d="M440.59,16.32l-3.07-4c4.35-3.83,9.53-3.62,14.78-3l1.32,2c-3.47,3-9.64-.36-12.12,5.06Z"/><path class="cls-15" d="M434.61,18.4c-1.93,1.19-4.12,3-6.15,1.1-2.34-2.25.55-4.3,1.19-6.44l1.82.23Z"/><path class="cls-8" d="M434.61,18.4l-3.14-5.1a1.89,1.89,0,0,1,2.09-1.88l1,1,0-.05C433,14.38,440.16,16.33,434.61,18.4Z"/><path class="cls-11" d="M434.59,12.4l-1-1Z"/><path class="cls-6" d="M95.6,273.3l-6.08.13c-5.55.72-11.05-1.85-16.67-.11-2.08.64-3.53-.48-3.4-2.92l3.09-1v-3l3,0c1.64,3.11,4.56,1.7,7,2l3.05,1.07,4,1q-.05.48-.06,1c1.73,2,4.12.23,6.07,1A3.39,3.39,0,0,0,95.6,273.3Z"/><path class="cls-6" d="M67.51,268.61l0-1.29q0-.44,0-.89a6.71,6.71,0,0,0-.05-1l1-.83.09-1.23,1-.88v-1q0-.5,0-1v-1.05a3.4,3.4,0,0,1,.85-.05l1.16,0q0,1.54,0,3.07l-.88,1.78-1.13,1.18q0,.45,0,.89v3.05l-.78,1-1.2,0,0-1.15A2.54,2.54,0,0,1,67.51,268.61Z"/><path class="cls-9" d="M68.77,270.37l.78-1,3,0-3.09,1A4.75,4.75,0,0,0,68.77,270.37Z"/><path class="cls-6" d="M506.54,153.41l-4,1,1.25-3.1A3,3,0,0,1,506.54,153.41Z"/><path class="cls-12" d="M112.59,261.39c1.92.11,2.26,1.76,3,3.06-2.52,5.27-7.67,4.15-12,4.94l0,.06c.63-2.53.44-4.59-2.79-4.94l6.74-1.13,2-.84C110.67,262.45,111.9,262.65,112.59,261.39Z"/><path class="cls-9" d="M89.58,270.47l-4-1,16.86-.16,1.09.14,0-.06,0,1Z"/><path class="cls-12" d="M95.58,272.47c-1.94-.81-4.33,1-6.07-1l14-.17c-1.18,2.3-3.4.63-5,1.29Z"/><path class="cls-15" d="M103.52,271.26l-14,.17q0-.48.06-1l14-.07Q103.54,270.83,103.52,271.26Z"/><path class="cls-15" d="M95.58,272.47l2.93.08a5.18,5.18,0,0,1,0,.69l-2.92.06A3.41,3.41,0,0,1,95.58,272.47Z"/><path class="cls-9" d="M446.56,159.31c-3.32.18-6.74,0-9.14,3-2.8-1.86-5.56-1.58-8.85-1-5.3,1-9.76,4-14.93,5.15l-.66-.89,1.4-2.16,7.2-3,3.91-.21,20.84-6.06,1.22,1.23C444.24,155.94,446.84,158,446.56,159.31Z"/><path class="cls-11" d="M421.64,20.4l.88,1a4.43,4.43,0,0,0-.92-.06l0,0A5.55,5.55,0,0,1,421.64,20.4Z"/><path class="cls-3" d="M352.52,22.44l2.85-.16-.83,4.1c-3.21.7-6.42,1.36-9.61,2.11s-.79,3.31-1.41,4.91c-10.35,2.18-20.29,6.17-30.94,7l-1-5,.08-4A27.67,27.67,0,0,0,325,28.19a27.92,27.92,0,0,1,18.62-2.81l.91-1h0C347.15,23.55,350.65,26.3,352.52,22.44Z"/><path class="cls-11" d="M326.6,187.39l-4-4c1.94-2.86,5.18-2.3,7.93-3l-1,7.07Z"/><path class="cls-15" d="M285.57,34c-.79-3.72-1.74-7.38-4-10.52-.15-2.13-3.69-4.86,1.07-6.14,6.12-2.48,6.18-2.49,7.81,4.89.25,1.15.74.79,1.23.61,1.65-.61,4.27-.16,3.81-3.26-.15-.76-.69-1.81-.37-2.23.87-1.17,1.69-.17,2.15.58a3.19,3.19,0,0,0,3.26,1.47c1.43,3.22,3.09,6.36,3.16,10-2.47.74-4-1.27-6-2-.26-1.07-.46-2.72-1.84-2.22-1.9.69-1.08,2.74-1.2,4.26-.46.31-1.33.66-1.31.94a2,2,0,0,0,2.21,2q.08,1,.16,1.93c-1.09,1.46-2.71,1-4.16,1.13h0a11.81,11.81,0,0,0-.6-1.37c-1.17-2,.7-6.25-1.5-6-2.62.29.75,3.6-.11,5.53a22.16,22.16,0,0,1-1.83,2.88Z"/><path class="cls-11" d="M300.49,19.37a3.19,3.19,0,0,1-3.26-1.47c-.47-.75-1.28-1.75-2.15-.58-.31.42.22,1.47.37,2.23q-3.83-2.06-2-6c2.8-.74,4.1,1.67,6,2.87Z"/><path class="cls-2" d="M300.49,19.37l-1-2.93c1.51-5.29,6.9-2.89,10-5-.53,5.49,1.66,10.61,2.17,16q-.06,1.51-.12,3l-7-1-.86-.05C303.59,25.72,301.92,22.58,300.49,19.37Z"/><path class="cls-11" d="M176.53,101.4c-3.38,2.07-7.16,2.66-11,3l4.74-2.93Z"/><path class="cls-11" d="M187.55,98.4l-3.05,1Z"/><path class="cls-11" d="M183.62,99.41l-3.08,1Z"/><path class="cls-11" d="M179.54,100.4c-.71,1.19-1.9,1-3,1Z"/><path class="cls-3" d="M207.54,230.39l3,5.94-2.06.95Z"/><path class="cls-5" d="M34.46,148.3c.06,2-1.37,2.11-2.83,2.14A3.15,3.15,0,0,1,34.46,148.3Z"/><path class="cls-11" d="M153.58,107.4c-1.1,1.34-2.65.88-4.05,1C150.62,107.06,152.18,107.54,153.58,107.4Z"/><path class="cls-7" d="M234.67,90.49l42.85-11.11c4.35-1.37,8.29-.34,12,2-2.88,10-5.07,20.59-13,28-2.9,2.73-6,6.58-11.21,6.06a8.4,8.4,0,0,0-7.81,3.91h-1l-15.79-16-5.09-8-1.1-4Q234.62,91,234.67,90.49Z"/><path class="cls-12" d="M256.53,119.39h1a100.43,100.43,0,0,0,35.77,22c2.76,1,5.5,2,8.25,3-2,1.49-1.9,5.19-5.55,5-1.54-.06-4.19-.84-4.46.75-.33,1.95,2.31.68,3.45,1.34,2,1.17.3,1.41-.46,2.15-3,2.87-6.62,1.31-10,1.72-1.22-3.55-4.22-1.87-6.36-1.91-6.25-.12-13.78-1.94-18.46.85-6.26,3.72-11.67,8.71-19.19,10l-2,0-1-.95-1,0a6.79,6.79,0,0,0-2.71-5.05c-2.56-1.71-4.92-3.36-4.27-7,2.47.12,3.41,2.4,5.13,3.58,2.13,1.46,4,5.14,6.36,4.07,7.21-3.32,14.52-6.79,19.83-13.07.77-.9,1.15-2.27-.16-3-1.14-.61-1.66.62-2.18,1.43-7.08-6.21-9.79-16.62-6-23Z"/><path class="cls-12" d="M314.44,96.91c.83.66,2.86.06,2.62,2-.1.75-1.09,2-1.64,2A2.85,2.85,0,0,1,312.74,98C312.66,97.07,313.35,96.6,314.44,96.91Z"/><path class="cls-8" d="M369.58,73.19l0-1.79h0l2,2Z"/><path class="cls-13" d="M369.58,73.19l2,.23,0,0-.24,1Z"/><path class="cls-8" d="M372.57,74.36l.39.48-.47-.39Z"/><path class="cls-8" d="M371.27,74.41l.24-1,1.06,1-.08.09Z"/><path class="cls-8" d="M369.54,71.4l-1-1h0l1,1Z"/><path class="cls-8" d="M367.4,70.41l.12-1,1,1H367.4Z"/><path class="cls-8" d="M367.56,69.43l-1-1Z"/><path class="cls-8" d="M366.56,68.43l-1.32-1Z"/><path class="cls-3" d="M445.51,148.43l-1,.09q0-.55,0-1.11l1.05,1Z"/><path class="cls-3" d="M443.52,146.4l1,1Z"/><path class="cls-3" d="M442.52,145.41l1,1Z"/><path class="cls-3" d="M441.52,144.4l1,1Z"/><path class="cls-3" d="M440.52,143.41l1,1Z"/><path class="cls-3" d="M439.53,142.42l1,1Z"/><path class="cls-5" d="M429.48,106.75a18,18,0,0,1-4,1.14c-.38,0-1.39-1.58-1.22-2.16.46-1.52,2-1.32,3.29-1.27S429.29,105.14,429.48,106.75Z"/><path class="cls-5" d="M414.66,109.49l-2-.72a50.17,50.17,0,0,1,4.64-2.25c.67-.25,1.91,0,1.71,1.07C418.58,109.84,416.59,109.22,414.66,109.49Z"/><path class="cls-8" d="M403.59,108.32l-.06-1.94a1.84,1.84,0,0,1,2,2Z"/><path class="cls-8" d="M406.59,111.26l0-1.88,1.94.05.23,1Z"/><path class="cls-5" d="M408.71,110.44l-.23-1,1.3.35Z"/><path class="cls-8" d="M406.56,109.4l-1-1Z"/><path class="cls-8" d="M401.38,104.4l1.2-.09,0,1.1Z"/><path class="cls-8" d="M403.56,106.42l-1-1Z"/><path class="cls-4" d="M240.55,164.39c7.51-1.34,12.93-6.33,19.19-10,4.69-2.78,12.21-1,18.46-.85,2.15,0,5.15-1.64,6.36,1.91-1.08,1.56-2.06,3.21-3.28,4.65a21.86,21.86,0,0,1-3.1,2.55c1.27,1.49,3,.45,4.51.87-1.41,2.52-3.89,1.81-6.07,2-5.29-.27-9.86-2.81-14.37-5.12-3-1.53-5.67.05-5.81,1.51-.6,6.29-4.33,4.26-7.73,3.58C246,164.92,243,166.41,240.55,164.39Z"/><path class="cls-5" d="M351.93,64.67c.13-.28.2-.68.4-.76s.51.19.77.3c-.12.26-.17.67-.36.75S352.21,64.79,351.93,64.67Z"/><path class="cls-8" d="M397.58,98.46c1.47,1.43,3.06,2.8,3,5.13l-4-1.31c-1.58-1-1.34-2.43-1-3.9Z"/><path class="cls-8" d="M395.56,98.42l-1-1Z"/><path class="cls-8" d="M394.56,97.42l-1-1Z"/><path class="cls-3" d="M446.54,150.41l-1-2,.06-.05,1,2Z"/><path class="cls-3" d="M446.55,150.39l.41.22-.42-.2Z"/><path class="cls-5" d="M376.54,115.4l-.39-.22.39.22Z"/><path class="cls-1" d="M409.54,48.4l1.24.35-.23.36-1-.72Z"/><path class="cls-13" d="M71.43,179.34l7.83-2.05c2.89.46,5.83.39,6.74,4.42.54,2.39,3.32,1.46,5.22,1.71A53.15,53.15,0,0,1,98,184.6c2,.53,1.81,2.42,1.18,3.69-.86,1.71-2.3,1-3.18-.16-1.55-2.07-3.46-2.39-5-.54-8.16,9.71-20.92,9.37-31.17,14.48-.43.21-1.19-.22-1.79-.35.21-.58.24-1.41.65-1.7,5.21-3.65,5.15-12.07,12.92-13.7,2.38-.5-3.56-4.81,1-6.36Z"/><path class="cls-2" d="M178.57,190.55c2.38,3.48,5.4,3.06,9,2,4.41-1.32,9.19-3.39,13.05,1.43-16.4,6.78-33.34,10-51.1,7.59.27-3.1,4-2,5-4.13h0a38.17,38.17,0,0,0,17-5.08l0,0c1.38,0,2.89.53,4-.87Z"/><path class="cls-8" d="M59.53,211.42a127.3,127.3,0,0,0,55.21-1.75C105.3,214.18,95,215,85,215.76a51.52,51.52,0,0,1-25.42-4.38Z"/><path class="cls-13" d="M85.54,175.38c3.82-.51,8.12-7,11.26.9C93.17,174.45,89,178.91,85.54,175.38Z"/><path class="cls-4" d="M154.55,197.43c-1,2.16-4.78,1-5,4.13l-8,.09.09-1.23Z"/><path class="cls-8" d="M141.61,200.41l-.09,1.23a27.3,27.3,0,0,1-11.93,3.84l-.16-.19c2.81-2.81,7.49-1.73,10.13-4.89Z"/><path class="cls-8" d="M38.79,197.19c2,.76,3.42,2,3.81,4.16l-.1.11a5.14,5.14,0,0,1-4.1-3.93Z"/><path class="cls-8" d="M122.58,207.44a5.23,5.23,0,0,1-5.39,1.64c1.55-1.75,3.43-1.76,5.33-1.7Z"/><path class="cls-8" d="M50.58,207.36c1.7-.06,3.17.34,4,2h0a3.81,3.81,0,0,1-4-2Z"/><path class="cls-8" d="M33.51,190.56c.28-.44-.43-2.05,1.15-1l1,2.68-.48.39Z"/><path class="cls-13" d="M54.79,202.54l-1.27.45-.33-1.09a7.36,7.36,0,0,1,1.3-.24C54.57,201.67,54.66,202.16,54.79,202.54Z"/><path class="cls-8" d="M38.4,197.52a3.62,3.62,0,0,1-2.07-2.94l.39-.34,2.07,2.95Z"/><path class="cls-8" d="M125.55,206.4c1-1.38,2.53-1,3.9-1.11l.16.19c-1.11,1.37-2.63.93-4.06.92Z"/><path class="cls-8" d="M45.55,203.39a2,2,0,0,1,2.09,1.9l-.15.18c-1.23-.14-2.06-.66-2-2.06Z"/><path class="cls-8" d="M54.54,209.4l3,1,0,0c-1.15.12-2.29.21-3-1Z"/><path class="cls-8" d="M122.52,207.37c.74-1.16,1.91-1,3-1h0c-.66,1.28-1.87,1-3,1Z"/><path class="cls-8" d="M59.57,211.38l-2-1,0,0,2,1Z"/><path class="cls-8" d="M35.71,192.27l1,2-.38.34-1.09-1.93Z"/><path class="cls-8" d="M43.59,202.35l2,1v0l-2-1Z"/><path class="cls-8" d="M47.64,205.29l1.94,1.07-.08.08-2-1Z"/><path class="cls-2" d="M29.58,191.07l1-.66Z"/><path class="cls-8" d="M43.5,202.44l-1-1,.1-.1,1,1Z"/><path class="cls-8" d="M49.58,206.37l1,1-.07.07-1-1Z"/><path class="cls-13" d="M168.59,133.37c2.76,12.31,1.68,14.17-10,17.55-18.18,5.25-36.42,10.28-54.47,15.93-5.43,1.7-6.3-.58-6.57-4.77-.84-13,6.73-21.66,15.69-29.44,3-2.59,6.39-4.7,9.6-7,3.74-1.4,7.79-2.17,10.79-5.13h0l2.94.19c1.43,6.25,6.15,5,10.6,4.92,1.73,0,5.47-2.15,4.81,2.69-.11.77-2.26.81-.8,1.92.35.27,2-.43,2.42-1.08,3.87-5.45,5.63,1.72,8.61,1.37C162.21,136.17,165.5,134.55,168.59,133.37Zm-4.38,7.81c-.86-1.41-1.37-3.31-3.4-3.65a1.7,1.7,0,0,0-2.15,2,3.67,3.67,0,0,0,3.21,3.71C163.1,143.41,164,142.69,164.21,141.18Zm-6.64-5a47.64,47.64,0,0,0,2.11-4.32,2.64,2.64,0,0,0-1.66-1.21c-2.13.11-2.48,1.72-2.43,3.48C155.63,135.12,155.79,136.08,157.57,136.14Z"/><path class="cls-8" d="M187.46,150.34c.62,2.2,1.41,4.6,4.3,2.84,2.15-1.31,4.48-3.09,3.3-6.28-2.07-5.62.28-11.65-1.82-17.4-.68-1.85,1.06-4.88,4.33-5,.44,1.77-1.09,4.75,1.15,5.12s1.35-2.71,2-4.2c1.52-3.37,3.16-6.68,4.76-10,3-.39,4.46.83,4,4,.14,4.91,2.15,6.33,7.27,5.36,4.39-.83,9.49-5.38,13.67.71,1.38,4.57,4.12,8.33,7.07,12,.12,2.8-4.06,1.21-4,3.93-8,2.51-16.42,3.68-23.86,7.86-1.23.69-2.86.8-.26,2.26,7.84,4.41,15.11,9.93,24.12,12,.18,2.86,5.88,1.79,4.29,4.84-1.36,2.61-5.16.68-7.84,1.11-14.84,2.4-27.07-5.73-40.27-10a2.19,2.19,0,0,0-2.15-2l0,0-2-2,0,0a6.22,6.22,0,0,0-5-5h0l-1-2.19-.72-.83c-.46-2.76-.84-5.53-1.39-8.27-.82-4-2.18-8.07,1.06-11.72,1.94,2.53,1.85,5.23,1.59,8.37C179.57,141.87,180.84,147.6,187.46,150.34Z"/><path class="cls-13" d="M120.37,165.26c15.37-4.54,30.63-9.56,46.17-13.42,8.29-2.06,12.34,5.46,17.13,10.53-4.13,1.62-1.1,5.63-2.72,8.09,1.91.54,2.7,4.23,5.6,2l4,1,0,0c1,2.27,3,2.11,5,2l0,0,3,3,0,0c-3.35,0-6.47.67-9,3l0,0-7.08,1c-4.86-2.75-10.43-4.58-13.77-9.35-1.21-1.72-2.27-3.37-4.12-2.22-1.56,1-4.44,1.33-3.91,4.4,1,5.86-5.95,2-7.22,5.84-.37,1.11-3.31,0-4-2.22-.28-.89-.92-1.49-1.87-1.08s-.56,1.33-.39,2.13c.27,1.29.42,2.61.67,3.91.2,1.05,2,1.81.91,3s-2.3-.7-3-.5c-3,.88-9.08-4.84-8.71,3.82.06,1.31-1.4,1-1.73.36-1.2-2.31-5.41-4.7-.23-7.21,1.13-.55,1.59-2.11,1-2.22-4.06-.78-5-5.16-8.26-6.76q-7.18-3.54-14.38-7.06l2.12-.79c1.79,1,3.57,2.19,5.63.78A10.11,10.11,0,0,0,120.37,165.26Zm34.18,3.16c1.11,0,2.3.23,3-1l2.25-.45c-.09-.13-.22-.4-.26-.38-.69.23-1.37.49-2.06.75-1.1,0-2.28-.17-3,1l-1.39.37c.09.14.25.39.26.39C153.79,168.92,154.17,168.66,154.55,168.41ZM169,164c2.46.65,4-.18,5.86-1.26C172.66,162.08,171,162.49,169,164Zm-1.67,0-4.69,1.41c.12.31.22.87.37.88C164.43,166.41,165.77,166.14,167.3,164Zm-16.2,5.85a4.71,4.71,0,0,0-.34.75c0,.07.18.26.29.27s.33-.17.32-.24A4.7,4.7,0,0,0,151.1,169.85Z"/><path class="cls-14" d="M113.46,167.25q7.19,3.53,14.38,7.06c3.24,1.6,4.2,6,8.26,6.76.6.12.14,1.68-1,2.22-5.17,2.5-1,4.89.23,7.21.33.64,1.79.95,1.73-.36-.37-8.67,5.69-2.94,8.71-3.82.71-.21,2,1.65,3,.5s-.71-2-.91-3c-.25-1.3-.4-2.62-.67-3.91-.17-.8-.64-1.68.39-2.13s1.59.19,1.87,1.08c.67,2.17,3.6,3.33,4,2.22,1.27-3.79,8.23,0,7.22-5.84-.53-3.07,2.35-3.43,3.91-4.4,1.85-1.15,2.92.49,4.12,2.22,3.34,4.77,8.91,6.61,13.77,9.35,2.35,5.28,4.7-2.06,7.05,0-.49,1.18-1.35,2.42.5,3.24l-4.4,1.93-7.05,3-3.1.95c-1.42-.14-2.9-.55-4,.87l0,0-14,2.34c-12.55-.08-25.12-.12-36.9-5.41-1.79-.8-3.46-1.85-5.18-2.79,3-1.41,6-2.79,9-4.24,1.38-.67,3.87-.84,3.32-2.85s-2.88-1-4.37-.89c-4.92.38-8.77,4.7-14,3.93-1.26-2.11-4.7-2-5.09-5,2.52-.05,5.7.09,5.71-3.22,0-2.85-2.68-3.62-5.39-3.36-.43,0-.9-.39-1.35-.6A27.51,27.51,0,0,1,113.46,167.25Zm54.07,14.17c-.37-.43-.63-1.34-1.36-.34l1.39.3,2,1c.65.26,1.29.53,1.94.76,0,0,.16-.24.24-.37l-2.17-.4Zm9.37,2.07c-.77.38-2-.81-2.27.63,0,.23,1.27.94,2,1s1.93-.41,2-.75C178.73,183.05,177.48,183.79,176.9,183.49Z"/><path class="cls-5" d="M168.59,133.37c-3.09,1.18-6.39,2.79-6.43-2.87-3,.35-4.74-6.82-8.61-1.37-.46.65-2.07,1.35-2.42,1.08-1.45-1.12.7-1.15.8-1.92.66-4.84-3.08-2.72-4.81-2.69-4.46.07-9.18,1.33-10.6-4.93l8.39-3.18q16.33-4.09,32.66-8.16c1-.25,2.08-1.47,3-.27.16.2-.95,1.56-1.61,2.25A37.91,37.91,0,0,0,168.59,133.37Z"/><path class="cls-14" d="M34.74,176.43c5.16-.45,8.12-3.54,11.6-7.28,2.82-3,8.51-3.63,12.21-6.73,2.25-.2,5.13-.11,6.12-2.05.61-1.21-2-.63-3.12-1-1.38-5-.75-8.25,5.72-7.15,1.27.21,2.84-.7,4.11-1.4s2.52-2,3.71,0c1,1.61-.32,2.39-1.46,3.12-2,1.3-5,2-2.64,5.66.21.31-.31,5.24-4.41,4-1.84-.54-3.88,1.1-3.53,2.54,1.73,7.09-2.81,8.8-8,10.13-1.25.32-3.3.31-2.83,1.93.56,1.9,2.24.17,3.31-.05,2.4-.51,4.73-1.7,7,.18q-13.29,4-26.58,8c-1,.31-2.3,1.11-2.49-.92Z"/><path class="cls-4" d="M233.52,163.43c-9-2.05-16.28-7.58-24.12-12-2.6-1.46-1-1.57.26-2.26,7.44-4.18,15.87-5.36,23.86-7.86-.45,2.81-3.6,2.37-4.95,4.1-1.59,0-3.17.13-2.93,2.26a4,4,0,0,0,3.91,3.7h0c-.66,3.6,1.7,5.25,4.27,7a6.79,6.79,0,0,1,2.71,5.05Z"/><path class="cls-13" d="M190,185.64c-1.85-.82-1-2.06-.5-3.24l0-1,0,0c3.35,0,6.47-.69,9-3l0,0a12,12,0,0,0,1.49-.86c-.84-2-2.68-2.08-4.5-2.17l0,0a5.36,5.36,0,0,0-5-2l0,0-2-2.13c.15-1.71-.62-3.62,1.08-5a135.33,135.33,0,0,0,25.14,9.28,29.88,29.88,0,0,1,3.92,1.54c-.81,1.77-2.57,1.83-4.11,2.27-.37-.59-.75-.75-1.15,0l0,0-6.31,2-.31,0-.31.09-12.42,4-.26-.09-.26.07Z"/><path class="cls-7" d="M178.5,127.39c-3.23,3.65-1.88,7.69-1.06,11.72.56,2.74.93,5.51,1.39,8.27-4.46-4.31-4.91-9.61-4.44-15.48.59-7.44,4-13.24,8.8-18.58,1.67-1.88,2.34-1.5,2.36.87L183.27,120c-.94,2-3.68,2.76-3.52,5.43Z"/><path class="cls-13" d="M109.43,182.43c5.28.77,9.13-3.54,14-3.93,1.49-.12,3.85-1,4.37.89s-1.94,2.18-3.32,2.85c-3,1.44-6,2.83-9,4.24C113.37,185.27,110.87,184.65,109.43,182.43Z"/><path class="cls-5" d="M189.66,166.28c-1.7,1.38-.93,3.29-1.08,5-1.85.23-2-4-4-2-1.31,1.29,2,1.61,2,3.13-2.9,2.24-3.69-1.45-5.6-2,1.62-2.46-1.41-6.48,2.72-8.09Z"/><path class="cls-13" d="M103.3,170.27c.45.21.92.64,1.35.6,2.72-.25,5.4.51,5.39,3.36,0,3.31-3.19,3.17-5.71,3.22C103.8,175.08,96.85,173.64,103.3,170.27Z"/><path class="cls-8" d="M34.74,176.43l-1.28,9-.93,0c-.4-7.19.34-14.1,5-20Z"/><path class="cls-4" d="M133.6,120.48c-3,3-7.05,3.73-10.79,5.13-.7-.42-1.92-.75-2-1.29-.31-1.62,1.25-.77,1.94-1.08C126.17,121.64,129.7,120.32,133.6,120.48Z"/><path class="cls-4" d="M157.57,194.67l14-2.34a38.16,38.16,0,0,1-17,5.08C155.21,196.12,157.51,196.62,157.57,194.67Z"/><path class="cls-7" d="M225,179c-.8-1.43-3.53-.72-3.63-3,0-.81.14-2.45,1.34-2.14,1.61.42,3.37,1.19,3.36,3.48C226.07,178.14,226.52,179,225,179Z"/><path class="cls-4" d="M194.14,185.31l12.42-4C203.13,184.9,198.74,185.42,194.14,185.31Z"/><path class="cls-5" d="M92.62,158.37a4.54,4.54,0,0,0-.49.07l-6.62,1.63c-.05-.41-.25-1.12-.14-1.17,2.33-1.11,4.38-3.1,7.29-2.44Q92.64,157.41,92.62,158.37Z"/><path class="cls-4" d="M144.9,117.5l-8.39,3.18-2.94-.19C136.74,117.17,140.75,117.06,144.9,117.5Z"/><path class="cls-7" d="M180.57,150.38a6.22,6.22,0,0,1,5,5A5.73,5.73,0,0,1,180.57,150.38Z"/><path class="cls-4" d="M190,185.64l3.59-.34a6.82,6.82,0,0,1-8,2.27Z"/><path class="cls-14" d="M120.37,165.26a10.11,10.11,0,0,1,.84,2c-2.06,1.4-3.84.19-5.63-.78Z"/><path class="cls-4" d="M207.18,181.31l6.31-2C212.38,183.07,209.32,180.76,207.18,181.31Z"/><path class="cls-7" d="M187.55,157.37a2.19,2.19,0,0,1,2.15,2A1.9,1.9,0,0,1,187.55,157.37Z"/><path class="cls-7" d="M185.55,155.37l2,2A1.82,1.82,0,0,1,185.55,155.37Z"/><path class="cls-7" d="M179.55,148.2l1,2.19Z"/><path class="cls-7" d="M228.91,175l-.53.15-.1-.35Z"/><path class="cls-4" d="M213.47,179.34c.4-.72.78-.56,1.15,0Z"/><path class="cls-4" d="M237.53,163.42l1,.95Z"/><path class="cls-12" d="M232.55,218.45c-.06-2-1.72-2.34-3-3.07-.23-1,1.19-2.17-.22-3.11l24.14-7.95,1.1,1.06c-6,2.34-12.36,4.06-16,10.12l-3,0c-.51-.78-1-.68-1.32.1a7.56,7.56,0,0,0,1.3.82l-.12,2Z"/><path class="cls-3" d="M254.53,205.38l-1.1-1.06,20.13-6.77v1.68q0,.6,0,1.2v0c-1.13,0-2.33-.27-3,1h0C264.7,200.6,260.16,205.18,254.53,205.38Z"/><path class="cls-7" d="M229.3,212.27c1.41.94,0,2.09.22,3.11-3.33-1-6.67,2.77-10,0Z"/><path class="cls-12" d="M273.56,199.23v-1.68l1.87-.38.13,2.08,0,.12Z"/><path class="cls-8" d="M40.56,161.37c-.5,1.73-.6,3.76-3,4C37.85,163.54,38.26,161.75,40.56,161.37Z"/><path class="cls-8" d="M43.54,156.4l-1,2,0-2q.49,0,1,0Z"/><path class="cls-8" d="M41.55,159.37l-1,2.05Z"/><path class="cls-8" d="M42.57,158.37l-1,1Z"/><path class="cls-14" d="M263.49,177.44l2,0-1.22,1.53Z"/><path class="cls-2" d="M441.49,16.42c2.48-5.42,8.65-2,12.12-5.06l3.93,2h0l2,1.81a54.12,54.12,0,0,0,13.05,9c-.86,3.86-3.35,5.4-7.18,5.18s-7.47.17-9.81,3.83l-4.06-1.82Z"/><path class="cls-2" d="M441.65,29.26l-1.06,2.18c-.3-.56-.85-1.11-.87-1.67-.06-1.87-.85-5.28.52-5.27C442.58,24.52,441.07,27.6,441.65,29.26Z"/><path class="cls-8" d="M421.6,21.39a4.43,4.43,0,0,1,.92.06c1,2,3.49,3.16,3,5.88C422.75,26.34,422.47,23.67,421.6,21.39Z"/><path class="cls-8" d="M427.54,33.43c-1.87-1.61-2.15-3.73-1.93-6C427.42,29,427.6,31.2,427.54,33.43Z"/><path class="cls-11" d="M443.5,30.48l-.92-1.09Z"/><path class="cls-6" d="M480.64,26.37c1.65.15,3.44-.5,4.9.79C483.86,27.24,482.07,28,480.64,26.37Z"/><path class="cls-3" d="M443.58,37.5q0-.56,0-1.13a4.23,4.23,0,0,1,.33.79C443.93,37.24,443.7,37.38,443.58,37.5Z"/><path class="cls-3" d="M413.64,166.5c5.17-1.11,9.63-4.14,14.93-5.15,3.29-.63,6-.9,8.85,1l.1,1c-2.79-.09-4.18,1.18-3.92,4-3,.48-3.87-7-8-2.14-3.54,2.42-7.42,4.43-9.94,8.1l-1,0-1-.92-1-1.1Z"/><path class="cls-4" d="M405.53,176.38l1-1Z"/><path class="cls-5" d="M61.54,159.4c1.13.33,3.74-.24,3.12,1-1,1.94-3.87,1.85-6.12,2.05C57.08,159,61.45,161.3,61.54,159.4Z"/><path class="cls-8" d="M48.51,152.37a1.45,1.45,0,0,1,.07-.49,5.84,5.84,0,0,1,4.6-3.17c.2,0,.77.81.68,1a5,5,0,0,1-5.29,2.75Z"/><path class="cls-8" d="M43.55,156.4,44,156c0,.09,0,.22-.09.26a1.3,1.3,0,0,1-.36.13Z"/><path class="cls-8" d="M48.57,152.43l-.47.38.41-.45Z"/><path class="cls-12" d="M274.51,203.37l-3.11,2.08c-4.47-.48.75-3-.83-4h0l3-1v0l2,0h1C276.9,202.1,273.85,201.45,274.51,203.37Z"/><path class="cls-3" d="M276.55,200.41h-1v-1l0-.12Z"/><path class="cls-6" d="M270.58,201.42c1.58,1.08-3.64,3.55.83,4l-.91,1.05a5,5,0,0,0-3.94,1.93c-1.1,0-2.28-.23-3,1-1.11,0-2.31-.22-3,1l-2.17.36c.08.13.2.38.23.37.65-.23,1.29-.5,1.93-.76l3-1c1.08-.05,2.27.22,3-1l3.09,0-.09,1-5,2c-1.11,0-2.29-.2-3,1q0,.49,0,1c-.72,1.2-1.9,1-3,1l0,0,0-1,1.35-.32-.25-.39-1.07.74c-1.12,0-2.31-.18-3,1l0,0c-1.11.06-2.32-.17-3,1l.05,0-3,1,0,0c-2.32-3.57-2.2.15-3,1h0c-1.1.08-2.33-.23-3,1l0,0h-3.12c-1.93-.11-1.93-1.48-1.89-2.89,3.62-6.07,10-7.78,16-10.12C260.16,205.18,264.7,200.6,270.58,201.42Z"/><path class="cls-12" d="M264.56,211.43l5-2q0,1.5,0,3l-1,1-3.07.18-1-.18h0q0-.5,0-1l0,0,2.2-.5-2.18-.52Z"/><path class="cls-12" d="M269.61,208.34l-3.09,0,0,0a5,5,0,0,1,3.94-1.93Z"/><path class="cls-11" d="M139.54,244.42c8.77-4.7,18.48-6.79,27.82-9.86,4.79-1.57,9.27-4.59,14.66-4.16-11.79,7.66-24.44,13.13-38.49,15l0,0C142.56,243.75,140.91,244.66,139.54,244.42Z"/><path class="cls-11" d="M108.53,252.36c4.57-1.51,9.15-2.94,14-2.95,0,.7-3.25,2,.44,2.07,1.89.06,3.76.86,5.64,1.32-1.29,2-3.42,1.43-5.25,1.81a23.44,23.44,0,0,0-2.8.95l-3-.18-9-2.06Q108.55,252.83,108.53,252.36Zm10.64-.58a7.09,7.09,0,0,0-1.71-.31,3.45,3.45,0,0,0-1.06.54,4.54,4.54,0,0,0,1.26.35A5.81,5.81,0,0,0,119.17,251.77Z"/><path class="cls-11" d="M207.57,223.38c2.2-4.86,7.16-3.66,11-5h0q0,.47,0,.93c-.68.36-.79.73,0,1.11h-.07l-2.92,2.9c-2.35-3.07-3.85-1.92-5,1Z"/><path class="cls-3" d="M210.54,224.37c1.13-2.93,2.63-4.09,5-1-1,.23,2.22,4.77-2.07,1.95-1-.68-.66,1.33-.92,2.11l-1-.08Z"/><path class="cls-6" d="M211.5,227.33l1,.08-2,2c-1.11,0-2.29-.2-3,1l-1-.08q0-.48,0-1Z"/><path class="cls-11" d="M182.19,230.45c1.56-2.45,4-2.1,6.39-2.05A10.41,10.41,0,0,1,182.19,230.45Z"/><path class="cls-11" d="M197.53,225.43c1.34-2.7,3.84-1.94,6-2A10,10,0,0,1,197.53,225.43Z"/><path class="cls-11" d="M130.54,247.43c1.56-2,3.76-2.14,6-2A9.8,9.8,0,0,1,130.54,247.43Z"/><path class="cls-3" d="M117.57,255.38l3,.18c-.07,3.84-1.63,2.18-3.1.84Z"/><path class="cls-11" d="M122.53,249.43c1.41-1.65,3.31-.91,5-1C126.14,250,124.26,249.32,122.53,249.43Z"/><path class="cls-6" d="M196.75,235.09c-.8.65-1.09,1-1.44,1.12s-.65-.27-1-.42c.23-.19.42-.46.68-.55A10,10,0,0,1,196.75,235.09Z"/><path class="cls-15" d="M188,238.41l-.79-.5c.28-.14.56-.39.83-.38s.53.28.79.44Z"/><path class="cls-11" d="M136.54,245.43c.7-1.26,1.88-1.09,3-1C138.85,245.63,137.64,245.38,136.54,245.43Z"/><path class="cls-11" d="M140.56,246.42l3-1,0,0c-.68,1.29-1.89,1-3,1Z"/><path class="cls-11" d="M137.55,247.41l3-1,0,0c-.7,1.23-1.88,1-3,1Z"/><path class="cls-11" d="M127.53,248.43c.7-1.26,1.89-1.08,3-1Z"/><path class="cls-11" d="M137.54,247.39c-.62.28-1.25.57-1.88.82,0,0-.16-.24-.25-.37l2.14-.44Z"/><path class="cls-11" d="M132.84,251.84c-.3.16-.56.42-.83.42s-.54-.24-.81-.38c.26-.15.52-.41.79-.42S132.53,251.7,132.84,251.84Z"/><path class="cls-11" d="M194.53,226.43c.71-1.25,1.9-1.07,3-1Z"/><path class="cls-11" d="M191.53,227.43c.7-1.28,1.92-1,3.05-1Z"/><path class="cls-11" d="M207.93,226.86c-.3.16-.56.42-.83.42s-.53-.24-.8-.37c.26-.15.52-.41.79-.42S207.62,226.72,207.93,226.86Z"/><path class="cls-11" d="M188.53,228.43c.71-1.25,1.92-1,3.06-1Z"/><path class="cls-11" d="M203.53,223.44c.64-1,1.29-1.27,2-.05Z"/><path class="cls-11" d="M206.53,229.33q0,.48,0,1l-1.27-.24Z"/><path class="cls-6" d="M191.6,237.2l-.4-.14.46-.44.31.32Z"/><path class="cls-3" d="M167.55,250.41l-1,0q0-.46,0-.91Z"/><path class="cls-3" d="M155,252.13c.11,0,.32.08.32.13a1.17,1.17,0,0,1-.12.4c-.11,0-.32-.08-.32-.13A1.21,1.21,0,0,1,155,252.13Z"/><path class="cls-6" d="M152,253.78l-.16-.54.36-.1Z"/><path class="cls-3" d="M142.55,255.41l-1-2Z"/><path class="cls-3" d="M145.55,256.41l.2-.39-.23.37Z"/><path class="cls-3" d="M153.56,256.39l-.37-.22.34.24Z"/><path class="cls-3" d="M126.55,263.4l0-3,2.48,2.06Z"/><path class="cls-3" d="M131.29,260.43l-.26.32c-.07-.13-.19-.26-.18-.38s.16-.22.25-.33Z"/><path class="cls-3" d="M137.56,259.39l-.72-1c1.13-.25.45.7.68,1Z"/><path class="cls-3" d="M140.56,258.39l-.72-1c1.14-.26.46.7.69,1Z"/><path class="cls-3" d="M132.56,263.39l-.39-.22.36.25Z"/><path class="cls-15" d="M107.52,263.36l-6.75,1.13H94.35l-1.8-.18-5-2.95h12.84v-.91H82.67c-1.37-.27-3,.38-4.06-1l26.91-1,2,.79,2.06,0c1-.11,2.16-.63,2,1.18l-2.89.08-2.17.78-2.06.77,3.1.29Z"/><path class="cls-12" d="M105.52,258.46l-26.91,1-1.95-.08c8.42-1,17-1.44,24.9-5h0l2,.15Z"/><path class="cls-12" d="M109.58,259.22l-2.06,0c.76-1.13-1.57-3.31.65-3.5C110.15,255.59,109.29,257.94,109.58,259.22Z"/><path class="cls-15" d="M103.57,254.58l-2-.15c2-1.66,4.56-1.72,7-2.07q0,.48,0,1Z"/><path class="cls-12" d="M108.66,260.48l2.89-.08q0,.37,0,.74l-2,.32Z"/><path class="cls-15" d="M109.57,261.45l2-.32,1,.25c-.69,1.26-1.92,1.07-3.05,1.14Z"/><path class="cls-6" d="M213.57,229.39c-1,1.39-2,1.31-3,0Z"/><path class="cls-12" d="M247.54,219.4q0,.5,0,1h0l-3,1,0,0h-4l0,0,3-2h4Z"/><path class="cls-12" d="M238.53,222.42v-1l2,0,0,0Z"/><path class="cls-3" d="M239.54,226.39l-1-2Z"/><path class="cls-3" d="M245.55,225.39l-.37-.21.35.23Z"/><path class="cls-3" d="M245.55,221.41l0,1-1-1,0,0Z"/><path class="cls-11" d="M240.55,221.41l-2,0c-.72-1.33-1.12-3-3.11-3q.06-1,.12-2,0-.46,0-.92l3,0c0,1.4,0,2.77,1.89,2.89.73,1.26,2,.95,3.11,1l0,0Z"/><path class="cls-12" d="M258.53,214.39c1.11,0,2.3.2,3-1h3l-1.94,2C261.19,215.25,259.59,215.9,258.53,214.39Z"/><path class="cls-12" d="M255.52,214.42c.74-1.19,1.93-1,3-1l0,0,0,1Z"/><path class="cls-12" d="M252.52,215.42c.72-1.2,1.93-1,3-1l0,1Z"/><path class="cls-12" d="M250.54,219.4h-3l3-1v0Q250.53,218.9,250.54,219.4Z"/><path class="cls-3" d="M252.54,217.4l-2,1v0l2-1Z"/><path class="cls-6" d="M245.55,221.41h-1l3-1Z"/><path class="cls-9" d="M249.53,216.41l3-1,0,1,0,0Z"/><path class="cls-6" d="M249.53,216.41l3,0v1l-2,1-3,1h-4l0,0v-1l0,0,3-1h0l3-1Z"/><path class="cls-4" d="M414.59,173.39l1,0a2.17,2.17,0,0,1,2.11,1.87l-.25.25A3,3,0,0,1,414.59,173.39Z"/><path class="cls-1" d="M421.55,204.39l-1-.89Z"/><path class="cls-2" d="M467.46,167.42c3.64,4,8.76,5.9,13.15,8.83-.35,5.11-5.64,4.22-8,6.66-3.79,3.9-8,5.37-13.17,4.56-6.82-2.77-8.73-9.47-12-15,2.15-3.53,8-2.23,9.17-7h0l5.09,0Z"/><path class="cls-15" d="M447.38,172.42c3.31,5.57,5.22,12.27,12,15l.31,1.88c-5.81-2.4-9.54,2.51-14.23,4.06q-.06-1-.13-1.92c1.81-1.66.42-1.84-.94-2-2.09-2.36-.19-7.15-4.83-8-2.57.19-4.66,1-5,4h0l-2,1a6.16,6.16,0,0,1-.07,1c-2.13,2.27.2,4.29.32,6.44.2,3.63.92,7.85-5.22,5.52,1-7.62-3.33-13.89-5.27-20.76,3.59.25,6.72-.07,6.89-4.81,0-1.18-1.24-2.62.51-3.57,2.75,0,2.69,3.35,4.85,4l0,1c-.45,1.73-3.69.12-3.17,2.51.1.46,2.72.76,4,.47,2.78-.61-.76-1.83.09-2.75,1.46,0,2.89-.15,2.94-2.13.71-2.69,4.91-5.59-.48-7.9l1.34-1.06Z"/><path class="cls-15" d="M461.53,189.45l-1,0A6.15,6.15,0,0,1,461.53,189.45Z"/><path class="cls-14" d="M432.5,187.44a6.14,6.14,0,0,0,.07-1l2-1h0l5-2.1c-.25,4.17,3.12,7.75,2,12.07l-7-.07Z"/><path class="cls-11" d="M439.59,183.35l-5,2.1c.34-3,2.43-3.78,5-4Q439.59,182.42,439.59,183.35Z"/><path class="cls-11" d="M444.43,189.45c1.36.2,2.74.38.94,2Z"/><path class="cls-11" d="M429.73,170.25c-1.75.95-.46,2.39-.51,3.57-.17,4.74-3.3,5.07-6.89,4.81l-4.61-3.42a2.17,2.17,0,0,0-2.11-1.87c2.52-3.67,6.4-5.68,9.94-8.1C428.39,165.71,429.06,168,429.73,170.25Z"/><path class="cls-11" d="M439.39,164.47l-1.34,1.06c5.4,2.31,1.19,5.21.48,7.9l-3-3-.07-.09-.91-1,0-.06-1-1.92,0,0c-.26-2.87,1.13-4.14,3.92-4Z"/><path class="cls-2" d="M456.55,165.4l-3.3-.58c.17-.39.25-1,.52-1.13,1.53-.5,2.56,0,2.78,1.72Z"/><path class="cls-6" d="M209.53,119.36c.44-3.13-1-4.34-4-4-.4-1.64,2.9-4-.91-5,2.16-7.47,8.73-9,14.9-11.09,3.47-.56,5,2.21,7.07,4.09-1.25,3.71,2.93,8.84-1.7,11.23S214.67,117.86,209.53,119.36Z"/><path class="cls-11" d="M178.5,127.39l1.25-1.94h3.79q0,3,0,6c-1.56,6.91,1.49,12.86,3.94,18.93-6.62-2.75-7.9-8.48-7.38-14.59C180.35,132.62,180.44,129.92,178.5,127.39Z"/><path class="cls-11" d="M226.56,103.42c-2.06-1.87-3.6-4.65-7.07-4.09,3.61-5.32,9.83-5.68,15.06-7.92l1.1,4c-2.49-.33-4.32.44-5.1,3Z"/><path class="cls-3" d="M204.59,110.43c3.81,1,.51,3.33.91,5-1.59,3.33-3.24,6.65-4.76,10-.67,1.48.35,4.59-2,4.2s-.71-3.35-1.15-5.12C199.33,119.52,200.7,114.35,204.59,110.43Z"/><path class="cls-13" d="M183.52,131.42q0-3,0-6l2-1C184.89,126.75,187.2,129.93,183.52,131.42Z"/><path class="cls-13" d="M227.55,89.43l3-1c-.1,1.15-.39,2.27-1.67,2.52C227.8,91.16,227.71,90.19,227.55,89.43Z"/><path class="cls-5" d="M183.49,125.43h-3.74c-.15-2.67,2.59-3.46,3.52-5.43Q183.38,122.72,183.49,125.43Z"/><path class="cls-15" d="M101.57,254.41c-7.93,3.53-16.48,3.94-24.9,5-1.94.09-2.11,1.47-2.16,2.95l-3,.15q0-1.54,0-3.07h0a1.91,1.91,0,0,0,2-1.95c5-.64,10.07,1,14.93-1C92.53,253.61,97.11,254.42,101.57,254.41Z"/><path class="cls-11" d="M218.54,218.39,219,218c0,.09,0,.21-.07.26a1.32,1.32,0,0,1-.34.16Z"/><path class="cls-12" d="M218.51,220.45c-.77-.39-.65-.76,0-1.11Z"/><path class="cls-6" d="M73.57,257.45a1.91,1.91,0,0,1-2,1.95l0-1.95Z"/><path class="cls-15" d="M69.54,261.48v1l-5.16-.07C65.84,260.77,67.78,261.59,69.54,261.48Z"/><path class="cls-6" d="M291.52,35.43l-.91,1.47-.57-.57,1.47-.91Z"/><path class="cls-1" d="M304.52,29.42l7,1,.11,1q0,2-.08,4l-6,.09c-.23-1.36.35-2.93-1-4Z"/><path class="cls-11" d="M304.52,29.42l.07,2c-.64,2.84-1.54,5.2-5.05,2.75l-1.88-6.83c2,.73,3.53,2.74,6,2Z"/><path class="cls-11" d="M295.52,32.37a2,2,0,0,1-2.21-2c0-.28.85-.62,1.31-.94Z"/><path class="cls-11" d="M461.51,10.37c-.14-2.47,1.25-3,3.42-3,3.29.08,6.59,0,9.89-.07,1.65-.05,3.78-1.63,4.48,1.14.77,3-1.6,3.5-3.77,3.95C471.11,10,466.6,8.19,461.51,10.37Z"/><path class="cls-3" d="M492.62,15.59c-1-.77-3.36.84-3-1.32.3-1.74,2.56-2.39,4.35-2.74,1.56-.3,2.65.35,2.43,2.11C496.1,16.22,493.92,15,492.62,15.59Z"/><path class="cls-11" d="M482.53,12.4c-1.42-1.77-1.72-3.27,1-4Z"/><path class="cls-11" d="M459.55,15.22l-2-1.81A1.83,1.83,0,0,1,459.55,15.22Z"/><path class="cls-12" d="M352.52,22.44c-1.87,3.86-5.37,1.12-8,2C347.17,23.63,348.64,18.12,352.52,22.44Z"/><path class="cls-12" d="M344.54,24.4l-.91,1Z"/><path class="cls-3" d="M497.51,164.4c.3-.39.53-.94.93-1.15,2.05-1.12,3.57-4,6.48-2.41.69.37,1.48,1.95,1.22,2.47-1.39,2.79-4.18,2-6.57,2.11-.66,0-1.33,0-2,0Q497.54,164.9,497.51,164.4Z"/><path class="cls-11" d="M497.51,164.4q0,.5.05,1a4.88,4.88,0,0,1-.4-.7S497.39,164.5,497.51,164.4Z"/><path class="cls-12" d="M92.56,264.33l1.8.18c-.52,3.33-3.24,1.24-4.82,2l-14,0-3,0-3-.05q0-.45,0-.89l18.87-.17Z"/><path class="cls-15" d="M75.56,266.41l14,0a7.34,7.34,0,0,1,0,.86c-2.27.63-4.86-.82-6.94,1.05h0C80.12,268.12,77.2,269.53,75.56,266.41Z"/><path class="cls-15" d="M102.48,269.3l-16.86.16-3.05-1.07h0l16,0C99.88,268.56,101.39,268,102.48,269.3Z"/><path class="cls-15" d="M69.55,266.33l3,.05q0,1.51,0,3l-3,0Q69.55,267.86,69.55,266.33Z"/><path class="cls-9" d="M71.55,262.48l3-.15c3.71,0,7.37.13,10.75,1.92H70.67Z"/><path class="cls-15" d="M70.67,264.26H85.26l3.15,1-18.87.17Z"/><path class="cls-11" d="M102.48,269.3c-1.09-1.28-2.59-.74-3.94-.9-2.79-2.18-6-.42-9-1.08a7.34,7.34,0,0,0,0-.86c1.58-.72,4.3,1.37,4.82-2h6.42c3.22.35,3.42,2.42,2.79,4.94Z"/><path class="cls-6" d="M109.57,261.45l0,1.08-2,.84q0-.52,0-1l-1-1.06,2.17-.78Z"/><path class="cls-3" d="M226.56,103.42l4-5c1.19,6.18,6.3,4.33,10.19,5l15.79,16-4,2c-3.17,1.62-7.95-2-8.61-.68-3.2,6.44-8.65,4.25-13.46,4.7-4.18-6.1-9.28-1.54-13.67-.71-5.12,1-7.14-.45-7.27-5.36,5.15-1.5,10.66-2.29,15.34-4.71S225.31,107.13,226.56,103.42Zm4.19,13.86c2.76-2.09,5.93-3.33,9.07-4.69,1.68-.72-.24-3.14-1.35-4.54-2.47,2.09-5,4.15-7.4,6.29a15.19,15.19,0,0,0-1.69,2.1Z"/><path class="cls-6" d="M240.74,103.38c-3.89-.65-9,1.2-10.19-5,.78-2.57,2.62-3.33,5.1-3Z"/><path class="cls-3" d="M228.58,145.42c1.35-1.73,4.49-1.29,4.95-4.1,0-2.72,4.14-1.12,4-3.93,3.6-1.58,6.57-1,9.23,2.11,1.91,2.21,4.37,3.93,6.39,6.05,2.55,2.68,4.15,1.92,5.38-1.14.53-.81,1-2,2.18-1.43,1.31.71.93,2.07.16,3-5.32,6.28-12.63,9.75-19.83,13.07-2.32,1.07-4.23-2.61-6.36-4.07-1.72-1.18-2.66-3.47-5.13-3.58h0Z"/><path class="cls-4" d="M258.54,144.42c-1.23,3.05-2.83,3.82-5.38,1.14-2-2.12-4.48-3.84-6.39-6.05-2.66-3.07-5.63-3.69-9.23-2.11-3-3.63-5.69-7.4-7.07-12,4.81-.45,10.26,1.74,13.46-4.7.66-1.33,5.45,2.3,8.61.68C248.75,127.81,251.46,138.21,258.54,144.42ZM235.45,128l-1.3-.89c-.15.25-.49.57-.43.75a4.51,4.51,0,0,0,.72,1.06Z"/><path class="cls-4" d="M171.5,192.36c1.08-1.42,2.56-1,4-.87C174.39,192.89,172.88,192.35,171.5,192.36Z"/><path class="cls-5" d="M164.21,141.18c-.18,1.51-1.11,2.23-2.34,2a3.67,3.67,0,0,1-3.21-3.71,1.7,1.7,0,0,1,2.15-2C162.84,137.88,163.35,139.77,164.21,141.18Z"/><path class="cls-5" d="M157.57,136.14c-1.78-.06-1.94-1-2-2-.06-1.76.29-3.37,2.43-3.48a2.64,2.64,0,0,1,1.66,1.21A47.64,47.64,0,0,1,157.57,136.14Z"/><path class="cls-8" d="M186.55,172.44c0-1.52-3.29-1.84-2-3.13,2.06-2,2.17,2.2,4,2l2,2.13Z"/><path class="cls-8" d="M198.56,178.39c-2.57,2.33-5.68,3-9,3C192.09,179.06,195.21,178.38,198.56,178.39Z"/><path class="cls-8" d="M189.56,181.39l0,1c-2.35-2.06-4.7,5.28-7.05,0Z"/><path class="cls-8" d="M195.53,175.39c1.82.08,3.66.14,4.5,2.17a12,12,0,0,1-1.49.86Z"/><path class="cls-8" d="M169,164c2-1.54,3.68-2,5.86-1.26C173,163.85,171.43,164.68,169,164Z"/><path class="cls-8" d="M167.3,164c-1.53,2.13-2.87,2.41-4.33,2.29-.15,0-.25-.57-.37-.88Z"/><path class="cls-8" d="M190.53,173.39a5.36,5.36,0,0,1,5,2C193.58,175.5,191.57,175.66,190.53,173.39Z"/><path class="cls-8" d="M157.5,167.36c.68-.26,1.36-.52,2.06-.75,0,0,.17.25.26.38l-2.25.45Z"/><path class="cls-8" d="M154.53,168.38c.7-1.2,1.88-1,3-1l.07.08c-.72,1.2-1.91,1-3,1Z"/><path class="cls-8" d="M151.1,169.85a4.7,4.7,0,0,1,.27.78c0,.07-.21.24-.32.24s-.31-.2-.29-.27A4.71,4.71,0,0,1,151.1,169.85Z"/><path class="cls-8" d="M154.55,168.41c-.38.25-.76.5-1.16.73,0,0-.17-.25-.26-.39l1.39-.37Z"/><path class="cls-8" d="M176.9,183.49c.58.31,1.83-.44,1.68.89,0,.34-1.31.8-2,.75s-2-.78-2-1C174.9,182.67,176.13,183.87,176.9,183.49Z"/><path class="cls-8" d="M169.55,182.39l2.17.4c-.08.13-.21.39-.24.37-.65-.24-1.3-.5-1.94-.76Z"/><path class="cls-8" d="M169.54,182.41l-2-1,0,0,2,1Z"/><path class="cls-8" d="M167.57,181.38l-1.39-.3c.73-1,1-.09,1.36.34Z"/><path class="cls-12" d="M228.58,145.42l1,6a4,4,0,0,1-3.91-3.7C225.41,145.56,227,145.39,228.58,145.42Z"/><path class="cls-3" d="M235.57,215.48q0,.46,0,.92a7.56,7.56,0,0,1-1.3-.82C234.56,214.8,235.06,214.69,235.57,215.48Z"/><path class="cls-6" d="M273.57,200.41l-3,1C271.24,200.15,272.44,200.39,273.57,200.41Z"/><path class="cls-6" d="M275.53,199.37v1l-2,0q0-.6,0-1.2Z"/><path class="cls-2" d="M429.73,170.25c-.67-2.27-1.34-4.54-4.18-5,4.17-4.88,5,2.62,8,2.14l0,0,1,1.92,0,.06.91,1,.07.09-1,3.85C432.42,173.6,432.48,170.24,429.73,170.25Z"/><path class="cls-12" d="M249.57,216.39l-3,1C247.37,216.55,247.25,212.82,249.57,216.39Z"/><path class="cls-9" d="M266.52,208.39c-.7,1.21-1.89.94-3,1l0,0c.7-1.21,1.88-1,3-1Z"/><path class="cls-12" d="M246.55,217.39l-3,1C244.22,217.17,245.45,217.47,246.55,217.39Z"/><path class="cls-12" d="M243.56,218.38v1c-1.12-.09-2.38.23-3.11-1Z"/><path class="cls-12" d="M260.55,210.41c.72-1.22,1.91-1,3-1l0,0-3,1Z"/><path class="cls-12" d="M260.54,210.39c-.64.26-1.28.52-1.93.76,0,0-.15-.24-.23-.37l2.17-.36Z"/><path class="cls-9" d="M261.54,212.41c.73-1.18,1.91-1,3-1l0,0,0,1,0,0Z"/><path class="cls-11" d="M261.54,212.41h3q0,.5,0,1h-3Q261.55,212.9,261.54,212.41Z"/><path class="cls-9" d="M258.57,213.41l1.07-.74.25.39-1.35.32Z"/><path class="cls-11" d="M264.51,212.42l0-1,2.18.52Z"/><path class="cls-12" d="M119.17,251.77a5.81,5.81,0,0,1-1.51.58,4.54,4.54,0,0,1-1.26-.35,3.45,3.45,0,0,1,1.06-.54A7.09,7.09,0,0,1,119.17,251.77Z"/><path class="cls-6" d="M88.41,265.27l-3.15-1c-3.38-1.79-7-2-10.75-1.93,0-1.48.21-2.86,2.16-2.95l1.95.08c1.09,1.39,2.69.74,4.06,1,1.38,1.57,3.24.61,4.86.91l5,2.95Z"/><path class="cls-12" d="M87.53,261.38c-1.62-.3-3.48.65-4.86-.91h17.69v.91Z"/><path class="cls-12" d="M106.49,261.26l1,1.06-3.1-.29Z"/><path class="cls-8" d="M434.58,174.29l1-3.85,3,3c-.06,2-1.48,2.09-2.94,2.13a7.68,7.68,0,0,0-1-.23Z"/><path class="cls-11" d="M434.63,175.33a7.68,7.68,0,0,1,1,.23c-.85.92,2.68,2.14-.09,2.75-1.31.29-3.93,0-4-.47C430.94,175.45,434.18,177.05,434.63,175.33Z"/><path class="cls-11" d="M434.57,185.45l-2,1Z"/><path class="cls-8" d="M434.55,169.35l-1-1.92Z"/><path class="cls-8" d="M435.51,170.36l-.91-1Z"/><path class="cls-12" d="M89.53,267.32c3,.66,6.23-1.1,9,1.08l-16,0C84.67,266.51,87.26,268,89.53,267.32Z"/><path class="cls-6" d="M230.75,117.28l-1.38-.83a15.19,15.19,0,0,1,1.69-2.1c2.43-2.14,4.93-4.2,7.4-6.29,1.12,1.4,3,3.82,1.35,4.54C236.68,114,233.51,115.19,230.75,117.28Z"/><path class="cls-3" d="M235.45,128l-1,.93a4.51,4.51,0,0,1-.72-1.06c-.06-.18.27-.5.43-.75Z"/></g></g></svg>