<svg id="Layer_6" data-name="Layer 6" xmlns="http://www.w3.org/2000/svg" viewBox="0 0 274.31 437.2"><defs><style>.cls-1{fill:#fdfdfd;}.cls-2{fill:#f0f0f0;}.cls-3{fill:#c3c3c3;}.cls-4{fill:#7c7c7c;}.cls-5{fill:#b8b8b8;}.cls-6{fill:#d6d6d6;}.cls-7{fill:#878787;}.cls-8{fill:#1b1b1b;}.cls-9{fill:#1c1c1c;}.cls-10{fill:#b3b3b3;}.cls-11{fill:#6f6f6f;}.cls-12{fill:#313131;}.cls-13{fill:#5b5b5b;}.cls-14{fill:#2a2a2a;}.cls-15{fill:#1e1e1e;}.cls-16{fill:#232323;}.cls-17{fill:#2f2f2f;}.cls-18{fill:#5c5c5c;}.cls-19{fill:#696969;}.cls-20{fill:#292929;}.cls-21{fill:#7a7a7a;}.cls-22{fill:#333;}.cls-23{fill:#868686;}.cls-24{fill:#5a5a5a;}.cls-25{fill:#363636;}.cls-26{fill:#565656;}.cls-27{fill:#525252;}.cls-28{fill:#777;}.cls-29{fill:#5e5e5e;}.cls-30{fill:#373737;}.cls-31{fill:#4d4d4d;}.cls-32{fill:#3a3a3a;}.cls-33{fill:#101010;}.cls-34{fill:#585858;}.cls-35{fill:#2d2d2d;}.cls-36{fill:#b1b1b1;}.cls-37{fill:#989898;}.cls-38{fill:#838383;}.cls-39{fill:#5d5d5d;}.cls-40{fill:#9a9a9a;}.cls-41{fill:#7d7d7d;}.cls-42{fill:#4b4b4b;}.cls-43{fill:#c8c8c8;}.cls-44{fill:#c5c5c5;}.cls-45{fill:#787878;}.cls-46{fill:#535353;}.cls-47{fill:#acacac;}.cls-48{fill:#e6e6e6;}.cls-49{fill:#323232;}.cls-50{fill:#bfbfbf;}.cls-51{fill:silver;}.cls-52{fill:#646464;}.cls-53{fill:#252525;}.cls-54{fill:#bcbcbc;}.cls-55{fill:#424242;}.cls-56{fill:#626262;}.cls-57{fill:#d5d5d5;}.cls-58{fill:#828282;}.cls-59{fill:#b2b2b2;}.cls-60{fill:#3e3e3e;}.cls-61{fill:#636363;}.cls-62{fill:#a7a7a7;}.cls-63{fill:#cdcdcd;}.cls-64{fill:#8f8f8f;}.cls-65{fill:#cfcfcf;}.cls-66{fill:#949494;}.cls-67{fill:#bebebe;}.cls-68{fill:#bbb;}.cls-69{fill:#6a6a6a;}.cls-70{fill:#3f3f3f;}.cls-71{fill:#545454;}.cls-72{fill:#616161;}.cls-73{fill:#393939;}.cls-74{fill:#474747;}.cls-75{fill:#9c9c9c;}.cls-76{fill:#080808;}.cls-77{fill:#515151;}.cls-78{fill:#0b0b0b;}.cls-79{fill:#0a0a0a;}.cls-80{fill:#9e9e9e;}.cls-81{fill:#a5a5a5;}.cls-82{fill:#383838;}.cls-83{fill:#b9b9b9;}.cls-84{fill:#343434;}.cls-85{fill:#4e4e4e;}.cls-86{fill:#818181;}.cls-87{fill:gray;}.cls-88{fill:#757575;}.cls-89{fill:#aaa;}.cls-90{fill:#ababab;}.cls-91{fill:#767676;}.cls-92{fill:#202020;}.cls-93{fill:#9d9d9d;}.cls-94{fill:#9f9f9f;}.cls-95{fill:#dadada;}.cls-96{fill:#686868;}.cls-97{fill:#010101;}.cls-98{fill:#444;}.cls-99{fill:#a6a6a6;}.cls-100{fill:#a8a8a8;}.cls-101{fill:#4f4f4f;}.cls-102{fill:#939393;}.cls-103{fill:#6c6c6c;}.cls-104{fill:#8b8b8b;}.cls-105{fill:#707070;}.cls-106{fill:#727272;}.cls-107{fill:#8a8a8a;}.cls-108{fill:#414141;}.cls-109{fill:#212121;}.cls-110{fill:#606060;}.cls-111{fill:#cacaca;}.cls-112{fill:#858585;}.cls-113{fill:#5f5f5f;}.cls-114{fill:#484848;}.cls-115{fill:#909090;}.cls-116{fill:#929292;}.cls-117{fill:#6e6e6e;}.cls-118{fill:#d3d3d3;}</style></defs><title>luke2</title><path d="M1072.77,840.72v21a8.86,8.86,0,0,0-1.66,7.07c.48,3.49-.09,6.76-4.54,7.67-1.81.37-3,1.94-4.33,3.21-4.21,4-8.38,8-15,4.14-2.36-1.4-7.75,2.4-8.85,5.78-.36,1.09,0,2.34-.69,3.38-6.42,7-10.71,15.4-15.67,23.37-2.69,1.19-5,3.19-7.67,4.28-5.94,2.4-9.84.37-15.48-7.67-.73-1.69-1.22-3.64-.57-5.24,1.63-4,0-7.25-1.78-10.56-.64-5.89-3.39-10.81-7-15.32-7.15-8.82-15.27-15.9-27.3-17.12-5.35-.54-10.51-1-15.53,1.35-4.89.62-9.51,3.67-14.69,1.64-2.09-2.09-.78-3.69.76-5.25,6.33-4.21,12.69-8.38,20.4-9.65,4.49-.74,9-1.57,13.56-.56,2.34,2.66,5.49,3.66,8.83,4.28,8,1.48,13.78,6.72,20,11.32a14.21,14.21,0,0,0,3.29,2.16c2.64,1.61,5.67,2.79,6.69,6.16.55,1.81-.54,3.18-1.21,4.66a4.45,4.45,0,0,1,.46-.86c.47-.86,1.18-1.9.89-2.74-1.09-3.09.35-5.3,2.13-7.51,2-2.43,1.45-4.55-.94-6.38a35.46,35.46,0,0,0-7.41-7.27c-1.55-1.17-3.4-2.25-3-4.71a3.09,3.09,0,0,1,1.47-2.63c3.62-1.36,5.35,2,7.92,3.19a1.47,1.47,0,0,0,1.23-.14,1.2,1.2,0,0,0-.87-.25c-2.53-.68-4.08-2.89-6.38-3.92-4.25-1.9-8.63.42-12.91-.43-7.39-1.38-14.75-3.76-22.22-.43-6.15,1.36-12.42,2.19-18.41,4.2A42.22,42.22,0,0,0,933.1,861.9c-7.36,2.75-10.19,8.9-10.52,15.9-.29,6.07-3,9.54-8.18,11.74a4.75,4.75,0,0,1-2.1.62c-2.47.18-4.35-.67-4.63-3.33-.36-3.42-2.08-4.29-5.37-4.06-5.41.38-6.44-.76-5.9-6.18.27-2.75-1.8-5.52.14-8.2.27-.37.36-.56.31-.51a5,5,0,0,0-.9,1.18,91.25,91.25,0,0,1-5.45,8.27c-1.93,2.87-4.68,4.67-7.49,6.35-3.51,2.09-5.27,1.28-7.1-2.77a3.79,3.79,0,0,1,.05-1.48c1.43-2,3.09-4,3.36-6.6.83-3.52,3.75-6.65,2-10.67-.2-.44.09-1.16-.21-1.44-4.44-4.1-3.53-9.93-5.14-14.94-1.4-4.38-2.19-8.19.43-12.21a4.19,4.19,0,0,0,.24-2.44,9.9,9.9,0,0,1,.22-3.83c.58-4.08,3-7.26,5.26-10.48a5.77,5.77,0,0,0,1.44-3c.38-4.18,2-5.4,6.16-4.23,3.83,1.08,7.65,2.22,11.48,3.31,2.11.6,4.22,1,6.36.17,1.29-.15,2.64.1,3.87-.54,8.73-3.24,18-3.13,27-4.15,1.33-.15,2.81-.51,3.93.13,7.68,4.32,15.2,1.71,22.62-.59,3.52-1.09,7-2.32,10.62-1.81,3.19.44,5.37-1.39,7.88-2.55.75-.32,1.57-.86,2.34-.56,3.87,1.48,7.23.37,10.38-1.91,5.33-1,9.22-4.71,13.63-7.43a83.69,83.69,0,0,1,8.57-4.94c1.83-.85,3.74-1.66,5.53,0s1.33,3.55.45,5.45c-3,5.49-2.07,11.62-2.64,17.46-.41,4.25,2.29,6.59,7.69,8.08,2.55,4.22,7.77,4.15,11.23,6.91,1.51.93,3.2,1.57,4.66,2.54,3.21,2.13,4.67.76,5.49-2.37a27.37,27.37,0,0,1,2.29-1.79c3.2-1,5.59-3.19,8.11-5.34,3.2-2.73,6.32-6.75,11.54-3.9v18C1070.18,836,1069.89,838.38,1072.77,840.72Z" transform="translate(-798.55 -527.6)"/><path class="cls-1" d="M1072.77,896.72c0,21.5-.07,43,.09,64.5,0,3-.6,3.59-3.59,3.58q-84.25-.17-168.5-.08a1.74,1.74,0,0,1,.6-1.68c1.87-1.09,3.94-.84,6-.83,15.25,0,30.51.37,45.75-.12,10.88-.35,21.82-.22,32.62-1.77,2.67-1.62,2.64-4,1.76-6.56-3.51-10.13,0-18.53,6.39-26.2,1-1.25,1.74-2.68,2.76-3.92,1.49-1.8,3.36-2.38,5.27-1.09,2.5,1.68,4.74,3.73,8.1,2.85a20.59,20.59,0,0,0,10.9-6.89c2.41-3,4.43-6.25,6.8-9.27a25.85,25.85,0,0,1,8-6.63c3.95-2.19,7.77-2.76,11.47.6,2.32,2.11,5,2.33,7.89,1.13,5-2.08,10.62-3,14.55-7.26A2.32,2.32,0,0,1,1072.77,896.72Z" transform="translate(-798.55 -527.6)"/><path class="cls-2" d="M866.21,961.77c8.71.41,17.48.94,26.24.47a22.36,22.36,0,0,1,6.93.35,3,3,0,0,1,1.44,1.25q0,.43-.05.87" transform="translate(-798.55 -527.6)"/><path class="cls-3" d="M1072.77,815.72c-8,.77-10.82,10.5-19,11-1.37-1.06-2.79-.34-4.23-.18-9,1-15.08-5.93-12.71-14.51.92-3.34,1.51-6.2-2.34-8.55-3.33-2-2.68-5.44,1.12-7.19,2.79-1.29,5.89-1.9,8.31-3.92a30.51,30.51,0,0,1,6.64.65c2.81.75,5.33,2.21,8,3.27,3.75,4.47,10.46,4,14.2,8.49Z" transform="translate(-798.55 -527.6)"/><path class="cls-4" d="M1072.77,840.72c-1.74-.29-4.44,1.22-4.7-2s1.31-5.06,4.7-5Z" transform="translate(-798.55 -527.6)"/><path class="cls-5" d="M1022.71,793.69c1-1,1.88-2.25.8-3.45-1.32-1.47-2.76-.16-4,.54-7.57,4.34-15.11,8.73-22.66,13.11-7.79,1.92-12.75-4.09-18.9-6.76a6.86,6.86,0,0,1-2.63-2.84c-.6-1.17-1.14-2.34-.58-3.69,1.39-2.43,3.48-2,5.65-1.41,3.21.93,6.05,2.66,9,4.13.58.29,1.5.84,1.77.38s-.61-1-1.14-1.3c-3.31-1.89-6.59-3.82-9.89-5.73-2.11-1.22-4.27-2.57-2.88-5.39s3.77-2,6-1c1.2.56,2.39,1.15,3.6,1.68-1.24-.54-2.43-1.18-3.66-1.75a14.38,14.38,0,0,0-5.1-1.52c-2.15-.16-4.38-.82-5.7-2.64-1.68-2.31-4.21-2.92-6.57-4-2.26-3-1.14-6.27-1-9.5a12.9,12.9,0,0,1,.43-1.42c2.11-3.49,5-2.28,7.24-.64,3.78,2.71,7.44,4.82,12.31,3.22a4.09,4.09,0,0,1,3.61.94,32.75,32.75,0,0,0,7.07,3.65c2.27,1,4.4,2.37,6.86,2.93-1-2-3.2-2.85-4.49-4.6-1.08-1.46-1.73-2.88-.64-4.55s2.86-1.4,4.47-.82c3.2,1.15,5.58,3.54,8.2,5.58,2,1.54,3.92,3.18,6.75,2.16,2.35-.85,4.93-1.44,5.61-4.34s-1.1-4.72-3.08-6.34c-5-4.11-11.16-6.57-16.12-10.81-1.38-1.18-2.79-2-1.1-3.91a22.09,22.09,0,0,1,3.57-1.41c6.39,1.82,12.69,3.89,19.08,5.72,1.49.43,2.84,1.11,4.4.46,6,1.4,6.6,2.31,4.94,7.94a26.07,26.07,0,0,0-.77,7.89c.05,3.27-.61,6.28-2.89,8.74-2.44,2.63-2.87,4.81,1.12,6.29a2.54,2.54,0,0,1,1.23,1.52c-.67,5-4.66,8.58-5.92,13.4-.39,1.5-2.26,1.78-3.85,1A1.07,1.07,0,0,1,1022.71,793.69Z" transform="translate(-798.55 -527.6)"/><path class="cls-6" d="M1022.56,794.6c4.62-3.63,3.68-10.88,9.11-14-1.54-2.87.45-4.65,2.42-5.59,5.45-2.59,7.33-6.24,4.72-11.89a2.1,2.1,0,0,1,.17-1.44,5.06,5.06,0,0,0,.58-3.62,3.84,3.84,0,0,1,.55-2c2.07-3.87,1.35-7.75.08-11.63a16.41,16.41,0,0,0-.59-2c-.36-3.45-3.12-5-5.47-6.84-1-1-2.5-1.53-2.75-3.17-.25-3.18,1.14-4.5,4.39-4.42,5.95.14,7.32-2.14,4.84-7.67-.93-2.07-2.74-3.93-1.4-6.47a2.23,2.23,0,0,1,1.58-1.11c5.63,2.51,5,8.83,7.92,13,.31,15.79-1.79,31.55-.07,47.38.48,4.4,2.79,7.71,4.1,11.57-2.61,3.27-5.66.68-8.5.65-2.81,1.48.42,3.93-.86,5.64,0,1,.4,2,.33,3-.27,2-1.75,2.56-3.38,3.17-1.82.68-4.91,1.52-5,2.55-.29,2.74,2.86.36,4,1.7,2.82,3.37,1.27,6.93.26,10.33s-2.17,6.41,1,9.14,6.51,4.75,10.83,3.25c3-1.05,4.48-1,2.42,2.59l-1.94,1.2c-3.07,3.55-6.81,4.15-11.05,2.47-6.1-4.84-12.14-9.7-14.42-17.7-.88-3.07-3.49-5.31-4.47-8.38C1018.12,797.75,1018.14,797.42,1022.56,794.6Z" transform="translate(-798.55 -527.6)"/><path class="cls-7" d="M932.83,866.79l14-2.93c1.07,1.18,2.48.88,3.71.6,9-2,17.05,1.38,25.17,4.37a8.47,8.47,0,0,1,5.93,6.68c.6,3.27,2.48,6.09,3.35,9.27.39,1.45.74,3-.72,4s-2.59-.22-3.93-.8c-2.31-1-4-5.36-7.42-1.7-5.87,3.17-11.23,2-16.25-1.95-3.51-2.4-10.18-1.78-14.27,1.33-1.16.88-1.89,2.41-3.66,2.38-4.75-.5-3.66-4.33-4.16-7.25,0-2.41,1.79-3.06,3.57-3.7.4-.25,1-.46,1.05-.93.14-.73-.49-.71-.94-.61-1.1.25-2.08,1-3.31.76-2.46-.21-4.92-.09-7.35-.43-1.93-.27-3.48-1-3.75-3.18a4.14,4.14,0,0,1,2.52-4.19C928.3,867.53,930.41,866.44,932.83,866.79Z" transform="translate(-798.55 -527.6)"/><path class="cls-8" d="M877.66,880.56c2.48,3.53,5.07,1.94,7-.33,3.2-3.8,6.07-7.89,8.88-12,1.86-2.73,3.92-5,7.39-5.32,2-.18,4.51-.28,5,2.13.52,2.65-2.13,2.39-3.79,2.78-7.66,1.8-1.25,7.58-2.86,11.35-.9,2.11,3.31.87,5.11.47,4.62-1,8.6-1.73,6,5.3a2.77,2.77,0,0,0,1.41,3.78c2,1.33,1.44,3.09.73,4.81a44.74,44.74,0,0,1-3.37,6.59c-1.88,2.66-5.14,2.88-7.78,4s-4.49-.84-4.75-3.53c-.23-2.45-1.06-2.25-2.79-1.33a49.53,49.53,0,0,0-7.05,4.6c-1.81,1.4-4.28,2.71-6.31.57s-1.72-4.94.18-7.2,3.41-5.3,6.12-7.13c.77-.52,1.67-1.48.88-2.51s-1.93-.57-2.74,0c-2.47,1.61-5.25,2.88-6.8,5.62a3.8,3.8,0,0,1-2,2.34c-5.21.5-5.82,0-5.41-4.92a16.8,16.8,0,0,0-.29-3.82C871.27,882.92,872.84,879.83,877.66,880.56Z" transform="translate(-798.55 -527.6)"/><path class="cls-9" d="M976.7,793.74l2,2.1c1.37,1.56,3.21,2.55,4.7,3.91,1.27,1.17,3.41,2.74,1.25,5-13.81,2.51-26,10.53-41.86,6.77-9.08-2.15-21.45-2.81-31,4.15-2-3.61.35-5.85,2.61-8.1,1.55-1.3,1.67-2.62,1-4.66-1.81-5.45-.15-7.69,5.46-8.14a3.2,3.2,0,0,0,2.32-.67c3.32-3.56,5.76-2.05,8.54,1,3,3.28,7.08,5.39,10.19,8.67,1.71,1.8,4.1,1.56,5.85-.12,6.2-6,13.27-4.85,20.48-2.7a18.11,18.11,0,0,0,3.16,1c1.39.14,3,1.21,4.22-.36s0-2.68-.88-4C973,795,973.57,794.09,976.7,793.74Z" transform="translate(-798.55 -527.6)"/><path class="cls-10" d="M971.65,885.72l-.36-9.36c4.25.81,4.52,5.39,7.26,7.63,1.38,1.13,2.79,2.21,4.18,3.31,1.36-2.1-1-3.16-1.34-4.76-4-17-17.56-16.56-30.72-16.93-1.49,0-3.53.9-3.89-1.76,25-4.77,42.2,5.76,51.91,31.86-1.56,2.85-2.85,1.14-3.91-.35s-1-3.64-3.26-3.87c-1,3.44,1.1,6.08,2.29,8.81,1.55,3.56,4,6.73,4.41,10.75.14,1.49,1.13,2.17,2.19,2.92,1.3.92,3.07,1.62,2.3,3.81-7-2-6.41,6.54-11,7.88a3.5,3.5,0,0,1-.88-3.18c1.63-9.59-4.25-16.55-8.47-24.09-.19-.33-.35-.33-.62.5a4.19,4.19,0,0,1-1.34,2c-2.48,1.73-4.85,5.25-7.72.48.7-3.55-.9-6.68-1.78-9.95C970.39,889.48,969.23,887.35,971.65,885.72Z" transform="translate(-798.55 -527.6)"/><path class="cls-11" d="M906.83,898.74l5-10,1-1c1.34-1.82,2.8-3,5.41-2.66,2.86.38,4.7-2.18,7-3.36s4.25-2.72,7-1.62c.42.24,1.07.53,1.09.92.25,4.56,3.51,6.91,6.71,9.33.1,5.44-4.3,7.44-7.85,9.91-3.33,2.31-7.52,2.52-11.31,3.71-1.31.41-3,.12-1,2.47,2.32,2.79.6,8-3,10.92a14,14,0,0,1-3.84,2.3c-3.43,1.12-6.79,3.44-10.4.47C899.89,912.16,900.88,905,906.83,898.74Z" transform="translate(-798.55 -527.6)"/><path class="cls-12" d="M907.76,815.73c-3-.1-6,.14-8.93-.38a70,70,0,0,1-10-2.91c-6.17-2.1-.4,5.84-5.44,6.22-3,.23-2.19,6-3.32,9.28a2.64,2.64,0,0,1-1.29-.5c-2.4-4.48-3.43-9.67-7-13.56-.46-2,.94-3,2.14-4.12,2.43-2.32,2.92-4.74.16-7.19s-3.09-5.21-.68-8.23c1.57-2,2-4.49,3.05-6.75,1.1-2.47,2.66-3.82,5.4-2.06,5.56,2.58,4.45,8.38,6.17,12.81-1.29,12.55.48,10.61,9.22,13.46a32.49,32.49,0,0,0,9.39,1.59,3,3,0,0,1,1.26.91A1.15,1.15,0,0,1,907.76,815.73Z" transform="translate(-798.55 -527.6)"/><path class="cls-8" d="M879.73,831.69c-4.17,9.56-.66,18.49,2.55,27.3,2,5.45,2.26,10.55-.52,15.7-2.51-4.3-7.14-7.59-6.57-13.37a3.48,3.48,0,0,0-2.7-4.12c-2.08-.66-4.09-1.41-5-3.66-.33-1.79.38-3.48.5-5.23.36-4.6,1-9.11-1.37-13.58-1.64-3.16.8-5,3.65-5.47C873.62,828.75,877,829.14,879.73,831.69Z" transform="translate(-798.55 -527.6)"/><path class="cls-13" d="M931.72,859.69c3.42-4.55,7.54-8.2,13-10.05,5.89.44,11.53-2.18,17.27-1.87,7.8.42,15.59.27,23.39.48,1.75,0,3.75-.45,4.75,1.71.09,2.55-1.73,3.2-3.53,2.68-2.87-.83-5,.43-7.28,1.57-3.43.17-6.86,0-10.29,0a16.81,16.81,0,0,1-2.41-.33c-12.87-3-22.37,5.11-32.85,10-1.22.45-2.46.73-3.18,2.09s-2.33,2.34-3.63.94c-1.46-1.57.32-2.67,1.34-3.61C929.58,862.16,931,861.22,931.72,859.69Z" transform="translate(-798.55 -527.6)"/><path class="cls-14" d="M931.72,859.69a3.2,3.2,0,0,1-.27.93c-1.07,1.6-2.18,3.18-3.27,4.77l5.64-1.55c-.83.81-1.85,1.56-1,2.95-1.94,2.57-8.14,2.82-6.75,5.8s7,.47,10.62,1.25c1.16,1.51,5.1,1.27,3,4.8l-4,2c-.64,1.29-1.54,1.88-2.95,1.07l-20,6C923.19,881.14,919.42,865,931.72,859.69Z" transform="translate(-798.55 -527.6)"/><path class="cls-15" d="M989.83,850.66c-11.22-1.51-22.47-1.79-33.59.41-4.2.83-8.12,3-11.48-1.44,6-3.13,12.53-4,19.07-4.88,8,.06,15.88,2,23.9,1,4.35-1.78,8.71-2.53,13.1-.13,0,1.74-.21,3.4-2.14,4.17l-.92,1.94c-1.83,2.45-4,1.3-6.12.57A2.85,2.85,0,0,1,989.83,850.66Z" transform="translate(-798.55 -527.6)"/><path class="cls-16" d="M1052.75,853.7a230,230,0,0,0-19.67,32.36c-1.16,2.3-2.74,4.75-5.74,5a2.86,2.86,0,0,1-2.11-1.67c-1-3.12,1.33-4.87,3.14-6.79,9.22-9.8,14.68-22.15,22.34-33C1052.85,850.27,1051.78,852.5,1052.75,853.7Z" transform="translate(-798.55 -527.6)"/><path class="cls-17" d="M868.92,853.67c14.95.49,8.78,13.88,12.84,21l-3.91,5.06a3.79,3.79,0,0,1-2.58-1.29c-4.61-6.25-6.86-13.41-7.92-21C867.14,856,867.25,854.47,868.92,853.67Z" transform="translate(-798.55 -527.6)"/><path class="cls-18" d="M991.61,850.87l6.16.84,11.13,10c2.21,4.06-.49,6.55-3,8.93a3,3,0,0,1-4.46-.09c-2-2.32-4.9-3.14-7.34-4.7a5,5,0,0,1-1.71-3.49c.24-1.79.74-3.24-1.44-4.77C987.65,855.25,988.06,853.62,991.61,850.87Z" transform="translate(-798.55 -527.6)"/><path class="cls-19" d="M1000.81,831.63l2.89.26c2.06.62,4.5,1,3.84,4.05-.56,2.64-3,4.26-5,3.75-7.65-1.89-15.27-.29-22.88-.52-2.86-.09-4.43-1.39-2.88-4.49,4.4-2.25,9.16-2.84,14-3.07A26,26,0,0,1,1000.81,831.63Z" transform="translate(-798.55 -527.6)"/><path class="cls-20" d="M994.74,864.73c5.36,1.93,11.65,8.15,14.17-3.07,3.23,3.13,3.7,6.55.85,10.12-3.13,3.92-2.69,8.71-3.43,13.2-.19,1.19.86,2.89-1,3.22-.51.09-1.92-1.75-2-2.78-.41-5.2,0-10.63-5.61-13.67-.13-3.13-5-3.54-4.14-7.25A.74.74,0,0,1,994.74,864.73Z" transform="translate(-798.55 -527.6)"/><path class="cls-21" d="M868.92,853.67c-1.1,10.09,5.61,17.51,8.93,26.09a7.18,7.18,0,0,0-.19.8l-5.91,6.15c-.88,2.8-1.89,5.35-5.56,3-.36-7.35.33-14.7.14-22,0-1.8.29-3.62-.61-5.31-1-5.53-2.25-11.07.26-16.55,3.2-1.44,2.84,1.54,3.72,3Z" transform="translate(-798.55 -527.6)"/><path class="cls-12" d="M869.7,848.82l-3-3c-5-.06-4.49-4.69-6.15-7.52a15.92,15.92,0,0,0-1.28-3.76c-.82-2.26.05-4.12,2.16-4.82,3.28-1.09,6-3.22,9.36-4.16s5.81,1.37,8.73,2l.51.41-.32,3.75c-6.74-.37-13.55-1.09-8.42,9.5C872.2,843,870.31,846.24,869.7,848.82Z" transform="translate(-798.55 -527.6)"/><path class="cls-22" d="M976.74,834.68c.15,1.79.76,3.67,2.71,3.63,8.11-.2,16.3-.14,24.3-1.28,4.17-.59,2.2-3.39-.05-5.14,3.6,0,8.64-.74,8.74,3.74,0,2.15-3.22,7.62-8.6,6.14-9-2.46-18.14-2.13-27.29-2.16-1.56,0-3.15-.59-3.27-2.4C973.1,834.83,975.11,834.9,976.74,834.68Z" transform="translate(-798.55 -527.6)"/><path class="cls-23" d="M1002.72,917.8c-9.16-7.1-10.63-18-14-28,2.54-1.4,3.52,1,4.31,2.27,3.88,6.37,8.36,12.6,7.57,20.7,6.28,9.57,13,9,20.14.94C1017.24,922.18,1009.69,923.91,1002.72,917.8Z" transform="translate(-798.55 -527.6)"/><path class="cls-24" d="M993.77,864.72c.93,2.58,5,3.37,4,7-8.28-7-17-13.27-28.05-15.05a3.43,3.43,0,0,1-3-2.86l1.41-1.05c2.51.66,5.17.36,7.64,1.11,2.31.7,4-.16,5.43-1.81,4.23-.45,7,1.81,9.07,5.12A65.45,65.45,0,0,0,993.77,864.72Z" transform="translate(-798.55 -527.6)"/><path class="cls-25" d="M1022.56,794.6c-4.42,3.18-2.26,6.09.37,9,1.77,4.69,3.52,9.39,5.29,14.08.53,1.39,1.72,2.63.42,4.17-2.68-.74-5.16-2.56-8.18-.39a1.89,1.89,0,0,1-2.74-2.22c2-6.55,3.83-12.86.82-19.78-1.18-2.7,1.37-4.82,4.17-5.75A3.37,3.37,0,0,1,1022.56,794.6Z" transform="translate(-798.55 -527.6)"/><path class="cls-26" d="M1000.59,912.73c-1.75-8.8-6.18-16.21-11.88-23-.53-1.93-2.64-3.54-1.22-5.88,1.55,1.35,3.08,2.71,4.65,4,2.63,2.22,2.17,7.06,6.56,7.79C1001.84,901.11,1000.64,907,1000.59,912.73Z" transform="translate(-798.55 -527.6)"/><path class="cls-27" d="M987.73,845.74c-8.14,3.93-16.06,2.42-23.9-1C971.95,841.48,979.85,843.44,987.73,845.74Z" transform="translate(-798.55 -527.6)"/><path class="cls-28" d="M1028.64,821.83c-3.51-5.58-5-11.78-5.71-18.25,6.09,8.62,8.57,19.7,17.86,26.12a1.46,1.46,0,0,1-2,.07Z" transform="translate(-798.55 -527.6)"/><path class="cls-29" d="M984.62,804.79l-5.95-8.94,18.2,8C992.83,804.88,989,808.22,984.62,804.79Z" transform="translate(-798.55 -527.6)"/><path class="cls-19" d="M900.94,824.37c.19,2.34-1.77,2.74-3.33,3.6-2.67,1.45-4.51.19-5.79-1.93a25.46,25.46,0,0,1-1.76-4.91l1.7-.53C892.86,826.71,900.47,816.68,900.94,824.37Z" transform="translate(-798.55 -527.6)"/><path class="cls-30" d="M1052.75,853.7c-1.7-.84-1.94-2.41-2-4.05,1.95-4.3,3.45-11.69,7.9-10.43,3,.85-2.84,6.93-4,10.93A21.46,21.46,0,0,1,1052.75,853.7Z" transform="translate(-798.55 -527.6)"/><path class="cls-26" d="M907.76,815.73q0-.43-.07-.86a13.6,13.6,0,0,0-1.2-5.76c-.62-1.71-1.33-3.52.72-4.88a11.12,11.12,0,0,1,6.58-1.79c2.45,1.83,4.38,3.87,3,7.27-3.15.76-4.26,3.23-5,6Z" transform="translate(-798.55 -527.6)"/><path class="cls-31" d="M998.69,849.78c-1-2.25-.57-3.8,2.14-4.16l5.91,4.14c2.09,1.94,2.53,3.49-1,4.1Z" transform="translate(-798.55 -527.6)"/><path class="cls-9" d="M1005.77,853.85c1.46-1.1,1.28-2.59,1-4.1,1.64-.82,3.6-3,5-.44.74,1.39.31,4.13-.66,5.52C1009.12,857.58,1007.47,854.72,1005.77,853.85Z" transform="translate(-798.55 -527.6)"/><path class="cls-32" d="M1038.74,829.78l2-.07c4.24,2.71,7.16-2.44,11-1.84.2,1.5,2.17,2.78.6,4.48s-3.21.61-4.9,0C1044.67,831.27,1041.21,832.22,1038.74,829.78Z" transform="translate(-798.55 -527.6)"/><path class="cls-22" d="M1000.81,831.63l-10.07,0A13.38,13.38,0,0,1,1000.81,831.63Z" transform="translate(-798.55 -527.6)"/><path class="cls-33" d="M946.73,581.72l.16,1c-.07,1-.61,2.21-.1,2.9,4.56,6.17,1.19,11.61-1.37,17.16-5,1.22-3.6-2.73-4.15-5.12.11-.83-.17-1.69,0-2.45.3,3.28-.78,6.37-.63,9.62s-2.14,4.14-5.83,2.89a5,5,0,0,1-1-4.2c1-4.71.87-9.48.86-14.24-.56-4-4-4.84-7-6a2.18,2.18,0,0,0-2.84,1.34c-1.14,2.29-3.06,2.78-5.38,2.4-2.8-2-3.43-4.64-2.56-7.8.3-1.09.91-2.19-.11-3.21a1.13,1.13,0,0,0-1.36-.2c-1.44.8-1.47,2.25-1.1,3.47,1.2,4-.37,7-3.1,9.62-3.36.28-6.65.53-9.39-2.2a4.55,4.55,0,0,0-5.13-.88c-2.67,1.16-5,2.68-8.33,2.17-2.12-.33-1.59,2.47-2.32,3.83a3.38,3.38,0,0,1-1,1,4.29,4.29,0,0,1-2.08.32c-1.71-.18-2.51-2.47-4.54-2-5.41-.54-6.15-1.41-5.34-6.3a13.27,13.27,0,0,1,.92-3.82c1.28-1.56,3.33-2.19,4.56-3.81a49.72,49.72,0,0,0,4.48-4.85c10.27-4.23,20.59-8.05,31.88-8.15.31,0,.91.75.9-.08-.08-4.79,3.75-3.05,5.57-2.75,3.41.57,7-1.49,10.19.69,4.08,2,8.5,3.64,10.54,8.26C942.84,574.49,946,577.6,946.73,581.72Z" transform="translate(-798.55 -527.6)"/><path class="cls-34" d="M904.83,533.79c4.67.22,9.45-1.15,14,.87,1.3,2,3.53,1.67,5.4,2.33,5.23,1.85,10.64,3.55,13.78,8.76-1,2.35.74,3.81,1.74,5.53,2.11,3.63,1.16,5.34-3.06,5.54-4.91-1.29-7.44-5.14-9.85-9.13.36-3.76-2.93-4.1-5-4.35a49.37,49.37,0,0,0-26,3.83c-4.22,1.84-2.56,5.57-3.72,8.38a5.57,5.57,0,0,1-2.85,1.54c-7.43,0-11.32-6.33-7.14-12.64,3.43-5.18,8-9.57,14.23-11.72C899.34,531.8,901.77,535.25,904.83,533.79Z" transform="translate(-798.55 -527.6)"/><path class="cls-35" d="M891.88,554.55c-1.62-1.28-5,.2-5.3-2.68-.27-2.68,2.52-3.63,4.47-4.81,11.86-7.15,24.24-8.71,37.11-3.05,1.9.84,5.59,1.41,4.57,4.09-.74,1.95-3.83-.26-5.89-.42-7.39-7-11.67-1.11-16.14,3.93-4.12,4.45-10.07,3.35-15.15,4.86A3.35,3.35,0,0,1,891.88,554.55Z" transform="translate(-798.55 -527.6)"/><path class="cls-36" d="M955.73,583.75c5.15,7.13.73,17.09,7.07,23.87-2.83,3.59-5.14,7.54-7.84,11.22-1.57,1.24-1.38,4-3.76,4.51a7.38,7.38,0,0,1-3.15.88c-5.24-.38-8.49-5.6-6.89-11.6a33.78,33.78,0,0,0,1.14-7.28,3.45,3.45,0,0,1,.82-1.34c4.27-4.56,9.78-8.39,9.26-15.81a4.21,4.21,0,0,1,2.39-4.49Z" transform="translate(-798.55 -527.6)"/><path class="cls-37" d="M904.83,533.79l-7.21,1.78c-5.9.4-10,4.46-14.74,7.24-2.21-.83-4.74-.66-6.75-2.14a3.37,3.37,0,0,1-.69-1.27c2.35-3.49,4.51-7.21,9.36-7.65l14.94-4.15c5.9.52,11.8,1,17.69,1.61,1.17.13,2.25,1.07,3.37,1.64a22.43,22.43,0,0,1-3.48.89c-4.26.4-8.53.69-12.79,1a1.88,1.88,0,0,0-.46.17Z" transform="translate(-798.55 -527.6)"/><path class="cls-38" d="M891.88,554.55l18.82-2.94c2.82,3.25,4.21-.4,5.86-1.45,2.13-1.35,3.85-3.44,6.12-.37a4.39,4.39,0,0,0-.39,4.55,3,3,0,0,1-1.46,4.09,89.2,89.2,0,0,0-11,1.25c-4.82-2-9.36-1.39-13.83,1.21-5.08,3-11,2.85-16.52,3.95a2.87,2.87,0,0,1-3.45-2.25,32.63,32.63,0,0,1,.81-17.06,2.4,2.4,0,0,1,1.5-1.23c4-.27,2.81,2.57,2.67,4.66-.46,6.76,2.45,9,8.86,6.8Z" transform="translate(-798.55 -527.6)"/><path class="cls-39" d="M954.78,583.71c1.14,6.67-.84,12.87-3.52,18.72-.84,1.84-4.62-1.12-6.49,1.27a.91.91,0,0,1-.14-1.35l2.26-19.65C949.35,584.36,952.82,578.13,954.78,583.71Z" transform="translate(-798.55 -527.6)"/><path class="cls-22" d="M936.75,545.75A32.88,32.88,0,0,0,921.34,538c-1.32-.3-5.08.28-2.51-3.33,12.68.38,26.33,11.31,29.46,23.62.25,1,1.08,2.82-.43,2.73-1.11-.07-2.1-2.09-3.14-3.24A35.59,35.59,0,0,1,936.75,545.75Z" transform="translate(-798.55 -527.6)"/><path class="cls-40" d="M927,554.62c5.11,2.36,10,5.73,15.38,6.87,10.05,2.14,9.52,7.22,5.4,14.19-3.12.65-2.68-2.35-3.83-3.72-3.56-7.24-11-9-17.42-12.06-1.73-.82-3.67-.86-3.34-3.45C924,554.77,925.58,554.88,927,554.62Z" transform="translate(-798.55 -527.6)"/><path class="cls-41" d="M936.75,545.75c4,3.15,7.63,6.48,8,12-2.79.66-5.58,1.25-8-1,3.08-1.92,1.57-4.09.27-6.16C935.93,549,934.35,547.49,936.75,545.75Z" transform="translate(-798.55 -527.6)"/><path class="cls-42" d="M927,554.62l-3.26,2.3a1.27,1.27,0,0,1-1.86-.41c-1.57-1.58-5.6.79-5.46-2.43.13-2.94,3-4.5,6.24-4.29Z" transform="translate(-798.55 -527.6)"/><path class="cls-29" d="M945.68,570.86l2.12,4.83-1.08,6c-4.31-1.92-5.16-5.93-6-9.93C942,569.51,943.56,568.67,945.68,570.86Z" transform="translate(-798.55 -527.6)"/><path class="cls-43" d="M990.89,634.67l3.3,1.91c-3.28,5.09,6.59,11.31-1.37,16a2,2,0,0,1-1,.9c-2.73.11-5.48-1.43-6.26-3.26-1.72-4.06-5-4.21-8.3-5a5.94,5.94,0,0,1-1.31-.57c-2.7-2.43-6.08-.86-9.1-1.5-1.76-.37-3.8.48-5.1-1.49a3.69,3.69,0,0,1-.33-1.59c.36-2.56,2.16-3.41,4.41-3.72a29.25,29.25,0,0,0,7.49-2C979.19,632.14,985,633.85,990.89,634.67Z" transform="translate(-798.55 -527.6)"/><path class="cls-44" d="M1017.77,658.64c-10.9,2.1-21.92.41-32.87,1-1.55-3.56,1.12-4.61,3.52-5.16,3.33-.76,6.82-.1,10.24-.3.28,0,.56.3.79,0-.28.24-.47-.16-.64-.13-1.38.25-2.53.09-3.09-1.42C1004.42,649.69,1011.39,653.1,1017.77,658.64Z" transform="translate(-798.55 -527.6)"/><path class="cls-45" d="M995.73,652.6c3.88.55,8,.16,11.23,3.13-3.49,0-7,0-10.46-.09-4.35-.06-8.8-.43-11.6,4l-2.18.19c-1.37,2.29-3.43,2.09-5.54,1.45-2.32-.7-4.78-.9-7-2a4,4,0,0,1-1.17-1.1c-.17-6.54.65-7.84,6.72-7.49,5.35.31,10.91-.43,16,2l1-.12Z" transform="translate(-798.55 -527.6)"/><path class="cls-46" d="M963.8,608.66c5.33,5.15,2.76,11.19,1.92,17l-.85,1.11c-1,1.54-1,4.39-4.16,3.1C955.65,621.81,957,612.47,963.8,608.66Z" transform="translate(-798.55 -527.6)"/><path class="cls-47" d="M961.73,629.66l3.14-2.85c.82,3.56,3.57,3.88,6.49,3.82,6.82-.13,13.4.83,19.52,4-5.55-.82-10.39,3.93-16.07,2.06-3-3.22-7-2.19-10.68-2.7S960.07,632.73,961.73,629.66Z" transform="translate(-798.55 -527.6)"/><path class="cls-48" d="M986.69,954.7c3.2,2.42,2.55,5.73,2.08,9l-87.95.14-.09-.22a2,2,0,0,1-.15-1.76c1.49-3,4-3.26,7.09-3.14,9.39.38,18.75,1.29,28.14,1.47a26.57,26.57,0,0,0,7.84-1,3.17,3.17,0,0,1,3.29.33c2.67,2.61,5.08,1.23,7.54-.22a4.27,4.27,0,0,1,1.57-.26c3.15-.38,3.11-2.2,1.56-4.13-2.34-2.9-3.06-6.61-5.18-9.61-1.21-1.71-1.6-3.64-.17-5.55s3.38-2.12,5.6-1.56c6.59,1.66,12.93,4.1,19.56,5.69a8.32,8.32,0,0,1,5.89,6C983.87,952,984.48,953.88,986.69,954.7Z" transform="translate(-798.55 -527.6)"/><path class="cls-49" d="M961.73,629.66c2.78,4.74,7.21.95,10.71,2.05,1.44.45,3.72-.71,4.19,1.38.23,1-1.16,2.42-1.81,3.65l-12.25,3.9c-.54,2.07-1,4.21-3.93,3.81-1.91-.73-1.9-2.47-2.24-4.1-1.56-7.5-3.15-15-2.9-22.72,2.57-3.83,3.7-9,9.31-10l1,1C959.38,615.29,958.28,622.25,961.73,629.66Z" transform="translate(-798.55 -527.6)"/><path class="cls-50" d="M1040.79,712.74c1.28,3.68,2.72,7.32,3.81,11.06,1.91,6.53-1.13,8.45-7.16,7.25-1.71-.34-3.53-1.46-4.76.85-3.77,2.63-7.24-.31-10.7-.89-11.77-2-22.91-1.35-33.05,5.67a3.07,3.07,0,0,1-2.51-.45c-1.42-3.92.33-7.59,4.73-9.65a31.57,31.57,0,0,1,11-2.73c1.71-.28,3.51.68,5.21-.57,2-1.5,2.18-2.73-.18-3.95a4.92,4.92,0,0,1-2.09-1.92c1-7.7,4.1-14.15,11.2-18.09,1.32-.73,2.71-1.38,4.15-.27s1,2.49.79,4c-.36,2.49-3.07,6.3,2.73,6.12a4.91,4.91,0,0,1,2.33.55c.75.36,1.61.68,2.18-.14.7-1,.06-1.86-.69-2.5a17.84,17.84,0,0,0-5.54-3.71c-2.15-2.78,1.3-6.12-.9-8.9-.77-2.88-3.51-5.18-2.53-8.57,6.07-1.09,10,.8,10.76,7.47.11,1,.38,2.73,1.94,2.2.68-.23.89-1.88,1.31-2.88Z" transform="translate(-798.55 -527.6)"/><path class="cls-51" d="M986.69,954.7c-1.06-.28-2.83-.27-3.07-.88-4.28-10.53-15.66-8.28-23.17-12.93-1.88-1.17-4.6-1.85-6.37.51s.33,4,1.4,5.8c1.62,2.7,3.49,5.28,4.94,8.06,2.05,3.92,1.28,6.47-3.76,6.33a24.36,24.36,0,0,0-4.38-4.65c-1.82-1.35-2.51-3.26-2.83-5.56-1-6.89-3.05-13.54-5.06-20.18-1.22-4-8.67-6.85-12.2-5.06-2.4,0-5.1,2.26-7.08-1-1.35-2.22-2.13-4.56-1-7,1.46-3.07,4.24-3.94,7.46-3.81a19,19,0,0,1,3.44.41c8.31,1.89,8.34,1.9,11.85-6,1.58-3.55,3.11-7.11,5.81-10,2.06-.91,4.23-2.5,6.17,0,1.67,2.19,1,4.29-.66,6.26a3.36,3.36,0,0,0-.57,3.68,5.19,5.19,0,0,0,1.28,1.3c2,1.5,5.4,1.27,5.83,4.7a2.23,2.23,0,0,1-.33,1.4c-3.29,4.07-3,5.11,2.2,6.79a29.74,29.74,0,0,1,12.67,11.5c1.31,2.22,3.37,3,5.29,4.24C985,944,984.14,949.58,986.69,954.7Z" transform="translate(-798.55 -527.6)"/><path class="cls-7" d="M984.58,938.62c-1.62,1.63.47,5.44-2.58,5.57-1.06,0-2.64-3.41-3.35-5.48-2.26-6.62-7.76-10.09-12.92-13.93-4.18-5.74-4.18-5.74-.47-8.43,2.35-1.16,4.07.57,6,1.3.71.27,1.49.65,2.26.09-.61-.26-1.31-.21-1.92-.46a10.84,10.84,0,0,1-5.83-13.32c.93-2.53,3.11-3.55,5.1-2.51,4,2.11,9.26,2.39,11.66,7.35,1,2.11,3.36,3.06,5.56,3.87,3.44,3.67,4,7,1.78,11.49-1.19,2.41-2.72,4.71-2,7.62Z" transform="translate(-798.55 -527.6)"/><path class="cls-52" d="M987.89,931.76c-5.18-.12-2-3.29-1.49-4.86,1.3-4.09,4.46-8,.34-12.16-3.19-4.6-8.51-8.18-7.09-15,.74-3.68-5.34-7.76-1.31-9.94,2.26-1.22,4.48,5.2,6.43,8.23,5.34,8.32,12.64,16.42,7,27.62Z" transform="translate(-798.55 -527.6)"/><path class="cls-53" d="M1030.76,676.73c1.27,2.48,2.59,4.94,1,7.79l-53,1.15c-3.41-.14-6.63,1.26-10,1.26a6.85,6.85,0,0,1-2.65-.48,4.71,4.71,0,0,1-3.66-2.47c-1.26-5.32.31-9.57,4.25-11.55,5,1.25,10.19.69,15.29.79s10.14-.21,15.14,1c3.55.51,7.41-1.17,10.65,1.51l8.93.11c4.63,1.21,9.44-.47,14.06.91Z" transform="translate(-798.55 -527.6)"/><path class="cls-54" d="M1003.83,670.76l1.07-.85,18.33.84c1.46.07,2.73.62,2.78,2.23.06,1.92-1.61,1.85-2.87,1.88-5.13.09-10.27.07-15.4.1a4.69,4.69,0,0,1-3.24,0C1002.61,673.8,1002.64,672.37,1003.83,670.76Z" transform="translate(-798.55 -527.6)"/><path class="cls-55" d="M1030.77,676.73l-14.06-.91C1021.4,676.08,1026.18,674.91,1030.77,676.73Z" transform="translate(-798.55 -527.6)"/><path class="cls-55" d="M1004.95,674.57l2.8.38q0,.38,0,.75l-11.06-.11C999.07,672.11,1002.07,673.84,1004.95,674.57Z" transform="translate(-798.55 -527.6)"/><path class="cls-56" d="M963.76,683.69l3,1.09c1.94,4,.56,8,.39,12,0,.61.58.07,0,.43.21-.27-.19-.45-.14-.61.72-2,.47-4.07.67-6.11s-.27-3.93.93-5.67l10.11.8c-1.86,1.29-4.72,2.21-5.35,3.94-1,2.63-1.51,6.61-.15,8.57s4.23-1.12,6.39-2c6.74-2.81,13.38-5.84,20.07-8.78a4.81,4.81,0,0,1,5.17.42,3.1,3.1,0,0,1-.71,3.59c-6.41,1.59-12.19,4.85-18.34,7.13a30.42,30.42,0,0,0-8.51,5.1c-2.13,1.71-3.18,3.73-2.67,6.47.13.75.33,1.49.51,2.23-1.52,5.73,1.21,11.07,1.53,16.64.08,1.46.56,2.92.53,4.42-.15,2.12.51,4.62-2.51,5.41a2.92,2.92,0,0,1-2.91-1.46,23.31,23.31,0,0,1-1.58-3.08c-2.93-7.11-5.41-14.36-10.13-20.69-2.15-2.88-3.76-6.63-2.73-10.69,5.13-4.06,5.09-7.7-.14-10.18-1.62-2.41-5.37-3.42-4.74-7.29C955.33,681.86,958.1,681.44,963.76,683.69Z" transform="translate(-798.55 -527.6)"/><path class="cls-57" d="M972.82,711.5l-.27-1.7c-.21-2.95,1.63-4,4.12-4.39A55.62,55.62,0,0,0,984,704c1.28-.36,2.88-.74,3.21-2.07,1.6-6.42,7.49-6.69,12.14-8.74,4.15-.09,7.6-1.4,9.54-5.39a16.91,16.91,0,0,1,9.93-1.84c2.92,1.82,4.05,4.56,4.07,7.88.88,2.13.14,3.62-2,4.07a23,23,0,0,0-12.37,7.6c-3.74,4.18-8.22,2.32-12.45,2.76-5.95.88-11.56,3.09-17.4,4.37C976.53,713.06,974.38,713.79,972.82,711.5Z" transform="translate(-798.55 -527.6)"/><path class="cls-51" d="M1008.84,687.77l6.53,3.44c-2.42,3.09-6,2.22-9.22,2.74-2.13.35-4.29.46-6.44.68-1.73-3.35,1.87-3.39,3.07-4.92l2.15-1.91Z" transform="translate(-798.55 -527.6)"/><path class="cls-58" d="M875.87,581.74c-.11,1.31-.26,2.62-.31,3.94,0,.94.05,1.88.09,2.82a24.26,24.26,0,0,0,1.32-2.2c1.77-3.76,2.63-1.51,3.53.51-.94,3.19,1.55,5.63,1.84,8.53.24,2.48,1.73,5.55-1.9,6.82-1.72.6-.28,1.08-.17,1.53.19.82.54,1.76.05,2.4-3.59,4.71-3,10.47-4,15.81-.56,3-2.14,2.87-4.29,2.19-2.84-.59-3.56-2.67-3.66-5.18-.07-1.83-1-3.53-.76-5.39,3.08-3.17,3.85-7.11,3.71-11.34,0-.61.15-1.57-.61-1.61-.6,0-.83.9-1,1.53a10.9,10.9,0,0,0-.05,5.37c.45,2.14.16,3.93-2,5-2.49,0-4.72-1.19-7.22-1.45-4.07-.44-4.71-4.23-5.45-7.43s-1.16-6.33,2.5-8.08c3-1.42,4.35-3.93,5.24-6.91.62-2.06,1-4.21,2.38-6,.63-.8,1.23-2,.68-2.78-4.27-5.77.14-11.06,1-16.43.84-5.1,2-10.15,2.54-15.31-1-3.75,2.22-4.11,4.33-5.36l1.23-2.88c.14-.52.46-.65.94-.46q.08.29.14.59c1,.89,2.09,2,1.31,3.37-2.09,3.68-.6,7.82-1.73,11.67-1.3,4.43-.36,8.61,2,12.84C880.14,572.48,878.29,577.32,875.87,581.74Z" transform="translate(-798.55 -527.6)"/><path class="cls-59" d="M868.63,612.94c4,2.65.38,8.15,4.1,10.9a.63.63,0,0,1,.22.71q-.14.34-.27.34c-5.53-.86-6.62,3.07-7.8,7.07a9.72,9.72,0,0,1-1.86,2.58,9.87,9.87,0,0,1-.87-3c.18-4.15-.22-8.54,1-12.38,2.17-6.71-.79-7.95-6.37-7.53-7.45-11-5.72-18.49,1-30.63,5.56-10,7.45-22.1,11-33.27.26-.5.55-.54.87-.06.57,8.35.1,16.58-3,24.48a3.85,3.85,0,0,0-.37,2.39c3,8.42-.18,18.06-8,23.75-2.17,1.58-1.68,3.89-1.22,5.93.66,2.92,1.51,5.87,5.22,6.48,1.78.29,3.52.78,5.28,1.18A.92.92,0,0,1,868.63,612.94Z" transform="translate(-798.55 -527.6)"/><path class="cls-44" d="M875.76,539.38l-.94.46-.05-1.13c3.07-2.71,3.11-9.78,10-6.95Z" transform="translate(-798.55 -527.6)"/><path class="cls-44" d="M869.66,547.67l-.87.06c-1.21-4.37,1.77-4.72,4.81-5Z" transform="translate(-798.55 -527.6)"/><path class="cls-6" d="M1001.71,744.81c6.95,4.25,14.08,8.24,20.78,12.85,5.1,3.5,3.22,9.12-1,13.06-10,9.23-11.58-4.51-17.64-5.56-1.64-.28-3.13-1.41-4.7-2.15-.47,2.37,1.69,3,2.91,4.11,3.06,2.91,7,4.9,9,8.89-4.83,1.34-8.29-2.28-12.43-3.46-6.38-1.82-11.31-7.16-19.36-5.47-3.5.73-8.18-4.17-12.32-6.51-2.1-1.56-1.31-3.08.05-4.6,2.28-2.06,5-1.73,7.47-.86,5.4,1.92,10.67.93,16,.06a42.17,42.17,0,0,0-5.12-3.58c-1.85-1.2-2.87-2.81-2-5,.95-2.38,2.91-2.4,5-1.81a35.7,35.7,0,0,1,5.79,2.35,35.05,35.05,0,0,0-4.84-2.09c-3-1.06-6.07-2-3.28-6.15a3.14,3.14,0,0,1,1.49-.56C993.13,738.48,998.07,740.22,1001.71,744.81Z" transform="translate(-798.55 -527.6)"/><path class="cls-60" d="M916.76,809.71l-4-6c-2.42-2.26-4-8.7-2.77-11.07s3.32-1.48,5.2-1.33c6-.46,6-.46,4-7.43-.34-2.67-1.94-4.83-2.94-7.24a3.28,3.28,0,0,1,.51-2.08c2.76-2.28,4.76-1.25,6.15,1.57.78,1.59,1.07,3.56,3.58,3,4-.24,6.26,1.72,7,5.56.25,1.34.36,2.77,2,3.1,6.69,1.32,13,5.16,20.32,1.5,4.21-2.11,7.06,1.36,9.5,4.43.41.52.7,1.13,1.16,1.62,0,0-.13-.13-.41-.48a3.21,3.21,0,0,1-.73-1.3c-.72-3.55,3-7.27,8.19-8.14,2.1,1.15,3.46,2.64,2.39,5.24l.78,3.06c-.23.7-.8,1.49-.64,2.09.7,2.68,4.82,5,2.06,7.86-2.43,2.52-6,.29-9-.27-7.69-1.44-15.25-3.93-21.35,4.12-1.82,2.41-5.19,1.28-7.52-1-3.79-3.65-7.7-7.17-11.46-10.85-1.63-1.59-2.6.07-3.85.2-9.57,1-7.92,6.94-6.41,13.07A11.49,11.49,0,0,1,916.76,809.71Z" transform="translate(-798.55 -527.6)"/><path class="cls-61" d="M972.73,786.73c-3.94,3.27-9,6.42-.87,10.74.7.38,1,1.56,1.45,2.37-.91-.11-2.11.12-2.69-.38-6.41-5.54-12.93-7.64-22.08-6.47-6.13.79-16.52,1.07-17.94-10.31-.1-.82-2.41-1.36-3.7-2-4.65-2.68-4.53-6.08.28-8.94a3.51,3.51,0,0,1,1.65.22,5.27,5.27,0,0,1,2.51,3.52c1.38,4.89,5,6.08,9.6,7,6.1,1.18,12.58-.91,18.42,2.45,1.57.9,3.87.67,4.29-1.78.63-3.65-3-2.05-4.42-3.27-4.14-4.86-4.33-6.4-1.38-11.86,1-1.89,1.76-3.93,2.86-5.76,1.71-2.84,3.78-3.72,6.05-.45l.9,10.16C971.87,775.25,974.45,782.81,972.73,786.73Z" transform="translate(-798.55 -527.6)"/><path class="cls-62" d="M966.77,761.73c-5.81.25-9.62,11.1-5.95,16.91,2,1.22,3.65,2.7,1.9,5.14-1.51,2.11-3.37,1.31-5.23.22a9.52,9.52,0,0,0-7.06-1.09c-2.73.6-4.78-.49-5.43-3-.86-3.34-2.7-3.25-5.19-2.23-1.23.5-2.41,1.13-3.67,1.52-4,1.22-6.75-.86-7.45-5.49l-.08-1.14c-.54-2.46,1.38-3.2,3-4a323.69,323.69,0,0,1,32.6-13.82c1.6-.56,3.21-1.1,4.61.44a1.16,1.16,0,0,1-.05,1.46l-1.8,3.9Z" transform="translate(-798.55 -527.6)"/><path class="cls-63" d="M972.73,786.73c-1.2-5.12-5.34-9.23-5.07-14.85.35-1.53-.39-3.87,1.68-4.26s2.31,2,2.81,3.45c1.1,3.23,3.57,4.55,6.64,5.38a33.77,33.77,0,0,1,7.93,2.84c3.31,1.89,7.68,2.21,9.69,6.14-4.44,1.2-8.3-1-12.35-2.08-1.66-.44-3.86-2.89-4.74-1.15s2.27,2.24,3.7,3.13c5,3,10,5.91,15,8.93a15.22,15.22,0,0,1,2.41,2.28,28.8,28.8,0,0,0-3,.62c-8.64,2.71-13.66-6.57-21.5-6.47Z" transform="translate(-798.55 -527.6)"/><path class="cls-64" d="M1041.77,756.72l.86,1c1.25,2.16-1.17,2.66-1.8,4,8.25,11.77-4.71,13.27-9.16,18.89-2.83.67-6.1,2.43-8-1.19-1.7-3.33,1.33-4.95,3.44-6.79,4-3.52,6-20.53,2.7-23-3.89-1.61-8.65-2-10.18-7,.47-2.38,2.33-3.94,4.2-2.73C1030.82,744.43,1038.12,748.67,1041.77,756.72Z" transform="translate(-798.55 -527.6)"/><path class="cls-65" d="M1020.79,742.7l9.06,7c-8.63,1.1-16.4-2-24.2-5-3.18-1.68-6.7-2.58-9.89-4.21-2.09-1.08-4.28-2.45-2.71-5.48,1.27-1.28,3-1.82,4.52-2.6,5.92.54,11.87,1.14,16.86,4.94C1016.45,739.26,1019.32,740.16,1020.79,742.7Z" transform="translate(-798.55 -527.6)"/><path class="cls-66" d="M993.94,735.91c2,5.48,9.49,3.63,11.72,8.8l-4,.1c-5-1.57-9.31-5.21-14.91-5.06-.69-2.2,1.12-2.5,2.43-3.19C990.71,735.69,992.09,734.1,993.94,735.91Z" transform="translate(-798.55 -527.6)"/><path class="cls-5" d="M1020.79,742.7c-2.62-.34-5.22-.73-7-3,.86-7.81,1.26-8.25,7.77-8.47,7.16.65,13.58,2.48,16.42,10.18.84,2.27,2.9,2.39,5,2.27,1.69,4.54.65,8.83-1.18,13.06-5.34-4.34-10.62-8.74-16-13C1024.39,742.71,1023,740.32,1020.79,742.7Z" transform="translate(-798.55 -527.6)"/><path class="cls-18" d="M1042.94,743.66c-.55,2.12-.08,5.13-3.32,5.25-3.06.11-3.58-2.56-3.85-4.86-1-8.35-7.06-10.37-14-11.38-2.34-1-4.88-.75-6.47.9-2.12,2.21-4,1.95-6.32.87-3.76-1.74-7.52-.92-11.27.1l-3.79,1.37-4.19,1.79c-.9-.46-1.7-1-1-2.18,13.81-11.37,28.91-7.19,44-3.62l2.91,1.91a13.22,13.22,0,0,1,7.1,8Z" transform="translate(-798.55 -527.6)"/><path class="cls-67" d="M1042.76,783.64c-3.31,1.57-1.9,2.32.49,3,2.65.72,8.23-.51,7.42,1.94-1.1,3.31-6.28,2.73-10,1.24,1.25-1.16-.11-1.57-.61-2.28-1-1.36-4.26-1.54-3.1-3.66S1040.76,782.83,1042.76,783.64Z" transform="translate(-798.55 -527.6)"/><path class="cls-67" d="M1042.7,741.85l-7.1-8C1040.13,734.58,1042.44,737.31,1042.7,741.85Z" transform="translate(-798.55 -527.6)"/><path class="cls-68" d="M1040.83,761.73c-1-2.06,1.33-2.59,1.8-4C1045.93,760.85,1043.59,761.38,1040.83,761.73Z" transform="translate(-798.55 -527.6)"/><path class="cls-69" d="M971.65,885.72c.16,5.17,6.63,9.45,2.13,15.27-5.54,1.55-10.16-1.06-14.85-3.31-3.54-3.28-8.5-3.06-12.55-5.07-1.7-.85-3.94-1.15-4.24-3.65,4.2-4.52,9.86-5.91,15.55-7.21,3.51-.29,6.69,8.35,10.85.15C969.25,880.49,970.42,884.46,971.65,885.72Z" transform="translate(-798.55 -527.6)"/><path class="cls-50" d="M942.77,888.72l17.06,7c-1.14,2.38-3.85,1.1-5.47,2.36a5.34,5.34,0,0,0-2.64,1.9c-3,3.58-6,3.26-8.36-.94-1.53-2.76-2.68-5.74-4.88-8.09A21.65,21.65,0,0,0,934,889c-7.6-1.33-6.16-4-1.22-7.34l2.95-1.07c1.55,1.91.43,5.56,4,6.14C941.68,885.93,942.43,887,942.77,888.72Z" transform="translate(-798.55 -527.6)"/><path class="cls-70" d="M942.77,888.72l-3.06-2c-.17-5.6,10.47-8.56,18-5C953.51,885.77,948.7,888.43,942.77,888.72Z" transform="translate(-798.55 -527.6)"/><path class="cls-71" d="M939.7,878.64l-3-4.8c.83,0,1.65-.13,2.48-.09,3.22.17,8.22-.44,8.13,3.35C947.23,880.45,942.38,878.13,939.7,878.64Z" transform="translate(-798.55 -527.6)"/><path class="cls-72" d="M854.66,905.72c-.55-5.85,2.43-10,6.44-13.76.48-1.1,1.39-1.21,2.42-1.06a2.38,2.38,0,0,1,1.21.81c1.33,1.88.06,5.95,2.35,6,3,0,6.2-1.74,8.61-4.11l1.09-1.82c1.84-.78,3.55-.93,4.84,1a3.45,3.45,0,0,1-.4,4.55c-2.31,2.73-1.45,6.83-4.1,9.44a1.14,1.14,0,0,0,.21,1.76,2.51,2.51,0,0,0,3.21-.47A36,36,0,0,1,888,902.4c1.51-.95,2.84-1.76,4.56-.81a4,4,0,0,1,2.1,4.64,19.86,19.86,0,0,0,1.62,12.14,9.63,9.63,0,0,1-.2,8.21c-.68,1.51-1.39,3.06-.91,4.79a2.63,2.63,0,0,0,2.36,2.23c1.42.09,2.07-.89,2.38-2.1.63-2.44.18-5,.52-7.43s.94-4.81,4.34-3c1.21,1.18.83,2.83,1.25,4.24.3,5.16.79,10.33-1.16,15.31-1.64,4.17,1.77,7.25,2.29,10.94-2.56,7.45-6.2,10.66-12,10.63-2.62-1.55-5.69-1.19-8.52-1.91-8.17-2.08-11-8.69-6.24-15.79.92-1.38,2.21-2.49,2.92-4,1.66-3.58.15-6.63-3.78-6.58-4.88.07-7.19-1.75-6.92-6.69.06-1.19-.33-2.75-1.4-3-5-1.19-6.35-5.72-8.89-9.17-1.61-1.44-3.82-1-5.64-1.77C852.74,911.57,852.09,909.15,854.66,905.72Z" transform="translate(-798.55 -527.6)"/><path class="cls-73" d="M903.66,920.64c-.3,3.78-.67,7.56-.88,11.35-.15,2.73-.15,5.85-3.19,6.68-3.32.91-4.61-2.66-6.66-4.39s-2.66-3.93-.89-6.19c6.22-8-3.29-15.84-.17-23.78-.84-.33-1.83-1.12-2.51-.91a6.24,6.24,0,0,0-4.59,4.09c-2.33,6.88-9,4.32-13.77,5.61-1.76.48-.78-2.23.07-3.37,2.58-3.45,5.38-6.74,7.81-10.3,2.16-3.16,1.77-6-2.09-7.68,3.66-5.1,8-9.09,14.89-8a13,13,0,0,1,3.3,1.57,13.62,13.62,0,0,1-1.83,2.74c-3.43,3.15-7,6.13-10.42,9.28-1.41,1.29-2.48,3.11-1.06,4.86,1.72,2.12,3.68.79,5.25-.46,3-2.38,5.8-5,8.79-7.37,1.48-1.19,3-3.51,5-2.32.91.56.15,3.45.72,5.08.78,2.22-4.11,3.14-1.49,4.6,2.44,1.37,4.69-1.7,6.93-3-3.05,6.73-3.55,13.81-2.95,21A.53.53,0,0,1,903.66,920.64Z" transform="translate(-798.55 -527.6)"/><path class="cls-74" d="M875.69,893.58c-1.4,1.63-2.53,3.67-4.26,4.81-3,2-4.49,8.6-8.12,6-2.15-1.54-1.13-8.29.49-12.56.18-1.94,1.42-2.3,3.07-2.05l4.89-3.07C874.71,888.06,869.29,894.2,875.69,893.58Z" transform="translate(-798.55 -527.6)"/><path class="cls-63" d="M953.72,896.79l6.11-1.1,14,5.3c2.5,2.21,3.82-1.27,5.87-1.22l7.09,15c-1.75,3.13-2.2.15-2.65-.71a22.17,22.17,0,0,0-9.95-9.49c-1.57-.81-3.28-2.27-5.07-.95-2.07,1.53-1.73,4-1,6s2.33,3.48,3.61,5.15c0,0,1.18-.47,1.21-.77.11-1.32-2.28-3.74.89-3.54,1.58.1,4.11,2.61,4.24,4.19.24,2.79-1,5.7-1.68,8.56a23.87,23.87,0,0,1-3.37-1.36c-2.15-1.26-4.21-2.67-6.31-4-.71-1.06-2.48-.68-2.89-2.14-1.84-2.09-4.36-2.57-6.93-3a1.84,1.84,0,0,1-2.08-2c-2.31-2.72-1.75-5,.82-7.26.82-.72,1-2.18,1.45-3.3l-3.25-.39A2,2,0,0,1,953.72,896.79Z" transform="translate(-798.55 -527.6)"/><path class="cls-37" d="M903.66,920.64q.1-.43.22-.86l9.91-2c4.67,1,9.15,2.29,11.28,7.23a4.68,4.68,0,0,0,2.64,2.26c1.53,1.07,3.43,2.25,4.94,1,1-.82-.11-2.7-.83-4l-.18-.67c7.47-2.74,12.37,1.27,14.8,7.28,4,10,6.88,20.43,10.22,30.68l-.88.16c-3.67.48-7.33-1.55-11,0-12.37,2.06-24.69-.47-37-.47-2.61,0-4.82-.1-6.89,1.52l-23,0c-10,0-17-7.56-14.59-17.26,1.48-6,.73-10.53-2.82-15.27-2.09-2.79-1.94-6.28-.85-9.62-.23-2.54,1-3.61,3.44-3.39a65.88,65.88,0,0,0,12,17.42c1.93,2,1.39,5.12.62,7.69-1.38,4.61.37,8.91,1.06,13.29.35,2.2,2.29,3.1,4.35,3.61a36.54,36.54,0,0,0,10.16,1.38c1.42-.06,2.64,0,3.64,1,3.36.26,6.2-.54,5.76-4.59-.47-4.26,2.34-4.66,5.2-5.32,2.25-3.46,8.5-4.42,12.47-1.95,1.12.7,2.11,1.57,3.21,2.29a6.18,6.18,0,0,1,.7.55c-.25-.21-.51-.41-.78-.61-2.68-2-5.13-4-8.94-4.24-2.39-.18-2.61-3.43-.5-5.08,3.93-3.08,3.48-7.77,4.58-11.78,1-3.53-2.3-4.14-5-4.56-2.54-.39-5.3,1.39-7.67-.76Z" transform="translate(-798.55 -527.6)"/><path class="cls-75" d="M926.77,928.72c-3.62-4.49-10-5.66-13-11a50.52,50.52,0,0,0,3.74-5.83c.57-1.18,1-3.27.31-4-1.23-1.48-2.17.45-3.13,1.17-1.95,1.48-3.63.66-4.64-1-1.35-2.21.81-3,2.22-3.5,6.91-2.69,14-5,20.75-8,2.21-1,3.64-3.72,5.43-5.66,2.22,0,5,.22,5.47,2.47,1.37,7.29,4.81,7.19,9.78,3.41q.05,1.45.11,2.91c-2.71,6-6.24,11.77-7.05,18.52-.34,2.83-1.79,1.85-3.51,1.4a122.83,122.83,0,0,0-12.57-2.72,3.86,3.86,0,0,0-4.47,3.14,5.26,5.26,0,0,0,.59,3.72c1.45,2.07,3.22.72,4.82-.13l.3.26C932.87,928.45,931.63,929.6,926.77,928.72Z" transform="translate(-798.55 -527.6)"/><path class="cls-76" d="M880.67,785.66c-3.94,3.18-1.86,9.36-6.13,12.43a2.08,2.08,0,0,0,.48,1.68c11.69,6.59,1.22,9.9-2.08,14.27.93,2.94-1.6,3.81-3.15,5.26-3.88,2.62-7.15.86-10.27-1.52-8.1-6.18-13.61-13.94-14.56-24.4a5,5,0,0,0-.82-1.8c-.72-1.65-.06-2.79,1.22-3.89,4.63-4,4.61-4,1.37-8.7-.32-3.34-1.65-6.39-2.69-9.53a14.85,14.85,0,0,1,.16-11.7c1.58-3.84,3.43-7.51,6.61-10.32,6.84-1,8.62.58,8.22,7.18-.32,5.44,1.59,8,6.86,9.1.48.1,1,.1,1.47.24,2.14.64,5.51.38,5.62,3.09.12,3-3.21,3.45-5.61,4.29s-4.73.8-7.12,1.06c-.47.05-.93.19-1.4.25.5-.05,1-.18,1.48-.23a34.22,34.22,0,0,0,6.39-.85c1.48-.42,3-.57,4,1a3.62,3.62,0,0,1,.33,2.23c-.44,3.1-4.25,2.06-5.3,4.34,5.55,2.71,12.54,1.27,17.95-3.72a3.44,3.44,0,0,1,2.34-.16A3.25,3.25,0,0,1,888.7,777c.44,2.66-.88,4.8-2.12,7C884.82,785.24,883.08,786.61,880.67,785.66Z" transform="translate(-798.55 -527.6)"/><path class="cls-6" d="M869,816.86l4-2.83c6.13,2.58,7,7.74,6.58,13.5-3.4,8.69-5.34,1.34-7.76-.71-3.5-.33-6.23,2.19-9.71,2.5-3,.27-5-.62-6.51-2.74s-1-4.4.92-6.24c1-.92,2.38-1.79,3.47-1.38C863.54,820.33,866.1,818.12,869,816.86Z" transform="translate(-798.55 -527.6)"/><path class="cls-45" d="M880.67,785.66l4-3c4.24,1.86,6,5.42,6.46,9.73a16.26,16.26,0,0,0,3.91,8.92c2.31,2.84,4.58,4.65,8.43,2.46,1.76-1,3.94-1.16,4.28,1.9s4,6.2-.12,9.23l-.89-.2c-3.5-1.66-7.37-2.05-11-3.17-8.4-2.56-9.14-3.63-8.92-12.79Z" transform="translate(-798.55 -527.6)"/><path class="cls-77" d="M886.85,798.71c.61,8.49,6.68,10.73,13.65,12.33,2.26.52,4.21,2.38,6.3,3.62-6.24.28-12.46-.72-17.64-3.9C884.94,808.17,885.07,803.25,886.85,798.71Z" transform="translate(-798.55 -527.6)"/><path class="cls-78" d="M880.86,814c.32,1.3.67,1.92.52,2.36s-.82.65-1.27,1c-.18-.42-.55-.87-.48-1.24A9.1,9.1,0,0,1,880.86,814Z" transform="translate(-798.55 -527.6)"/><path class="cls-64" d="M988.79,858.7a12.28,12.28,0,0,0-8.22-5.78l-.47.13-.31-.38c-.27-1.82-.27-1.85,1.75-1.9,2.76-.07,5.52-.08,8.28-.11l1.78.22c-1.87,3.6.54,5.41,2.95,7.33,2.13,1.71,3.19,3.38-.9,3.69A4.72,4.72,0,0,1,988.79,858.7Z" transform="translate(-798.55 -527.6)"/><path class="cls-79" d="M979.8,852.67l.78.25c-.84,7.19-4.69,1.14-7,1.42-1.75.21-3.65-1-5.49-1.53Z" transform="translate(-798.55 -527.6)"/><path class="cls-49" d="M988.79,858.7l4.87,3.19,1.07,2.84-1,0c-2.08-1.53-4.39-2.82-6.16-4.64S987.91,858.78,988.79,858.7Z" transform="translate(-798.55 -527.6)"/><path class="cls-80" d="M907.81,805.64c-14,2.41-15.5,1.19-19.33-14.5-.72-3-2.48-5.68-3.75-8.51l3.21-4.7a1.71,1.71,0,0,1,1.72-1c3.36,1.61,5.5,4.11,5.89,8a12.37,12.37,0,0,0,1,3.33c.87,2.15,1.58,4.66,4.22,5.13,3,.53,3.47-2.45,5-4,3.3-3.3,4.15-6.85,2.13-11.08.83-2.6,2.4-3.92,5.24-3.1,3.58,4.56,2.69,10.25,3.86,15.42a25.53,25.53,0,0,1-1.13,4.19c-.07.32-.1.89-.23.92-3.33.66-3.33.65-2.88,8C912.25,807.22,910,806.33,907.81,805.64Z" transform="translate(-798.55 -527.6)"/><path class="cls-46" d="M944.63,602.35l.14,1.35q-.06.48-.13,1a19.31,19.31,0,0,1-1.43,3.67c-5.4,8.06-4.64,15.88,1,23.49,1,3.5-1.47,5.87-3.38,7.84-4,4.1-6.71,8.93-9.78,13.6-4.72,7.19-11.46,10.37-20,9.82-6-.39-8.53-5.2-5.6-10.6,5-9.23,11.9-17.07,18.53-25.1a35.4,35.4,0,0,0,4.57-7.1c1.21-2.49,1.55-5-.7-7.18-1-3.94,2.4-5.07,4.47-7.07a3.73,3.73,0,0,1,3.22.5c3.92,1.05,2.91-2.13,3.08-3.87.47-4.69.66-9.41,1-14.12,2,.64,1.33,2.37,1.62,3.79s-.67,3.57,1.7,4.23Z" transform="translate(-798.55 -527.6)"/><path class="cls-81" d="M872.68,624.88l.05-1c.7-1.43,2.06-2.89,2-4.28-.33-6.57,4.07-12.85,1.14-19.59-.38-.87,0-3,.61-3.19,1.92-.77,1,1.47,1.71,2.09A13.56,13.56,0,0,0,880,600a25.78,25.78,0,0,0,.68-2.81c.46-3.46-3.17-6.87-.14-10.38l2.33,4.88c4.5,4.71,5.95,10.77,7.44,16.81.68,2.79-.09,5.56-.14,8.33-1.15,1.55-2.36,2.9-2.3,5.21.08,3.17-1.76,4.69-5.16,4.34-3.64-.38-3.52-2.75-3.27-5.36,0-.37-.23-.72-.06-1.1a12.74,12.74,0,0,0-.11,1.35c-.21,3.12,1.08,5.82,2.34,8.59s1.07,5-2.87,4.85c-1.38-.52-1.47-1.87-1.94-3Z" transform="translate(-798.55 -527.6)"/><path class="cls-58" d="M884.94,591.72l-.14-1c.92-3.65,3.54-3.1,6.19-2.56,1.48,0,2.3,1.14,3.19,2.08a4.9,4.9,0,0,0,5.59,1.47c4.23-1.23,6.5.4,7.41,4.73.62,3,1.73,5.91.77,9-.67,1.26-1.9,2-2.87,2.92-3.28,3-5.88,7.49-11.54,5.53-3.14-2.05-3.52-5.66-4.58-8.74C887.46,600.76,885.41,596.46,884.94,591.72Z" transform="translate(-798.55 -527.6)"/><path class="cls-82" d="M875.87,581.74c1.07-6.18,1.23-12.11-3.11-17.44a5.8,5.8,0,0,1-.61-5.21c3.35-6,.64-13.15,3.75-19.12,2.38-.33,4.72-.5,6.47,1.65.28,2-.66,3-2.59,3.11-3.68,4.89-2.17,10.42-1.92,15.79.12,2.49,1.87,1.28,3.23,1.46,7.83,1,14.35-3.18,21.45-5,2.35-.61,4.91-.95,7.16.69l-.24.7c-4.7,3.2-10.11,4.81-15.41,6.52-7.13,2.3-12.12,6.53-14.3,13.81Z" transform="translate(-798.55 -527.6)"/><path class="cls-83" d="M935.56,606.55l-1.81,1.14a19.37,19.37,0,0,0-7.88,4.38c-3.56,3.35-6.68,2.38-10.38-2.87-.51-2.6,2.39-4.46,1.55-7.14,0-1.33-.5-2.61-.48-3.94,0-3.73,1.84-5.91,5.46-5.33,3.85.62,6-1.09,7.75-3.89,1.22-1.91,2.56-3.47,5.1-3.18a2.94,2.94,0,0,1,1.68,2.2A38.53,38.53,0,0,1,935.56,606.55Z" transform="translate(-798.55 -527.6)"/><path class="cls-3" d="M945.68,570.86c-1.64.41-3,2.47-5,.93a14.52,14.52,0,0,0-9.77-7.22c-7-2.91-14.07-4.25-21.09,0-2.9,1-5.7.46-8.48-.54-.82-.3-1.53-.73-1.61-1.66s.91-1.3,1.6-1.63c2.69-1.29,5.79-1.47,8.39-3l-.06-.06,12.2-1.12,1.86.41c6.67,2.39,13.42,4.63,19.17,8.95C944.51,567.05,947,568,945.68,570.86Z" transform="translate(-798.55 -527.6)"/><path class="cls-25" d="M884.94,591.72l9,20.84c3.71,1.78,7,4,9,7.83a3.87,3.87,0,0,0,4.66,2c2.28-.75,4.19.21,6.25.62a3.17,3.17,0,0,1,1.72,1.46c.66,1.83.05,3.67-1.49,4.24-4.68,1.74-7.42,7.2-13.23,6.73-1.08-.09-2.17.68-3.26,1.07-.55.14-1.1.25-1.66.35-2.1.41-3.83-.86-5.67-1.42-3.72-1.12-4.06-2.82-1.78-6.61,1.4-1.21,3-.82,4.59-.53,3.49.63,3.92-1.13,3-3.91-2.08-3.87-5.86-6.69-6.81-11.26-.3-1.42-1.21-2.74-.67-4.29l-5.74-17.19Z" transform="translate(-798.55 -527.6)"/><path class="cls-84" d="M891.7,589.87l-6.9.84c.87-3-1.64-9.17,5.94-5.43,3.18,1.57,4.58-4.85,9.4-3.13,3.92,1.39,6,5.93,10.58,5.49l.44.8c-.29,4.14-2.68,5.45-6.37,4.32C900.5,591.44,895.61,592.89,891.7,589.87Z" transform="translate(-798.55 -527.6)"/><path class="cls-85" d="M909.89,561.81c7.32-1.4,14.54-2,21.06,2.75-2.13-.35-4.25-.78-6.39-1s-4.24-.31-6.37-.45c1.77.6,3.55,1.16,5.29,1.85.52.2.88.79,1.31,1.2a6.82,6.82,0,0,1-2.28.52c-13.87-1.89-26.64,1.45-38.75,8-1.44-2.4.45-3.95,1.75-5.21a18.38,18.38,0,0,1,11.8-5.51A66.17,66.17,0,0,0,909.89,561.81Z" transform="translate(-798.55 -527.6)"/><path class="cls-22" d="M910.73,587.65c2.8-3.82,1.31-7.59-.12-11.36-.76-2-.52-3.94,1.63-4.51,4.13-1.08,8,.71,11.16,2.91,1.54,1.07-1,2.76-2.17,3.69-2.58,2-2.83,4.31-1.41,7a3.55,3.55,0,0,1-.46,1.39,8.83,8.83,0,0,1-3.56,2.71c-1.79,0-3.62,0-4.89-1.6Z" transform="translate(-798.55 -527.6)"/><path class="cls-80" d="M909.89,561.81c-8.42,4.89-20.15,3.05-26.13,12.88l-4,4c-3.56-1.55-.65-3.38,0-4.67,6.41-11.92,18.93-12.79,30-16.3-.35.36-.63.85-1,1.05-2.31,1.13-4.65,2.19-7,3.28Z" transform="translate(-798.55 -527.6)"/><path class="cls-85" d="M936.56,587.92l-1.78-1.23c-3-1.34-4.11.94-5.45,2.81-1.91,2.65-4.39,2.55-7.05,1.37-2.14-.95-3.82-2.16-2.5-4.89,0-.19,0-.38,0-.57,3.12-3.79,6.22-5.23,11.73-3.61C935.67,583,936.41,584.62,936.56,587.92Z" transform="translate(-798.55 -527.6)"/><path class="cls-86" d="M942.92,596.58,940.84,602c-2.11-1.68-.77-4-1-6-.28-2.47-.18-5-.24-7.48l1-3.47c.63,1.07,1.65,2.08,1.81,3.21C942.8,591,942.78,593.81,942.92,596.58Z" transform="translate(-798.55 -527.6)"/><path class="cls-49" d="M901.71,574.76c1.86.21,4-.15,4.21,2.1.18,1.63-1.59,1.9-2.52,1.37-3.53-2-7.09,2.28-10.52-.21C895.22,575,898.83,575.58,901.71,574.76Z" transform="translate(-798.55 -527.6)"/><path class="cls-36" d="M879.78,544.73l2.59-3.11c5.15-1.84,9-7,15.25-6-4.54,1.61-8.89,3.59-12.34,7.09-2.93,3-2.8,6.47-1.54,10.14,1.05,3.06,3.54,3,6.08,3,1.29.36,2.66,1,.39,1.8-9.31,3.39-12.49.78-11.05-8.91C879.34,547.34,879.57,546,879.78,544.73Z" transform="translate(-798.55 -527.6)"/><path class="cls-87" d="M944.62,630.65l-1.72,1.15c-2.37,1.46-3.53,1.23-4.47-1.87-1.67-5.54-.95-11.31-2.46-17-1.06-4,7.12-3.84,8.67-8.27.18,4.73-2.42,9.34-.56,14.17.85,2.2,2.15,3.67,4.62,3.82C950.29,626.83,946.44,628.22,944.62,630.65Z" transform="translate(-798.55 -527.6)"/><path class="cls-22" d="M944.62,630.65l4.08-8,1.93-1.19C950.9,626,948.88,629.07,944.62,630.65Z" transform="translate(-798.55 -527.6)"/><path class="cls-88" d="M952.89,660.5c-2.06-7,4.41-10.94,6-16.63l3.66-3.24.28,1c2.57,1.95,5.57,1.76,8.54,1.64a15.1,15.1,0,0,1,5.38.6l.84-.06c1.64,3.27.61,6.26-3,6.56-5,.41-5.95,2.77-4.92,7l.21.49c-3.75,1.85-7.2,3-9.4-2.24-1.22-2.93-2.2-.37-3,.52C956,657.73,955.37,660.05,952.89,660.5Z" transform="translate(-798.55 -527.6)"/><path class="cls-89" d="M969.64,657.39c-6.38-5.41-5.63-8.3,3-8.83,2.63-.16,4.42-2,5-4.71,3.7.82,11.3-6.29,10,5-.13,1.1,2.71,2.55,4.17,3.83-3.32-.1-6.61-.3-8.84,3-.91,1.35-2.37,2-3.63.18C975.09,650,972.21,652.62,969.64,657.39Z" transform="translate(-798.55 -527.6)"/><path class="cls-90" d="M976.76,643.91c-5.28,3.22-9.85,2.08-13.91-2.24a68.14,68.14,0,0,0,8.69-1.1C974.76,639.75,976.71,640.13,976.76,643.91Z" transform="translate(-798.55 -527.6)"/><path class="cls-54" d="M944.78,961.74c3.67-2.75,7.34-1.68,11,0C952.12,963.7,948.45,962.13,944.78,961.74Z" transform="translate(-798.55 -527.6)"/><path class="cls-40" d="M996.67,706.52c7.25-.66,12.91-5,19-8.29,2.47-1.33,4.78-2.95,7.16-4.43,8.79,3-2.6,6,0,8.95,3,2.31,2.45,5.07,1,7.94-.7,2.24-1.91,2.58-3.57.91-2-2.05-4-4.12-2.09-7.37.64-1.11,2.76-2.35.8-3.61-.7-.45-3.11.51-3.78,1.48-3.27,4.71-6.22,9.64-9.28,14.5-2.09,1.29-3.37.17-4.24-1.57-1-2-2-3.7-4.68-2.1-.2.12-.56.22-.84.34.42-.16.81-.45,1.21-.57a2.87,2.87,0,0,1,3.48,1.15,3.26,3.26,0,0,1-.11,4.14c-3.37,4-8,6.3-12.48,8.54-2.23,1.11-4-1-4.74-3.2-.48-1.39-.43-2.93-.77-4.38-.35-6.44,1.13-8.13,7.61-9.79C992.5,708.63,995.44,709.45,996.67,706.52Z" transform="translate(-798.55 -527.6)"/><path class="cls-91" d="M984.69,718.66c.52,2.16-.17,6.71,3.16,5.1,4-2,9.89-3.3,10.94-8.25.43-2-2.92.44-4.54.87-1.33.35-2.64,2-3.88.29-.19-.26,1.35-1.94,2.23-2.83,5.82-5.84,9.51-1.3,13.28,2.78l2.77.24a1,1,0,0,1,.4,1.16c-1.84,1.94-6.86,1.51-4.75,6.38a1.69,1.69,0,0,1-.62,1.16c-6.65,1.64-14.2,1.79-16.87,10.09-3.25,3.56-4.8,3.11-6.48-1.9,0-.58,0-1.17,0-1.75.52-2.22,0-4.53.48-6.76C981.87,722.91,981.07,719.49,984.69,718.66Z" transform="translate(-798.55 -527.6)"/><path class="cls-48" d="M1023.82,710.7l-1-7.94c2.41,3.55,14.74-3.73,9.26,8.52-.88,2-1.06,4.3-4,4.22C1025.05,715.4,1025,712.52,1023.82,710.7Z" transform="translate(-798.55 -527.6)"/><path class="cls-66" d="M1003.68,725.56q0-.43.08-.87c-1.66-4.63,2.87-4.83,4.89-6.84q0-.5,0-1c2.16,1.38,5.75,3.22,4.62,5.39C1011.6,725.46,1007.27,725.43,1003.68,725.56Z" transform="translate(-798.55 -527.6)"/><path class="cls-92" d="M981.59,732.73c.5,3.19,2,4.63,5.22,2.93l1.92-.13,1,2.18-3,2h0c-2.47.95-3.16,5.8-7.22,3.3C976.91,738.56,977.61,735,981.59,732.73Z" transform="translate(-798.55 -527.6)"/><path class="cls-38" d="M965.76,937.19a2,2,0,0,1-2.44,2.11A15.1,15.1,0,0,1,952,928.74a2.13,2.13,0,0,1,1.67-3C955.06,925.45,965.59,935.18,965.76,937.19Z" transform="translate(-798.55 -527.6)"/><path class="cls-93" d="M963.8,915.63l2.89,2.14c-4.87,1.71.06,4.76-1,7-2.61-1.08-5.43-2.06-5.7-5.45C959.82,916.78,961.67,916,963.8,915.63Z" transform="translate(-798.55 -527.6)"/><path class="cls-94" d="M954.8,910.65l2.07,2c-1.05,1.63-2.57,2.57-3.94.79C951.44,911.53,953.33,911.05,954.8,910.65Z" transform="translate(-798.55 -527.6)"/><path class="cls-95" d="M862.63,917.53l-3,3.07c-7.71-1-7.51-8.09-9.32-13.16-.8-2.23,2.28-2.55,4.38-1.72,0,4.73,2.52,6,6.71,4.89,2.11-.57,4-.94,4.35,2C864.35,914,865.44,917,862.63,917.53Z" transform="translate(-798.55 -527.6)"/><path class="cls-96" d="M966.56,672.67a9.43,9.43,0,0,0,.28-.95c9-3.6,18.31-2.71,27.26-.49,3.68.91,6.56,1.72,9.73-.47l1.11,3.81-8.23,1c-8.42,0-16.83,0-25.25.06C969.16,675.67,967.14,675.41,966.56,672.67Z" transform="translate(-798.55 -527.6)"/><path class="cls-81" d="M968.68,684.86c2.71,6.82-.7,13.32-1.09,20,0,.46-.74.87-1.13,1.31a9.6,9.6,0,0,1-.81-2.23,59,59,0,0,1,1.16-19.14Z" transform="translate(-798.55 -527.6)"/><path class="cls-97" d="M981.59,732.73c-2.52,3.21-1.75,6.66-.74,10.13,1.55,2.53-.3,4.12-1.89,5.3-2.26,1.68-3.73,3.91-5.35,6.07-1.54.73-3.37.53-4.84,1.51l-40.16,16.82c-4,2-2.77,5-1.71,8.09-.48,1.65-.89,4.67-1.44,4.7-2.34.11-.93-2.54-1.92-3.68-2-2.27-2.27-5.86-5.62-7-3.15.84-4-2.38-6.09-3.41-1.19-.57-2.26-1.4-3.67-1.38-4.94.72-10.2-1.46-14.9,2.19-1.52,1.18-3.57-.34-3.92-2.54a7.45,7.45,0,0,0-4.34-5.7c-3.2-4-7.2-6.25-12.48-5.75-2.21-1.43-1.55-3-.16-4.52a11.73,11.73,0,0,0,2.44-3.24,1.79,1.79,0,0,0-.32-2.23,1.43,1.43,0,0,0-2.19.13,8.44,8.44,0,0,1-5.08,2.87,5.87,5.87,0,0,1-1.43.14c-1.67-.66-3.6-1.18-3.52-3.48.08-2.11,2-2.19,3.46-2.93,4.94-2.54,5.33-5,1.26-8.93-2.15-2.1-3.35-4.35-3-7.36.95-7.72,1-15.57,3.36-23.09,2.94-6.2,3.05-13.75,8.89-18.58.5-.41,1.06-.71,1.53-1.13,6,1.16,2.36,4.74,1.6,7.27-.51,1.71-2,3.13-3,4.68l5.57-1c1.93,3.68-2.53,5.34-2.67,8.37a20,20,0,0,0-.52,2.43c-.11,1.14-.35,2.3.38,3.36.49-.81.44-1.83,1.1-2.59a4.17,4.17,0,0,1,3.55-1.37c5.25.12,9.13-2.4,12.33-6.36,3.5-4.34,6.8-8.86,10.8-12.79,7.75-5.69,10.28-3.87,13.47,4.9,2.5,6.87,6.61,13.21,7.78,20.67.27,1.74.92,3.51.77,5.21s-2.67,3.25,0,4.61c2.31,1.18,5.12.62,6.22-1.56,3.27-6.45,6.87-4.38,10.95-1.1,1.2,1,3.21,2.77,4.29,1.26,1.46-2-1.4-2.8-2.55-4-3-3.1-6.17-6-8.94-9.31-.91-1.07-1.61-3.61-1-4.42,1.37-1.81,2.84.33,4.25.93l3.49,1.48c-.13-1.23-.16-2.49-.41-3.69-.53-2.6-1.3-5.16-1.75-7.78-.53-3.1-3.36-6.77.09-9.22,3.18-2.26,7-1.17,10.31,1,2.55.85,4.52,2.3,5.16,5.09,3,3.66,2,7.27-.11,10.88,1.64,11.14,11.9,18.39,13.36,29.64a30.28,30.28,0,0,0,1.61,5.14c1.58,1.55,2.18.26,2.63-1s.49-2.93,1.09-4.22c1-2.12,2.41-3.22,4.16-.53Z" transform="translate(-798.55 -527.6)"/><path class="cls-98" d="M984.69,718.66l-1.84,7.13c-2.69.24-2.72,3-4.19,4.39-.92.87-.65,3-2.78,2.59-.76-7.12-6-13.6-3.05-21.26l23.84-5,2.88.87c-1.22.69-2.37,1.71-3.68,2C990.5,710.59,984.83,711.23,984.69,718.66Z" transform="translate(-798.55 -527.6)"/><path class="cls-99" d="M1002.77,689.7l-3.07,4.93c-2.47,1.33-4.95,2.64-7.39,4a8.83,8.83,0,0,0-1.45,1.29c.41.36.76.93,1.23,1,1,.23,2.9-.45,2.57,1.23-.19,1-2,2-3.23,2.42-6.25,1.85-12.57,3.49-18.87,5.2-1.47-7.5,4.62-9.87,9.29-12.19C988.49,694.3,995.76,692.28,1002.77,689.7Z" transform="translate(-798.55 -527.6)"/><path class="cls-100" d="M958.86,702.67c-1.39-3.64-1-7.26.11-10.88,2.93-1.1,4.19.63,4.33,3,.21,3.42.77,7.23-.47,10.17C962.1,706.76,960.37,703.36,958.86,702.67Z" transform="translate(-798.55 -527.6)"/><path class="cls-15" d="M975.87,732.77c1-2.63,1.77-5.34,3-7.87.64-1.37,1.93-2.44,2.93-3.64l1.09,4.53-1.13,5.92c-4.89-1.19-2.13,8.1-7.87,5.75C976,736.52,975.6,734.5,975.87,732.77Z" transform="translate(-798.55 -527.6)"/><path class="cls-40" d="M811.48,658.57c1.46-.54,2.24-1.91,1.27-3-5.34-6.29-7.77-14.1-10.48-21.79,8.13-4.05,9.73,3.75,11.39,8.41,1.76,4.91,5.91,8.66,6,14.34,0,.58,1.58,1.13,2.43,1.69a12.14,12.14,0,0,0,1.45-2.77c.31-1.31-1-3.39.85-3.86s2.14,2,3.09,3.18c1.38,4.86,5,4.19,8.51,4,4-3.44,12.52-3.45,16.84,0l1.23.75c-7.37,1.55-14.78.72-22.18.45l-33.35-.23c.24-3.34,2.73-3,4.77-3.22A12.54,12.54,0,0,1,811.48,658.57Z" transform="translate(-798.55 -527.6)"/><path class="cls-58" d="M830.38,659.88l23.7-.44c6.62-.25,13.47,1.58,13.76-9.73.16-6.07,5.78-12,8.93-18l2.1,1.79a.67.67,0,0,1,.23.76q-.16.35-.3.35c-4,1.49-2.7,4.75-2.45,7.6,1.3,14.79-1.66,18.31-16.19,18.35C850.23,660.58,840.31,660.13,830.38,659.88Z" transform="translate(-798.55 -527.6)"/><path class="cls-101" d="M868.63,612.94l-1.07-1.08c-2.4-6.5,0-12.46,2-18.48.48-1.44,1.49-2.24,2.41-.79,3,4.7,1.74,10,1.57,15.07A5,5,0,0,1,868.63,612.94Z" transform="translate(-798.55 -527.6)"/><path class="cls-102" d="M971.52,752.58l9.34-9.72c1.87-1.24,3.23-3.46,5.94-3.11,2.7,5.2,9,4.72,12.82,8,.91.79,2.49,2.12,2.29,2.64-.66,1.74-2.25.64-3.39.29-2.37-.72-4.65-1.79-7-2.45-2-.55-4.91-2.81-5.75-.92-1.09,2.44,2.26,3.87,4.18,5.33a19.61,19.61,0,0,0,1.75.94c2.71,1.64,6.56,1.53,8,5.17l-8.81-2.14c-5-1.63-10.47.87-15.46-1.65C974,754.29,972,754.64,971.52,752.58Z" transform="translate(-798.55 -527.6)"/><path class="cls-5" d="M971.52,752.58c6.7.06,13.25.86,19.29,4.07-7.34,9.07-14.71-2.17-22.06,0q0-.47,0-.94Z" transform="translate(-798.55 -527.6)"/><path class="cls-43" d="M912.72,769.75l5.2,4.9.08,1.89c.24.63-.17,1.43.18,1.92,3.25,4.56,1.16,8.31-1.72,12l-.66.31-3.12-15c-.95-.62-2.11-.86-2.91-1.72a3,3,0,0,1-.7-3.56C909.94,768.75,911.28,768.77,912.72,769.75Z" transform="translate(-798.55 -527.6)"/><path class="cls-103" d="M915.91,794.77l-.1-4h0c2.39-1.83,2.05-5.53,4.86-7.08C924.87,789.85,921.08,792.6,915.91,794.77Z" transform="translate(-798.55 -527.6)"/><path class="cls-80" d="M920.66,783.66c-1.51,2.43-1,6.26-4.86,7.08,2.29-4.49,2.48-9.31,2.2-14.2C919.79,778.58,921,780.83,920.66,783.66Z" transform="translate(-798.55 -527.6)"/><path class="cls-7" d="M928.7,773.69c4.33,8,9,.84,13.46.2,2.3-.33,4.44-3,6.87-.95,3,2.57-.29,3.83-1.47,5.5-.09.13-.22.34-.18.45.22.55.48,1.07.73,1.6,5-3.63,8.26,2.85,12.54,2.07,1.71-.31.49-2.55.16-3.92,1.87.23,3.28-3.14,5.26-.89a5.38,5.38,0,0,1,1.11,6,5.33,5.33,0,0,1-5.87,2.85c-8.48-1.15-17-1.3-25.48-1.69C932.47,784.77,927.78,779.61,928.7,773.69Z" transform="translate(-798.55 -527.6)"/><path class="cls-104" d="M997.73,734.54c7.66-5.2,16.08-.8,24.06-1.87-2.66.6-6.47-.18-5.12,4.87.61,2.29-1.5,2-2.89,2.15A25.17,25.17,0,0,0,997.73,734.54Z" transform="translate(-798.55 -527.6)"/><path class="cls-4" d="M862.63,917.53l3.09-4.9c-.2,4.88,1.56,8,7,8.19a6.18,6.18,0,0,1,2.63.94c-1.88,8,3.93,8,9.1,10.33,4.33,2,4.21,7.47.08,11.39-3.6,3.41-5.42,7.8-2.63,12,2.35,3.58,6.19,4.51,10.91,2.47,3.56-1.54,1.89,2.07,2,3.66-2.65,0-5.3.08-8,.08-13.52,0-18-6.2-13.84-19.6,1.3-4.18-.07-7-3-9.66C865.53,928.49,861.91,924.08,862.63,917.53Z" transform="translate(-798.55 -527.6)"/><path class="cls-105" d="M903.82,925.62c4-2.08,8.31-2.79,12.52-.93,4,1.74,7.32,3.85,2.84,8.84-2.8,3.12.55,9.52-5.79,11.4-1,.31.91,1,1.62.88,2.12-.4,4.2-1.08,6.33-1.43a10.71,10.71,0,0,1,3.66.05c.24,2-1.7,1.52-2.75,1.86-3.47,1.1-3,2.54-.58,4.3.94.69,2,1.2,2.9,2,1.86,1.61,6.59,2.42,5,4.9s-4.65-1-6.42-2.62c-5.24-4.66-11-4.92-17.29-3.07-8.73-5.92-1.57-13.43-2-20.18C903.66,929.59,903.8,927.6,903.82,925.62Z" transform="translate(-798.55 -527.6)"/><path class="cls-106" d="M926.77,928.72c2.64-.63,4.13-2.49,5.17-4.83,3.19,1.32,4.25,5.54,8.18,5.93.75.08,1.29,1.74.32,1.51C935.91,930.26,930.66,932.86,926.77,928.72Z" transform="translate(-798.55 -527.6)"/><path class="cls-42" d="M865.68,729.75c1,1.48,1.67,3.75,3.05,4.33,14.69,6.17,2.7,8.56-1.66,11.86-2,1.53-2.16,1.34-1.21,3,1,2.05-.62,3-1.75,4.1-.82.82-1.87,1.8-1.12,3,1,1.53,2.36.59,3.5,0,1.44-.76,2.78-2,4.5-.63.44.8.68,1.74,1.52,2.28,1.21,1.91,1.61,4.19,3.59,5.81,2.2,1.8,1.05,4.26,0,6.43-1.5,2.37-3.77,3-6.4,2.95-4.84.94-9.67,1.93-14.53,2.79-1.44.26-3.36.48-3.82-1.35-.6-2.38,1.64-2.62,3.16-2.88,4.08-.7,8.22-1,12.28-1.82,1.5-.29,2.85-1.38,4.27-2.1-1-1.95-2.8-1.31-4.36-1.2-7.39.54-12.18-6.29-9.84-13.23,1.45-4.3-2.23-4.24-5.14-4.26-2-.76-2.25-2.29-1.62-4a2.57,2.57,0,0,1,3.12-1.78c1.81.32,3.63-.58,2.38-2.19-2.91-3.74-.78-7.12-.2-10.67,2-.94,3.15-2.9,4.83-4.24,2.11-.68,2.89,1.4,4.34,2.09A9.64,9.64,0,0,1,865.68,729.75Z" transform="translate(-798.55 -527.6)"/><path class="cls-40" d="M857,730.61c-.23,5.49.29,10.83,2.9,15.82.27.51-.23,1.43-.37,2.16-.93-.53-1.85-1.09-2.81-1.58-1.4-.7-2.82-1.35-4.23-2l-.71,3.71-5.89,9c-3.26,2.15-4.38,1.76-4.65-2a36.25,36.25,0,0,0-4.11-14.41c-1.35-2.6-2.55-3.67-5.28-2.65-1.38.2-2.65-.4-4-.51a29.39,29.39,0,0,0-3.07-.41,43.37,43.37,0,0,0-12.68,2.14c-2.49.15-3.23,2.55-4.89,3.75-1.4,1-2.53,2.69-4.65,2.33a3.13,3.13,0,0,1-1.46-.79,3.22,3.22,0,0,1-.66-1.54c.28-4.49,4.94-5.76,6.71-9.15,5.34-3.18,11.39-1.75,17.08-2.59a47.82,47.82,0,0,1,18.84,3.22c1.38.5,2.77,2.06,4.11,1.34,1.72-.92.23-2.69.14-4.08a6.34,6.34,0,0,1,.61-3.87,20.27,20.27,0,0,1,4.14-2.67C857.39,724.89,858.4,725.89,857,730.61Z" transform="translate(-798.55 -527.6)"/><path class="cls-87" d="M842.88,751.59c.24,2.24-2,6.13,3,6.17-.82,3.72-1.29,7.41,1,10.87.09,4.51-.31,9-.57,13.49a3.26,3.26,0,0,1-1.84,2.81,11.57,11.57,0,0,1-2.45.38c-7.68,1-9.17-.46-7.66-8,1.32-6.59,3.2-13.09,2.32-19.92" transform="translate(-798.55 -527.6)"/><path class="cls-87" d="M834.41,750.62c-.45-.28-.89-.58-1.32-.89.08-4.66-2.85-9-1.47-13.8" transform="translate(-798.55 -527.6)"/><path class="cls-107" d="M874.83,768.54c-.09-1.37.58-3.2-1.48-3.6-6.4-1.24-4.42-4-1.43-7.11a1.1,1.1,0,0,1,.89-1c6.31-5.37,9,1.33,13,3.87,3.67-.34,5.25,1.2,4.32,4.9a7,7,0,0,0-.22,3.9c1.45,4.07-.24,6.19-4,7.24l-1.16.66c-.4.85-1.23,1-2,1.23-5.22.56-5.38.42-6.68-5.65C875.53,771.53,875.82,769.87,874.83,768.54Z" transform="translate(-798.55 -527.6)"/><path class="cls-108" d="M857.77,820.54a3.34,3.34,0,0,0,0-.79c-2.78-3.11-7.41-3.61-9.95-7.09-.36-.5-1.19-.3-1.87-.24-6.24.49-9.76-2.35-10.48-8.53a47,47,0,0,1-.06-8.42c.33-5.08,1.36-5.8,6.48-4.65a9.13,9.13,0,0,0,2.43-.23l.69.05c3.29,2.55,3,6.43,3.68,9.95,1.77,9.58,12.35,18.11,20.3,16.29A12.11,12.11,0,0,1,857.77,820.54Z" transform="translate(-798.55 -527.6)"/><path class="cls-16" d="M885.84,776.76c2.82-5.36,7.27-10.73-.07-16,3.16-1.26,5,0,4.85,3.2-.38,6.27,1.81,6.28,6.69,3.83,3.83-1.92,8.31-1.61,12.52-.24,0,.16,0,.41-.13.46a44.34,44.34,0,0,0-12,9c-2.61.61-5.13,2.05-7.92.76l-1.85.18Z" transform="translate(-798.55 -527.6)"/><path class="cls-109" d="M882.8,777.8l1.88-.37c-2.49,3.85-6.4,4.14-10.45,4.34a40,40,0,0,0-8.71,1.13c-2.12.59-4.49,3-5.92,0-1.68-3.53,1.63-4.32,4.14-5.2C870.1,776.8,876.45,777.85,882.8,777.8Z" transform="translate(-798.55 -527.6)"/><path class="cls-46" d="M882.8,777.8c-6.36,2-12.72,3.44-19.06-.1l6-3.08c2.07-2.6,5.24-3,8.1-4C879.52,773,877.55,777.94,882.8,777.8Z" transform="translate(-798.55 -527.6)"/><path class="cls-108" d="M843.77,783.71l1.09-1.91c1.22-1.17,1.92-3,4-3.15,7.35,6.75,1.55,9.29-3.83,12l-.43.17c-2.12.5-3.7-.18-4.23-2.33C839.63,785.65,841.9,784.78,843.77,783.71Z" transform="translate(-798.55 -527.6)"/><path class="cls-72" d="M848.82,778.65c1.1,4.09-1.66,3.33-4,3.15l2-13.18Z" transform="translate(-798.55 -527.6)"/><path class="cls-16" d="M877.81,770.67c-.24,6.36-5.66,2.11-8.1,4l0-1.85,5.07-4.23Z" transform="translate(-798.55 -527.6)"/><path class="cls-110" d="M838.35,769.56c.35,1.57-.71,3.53-1.35,5.23-2.45,6.59-.72,9.91,6.77,8.91-1.83,2.6-2.69,5.08.79,7.09-10.51,3-7,10.28-5.13,16.94.42,1.5,1.43,3.39,3.47,3s1.61-2.52,1.77-4.12a21.88,21.88,0,0,1,.73-3.09c.45.14,1.27.23,1.3.44,1.07,7.11,8.69,9.62,11.06,15.8-4.63-.18-8.59-2.35-12.7-4.14-1.73-.75-4.11-2.91-5.31-1.2-1.42,2,1,4.22,2.38,6,5.73,7.52,4.48,12.07-4.31,15.34,3.84-5.22,2.81-9.3-2.64-12.74" transform="translate(-798.55 -527.6)"/><path class="cls-111" d="M889.79,777.75l7-3.05c1-.93,2.46-.3,3.62-1.13,2.35-1.7,4.16-.27,5.09,1.78a9.07,9.07,0,0,0,4.3,4.41c4.32,7.1-3.78,10.75-4.65,16.44-.23,1.51-1.91,2.24-3.61,1.7-4.69-1.48-6.32-5.41-7.73-9.59C892.57,784.74,891.13,781.26,889.79,777.75Z" transform="translate(-798.55 -527.6)"/><path class="cls-112" d="M909.77,779.75c-2.64.85-2.11,6-5.16,5s-1.11-4.64-1.28-7.18c-.33-4.76-4.19-2.29-6.56-2.87,2.21-6.3,6.83-8.23,13.08-7.19l2.88,2.25c-5.37,2,1.34,4,0,5.94Z" transform="translate(-798.55 -527.6)"/><path class="cls-107" d="M915.77,624.71a4.76,4.76,0,0,0-.93.18l-2-.28c-1.23-.8-1.8-2.19-3.28-2.93-3.85-1.91-4.06-4.7-.55-7,1.88-1.21,2.73-2.15,2.53-4.66-.29-3.56,2-4.31,5.35-2.13,2.09,4.39,5.31,4.67,8.92,2.16a12.33,12.33,0,0,1,7.9-2.41l-5.08,4.86.07.13c-1.58,1.81-1.88,4.15-2.56,6.31-1.92,6.08-2,6.19-8.1,5.31A3,3,0,0,0,915.77,624.71Z" transform="translate(-798.55 -527.6)"/><path class="cls-38" d="M878.8,634.61l.07-1.11c2.4-1.18,1.09-2.71.35-4.12-3.2-6.13-.56-11.94,1-17.79.15-.54,1.2-.85,1.83-1.26.36.8,1.12,1.66,1,2.4a40.82,40.82,0,0,1-1.36,4.76c-.55,2-1.6,4.17.05,6.11a2.32,2.32,0,0,0,2.2.3c2.3-1.28,1.27-3.4,1.15-5.33-.21-3.21,1.19-3.47,3.51-1.78,2.71,0,3.24,2.7,4.9,4,1.35,1.06,2.29,2.69,4.21,2.92,1.89,1.89,6.06,3.6,4.16,6.37-2.75,4-7.31.61-11.09.53-1.52-.9-2.9-.33-4.27.38a2.87,2.87,0,0,0-2.15,2.54c-.18,4.23-.42,4.51-3.52,4.08Z" transform="translate(-798.55 -527.6)"/><path class="cls-57" d="M897.73,623.75c-6,1.6-6.94-3.49-9.11-6.93q0-4,0-7.93Z" transform="translate(-798.55 -527.6)"/><path class="cls-18" d="M916.93,607.94c-1.56.42-5.87,11.65-5.17,12.95a18.27,18.27,0,0,1,1.12,3.73c-12.21,5.26-13.43-6.78-18.95-12,4.7.42,6.78-3.48,9.76-5.9.94.25,1.83.85,2.86.34.38-.18.75-.37,1.14-.52,1.82-1.14,2.15-3.33,3.43-4.86.39-.32.79-.62,1.21-.9,2.4-1.35,4.58-1.41,6.32,1.07,1.83,1.58,6.24,1.31,5.32,4.55C923.19,609.18,919.3,607.1,916.93,607.94Z" transform="translate(-798.55 -527.6)"/><path class="cls-18" d="M910.91,587.92l4.79-1.3c2.3,3,.6,6.09-.42,8.8a45.67,45.67,0,0,1-3.4,7.13l-.29.34c-1.81.86-2.81,4.05-5.65,2-1.48-4.61,2.68-13.35-8.35-11-2.63.57-4.26-2.19-5.9-4C898.07,588.9,905.17,595.11,910.91,587.92Z" transform="translate(-798.55 -527.6)"/><path class="cls-53" d="M905.94,604.87l5.65-2-2.84,5.8a1.72,1.72,0,0,1-2,1,3,3,0,0,1-3.06-3Z" transform="translate(-798.55 -527.6)"/><path class="cls-86" d="M911.88,602.55c-3.05-6.35,2.68-10.59,3.82-15.93l4.08-.64c3,2.22,5.62,6.64,8.38-.88,1.19-3.24,4.77-.83,6.63,1.58-2.93,3.15-6.14,6-5.87,11,.19,3.51-1.56,1.32-2.46.47-1.71-1.61-3.41-3.77-5.95-2.66s-1.46,4.09-1.84,6.28Z" transform="translate(-798.55 -527.6)"/><path class="cls-113" d="M885.72,629.76l5.07.89L889,631.9a12.26,12.26,0,0,0,2.7,1.6,51.45,51.45,0,0,0,5.19,1c.26,1.94-1.49,2.78-2.28,4.14a4.79,4.79,0,0,0-.72,1.8c.62-.25.73-.93,1.12-1.37.82-.94,2.16-1.74,3-1,2.57,2.24,5.64,3,8.79,3.66.39,7.73-5.59,11.36-10.24,15.81-3,2.83-5.28,2.89-7.11-1.42-2.65-6.24-5.69-12.31-8.57-18.45,2.37-1.66.52-4,1-6C883,630.7,884.54,630.63,885.72,629.76Z" transform="translate(-798.55 -527.6)"/><path class="cls-40" d="M906.78,641.72c-2.65,1.22-4.4,1.62-7.61-.57-4-2.75-2.8,3.22-4.3,5a22.74,22.74,0,0,0-2.21,4.12c-.62-1.6-1.72-3.19-1.77-4.82-.16-4.72-1.78-10.51,6-11a4.67,4.67,0,0,0,.95.06c2.05,3,4.54,4.78,8.59,4.59S908,640.65,906.78,641.72Z" transform="translate(-798.55 -527.6)"/><path class="cls-28" d="M824.85,685.62a5.21,5.21,0,0,0-.12-.81l29,.06c4.05.7,7.07,4,11.31,4.37.94.07,1.48,1.21,1.6,2.26-2.36,6.19-5.9,11.29-12.52,13.55-2.56.63-4-1-5.25-2.75-2.13-2.87-5-5.17-6.62-8.42-.67-1.33-1.65-2-3.15-1.24-2.22,1.28-.74,2.93-.11,4.05,2.19,3.89,3.27,8.3,5.8,12a3.88,3.88,0,0,1,.68,3.3c-2.71,6.49-3.35,6.77-7.38,3.25-5-9.36-9.14-19.11-13.27-28.87Z" transform="translate(-798.55 -527.6)"/><path class="cls-17" d="M906.85,687.75c-2.82,11-13.36,20.77-23.73,21.89-.45,0-.89.18-1.33.27.78,1.19,1.53,2.41,2.34,3.57s3.09,2.53,1.66,4.1-2.9-.48-4.11-1.39c-3.9-2.93-8.39-5.72-4-11.54,4-3.1,6.94-7.31,10.37-11,4-4.26,8-7.36,14.1-6.13,1.39.28,2.5-.56,3.75-.89Z" transform="translate(-798.55 -527.6)"/><path class="cls-74" d="M865.89,691.39c-6.47,2.31-8.82-3-12.17-6.53,6.13-1,12.09.32,17.77,2.12,2.82.9,3.86-2.78,6.26-1.27-2.66,6.65-7.21,12.53-8.07,19.9a5.57,5.57,0,0,1-6.33-.4,8.25,8.25,0,0,1,.59-8.18A15.81,15.81,0,0,0,865.89,691.39Z" transform="translate(-798.55 -527.6)"/><path class="cls-71" d="M905.92,686.64c-.73.86-1.49,2.49-2.2,2.47-11.45-.33-16.24,9-23,15.58-1.13,1.09-2.06,1.81-3.06,0l4.17-7.94c1.72-1.79,4-3.31,5.05-5.43C891.49,681.94,898.56,683.92,905.92,686.64Z" transform="translate(-798.55 -527.6)"/><path class="cls-71" d="M903.9,675.86c-2.2-.68-6,2-6.36-2.25-.24-3.22,3.07-4.11,5.83-3.86s7-1.58,7.33,2.74C911,677.3,906.45,675.05,903.9,675.86Z" transform="translate(-798.55 -527.6)"/><path class="cls-3" d="M943.75,641.69c.54-3.8,4.11-6,6.22-4.26,4,3.31-2,5.91-2.27,9.22C943.58,647.12,942.86,646.22,943.75,641.69Z" transform="translate(-798.55 -527.6)"/><path class="cls-108" d="M944.69,651.63c-2.89,1.49-6.74,2.64-8.67.35-1.8-2.13,1.29-5,2.79-7.25C944.74,644.14,945.5,645,944.69,651.63Z" transform="translate(-798.55 -527.6)"/><path class="cls-41" d="M944.69,651.63l-5.23-.55c1-.65,2.5-1,3-2,2.44-4.36-2.73-2.63-3.67-4.36l4.94-3c.61,2.22,1.15,4.49,3.94,5Z" transform="translate(-798.55 -527.6)"/><path class="cls-25" d="M915.77,624.71c.09-.32.25-.92.26-.92,9.56,2.36,8.72-7.15,12.72-11.12C926.67,619.12,927.62,628.81,915.77,624.71Z" transform="translate(-798.55 -527.6)"/><path class="cls-60" d="M1008.65,717.86c-.29,3.24-3.24,4.57-4.89,6.84-2.44-.21-2.46-1.68-1.92-3.54C1002.89,717.5,1005.73,717.62,1008.65,717.86Z" transform="translate(-798.55 -527.6)"/><path class="cls-14" d="M864.72,705.69l2.94-8.17c3.14,2.08-1.59,6.13,2,8.09l-4,24.13-1.08-1.19c-1.37-.39-1.56-3-3.69-2a5.13,5.13,0,0,1-3.92,4c-.26-3.72-2.6-3.41-5.17-2.67-3,.73-3.82-1.05-3.18-3.29s.54-4.66,2.06-6.58c.7-.86,1.89-1,2.65-1.71,2-2.05,5.14-2.73,6.87-5.2C862,709.54,860.43,705.23,864.72,705.69Z" transform="translate(-798.55 -527.6)"/><path class="cls-94" d="M870.75,755.66c-1,.84-2.07,1.62-3,2.52-3,2.85-6.59,4.29-9.3.53-3.09-4.29,2-5.55,4.14-7.74a15.91,15.91,0,0,1,3.31-2.07q.42-.15.84-.33c2.53-.12,5.46-3.78,7.46-.12C875.88,751.57,872.58,753.54,870.75,755.66Z" transform="translate(-798.55 -527.6)"/><path class="cls-114" d="M870.75,755.66c1-3.68,5.78-9.56-4-7.1,1.56-.92,3.06-2,4.69-2.74s3.42-2.84,5.25-.62.8,4.37-.48,6.43c-1.09,1.75-2.23,3.48-3.34,5.22l-.89,1Z" transform="translate(-798.55 -527.6)"/><path class="cls-115" d="M860.91,726.59c-.13-.64-.26-1.28-.4-1.92-.44-2.05-1.55-5.18.72-5.67,2.79-.6,2.12,2.88,2.62,4.72a42.44,42.44,0,0,1,.75,4.84C862.15,730.19,861.79,727.89,860.91,726.59Z" transform="translate(-798.55 -527.6)"/><path class="cls-116" d="M863.74,738.8c2.38.37,3.09,1.83,3.51,3.47.26,1-.33,1.82-1.29,1.24a36,36,0,0,1-4.05-3.25Z" transform="translate(-798.55 -527.6)"/><path class="cls-88" d="M801.93,744.84l1,.06" transform="translate(-798.55 -527.6)"/><path class="cls-57" d="M825.78,734.6c13.76-4.49,13.74-4.64,8.29-18.11-1.07-2.65-1-5.79-1.4-8.7,1.69-.83,2.65.15,2.94,1.56.64,3.07,2.64,5.32,4.23,7.83,1.3,2,3.12,3.79,3.42,6.36.16,1.55.57,2.82,2.49,3a3,3,0,0,1,2.89,3.3c1.08,4.13,6.17,9.18,3.68,11.68-3.4,3.43-6.65-3-10.38-4.44C836.64,735.13,831.27,734.73,825.78,734.6Z" transform="translate(-798.55 -527.6)"/><path class="cls-108" d="M824.77,735.91l2.83,0c2.28,4.15,5.86,7.68,6.2,12.77l0,0" transform="translate(-798.55 -527.6)"/><path class="cls-108" d="M834.72,760.72c-5.77,1-7.28-1.8-5.74-6.85" transform="translate(-798.55 -527.6)"/><path class="cls-18" d="M833.8,748.71c-.66-4.94-11.17-5.1-6.2-12.77h4C835.14,739.71,835.33,744.06,833.8,748.71Z" transform="translate(-798.55 -527.6)"/><path class="cls-117" d="M848.65,729.86c-2.43-2-7.27-.22-7.82-5.09,1.61-2.24,4.08-3.33,6.31-4.73,1.62-1.7,3.12-3.95,5.69-1.24-1.5,2.92-4.62,5.66-1,9.14Z" transform="translate(-798.55 -527.6)"/><path class="cls-108" d="M802.94,744.9l7.86-7.12" transform="translate(-798.55 -527.6)"/><path class="cls-30" d="M885.72,629.76c-.66,1.93-1,4.59-3.88,1.92l.38-3Z" transform="translate(-798.55 -527.6)"/><path class="cls-86" d="M906.75,609.69l2-1c.29.77,1,2.09.8,2.24C908.05,612.09,907.41,610.78,906.75,609.69Z" transform="translate(-798.55 -527.6)"/><path class="cls-85" d="M861.78,712.74a11.88,11.88,0,0,1-7.19,4.9c-4.11-.28-6.35-2.72-8.32-6.2-2.88-5.09-5.16-10.45-7.77-15.65-.69-1.37-1.84-3.33.11-4.9,1.35-4.23,2.82-1.76,4.24-.07q5.39,6.47,10.75,13C858.87,704.44,860.76,708.19,861.78,712.74Z" transform="translate(-798.55 -527.6)"/><path class="cls-118" d="M838.61,690.88c4.49,9.42,8.05,19.39,16,26.75l-1.76,1.17L847.94,722c-3.6,1.1-4.34-1.17-4.15-3.87a17.71,17.71,0,0,0-.91-7.41c-2.6-6-5.3-12-7.75-18.15-.79-2-3.53-4.83-1.21-6C837,684.88,836.86,689.47,838.61,690.88Z" transform="translate(-798.55 -527.6)"/><path class="cls-10" d="M861.78,712.74a21.77,21.77,0,0,1-8.19-8.95c1.78-6.43,9.55-6.91,12.29-12.39,1.85,4.95-2.26,9.41-1.17,14.29Z" transform="translate(-798.55 -527.6)"/><path class="cls-68" d="M838.73,717.76l-6.06-10c-3.79-6.59-5.91-13.81-8-21l.15-1.07c6.54,8.41,9,18.88,13.94,28.07C839.48,715.09,839.89,716.43,838.73,717.76Z" transform="translate(-798.55 -527.6)"/><path class="cls-62" d="M838.73,717.76q0-2,0-4l2.68,1.76,1.45-4.84L847.94,722c-1.74,2.54-4.48,2.54-7.11,2.82Z" transform="translate(-798.55 -527.6)"/></svg>