<svg id="Layer_5" data-name="Layer 5" xmlns="http://www.w3.org/2000/svg" viewBox="0 0 134.3 195.09"><defs><style>.cls-1{fill:#8e8e8e;}.cls-2{fill:#6b6b6b;}.cls-3{fill:#b1b1b1;}.cls-4{fill:#7f7f7f;}.cls-5{fill:#eee;}.cls-6{fill:#d0d0d0;}.cls-7{fill:#545454;}.cls-8{fill:#777;}.cls-9{fill:#5e5e5e;}.cls-10{fill:#727272;}.cls-11{fill:#a8a8a8;}.cls-12{fill:#717171;}</style></defs><title>r2</title><path class="cls-1" d="M278,382c4.6,0,4-10.16,9.37-6,5.66,4.35,6.83,12.24,8.49,19.13.68,2.84.18,6,.22,9-3.74,4.45-7.87,8.14-14.2,8.22-.94,0-2.64,1-2.65,1.52a5,5,0,0,0,1.37,3.49c3.52,3.11,6.91,1.67,10.49-.38s7.62-2.46,10.06,1.74c1.61,2.76,4.43,6.75-2.28,7.36-.15,0-.48,1.24-.26,1.48,2,2.17,3.88,4.61,6.31,6.15.92.58.85-1.72.75-2.77-.18-1.9-.45-4,2-4.43s3.43,1.71,3.56,3.4c1,13.46,2.1,27.09-3.17,39.91-2.16,5.25-1.24,10.07-.94,15.15l-.15,1.21c-3.75.88-5-1.8-5-4.44.06-6.83-1.11-13.78,1.24-20.46,2.4-6.83,1.16-13.14-2.56-19.13a7.56,7.56,0,0,1-.88-2.8,12.36,12.36,0,0,0-.82-3.86c-1.41-2.76-4-3-5.9-.45-1.35,1.82-1.36,4-1.58,6.17-.31,3-.64,6-4.05,7.29-3.72.73-6-.47-6.82-4.45-.72-3.37-5.52-5.11-4-9.51,1.34-4,.3-6.92-2.75-10-1.75-1.76-2.92-2.19-4.91-1.45a11.5,11.5,0,0,1-1.31.65c-3,.66-6.45,2.57-8.91,0s-2-6.37-.59-9.74a5.7,5.7,0,0,1,1.45-2.55c3.87-2.53,8.52-2.26,12.78-3.38,3.93-1,7.31-3,11-4.5,2.35-1,3.34-2.5,2-5.09-.84-1.62-.67-3.56-1.06-5.34-.93-4.15-3.65-6.53-7.54-7.81a3,3,0,0,1-1-1.1C275.57,382.5,276.52,382,278,382Z" transform="translate(-177.74 -350.98)"/><path class="cls-2" d="M203.88,460.12c-1.37-1.7-2.48-3.73-5-4-1.14-.91-3.07-1.65-3.31-2.76-3.23-14.64-10.23-29.21-1.44-44.24l1-20.14c3.68-6.31,4.18-6.42,11.89-2.62,2.71,4,.91,8.79-.81,11.49-3.4,5.33-1.75,9.82-.44,14.73.38,1.43,1.26,2.71,1.57,4.17.54,2.5-.34,4.15-3,4.68-1.15.23-3-.33-3,1.53s2,1.42,3,2.07c.28.17.59.3.87.47,4.85,3.16,4.42,3,1.91,8.39-2.18,4.7-.84,9.65,1.46,14.19a19.07,19.07,0,0,0,1.78,2.38c3.43,4.74,2.26,7.79-3.5,9.22A10.28,10.28,0,0,1,203.88,460.12Z" transform="translate(-177.74 -350.98)"/><path class="cls-3" d="M206.08,496c.63,2.57,1.61,5.12,1.8,7.73.21,3,3.15,7.45-1.07,8.91-5.78,2-13.88,7.54-17.54,3.17-3.89-4.64-18.43-7.85-7.6-19.32,5.19-5.49,2.48-12.18,1.35-18.46,2.56,9.57,15.82,9.21,18,19.6C201.54,500,205,498.61,206.08,496Z" transform="translate(-177.74 -350.98)"/><path class="cls-4" d="M207,388.06c-4-.33-8.28-3.7-11.91.95,3.21-21.64,16.13-33.14,36.74-37.77,4.17-.94,7.48.82,9.81,4.41,2.08,3.21,0,5.15-2,7.32-2.88,3.16-1.15,6,1.32,8.24,5.91,5.34,12,10.54,18.06,15.66,2.14,1.79,4.68,1.33,7.1.28,3.16-3.89,6.11-4.86,9.77-3.21l1.24.19c2.44,2.68.25,4.63-1.2,6.51-3.89,5.08-4,5.52-.4,10.75,2,3,1.25,5.26-2.23,6.4-6.49,2.12-7.71,1.2-7.67-5.8,0-7.56-3.72-11-11.31-9.89-4.81.69-8.34-.74-11.2-4.69-4.61-6.36-9.9-12.1-16.66-16.3-2-1.23-4.56-3.07-6.28-.87-2.21,2.81-7.71,2.9-6.54,8.79C214.89,385.24,211.88,388.67,207,388.06Z" transform="translate(-177.74 -350.98)"/><path class="cls-5" d="M249,367c.48-2.36-8.69-4.7,0-7.06,5.67-3,12.34-2.39,18.13-5.12,1.59-.75,3.24.83,3.84,2.46,1.17,3.17,3.28,5.78,4.78,8.74A13.07,13.07,0,0,1,270,384c-1.59.86-3.28,1.22-4.67,0C259.53,378.67,252.58,374.46,249,367Z" transform="translate(-177.74 -350.98)"/><path class="cls-6" d="M249,367c3.85,4.87,8.85,8.42,13.59,12.35,6,5,9,1.5,11.43-3.31,3.92-7.81-4-12.3-6.16-18.37-1.14-3.2-5.66-.08-8.62.33-3.44.47-6.84,1.28-10.26,1.94,3.9-5,10.45-2,15-5,8.5-5,11.4,3.43,15.72,7.15,4.07,3.52,6.62,8.5,1.18,13.75-1.52,1.46-2,4.05-2.88,6.12l-2.1,1.94-9.77,3.2C258.7,381.88,252.65,375.46,249,367Z" transform="translate(-177.74 -350.98)"/><path class="cls-7" d="M203.88,460.12c11.3-8.46-3.11-15.21-1.76-23.27.42-2.48-1.28-4.92,2.46-5.82a9.23,9.23,0,0,0,2-1.07L204,428c-1.52-1.13-4-1.57-3.6-4.18.47-2.79,3.08-2,4.9-2.53a17,17,0,0,1,10.72.3c3.1,1.15,6.28.72,9.39.23,4.54-.71,7.81.91,9.73,4.95.95,2,1.69,1.65,3.38.87,5.09-2.35,7.76-.79,7.8,4.76s.76,10.45,4,15.13c2,2.9,1.39,6.4-.08,9.59-1.18,2.57-2,5.27-3,7.91-2.55,6.69.51,11.49,4.79,16,.15.16.18.42.29.62-.12-.31-.28-.61-.38-.93-2.38-7.77-1.42-15.54,1.28-22.86,1.27-3.45,4.24-6.47,6.54-9.56,1.61-2.15,4.7-1.76,6.36.87s2.84,4.33,6.23,2.26c1.82-1.11,3.44.25,4.12,2.33,1.31,4,2.35,8,1.36,12.24-.65,2.18-.77,4.47.78,6.18,2.68,3,2.31,6.1,1.94,9.72-.69,6.84-.22,13.76-.44,20.65a3.13,3.13,0,0,0,0,1.33c-.25-.4.05-.77.06-1.15.38-10.45-.44-21,2.44-31.24,1.6-5.7.84-11.57,1-17.36.06-3,.62-5.58,3.45-7.16,2.23-3.18,1.6-7,2.32-10.49.76-3.73,2.5-7.19,7-7.07,4.66.13,5.88,3.52,5.83,7.6,1.61,10.3,3,20.6,1.44,31.06-.22,1.49-.06,3.54-1.39,4.06-3.6,1.4-3.78,3.55-2.33,6.59a2.6,2.6,0,0,1-.21,2.87c-5.15,4.59-4.57,12-8.59,17.19-3.34,4.36-3.63,10-3.48,15.33.14,4.77-.86,8.59-6,10.17a3.52,3.52,0,0,0-1.65,1.11c-5.77,7.18-13.75,6.73-21.56,5.83a50,50,0,0,0-15.36.67c-8.21,1.58-16.32.4-24.2-1.81-5.51-1.54-5.67-7.3-7.25-11.63-.84-2.31-.83-5-1.51-7.46C209,493.91,203,477.43,203.88,460.12Z" transform="translate(-177.74 -350.98)"/><path class="cls-8" d="M210,511c.53,1,1.1,2.05,1.59,3.11,6.84,14.62,10.46,17.45,26.56,15.62a207.64,207.64,0,0,1,28.29-.78c9.17.21,18.31-8.91,18.58-17.86.32-10.95,6.11-19.86,11.26-28.89,1.9-3.33-.29-4.86-1.17-7.16s-2.46-5-.47-7,4.27-.49,5.9,1.47c.63.75,1.79,1.08,1.83,0,.19-6,3.2-12.75-1.64-17.52-3-2.95-3.7-3.68-.31-6.39,2.6-2.08,1.26-5.64,1.63-8.54,7.32,12.83,1.15,26.33,1.89,39.48.2,3.49-.11,7,3,9.59.33,8.06-2,14.92-8,20.65-5.09,4.86-2.21,13.44-8.69,18.32-8.12,6.11-11.8,17-24.23,18.79-16.37,2.39-32.49,4.25-48.16-2-9.91-3.92-8.62-13.51-8.56-22C209.27,516.94,209.75,514,210,511Z" transform="translate(-177.74 -350.98)"/><path class="cls-9" d="M275,465c0-1.83.11-3.68,0-5.5s-.16-5.29-.93-5.5c-2.62-.73-2.18,2.59-3.5,3.83-.79.74-1.79,2.07-2.48,1.95-2-.38-1.68-2.53-2.21-4-.78-2.24-.47-5.94-3.54-5.83-3.3.12-1.45,3.41-1.52,5.29-.13,3.92-5.08,1.4-6.15,5.34-1.52,5.59.18,11.14-1.27,16.61-.4,1.52.21,5,3.77,2.94.93-.53,1.73-2.19,2.86-.94s-.26,2.45-1.12,3.38c-1.58,1.71-3.23,3.37-4.93,5-1.19,1.11-2.45,2.78-4.26,1.83s-.08-2.66-.17-4c-.1-1.59,0-4-.89-4.6-9.89-6.19-4.55-14.23-2.1-21.16,2-5.65,3.24-10.1-1.15-15.14-2.79-3.21-.89-7.76-1.49-11.65-.21-1.34-.76-3.2-1.74-3.73-1.6-.86-2,1.15-2.65,2.22a5.61,5.61,0,0,1-7.43,2.27c-3.19-1.34-.15-3.24.17-4.91.62-3.21-1.69-5.76-3.92-4.93-7.49,2.79-14.46-.83-21.67-.71-4.18.07-6,1.1-2.66,5-2.85-.53-6.07-1.23-6.3-4.57-.2-3,2.92-2.94,5.14-3.59,4-1.17,1.45-3.55.81-5.53-3-9.28-1.2-17.93,3.36-26.23,4.62-3.16,5.62-7.22,2.84-12.08-1.71-3-1.26-4.75,2.45-4.91,2.32-.1,3.75-.51,4.45-3.43,1-4.37,4.48-2.4,6.84-1.22,8.66,4.36,15.31,11.1,21,18.79,2.51,3.38,5.23,5.1,9.72,4.33,10-1.73,15.31,3.61,14.13,13.88-.14,1.19-1.44,2.86.91,3,1.4.07,3.31-.24,4.17-1.15,1.61-1.7-.89-1.84-1.58-2.72-3.22-4.13-2.81-8.2.31-12.19l4.86-6.21c8.67-2.22,8.17,5,9.78,9.76.81,2.39.32,5.38,4.35,3.81,1.07-.42,2.47,0,2.12,1.09a7.68,7.68,0,0,1-2.87,3.77c-9,5.86-19.35,7.79-29.46,10.5a19.34,19.34,0,0,1-11.34,4.61,12.66,12.66,0,0,0-3.86,1c-.92.39-2.06.9-1.59,2.12a1.75,1.75,0,0,0,2.6.65c4.36-2.8,7.53.63,11,2.11,2.67,1.15,3.89,3.26,2.57,6.47-.92,2.23-1.9,4.61-1.41,7.19a17.81,17.81,0,0,0,4.63-6.36c1.06-2.07,1.85-4.29,3.37-6.1,2.71-3.21,4.34-2.59,7.37.3s3.52,5.95,3.06,9.35c-.5,3.72,1.91,6.61,2.09,10.1.29,5.86-.56,11.62-1.22,17.4C278.07,463.67,277.79,465.74,275,465Z" transform="translate(-177.74 -350.98)"/><path class="cls-10" d="M275,465c1.77-12.29,4.4-24.62-.62-36.76-.57-1.38-2.08-2.38-3.15-3.55-1.15,1.1-2.91,2-3.35,3.34-2.23,6.67-7.81,11.15-10.9,17.23-.34.68-1.44,1-2.18,1.44-.33-1-1.1-2.12-.9-3,.87-3.89,2.18-7.68,3-11.57.45-2.08,3-4.93.22-6.24s-5.68-4.14-9.64-1.66c-2,1.28-5.24,2.6-7.4.46-1.08-1.07-1-3.76-.75-5.61.51-3.32,3.57-2.86,6-3.27,5.25-.91,10.49-1.84,15.74-2.77-2.61,2.73,1.62,6.09-.8,8.84a56.11,56.11,0,0,0,7.29-.59c8.12-1.69,12.81,2.82,11.06,10.72-.74,3.33-1.73,6.81,4,6.74,2.54,0,1.83,2.29,1.39,3.85-.76,2.74.12,4.19,3,4.34-.63,20.55-5.37,40.77-5,61.41,0,1.94.94,5.31-1.92,5.32s-2.08-3.41-1.91-5.3c.9-9.91-2-19.84.25-29.75a4.46,4.46,0,0,0-1.54-3.82C272.34,472.11,273,468.74,275,465Z" transform="translate(-177.74 -350.98)"/><path class="cls-11" d="M209.51,399.38a5.52,5.52,0,0,1,4.4,5.84c0,2-.79,3.78-3.16,3.48-3.34-.43-4.68-2.79-4.65-5.94C206.12,400.59,207.49,399.59,209.51,399.38Z" transform="translate(-177.74 -350.98)"/><path class="cls-3" d="M226,396.29c2.21.18,3.74,1.36,3.61,3.39-.19,3-2.64,3.95-5.22,4.23-1.9.21-3.37-.62-3-2.8C221.72,398.45,223.15,396.58,226,396.29Z" transform="translate(-177.74 -350.98)"/><path class="cls-12" d="M231.27,421.93c-1.66-.2-3.69-.33-3.52-2.53.19-2.42,2.41-2.32,4.21-2.28,1.53,0,3.27.38,3.28,2.24C235.25,421.91,233.06,421.75,231.27,421.93Z" transform="translate(-177.74 -350.98)"/></svg>