<svg id="Layer_3" data-name="Layer 3" xmlns="http://www.w3.org/2000/svg" viewBox="0 0 135.98 273.23"><defs><style>.cls-1{fill:#c5c5c5;}.cls-2{fill:#aaa;}.cls-3{fill:silver;}.cls-4{fill:#bababa;}.cls-5{fill:#878787;}.cls-6{fill:#a9a9a9;}.cls-7{fill:#6e6e6e;}.cls-8{fill:#a1a1a1;}.cls-9{fill:#d1d1d1;}.cls-10{fill:#717171;}.cls-11{fill:#c6c6c6;}.cls-12{fill:#c1c1c1;}.cls-13{fill:#7d7d7d;}.cls-14{fill:#909090;}.cls-15{fill:#a8a8a8;}.cls-16{fill:#626262;}.cls-17{fill:#bbb;}.cls-18{fill:#919191;}.cls-19{fill:#d8d8d8;}.cls-20{fill:#787878;}.cls-21{fill:#b5b5b5;}.cls-22{fill:#8c8c8c;}.cls-23{fill:#545454;}.cls-24{fill:#afafaf;}.cls-25{fill:#c9c9c9;}.cls-26{fill:#9e9e9e;}.cls-27{fill:#656565;}.cls-28{fill:#b7b7b7;}.cls-29{fill:#7c7c7c;}.cls-30{fill:#cacaca;}.cls-31{fill:#989898;}</style></defs><title>starwars-work</title><path class="cls-1" d="M594,679" transform="translate(-512 -404.36)"/><path class="cls-2" d="M664.7,668.09" transform="translate(-512 -404.36)"/><path class="cls-3" d="M550,554,549,553c-6.91-6.83-4.27-13.68-2.12-22,2.44-9.47.13-20.12,6.06-29.08a5.14,5.14,0,0,1,2.92,3.93c-1.78,12.52-1.64,25.18-2.51,37.76C553.07,547.34,553,551.1,550,554Z" transform="translate(-512 -404.36)"/><path class="cls-4" d="M537,476l-13-19c3.5-1.59,7.3-.46,10.94-1.08,2-.34,2.26,2.11,2.22,3.91-.13,5.9,2,10.44,7.63,13,2,.91,3.22,2.31,2.62,4.7l-.51.54Z" transform="translate(-512 -404.36)"/><path class="cls-4" d="M553,506q-.05-2.06-.1-4.13c1.61-8.85-3.67-16-6-23.82l.16-.16c1.34-.64,2.44,0,3.54.65,2.8,1.09,3.71,3.19,4.15,6.12.83,5.57,2,11.08,1.55,16.74C556.14,503.54,556.16,506,553,506Z" transform="translate(-512 -404.36)"/><path class="cls-5" d="M621,589c2,8.7-2.83,17.28-.36,26.11.63,2.25.51,4.25,2.77,5.78,2.72,1.84,3.34,4.65,1.25,7.36-1.55,2-1.43,3.79.1,5.35,3.51,3.58,5.84,6.64,5.09,12.77-.52,4.28.51,6.68-4.73,6.78-1.51,0-4.26,1-4.28,1.59-.1,2.1,2.32.89,3.46,1.68,2,1.43,5.49,3.85,3.83,5.41-3.13,2.95-6.49,7-11.53,6.63-4.63-.33-8.54-4.24-14.08-.84-3.32,2-3.09-4.2-5.56-5.65a10.61,10.61,0,0,1-4.91.75c-6.91-1.65-7.72-2.82-6.19-9.1.36-1.5-.09-3,0-4.42.31-3.58.37-7.42,5-8.56,2.32.62,4.45,1.2,5.43-2.12.45-1.55,2.15-2.07,3.76-1.6,1.77.51,2,1.87,2.39,3.63.8,3.55-1.79,7.18.55,10.52,3.11.51,3.21-1.66,3.17-3.69,0-1.81-.32-3.49.9-5.16,4.46-6.06,3.93-9.55-2-14.33a3.26,3.26,0,0,1-.86-1.19c-.16-2.38.14-4.79-.53-7.13a3.66,3.66,0,0,1,2.43-2.91c4.06-1.8,5.28-5.14,5.33-9.29.08-6.33-.12-12.57-2.25-18.67-1.45-4.14-.69-8.56-.65-12.86a28.44,28.44,0,0,0-.23-6.45c1-3.82.09-7.6-.35-11.37-.37-3.16-.82-6.29.34-9.38,2.29-1.77,4.14-4.43,7.62-3.81,2.08.81,1.73,2.46,1.55,4.18-1,9.63-1.11,19.18,2.61,28.39C621.67,581.19,619.72,585.25,621,589Z" transform="translate(-512 -404.36)"/><path class="cls-6" d="M590.92,641.93c-2.39,3.5-3.74,7-.68,10.91.41.52.58,2,.27,2.18-8.82,6.64,1.83,3.24,2.52,4.93.17,2.21-1.56,2.91-3,3.84-1.29.81-3.08,1.2-3,3.26l6.18,1.56L587,672h-4a47.49,47.49,0,0,0-15,0c-10,8.77-20.66,5.57-31.3,1.66-1.06-.39-1.78-1.73-2.65-2.62.91-1.32,1.54-2.65,0-4l-5-.07c-3.57-1.33-7.4.32-11-.95-.2-6.54,4.88-3.25,7.66-3.95,2-.5,4.19-.08,6.3-.08,3.5-.67,7.22-.4,10.4-2.44a31.16,31.16,0,0,1,12.38-.81,11.6,11.6,0,0,0,3,.18c1.9-.28,4.52.09,4.9-2.42.34-2.2-2.06-2.76-3.68-3.47-5.62-2.48-8.27-6.69-8-12.77.06-1.23.25-2.6,1.28-3.11,3.59-1.76,4.27-5.18,5.48-8.46a9.46,9.46,0,0,1,10.9-5.87c2,.49,3.42,1.43,2.57,3.84-.24.67-.87,1-1.38,1.39.16-.28.53-.19.73-.37.48-.46-.33-.24.24-.4,2.75-.74,1.34-5.5,5.09-5.19,3.71,1.34,3.76,4.74,4.41,7.8a2.94,2.94,0,0,1-.91,2.2c-1.74,1.62-2.22,3.32-.12,4.91,1.94,1.47,3.89,1.72,5.43-.69a10.15,10.15,0,0,1,1.6-1.89c2.36-1.47,4.58-1.1,6,1.17S593.65,640.31,590.92,641.93Z" transform="translate(-512 -404.36)"/><path class="cls-7" d="M641.11,555.94a44.6,44.6,0,0,0-.18,27.14c-.28,7.57,2,14.81.47,22.79-2.31,12.16,2.67,23.89,6.33,35.54.88,2.79-1,6.58-2.06,9.73-.31.89-2.5,1.68-3.74,1.57-3.6-.33-2.4-3.71-3.28-5.83-2.45-5.87-7.89-11.25-5.67-18,5.11-15.59-1-31.23,1.09-46.76a35.27,35.27,0,0,0-.72-13.11,104.37,104.37,0,0,1-1.84-21.66c0-2.79.4-5.65-1.11-8.24a5.89,5.89,0,0,0-5.62-2.48c-2.46.2-4.44-.87-4.76-3.37-1.05-8-2.74-16-.55-24.15,3-2.82,6.59-1.27,9.88-1.09,1.82.1,2.41,2,1.77,3.91-.24.43-.48.87-.76,1.28-.7,1.07-.69,2.34-1,3.51a13.67,13.67,0,0,1,.82-3.14c.24-.44.46-.88.74-1.31,1-1.55.14-3.18.25-4.76.2-3.1,1.33-5.09,4.93-3.46a4.68,4.68,0,0,1,1,4.65c-1.77,5.66-.83,11.43-1.07,17.16a4.75,4.75,0,0,0,.13,1.48c.1.36.22.21-.08-.24s0,.13,0-.51c0-4.46-.56-9,.22-13.36.45-2.53,2.35-2.34,3.73-.18Z" transform="translate(-512 -404.36)"/><path class="cls-8" d="M633.15,536.83c.9,15.07,3.25,30.11.92,45.25-.34-5.17,2-12.18-7.84-10.56-2.19.36-3.86-1.71-4.08-4.21-.12-1.32,0-2.67-.17-4-.79-4.74.15-9.79-2.47-14.21-3.17,4.84-1.49,10.19-1.15,15.21.43,6.35,4.94,12,3.57,18.8-1.12,1.84,1.38,4.25-.93,5.9l0,0A124.47,124.47,0,0,1,616,565.62c-.7-6.57,2-13.08,0-19.61a3.31,3.31,0,0,1-1.76-3.22c1.48-3.63,3.48-5.72,7.94-4C626,540.31,629.42,537.22,633.15,536.83Z" transform="translate(-512 -404.36)"/><path class="cls-9" d="M587,667.05l-3.58-2.13a45.45,45.45,0,0,1,4.25-2.75c1.73-.88,3.59-1.49,5.4-2.22l4,2.06C596.55,669.45,590.71,666.17,587,667.05Z" transform="translate(-512 -404.36)"/><path class="cls-5" d="M621,589.05l.93-5.91c.27,2.33,2.88,4.1,1.61,6.72A17,17,0,0,1,621,589.05Z" transform="translate(-512 -404.36)"/><path class="cls-10" d="M556,435.13l10.07-1.08c1.91-2.36,4.13-2.83,6.71-1.11,3.52,2.61,6.21,6.15,9.79,8.7a4.89,4.89,0,0,1,1.3,3.14c.15,3.76,1.23,6.93,4.53,9.38,3,2.21,3.2,5.4,1.92,9-1.8,5-1.22,5.7,3.94,6.29a55.06,55.06,0,0,0,8.65,1.35,6.4,6.4,0,0,1,5,2.59,3.1,3.1,0,0,1,.31,1.44,6.21,6.21,0,0,1-5.14,4.76,46.94,46.94,0,0,0-14.62,6.15c-2.32,1.42-4.57,1.84-7,.53a5.64,5.64,0,0,0-3.83-.81c-6.8,1.44-9.08,2-6.82,9.69,1.49,5.08,2.91,9.39,9.09,10.26a6,6,0,0,1,4.87,4.53c.77,2.91,3.4,3.42,5.67,4.26a12.7,12.7,0,0,1,6.83,17.75c-1.67,3.12-4.36,3.55-6.76.89a16.73,16.73,0,0,1-4.09-8.37c-.43-2.35-1.17-4.67-4.46-4a5,5,0,0,1-2.4-.3c-3.11-3.5-8-4.62-11-8.22-2.57-3.08-4.73-6.59-5.31-10.55-.84-5.75-2-11.14-6.32-15.47-2.1-2.12-.7-4.67,0-7a3.17,3.17,0,0,1,1-1c1.86-.69,3.62.29,5.43.37,2,.09,4,.05,4-2.77-.05-1.87,1.05-3.11,2.36-4.19,1-.81,1.67-1.71,1-3s-1.84-1.26-3-1.12a42.66,42.66,0,0,1-8.48.13c-3.68-.32-5.61-2.8-6.44-6-1-3.75,1.67-4.94,4.67-5.67.68-.17,2-.09,1.41-1.37-.36-.81-1.7-1.14-2.16-.6-2.53,3-6.5,2.73-9.51,4.56-2.41-.17-4.73-.93-7.22-.82s-3.93-1.72-3.9-4.14c0-3.19.76-6.26,3.42-8.44s5.77-3.66,6.44-7.62c.26-1.54,2.28-1.6,3.8-1.71C551.77,435.34,553.93,435.91,556,435.13Z" transform="translate(-512 -404.36)"/><path class="cls-11" d="M608.91,409.94c3,1.85,3.47,4.87,4.31,8C617,432,621,446,625,460c3.1,3.05,3.3,7,3.42,11a6.29,6.29,0,0,1-3.64,4.29c-6,1.08-10.78-1.23-15.14-5.09-1.79-1.59-3.6-3.74-6-3.94-6.28-.52-7.11-5.33-8.39-9.83-1.2-4.24,1-6.73,5.44-6.39,1.73.13,3.75,1.4,4.86-.91.94-1.94-.26-3.6-1.47-5a15.45,15.45,0,0,1-3.72-8c-1.1-6.88-3.33-13.53-4-20.51-.29-3,.53-5,3.18-5.93C602.6,408.69,605.9,406,608.91,409.94Z" transform="translate(-512 -404.36)"/><path class="cls-12" d="M627,456c-.93-14.84-7.42-28.21-11.16-42.3-.64-2.42-3-5.75-.6-7.27,2.2-1.37,4.22,2.15,5.55,4,11.74,16,17.6,34.48,20.88,53.62,1.68,9.8,4.56,19.25,6.33,29-5.29-.7-9.39-4-13.8-6.5a6.32,6.32,0,0,1-2.66-4.06c-1.93-7.18-3.12-14.53-5.31-21.65A5.31,5.31,0,0,1,627,456Z" transform="translate(-512 -404.36)"/><path class="cls-13" d="M608.91,409.94c-9.6.31-12.9,4-9.55,14,2.67,8,3.14,16.6,10.26,22.64,2.5,2.13.26,4.69-1.33,6.54s-3.52,3.23-6.12,2.21c-1.57-.61-2.09-5.35-4.47-1.87-1.63,2.39-.16,8,1.51,8.07,8.36.57,11.1,9.1,17.87,11.44a43.27,43.27,0,0,0,6.83,1.23c.49,3.87-.17,4.39-3.83,3.57-4.47-1-8.47-3.62-13.18-3.77-4.27-1-8.9-.46-12.81-3-1.88-1-1.47-2.81-1.37-4.4a17.5,17.5,0,0,0-3.65-11.82c-1.35-1.83-1.87-3.5-.28-5.36,2.09-2.45,1.22-6.1,3.49-8.46,4.16-3.46,2.76-7.93,2.23-12.25,1.16-6.79-.8-9.58-7.24-10.36-1.74-.21-3.76,0-4.29-2.41l3.11-2.23c-1.24,0-2.5,0-3.73,0-5.14.38-10.28.85-15.43,1.18-1.27.08-3,.12-3.06-1.66,0-.71,1.31-1.86,2.22-2.11,14.2-3.88,28.88-4.79,43.38-6.83.82-.12,2.47.85,2.59,1.52C612.47,408.14,610.14,408.69,608.91,409.94Z" transform="translate(-512 -404.36)"/><path class="cls-14" d="M556,435.13c-.4,3.13-12.61-3.32-5.22,6.48.85,1.12-2.07,2.09-3.66,2.44-3,.66-6.27,1.22-7.41,4.38-1.26,3.5-4.16,8.84,4.18,6.57,1.79-.49,2.19,1.11,3,2.06a2.3,2.3,0,0,1,1.19.65c1.76,3,3.56,6-1.17,8a5.69,5.69,0,0,0-.87.38,4.16,4.16,0,0,0,1.91.42c5.31.82,6.79,2.39,7.16,7.65-1.53,1.62-4.12,2-5.06,4.3a3,3,0,0,1-1.17.66l-1.83-1.2c-5.9-4.94-13.78-8.43-12.16-18.56.39-2.41-1.59-.35-2.27-.05-3.55,1.56-6-.84-8.64-2.32-2.61-6.64.91-10.63,6-13.94,2.43,1.26,5.86,1.6,6.64-.76C540.22,431.4,548.64,434.94,556,435.13Z" transform="translate(-512 -404.36)"/><path class="cls-15" d="M627,456c2.15,8.69,3.07,18,6.92,25.83,2.38,4.85,9.23,7.5,14.08,11.14-4.16,1.8-1.35,4.57-1,7l-7,13c-6.52,1.65-1.77,6.78-3,10.1-.84,2.26-.52,4.94-.71,7.44a61.26,61.26,0,0,1-1.22-7.67c-.23-6.28-.18-12.56-.24-18.85a3.38,3.38,0,0,1-2.76-3.54c.06-5.8-1.57-11-5.77-15.2a2.68,2.68,0,0,1-.56-1.84c2.56-3.91.73-8.3,1.31-12.42L625,460Z" transform="translate(-512 -404.36)"/><path class="cls-16" d="M583,416c13.52-.06,16.32,2.76,13,13.07-6.1,3-11-.5-16-3-.72-.41-1.56-1.17-2.28-.69-4.87,3.23-10.06,1-15.11,1-2.54,0-5.33-.32-5.51-3.71s3.11-2.69,5-3.6Z" transform="translate(-512 -404.36)"/><path class="cls-14" d="M562,419.05c-1.08,1.07-3.63,1.14-3,3.33.56,2,2.82,1.1,4.25,1.66,6.31,2.48,12.49-3,18.75-.16-.12,4.72-4.49,10.06-9.13,11.17l-6.81-1c-1.08-3.28-3.42-2.77-6-2.26a63.05,63.05,0,0,1-9.77,1.08c-1.08,0-2.2-1-3.3-1.59a13.53,13.53,0,0,1,1.53-2.86C552.25,424.23,554.32,417.54,562,419.05Z" transform="translate(-512 -404.36)"/><path class="cls-8" d="M540,648c.26-5,.1-8.89-6.48-10.72-4.94-1.37-1.34-5.13,1-7,9.4-7.57,14.68-17.06,14.47-29.31q0-.46.08-.93c2-1.49,2-3.73,1.79-5.8A86,86,0,0,1,550,585a3.09,3.09,0,0,1,2.94-3.36c1.93-.18,2.36,1.39,2.85,2.82.57,1.68.18,3.64,1.54,5.07,3,2.95,1.74,7.29,3.41,10.68,1.49,2.55,2.83,5.06,2.12,8.27-.61,2.75.86,3.95,3.62,3.6,3.14,2.23,3.08,5.37.87,7.66s-5.44,2.09-7.66-.88c-2.07-2.77-3.62-2.2-5.09.56a33.51,33.51,0,0,1-4.83,6.9c-4.29,4.71-6.84,10-6.43,16.61C543.47,645,544.08,648.29,540,648Z" transform="translate(-512 -404.36)"/><path class="cls-17" d="M556.93,590.06c-1.88-1.85-1.22-7-3.43-6.28-3.08.95,0,4.88-.48,7.52-.58,3.29,1.53,7.72-4,8.76a56.41,56.41,0,0,0-2-7.51C544,585,546.81,580,555,579l2.09,10A.68.68,0,0,1,556.93,590.06Z" transform="translate(-512 -404.36)"/><path class="cls-1" d="M521,654l12,1C528.92,655.62,524.85,656.18,521,654Z" transform="translate(-512 -404.36)"/><path class="cls-1" d="M568,672a25.93,25.93,0,0,1,15,0Z" transform="translate(-512 -404.36)"/><path class="cls-1" d="M512,641c1,.08,2.58-.16,2.82.31.83,1.6-.86,2-1.83,2.69Z" transform="translate(-512 -404.36)"/><path class="cls-1" d="M518,666l11,.95Z" transform="translate(-512 -404.36)"/><path class="cls-1" d="M534,667.06l2.55.81L534,671Z" transform="translate(-512 -404.36)"/><path class="cls-18" d="M554.2,549.18l-.26,2.82L550,554c3.78-15.8.85-32,3-47.93.57-9.27,4.23-19-4.12-26.9l.16-.19a3.87,3.87,0,0,1,4.57-1.3,3.3,3.3,0,0,1,1.44.8c5.45,11.32,8.41,22.89,5.07,35.58a23.08,23.08,0,0,0,.9,15.61,3.78,3.78,0,0,1-.29,3.78c-3.8,1.68-3.43,5.31-3.57,8.42A10.3,10.3,0,0,1,554.2,549.18Z" transform="translate(-512 -404.36)"/><path class="cls-19" d="M558,589c.44,1.76.87,3.52,1.33,5.28.34,1.27.45,3.41,1.14,3.63,2.14.68,1.16-1.66,1.77-2.57.94-1.42,1.44-.53,2.27.12,3.33,2.59,5.46,5.41,2.53,9.61a1,1,0,0,1-.12,1.24c-1.42.65-3,.33-3.39-1-.77-2.37-3-2.24-4.52-3.38l-2.09-11.91.13-1.06Z" transform="translate(-512 -404.36)"/><path class="cls-20" d="M592,608c-2.7-26.91-5.35-53.83-8.15-80.74-.32-3.08-1.44-6.08-2.19-9.12,3.91-.34,6.94.49,7.31,5.21.28,3.58,1.22,7.37,4.81,8.52,2.28.73,2.63-2.51,2.9-4.34.69-4.74-.78-8.79-5.61-10.27-4-1.22-7.84-2-8.07-7.15.61-2.27,2.6-2.23,4.34-2.6,10.66-2.27,11.47-3.08,13.37-13.44,1-5.23,8.33-8.22,12.38-5,2.13,14.86,2.39,29.9,4.17,44.8a18.92,18.92,0,0,1-1.22,8.14l-.08,4-5.93,3c-3.74-1.8-3.2-5.44-3.44-8.57-.28-3.64-.19-7.31-1.87-10.67-.58-1.16-1.18-2.65-2.83-2.23-1.35.34-1.15,1.81-1.41,2.92A59.09,59.09,0,0,0,600,554a11.38,11.38,0,0,1-.69,5.36c-4.33,8.39-1.75,17.23-1.18,25.78.55,8.25,3.11,16.31,3.94,24.61a21,21,0,0,1-.11,7.43c-.37,1.42-1.33,2.46-2.92,1.93-1.26-.42-1.25-1.84-1.56-2.94a5.43,5.43,0,0,0,.24,1.08c.09.32.15.65.22,1,.69,2.89,1.65,4.92,4.65,1.72a1.73,1.73,0,0,1,2.3,0l1.06,7c2.58,5.32,1.56,10.71.31,16.09-.14,3.61-.5,7.16-3.11,10l-.1.75c-1.6,1.81-3.28,4.89-5.88,2.75s1.2-3.37,1.91-5.11a22.38,22.38,0,0,0,1.53-5.72c.26-2.18,1.32-5.86-1.13-6.08-2.65-.25-.93,3.45-1.59,5.29a21.44,21.44,0,0,1-1.37,3.36c-3.19-.9-4-4-5.64-6.41-.82-2.41,2.09-8.57-4.85-4.84-6.18,2-8.51.25-8.07-6.09l-3-8a2,2,0,0,1-.52-2.53c1.22-1.29,2.54-2.55,2-4.6s-.08-3.89,2.2-4.27c1.94-.33,3.46.93,4.35,2.64a49.57,49.57,0,0,1,1.9,5.11c.57,1.45.75,3.66,3,3.22,1.94-.37,2.3-2.38,2.28-4C590.23,614.94,591.49,611.54,592,608Z" transform="translate(-512 -404.36)"/><path class="cls-4" d="M603.93,644,606,627c3.55-2.21,3.89-1,5.89,2.75,4.63,8.6-3.29,14-3.51,21.13-.07,2.38-3.41,2.09-5.29,3l0,.12C601.51,650.5,603.92,647.37,603.93,644Z" transform="translate(-512 -404.36)"/><path class="cls-21" d="M623.34,640.89c-.88,3.48.65,7.8-3.58,10.1-.55-1.45-1.87-3.15-1.49-4.29a36,36,0,0,1,4.37-8.62C622.87,637.74,623.3,639.83,623.34,640.89Z" transform="translate(-512 -404.36)"/><path class="cls-22" d="M576.12,620.86,575,623c-.3,7.08-8.25,6.53-11.06,11.1-.75-.47-1.93-.78-2.17-1.43-.77-2.08.94-2.88,2.38-3.77,1.65-1,3.27-2.09,4.9-3.14-.37-.24-.74-.67-1.12-.69-2.82-.17-5.47.52-7,3-1,1.66-.94,3.95-2,5.55-1.32,2,2.63,8.74-4.76,5.72,0,0-.73,1.08-.61,1.53.83,3.25.19,7.18,4.22,9,3.33,1.5,6.62,3.11,9.82,4.86a13,13,0,0,1,2.62,2.62,29.09,29.09,0,0,1-3.14,2.08c-7.82,3.86-16.08,1-24.13,1.55,1.43-4.9-6.59-7.61-3-13-2.39-16.35,12.92-25.38,16.3-39.36.13-.53.83-.91,1.26-1.37a6.78,6.78,0,0,1,1.29,1.83c.61,2.2.73,4.6,1.67,6.63.79,1.7,2.31,3.73,4.69,2.49s1.84-3.25.74-5.17c-3.49-2.57-3.39-3.33.91-7.21q.09-.39.2-.77c4.82,1.2,2.2,5.19,3,7.91a14,14,0,0,1,1.41,1.65,5.13,5.13,0,0,0,3,2.85C576.18,618.19,576.7,619.16,576.12,620.86Z" transform="translate(-512 -404.36)"/><path class="cls-22" d="M578,631c1.41,3.73,4.61,5.08,8.07,6.09-.15,3.33-2.32,4-5.1,3.87-2.31-.09-4.84.18-5.65-2.76S575.08,632.65,578,631Z" transform="translate(-512 -404.36)"/><path class="cls-23" d="M612.08,489.06c-5.15,1.41-8.83,3.18-9.44,10-1.08,12.07-11.54,10-19.62,11.09-1-.64-1.94-1.83-2.92-1.83-13.11-.1-10.44-11.64-13.57-18.82-1.42-3.26.18-5.29,4-5.51,12.74-.7,25.18-2.7,36.54-9,2.63-1.45,5,.23,7.29.94,3,.92,5.94,2,8.89,3,2.08.73,3.87,1.46,3.86,4.05,7.66,5.16,7.45,13.19,7.69,21.06-3.32,2.11.72,7.3-3.72,8.94a1.47,1.47,0,0,1-1.11-.7c-1.53-5-7.25,1.36-8.92-3.28-2.57-.12-3.42-2-3.33-4C618,498.84,614.18,494.28,612.08,489.06Z" transform="translate(-512 -404.36)"/><path class="cls-17" d="M612.08,489.06c6,3,8.62,7.82,8,14.56-.15,1.74.62,3.56,1,5.35.14,5.46-.06,11,.52,16.36.42,3.9-1.93,11.36,7.32,7,2.54-1.19,3.42,2.34,4.24,4.48-3.13,5.12-7.44,7.73-13.06,4.46-2.22-1.29-2.17,4.52-4,.7C613.6,524.43,611.49,506.85,612.08,489.06Z" transform="translate(-512 -404.36)"/><path class="cls-24" d="M630,512.25l1.11.7c0,2.5.15,5-.08,7.48-.19,2,2.43,5.54-1.06,5.63-2.95.08-3.28-3.92-2.81-6.5S629,514.69,630,512.25Z" transform="translate(-512 -404.36)"/><path class="cls-13" d="M559.14,533c-5.26-7.45-2.29-15.5-.85-23,2.13-11.05-1.09-20.94-4.32-31a2.54,2.54,0,0,1,4,0c-.91,3.72-.15,6.64,3.21,9,1.59,1.14,3.33,3.43,3.34,5.21.06,11.55,5.93,19.21,15.46,24.69-10.22-2.6-13.17,3-14,11.85-.54,5.75-2,11.41-3.06,17.11-.56,3.08-1.66,4-3.84,1C555.66,543,556.87,538,559.14,533Z" transform="translate(-512 -404.36)"/><path class="cls-23" d="M547.15,457.94q-.13-.44-.23-.88c3.1-2.48,6.93-4.09,8.12-8.64.44-1.68,3.29-1.62,4.05.1,1.57,3.56,3.76,5.68,7.77,5.79.48,0,.93,1.09,1.4,1.68-.5.37-.95,1-1.49,1.07-1.13.21-2.41-.12-3.44.27-2.9,1.1-7.21-.7-8.55,3.46-.63,2,1.33,3.56,3.22,3.69,4.21.29,9.07,2.48,11.8-3.1a12.8,12.8,0,0,1,1.31-1.82l4.29,16.17a7.23,7.23,0,0,1-2.66.27c-.69-.2-1.2-1.57-1.75-1.54s-1.35,1-2,1.49c-1.67,3.15-4.53,2.1-7.12,2a27,27,0,0,1-11.78-15.87A9,9,0,0,0,547.15,457.94Z" transform="translate(-512 -404.36)"/><path class="cls-25" d="M572.89,435.05,582,423.88c3.89,3.72,9.37,3.19,13.91,5.16,6.1,5.09,1.86,9.5-.92,14-2.72-1-4.24,4.22-7.31,1.43-.14.43.19.62.38.93,1.17,1.91,2,4.07-.67,5.26-3,1.34-3.71-1.18-4.21-3.29a8.51,8.51,0,0,0-2.32-4.26A18.17,18.17,0,0,1,572.89,435.05Z" transform="translate(-512 -404.36)"/><path class="cls-26" d="M580.84,443.15c3.43.44,2.82,7.19,5.38,5.4,2.38-1.67-1.46-5.7-2.33-8.76-.44-1.53-1.8-3.7,0-4.41,2.18-.85,2.46,1.93,2.65,3.25.8,5.57,4.6,4.88,8.41,4.4-4.06,3.94-6.81,8-2.27,13.49,3.72,4.46,3.56,9.4,1.43,14.49-1.4,1.72-2.91,3.32-5.41,2.39-1.73-.64-3.14-2.54-2.42-3.84C592.09,459.08,582.48,452,580.84,443.15Z" transform="translate(-512 -404.36)"/><path class="cls-27" d="M547.15,457.94c6.54,1.07,4.84,8.32,8.63,11.56,2.07,1.77,3.52,4.27,5.24,6.45.26,1.64-.9,2.34-2,3l-1,0h-4c-2.95-1.68-.92-3.35,0-5-1.06-3-2.48-5.64-6.31-4.78-6.72,1.51-6.93-3.87-8.31-7.85-.22-.65.82-2,1.61-2.59.33-.24,1.69.6,2.32,1.22,1.14,1.14,1.13,4.23,3.58,3C548.8,462,547.14,459.66,547.15,457.94Z" transform="translate(-512 -404.36)"/><path class="cls-28" d="M627.14,483l-20-8q-.09-.46-.21-.91c1-4.07,3.08-1,4.83-.86,4.07.27,7.67,6.2,12.18,1.06l3.16-3.22C628.14,475,634.77,478.92,627.14,483Z" transform="translate(-512 -404.36)"/><path class="cls-13" d="M559,479l2-3H569c1.29,1.19,2.49,2.83.59,4C566,482.19,562.4,480.68,559,479Z" transform="translate(-512 -404.36)"/><path class="cls-29" d="M554,474q0,2.51,0,5l-4.92-.08C549.24,475.84,550.95,474.26,554,474Z" transform="translate(-512 -404.36)"/><path class="cls-30" d="M413.59,674.38" transform="translate(-512 -404.36)"/><path class="cls-4" d="M566.85,605.84c.56,2.51-2.49,4.57-.9,7.21-.2,1.46-.1,3.41-2,3.45-.82,0-2.13-1.59-2.41-2.66-1-3.91-1.72-7.91-2.53-11.87C563.25,600,565.41,602.18,566.85,605.84Z" transform="translate(-512 -404.36)"/><path class="cls-17" d="M559.14,533q0,7.46-.06,14.93l-1.13.05-3.75,1.16c.61-4.71,1.18-9.43,1.84-14.13C556.28,533.3,556.26,530.84,559.14,533Z" transform="translate(-512 -404.36)"/><path class="cls-31" d="M570,615.06l0-2.08c2.11-.11,4.52.33,5.51-2.27a5.24,5.24,0,0,0-1.09-5.54c-.86-1-3-1.44-1.93-3.42a2.78,2.78,0,0,1,2.1-1c2.08,0,2.8,1.72,3.17,3.29,2.34,10.1,8.48,6.31,14.25,4a25.31,25.31,0,0,1-.46,16.46c-.67,1.84-1.56,4-4,3.81s-3.59-2.1-4.23-4.27c-.88-3-1.65-6-2.6-9-.25-.79-.62-2.24-1.93-1.21-.36.28,0,1.51.07,2.31C575.54,619.22,572.85,616.62,570,615.06Z" transform="translate(-512 -404.36)"/><path class="cls-28" d="M570,615.06l8.85,1c.86,2.63,1.47,5.11-2.77,4.78C574.45,618.56,570.81,618.31,570,615.06Z" transform="translate(-512 -404.36)"/><path class="cls-5" d="M603.93,644l-.86,10C601.1,650.47,602.61,647.25,603.93,644Z" transform="translate(-512 -404.36)"/></svg>