<svg xmlns="http://www.w3.org/2000/svg" viewBox="0 0 332.88 175.69"><defs><style>.cls-1{fill:#13120d;}.cls-2{fill:#ededed;}.cls-3{fill:#0e0d0a;}.cls-4{fill:#15140e;}.cls-5{fill:#15130e;}.cls-6{fill:#15140f;}.cls-7{fill:#11100b;}.cls-8{fill:#f9d853;}.cls-9{fill:#fad853;}.cls-10{fill:#131109;}.cls-11{fill:#0b0a07;}.cls-12{fill:#e4e4e4;}</style></defs><title>Asset 1</title><g id="Layer_2" data-name="Layer 2"><g id="Layer_1-2" data-name="Layer 1"><path class="cls-1" d="M205.88,0a8.89,8.89,0,0,1,2.82,4.83c7.1,25.62,14.15,51.25,21.44,76.82,1,3.56.22,4.38-3.19,4.28A137,137,0,0,0,211,86c-4.63.4-7.23-.93-7.7-5.71-.38-3.95-2.28-5.77-6.53-5.22a39,39,0,0,1-9.47,0c-6.32-.75-11,.32-11.66,7.93-.2,2.49-2.23,2.91-4.45,2.89-6-.05-12-.15-18,.1-4,.17-4.28-1.47-3.35-4.77Q160.58,43,171.07,4.82c.76-2.77,2.23-3.52,4.92-3.69,2.29-.14,4.93,1.09,6.9-1.14ZM190.35,6.33c-3.83,0-7.66.12-11.48,0-2.41-.1-3.5.73-4.15,3.13-6.12,22.29-12.39,44.53-18.56,66.81-.32,1.17-1.11,2.59.17,3.69,3.59,3.07,16.24-.63,17.11-5.23.77-4.06,2.66-5.55,6.73-5.34,7.14.36,14.31.47,21.46.42,3.06,0,4.84,1,5,4.07.27,6.3,3.73,8.07,9.44,7.15a19.43,19.43,0,0,1,5,0c3.66.37,4-1,3.08-4.29-5.48-19-10.76-38.08-16.07-57.14C204.28,6.05,204.3,6,190.35,6.33Z"/><path class="cls-2" d="M332,55a8.3,8.3,0,0,1,.91,0V86h-1Z"/><path class="cls-2" d="M332.88,119l-1.26-.12.2-28.85,1.06,0Z"/><path class="cls-3" d="M331.82,90l-.2,28.85c-9.33.17-18.66.45-28,.47-3.92,0-4.24,1-2.1,4.14a158.85,158.85,0,0,1,10,16.09c6.16,11.87.93,28-10.64,34.16a13.56,13.56,0,0,1-6.7,1.54c-18.16-.08-36.33-.44-54.47,0-7.63.21-13.1-2.36-17.7-8-2.72-3.36-5.69-6.53-8.62-9.71a18.78,18.78,0,0,0-2.61-2,26.58,26.58,0,0,0-.63,3.35c-.33,5.28,1.37,13.23-1.33,15.21-3.73,2.74-10.75,1.08-16.37,1.12-10.5.08-10.51,0-10.43-10.69.16-23.16.42-46.31.4-69.47,0-3.92,1-5.09,5-5q19,.52,38,.35c11.48-.11,20.38,4.09,24.59,15.07,4.46,11.62,3.47,22.87-4.81,32.86-1.1,1.33-3.56,2.24-2.88,4.08.28.76,3.24.7,5,.71q13.49.11,27,0c1.93,0,4.92.26,5.54-.76,1.07-1.73-1.38-3.35-2.47-4.88-5.55-7.76-10.68-15.31-9.64-25.88,1.21-12.3,10.38-21.91,22.64-21.87C304.18,89.84,318,89.94,331.82,90Zm-145,42.85h.13q0,11.49,0,23c0,14.5,0,14.4,14.58,14.17,3,0,4.05-.82,4-3.91-.18-6.15,0-12.32.13-18.48,0-1.53-.9-3.64.92-4.41.58-.25,2.21,1.6,3.16,2.66,5.55,6.2,11,12.54,16.61,18.64,2.31,2.49,4.57,5.3,8.61,5.28,18.65-.12,37.31.17,55.95-.34,16-.44,23.77-15.31,15.64-29.29-3.43-5.9-7.36-11.51-10.6-17.5-2.26-4.18-2.14-7.86,4.21-8,4.33-.06,8.65-.4,13-.5,15.32-.35,15.26-.33,14.43-15.7-.14-2.55-.83-3.5-3.46-3.44-11.32.24-22.66-.06-34,.53-15.32.81-23.09,16.49-15,29.75,3.12,5.11,6.71,9.94,9.73,15.1,2,3.42,2.1,7.72-2.77,7.92-13.46.55-27,.32-40.43.12-3.55-.05-5.5-3.22-6.76-6-1.36-3,2.14-3.64,3.73-4.95,7.5-6.17,10.36-14.1,9.12-23.53s-8.81-17.74-16.26-17.82c-13.49-.15-27,.13-40.46,0-3.69,0-4.35,1.46-4.29,4.75C186.91,111.55,186.79,122.21,186.79,132.87Z"/><path class="cls-4" d="M106.41,1.47c16.16,0,32.32.07,48.48-.05,3.67,0,5.33.89,5.08,5-.39,6.48-.34,13-.11,19.49.13,3.45-1.16,4.2-4.32,4-7-.37-14-.15-21-.66-3.94-.29-4.67,1.05-4.64,4.68.15,15.66-.17,31.33.05,47,.06,4.1-1.25,5.08-5,4.88a152.69,152.69,0,0,0-16,0c-3.87.21-5.17-1-5.14-5,.11-15.49-.24-31-.16-46.49,0-3.77-1.3-4.9-4.9-4.8-7.32.21-14.66.14-22,.08-2.93,0-3.55.83-2,3.43,3.31,5.39,6.64,10.78,9.64,16.34A26,26,0,0,1,77.93,81.9c-2.47,2-5.09,3.46-8.56,3.47q-32.24,0-64.48.39c-3.4,0-4.67-.75-4.58-4.36C.5,74.06.43,66.72,0,59.4-.19,55.36.78,54,5.11,54c15.16.23,30.32,0,45.49-.06,1.13,0,2.87.23,3.27-.37.92-1.34-.77-2.27-1.45-3.3-2.59-3.87-5.45-7.58-7.87-11.55-6.32-10.39-4.39-24.67,4.3-33.13A14.63,14.63,0,0,1,59.93,1c15.49.27,31,.1,46.49.1Zm0,4.28c-14.83,0-29.66,0-44.49,0a12.12,12.12,0,0,0-7.47,2.15,20.67,20.67,0,0,0-6,27.85c3,5,6.62,9.6,9.61,14.59s.53,9.37-5.25,9.39c-10.5,0-21,0-31.49,0-16.9,0-16.8,0-16.41,16.92.07,3.25,1.23,3.85,4.1,3.8,18.32-.26,36.65-.24,55-.6,15.77-.31,23.71-14.38,16-28.25-3.22-5.82-6.89-11.4-10.21-17.17-3.57-6.2-1.22-10.34,5.78-10.38,9.16,0,18.34.15,27.49-.2,4.12-.16,5,1.31,5,5.11-.16,13.16,0,26.32,0,39.49,0,12.1,0,11.94,12.32,11.89,3.87,0,5.13-1,5.06-5-.22-11.66,0-23.32.06-35,.09-16.27.1-16.27,16.53-16.39,13.78-.1,13.65-.1,13.77-13.83,0-3.52-.92-4.49-4.43-4.45C136.44,5.86,121.44,5.75,106.44,5.75Z"/><path class="cls-5" d="M15.57,90.26C27.42,90,27.32,90,31.23,101.84c.85,2.57.75,5.67,3.22,7.59.8-2.54,1.62-5.06,2.38-7.61,3.52-11.71,3.51-11.72,15.8-11.54,13.39.19,13.36.2,17.25,13.08.61,2,1.53,4,2.31,5.94.75-1.9,1.63-3.76,2.23-5.71,4-13.15,4-13.16,17.49-13.31,13-.15,13-.16,9.53,12.24C95.27,124.6,89,146.66,83.12,168.83c-1.27,4.78-3.32,6.3-8.18,6.16-12.08-.34-12.08-.11-15.33-11.51-1.64-5.75-3.27-11.51-5-17.24A19.23,19.23,0,0,0,53,143a24.11,24.11,0,0,0-1.64,3.44c-2.44,8.12-5,16.21-7.09,24.42-.79,3.08-2.13,3.83-5.12,3.85-14.12.06-14.16.16-17.9-13.2-6.13-21.93-12.08-43.91-18.36-65.8-1.28-4.45-.46-6,4.21-5.54C9.89,90.48,12.74,90.26,15.57,90.26ZM16.79,96C8.73,94,7.92,97.19,10,104.35,16,124.59,21.5,145,27,165.4c.86,3.21,2.32,4.53,5.51,4s7.19,1.86,8.68-3.87c3.17-12.23,7-24.27,10.64-36.38.27-.91.73-2.46,1.19-2.49,1.53-.12,1.28,1.58,1.54,2.47,3.52,12.31,7.12,24.61,10.23,37,1,3.87,3.11,4.19,6.09,3.79s6.7,1.78,8.14-3.71c5.3-20.27,11.17-40.39,16.75-60.59,2.71-9.8,2.61-9.49-7.81-10-5.26-.27-7.19,1.52-8.25,6.47-1.59,7.47-4,14.76-6.16,22.1a9.26,9.26,0,0,1-1.4,2.19A12,12,0,0,1,71,124.21c-1.52-4.93-3-9.86-4.43-14.81-4-13.85-4-13.75-18.64-13.75-3.25,0-4.63.95-5.45,4.14-2.06,8.05-4.54,16-6.89,24a28.89,28.89,0,0,1-1.12,2.76,14.49,14.49,0,0,1-1.64-2.88C30.76,116.79,28.37,110,26.94,103,25.72,97,23.19,94.11,16.79,96Z"/><path class="cls-6" d="M332,55l-.13,31c-14.31-.1-28.64.15-42.93-.42-7.8-.31-11.22-7.65-16.25-12.3-2.46-2.28-3.7-5.8-7.17-7.06-.31,3.25-1.09,6.54-.83,9.75.65,8.06-2.38,10.47-10.62,10-16.86-1-16.89-.48-16.91-17.46,0-21,0-42-.14-63,0-3.51.92-4.52,4.45-4.46,13.15.21,26.31.08,39.47.08,16.56,0,27.24,11.46,26.48,28.33-.36,8-2.83,15-8.65,20.64-.86.84-2.59,1.68-1.6,3.15.44.66,2.07.72,3.16.73,9,.1,18,.08,27,.2C328.85,54.21,330.63,53.49,332,55ZM241.75,43.6c0,10.82,0,21.64,0,32.47,0,1.8-.77,3.8,2.55,4.22,14.87,1.87,15.68,1.25,16.36-13.13.21-4.55-.7-9.19,1-13.64,3.13,3.4,6.8,6.45,9.28,10.27,8.56,13.18,20.19,19,35.84,16.33a36.44,36.44,0,0,1,6,0c15.56,0,15.47,0,14.63-15.81C327.21,61.1,326.26,60,323,60c-8.49.07-17-.19-25.47-.34-4.47-.07-6.25-3.66-7.83-6.78s2.34-3.33,3.68-4.94c2-2.41,4.58-4.46,6.17-7.11,8.68-14.41-.7-36.34-18.83-34.7-11.39,1-23,.21-34.44,0-3.48-.07-4.65,1-4.59,4.52C241.86,21.62,241.75,32.61,241.75,43.6Z"/><path class="cls-7" d="M133.89,89.83c17.81-.38,17.8-.38,22.7,16.85,6,21.1,11.95,42.22,18.07,63.29,1.06,3.64.56,5.18-3.58,4.92a70.42,70.42,0,0,0-12,.1c-6.64.72-11.75-.23-12.23-8.34-.11-1.86-1.33-2.4-3.11-2.39-6.16,0-12.32-.06-18.48-.15-4.72-.07-3.84,4-4.4,6.46-.74,3.3-1.89,4.69-5.55,4.45-6.14-.4-12.31-.27-18.47-.16-3,.05-3.7-1-2.9-3.84q10.94-39.14,21.67-78.35c.6-2.21,1.54-2.94,3.75-2.88C124.24,89.92,129.07,89.83,133.89,89.83Zm26.93,79.28c8,1.92,8.73-1.09,6.47-8.14-4.57-14.25-8.15-28.82-12.33-43.2-2.17-7.46-1.7-17.87-7.45-21.51s-15.13-1-22.94-1.17a10.68,10.68,0,0,1-1.5,0c-2.25-.37-3.26.73-3.83,2.81q-9.41,33.91-18.88,67.8a7.4,7.4,0,0,0,0,2.71c4.64.3,9.28.62,13.93.59,3.15,0,2.88-3.13,3.07-4.92.55-5.19,3.3-6.26,8-6,6.81.44,13.66.36,20.48.23,2.78-.06,4.62.61,4.8,3.54C151.05,168.53,154.42,171,160.82,169.1Z"/><path class="cls-8" d="M190.35,6.33c14-.28,13.93-.27,17.69,13.2,5.31,19.06,10.59,38.13,16.07,57.14,1,3.32.58,4.66-3.08,4.29a19.43,19.43,0,0,0-5,0c-5.72.92-9.18-.85-9.44-7.15-.13-3-1.91-4.09-5-4.07-7.15.06-14.32-.06-21.46-.42-4.08-.21-6,1.28-6.73,5.34-.87,4.6-13.51,8.3-17.11,5.23-1.29-1.1-.5-2.52-.17-3.69,6.17-22.27,12.43-44.52,18.56-66.81.66-2.39,1.75-3.23,4.15-3.13C182.68,6.44,186.52,6.33,190.35,6.33ZM190,53.88a32.94,32.94,0,0,1,4,0c5.75.7,7.18-1.08,5.19-6.85-2.91-8.43-4.86-17.2-7.29-25.8a14.12,14.12,0,0,0-1.56-2.84,20.89,20.89,0,0,0-1.22,2.69Q185.7,32.53,182.39,44C179.52,53.88,179.52,53.88,190,53.88Z"/><path class="cls-8" d="M186.79,132.87c0-10.66.12-21.32-.07-32-.06-3.29.61-4.79,4.29-4.75,13.49.13,27-.15,40.46,0,7.45.08,15,8.5,16.26,17.82s-1.62,17.36-9.12,23.53c-1.59,1.31-5.09,1.91-3.73,4.95,1.26,2.81,3.21,6,6.76,6,13.48.2,27,.43,40.43-.12,4.86-.2,4.78-4.5,2.77-7.92-3-5.16-6.61-10-9.73-15.1-8.1-13.26-.33-28.94,15-29.75,11.3-.59,22.64-.3,34-.53,2.63-.06,3.32.9,3.46,3.44.82,15.37.89,15.35-14.43,15.7-4.33.1-8.65.44-13,.5-6.36.09-6.48,3.77-4.21,8,3.24,6,7.17,11.61,10.6,17.5,8.13,14,.4,28.85-15.64,29.29-18.64.51-37.3.22-55.95.34-4,0-6.3-2.79-8.61-5.28-5.66-6.1-11.05-12.44-16.61-18.64-1-1.06-2.58-2.91-3.16-2.66-1.82.77-.88,2.88-.92,4.41-.17,6.16-.31,12.33-.13,18.48.09,3.09-.94,3.86-4,3.91-14.56.23-14.56.32-14.58-14.17q0-11.49,0-23ZM214,129c4.4,0,7.24.2,10,0,3.81-.34,5.91-3,6.72-6.43.9-3.79.25-8.14-3.15-9.81-6.43-3.14-13.69-1.61-20.63-1.69a1.79,1.79,0,0,0-1.2,1.27c0,5.3-.92,10.91.56,15.78C207.2,130.87,212.39,128.6,214,129Z"/><path class="cls-9" d="M106.44,5.75c15,0,30,.11,45-.08,3.51,0,4.46.93,4.43,4.45-.12,13.73,0,13.73-13.77,13.83-16.43.12-16.44.12-16.53,16.39-.06,11.66-.28,23.33-.06,35,.07,4-1.19,5-5.06,5-12.32,0-12.3.21-12.32-11.89,0-13.16-.2-26.33,0-39.49,0-3.8-.84-5.26-5-5.11-9.15.35-18.32.15-27.49.2-7,0-9.35,4.17-5.78,10.38,3.32,5.77,7,11.34,10.21,17.17,7.66,13.87-.28,27.94-16,28.25-18.32.36-36.65.34-55,.6-2.87,0-4-.56-4.1-3.8-.39-16.92-.49-16.92,16.41-16.92,10.5,0,21,0,31.49,0,5.78,0,8.29-4.33,5.25-9.39s-6.58-9.63-9.61-14.59a20.67,20.67,0,0,1,6-27.85A12.12,12.12,0,0,1,62,5.71C76.79,5.79,91.62,5.75,106.44,5.75Z"/><path class="cls-8" d="M16.79,96c6.4-1.93,8.93,1,10.16,7,1.43,7,3.81,13.77,5.87,20.62a14.49,14.49,0,0,0,1.64,2.88,28.88,28.88,0,0,0,1.12-2.76c2.34-8,4.83-15.92,6.89-24,.82-3.2,2.19-4.14,5.45-4.14,14.67,0,14.65-.1,18.64,13.75,1.42,5,2.92,9.89,4.43,14.81a12,12,0,0,0,1.16,2.14,9.26,9.26,0,0,0,1.4-2.19c2.14-7.34,4.57-14.63,6.16-22.1,1.05-5,3-6.74,8.25-6.47,10.42.54,10.51.22,7.81,10C90.18,125.81,84.31,145.93,79,166.2c-1.44,5.49-5.11,3.3-8.14,3.71s-5.12.08-6.09-3.79c-3.11-12.42-6.72-24.71-10.23-37-.25-.89,0-2.59-1.54-2.47-.46,0-.92,1.58-1.19,2.49-3.61,12.11-7.47,24.16-10.64,36.38-1.48,5.73-5.49,3.32-8.68,3.87s-4.65-.76-5.51-4C21.5,145,16,124.59,10,104.35,7.92,97.19,8.73,94,16.79,96Z"/><path class="cls-8" d="M241.75,43.6c0-11,.11-22-.06-33-.05-3.49,1.11-4.59,4.59-4.52,11.48.24,23.05,1.06,34.44,0,18.13-1.65,27.51,20.29,18.83,34.7-1.59,2.65-4.16,4.69-6.17,7.11-1.34,1.61-5.2,1.92-3.68,4.94s3.36,6.71,7.83,6.78c8.49.14,17,.4,25.47.34,3.26,0,4.2,1.1,4.37,4.29.84,15.83.93,15.83-14.63,15.81a36.44,36.44,0,0,0-6,0C291.1,82.74,279.47,77,270.91,63.78c-2.48-3.82-6.15-6.87-9.28-10.27-1.66,4.45-.74,9.1-1,13.64-.68,14.38-1.48,15-16.36,13.13-3.31-.42-2.54-2.42-2.55-4.22C241.73,65.24,241.75,54.42,241.75,43.6Zm29.4-4.16a36,36,0,0,1,4.47,0c6.5.82,9.75-2.29,10-8.52.32-6.64-3.31-9.69-9.75-9.75a51.07,51.07,0,0,1-7.45-.16c-6.37-1-8.6,1.16-8.21,7.85C260.88,39.41,260.44,39.44,271.15,39.44Z"/><path class="cls-8" d="M160.82,169.1c-6.4,1.86-9.77-.57-10.16-7.22-.17-2.93-2-3.59-4.8-3.54-6.83.14-13.68.21-20.48-.23-4.71-.3-7.47.77-8,6-.19,1.79.08,4.89-3.07,4.92-4.64,0-9.29-.28-13.93-.59a7.4,7.4,0,0,1,0-2.71q9.41-33.91,18.88-67.8c.58-2.08,1.58-3.17,3.83-2.81a10.68,10.68,0,0,0,1.5,0c7.8.14,17.3-2.4,22.94,1.17s5.29,14,7.45,21.51c4.18,14.38,7.76,28.94,12.33,43.2C169.55,168,168.79,171,160.82,169.1Zm-26.45-26.94c2.33,0,4.67-.09,7,0s3.32-.64,2.61-3.17c-2.75-9.77-5.38-19.57-8.12-29.35a8,8,0,0,0-1.27-2,12.16,12.16,0,0,0-1,2c-2.26,7.49-4.47,15-6.7,22.48C123.86,142.25,123.86,142.25,134.37,142.16Z"/><path class="cls-10" d="M190,53.88c-10.49,0-10.5,0-7.62-9.9q3.33-11.45,6.7-22.88a20.89,20.89,0,0,1,1.22-2.69,14.12,14.12,0,0,1,1.56,2.84c2.43,8.6,4.38,17.37,7.29,25.8,2,5.78.56,7.56-5.19,6.85A32.87,32.87,0,0,0,190,53.88Zm-.15-5.16c3.32.48,4.55-.7,3.5-4.19-1.16-3.86-.85-8.12-3.05-11.72-1.19,3.94-2.3,7.92-3.6,11.83C185.71,47.65,186.4,49.16,189.86,48.73Z"/><path class="cls-11" d="M214,129c-1.6-.37-6.8,1.9-7.66-.92-1.48-4.87-.57-10.48-.56-15.78A1.79,1.79,0,0,1,207,111c6.93.08,14.2-1.45,20.63,1.69,3.4,1.66,4,6,3.15,9.81-.81,3.43-2.91,6.08-6.72,6.43C221.23,129.17,218.39,129,214,129Zm2.79-4.81c3.17-1.44,9.86,2,9.19-4.17-.75-6.89-7.81-2.73-11.95-3.86-3.11-.85-4.16.7-4.25,4C209.59,126.52,214.23,123,216.78,124.16Z"/><path class="cls-7" d="M271.15,39.44c-10.71,0-10.27,0-10.89-10.56-.39-6.7,1.84-8.87,8.21-7.85a51.07,51.07,0,0,0,7.45.16c6.44.07,10.07,3.11,9.75,9.75-.3,6.23-3.55,9.34-10,8.52A36,36,0,0,0,271.15,39.44Zm.71-4.89c3-1.92,9.48,2.17,9-3.95-.59-7-7.59-3.27-11.72-4.28-3.57-.87-4.39,1.22-4.39,4.54C264.71,37.53,269.68,32.75,271.86,34.55Z"/><path class="cls-10" d="M134.37,142.16c-10.51.08-10.51.08-7.52-10,2.23-7.5,4.44-15,6.7-22.48a12.16,12.16,0,0,1,1-2,8,8,0,0,1,1.27,2c2.73,9.77,5.36,19.58,8.12,29.35.71,2.53-.19,3.29-2.61,3.17S136.7,142.16,134.37,142.16Zm-.14-4.93c3.68.75,4.84-.62,3.62-4.21s-2.22-7.14-3.33-10.72c-2.44,3.06-2.29,7-3.56,10.47C129.86,135.78,129.91,138.11,134.23,137.24Z"/><path class="cls-12" d="M189.86,48.73c-3.45.43-4.15-1.08-3.15-4.09,1.3-3.91,2.41-7.88,3.6-11.83,2.21,3.6,1.89,7.86,3.05,11.72C194.41,48,193.18,49.21,189.86,48.73Z"/><path class="cls-2" d="M216.78,124.16c-2.55-1.12-7.19,2.36-7-4,.09-3.32,1.15-4.86,4.25-4,4.14,1.13,11.2-3,11.95,3.86C226.64,126.21,220,122.72,216.78,124.16Z"/><path class="cls-2" d="M271.86,34.55c-2.18-1.8-7.14,3-7.15-3.68,0-3.32.81-5.41,4.39-4.54,4.14,1,11.14-2.77,11.72,4.28C281.33,36.72,274.82,32.63,271.86,34.55Z"/><path class="cls-2" d="M134.23,137.24c-4.32.88-4.37-1.46-3.26-4.46,1.27-3.46,1.12-7.4,3.56-10.47,1.1,3.57,2.12,7.18,3.33,10.72S137.91,138,134.23,137.24Z"/></g></g></svg>