<svg xmlns="http://www.w3.org/2000/svg" viewBox="0 0 135.65 329.52"><defs><style>.cls-1{fill:#0e0c0a;}.cls-2{fill:#51d4f4;}.cls-3{fill:#1c1916;}.cls-4{fill:#110f0d;}.cls-5{fill:#d08b5d;}.cls-6{fill:#ce8a5c;}.cls-7{fill:#f8e0cf;}.cls-8{fill:#e4c2ab;}.cls-9{fill:#e2c0aa;}.cls-10{fill:#debca6;}.cls-11{fill:#7c3100;}.cls-12{fill:#73631f;}.cls-13{fill:#a55d2d;}.cls-14{fill:#acacac;}.cls-15{fill:#c60000;}</style></defs><title>Asset 1</title><g id="Layer_2" data-name="Layer 2"><g id="Layer_1-2" data-name="Layer 1"><path class="cls-1" d="M114.78,286.2c-2.3.92-5.64-1.86-7.08,1.73-1.32,3.27.08,6,2.17,8.69,5.22,6.76,6.65,14.73,6.7,23.05,0,3.77-2.34,5.74-5.49,6.91a45.78,45.78,0,0,1-27,1.64c-5.34-1.27-7.67-4.64-7.15-10.26.57-6.13.84-12.3,1-18.45.14-4.94,1.14-9.59-3.42-14.14-3.24-3.24-1.14-9.26-.71-14,.25-2.76.82-6.13-2.36-6.76-3.72-.74-3.3,3.39-4,5.59a17.35,17.35,0,0,0-.5,6.89c.42,4.09.85,7.94-3.39,10.53-1.71,1-1.13,3-1.06,4.61.36,8.32.41,16.67,1.27,24.94.69,6.69-2.79,9.68-8.36,10.81a49.53,49.53,0,0,1-12.9.86c-6.4-.42-14.72.13-17.27-6.52-3.39-8.88-.68-18.24,5.32-25.81,3.37-4.24,3.91-7.26.26-11.71-3.33-4-1.74-9.33-.46-13.9,2.13-7.6.35-14.82-1.32-22.09-.27-1.19-1.29-2.93-2.24-3.13-8.16-1.71-13.09-9-20.79-11.66-5.79-2-7.89-8.36-4.12-12.14,11.62-11.65,9.38-27.2,13.18-41,3-11,5.78-22.11,9.63-32.88.41-1.15,1.61-2,2.46-3,1.61-1.86,6.51-1.87,5.47-4.12-1.62-3.51-4.66-7.49-9-8-6-.68-7.3-4.38-7.79-9.17a24.16,24.16,0,0,1-.08-5c.93-8.71.67-16.54-6.56-23.54-4.8-4.64-5-12.27-2-18.36,2.57-5.1,2.87-10.15,2.81-15.42-.2-18.86,4.81-35.43,19.87-48C47.25-1.12,82.71-4.54,102.34,6.63c17.46,9.93,23.42,26.37,25.28,45A91.16,91.16,0,0,1,128,62.15c-.08,4.82.23,8.86,4.1,13,5.69,6.08,2.36,20.8-5.35,26.39a8.28,8.28,0,0,0-3.84,7.83c.12,5.66-.16,11.32-.3,17-.09,3.49-1.72,5.73-5.34,6a8.85,8.85,0,0,0-5.7,2.75c-3,2.93-7.75,5.33.08,8.77,3.93,1.73,4.74,7.18,5.78,11.08,4.07,15.26,8.13,30.52,10.68,46.17,1.87,11.43-1,22.14-3.25,33-.82,3.85-3.11,7.32-7,8.57-4.35,1.41-5.46,4.33-5.62,8.3-.14,3.49,0,7.11-.85,10.44-1.29,4.91-.34,8.33,4.44,10.4l-.14,2.17c-8.07-4.15-16.16-8.27-24.2-12.48-1.11-.58-3.11-.82-2.17-3,4.19,1.93,8.38,3.87,12.58,5.77,1.3.59,3.3,2,4,.4a24.85,24.85,0,0,0,1.44-15.54c-.66-2.73-4.82-1.14-7-.66-5.31,1.17-13-2.17-14.73,6.77-.42.72-.63,1.35.6,1.3-3,1.83-6.51.29-7.54-3.36,5.79.74,6.88-2.8,7.4-7.53.54-5-1.32-10,.55-14.92,1.79-.2,1.11,1,1.13,1.91C88,247,88,247,101.92,245.62a5.36,5.36,0,0,1,1-.09c5.56.53,7.54-2.17,6.7-7.42.6-.16,1.52-.66,1.75-.44,3.72,3.61,6.38.57,8.1-1.91a14.46,14.46,0,0,0,1.86-12.27c-.08-.28-.83-.45-1.29-.55-7.39-1.64-10.47,1.41-8.92,8.79a41.46,41.46,0,0,1,.81,4.88c.14,1.63-.46,2.6-2.31,1.72-1.44-7-2.94-13.9-4.29-20.87-.52-2.67-2-4-4.61-4.25q0-.43,0-.86c4.76.5,5.34-2.51,5.16-6.16h.78c.44,4,.77,7.93,1.39,11.86.23,1.47.33,3.09,2.75,3.45,10,1.51,14.14-2,13.55-12.09-1.06-18.26-6.36-35.63-11.37-53.06a7.9,7.9,0,0,0-3.3-4.22c-.35-2.1,1.66-5.72-3.17-5h-2.82c-2.52-5.35-6.19-4.62-10.25-2-1.19.78-2.43,1.51-3.64,2.26.27-2.42-1.12-3.49-3.22-4-4.11-1-3.24,3.85-5.69,4.79l-1.15-.07-18.56,1-1.3,0a44.61,44.61,0,0,0-3.4-4.11c-2-1.93-4.11-3.28-5,1l-1.9.17c-10.54-4.75-11.2-4.39-11.64,6.42q-.09,2.2-.18,4.41l-1,1.11c-.43-2.78-.78-5.58-1.32-8.35-.23-1.18-.1-3-2-2.79-1.21.16-3.38,1.33-3.31,1.61,1.09,4.46-3.26,6.47-4.27,9.93-4.49,15.46-8.67,31-10.78,47-.35,2.69-2,5.82.75,8.36l.13,1.27c-.7,1.3-1.85,2.57-.2,4l1,.92,1.25,2.08-.23,1c-5.64,1.88-3.28,6.14-2.38,9.42,1.34,4.91,5.56,6.37,10.09,5.67,1.73-.27,2.53-.63,3.33,1.09,2,4.37,3.5,1.9,4.86-.49.88-1.55,1.65-3.17,2.47-4.75l3.41,4.66-1.82,1c-4.43.41-1.44,3.27-1.69,5.07l-1.76,1.39.34.36L36.1,245c1.22-1.64,2.3.45,3.47.13,3.33,3.41,3.76-2.27,6.1-1.95a1.9,1.9,0,0,0,1.92,2C46.25,252,49,256.69,56.45,257.09c5.64.3,10,2.74,14.52,5.06,11.67,5.93,23.27,12,34.84,18.15C109,282,112.65,282.93,114.78,286.2ZM17.71,84.35a1.57,1.57,0,0,0,.59-2.2c-.35-2.61,2.06-6.65-2.74-7.1-5.14-.48-4.31,4.08-4.69,7.06a19.35,19.35,0,0,0,.5,7.37c.92,3.37,2.85,7.85,6,7.5,2.15-.24,1-5.49.56-8.55-.1-.65-.24-1.3-.36-2Zm-11,143.88-.7.34,1,.62c1.56.87,3.12,1.77,4.71.07-.53-3,1.26-5.4,2.07-8.06-1.45-2.28-2.76-5-6-2.09-.71,1.7-2.6,2.93-2,5.14l0-.11-.93.71,1,.68a1.37,1.37,0,0,0,.6.74l.36,1.89Zm115-143.65,1,1.45c-2.35,3.23-1.94,6.94-1.78,10.58a3.22,3.22,0,0,0,.75,2.22c1.08.8,1.71-.43,2.42-1,4.93-4.08,6.6-9.39,5.85-15.62-.29-2.38-.74-5.6-3-5.75-1.88-.13-4,2.26-6.53,2.18C120.4,80.71,119.88,82.89,121.71,84.58ZM43.66,73.32c-6.1.62-12.19,1.52-18.31,1.76-3.56.14-4.15,1.45-3.59,4.54,1.14,6.38,2.06,12.8,3.07,19.2l-1.23,3.42c-.6-.91-1-2.3-1.84-2.62-1-.39-1,1-1,1.73-.23,8-.39,16,1.05,23.88.28,1.53,1,2.71,2.67,1.67,3-1.88,3.85.07,5.2,2.27,5.95,9.7,13,12.82,24.08,10.8,2-.36,2.56.88,3.66,1.83,7.31,6.22,17.05,7.3,24.08.13,1-1,1.82-2.8,3.6-1.89,10.87,5.59,16.58-2.3,22.76-8.72,2.31-2.4,3.18-6.52,8.29-4.11,2.08,1,2.39-2.16,2.4-3.91.05-7.81,0-15.62,0-23.44-.51-6.56-3,0-4.34-.64.36-1.6.73-3.2,1.07-4.8,2.17-10.11,3.6-19.5-7.53-26.43-6.5-4-10.92-11-14.72-17.85-1.11-2-2.88-4.39.17-6.45A93.78,93.78,0,0,0,115.85,71.3c1.88,1.53,4,4.12,6.28,3.21,1.11-.44,1.15-4.2,1.23-6.47a98.74,98.74,0,0,0-1.75-24.37c-3.9-18.14-12.69-32.4-32-37C79.48,4.32,69,5.23,58.74,6.47,39,8.87,25.28,19.52,18,38.15c-4,10.27-2.46,21-2.4,31.66,0,2.79,2.17,2.47,4,2.56,8,.43,15.89-.54,23.74-1.89ZM45,320.63c5.19-2,13.26,1.26,13.65-8.16.41-9.77-6.57-18-14.76-18.11-7.45-.09-15.9,9.25-14.67,18.44C30.37,321.78,39.37,318.31,45,320.63Zm50.47-.17c6.51-1,14.87,1.27,15.79-7.86,1-9.65-6.41-17.38-14.68-17.35-8.59,0-15.52,7.86-14.72,18.3C82.51,322.63,90.78,318.74,95.42,320.46Zm-47.09-49c3.62-.89,8.45-2,13.2-3.3,2.09-.59,3-2.46,3.25-4.6s-1.4-2.65-2.85-2.7c-9-.34-15.31-6.42-22.6-10.39-1.48-.81-3.65-2.2-4.1-.05-1.21,5.78-.09,11.72,2.13,17C38.84,270.84,43.39,270.85,48.33,271.41Zm1.1,14.72a21,21,0,0,0,9.45-1.63c5.82-2.19,3.91-7.3,3.33-11.1-.67-4.36-4.27-1.58-6.44-1.09-5.62,1.25-11.11,1.51-16.62-.42-1.65-.58-3.4-1.55-4.73.79A8,8,0,0,0,39,284.42,27.71,27.71,0,0,0,49.44,286.13Zm41.81.48c2.48-.36,5.45-.65,8.33-1.29,1.35-.3,3.36-1.07,3.63-2,.56-2-1.64-2.62-3-3.26q-8.82-4-17.77-7.73c-1-.43-2.4-1.5-3.53.15-3.16,4.6-.51,11.94,5,13.3A61.26,61.26,0,0,0,91.25,286.62ZM58,293.39c.51-4-1-5.49-5.07-5.22a94.7,94.7,0,0,1-11.47-.28c-1.56-.09-3.4-1.35-3.65,1.55-.23,2.73,1.49,2.95,3.52,2.8,4.43-.32,8.63.15,12.22,3.18,1.06.89,2,3,3.49,2C57.92,296.93,57.75,294.8,58,293.39Zm30.17-4.24c-7.38-3.65-5.39,2.65-5.46,6.9a9.53,9.53,0,0,0,.51,2.25,11.87,11.87,0,0,0,2-1.12c4.26-3.57,8.84-5.91,14.63-4.22.94.28,2.23.41,2.49-.86a7.16,7.16,0,0,0-.15-3.86c-.49-1.24-1.77-.35-2.62-.07C96.25,289.31,92.76,289.23,88.2,289.14Zm6.49,36.3c2.94-.43,5.89-.83,8.82-1.3.9-.15,2.17,0,2.16-1.4,0-.19-1.35-.5-2.09-.55-6.76-.39-13.62,1.06-20.27-1.21-.35-.12-.83.17-1.25.27.48.6.84,1.47,1.46,1.75A28.39,28.39,0,0,0,94.7,325.45Zm-48-1.26c2.64-.34,6.75.77,10.39-1.44.56-.34.78-1.22,1.16-1.85a7.81,7.81,0,0,0-1.84,0c-7.84,1.82-15.66,2.27-23.48-.11a4.92,4.92,0,0,0-1.76.15c.39.47.69,1.1,1.18,1.38C36.44,324.56,40.94,324.35,46.68,324.19Z"/><path class="cls-2" d="M114.78,286.2c-2.13-3.27-5.81-4.22-9-5.89C94.24,274.18,82.65,268.08,71,262.15c-4.57-2.32-8.88-4.75-14.52-5.06-7.41-.4-10.2-5.12-8.86-11.89l0-2c2.42-5.51,6.66-4.21,10.9-2.9,5.9,4.58,10.15,11.43,18.11,13.19.78.52,1.59,1.24,2.08-.3h-.05c1,3.65,4.5,5.19,7.53,3.38a1.48,1.48,0,0,1,0-.17l0,.3.29.07c-.65.86-.68,1.62.38,2.19a1.47,1.47,0,0,0,2.27-.59l.14.14c-.94,2.19,1.05,2.42,2.17,3,8,4.21,16.13,8.33,24.2,12.48,1.28.81,2.32,2.25,4.16,1.6,1.13-.05,1.72.32,1.24,1.55,1.55.13,3.1,3,4.64,0l0,0c-2.16,3.45,1.63,3.38,2.8,3.85,5.37,2.15,3.95,6.16,2.12,9.17-2.3,3.8-5.92-.08-8.95.27C119.48,289,116.48,288.64,114.78,286.2Z"/><path class="cls-3" d="M121.76,290.45c3-.34,6.65,3.53,8.95-.27,1.82-3,3.25-7-2.12-9.17-1.18-.47-5-.4-2.8-3.85,4.06,2.64,11.41,2.64,9.58,10.23C133.47,295.24,128.14,296.24,121.76,290.45Z"/><path class="cls-4" d="M119.87,275.59c-1.84.65-2.88-.79-4.16-1.6l.14-2.17C117.16,273.11,120.74,272,119.87,275.59Z"/><path class="cls-4" d="M125.75,277.13c-1.54,3-3.1.14-4.64,0C122.65,272.49,124.21,276.86,125.75,277.13Z"/><path class="cls-5" d="M43.32,70.48c-7.86,1.35-15.75,2.33-23.74,1.89-1.78-.1-3.94.22-4-2.56C15.58,59.19,14,48.42,18,38.15,25.28,19.52,39,8.87,58.74,6.47,69,5.23,79.48,4.32,89.61,6.71c19.32,4.57,28.11,18.83,32,37A98.74,98.74,0,0,1,123.37,68c-.08,2.27-.13,6-1.23,6.47-2.29.9-4.4-1.69-6.28-3.21A93.74,93.74,0,0,1,93.15,43.69c-.09,0-.06-.17.09-.4-.85-1.25-.66-3.94-2.61-3.5a5.81,5.81,0,0,0-4.38,4.61c-1.37,2.22-2.29,4.9-5.37,5.43-3.15,1.07-6.5,1.94-6.08,6.4l-.11.07c-1.85-3.3-2.78,0-4.1.56-1.24,1.63-5.49,1-3.74,4.88-.15,1.18-.65,1.52-1.63.66.18-1.07-.37-1.51-1.29-1.15-.48.19-.77.88-1.14,1.34l1.88,1.12-1.47.56c.65-2.84-1.21-2.1-2.46-1.56-5.8,2.52-11.55,5.16-17.31,7.76Z"/><path class="cls-6" d="M118.49,99.86c0,7.81.08,15.62,0,23.43,0,1.75-.32,4.89-2.4,3.91-5.11-2.42-6,1.7-8.29,4.11-6.18,6.43-11.89,14.31-22.76,8.72-1.78-.91-2.58.85-3.6,1.89-7,7.17-16.77,6.1-24.08-.13-1.11-.94-1.7-2.18-3.66-1.83-11.13,2-18.13-1.11-24.08-10.8-1.35-2.2-2.19-4.15-5.2-2.27-1.66,1-2.38-.14-2.67-1.67-1.45-7.91-1.29-15.89-1.05-23.88,0-.77,0-2.12,1-1.73.83.32,1.24,1.71,1.84,2.62l1.26,2.9c1.6,2.47,3.79,1.26,5.84.93,4.86-1.29,8-.19,7.91,5.59a2.65,2.65,0,0,0,2.79,2.85,2,2,0,0,0,2.24-2.12c.4-6.81,3.39-12.59,7.06-18.11l1.15-.21c1.36.85,1.82-.9,2.86-1,9.72-1.3,19.45-1.69,29.17,0l-.1-.06c-.07,1.17.72,1.15,1.53,1.11l.81-.12,1.66.05h0c.19,2.91,1.47,4.21,4.45,3,2.86.82,3.53,3,3.53,5.63-2.2-1.33-2.36.41-1.76,1.53s-.79,4.54,2.78,3.31c.67.34.69.73.09,1.16-1.5-1.39-2-.46-2,1,0,1.62.07,3.54,1.82,4.26a2.48,2.48,0,0,0,3.35-2.06c.47-7.65,5.22-6.43,10.34-5.62,3.48.55,4.05-.48,3.14-3.65l.05-.11c1.71,1.42,1.87,0,2.19-1.18C116.59,100.71,116.58,98.57,118.49,99.86Zm-54.83,8.09c4.41,4.32,9.42,2.79,14.1,1A12.52,12.52,0,0,0,86,98c.25-2.3-.89-2.79-2.92-2.78q-12.19.11-24.39,0c-2.57,0-3.32,1.09-2.57,3.36,1,3.11,1.74,6.48,5.45,7.71Zm8.18,7.39,3.26-.94c-1.33-.4-2.65-.84-4-1.19a3.86,3.86,0,0,0-1.48,0c-2.55.36-4.79-2.55-7.48-.71C64.6,115,67.78,115.19,71.83,115.33Z"/><path class="cls-7" d="M113.59,102.56l-.05.11c-3.32,1.76-6.75.1-10.11.31-1.32-.67-2.67-2-3.82.21-1.74,1.45,1.36,5.26-2.72,5.56.6-.44.58-.82-.09-1.16a6,6,0,0,0-1-4.85c0-2.61-.67-4.81-3.53-5.63-1.14-1.51-2.17-3.18-4.45-3h0l-1.09-1-.58.93-.81.12c.25-1.42-.25-1.81-1.53-1.11l.1.06c2.23-2.44-.67-2.33-1.51-2.5-9.26-1.81-18.53-2.86-27.67.65-2-.15-1.82,1.95-2.85,2.8l-1.15.21c-6.58,1.2-7,6.86-8.55,11.75a17.67,17.67,0,0,1-.94,2.07c-.23-.2-.66-.39-.67-.59-.36-9.65-6.12-3.56-9.85-3.4L27.14,104l-2.32-5.14c-1-6.4-1.93-12.82-3.07-19.2-.55-3.1,0-4.41,3.59-4.54,6.12-.23,12.21-1.14,18.31-1.76a31.08,31.08,0,0,0-1.16,4.26c-.41,3.15.65,6.11,3.95,6.38,3.76.31,3.37-3.26,3.7-5.78.4-3-1.71-4.79-3.21-6.89a59.22,59.22,0,0,0,16.25-7l1.47-.56.55-1.3c1,.85,1.48.52,1.63-.66,1.76,0,2.84-1.2,3.92-2.37l3.93-3.07.11-.07c2.4-1.78,6.17-2.25,6.08-6.4,3.08-.53,4-3.2,5.37-5.43l.77.54c1.11,1.21,1.58.1,2.17-.6,1.27-.67,3.27,1.49,4-1.06-.15.23-.18.36-.09.4-3.05,2.05-1.28,4.45-.17,6.44C96.78,57,101.2,63.93,107.7,68c11.13,6.93,9.7,16.32,7.53,26.43-.34,1.6-.72,3.2-1.07,4.8v.08C113.6,100.32,112.69,101.28,113.59,102.56ZM96.29,77.93c-.58-2.51-.53-5.92-4-5.9-3.74,0-3.89,3.46-3.88,6.24s.84,5.55,4.35,5.29C96.15,83.33,95.9,80.32,96.29,77.93Z"/><path class="cls-8" d="M89.8,147.5c1.21-.75,2.45-1.48,3.64-2.26,4.06-2.66,7.73-3.39,10.25,2l1.28,3.27,1.7,4.74c2.26,10.69,5.27,21.27,4.86,32.35-.23,6.37-7.37,14.36-13.78,15.5l-2-1.88a18.1,18.1,0,0,1-13-.44c-7-1.35-14.08-1.07-21.15-.35l.05-2.2C72.86,183.08,81.56,166.52,90,149.83c.31-.62,1.54-1.68-.3-2.12Z"/><path class="cls-9" d="M15.81,213.94c-2.74-2.54-1.1-5.67-.75-8.36,2.1-16,6.28-31.53,10.78-47,1-3.47,5.36-5.47,4.27-9.93-.07-.28,2.1-1.45,3.31-1.61,1.92-.26,1.8,1.61,2,2.79.54,2.76.89,5.56,1.32,8.35,1.8,16.9,3.63,33.8,5.34,50.71.15,1.47,1.8,3.75-1.36,4.31l-11,1.91-9-.46C19.1,214.17,17.71,212.31,15.81,213.94Z"/><path class="cls-9" d="M37.77,157.08q.09-2.2.18-4.41c.44-10.81,1.1-11.17,11.64-6.42,2.31,6.06,4.87,12,9.12,17a4.15,4.15,0,0,0,3.46,3.92c5.93,2.85,3.9,6.42.79,9.91A12.48,12.48,0,0,0,60.09,183c-4.63,3.27-5.9,9-9.42,13-2,2.27-3.39,5.22-6.43,6.5-.48-2.88-1-5.76-1.44-8.64-.08-.49-.06-1-.12-1.49Q40.23,174.76,37.77,157.08Z"/><path class="cls-9" d="M86.63,230.74c-1.88,4.9,0,9.94-.55,14.92-.52,4.72-1.6,8.27-7.4,7.53h.05c.19-1.49-1.2-1.12-1.88-1.59-6.16-2.55-9.59-8.6-15.2-11.86-2.42-1.55-3-3.88-2.76-6.54,2.54-.6,1.89-2.31,1.37-4l-.17-2c1.9-.63,2-1.65.65-3,1.26-2.51-1.82-6.09,2-8l16-.07c4.68.39,5.71,3.71,5.95,7.56.15,2.51.06,5,2,7Z"/><path class="cls-10" d="M86.63,230.74h.06c0-3.85.57-7.65-.57-11.57-.34-1.18-2.66-3.71-.21-4.85s5.16-1.46,7.45.53c.59.51.75,1.54,1.68.46,1,.23,2.06.36,2.73-.77l2.94-1.31c2.63.24,4.1,1.58,4.61,4.25,1.35,7,2.85,13.91,4.29,20.87v-.23c.85,5.25-1.14,7.94-6.7,7.42a5.36,5.36,0,0,0-1,.09C88,247,88,247,87.75,232.65,87.74,231.76,88.42,230.54,86.63,230.74Z"/><path class="cls-10" d="M109.67,152.15a7.9,7.9,0,0,1,3.3,4.22c5,17.43,10.3,34.79,11.37,53.06.59,10.08-3.55,13.6-13.55,12.09-2.42-.37-2.52-2-2.75-3.45-.62-3.93-.95-7.9-1.39-11.86,0-.6.2-1.37-.89-1.1l0,0c.43-1.63-2-3.68,1.34-5,5.15-2,6.47-6.48,6.76-11.68.7-12.5-2.5-24.35-5.47-36.26Z"/><path class="cls-11" d="M45,320.63c-5.58-2.32-14.59,1.15-15.78-7.83-1.22-9.19,7.22-18.53,14.67-18.44,8.19.1,15.17,8.34,14.76,18.11C58.22,321.88,50.14,318.6,45,320.63Z"/><path class="cls-11" d="M95.42,320.46c-4.64-1.72-12.91,2.18-13.61-6.91C81,303.1,88,295.27,96.54,295.24c8.27,0,15.66,7.7,14.68,17.35C110.3,321.73,101.93,319.46,95.42,320.46Z"/><path class="cls-10" d="M50.67,196.07c3.51-4.08,4.79-9.78,9.42-13,8-7.79,12.44-17.8,16.85-27.79a10.85,10.85,0,0,0,2.79-5.89l1.15-1.07c2.45-.94,1.58-5.81,5.69-4.79,2.1.52,3.49,1.6,3.22,4l-.05.21c-2.36.52-2.53,2.84-3.41,4.43-8.54,15.56-16.61,31.4-26.77,46-2.64,1.14-3,6.74-7.65,4C50.73,200.25,53,197.69,50.67,196.07Z"/><path class="cls-12" d="M48.33,271.41c-4.95-.56-9.49-.57-11-4.05-2.23-5.26-3.34-11.21-2.13-17,.45-2.14,2.61-.76,4.1.05,7.29,4,13.61,10,22.6,10.39,1.45.06,3.05.63,2.85,2.7s-1.15,4-3.25,4.6C56.78,269.46,52,270.52,48.33,271.41Z"/><path class="cls-11" d="M49.44,286.13A27.71,27.71,0,0,1,39,284.42a8,8,0,0,1-4.53-11.74c1.32-2.34,3.08-1.37,4.73-.79,5.51,1.93,11,1.67,16.62.42,2.17-.48,5.77-3.27,6.44,1.09.58,3.81,2.49,8.91-3.33,11.1A21,21,0,0,1,49.44,286.13Z"/><path class="cls-7" d="M36.1,234.14c-.82,1.59-1.59,3.21-2.47,4.76-1.36,2.39-2.84,4.86-4.86.49-.8-1.72-1.6-1.36-3.33-1.09-4.53.7-8.75-.76-10.09-5.67-.9-3.28-3.26-7.54,2.38-9.42l2.31.71,14.56.14,2.13,0c3-.23,4.78,1.14,5.2,4.17-.32,3.45-.45,3.61-1.62,2.67-4.77-3.84-3.27.71-3.7,2.71A.55.55,0,0,0,36.1,234.14Z"/><path class="cls-12" d="M89.34,258.51l-.14-.14-2.65-1.6-.29-.07,0-.3-.63-1.15c1.77-8.93,9.43-5.6,14.73-6.77,2.18-.48,6.33-2.07,7,.66a24.85,24.85,0,0,1-1.44,15.54c-.68,1.58-2.67.19-4-.4C97.72,262.38,93.53,260.44,89.34,258.51Z"/><path class="cls-11" d="M91.25,286.62a61.26,61.26,0,0,1-7.41-.89c-5.48-1.36-8.14-8.69-5-13.3,1.13-1.65,2.49-.58,3.53-.15Q91.35,276,100.17,280c1.41.64,3.61,1.3,3,3.26-.28,1-2.28,1.74-3.63,2C96.7,286,93.73,286.25,91.25,286.62Z"/><path class="cls-3" d="M50.67,196.07c2.33,1.62.06,4.19,1.24,6l-1.65.28c-2.51,3.84-2.58,7.64.17,11.4l.39,1.92c-6-2.26-5.89,2.19-6.44,5.91,0,.27-.41.49-.62.73l-1-2.14-.25-4-1.76-3c3.16-.56,1.51-2.84,1.36-4.31-1.72-16.91-3.54-33.81-5.34-50.71l1-1.11q2.46,17.68,4.91,35.35c.07.49,0,1,.12,1.49.47,2.88,1,5.76,1.44,8.64C47.28,201.29,48.64,198.34,50.67,196.07Z"/><path class="cls-10" d="M62.18,167.16a4.15,4.15,0,0,1-3.46-3.92c-.37-6.58-5.22-11.28-7.23-17.17.87-4.27,3-2.93,5-1a44.61,44.61,0,0,1,3.4,4.11l1.81,2.92,7.09,9.08c2.79,2.29,1.54,4.26-.88,5.36C66.23,167.3,64.1,167,62.18,167.16Z"/><path class="cls-7" d="M121.71,84.58c-1.83-1.69-1.31-3.87-1.27-6,2.53.08,4.65-2.3,6.53-2.18,2.22.15,2.68,3.37,3,5.75.75,6.23-.92,11.53-5.85,15.62-.71.59-1.34,1.82-2.42,1a3.22,3.22,0,0,1-.75-2.22c-.15-3.64-.56-7.35,1.78-10.58l1.21-1.62.61-1-1.31,0Z"/><path class="cls-7" d="M109.62,238.12v.23c1.85.88,2.45-.09,2.31-1.72a41.46,41.46,0,0,0-.81-4.88c-1.55-7.38,1.54-10.44,8.92-8.79.46.1,1.21.27,1.29.55a14.46,14.46,0,0,1-1.86,12.27c-1.72,2.48-4.38,5.52-8.1,1.91C111.14,237.45,110.21,238,109.62,238.12Z"/><path class="cls-12" d="M68.77,161.19l-7.09-9.08-.51-2.94,18.56-1q0,.57,0,1.15a10.85,10.85,0,0,1-2.79,5.89C74.25,157.26,72.5,160.59,68.77,161.19Z"/><path class="cls-9" d="M42.5,216.21l.25,4-6,2.08H34.58l-14.78-.07-1.86,0-1.25-2.08-1-.92c-1.65-1.41-.51-2.69.2-4l5.24,1.72,12.22.14C36.4,216.53,39.35,215.26,42.5,216.21Z"/><path class="cls-7" d="M17.6,86.48c.12.65.26,1.3.36,2,.45,3.05,1.59,8.31-.56,8.55-3.18.36-5.11-4.13-6-7.5a19.35,19.35,0,0,1-.5-7.37c.38-3-.45-7.55,4.69-7.06,4.8.45,2.39,4.48,2.74,7.1a1.7,1.7,0,0,0-1.66,1.74A2.18,2.18,0,0,0,17.6,86.48Zm-2.92-4.26.49.47-.43-.52c-.16-.71-.14-1.57-1.23-1.49a.45.45,0,0,0-.31.31C13.11,82.09,14,82.07,14.68,82.23Z"/><path class="cls-11" d="M58,293.39c-.29,1.41-.12,3.54-1,4.07-1.53,1-2.43-1.15-3.49-2-3.59-3-7.79-3.5-12.22-3.18-2,.15-3.75-.07-3.52-2.8.25-2.9,2.09-1.64,3.65-1.55a94.7,94.7,0,0,0,11.47.28C57,287.9,58.55,289.42,58,293.39Z"/><path class="cls-11" d="M88.2,289.14c4.55.09,8,.17,11.44-1,.84-.29,2.12-1.17,2.62.07a7.16,7.16,0,0,1,.15,3.86c-.25,1.26-1.55,1.13-2.49.86-5.79-1.7-10.37.64-14.63,4.22a11.87,11.87,0,0,1-2,1.12,9.53,9.53,0,0,1-.51-2.25C82.82,291.8,80.83,285.5,88.2,289.14Z"/><path class="cls-4" d="M46.94,71.29c1.5,2.1,3.61,3.93,3.21,6.89-.34,2.53.05,6.09-3.7,5.78-3.3-.27-4.36-3.23-3.95-6.38a31.08,31.08,0,0,1,1.16-4.26l-.33-2.84h.09Z"/><path class="cls-11" d="M94.7,325.45A28.39,28.39,0,0,1,83.53,323c-.62-.28-1-1.15-1.46-1.75.42-.1.91-.39,1.25-.27,6.65,2.28,13.52.83,20.27,1.21.74,0,2.09.35,2.09.55,0,1.38-1.26,1.25-2.16,1.4C100.59,324.62,97.64,325,94.7,325.45Z"/><path class="cls-11" d="M46.68,324.19c-5.74.16-10.23.37-14.34-1.89-.5-.27-.79-.91-1.18-1.38a4.92,4.92,0,0,1,1.76-.15c7.82,2.38,15.64,1.93,23.48.11a7.81,7.81,0,0,1,1.84,0c-.38.63-.61,1.51-1.16,1.85C53.43,325,49.32,323.85,46.68,324.19Z"/><path class="cls-13" d="M105.87,206.2c.18,3.65-.4,6.66-5.16,6.16l-1.89-.23-.26-5.95,7.26-1.05,0,0Z"/><path class="cls-3" d="M51.49,146.07c2,5.89,6.86,10.59,7.23,17.17-4.26-5-6.82-10.93-9.12-17Z"/><path class="cls-3" d="M45.67,243.18c-2.34-.32-2.77,5.36-6.1,1.95,2.48-2.87.51-4.16-1.88-5.3l1.82-1,3.64.27,2.57-.95c1.77,1.69-.64,3.35,0,5Z"/><path class="cls-14" d="M43.15,239.09l-3.64-.27-3.41-4.66a.55.55,0,0,1,.5-.58l6.53,1.86.84.76.18,1Z"/><path class="cls-14" d="M37.69,239.83c2.39,1.14,4.36,2.43,1.88,5.3-1.17.32-2.25-1.77-3.47-.13l-.1-.1C36.24,243.1,33.26,240.24,37.69,239.83Z"/><path class="cls-3" d="M13.7,221.2c-.81,2.65-2.6,5.06-2.07,8.06-1-1-1.78-2.35-3.53-2l.52-1.74,1.63-3.32.9-2Z"/><path class="cls-14" d="M109.67,152.15l-1.23.09a1,1,0,0,1-.68-.16l-.38-1.84-.88-3C111.33,146.43,109.32,150,109.67,152.15Z"/><path class="cls-10" d="M21.18,216.92l-5.24-1.72-.13-1.27c1.9-1.63,3.29.23,4.87.73Z"/><path class="cls-4" d="M13.7,221.2l-2.54-1c-.53-1.27-1.57-.62-2.43-.65l-1-.41C10.94,216.25,12.25,218.92,13.7,221.2Z"/><path class="cls-4" d="M8.1,227.24c1.75-.32,2.52,1.05,3.53,2-1.6,1.7-3.15.8-4.71-.07a2.13,2.13,0,0,0-.25-1l0-.08Z"/><path class="cls-4" d="M24.83,98.82,27.14,104l-2.28,1.17-1.26-2.9Z"/><path class="cls-14" d="M7.7,219.11l1,.41,0,.44-.61,1.27-.67,1.41-1.8,1.62C5.1,222,7,220.81,7.7,219.11Z"/><path class="cls-4" d="M106.5,147.19l.88,3-2.41.23-1.28-3.27Z"/><path class="cls-4" d="M114.16,99.3v-.08c1.38.66,3.82-5.92,4.34.64-1.91-1.29-1.9.86-2.71,1.52Z"/><path class="cls-4" d="M98.82,212.14l1.89.23q0,.43,0,.86l-2.94,1.31c-1.09-.49-1-1.37-.8-2.31Z"/><path class="cls-10" d="M17.94,222.19H19.8l.23,1.71-2.31-.71Z"/><path class="cls-3" d="M5.69,224.25l1.8-1.62,1,.37-1.16,2.28-1,1a1.37,1.37,0,0,1-.6-.74l0-1.39Z"/><path class="cls-4" d="M47.64,243.2l0,2a1.9,1.9,0,0,1-1.92-2h0Z"/><path class="cls-12" d="M6.36,226.26l1-1,1.29.22-.52,1.74-1.39.92Z"/><path class="cls-8" d="M16.63,83.89a1.7,1.7,0,0,1,1.66-1.74,1.57,1.57,0,0,1-.59,2.2Z"/><path class="cls-4" d="M61.17,149.17l.51,2.94-1.81-2.92Z"/><path class="cls-4" d="M36.1,245l-1.52,1.64-.34-.36L36,244.9Z"/><path class="cls-4" d="M121.71,84.58l1.5-1.12.7.95L122.7,86Z"/><path class="cls-4" d="M16.63,83.89l1.07.47-.11,2.13A2.18,2.18,0,0,1,16.63,83.89Z"/><path class="cls-14" d="M5.73,224.14l0,1.39-1-.68Z"/><path class="cls-4" d="M79.74,149.34q0-.57,0-1.15l1.15.07Z"/><path class="cls-4" d="M105.87,206.2l-.1-1.1c1.08-.27.88.5.89,1.1h-.78Z"/><path class="cls-12" d="M6.67,228.23a2.13,2.13,0,0,1,.25,1l-1-.62Z"/><path class="cls-4" d="M85.61,255.25l.63,1.15s-.05.19,0,.17C85,256.59,85.19,256,85.61,255.25Z"/><path class="cls-10" d="M15.74,219.19l1,.92Z"/><path class="cls-1" d="M47.64,243.2l-1.95,0c-.62-1.68,1.8-3.35,0-5q0-.47,0-.94c2.14-.16,3-1.41,2.95-3.45.48-.08,1.22-.4,1.4-.21,3.88,4.23,6.77,5.46,7.18-2.12,0-.36.75-.69,1.15-1l.5,2.81c-.22,2.66.35,5,2.76,6.54l-3.11.56C54.3,239,50.06,237.69,47.64,243.2Z"/><path class="cls-3" d="M58.54,240.3l3.11-.56c5.61,3.26,9,9.3,15.2,11.86l-.21,1.89C68.69,251.73,64.44,244.88,58.54,240.3Z"/><path class="cls-1" d="M86.55,256.76l2.65,1.6a1.47,1.47,0,0,1-2.27.59C85.87,258.39,85.9,257.63,86.55,256.76Z"/><path class="cls-1" d="M76.64,253.49l.21-1.89c.68.47,2.07.1,1.88,1.59C78.24,254.73,77.42,254,76.64,253.49Z"/><path class="cls-1" d="M46.94,71.29l-3.53-.81c5.76-2.61,11.51-5.25,17.31-7.77,1.26-.55,3.12-1.28,2.46,1.56A59.24,59.24,0,0,1,46.94,71.29Z"/><path class="cls-4" d="M80.88,49.83C81,54,77.2,54.45,74.8,56.23,74.38,51.77,77.73,50.89,80.88,49.83Z"/><path class="cls-1" d="M87,44.94l-.77-.54a5.81,5.81,0,0,1,4.38-4.61c1.95-.44,1.76,2.25,2.61,3.5-.78,2.55-2.78.39-4,1.06Z"/><path class="cls-4" d="M74.69,56.3l-3.93,3.07-.17-2.51C71.91,56.34,72.84,53,74.69,56.3Z"/><path class="cls-1" d="M70.59,56.86l.17,2.51c-1.08,1.17-2.16,2.33-3.92,2.37C65.1,57.82,69.35,58.49,70.59,56.86Z"/><path class="cls-1" d="M65.21,62.4l-.55,1.3-1.88-1.12c.37-.46.66-1.15,1.14-1.34C64.84,60.89,65.39,61.33,65.21,62.4Z"/><path class="cls-1" d="M61.59,106.31c-3.71-1.23-4.42-4.61-5.45-7.71-.75-2.27,0-3.39,2.57-3.36q12.19.12,24.39,0c2,0,3.17.48,2.92,2.78a12.52,12.52,0,0,1-8.27,10.92c-4.68,1.8-9.69,3.33-14.1-1,4.61.35,9.26,1.45,13.69-.92,1.93-1,3.1-2,.73-3.94C73.55,99.43,64.43,101.17,61.59,106.31Z"/><path class="cls-15" d="M61.59,106.31c2.83-5.14,12-6.88,16.48-3.24,2.37,1.91,1.21,2.91-.73,3.94-4.43,2.38-9.09,1.27-13.69.92Z"/><path class="cls-4" d="M30.71,104.11c3.72-.17,9.49-6.26,9.85,3.4,0,.21.44.4.67.59a17.67,17.67,0,0,0,.94-2.07c1.52-4.89,2-10.55,8.55-11.75-3.67,5.52-6.65,11.3-7.06,18.11a2,2,0,0,1-2.24,2.12,2.65,2.65,0,0,1-2.79-2.85c.1-5.78-3.05-6.88-7.91-5.59Z"/><path class="cls-1" d="M54.71,91.27c9.14-3.51,18.41-2.46,27.67-.65.84.16,3.74.05,1.51,2.5-9.72-1.73-19.44-1.34-29.17,0Z"/><path class="cls-1" d="M103.42,103c3.37-.22,6.79,1.45,10.11-.31.91,3.16.33,4.2-3.14,3.65-5.12-.82-9.87-2-10.34,5.62A2.48,2.48,0,0,1,96.7,114c-1.75-.72-1.79-2.64-1.82-4.26,0-1.43.5-2.37,2-1,4.08-.3,1-4.12,2.72-5.56Z"/><path class="cls-3" d="M71.83,115.33c-4-.14-7.23-.38-9.69-2.89,2.69-1.84,4.93,1.06,7.48.71a3.86,3.86,0,0,1,1.48,0c1.34.35,2.66.79,4,1.19Z"/><path class="cls-1" d="M30.71,104.11v2c-2,.33-4.24,1.54-5.84-.93L27.14,104Z"/><path class="cls-1" d="M95.77,102.75a6,6,0,0,1,1,4.85c-3.57,1.23-2.14-2.11-2.78-3.31S93.57,101.42,95.77,102.75Z"/><path class="cls-3" d="M54.71,91.27v1.8c-1,.09-1.5,1.84-2.86,1C52.89,93.22,52.7,91.12,54.71,91.27Z"/><path class="cls-1" d="M87.8,94.1c2.28-.17,3.3,1.51,4.45,3C89.27,98.31,88,97,87.8,94.1Z"/><path class="cls-1" d="M114.16,99.3l1.62,2.08c-.32,1.15-.48,2.6-2.19,1.18C112.69,101.28,113.6,100.32,114.16,99.3Z"/><path class="cls-1" d="M86.12,94l.58-.93,1.09,1Z"/><path class="cls-1" d="M83.78,93c1.29-.7,1.79-.31,1.53,1.11C84.51,94.2,83.72,94.22,83.78,93Z"/><path class="cls-4" d="M96.29,77.93c-.39,2.39-.15,5.4-3.49,5.64-3.52.25-4.34-2.5-4.35-5.29s.14-6.22,3.88-6.24C95.76,72,95.72,75.42,96.29,77.93Z"/><path class="cls-4" d="M103.42,103l-3.82.21C100.75,101,102.1,102.32,103.42,103Z"/><path class="cls-4" d="M87,44.94l2.17-.6C88.6,45,88.13,46.15,87,44.94Z"/><path class="cls-4" d="M107.76,152.07a1,1,0,0,0,.68.16c3,11.91,6.17,23.76,5.47,36.26-.29,5.2-1.61,9.71-6.76,11.68-3.34,1.28-.91,3.33-1.34,5l-7.26,1.05H97.32l.42-3.13c6.42-1.14,13.55-9.13,13.78-15.5.41-11.09-2.6-21.66-4.86-32.35Z"/><path class="cls-3" d="M59.57,198.15c10.16-14.62,18.23-30.45,26.77-46,.87-1.59,1-3.91,3.41-4.43,1.84.45.61,1.5.3,2.12-8.48,16.69-17.18,33.25-28.35,48.37Z"/><path class="cls-1" d="M95,215.3c-.93,1.08-1.09.05-1.68-.46-2.29-2-5.15-1.6-7.45-.53s-.13,3.67.21,4.85c1.14,3.92.57,7.72.57,11.57-2-2-1.88-4.49-2-7-.23-3.85-1.26-7.17-5.95-7.56q0-.47,0-.94c.87-.84,3.07.7,3.07-1.71l1-1.26,3-.11a9.78,9.78,0,0,0,2.47.05c1.83-.42,4.67,1.44,5.2-2,.21-1.34.55-3.58-1.25-3.79-2.26-.27-5.34-2-6.68,1.76-1.34-1.43-.39-4.06-2.6-5a3.1,3.1,0,0,0-.24-.92l.11-1.48a18.09,18.09,0,0,0,13,.44C93.86,205.8,95,210.58,95,215.3Z"/><path class="cls-4" d="M59.57,198.15l2.13,0-.05,2.2,0,2.84-.75,8-1.29.95-1,0c-.1-2,1.05-4.51-1.31-5.74a4.85,4.85,0,0,0-4.1.16c-.71.44-.92,2.45-.65,3.59.89,3.74,4,1.45,6.08,2l-1.08,2.37c-2.42-.53-4.76-.67-6.75,1.21l-.39-1.92q-.09-5.7-.17-11.4l1.65-.28C56.59,204.89,56.92,199.29,59.57,198.15Z"/><path class="cls-3" d="M61.68,203.23l0-2.84c7.06-.72,14.12-1,21.15.35l-.11,1.48c-5.38-1.44-10.88-.67-16.33-.89-.69,0-1.89-.29-1.8.94,0,.33,1.26.81,1.94.82,5.47.07,10.94,0,16.42,0,2.21,1,1.26,3.61,2.6,5l.27,4-3,.11a.88.88,0,0,0-.55,0c-.23-2.85,3-7.31-2.67-7.77s-11.27.16-16.91.3Z"/><path class="cls-13" d="M95,215.3c0-4.72-1.17-9.5.74-14.12l2,1.88-.42,3.13q-.18,3-.36,6c-.23.94-.29,1.83.8,2.31C97.09,215.65,96.08,215.53,95,215.3Z"/><path class="cls-1" d="M107.76,152.07l-1.1,3.14-1.7-4.74,2.41-.23Z"/><path class="cls-10" d="M42.5,216.21c-3.15-1-6.09.32-9.1.86l-3.69-1.94,11-1.91Z"/><path class="cls-12" d="M29.7,215.12l3.69,1.94-12.22-.14-.49-2.26Z"/><path class="cls-3" d="M68.77,161.19c3.74-.6,5.48-3.93,8.18-6-4.42,10-8.81,20-16.85,27.79A12.49,12.49,0,0,1,63,177.07c3.11-3.48,5.14-7.06-.79-9.91,1.92-.17,4.06.14,5.71-.61C70.31,165.46,71.55,163.48,68.77,161.19Z"/><path class="cls-10" d="M50.83,215.71c2-1.88,4.33-1.74,6.75-1.21,2.2,3.36.79,6.76.34,10.23-.21,1.6-2.26,5,2.33,4.51.52,1.66,1.17,3.36-1.37,4l-.5-2.81c-.4.34-1.14.67-1.15,1-.41,7.58-3.31,6.35-7.18,2.12-.18-.19-.92.13-1.4.21l-2.82.39-1.94-5.95-.12-5.84c.22-.24.58-.46.62-.73C44.95,217.89,44.79,213.44,50.83,215.71Z"/><path class="cls-1" d="M60.26,229.24c-4.59.54-2.54-2.91-2.33-4.51.45-3.47,1.85-6.87-.34-10.23l1.08-2.37,0,0,1,0c1,1,1.27,2.8,3.06,3q0,.5,0,1c-3.79,1.88-.7,5.47-2,8-1.53.71-1,1.88-.65,3Z"/><path class="cls-3" d="M62.71,216.24q0-.5,0-1h16q0,.47,0,.94Z"/><path class="cls-10" d="M60.09,227.21c-.33-1.12-.88-2.28.65-3C62.13,225.56,62,226.58,60.09,227.21Z"/><path class="cls-1" d="M43.89,228.19l1.94,5.95-2.71,1.3-6.53-1.86c.42-2-1.08-6.54,3.7-2.71,1.17.94,1.29.78,1.62-2.67Z"/><path class="cls-12" d="M20,223.92l-.23-1.71,14.78.07q0,.89,0,1.78Z"/><path class="cls-4" d="M43.89,228.19h-2c-.42-3-2.17-4.4-5.2-4.17v-1.75l6-2.08,1,2.14Z"/><path class="cls-3" d="M36.71,222.29V224l-2.13,0c0-.59,0-1.19,0-1.78Z"/><path class="cls-13" d="M50.27,202.39q.09,5.7.17,11.4C47.69,210,47.75,206.23,50.27,202.39Z"/><path class="cls-4" d="M123.21,83.45l1.31,0-.61,1Z"/><path class="cls-8" d="M14.68,82.23c-.71-.16-1.57-.14-1.49-1.23a.45.45,0,0,1,.31-.31c1.09-.08,1.08.78,1.23,1.49Z"/><path class="cls-8" d="M14.73,82.17l.43.52-.49-.47Z"/><path class="cls-3" d="M97,212.22q.18-3,.36-6h1.23l.26,5.95Z"/><path class="cls-4" d="M45.71,237.2q0,.47,0,.94l-2.57.95,1-1.89h1.56Z"/><path class="cls-4" d="M43.13,235.44l2.71-1.3,2.82-.39c.07,2-.81,3.29-2.95,3.45h0l-1.73-1Z"/><path class="cls-1" d="M44,236.2l1.73,1H44.15Z"/><path class="cls-12" d="M7.49,222.63l.68-1.41c.51-.27,1.53-.31.61-1.27l0-.44c.86,0,1.9-.61,2.43.65l-.9,2L8.5,223Z"/><path class="cls-14" d="M8.5,223l1.76-.82L8.63,225.5l-1.29-.22Z"/><path class="cls-4" d="M8.77,220c.91,1-.1,1-.61,1.27Z"/><path class="cls-12" d="M61.68,203.23l1,1.51c-1,6.27,1.57,8.49,7.8,7.66,3.87-.52,7.85-.15,11.78-.18a.88.88,0,0,1,.55,0l-1,1.26c-4.8.26-9.61.55-14.42.78-2.65.12-5.49.53-6.42-3Z"/><path class="cls-13" d="M85.79,212.14l-.27-4c1.34-3.8,4.42-2,6.68-1.76,1.8.22,1.46,2.45,1.25,3.79-.53,3.41-3.37,1.55-5.2,2A9.78,9.78,0,0,1,85.79,212.14Z"/><path class="cls-12" d="M82.92,203.14c-5.47,0-10.94,0-16.42,0-.68,0-1.92-.49-1.94-.82-.09-1.23,1.1-1,1.8-.94,5.45.22,10.95-.54,16.33.89A3.1,3.1,0,0,1,82.92,203.14Z"/><path class="cls-14" d="M60.94,211.25c.93,3.57,3.77,3.16,6.42,3,4.81-.22,9.61-.51,14.42-.78,0,2.41-2.2.87-3.07,1.71h-16c-1.79-.24-2-2.06-3.06-3Z"/><path class="cls-13" d="M58.66,212.13c-2.09-.53-5.19,1.77-6.08-2-.27-1.14-.06-3.15.65-3.59a4.85,4.85,0,0,1,4.1-.16c2.36,1.23,1.21,3.72,1.31,5.74Z"/><path class="cls-14" d="M82.27,212.21c-3.93,0-7.92-.34-11.78.18-6.23.84-8.85-1.38-7.8-7.66,5.64-.14,11.32-.74,16.91-.3S82,209.36,82.27,212.21Z"/></g></g></svg>