<svg xmlns="http://www.w3.org/2000/svg" viewBox="0 0 282.01 283.04"><defs><style>.cls-1{fill:#41312a;}.cls-2{fill:#a3928c;}.cls-3{fill:#30211b;}.cls-4{fill:#85c3f5;}.cls-5{fill:#eddcd7;}.cls-6{fill:#dabaac;}.cls-7{fill:#dccc9a;}.cls-8{fill:#f0d2c3;}.cls-9{fill:#ede0ba;}.cls-10{fill:#a89874;}.cls-11{fill:#feede9;}.cls-12{fill:#c4b48a;}.cls-13{fill:#3f3029;}.cls-14{fill:#7b645c;}.cls-15{fill:#e09d07;}</style></defs><title>Asset 1</title><g id="Layer_2" data-name="Layer 2"><g id="Layer_1-2" data-name="Layer 1"><path class="cls-1" d="M136,283c-7.91-1.27-15.85-2.33-23.71-3.85C54.53,268.06,8.39,218.3,1.11,159.4-7.83,87.07,38.18,20.58,108.82,3.89c4.29-1,8.74-1.34,13.12-2,1.46,1.66,2.48,1.45,3.06-.71l4-.27A52.74,52.74,0,0,0,153,.91C208.1,4.63,264.29,44.6,279,111.26q1.52,6.89,3,13.78v27c-.94,1.67-2,3.33,0,5v1c-.65.67-1.94,1.42-1.86,2,1,7.14-1.61,13.76-3.64,20.18-16.75,52.91-52.18,86.08-106.29,98.85-8.25,1.95-16.8,2.68-25.2,4ZM212,110.2c-.86-.38-1.71-1.09-2.57-1.09-11.88-.07-23.76,0-35.64-.06-1.23,0-2.32.16-2.69,1.59-3.79,2.58-1.41,6.42-1.86,9.66-.33,2.37-.8,5.49,2.33,6.4s6,.93,8.79-1.67c8-7.55,17.69-11.67,28.55-13.14C210.18,111.84,211.74,112.25,212,110.2ZM37,115c-1.72.42-4.13-1.1-5,1.78l-8,.36c-2.2-1.39-4.36-2.43-6,.71a23.5,23.5,0,0,0-3,.38c-2.74.7-6.55-.25-7.42,3.66s2.78,5,5.09,6.54c13.08,8.65,27.64,11.93,43.16,11,19.72-1.13,37.67-9.11,56.19-14.85,1.37-.42,3.3-1,2.59-2.92a3.85,3.85,0,0,0-3.78-2.69c-3,0-5.94-.08-8.92-.14-1.46-2.94-3.27-2.22-5.17-.48L91,117.87c-1.84-3.14-4-2.3-6.18-.46l-8.83-.6c-.84-2.88-3.25-1.36-5-1.78v-4l15,.84c.33.69.69.78,1.07,0,6.87.54,13.76.85,20.59,1.66,15.43,1.84,30.88,5.69,46-1.4,1.11-.52,3.38.39,3-2.11C154.3,95,161.2,84.16,173.82,78c8.39-4.13,15.89-6.78,13.21-18.16-.38-1.62,1-2.75,2.78-2.8a2.8,2.8,0,0,1,3,2.75,23.8,23.8,0,0,1,.09,6c-.78,5.65,1.44,8,7.15,9.52,10.78,2.83,19.24,10,21.63,20.85,2.26,10.23,9,10.1,16.32,10.8.32.67.67.81,1.06.06a138.12,138.12,0,0,1,26.16,5c2,.6,4.06,2,6-.16,1.79-2,.7-4.09.07-6.11C253.42,48.72,214.74,16.08,156,6.88c-1.47-3-3.28-2.21-5.17-.47-66.15-3.1-122.73,37-139.9,98.93-1.46,5.27.11,7.15,5.42,6.77,6.88-.49,13.79-.72,20.68-1.07Zm220,45.41,1.62-1.34c2.94-1.86,1.58-4.53.94-6.72-8.3-28.42-31.24-37.21-53.12-33.89-17.67,2.68-32.19,17.26-36.09,34.57-.7,3.13-.32,5.59,2.61,7.28.87,2.46,3,1.66,4.67,1.66q37.32.06,74.65,0C253.93,162,256.06,162.89,257,160.45Zm12.93,5.94c-1.2-2.11-3.25-1.33-5-1.33Q140.5,165,16,165.06c-1.7,0-3.76-.78-4.94,1.34L9.72,168c-1.52,1.58-.24,3.13.1,4.64C24,235.3,89.31,291,170.26,272.69c53.87-12.16,87.58-47.06,102.22-100.31.45-1.64,1-3.26-.85-4.43ZM146.27,135.67a38.65,38.65,0,0,0,0,21.72c3.95,5.16,9.46,2.35,14.3,2.65,2.21.14,2.76-2.14,3-3.95a50.48,50.48,0,0,1,6.5-18.61c1-1.72,1-4-.87-4C161.57,133.81,153.49,130.49,146.27,135.67Zm-25.22,24.68c2.74-1.54,3.35-4.08,2.88-6.86-1.29-7.59,1.52-10.79,9.35-9.52,3.33.54,6.19-.37,6.72-4.56,1.55-12.32,1.58-12.31,14.05-12.32,1.17,0,2.33,0,3.5,0,2,0,4.3.15,5.1-2.15s1.08-4.66-.44-6.7-3.6-.9-5.5-.45c-24.14,5.71-47.36,14.41-70.95,21.89-22.7,7.2-45.25,9.19-67.61-1.22-12.52-5.83-12.76-5.81-11.91,8.34.28,4.66-1.43,10.24,3.81,13.66.92,2.47,3.07,1.53,4.72,1.53q50.81.08,101.61,0C118.06,162,120.19,162.81,121.06,160.35Zm68.44-55.56c7.48,0,15,0,22.43,0,4.48,0,5.88-2,4.41-6.43-4-12-14.14-18.4-29.23-18.33-10.05,0-20.77,8.48-24,18.78-1.29,4.13.19,6,4.44,6C174.88,104.77,182.19,104.79,189.5,104.79ZM226,112.15c22.82,6.6,36.63,21.26,40.67,44.75.43,2.48,1.54,3.47,3.93,3.42s4.17-.78,4.58-3.52c1.64-10.86,1.06-21.71-.13-32.55a3.84,3.84,0,0,0-2.49-3.46C257.48,115.42,242,112.09,226,112.15Zm-90.82,48.08c3.55.38,5.83-.39,5.77-4.66-.06-3.87-1.24-5.78-5.45-5.71-3.53.06-5.59.67-5.54,4.87C130,158.61,130.86,160.91,135.15,160.23Z"/><path class="cls-2" d="M282,157c-2-1.67-.94-3.33,0-5Z"/><path class="cls-3" d="M153,.91A52.74,52.74,0,0,1,129,.92,79.3,79.3,0,0,1,153,.91Z"/><path class="cls-3" d="M125,1.19c-.58,2.16-1.6,2.37-3.06.71C122.68.47,123.92,1.18,125,1.19Z"/><path class="cls-4" d="M37,111c-6.89.34-13.8.58-20.68,1.07-5.31.38-6.88-1.51-5.42-6.77,17.18-62,73.75-102,139.9-98.93,1.63,1.15,3.44.46,5.17.47,58.76,9.2,97.44,41.83,115.28,98.78.63,2,1.73,4.1-.07,6.11-1.94,2.17-4,.76-6,.16a138.12,138.12,0,0,0-26.16-5l-1.06-.06c-7.32-.7-14.06-.57-16.32-10.8-2.39-10.8-10.84-18-21.63-20.85-5.71-1.5-7.92-3.86-7.15-9.52a23.8,23.8,0,0,0-.09-6,2.8,2.8,0,0,0-3-2.75c-1.78,0-3.16,1.18-2.78,2.8,2.68,11.39-4.82,14-13.21,18.16C161.2,84.16,154.3,95,156.64,110.08c.39,2.49-1.89,1.59-3,2.11-15.14,7.09-30.59,3.24-46,1.4-6.83-.81-13.73-1.12-20.59-1.66l-1.07,0-15-.84L65,111H42ZM151.4,14.88a17.41,17.41,0,0,0-17.51,17.81,17.65,17.65,0,1,0,35.3-.33A17.3,17.3,0,0,0,151.4,14.88ZM64.75,59.77A13.93,13.93,0,0,0,78.4,74,14.21,14.21,0,0,0,93,60.08c.08-7.35-6-14.17-12.68-14.21C70.9,45.8,64.84,51.22,64.75,59.77Z"/><path class="cls-5" d="M271.63,167.94c1.86,1.18,1.3,2.79.85,4.43-14.63,53.25-48.35,88.15-102.22,100.31C89.31,291,24,235.3,9.82,172.6c-.34-1.51-1.62-3.06-.1-4.64ZM61.42,234.47c-1.4,1.39-1.35,2.77.05,4.12l1.6,1.2a21.51,21.51,0,0,0,15.89,0l1.73-1.2c2.13-2.6.91-4.09-1.69-5.12a18.71,18.71,0,0,0-16,0Zm44.51-42a18,18,0,0,0-14.84-.07A.84.84,0,0,1,91,193c-1.77,1.49-1.58,3.23.59,3.38,5.56.37,4.38,4.22,4.44,7.56.05,2.63.13,5.26.19,7.88-.64,2.4.94,2.33,2.53,2.28,1.75-.05,2.19-1.14,2.18-2.64q-.06-6.69-.09-13.37a8.22,8.22,0,0,1,4.54-2c2.49-.18,2.24-1.59.66-3A.88.88,0,0,1,105.92,192.42Zm-65.87-.19L39.11,194c.21.73.38,2.08.64,2.1,7.08.55,4.69,5.86,5.33,9.89.44,2.73-2.68,7.91,2.44,7.78,4.76-.12,1.56-5.24,2.33-8,1-3.53-2.84-9.47,5.18-9.36,1.27,0,1.57-2.24,0-3.46a1.07,1.07,0,0,1-.11-.66A19.88,19.88,0,0,0,40.05,192.22Zm155,47.55c4.65,1.94,9.28,2.37,13.85-.25,3.07-2.6,2.41-4.63-1-6.24a14.24,14.24,0,0,0-12.92.09l-1,.81c-2.33,1.57-2.2,3.14,0,4.7Zm5,7.06a2.32,2.32,0,0,0-2.6-1.78q-12.91,0-25.82,0c-1.28,0-2.29.31-2.61,1.72l-1.51,1.06c-2.75,3.44-.7,5,2.48,5.06,9.44.23,18.9.07,28.34.09,1.6,0,3.08-.34,3.61-2s0-3.26-2-3.79Zm-20.48-52.76c-2.47,6.33-2.71,12.64.1,18.94,1.56,1.56,3.11,1.42,4.67,0,2.82-6.3,2.6-12.61.11-18.94C182.83,192.52,181.21,192.44,179.58,194.07ZM152,233.51c-.74-1.89-2.4-1.45-3.84-1.45q-24.66,0-49.32,0c-1.43,0-3.09-.43-3.84,1.46l-1,.7c-2,1.55-1.85,3.09,0,4.64l1,.9c.77,1.49,2.19,1.28,3.49,1.28h49.85c1.3,0,2.72.21,3.53-1.24l1-.9c2.12-1.57,2.23-3.14,0-4.73ZM78,246.84l.12.37c-2.16.53-2.47,2.12-1.89,3.85C76.93,253.3,79,253,80.81,253q23.2,0,46.4,0c1.78,0,3.77.36,4.6-1.94.81-2-.28-3.21-1.82-4.21-.46-2.06-2.11-1.77-3.57-1.77H81.56C80.06,245.06,78.47,244.86,78,246.84ZM227.22,213c2.46,2.18,5.45,1.15,8.12,1s7.37,1.9,7.37-2.24c0-3.76-4.56-1.11-7-1.74-1.42-.37-3.26,0-3.43-2s1.68-2.58,3.23-2.93A19.88,19.88,0,0,1,239,205c1.28-.06,2.93.25,2.87-1.78-.05-1.7-1.4-1.83-2.8-2.15-2.31-.53-6.58,1.87-6.56-1.94,0-4.13,4.46-1.53,6.86-2.22.78-.23,1.82.09,2.42-.32,1.43-1,1.92-3.33.23-3.36-4.95-.08-10.06-1.53-14.9.73A32.77,32.77,0,0,0,227.22,213Zm-31.48-18.93c-2.54,3.22-2.49,15.9.07,19,4.3,2.94,4.62.41,4.19-3.07-.28-2.3.06-4.68,2.28-5.48s2.54,2,3.72,3.2a24.89,24.89,0,0,1,3.63,4.71c1.21,1.94,3,2.06,4.78,1.65,2-.46,1.5-2.3,1.51-3.73,0-4.48.08-9,0-13.43,0-1.58.93-3.76-2.22-3.93-3.46-.18-2.45,2.17-2.71,4-.3,2,1.25,5.07-1.06,5.88-2.73,1-3.2-2.67-4.76-4.17a44.23,44.23,0,0,1-3.37-4.29C199.88,192,197.87,191.31,195.74,194.07Zm-.37-16q30,0,60,0c2.33,0,5.65.9,5.69-2.94s-3.25-3-5.61-3q-60,0-120,0c-2.21,0-5.45-.72-5.44,2.63s3.08,3.42,5.87,3.41C155.71,178,175.54,178.07,195.38,178.07Zm-48.6,25.1c0,6.72,4.5,11.13,11.29,11.09,6.52,0,11.06-4.43,11.13-10.8.08-6.6-4.55-11.38-11.1-11.44A10.8,10.8,0,0,0,146.78,203.17Zm-9.77.33c0-7.19-3.91-11.42-10.61-11.48-6.52-.06-11.58,4.7-11.48,11.09.1,6.12,3.21,10.42,9.34,10.89C132.88,214.68,137,210.86,137,203.5Zm-64.89-10.6c-1.63-.74-2.22,1-2.89,2.57-2.1,4.86-4.24,9.7-6.19,14.62-.47,1.18-2.23,2.82-.58,3.77,1.35.77,3.11.42,4.76-1.23,3.67-3.68,7.93-4.85,11.62.19,1.15,1.57,2.49,1.36,3.94,1.19a1.2,1.2,0,0,0,1-1.8q-3.9-9.12-7.91-18.2C75.26,192.6,73.9,193.2,72.12,192.91Zm29.12-14.84c5,0,10,0,15,0,2.2,0,4.27-.36,4.36-2.9s-1.8-3.18-4.1-3.17c-10.13,0-20.27.11-30.4,0-2.52,0-4,1.36-4,3.19s1.79,3.08,4.23,3C91.26,177.91,96.25,178.07,101.24,178.07Z"/><path class="cls-6" d="M10.05,160.47c-5.24-3.42-3.53-9-3.81-13.66-.84-14.15-.61-14.18,11.91-8.34,22.36,10.41,44.91,8.42,67.61,1.22,23.59-7.49,46.81-16.19,70.95-21.89,1.9-.45,4-1.63,5.5.45s1.19,4.53.44,6.7-3.06,2.2-5.1,2.15c-1.16,0-2.33,0-3.5,0-12.47,0-12.5,0-14.05,12.32-.53,4.19-3.39,5.1-6.72,4.56-7.84-1.27-10.64,1.93-9.35,9.52.47,2.78-.14,5.32-2.88,6.86l-2-.21c-.36-.67-.71-.67-1.07,0-2,.1-4,.28-6,.29Q61,160.47,10.05,160.47Z"/><path class="cls-7" d="M173,160.35c-2.94-1.69-3.32-4.15-2.61-7.28,3.9-17.31,18.42-31.9,36.09-34.57,21.88-3.32,44.82,5.47,53.12,33.89.64,2.2,2,4.86-.94,6.72-1.3.05-2.71-.31-3.64,1H176q-.52-1-1,0ZM194.82,150l-.1-10c-1.63-2.56-4.41-2.39-4.83-.07-.71,4-3.52,8.94,2.28,11.86l.45.06.38-.25Zm16.13-2c0-2.85,1-5.79-.73-8.5-1.87-2.23-3.9-1.45-4.56.63-.77,2.39-.45,5.13-.57,7.73-.09,2,.56,3.81,2.72,4C210.27,152,211.31,150.47,210.95,148Zm16.2-2.81c-.37-2.62,1.11-6.68-3-6.69s-3,4-3,6.62-1.24,6.61,2.95,6.63S226.72,147.73,227.14,145.23Z"/><path class="cls-8" d="M102,118.88c3,.05,5.95.18,8.92.14a3.85,3.85,0,0,1,3.78,2.69c.71,2-1.23,2.5-2.59,2.92-18.52,5.74-36.47,13.72-56.19,14.85-15.53.89-30.08-2.39-43.16-11-2.31-1.53-6-2.69-5.09-6.54s4.68-3,7.42-3.66a23.5,23.5,0,0,1,3-.38l6-.71,8-.36,6,.25a98.6,98.6,0,0,0,31,0l7-.24,8.83.6c2,1.18,4.11.43,6.18.46l5.83.52C98.45,119.56,100.25,118.85,102,118.88Z"/><path class="cls-9" d="M189.5,104.79c-7.31,0-14.62,0-21.93,0-4.25,0-5.72-1.87-4.44-6,3.21-10.3,13.93-18.73,24-18.78,15.09-.07,25.22,6.37,29.23,18.33,1.47,4.39.06,6.41-4.41,6.43C204.45,104.82,197,104.79,189.5,104.79Z"/><path class="cls-6" d="M226,112.15c16.08-.06,31.51,3.27,46.56,8.63a3.84,3.84,0,0,1,2.49,3.46c1.19,10.85,1.77,21.69.13,32.55-.41,2.74-2.16,3.47-4.58,3.52s-3.51-.94-3.93-3.42C262.59,133.41,248.79,118.76,226,112.15Z"/><path class="cls-10" d="M146.27,135.67c7.22-5.18,15.3-1.86,23-2.14,1.88-.07,1.89,2.24.87,4a50.48,50.48,0,0,0-6.5,18.61c-.27,1.81-.82,4.09-3,3.95-4.84-.3-10.35,2.5-14.3-2.66A109.43,109.43,0,0,0,146.27,135.67Z"/><path class="cls-11" d="M271.63,167.94,9.72,168l1.38-1.55,258.83,0Z"/><path class="cls-12" d="M208.87,111.88c-10.86,1.47-20.55,5.59-28.55,13.14-2.76,2.6-5.79,2.54-8.79,1.67s-2.66-4-2.33-6.4c.45-3.23-1.93-7.08,1.86-9.66l38,.29A5,5,0,0,0,208.87,111.88Z"/><path class="cls-3" d="M269.92,166.39l-258.83,0c1.18-2.13,3.24-1.34,4.94-1.34q124.47-.06,248.93,0C266.68,165.06,268.73,164.28,269.92,166.39Z"/><path class="cls-3" d="M119,160.14l2,.21c-.87,2.46-3,1.66-4.67,1.66q-50.81.06-101.61,0c-1.65,0-3.8.94-4.72-1.53q51,0,102,0c2,0,4-.19,6-.29Z"/><path class="cls-3" d="M173,160.35l2-.21h80l2,.31c-.93,2.44-3.06,1.56-4.72,1.56q-37.32.08-74.65,0C175.95,162,173.83,162.81,173,160.35Z"/><path class="cls-13" d="M37,111l5-.07a51.16,51.16,0,0,0,23,0l6,.09q0,2,0,4H37Z"/><path class="cls-12" d="M135.15,160.23c-4.28.68-5.19-1.62-5.23-5.5,0-4.21,2-4.82,5.54-4.87,4.22-.07,5.4,1.84,5.45,5.71C141,159.84,138.69,160.61,135.15,160.23Z"/><path class="cls-3" d="M37,115H71c1.72.42,4.13-1.1,5,1.78l-7,.24a207.67,207.67,0,0,0-31,0l-6-.25C32.88,113.94,35.29,115.45,37,115Z"/><path class="cls-3" d="M209,110.92l-38-.29c.37-1.42,1.46-1.59,2.69-1.59,11.88,0,23.76,0,35.64.06.86,0,1.71.71,2.57,1.09Z"/><path class="cls-3" d="M146.27,135.67a109.43,109.43,0,0,1,0,21.71A38.64,38.64,0,0,1,146.27,135.67Z"/><path class="cls-3" d="M91,117.87c-2.07,0-4.2.71-6.18-.46C87,115.58,89.15,114.74,91,117.87Z"/><path class="cls-3" d="M102,118.88c-1.74,0-3.54.69-5.17-.48C98.72,116.66,100.53,115.94,102,118.88Z"/><path class="cls-3" d="M156,6.88c-1.74,0-3.54.68-5.17-.47C152.71,4.67,154.51,3.93,156,6.88Z"/><path class="cls-3" d="M24.06,117.17l-6,.71C19.7,114.74,21.86,115.78,24.06,117.17Z"/><path class="cls-14" d="M209,110.92l2.93-.72c-.23,2.05-1.79,1.64-3.1,1.68A5,5,0,0,1,209,110.92Z"/><path class="cls-9" d="M257,160.45l-2-.31c.93-1.34,2.34-1,3.64-1Z"/><path class="cls-3" d="M86,111.89l1.07,0C86.65,112.67,86.3,112.59,86,111.89Z"/><path class="cls-3" d="M238,106.89l1.06.06C238.63,107.7,238.29,107.56,238,106.89Z"/><path class="cls-13" d="M151.4,14.88a17.3,17.3,0,0,1,17.79,17.48,17.65,17.65,0,1,1-35.3.33A17.41,17.41,0,0,1,151.4,14.88Zm11.76,17.89a11.6,11.6,0,1,0-23.2-.24,11.6,11.6,0,0,0,23.2.24Z"/><path class="cls-1" d="M64.75,59.77c.09-8.55,6.15-14,15.54-13.91C87,45.91,93,52.73,93,60.08A14.21,14.21,0,0,1,78.4,74,13.93,13.93,0,0,1,64.75,59.77Zm22.32-.05c-.84-4.88-3.44-8-8.63-7.82-4.9.21-7.67,3.22-7.6,8.11s3,7.86,7.85,7.9C83.78,68,86.41,64.71,87.07,59.72Z"/><path class="cls-3" d="M65,111a51.16,51.16,0,0,1-23,0Z"/><path class="cls-13" d="M195.38,178.07c-19.83,0-39.67,0-59.5,0-2.79,0-5.86.06-5.87-3.41s3.23-2.63,5.44-2.63q60,0,120,0c2.37,0,5.65-.78,5.61,3S257.7,178,255.38,178Q225.38,178.11,195.38,178.07Z"/><path class="cls-13" d="M195.74,194.07c2.13-2.76,4.14-2.12,6,.25a44.23,44.23,0,0,0,3.37,4.29c1.56,1.5,2,5.13,4.76,4.17,2.31-.81.76-3.85,1.06-5.88.27-1.8-.75-4.15,2.71-4,3.15.16,2.18,2.35,2.22,3.93.1,4.47.06,9,0,13.43,0,1.42.48,3.27-1.51,3.73-1.8.41-3.58.29-4.78-1.65a24.89,24.89,0,0,0-3.63-4.71c-1.19-1.16-1.52-4-3.72-3.2s-2.57,3.19-2.28,5.48c.43,3.48.11,6-4.19,3.07Z"/><path class="cls-1" d="M146.78,203.17A10.8,10.8,0,0,1,158.11,192c6.55.06,11.18,4.84,11.1,11.44-.08,6.37-4.61,10.77-11.13,10.8C151.28,214.3,146.79,209.89,146.78,203.17Zm17.27-.88c.31-4.18-2.87-5.11-6.92-5.33-4.37-.23-5.79,3.49-5.74,6,.07,3.42,1.9,7.24,6.66,7C162.34,209.85,164.12,207.24,164.05,202.3Z"/><path class="cls-1" d="M137,203.5c0,7.35-4.13,11.17-12.74,10.5-6.13-.48-9.25-4.78-9.34-10.89-.1-6.39,5-11.15,11.48-11.09C133.1,192.08,137,196.32,137,203.5Zm-5-.52c.18-3.36-.73-6.09-5-6-4.12.05-7.17,1.44-7.05,6.25.1,4,2,6.76,6.23,6.79S132.37,207.44,132,203Z"/><path class="cls-1" d="M72.12,192.91c1.79.29,3.15-.31,3.77,1.11q4,9.08,7.91,18.2a1.2,1.2,0,0,1-1,1.8c-1.45.17-2.79.38-3.94-1.19-3.69-5-8-3.87-11.62-.19-1.64,1.65-3.4,2-4.76,1.23-1.65-.94.11-2.59.58-3.77,2-4.92,4.09-9.76,6.19-14.62C69.89,193.94,70.49,192.17,72.12,192.91Z"/><path class="cls-1" d="M227.12,194c4.85-2.26,10-.81,14.9-.73,1.69,0,1.2,2.39-.23,3.36-.6.41-1.64.09-2.42.32-2.4.69-6.83-1.9-6.86,2.22,0,3.81,4.25,1.42,6.56,1.94,1.4.32,2.75.45,2.8,2.15.06,2-1.6,1.72-2.87,1.78a19.88,19.88,0,0,0-3.48.09c-1.54.36-3.41.85-3.23,2.93s2,1.61,3.43,2c2.44.64,7-2,7,1.74,0,4.15-4.74,2.12-7.37,2.24s-5.67,1.16-8.12-1Z"/><path class="cls-13" d="M101.24,178.07c-5,0-10-.15-14.95.07-2.44.11-4.19-1-4.23-3s1.47-3.22,4-3.19c10.13.15,20.27.09,30.4,0,2.3,0,4.18.68,4.1,3.17s-2.16,2.93-4.36,2.9C111.21,178,106.22,178.07,101.24,178.07Z"/><path class="cls-13" d="M130,246.83c1.54,1,2.63,2.19,1.82,4.21-16.4,0-32.81,0-49.21,0-2.78,0-5.13-.09-4.52-3.86l-.12-.37Z"/><path class="cls-1" d="M94.06,238.85c-1.85-1.55-2-3.1,0-4.64,1.58,1.39,3.5.81,5.26.81,15.47,0,30.94.07,46.41,0,2.41,0,5,.85,7.24-.83,2.22,1.58,2.1,3.16,0,4.73-1.56-1.43-3.49-.83-5.25-.83-13.8,0-27.6-.13-41.4,0C102.24,238.15,98,237.08,94.06,238.85Z"/><path class="cls-1" d="M55.06,192.94c1.55,1.22,1.25,3.48,0,3.46-8-.11-4.2,5.84-5.18,9.36-.77,2.79,2.43,7.91-2.33,8-5.11.13-2-5.05-2.44-7.78-.65-4,1.74-9.34-5.33-9.89-.27,0-.43-1.37-.64-2.1C44.42,193.45,49.88,195.31,55.06,192.94Z"/><path class="cls-13" d="M167.52,247.84l1.51-1.06,31,.06-.11.37c.5,3.21-1.14,3.94-4,3.89-7.13-.14-14.27-.24-21.39,0C171.39,251.26,169.21,250.33,167.52,247.84Z"/><path class="cls-1" d="M78.07,247.21c-.6,3.77,1.75,3.87,4.52,3.86,16.4-.06,32.81,0,49.21,0-.83,2.3-2.82,1.94-4.6,1.94q-23.2,0-46.4,0c-1.81,0-3.88.31-4.63-1.92C75.6,249.34,75.91,247.74,78.07,247.21Z"/><path class="cls-3" d="M94.06,238.85c4-1.77,8.18-.71,12.26-.75,13.8-.16,27.6-.08,41.4,0,1.76,0,3.69-.59,5.25.83l-1,.9-56.87,0Z"/><path class="cls-11" d="M95,233.51c.74-1.88,2.4-1.46,3.84-1.46q24.66,0,49.32,0c1.43,0,3.09-.43,3.84,1.45Z"/><path class="cls-11" d="M130,246.83H78c.51-2,2.11-1.79,3.6-1.79h44.86C127.88,245.06,129.53,244.77,130,246.83Z"/><path class="cls-3" d="M184.35,213c-1.56,1.42-3.11,1.56-4.67,0l-.1-18.94c1.63-1.64,3.26-1.55,4.88,0Z"/><path class="cls-1" d="M167.52,247.84c1.69,2.49,3.87,3.42,7,3.29,7.12-.28,14.26-.18,21.39,0,2.88.06,4.53-.68,4-3.89,2,.54,2.58,2,2,3.79s-2,2-3.61,2c-9.45,0-18.9.14-28.34-.09C166.83,252.83,164.77,251.28,167.52,247.84Z"/><path class="cls-1" d="M106,193c1.58,1.41,1.83,2.82-.66,3a8.22,8.22,0,0,0-4.54,2c-3.88,3-1,7.2-1.75,10.76-.38,1.72.63,4.39-2.87,3-.06-2.63-.14-5.26-.19-7.88-.07-3.33,1.11-7.18-4.44-7.56-2.16-.15-2.36-1.89-.59-3.38A23.13,23.13,0,0,0,106,193Z"/><path class="cls-11" d="M200.06,246.83l-31-.06c.32-1.4,1.33-1.72,2.61-1.72q12.91,0,25.82,0A2.32,2.32,0,0,1,200.06,246.83Z"/><path class="cls-3" d="M95,233.51h57l1,.66c-2.25,1.68-4.83.82-7.24.83-15.47.09-30.94.06-46.41,0-1.77,0-3.69.58-5.26-.81Z"/><path class="cls-11" d="M95.08,239.75l56.87,0c-.81,1.45-2.22,1.24-3.53,1.24H98.57C97.27,241,95.85,241.24,95.08,239.75Z"/><path class="cls-1" d="M194.05,238.88c-2.2-1.57-2.32-3.14,0-4.7,4,1.82,8.14.41,12.19.88,1.12.13,2.57,0,2.37,1.7-.15,1.29-1.39,1.15-2.36,1.25C202.2,238.48,198,237.11,194.05,238.88Z"/><path class="cls-3" d="M194.05,238.88c4-1.77,8.15-.4,12.2-.86,1-.11,2.21,0,2.36-1.25.2-1.74-1.25-1.57-2.37-1.7-4.05-.47-8.24.93-12.19-.88l1-.81,12.92-.09c3.37,1.61,4,3.64,1,6.24l-13.85.25Z"/><path class="cls-11" d="M179.58,194.07l.1,18.94C176.87,206.71,177.11,200.4,179.58,194.07Z"/><path class="cls-11" d="M184.35,213l.11-18.94C187,200.4,187.17,206.72,184.35,213Z"/><path class="cls-11" d="M195.74,194.07l.07,19C193.25,210,193.2,197.28,195.74,194.07Z"/><path class="cls-3" d="M96.2,211.8c3.5,1.41,2.48-1.26,2.87-3,.8-3.56-2.13-7.72,1.75-10.76q0,6.69.09,13.37c0,1.5-.42,2.59-2.18,2.64C97.14,214.13,95.56,214.2,96.2,211.8Z"/><path class="cls-3" d="M80.69,238.63,79,239.83l-15.89,0-1.6-1.2q.28-.26.53-.54H80A6.19,6.19,0,0,0,80.69,238.63Z"/><path class="cls-11" d="M63,233.51a18.71,18.71,0,0,1,16,0Z"/><path class="cls-3" d="M55.06,192.94c-5.18,2.37-10.65.51-15.95,1.09l.94-1.81,14.9.06A1.07,1.07,0,0,0,55.06,192.94Z"/><path class="cls-3" d="M106,193a23.13,23.13,0,0,1-15,0,.84.84,0,0,0,.11-.63l14.84.07A.88.88,0,0,0,106,193Z"/><path class="cls-11" d="M208,233.29l-12.92.09A14.24,14.24,0,0,1,208,233.29Z"/><path class="cls-3" d="M63,233.51H79c2.6,1,3.82,2.52,1.69,5.12A6.19,6.19,0,0,1,80,238c.21-2.89-1.65-3-3.81-3-4.73.05-9.46,0-14.19,0a6.48,6.48,0,0,0-.59-.57Z"/><path class="cls-11" d="M227.12,194l.11,19A32.77,32.77,0,0,1,227.12,194Z"/><path class="cls-11" d="M63.07,239.79l15.89,0A21.51,21.51,0,0,1,63.07,239.79Z"/><path class="cls-11" d="M55,192.28l-14.9-.06A19.88,19.88,0,0,1,55,192.28Z"/><path class="cls-11" d="M105.92,192.42l-14.84-.07A18,18,0,0,1,105.92,192.42Z"/><path class="cls-11" d="M195.07,239.78l13.85-.25C204.35,242.14,199.73,241.72,195.07,239.78Z"/><path class="cls-3" d="M61.47,238.59c-1.4-1.36-1.45-2.73-.05-4.12A6.48,6.48,0,0,1,62,235q0,1.51,0,3Q61.75,238.33,61.47,238.59Z"/><path class="cls-8" d="M119,160.14H118C118.33,159.46,118.69,159.47,119,160.14Z"/><path class="cls-1" d="M227.14,145.23c-.42,2.5,1.18,6.58-3.07,6.55s-2.92-4.05-2.95-6.63-1.12-6.63,3-6.62S226.77,142.61,227.14,145.23Z"/><path class="cls-1" d="M210.95,148c.36,2.43-.68,4-3.13,3.83-2.16-.16-2.82-2-2.72-4,.12-2.59-.2-5.34.57-7.73.67-2.08,2.69-2.86,4.56-.63-1.65,1.92-4,3.45-3.18,6.61C207.63,148.51,209.43,147.88,210.95,148Z"/><path class="cls-13" d="M194.72,140l.1,10a1.79,1.79,0,0,0-1.81,1.62l-.38.25-.45-.06C191.89,147.67,187.49,142.6,194.72,140Z"/><path class="cls-1" d="M194.72,140c-7.23,2.55-2.82,7.62-2.55,11.79-5.8-2.92-3-7.9-2.28-11.86C190.31,137.66,193.08,137.49,194.72,140Z"/><path class="cls-13" d="M210.95,148c-1.52-.16-3.32.47-3.9-1.89-.78-3.16,1.53-4.69,3.18-6.61C211.91,142.25,210.92,145.19,210.95,148Z"/><path class="cls-1" d="M193,151.66a1.79,1.79,0,0,1,1.81-1.62Z"/><path class="cls-9" d="M176,160.14h-1Q175.51,159.14,176,160.14Z"/><path class="cls-5" d="M38,117.07a207.67,207.67,0,0,1,31,0A98.6,98.6,0,0,1,38,117.07Z"/><path class="cls-15" d="M163.15,32.76a11.6,11.6,0,0,1-23.2-.24,11.6,11.6,0,1,1,23.2.24Z"/><path class="cls-7" d="M87.07,59.72c-.66,5-3.29,8.23-8.38,8.19-4.81,0-7.78-3-7.85-7.9s2.7-7.9,7.6-8.11C83.63,51.68,86.23,54.84,87.07,59.72Z"/><path class="cls-5" d="M164.05,202.3c.07,4.95-1.71,7.55-6,7.73-4.76.2-6.59-3.61-6.66-7,0-2.53,1.37-6.25,5.74-6C161.18,197.18,164.36,198.12,164.05,202.3Z"/><path class="cls-5" d="M132,203c.33,4.45-1.54,7-5.85,7s-6.13-2.75-6.23-6.79c-.11-4.81,2.94-6.2,7.05-6.25C131.31,196.89,132.22,199.63,132,203Z"/><path class="cls-1" d="M62,238q0-1.51,0-3c4.73,0,9.46,0,14.19,0,2.16,0,4,.12,3.81,3Z"/></g></g></svg>