<svg xmlns="http://www.w3.org/2000/svg" viewBox="0 0 244.72 525.54"><defs><style>.cls-1{fill:#bb6e28;}.cls-2{fill:#bb6e29;}.cls-3{fill:#3c2517;}.cls-4{fill:#ab6020;}.cls-5{fill:#f8d9b5;}.cls-6{fill:#ab601f;}.cls-7{fill:#3f2414;}.cls-8{fill:#451e13;}.cls-9{fill:#422411;}.cls-10{fill:#bfbdbc;}.cls-11{fill:#bfbcbb;}.cls-12{fill:#bfbdbb;}.cls-13{fill:#bebbba;}.cls-14{fill:#bebcba;}</style></defs><title>Asset 1</title><g id="Layer_2" data-name="Layer 2"><g id="Layer_1-2" data-name="Layer 1"><path class="cls-1" d="M240.31,225.59a139,139,0,0,1,21.09,30.23,179.91,179.91,0,0,1,17,47.36c1,4.52,1.74,9.07,2.61,13.63.1-.09.25-.15.28-.25.31-.92,0-2.76.6-2.67,1.16.17,1.26,1.78,1.53,2.89a10.86,10.86,0,0,1-.74,7.12c-1,2.29-.84,4.07,1.23,5.8,3.55,3,4.35,7,3.61,11.4-.08.49-.25,1.33-.5,1.38-.71.13-.7-.74-1.05-1.16s-.31-1.8-1.23-1.44c-.66.26,0,1.26.06,2,.44,3.2.91,6.43-.24,9.6a5.2,5.2,0,0,1-.72,1.06c-.12-.38-.27-.75-.37-1.13s-.19-1-.32-1.51a5.44,5.44,0,0,0-.42-1.34c-.74.09-.6.87-.73,1.33-3.59,13-23.63,22.38-35.52,16.4-5.49-2.76-8.23-6.88-8.47-13-.29-7.44-2.23-14.66-3.65-21.93-1.74-8.9-3.3-17.86-6-26.55.49-1.89-.61-3.53-.88-5.29a7.22,7.22,0,0,0-.48-1.33c-.62.32-.32.91-.32,1.35.06,4.39.23,8.79.23,13.18,0,5.34.64,10.67,0,16-3.7-.56-6.89-2.48-10.15-4.1-21.73-10.82-40.65-25.7-59.12-41.21-11.13-9.35-21.83-19.18-32.26-29.29-7.65-7.41-15-15.1-22.52-22.67.58-2.71,1.14-5.43,1.75-8.14a2.94,2.94,0,0,1,.51-.82,3.31,3.31,0,0,1,.35.49c1.06,2.24,2.06,4.51,3.19,6.72,2.3,4.5,4.8,8.88,8.56,12.37.57.53,1.33,1.65,1.93.08s.92-3,1.36-4.58c.13-.47.12-1.24.39-1.35.76-.32.93.52,1.18,1,2.63,4.64,5.33,9.24,7.78,14,1.32,2.54,2.43,1.84,3.87.28s3.12-3.31,4.7-5c.77-.8,1.35-1.23,1.58.44.32,2.39.87,4.74,1.29,7.12.26,1.45.79,2,2.12.86,2.76-2.4,5.56-4.74,8.3-7.16.87-.77,1.39-1,2.27.09,2.88,3.61,5.86,7.13,8.85,10.63.52.61,1.1,1.88,1.93,1.35.64-.41-.28-1.45-.68-2.07-3-4.65-6.22-9.21-9.21-13.88-1-1.64-1.81-1.51-3-.25-2.69,2.8-5.63,5.35-8,8.45-.29.37-.84.83-1.21.78-.66-.08-.36-.82-.46-1.29-.6-2.83-.39-5.7-.45-8.55,0-.68.41-1.65-.44-2-.35-.12-1.08.6-1.52,1-2.24,2.21-4.49,4.41-6.63,6.72-1,1.13-1.43.78-2-.36q-4.32-8.25-8.77-16.43c-.33-.6-.23-1.74-1.11-1.71s-.76,1.25-1.15,1.89c-.78,1.28-.59,3.66-2.12,3.81-1.7.17-2.84-1.81-4.07-3a1.93,1.93,0,0,1-.25-.36c-3.4-5.51-5.59-11.53-7.55-17.66-.14-.44.11-1.21-.58-1.23-.23,0-.57.73-.72,1.18-1.57,4.53-3.12,9.07-4.67,13.6L94.88,223a2.61,2.61,0,0,0,.07-2.49,97,97,0,0,1-4.7-20.82,12.08,12.08,0,0,0-.48-1.72,13.64,13.64,0,0,0-.78,1.75c-1.92,6.62-3.8,13.26-5.76,19.87-.11.38.1,1.24-.62,1.19s-.71-.8-.87-1.34q-4.6-16-9.21-32a13.87,13.87,0,0,0-.68-1.6c-.7.33-.62,1.07-.83,1.65-2.06,5.74-4.15,11.47-6.13,17.24-.62,1.81-1.21,1.57-2.22.33a41.68,41.68,0,0,1-9.14-23.48,66.22,66.22,0,0,1,2.15-22.95,12.6,12.6,0,0,0,.23-1.7,13.35,13.35,0,0,0-1.54.77c-3.18,2.12-6.34,4.27-9.53,6.38a13.84,13.84,0,0,1-1.74.84,10.63,10.63,0,0,1,0-2.1c2.19-11,7.19-20.93,12.56-30.67.27-.5.48-1,.71-1.56a10.28,10.28,0,0,0-1.67.21c-2.89.85-5.76,1.76-8.65,2.61-.81.24-1.87,1-2.42.24-.35-.46.09-1.66.36-2.45,2.82-8.06,7.47-15.12,12.23-22.12,1-1.49,2-3,3-4.51L54,106.06c-.92.26-1.83.57-2.76.76s-2,1.24-2.78.52c-.3-.28.49-1.85.92-2.77,4.9-10.5,12.19-19.36,19.52-28.17C73,71.49,77.32,66.8,81.53,62a6.54,6.54,0,0,0,.69-1.27c-.43,0-.87.08-1.3.15-3.63.6-7.25,1.22-10.88,1.81a14.61,14.61,0,0,1-1.9.07,9.23,9.23,0,0,1,.91-1.9c3.63-4.56,8.4-7.77,13.25-10.83a172.89,172.89,0,0,1,19.81-10.58,8.74,8.74,0,0,0,1.22-.83,11.2,11.2,0,0,0-1.43-.43c-3.19-.52-6.39-1-9.58-1.53-.56-.09-1.49-.19-1.57-.48-.21-.74.66-1,1.15-1.38,5.76-4,12.4-5.21,19.15-6A137.25,137.25,0,0,1,138,28.67a10.38,10.38,0,0,0,1.68-.12,11.69,11.69,0,0,0-1-1.31c-3.45-3.31-6.93-6.59-10.36-9.91a13.32,13.32,0,0,1-1.37-1.88,12.11,12.11,0,0,1,2.3-.47c7.47-.1,13.79,3.18,19.86,7,3,1.92,5.88,4.15,8.73,6.35,1.26,1,1.88,1.31,2.84-.47,4.88-9,12.83-13.16,22.84-13.78.56,0,1.45-.09,1.63.21.41.68-.41,1.14-.78,1.64-1.94,2.59-3.93,5.13-5.88,7.71-.3.39-.78,1.06-.65,1.28.36.61,1.06.19,1.57.07,15.39-3.54,30.66-2.65,45.87,1.13a11.67,11.67,0,0,1,1.59.65c-.33.72-1,.42-1.53.49-2.62.38-5.25.68-7.87,1-.53.07-1.25-.24-1.51.48a4.38,4.38,0,0,0,1.25.71c13,5.47,23.37,14.29,31.74,25.54a14.48,14.48,0,0,1,.94,1.68,18.74,18.74,0,0,1-2.08-.09c-2-.31-4.06-.68-6.09-1-.49-.08-1-.09-1.48-.13a9.19,9.19,0,0,0,1.1,1.28A76.81,76.81,0,0,1,262.33,83c1.5,3.1,2.63,6.38,3.86,9.6.49,1.28.19,1.93-1.4,1.49-2-.55-4-.92-6-1.37a.58.58,0,0,0-.06-.17s-.08,0-.12,0l.22.12c3.09,4.53,6.4,8.91,9.22,13.6,7.78,13,12.86,26.86,13.34,42.17a25,25,0,0,1-.25,3c-.84-.55-1.7-1.06-2.5-1.67-2.11-1.59-4.18-3.23-6.28-4.83a4.16,4.16,0,0,0-.74-.37,3.63,3.63,0,0,0,.08.82c5.55,16.46,1.75,32.18-3.74,47.78-.7,2-1.28,2-2.62.46-2-2.27-4.15-4.35-6.26-6.49a15,15,0,0,0-1.33-1.08,11.62,11.62,0,0,0-.69,1.74c-2.49,11.26-6.77,21.7-13.92,30.87-1.39,1.78-3.31,3.11-4.29,5.22a3.53,3.53,0,0,0-1,.45,54.55,54.55,0,0,1-13.38,8.94c-6.23,3-6.45,3-6.76-3.72,0-.15,0-.29,0-.44,0-.44,0-1-.52-1.09-.73-.16-.75.53-.94,1a28,28,0,0,1-4.3,7.08c-7.15,8.56-16.28,14.5-25.94,19.78-2,1.07-2.46.36-2.71-1.35q-1.13-7.91-2.23-15.82c0-.35-.08-.71-.13-1.06a5.08,5.08,0,0,0-.94.81q-6.14,8.68-12.23,17.39c-.26.38-1.2.9-.4,1.38.51.31.89-.56,1.28-1q4.77-5.15,9.57-10.28c.88-.94,1.38-.92,1.61.5.66,4,1.47,8,2.06,12.08.2,1.38.3,1.55,1.64.87a139.92,139.92,0,0,0,20.24-12.61c4.82-3.59,9.61-7.19,12.5-13a18.92,18.92,0,0,1,.53,3c0,1.64.61,1.75,2.07,1.33a60.64,60.64,0,0,0,11.88-4.57C234.5,231.63,238.26,229.62,240.31,225.59ZM184.77,82l-.15,0a8.18,8.18,0,0,0,0-1.32c-.13-.81.52-2-.56-2.35-.88-.32-1.34.72-1.92,1.24-1.64,1.46-3.24,3-4.89,4.43-3.41,3-6.84,6-10.25,8.95-.81.71-1.34.78-1.76-.38q-3.5-9.64-7.06-19.26c-.26-.69-.08-1.83-1.09-1.85-.3,0-.71,1.17-.92,1.85Q152.44,85,148.77,96.71c-.4,1.28-1,1.75-2.18.64-3.27-3.17-6.56-6.31-9.84-9.47-.39-.37-.49-1.34-1.21-1s-.35,1.15-.22,1.77q1.46,7.18,2.93,14.36c.06.31.28.86.39.85.65-.05.47-.64.46-1-.12-2.41-.3-4.82-.4-7.23,0-.55,0-1.39.3-1.62.66-.47,1.19.35,1.67.69q3.84,2.73,7.57,5.63c1.16.9,1.55,1,2.13-.68,2-5.63,4.23-11.16,6.38-16.73.12-.32.29-.61.44-.92a5.14,5.14,0,0,1,.84.88c2.41,4.18,4.87,8.33,7.14,12.59,1,2,1.78,2.59,3.57.66C172,92.56,175.56,89.2,179,85.79c.33-.33.89-.76,1.23-.69.62.14.35.86.38,1.34.16,2.26.39,4.53.43,6.79.07,4.33,0,4.34,4.22,3.08,1.66-.5,2.3-.26,1.67,1.69a56.26,56.26,0,0,0-1.35,6.22c-.06.32,0,.88.18,1,.47.26.51-.27.68-.57,2.21-3.79,4.44-7.57,6.62-11.38a2,2,0,0,0,.15-1.42c-.06-.2-.84-.43-1.12-.29-1.84.91-3.95.44-5.8,1.16-2.65,1-2.77-.45-2.53-2.41C184.12,87.55,184.44,84.79,184.77,82Zm-80.34,38.12a37.29,37.29,0,0,0-11.9,1.49c-.75.22-1.71.34-2.14,1.24.67.2,1.34.43,2,.6.92.23,1.85.46,2.79.61.64.1,1.6-.09,1.67.68.09,1-1,.85-1.65,1a28,28,0,0,0-12.69,7.86c-.3.32-1,.64-.47,1.21.14.14.85-.07,1.16-.31a39.51,39.51,0,0,1,21.08-7.82,4.47,4.47,0,0,0,1-.33,7.28,7.28,0,0,0-.53-1.1c-.77-1.09-3.25-1.44-2.66-2.58s2.83-.26,4.34-.39c.51,0,1,0,1.54,0,1.51-.05,3.46.11,4.26-1,.55-.73-1.5-1.68-2.11-2.74a3.83,3.83,0,0,0-.61-.91c-1.39-1.3-.79-1.93.73-2.33a21.45,21.45,0,0,1,8.28-.32c4.28.54,7.8,2.77,11.41,4.82.41.23,1,.5,1.35.34s0-.63-.31-.83c-7.61-5.26-15.66-8.31-25-5.09-.65.23-1.32.46-1.52,1.14s.66.84,1,1.25c1.08,1.22,3.81,1.61,3.46,3C108.69,120.78,105.89,119.9,104.43,120.15Zm103.69-7.07c-4.67-.48-9,1.41-13.12,3.67-.49.27-1.28.45-1.26,1.31a7,7,0,0,0,1.84-.4,24.72,24.72,0,0,1,13.78-2.81c1.23.1,2.8.15,3.29,1.34s-.92,1.92-1.63,2.82-2.21,1.3-1.85,2.43,1.74.21,2.6.52c1.43.51,2.91.28,4.36.41s3.39-.75,3.82.47c.36,1-1.92,1.4-2.86,2.28a9.61,9.61,0,0,0-.92,1.16c.3.16.58.43.89.46,7.81.63,15,2.9,21.23,7.83.3.24,1,.46,1.16.31.55-.57-.17-.87-.47-1.21-3.59-4.07-8.27-6.41-13.27-8.22-.37-.13-1,.14-1-.48,0-.22.62-.53,1-.62,1.49-.36,3-.62,4.5-1,.37-.09,1-.08.92-.68,0-.21-.56-.39-.88-.51a32.47,32.47,0,0,0-12.72-2.09c-1.72,0-3.49.4-5.19-.26.85-1.76,2.76-2.17,4.13-3.27.11-.09.26-.14.37-.24.66-.61,1.21-.93-.18-1.62A16.88,16.88,0,0,0,208.12,113.08Zm-42.2,62.73c3.9-.29,6.91-2.52,9.39-5.57,1.39-1.7,1.13-3-1.23-3.37a81.47,81.47,0,0,0-16.48-.14c-2.09.14-2.76,1.8-1.48,3.52A12.63,12.63,0,0,0,165.92,175.82Zm4.83,30.88c2-.23,5.38-.58,8.73-1,.68-.09,1.65-.21,1.46-1.24s-1.08-.83-1.8-.73c-1.31.17-2.6.48-3.91.61-10.47,1-20.36-.54-29.16-6.75-.74-.52-1.58-1.69-2.4-.65-1,1.22.55,1.74,1.28,2.26C152.27,204.4,160.54,206.51,170.75,206.7ZM112.7,156.33c0-2.68-1.47-3.75-3.48-3.79a3.48,3.48,0,1,0,.24,7A3,3,0,0,0,112.7,156.33Zm101.92-.63c0,2.22,1,3.57,3.16,3.78a3.19,3.19,0,0,0,3.84-3.23,3.51,3.51,0,0,0-7-.55Zm-22.41-35.79c-.85-.35-1.1-.53-1.17-.47a3.21,3.21,0,0,0-.5.64c.16.1.33.29.47.27A7,7,0,0,0,192.22,119.92Zm.63-1c-.05-.13-.08-.31-.16-.35s-.23.07-.35.12c0,.12.06.3.15.34S192.71,119,192.85,118.93Z" transform="translate(-43.03 -14.06)"/><path class="cls-2" d="M178,501.31c-1.51-.14-2.4,1.07-3.59,1.64-.63.3-1.19,1.2-1.89.83s-.49-1.48-.36-2.2c.54-3.06,1.2-6.1,1.82-9.14l.35-.46,0,0a7.44,7.44,0,0,0,1.58-3.48c-1.24.46-1.44,1.85-2.31,2.64-.1.09-.11.27-.16.4-1.49.89-1.19-.58-1.3-1.12-.91-4.65.57-8.95,2.56-13a15.07,15.07,0,0,0,1.45-8.85c-2.58-22.8-5.06-45.6-7.59-68.41-.08-.72-.28-1.42-.58-2.92-1.28,12.87-2.49,24.93-3.68,37-2.78,28.18-6,56.32-8.13,84.54-.86,11.19-7.17,16.43-17.33,18.71a62.87,62.87,0,0,1-6.74,1.13c-13.74,1.54-27.36,0-40.78-2.57-9.42-1.81-11.75-8.28-7-16.7a41.54,41.54,0,0,1,7.46-9.78A6.94,6.94,0,0,0,94,505q3.74-33.21,7.54-66.41c.17-1.43-.38-1.93-1.6-2.35-2.19-.77-4.33-1.7-6.49-2.57,1.06-2.16,3.17-3.4,4.61-5.22a13.54,13.54,0,0,0,1-1.15c.25-.41.62-1.14.46-1.34-.37-.43-.9.07-1.38.17-1.34.28-3.09,1.83-3.79,1-1.07-1.26.22-3.07.9-4.48,1.17-2.44,2.61-4.76,3.91-7.14a4.54,4.54,0,0,0,.28-1.12c-.31.15-.63.28-.92.46-.47.28-.84,1.12-1.43.63-.33-.28-.34-1.08-.3-1.63a17.84,17.84,0,0,1,5-11.31c4.33-4.42,4.73-9.81,5.68-15.39,3.89-22.9.83-45.79.33-68.68-.11-4.78-.34-9.56-.54-14.34a10.3,10.3,0,0,0-.34-1.65,12.44,12.44,0,0,0-.51,1.45c-3.4,15.22-5.93,30.59-8.26,46a20.29,20.29,0,0,0-.09,3.52c.22,8.73-9.7,19.17-18.4,18.37-10.44-1-20.87-6.55-25.22-18.56-.35-1-.59-2-.89-3-.24-.79-.5-1.58-.75-2.37-.29.83-.54,1.67-.87,2.48-.4,1,.14,2.18-.7,3.06a7.25,7.25,0,0,1-1.26-3.67c-.08-1.76,0-3.53,0-5.3l1.38-6.14-.33-.1-1.88,3.6-.83,1.48a6.72,6.72,0,0,1-.69-1.52c-.85-4.72.35-8.79,4.21-11.76,1.75-1.35,1.93-2.63,1-4.52-1.57-3.22-2.17-6.56-.37-9.94a9.86,9.86,0,0,1,.86-1.17c.09.48.16,1,.26,1.44.15.71.32,1.41.64,2.82a199,199,0,0,1,10-43.22c3.65-10.09,7.85-19.94,13.7-29,.76,1,1.56,1.93,2.26,2.95C98,275.76,118.74,299.49,144,319.12c21.6,16.81,45.14,29.91,71.73,37,4,1.08,8.09,2.47,12.41,2,1.63,3.36,4.47,6,5.86,9.51a16.55,16.55,0,0,1,1.61,6.56c0,1.3-.59,1.29-1.46.69L232,372.49l-.5.49,2.19,2.88c1.6,3,3.65,5.88,4.49,9.29.15.61.63,1.39,0,1.82-.35.22-1.08-.09-1.62-.25-1.53-.46-3-1-4.56-1.45.68,1.57,2.14,2.48,3.18,3.74.14.17.29.33.44.5,3.58,3.85,3.59,3.88-1.35,5.86a1.9,1.9,0,0,0-1.35,2.35q4.77,39.28,9.47,78.57c1.29,10.8,2.52,21.6,3.76,32.41a8.92,8.92,0,0,0,1.7,4.65,30.84,30.84,0,0,1,4.86,9.1c2,5.93-.35,10.54-6.29,12.46-6.41,2.07-13.17,2-19.75,3.09-10,1.67-20,2.4-30,.41-6.13-1.22-11.77-3.43-14.44-9.84a13.07,13.07,0,0,1-.57-6.95c.42-3-.2-6-.54-9-.21-1.87-2-1.26-3-1.44-5.2-.89-5.2-.82-2.51-5.32.9-1.5,1.7-3.05,2.54-4.58l.28-.47-.2,0Z" transform="translate(-43.03 -14.06)"/><path class="cls-3" d="M228.11,358.17c-4.32.47-8.37-.92-12.41-2-26.59-7.13-50.12-20.24-71.73-37-25.23-19.63-46-43.36-63.88-69.72-.69-1-1.5-2-2.26-2.95-2.17-6.7,1.2-14.88,7.91-19.32A38.49,38.49,0,0,1,94.88,223l5.28,5.5,2.75,3c7.5,7.57,14.87,15.25,22.52,22.67,10.43,10.11,21.13,19.94,32.26,29.29,18.47,15.51,37.39,30.39,59.12,41.21,3.25,1.62,6.44,3.54,10.15,4.1l.52.36c5.58,4.78,6.35,10.94,5,17.66A44.79,44.79,0,0,1,228.11,358.17ZM152.6,316.7c.73.11.87-.5,1.15-.88,1-1.42,2-2.92,3.1-4.27.91-1.09.88-1.64-.37-2.53q-7.18-5.08-14.18-10.43c-5.3-4-5.23-4.08-9.13,1.52-.68,1-.77,1.48.23,2.28,5.94,4.78,12,9.41,18.32,13.7ZM194,332.81c-.12-.84-.93-1-1.52-1.34-5.26-3.08-10.56-6.09-15.79-9.21-5.72-3.41-5.66-3.43-9.5,2.11-.71,1-.58,1.37.41,2q11.19,6.63,22.85,12.36c.44.21,1.08.94,1.45,0C192.64,336.79,193.27,334.83,194,332.81ZM107,267a37.36,37.36,0,0,1-3.22,2.41c-1.74,1-1.74,1.93-.4,3.47,4.2,4.81,8.44,9.58,13,14.08,4.36,4.33,4.34,4.3,8.22-.53.82-1,1.1-1.62-.08-2.63-5.74-4.93-11.09-10.26-16.32-15.73C107.86,267.67,107.47,267.36,107,267Zm27.66,6.67a9.22,9.22,0,0,1-1.58-1q-5.44-5.15-10.84-10.35c-4.36-4.19-4.33-4.18-8.95-.25-.85.72-1,1.14-.17,2,4.91,5.27,10.05,10.3,15.39,15.14a2.78,2.78,0,0,0,1,.59C131.19,277.95,132.75,276,134.69,273.63ZM165,300.06c-.52-.45-.95-.83-1.39-1.2-4.73-3.86-9.5-7.67-14.18-11.59-4.38-3.66-4.29-3.67-7.62.92-.87,1.2-.93,1.82.34,2.76,5.67,4.2,11.25,8.53,16.92,12.73.7.52,1.52,2,2.5,1A34.27,34.27,0,0,0,165,300.06Zm-53.9-49-1.16-1.29q-6.85-7.48-13.7-15c-.7-.77-1.28-1.77-2.36-.46-.84,1-2.92,1.33-1.4,3.54,3.7,5.4,7.47,10.74,11.66,15.77.48.58.79,2,1.87,1.33A62.46,62.46,0,0,0,111.1,251.06ZM197.43,323c.1-1.16-.69-1.28-1.21-1.61-5.56-3.59-11.08-7.24-16.7-10.74-3-1.85-2.74,1.75-4,2.7s.14,1.54.81,1.94q8.38,5.11,16.83,10.11c.89.53,2,1.86,2.79,1.16C196.83,325.68,197,324,197.43,323Zm4.87,13.78c-1.21,1.1-1.2,2.83-2,4.13-.94,1.58-.52,2.35,1.21,3,4.81,1.81,9.53,3.83,14.32,5.71.73.29,2.06,1.26,2.14-.45.08-1.52,2.73-3.22-.13-4.64l-14.19-7.08ZM100.38,259.46c-.46-.58-.81-1-1.18-1.47q-6.29-7.38-11.81-15.36c-.4-.58-.56-2.29-1.93-1-.87.81-2.56,1.17-1.36,3.19,3.3,5.56,6.64,11.08,10.4,16.33.43.6.71,2,1.79,1.43A33,33,0,0,0,100.38,259.46ZM222.52,335c.1-.85-.69-.79-1.16-1-4.58-2.14-9.16-4.26-13.76-6.34-.68-.31-1.79-1.63-2.12.16-.25,1.39-2.82,2.92-.09,4.34,4.1,2.12,8.23,4.18,12.35,6.25C220.65,339.85,222.72,338.38,222.52,335Z" transform="translate(-43.03 -14.06)"/><path class="cls-4" d="M240.31,225.59c-2,4-5.81,6-9.54,8a60.64,60.64,0,0,1-11.88,4.57c-1.45.42-2.06.3-2.07-1.33a18.92,18.92,0,0,0-.53-3c-2.89,5.79-7.68,9.39-12.5,13a139.92,139.92,0,0,1-20.24,12.61c-1.34.68-1.44.51-1.64-.87-.58-4-1.4-8-2.06-12.08-.23-1.42-.73-1.44-1.61-.5q-4.79,5.14-9.57,10.28c-.39.42-.76,1.29-1.28,1-.8-.48.14-1,.4-1.38q6.07-8.73,12.23-17.39a5.08,5.08,0,0,1,.94-.81c0,.35.08.71.13,1.06q1.11,7.91,2.23,15.82c.25,1.72.76,2.42,2.71,1.35,9.67-5.27,18.79-11.22,25.94-19.78a28,28,0,0,0,4.3-7.08c.19-.44.2-1.13.94-1,.54.12.49.65.52,1.09,0,.15,0,.29,0,.44.31,6.69.53,6.72,6.76,3.72a54.55,54.55,0,0,0,13.38-8.94,3.53,3.53,0,0,1,1-.45Z" transform="translate(-43.03 -14.06)"/><path class="cls-5" d="M227.48,329l-.52-.36c.6-5.34,0-10.67,0-16,0-4.39-.17-8.79-.23-13.18,0-.44-.31-1,.32-1.35a7.22,7.22,0,0,1,.48,1.33c.27,1.77,1.37,3.4.88,5.29-1.68-.27-.89,1.06-.9,1.6C227.43,313.9,227.46,321.46,227.48,329Z" transform="translate(-43.03 -14.06)"/><path class="cls-5" d="M49.07,341.86l1.88-3.6.33.1-1.38,6.14C49.63,343.61,50.34,342.42,49.07,341.86Z" transform="translate(-43.03 -14.06)"/><path class="cls-5" d="M173.51,491.51c.05-.14.06-.32.16-.4.87-.79,1.07-2.17,2.31-2.64a7.44,7.44,0,0,1-1.58,3.48Z" transform="translate(-43.03 -14.06)"/><path class="cls-5" d="M233.64,375.86,231.45,373l.5-.49,2.16,2.44Z" transform="translate(-43.03 -14.06)"/><path class="cls-5" d="M174.36,492l-.35.46Z" transform="translate(-43.03 -14.06)"/><path class="cls-4" d="M184.77,82c-.33,2.76-.65,5.51-1,8.27-.24,2-.12,3.43,2.53,2.41,1.85-.71,4-.24,5.8-1.16.28-.14,1.06.09,1.12.29a2,2,0,0,1-.15,1.42c-2.18,3.81-4.41,7.59-6.62,11.38-.17.29-.21.83-.68.57-.19-.11-.24-.67-.18-1A56.26,56.26,0,0,1,187,98c.62-2,0-2.19-1.67-1.69-4.19,1.26-4.15,1.25-4.22-3.08,0-2.27-.27-4.53-.43-6.79,0-.48.24-1.2-.38-1.34-.35-.08-.9.36-1.23.69-3.45,3.41-7,6.77-10.28,10.32-1.8,1.93-2.53,1.29-3.57-.66C162.89,91.2,160.43,87,158,82.86a5.14,5.14,0,0,0-.84-.88c-.15.31-.31.6-.44.92-2.15,5.57-4.4,11.1-6.38,16.73-.58,1.65-1,1.59-2.13.68q-3.73-2.89-7.57-5.63c-.48-.34-1-1.16-1.67-.69-.33.23-.33,1.07-.3,1.62.11,2.41.29,4.82.4,7.23,0,.38.19,1-.46,1-.11,0-.33-.54-.39-.85q-1.48-7.18-2.93-14.36c-.13-.62-.52-1.43.22-1.77s.82.63,1.21,1c3.28,3.16,6.57,6.3,9.84,9.47,1.15,1.11,1.78.64,2.18-.64q3.69-11.7,7.37-23.39c.22-.68.63-1.86.92-1.85,1,0,.83,1.16,1.09,1.85q3.57,9.61,7.06,19.26c.42,1.16,1,1.09,1.76.38,3.41-3,6.84-6,10.25-8.95,1.65-1.45,3.25-3,4.89-4.43.58-.52,1-1.56,1.92-1.24,1.08.39.43,1.54.56,2.35a8.18,8.18,0,0,1,0,1.32Z" transform="translate(-43.03 -14.06)"/><path class="cls-4" d="M102.91,231.4l-2.75-3c1.55-4.53,3.1-9.07,4.67-13.6.15-.44.49-1.19.72-1.18.69,0,.44.79.58,1.23,2,6.13,4.15,12.15,7.55,17.66a1.93,1.93,0,0,0,.25.36c1.23,1.23,2.37,3.22,4.07,3,1.53-.15,1.33-2.53,2.12-3.81.39-.64.14-1.86,1.15-1.89s.78,1.11,1.11,1.71q4.44,8.19,8.77,16.43c.6,1.14,1,1.49,2,.36,2.13-2.31,4.39-4.51,6.63-6.72.45-.44,1.18-1.16,1.52-1,.85.3.42,1.27.44,2,.06,2.86-.15,5.73.45,8.55.1.47-.2,1.21.46,1.29.37,0,.93-.41,1.21-.78,2.39-3.09,5.33-5.65,8-8.45,1.2-1.26,2-1.39,3,.25,3,4.67,6.17,9.24,9.21,13.88.4.62,1.33,1.66.68,2.07-.84.53-1.41-.74-1.93-1.35-3-3.51-6-7-8.85-10.63-.88-1.1-1.4-.86-2.27-.09-2.74,2.42-5.54,4.76-8.3,7.16-1.33,1.15-1.86.59-2.12-.86-.42-2.37-1-4.73-1.29-7.12-.23-1.67-.81-1.24-1.58-.44-1.58,1.64-3.16,3.28-4.7,5s-2.55,2.26-3.87-.28c-2.45-4.73-5.16-9.33-7.78-14-.26-.46-.43-1.3-1.18-1-.27.11-.25.89-.39,1.35-.44,1.53-.79,3.1-1.36,4.58s-1.36.45-1.93-.08c-3.76-3.49-6.26-7.87-8.56-12.37-1.13-2.21-2.12-4.48-3.19-6.72a3.31,3.31,0,0,0-.35-.49,2.94,2.94,0,0,0-.51.82C104.06,226,103.49,228.69,102.91,231.4Z" transform="translate(-43.03 -14.06)"/><path class="cls-4" d="M104.43,120.15c1.46-.25,4.26.63,4.51-.39.36-1.43-2.38-1.82-3.46-3-.36-.41-1.25-.48-1-1.25s.86-.91,1.52-1.14c9.34-3.23,17.39-.17,25,5.09.29.2.7.63.31.83s-.95-.11-1.35-.34c-3.62-2.05-7.13-4.28-11.41-4.82a21.45,21.45,0,0,0-8.28.32c-1.51.4-2.11,1-.73,2.33a3.83,3.83,0,0,1,.61.91c.61,1.07,2.66,2,2.11,2.74-.8,1.07-2.74.91-4.26,1-.51,0-1,0-1.54,0-1.51.13-3.79-.7-4.34.39s1.9,1.5,2.66,2.58a7.28,7.28,0,0,1,.53,1.1,4.47,4.47,0,0,1-1,.33,39.51,39.51,0,0,0-21.08,7.82c-.31.24-1,.45-1.16.31-.55-.57.16-.88.47-1.21a28,28,0,0,1,12.69-7.86c.62-.18,1.74-.06,1.65-1-.07-.77-1-.58-1.67-.68-.94-.15-1.86-.38-2.79-.61-.68-.17-1.35-.4-2-.6.43-.89,1.39-1,2.14-1.24A37.29,37.29,0,0,1,104.43,120.15Z" transform="translate(-43.03 -14.06)"/><path class="cls-6" d="M208.12,113.08a16.88,16.88,0,0,1,8.53,1.63c1.39.68.84,1,.18,1.62-.11.1-.26.15-.37.24-1.37,1.1-3.29,1.5-4.13,3.27,1.7.66,3.47.3,5.19.26a32.47,32.47,0,0,1,12.72,2.09c.33.13.85.3.88.51.09.6-.55.59-.92.68-1.49.35-3,.61-4.5,1-.38.09-1,.4-1,.62,0,.62.64.35,1,.48,5,1.81,9.67,4.15,13.27,8.22.29.33,1,.64.47,1.21-.14.14-.86-.07-1.16-.31-6.22-4.94-13.42-7.2-21.23-7.83-.31,0-.59-.3-.89-.46a9.61,9.61,0,0,1,.92-1.16c.94-.88,3.22-1.24,2.86-2.28-.43-1.22-2.48-.35-3.82-.47s-2.93.1-4.36-.41c-.87-.31-2.29.47-2.6-.52s1.2-1.62,1.85-2.43,2.14-1.61,1.63-2.82-2.06-1.24-3.29-1.34a24.72,24.72,0,0,0-13.78,2.81,7,7,0,0,1-1.84.4c0-.85.77-1,1.26-1.31C199.17,114.5,203.45,112.61,208.12,113.08Z" transform="translate(-43.03 -14.06)"/><path class="cls-7" d="M165.92,175.82a12.63,12.63,0,0,1-9.79-5.55c-1.28-1.72-.61-3.38,1.48-3.52a81.47,81.47,0,0,1,16.48.14c2.36.33,2.61,1.67,1.23,3.37C172.83,173.3,169.82,175.52,165.92,175.82Z" transform="translate(-43.03 -14.06)"/><path class="cls-8" d="M170.75,206.7c-10.21-.19-18.49-2.3-25.8-7.52-.73-.52-2.25-1-1.28-2.26.82-1,1.66.13,2.4.65,8.8,6.21,18.69,7.74,29.16,6.75,1.31-.12,2.6-.43,3.91-.61.72-.1,1.63-.25,1.8.73s-.78,1.16-1.46,1.24C176.14,206.11,172.78,206.47,170.75,206.7Z" transform="translate(-43.03 -14.06)"/><path class="cls-9" d="M112.7,156.33a3,3,0,0,1-3.24,3.18,3.48,3.48,0,1,1-.24-7C111.23,152.58,112.68,153.65,112.7,156.33Z" transform="translate(-43.03 -14.06)"/><path class="cls-9" d="M214.62,155.71a3.51,3.51,0,0,1,7,.55,3.19,3.19,0,0,1-3.84,3.23C215.58,159.28,214.6,157.93,214.62,155.71Z" transform="translate(-43.03 -14.06)"/><path class="cls-6" d="M192.22,119.92a7,7,0,0,1-1.2.43c-.14,0-.31-.17-.47-.27a3.21,3.21,0,0,1,.5-.64C191.11,119.39,191.37,119.57,192.22,119.92Z" transform="translate(-43.03 -14.06)"/><path class="cls-6" d="M192.85,118.93c-.13,0-.28.15-.37.11s-.1-.22-.15-.34c.12,0,.27-.16.35-.12S192.79,118.8,192.85,118.93Z" transform="translate(-43.03 -14.06)"/><path class="cls-10" d="M152.6,316.7l-.88-.59c-6.31-4.29-12.37-8.92-18.32-13.7-1-.8-.91-1.3-.23-2.28,3.89-5.6,3.82-5.57,9.13-1.52q7,5.34,14.18,10.43c1.25.88,1.27,1.44.37,2.53-1.12,1.35-2.06,2.85-3.1,4.27C153.48,316.21,153.34,316.82,152.6,316.7Z" transform="translate(-43.03 -14.06)"/><path class="cls-11" d="M194,332.81c-.71,2-1.35,4-2.1,5.89-.37.93-1,.21-1.45,0q-11.68-5.7-22.85-12.36c-1-.58-1.12-.93-.41-2,3.84-5.54,3.78-5.52,9.5-2.11,5.23,3.12,10.53,6.13,15.79,9.21C193.06,331.81,193.87,332,194,332.81Z" transform="translate(-43.03 -14.06)"/><path class="cls-11" d="M107,267c.43.39.82.71,1.17,1.07,5.22,5.47,10.58,10.8,16.32,15.73,1.18,1,.9,1.61.08,2.63-3.88,4.83-3.86,4.86-8.22.53-4.53-4.5-8.77-9.27-13-14.08-1.34-1.54-1.34-2.42.4-3.47A37.36,37.36,0,0,0,107,267Z" transform="translate(-43.03 -14.06)"/><path class="cls-12" d="M134.69,273.63c-1.94,2.38-3.5,4.32-5.12,6.2a2.78,2.78,0,0,1-1-.59c-5.33-4.84-10.48-9.87-15.39-15.14-.84-.9-.68-1.32.17-2,4.62-3.92,4.59-3.94,8.95.25q5.4,5.19,10.84,10.35A9.22,9.22,0,0,0,134.69,273.63Z" transform="translate(-43.03 -14.06)"/><path class="cls-12" d="M165,300.06a34.27,34.27,0,0,1-3.44,4.66c-1,1-1.8-.51-2.5-1-5.67-4.2-11.25-8.53-16.92-12.73-1.27-.94-1.21-1.56-.34-2.76,3.33-4.58,3.24-4.57,7.62-.92,4.69,3.91,9.45,7.73,14.18,11.59C164,299.22,164.48,299.61,165,300.06Z" transform="translate(-43.03 -14.06)"/><path class="cls-11" d="M111.1,251.06A62.46,62.46,0,0,1,106,255c-1.08.68-1.39-.75-1.87-1.33-4.19-5-8-10.37-11.66-15.77-1.51-2.21.56-2.52,1.4-3.54,1.08-1.31,1.66-.3,2.36.46q6.84,7.49,13.7,15Z" transform="translate(-43.03 -14.06)"/><path class="cls-13" d="M197.43,323c-.41,1.06-.6,2.69-1.51,3.55-.74.7-1.9-.63-2.79-1.16q-8.46-5-16.83-10.11c-.66-.41-2.25-.89-.81-1.94s1.07-4.55,4-2.7c5.61,3.5,11.14,7.14,16.7,10.74C196.74,321.71,197.53,321.83,197.43,323Z" transform="translate(-43.03 -14.06)"/><path class="cls-13" d="M202.3,336.77l1.38.68,14.19,7.08c2.86,1.43.21,3.12.13,4.64-.09,1.7-1.41.73-2.14.45-4.78-1.88-9.51-3.9-14.32-5.71-1.73-.65-2.15-1.43-1.21-3C201.1,339.6,201.09,337.87,202.3,336.77Z" transform="translate(-43.03 -14.06)"/><path class="cls-14" d="M100.38,259.46a33,33,0,0,1-4.08,3.11c-1.09.6-1.36-.83-1.79-1.43-3.77-5.25-7.11-10.78-10.4-16.33-1.2-2,.48-2.39,1.36-3.19,1.37-1.26,1.53.44,1.93,1q5.53,8,11.81,15.36C99.57,258.42,99.92,258.88,100.38,259.46Z" transform="translate(-43.03 -14.06)"/><path class="cls-14" d="M222.52,335c.2,3.38-1.87,4.84-4.77,3.39-4.13-2.07-8.25-4.13-12.35-6.25-2.74-1.42-.17-2.95.09-4.34.32-1.79,1.44-.46,2.12-.16,4.6,2.07,9.18,4.2,13.76,6.34C221.83,334.21,222.63,334.16,222.52,335Z" transform="translate(-43.03 -14.06)"/></g></g></svg>