<svg xmlns="http://www.w3.org/2000/svg" viewBox="0 0 627.01 326.88"><defs><style>.cls-1{fill:#0c0c0c;}.cls-2{fill:#181817;}.cls-3{fill:#10100f;}.cls-4{fill:#111110;}.cls-5{fill:#dcddd8;}.cls-6{fill:#dedfda;}.cls-7{fill:#5e5d5b;}.cls-8{fill:#dadbd6;}.cls-9{fill:#cdceca;}.cls-10{fill:#d5d6d1;}.cls-11{fill:#5c5b59;}.cls-12{fill:#c1c2be;}.cls-13{fill:#862c27;}.cls-14{fill:#0e0e0e;}</style></defs><title>Asset 1</title><g id="Layer_2" data-name="Layer 2"><g id="Layer_1-2" data-name="Layer 1"><path class="cls-1" d="M.55,118.75C-2.12,102,5.27,88.85,15.26,76.55c.86-1.06,3.28-1.91,1-3.87-.15-2.24-1.53-3-3.56-2.94-2.17-1.83-1.27-3.25.39-4.91,4.45-4.46,10.08-7,15.57-9.72a11.4,11.4,0,0,0,6.67-7.94c2-7.63,7-9,13.06-3.9.94.8,1.45.32,2.08-.06,7.77-4.72,16.65-6.56,25-9.68,2.06-.77,4.26-1.75,4.13-4.38-.38-8,5.19-7.85,10.61-8,.89,2.1,2.71,3,4.7,3.65.81,4.59,3.38,4.62,6.84,2.73,1.68-.92,3.51-1.57,5.28-2.34,1,2,1.69,1.57,2.19-.29,21-5.91,42.43-9.77,64-13.05,2.45-.37,3.79-1.2,3.74-3.46-.09-4.72,3.19-5.19,6.6-5.64,4.11-.54,4.6,2.67,5.14,5.35s1.94,2.79,4.21,2.71c13.93-.47,27.86-.95,41.79-1,3.71,0,4.75-1.15,4.48-4.51C239,2.76,238.6.09,242.53,0c3.48-.07,6.23.46,7,4.58.5,2.51-.49,6.78,4.71,5.22.34,1.74,1.42,2,2.89,1.41,20.82,2.63,41.66,5.12,62.45,8,11,1.49,21.8.33,32.7-.34.8,1,1.46.77,2-.23,9.11-1.24,17.81-4.76,27.43-3.24C391,16.81,398,21.76,404.2,28c4.4,4.38,8.1,6.63,12.86.66,2.83-3.55,6.88-4.37,11.25-3.82q1.47,1.76,3,0c9.24.55,15.43,5.73,19.55,13.5a51.26,51.26,0,0,1,6,25,23.82,23.82,0,0,0,.74,4.34l-5.17,1.13c-.15-2.64-2.41-4.79-.27-8.13,1.07-1.68,2.07-8.26-4.82-6.77l0-2.14c4.38-1,2.93-3.8,2.11-6.5-1.18-3.86-2.89-1-4.37-.37-.89.37-1.78,1.25-2.61.16s.19-1.66.9-2.36c1.23-1.21,4.46-1.47,2.66-4.29s-3.21-6.1-7.51-5.25l-1.36-1.4c-2.46-3.62-6.24-2.79-9.74-2.91-2.19-.15-3.87.39-4,3h-1c-.51-.55-1.18-1.66-1.51-1.57-3.91,1.11-6.89,8.59-5.05,12.39-.75,2.14-4.51,1-4.42,4-4,7-2.95,11.51,3.17,13l-.18,1.15c-4.37.1-5.73,2.1-3.88,6.14,1,2.16-.36,5.86,3.9,5.82l.17,2.45a2.82,2.82,0,0,0,1.87,3.62c.66,3.07,3.66,5.6,5.53,5.32,2.55-.38.86-4.17,1.44-6.41a21.27,21.27,0,0,0,.31-3.9,3,3,0,0,0,0-4.41c-1.42-1.49-2.49.59-3.74,1.16a31.43,31.43,0,0,1-3.65,1.19l2.34-3.83c2.26-2.17,2.86-4.07-.9-5.16-1.31-.38-3.06.09-3.39-2l.92-1.11q.45,0,.91-.06l6.52-.27q.25.34.54.65c-.09,2.32.26,4.55,3,4.92,3.72.5,6.3-1.73,8.47-4.36,1.43-1.74.62-3-1.27-3.84-3.93-2-8.42-8.39-10.79,1.42-6.08,0-2.49-4.19-2.91-6.65,1.44.35,2.41,0,2.59-1.66l1-8,1.92-1c1.3,2.54-2.7,7.13,3.07,7.93l1.11,0a3,3,0,0,0,2.95,2.35l2.81,2.69c1.8,1,3.32-.53,5-.54l.45,2.26c-1.09,3.31-.48,5.26,3.5,5.95,2.41.42,7-.72,6.66,2.72-.19,1.94-4.89-.24-7.54-.12s-6.73-3.52-7.79,2.32l-.2,2.57-1-.45c-1.06-1.24-2.13-2.78-3,.14-1.11.19-1.88.72-1.91,2-2.73.62-.91,2.82-1.47,4.2-1.58,4.5-4.44,8.9-1.12,13.8a2.94,2.94,0,0,0-2.71,2.8c-5.52-1.61-9.38-5.36-12.69-9.81-.36-.45-.8-1.33-1.07-1.28-1.32.23-.84,1.46-1,2.32-2.1,2.61-2.93,0-4.16-1A57.82,57.82,0,0,0,407,74.41c.17-1.17-.75-3.58-1.05-3.56-1.66.1-1.16,1.86-1.53,2.95-.78,2.27-1.43,4.58-2.14,6.87a6.44,6.44,0,0,1-2.14-.76c-1.12-1,1.64-3.8-1.24-3.65-2.42.13-3.94,2.44-4.43,4.84-.6,3,.72,5.42,2.59,7.72,3.72,4.57,9.19,5.64,14.32,7.42l0,3.22c-7.16-.94-13.49-3.49-18.05-9.41-4-5.19-4-13.18,1.34-15.3,8-3.18,7.48-9.71,9-15.83,1-3.82,0-4.85-3.93-4.75q-37.19.89-74.39,1.31c-5.26.06-10.47-.76-9.42,7.28.15,1.12-1,2.4-1.53,3.62-.31.72-.58,1.45-.87,2.18a10.43,10.43,0,0,0,2.42,0c3.06-.66,6-1.87,9.08.32q30.55,22,61.17,43.94c-.11,2.08-1.43,2.85-3.29,3Q354,95.4,325.12,74.92c-2.09-1.48-4-2.67-6.82-2-15.53,3.77-31.1,7.36-46.64,11a17.75,17.75,0,0,0-2.72,1.13A20,20,0,0,0,271.1,87c6,3.94,12,7.84,18,11.75l97.41,63.59a5.05,5.05,0,0,1-4.85,2.32l-3.48-.95c-1-2-2-3.81-4.74-2.94l-2.54-3.06-3.65-1.62a.9.9,0,0,0-.79-.08l-1.55-1.31c-.43-2-2-2.45-3.71-2.56l-2.15-.36c-.4-3-2-4.15-5-3.11l-2-.34c.79-3.08-1.72-4-3.57-5.23-10-6.56-20.1-13-30.14-19.56-17.85-11.6-35.74-23.15-53.49-34.9-2.44-1.62-4.63-1.68-6.1.23-2,2.67,1.49,3,2.64,3.93q40.08,31.39,80.36,62.52c1.42,1.1,2.86,4,5.16.92,2.35,1.6,1,6.33,5.28,6.3l1.7,1.16c1.68,2.35,1.68,2.35,6-2.16l1.5,1.36c-1.78,1.93-2.81,4.1-2.18,6.81l-2.81,2.93q-51.9-40.17-103.78-80.35c-.63-.49-1.55-1.26-1.52-1.86.19-3.67-2.27-3.15-4.58-3.23-11.32-.35-22.61-1-33.41-4.93-1.24-.45-2.35-1.09-3.58.28-2.54,2.82-6.16,3.74-9.53,5.06a2,2,0,0,0-1.81,2c-2.52-.07-4.92-.29-4.93-3.7a43.64,43.64,0,0,0,5.22-2.78c1.66-1.18,5.71-1.13,4.59-3.58-1.3-2.84-4-6.05-7.87-5.95s-7,1.92-7.19,6.5c-2.78-3.76-6.29-2.38-9.74-1.38l0-3.05,11.91-4,1.66-1.09-1.41-.93c-8.05-6.71-16.71-6.16-25.69-2.19a9,9,0,0,1-2.43.34L160,64l15.19-4.31c1.2-.11,2.93.38,2.8-1.63-.1-1.59-1.63-1.18-2.69-1.3a1.82,1.82,0,0,0-2,1.88l-5-.13,1-4.56a80.39,80.39,0,0,0,8.83-1.28c1.88-.47,4.61-1.23,2.17-4.24q0-.34,0-.68.5,0,1,0h2l3.13-1q.43,0,.87,0l2-1.94.47.16-.35-.28c-2.92-4.78-4.21-.23-6.07,1.06l-2,1-1.16-1.07c1.13-1.08,3.15-2,1.79-3.9-1-1.38-2.39,0-3.52.38-2.17.67-4.26,1.6-6.38,2.42a82.54,82.54,0,0,1-19.29.24c-3.26-.41-2.62.89-.83,2.41-1.41,3.62-3.72,2-4.08,0-.54-3.07-1.94-6.79,1.5-9.4,1.2,2,2,4.1,5,4.44a50.86,50.86,0,0,0,24.82-3.76c.68-.27,1.67-.93,1.71-1.46.08-1.3-1.2-1.21-2.14-1.49-3.89-1.17-8.07,1.36-11.85-1-.4-3.62,2.7-2.37,4.07-2.43a14.21,14.21,0,0,0,8.1-2.57l2.44,1.26-1.13,1.67c.44,1.06,1.32,1.19,2.31,1.11a34.87,34.87,0,0,0,11.82-1c-.62,4.09-3.89,3.46-6.6,3.55-2.19.07-3.16,1.32-3,3.1.14,2.32,2.22,1.64,3.49,1.39,2.76-.54,5.44-1.43,8.16-2.18l6.3-1.9c2.59.59,5.17,1,7.49-.83,2-.28,2-1.26.89-2.57-.59-.68-1.52-1.87-1.95-1.73-1.62.52-.7,2.15-1,3.29-1.32,1-1-1-1.82-1-3.12-3.37-5.46,1.15-8.28.82q0-1.48,0-3c1.57-1.16,5.26-.6,4.7-3-.48-2-3.82-1-5.84-.76-3.93.37-7.83,1.08-11.74,1.65L185.4,27c7.5-1.46,15.08-4.35,22.42.33,2.47,1.58,1.71-2.14,3.29-1.63l2.18.07c.41,2.08,1.35,2.6,3,1l1,0,2.39.12,6.43.48c-2.62,5.11-7.19,1.92-10.86,2.5-1.07.17-2.57-.57-2.84,1s1.35,1.47,2.38,1.84c4.66,1.67,9.06-.13,13.54-.95,3.77,0,7.61.43,11-1.74,1.28-.81,1.95-2.11,1.21-3.33s-1.6.32-2.44.51l-9.57,2.2-2.42-2.11,7.53-2.06c-4-2.05-8.78,1.55-12.73-1.75,6.73-3.13,13.66-2,20.53-.75,2,.38,2.66,2.37,2.25,4.39-.6,2.95.28,3.92,3.5,3.89a127.09,127.09,0,0,1,38.87,5.19,14.93,14.93,0,0,0,8.8-.1c10.18-3,20.43-5.75,30.65-8.6a13.33,13.33,0,0,0,8.15-2.56c-2.46-2.5-5.46-.64-8.19-1a3.34,3.34,0,0,0-1,.15q-32.49-4.37-65-8.77a8,8,0,0,0-5.72,1.24c-3,1.78-7.46,3.74-10.36-1.17,2,1.14,3.75-.31,5.6-.64a15.75,15.75,0,0,1-2.37-3c-.55-1.16-.51-2.57-.89-3.82-.32-1-1.1-2.92-1.29-2.87-1.89.47-.65,2.06-.7,3.08A6.8,6.8,0,0,1,241,13.58l-1.72,2.52c-1.81-.43-2.46-2.54-5-2.42-8.79.4-17.62.05-26.42.25-6.73.15-14.44-2.25-18.48,6.15L189,18,183.31,6.77c-2.65-.31-3.14,1.54-2.92,3.4.44,3.61-1.53,4.95-4.56,5.55l-2.6,0c-10.11.77-20,2.88-29.85,5.16-14.83,3.43-30.08,5.34-44,12.11l-.22.61c-.48.35-1.4.75-1.37,1,.17,1.39,1.43.88,2.29,1.06-2.55,4.5-7.58,4.4-11.58,6.19a2.11,2.11,0,0,1-2.93-1.19c-1.16-5.65-5.13-3.93-8.42-3.15-4.66,1.1-9.22,2.63-13.8,4.06-6.21,1.94-12.17,4.08-8.06,12.67a6.29,6.29,0,0,1,.07,2.42l-3.18,0c.82-4.75,0-8.28-6-7.88l-1-2.13c-.34-5.42-3.78-2.39-4.62-1.09-1.53,2.39-3,5.67-2.52,8.22.38,2.1,4,.51,6.14.94,1.6,1.28.38,4.3,3,4.92l0,2.07c-2.35,2.23-3.79,1.33-4.55-1.4-.43-1.53-.87-2.66-2.87-2.65C30.51,57.76,22.6,61,16.24,68l.79.85c2.69,1.15,4,4.38,8.09,3.63,18.14-3.28,36.36-6.18,54.6-8.87,6.43-.95,12.35-2.26,16.2-8.08,3.41.85-1.29,5.32,1.51,4.9,4.51-.67,10.07,1.13,13.37-3.92l1.91,2.26,30.48-2.21,3.08,4C105.2,63.47,64.74,70.8,24.15,77.29a10.65,10.65,0,0,0-6.91,3.94C5.2,94.77,3,110.3,7.07,127.42c1.15,4.89,3.23,6.43,7.57,4.13,7.63-4,15-8.54,22.76-12.4,3.45-1.72,4.95-3.87,5.07-7.64C42.78,101.9,45,93.68,57,93.23c.89,0,1.76-.84,2.63-1.28,7.22-2.8,7-10.24,9.87-15.78,2.6-.48,4.83-2.82,7.78-1.56l.14,1.76c-6.23-.09-6.34,5.56-8.49,9.21-.75,1.27-2.61,2.86-1.24,4.22.58.57,2.95-.66,4.5-1.08l3.19-1c6.35-.18,5.54-6.47,8.27-9.74.51-.61.74-1.77-.34-2-3.5-.79-3.95,3.64-6.76,4.15-.3.05-.55.34-.83.53l1.61-6.08c12.14-4,24.69-6.13,37.26-8.06,3.4-.52,3.78,2.13,3.45,4.61-.56,4.22,1.08,4.55,4.69,3.48,11.46-3.37,23-6.44,34.53-9.63L158.39,69c-9.23,2.74-18.46,5.51-27.7,8.21-2.26.66-3.9.92-3.53,4.41.48,4.43-3.53,6.39-7.2,6.84s-8.47,2.33-10.33-2.92c-1-2.9-2.4-1.49-3.74-1.11Q85.23,90.28,64.61,96.24c-4,1.15-7.83,2.58-11.74,3.88,3.65,1.91,7.56,3.45,10.89,5.82,7.28,5.17,14.38,4.62,22.38,1.47,11.59-4.56,23.57-8.13,35.37-12.15q26.89-9.17,53.77-18.38v3c-2.78,1.06-5.55,2.15-8.35,3.16-10.35,3.74-10.18,3.68-6.86,13.91,1.08,3.33,2.17,3.55,5.09,2.1,7.44-3.68,15-7,22.59-10.49,2.92.44,6.09.51,6.55,4.52-6-1-10.89,1.92-15,5.45-31.83,27.56-63.47,55.35-95.19,83-1.62,1.42-2.49,2.35-.3,4.21,8.62,7.33,17.12,14.79,25.58,22.3,2.5,2.22,3.65,2.27,5.17-1.17a43.28,43.28,0,0,1,24.95-23.7c11.75-4.58,23.2-3.4,34.71-.07,3,.86,4.1.07,5.42-2.35,2.94-5.39,6.17-10.62,9.28-15.92l.6,7.55-3.66,8.35c-1.84,1.77-4.23,5-2.37,6.23,5.51,3.77,8.4,10.71,15.7,12.31,17.17,3.78,34.62,3.9,52,4.37l-3,3.1A214.74,214.74,0,0,1,203.61,204c-1.68-.29-4.64-2.68-5.35.29-.54,2.27,1.78,4.14,4.58,5q46.85,14,93.63,28.28c2.48.75,3.88,1,4.83-2.39,1.67-6,5.7-9.26,12.6-8.77,7.77.55,15,2.84,22.15,5.52,2.5.94,4.23,2.71,3.35,5.79-1.72,1.73-.24,1.81,1,2q17.17,4.31,34.35,8.6a17.51,17.51,0,0,0,2.91.23,14,14,0,0,0-1-1.92c-4.4-6.18-3.27-11.8,3.72-15,10.19-4.71,20.69-4.44,30.94,0,3.66,1.59,6.06,4.37,6.12,8.88s-2.77,7-6.2,8.84c-5.13,2.77-10.81,3.1-16.51,3.16l-4.07-.71-.23.84,4,1,78.77,20.56,1,3.47c-.81-.14-1.64-.22-2.43-.42q-65-16.77-130-33.52c-2.14-.55-4.81-2.61-6.06,1.45-1.33,4.34,2.4,3.72,4.35,4.25,26.47,7.24,53,14.27,79.46,21.49,27.91,7.6,55.78,15.34,83.66,23-.44,3.06,4.41,2.28,3.91,5.38-10.47-2.71-21-5.34-31.41-8.16-45.64-12.29-91.24-24.75-136.91-36.93Q283.64,239.41,229.2,222c-.15-1.52-.41-2.78-2.05-.91l-3.86-.25a40.92,40.92,0,0,0-5.09-1.84c-5.19-1.16-9.93-4.29-15.54-3.63,1.15,5.73,4.3,10.55,7.07,15.55,1.65,3,3.91,5.92,4.8,9.17,1.4,5.11,5.65,6.53,9.15,5.7,13-3.09,24.72,1.53,36.35,5.47,5.43,1.84,10.14,5.72,16.34,6,11.39.51,22.81,1.09,31.65,10a4.76,4.76,0,0,0,3.8.72c10.75-2.4,20.29,2,30,5.28,36.59,12.26,72.86,25.48,109.84,36.54,19.76,5.91,39.77,10.85,60.52,11.72,2.2.09,5.1-.24,6.53-1.58,3.32-3.14-1.76-17.88-6.38-19.44-.5-2.07-3.51-2.66-3.09-5.26,8.86,4,16.64,1.95,23.79-4.13,1.25-1.06,2.92-1.62,4.25-2.61,2.07-1.55,6.55-2.88,5.86-4.43-1.08-2.42-4.66-3.79-7.26-5.46-2-1.29-3.38.63-5,1.29-5.9,2.45-10.73,9-17.33,7.78-11.57-2.08-22.84-5.87-34.23-8.94q0-1.51,0-3c7.74,1.91,15.89,2.86,23.12,6,10.73,4.6,18.78,0,27.19-5.21a3.69,3.69,0,0,0,1.84-3.73c-.08-1.84-1.75-1.66-2.9-2.18-4.69-2.12-9.64-3.83-14-6.5-19.28-11.86-39.42-22.16-59.74-32-23-11.13-47.1-20.17-70.15-31.29-10.1-4.87-19.47-5.72-29.86-3-3,.8-3.12,1.75-2,4.32s3.53,6.56.51,8.17c-5.23,2.78-10.62,8.4-17.49,2.59-2.64-2.24-4.76-2.64-4.22,2.29.4,3.71-2.52,5.59-5.49,6.93-6.63,3-13.6,3.06-20.56,1.68-4.93-1-10.17-2.28-11-8.43s4.2-8,8.71-9.86l14.93-1.23c-5.2-3-10.1-.16-14.95-.09l-3.83.18-.09-3.38c.82-.11,1.65-.19,2.47-.32L312.45,199c-1.35-3.23-4.83-4.24-6.94-6.66-1.3-1.49-2.36-3.21-3.52-4.82-.16-3.13-.72-6.34,1.82-8.91,6.35,5.41,14.23,7.9,21.64,11.27,1.24,1,2.44,2.1,3.73,3.06,2.47,1.86,4.92,1,7.26-.27,1.95-1,.61-2.06-.14-3.05l.1-3.15,7.66,3.88c1.28,2.18,2.88,4.72,5.49,4.42,7.69-.9,15.55-1.38,22.71-4.77,2.16-1,4-2.64.32-4.36L368.51,182c1.43-.34,3.28.09,3.76-2,6.26-1.17,4.61-8.07,8.12-11.22l2,2c-1.35,3-2.63,6.09-4.08,9.06-.85,1.73-1.11,2.84,1.09,3.87,17.78,8.35,35.5,16.83,53.26,25.22.83.39,2.73,1.62,2.32-.62-.79-4.3.53-9.19-4.72-12.27-8.3-4.88-16.12-10.56-24.14-15.9l.24-4.71c9,5.69,18,11.29,26.93,17.14,2.52,1.66,4.5,1.93,7.27.53,8-4,16.12-8,24.41-11.47,5.38-2.25,5.23-3.5.58-6.78-26.65-18.83-53.1-37.94-79.61-57l2.42-3.38c14,9.83,28,19.72,42.05,29.44,3.51,2.43,6.51,5.74,10.87,6.84,4,6.07,6.91,5.45,11.86,0,4.57-5,3.81-6.83-1.52-9.08l-7.35-6.91-1.36-2.14q.24-1.29.49-2.58l1.87,2.64c6,4.41,11.87,8.91,17.94,13.18,1.62,1.14,4,3.49,5.48,1.93,1.58-1.71.46-4.84-.86-7-.82-1.31-2.56-2-3.72-3.13-1.38-1.34-4.18-1.7-3.44-4.63,4.29.25,6.46,3.9,9.6,6,2,1.36,4.94,1.4,5.95.07,1.29-1.7-1.43-3.05-2.78-3.86-5.23-3.12-10.29-6.66-16.29-8.24-1.25-.33-3.27-1.62-3.52,1.28-2,1.72-4.22-.41-6.27.4l-3.08,0c4.93-6.41,11.5-7.66,19-6,2.83,3.73,5,4,6.45-1.07.88-3.2,2.28-6.28,2.88-9.52,1.58-8.57,3.46-17.2-.49-25.69-3.24-6.54-10-9.59-14.65-14.72a3.19,3.19,0,0,1,2.11-3.16,70.7,70.7,0,0,1,21.72,22.89c2.26,3.88,5.21,5.91,10.12,5.64,6.16-.34,12.93,6.17,12,13.32-1.3,10.23,6.28,13.85,11.76,18.8,5.11,4.62,10.66,9.12,17.24,11.72,5.3,2.1,4.47,8.13,7.92,11.44q32.75,31.48,65.31,63.16c6.54,6.37,12.67,13.16,19.17,19.58a6.39,6.39,0,0,1,2.1,4.74c.58,13.53-4.66,22.68-17,29.83-17,9.87-30.81,4.85-44.49-5.38a73.58,73.58,0,0,0-21.83-10.73c-21.11-6.8-37.22-21.61-55.13-33.51-3.37-2.24-3.15-8.1-8-9.45a20,20,0,0,0-3.39-2.72c-2.37-1.19-5.73-4.62-7.1-2.48-1.6,2.5,2.91,3.76,4.9,5.43,1,.83,2.13,1.48,3.2,2.22,8.25,10.21,8.17,10.38-7.88,18l-2.89,1.1,1.67,1.21c21,10.42,40.43,23.69,61.91,33.19,2.46,1.09,4.55,1.87,4.87,5.39s4.42,4.18,7,5.55a12,12,0,0,1,7,9.59c.55,3.59,1.07,7.58,3,10.48,4.94,7.52,1.08,11.36-5,14.91-2,1.16-3.76,2.69-5.62,4.06l-3.94,1.15-2-4c15.31-8.11,15.25-8.15,10.46-20.35-1.22-3.12-2.77-3.33-5.23-1.83-5.1,3.13-10.18,6.31-15.29,9.41a4.31,4.31,0,0,0-2.1,3.67c-1.12,10.64-.07,11.73,10.19,10.27l2,3.89-1,1c-3.91,1.46-8.48.63-11.14,6-.93,1.87-7.83.86-12,1-17.87.72-34.85-4-51.83-8.63-38-10.25-74.71-24.18-112-36.61-8.67-2.89-17.27-6.38-26.19-8-8.39-1.51-16.85-.3-24.27-6.93-5.68-5.07-14.19-2.91-21.5-3.75a52.74,52.74,0,0,1-17.49-5.51c-10.2-5-21.65-9.42-33.85-5.85-.47.14-1.11.32-1.46.12-8.08-4.81-6.37,2-7,5.91-3.19,20.17-19.8,30.29-39.64,24.61-9.1-2.61-18.39-5.19-27.76-6.07-12.1-1.14-20.64-7.23-28.54-15.58-15-15.82-30.87-30.74-45.59-46.87-7-7.66-17.58-11-28-13.06-10-1.92-16.47-8.22-21-16.88a47.66,47.66,0,0,1-3.82-9.22c-2.23-8.15-5.14-15.52-13-20.32-4.65-2.85-5.2-8.23-4.9-13.43,1.22-1.42,1.4-2.76-.28-4l-2.71-14C2.62,121.06,3,119.6.55,118.75Zm171.71,105-.87-1.12a22.56,22.56,0,0,0-7.13-7.84c-1.12-3.67-7.39-5.39-5.32-9.63,2.15-4.4,7.82-2.33,11.89-3.31,1.6-.38,3.36-.08,5-.47,3.11-.76,5,.57,6.42,3.12.95,1.89,1.88,3.79,2.85,5.67.52,1,1.14,2.65,2.35,2,1.39-.8.08-2.15-.61-2.87-2.14-2.22-2.48-4.94-2.6-7.78-.66-2.77,7.58,1.82,3.1-3.31-15.68-18-47.34-17.52-62.37.95-5.14,6.31-9.92,13.35-8.81,22.4-3.85,6.7-.74,13.32.14,20,.55,4.14,2.66,6.07,6.66,7.46,12.7,4.4,25.27,9.19,37.75,14.17,7.3,2.91,16,3.8,19.84,12.46.43,1,2.07,1.69,3.29,2,11.5,3.13,26.1-7.3,27.07-19.25,2.35-6.27-.07-12.1-1.88-17.9-1-3.22-6.35-4.23-6.86-4-9.67,4.94-22.49,5.89-26,19.16l-3.34,0c1.31-2.93.36-4.77-2.3-6.61-10-6.92-19.69-14.21-29.66-21.13-2-1.37-4.79-5.87-7-.89-1.71,3.91-6.12,9.06,1,12.67q17.16,8.65,34.31,17.34l-.1,3.24c-10.65-3.45-19.9-9.92-30.16-14.13-8.15-3.34-14.5-7.14-10.74-17.49,3.26-3.45,3.69-12.16,11.91-6.41L151.59,231c.81.62,1.73,1.3,2.54.25.16-.2-.64-1.42-1.22-1.88-4.16-3.3-8.37-6.52-12.57-9.77-2.75-3.51-1.83-5.79,2.21-7.39a42.48,42.48,0,0,0,7-3.61c3-1.88,5-1.68,7.54,1.19,1.91,2.17,3.24,5.8,7.23,5.48a.4.4,0,0,0-.08.6l1,.86c.67,3.16,3.52,4.49,5.5,6.55.48.34.82,1.28,1.58.36l.09,1.45.64-.39Zm21.11-3.13-1-1-1-2-.58-.32.31.58,1.06,2,1,1,1,2,.54.32-.31-.55Zm7.92,12.1c-.27-.45-.66-1.32-.79-1.28-.76.22-.9.73-.21,1.28.42.57.48,1.67,1.66,1.13Zm122-28-1.27.5,1.27.53,1.15.63C325,205.24,323.86,205.17,323.29,204.75Zm157-93-.38-.21.38.21-.43,4.22c-1.62,1.06-2.6-3-4.5-.48-5.85,7.93-2.64,18,6.93,21.43.27,1.14-.57,3.34,1.12,3.16,2.78-.29,1.59-3,1.85-4.73.13-7-1.14-13.52-5.32-19.29,2.4-.05,3.49-1.46,3.78-3.68a4.41,4.41,0,0,1,4,4.08c-1.15.39-2.84-.06-3.08,1.74,0,.37.73,1.23,1.12,1.22,1.87,0,1.44-1.85,2-2.89,4.47,4,3.63,9.57,4.19,14.63.3,2.68.95,4.12,3.79,4.8,3,.72,6.12,1.72,7.94,4.71,4.09,6.73-.23,12.17-10.19,13.26-3.13.34-6.16-1-9.51,1.18-5.84,3.82-8.55,11.29-16.06,13.11-2.24.54-.62,2,.43,2.69,4.65,3.22,9.1,6.81,14,9.53,32.51,17.9,65.32,35.27,97.59,53.62,8.12,4.62,14.44,5.39,21.91-.12,2.41-1.78,2.86-2.31.62-4.54q-27.12-26.93-54-54.07l-.81-.9V176c1.3,6-1.71,9.58-6.75,11.77-8.41,3.65-17.14,3.74-25.82,1.26-5.39-1.54-10.63-3.89-10.44-10.83.18-6.62,5.38-8.74,10.53-10.31,8-2.43,16.09-1.33,24.14,0l1,1.47-.05-1.75c-4-4-6.51-10.82-12.52-10.83-8.35,0-11.2-6-15.28-10.88-1.56-1.85-.44-4.39,1.73-5.47,5.84-2.89,2-4.29-.54-6.7-9.42-8.81-19.76-16.87-25.35-29,2.58.87,5.13,1,7.43-.68.19-.14-.23-1.5-.67-2.08-2.17-2.88-4.48,0-6.74,0-.73,0-1.48.65-2.22,1-2-2.13-4-4.28-6.06-6.4-.5-.53-1.06-1-1.6-1.5-.15.76-.24,1.53-.46,2.27-2,6.45,1.49,10.83,5.64,15Zm7,9.94c-.35-.22-.69-.45-1.05-.66a2.79,2.79,0,0,0-.25.33l1.19.46c-.48,1.32-1.7,2.72.21,3.84a2.18,2.18,0,0,0,1.58-.11A4.39,4.39,0,0,0,487.32,121.69ZM164,240.11c.61.58,1.23,1,2,.32l-1.08-1.2a14.55,14.55,0,0,0-6.71-5.36c-.17-.07-.93.69-.88.81,1.24,2.68,4.07,3.54,6.17,5.24A1.63,1.63,0,0,0,164,240.11Zm366.27-94.5a6.15,6.15,0,0,0-5.57-2.68c-3-3.37-6.23-2.64-8.68.37-1.68,2.07.3,3.08,2.29,3.45.09,2.43,2.1,2.56,3.74,3.13,1.32,4.61,5,2.71,7.92,2.78,1.41,0,3.69,1.11,4-1.45s-1.36-3.5-3.7-3.49Zm-57.64-.13c-.45,3.27-1.42,6.83,2.25,8.87,2,1.13,3.82.2,4.57-2.17,4.31-.58,1.58-3.48,1.45-5.19s0-5.29-2-4.78S472.26,140.19,472.6,145.48ZM88.12,25.65c-5.8-.58-3.58,4.64-5.16,7.12,3.55.16,3.4,5.18,7,5.26.21,0,.43-.81.65-1.25a4.08,4.08,0,0,0,4.78-.57c.27-.24.6-.87.49-1-1.28-1.86-3,0-4.43-.4a5.09,5.09,0,0,0-1.44.05L90.42,33c3.43-1.64,1.25-4.13.86-6.27C90.92,24.78,89.73,24.41,88.12,25.65ZM267.29,53.83c4.92-3.21,1.11-4.42-1.36-5.93l1.35-2.17c7.92,2.7,14.21,9.34,23.15,9.57-2.68,3.17-6.21.9-9.31,1.41-1.18.2-2.49.1-2.59,1.61a2.38,2.38,0,0,0,1.07,1.92c3.19,1.31,6.39,2.83,9.74,3.47a6.54,6.54,0,0,0,7-3.66c.74-1.91-2.81-1-4.16-2.09a3.31,3.31,0,0,1-1.66-2.8,45.34,45.34,0,0,0,5.32.45c1.51,0,3.09,2.13,4.47.13s.2-3.83-.91-5.52a16.24,16.24,0,0,0-7.87-6Q247.32,26.6,203,44.3c-4.31,1.73-9.15,4.31-9.19,9.57s4.88,7.62,9.09,9.65c13.82,6.65,28.66,8.36,43.76,8.51,1.72,0,4.86,1.13,4.94-1.25s-.11-5.89-4.64-6.26-7.88-3.45-10.59-6.95-1.34-7.57,2.43-8.13l.5,3.45c2,6.86,17,12.14,22.24,7.71,2.47-2.07-.61-2.34-1.44-2.72-5.37-2.48-11.15-4.14-15.81-8-1.58-2.29-3.66.45-5.37-.54,2.72-3.84,7.14-3.95,11.09-5.07-1.53,3.95-.93,6.56,3.82,7.66,3.49.81,6.79,2.5,10.15,3.84C266,56.52,267.7,57,267.29,53.83Zm101-33.15c-1,.38-2.78-1.46-3,1.08a79.81,79.81,0,0,0-19.56,3.29q-22.48,6.41-45,12.75c-.63.26-1.71.41-1.81.81-.28,1.07.78,1,1.47,1.09,5.94.36,11.39,3.84,17.56,2.7,21.89-4,43.79-8,65.65-12.18,3.73-.71,11-1.21,10.49-2.78-1.41-4.81-7.15-5.61-11.87-6.65a23.6,23.6,0,0,0-4-.21c-.22-1.9-1.63-1.84-3-1.82h-5A1.85,1.85,0,0,0,368.27,20.68ZM253.33,66c.81,4.84,3.6,6.65,8.4,5.63,2.74-.58,5.55-.85,8.3-1.37a12.53,12.53,0,0,0,2.56-1.11c-.58-.73-1.1-1.52-1.75-2.19-3.28-3.42-7.28-3-11.37-2.08C257.4,65.08,255,63.8,253.33,66Zm233,79.56c-.13-1.28,0-3.08-2-2.38-1.48.53-.94,1.79.08,2.67.17,3.44,2,5,5.41,5,4.19,0,8.47.08,11.29-3.52,1.22-1.56.69-4-.8-5.51-1.77-1.8-4.28-3.05-6.67-2.58-2,.39-.78,2.84-1,4.36C491.89,148.76,489.08,147,486.3,145.51Zm-141,64.08c2.15-.56,5.92.11,4.81-3.65a23.22,23.22,0,0,0-8.1-11.6c-2.87-2.22-4.92,2.39-7.83,2.34-2.36,0-1.83,1.29-1.15,2.56,1.72,3.17,3.45,6.34,5.27,9.45S342.54,212.62,345.3,209.59ZM339.39,47.29c2.46,5.56,7.34,2.11,11.06,2.92s2.47-3,3.77-4.41c2.54,5.37,7.42,3.85,11.77,4.07,6.55.34,13-1.31,19.65-.37,6.46.91,14.23,2,11.52-9.18,1.17-.52,1.62.09,2.25,1.07,1.6,2.48-.78,7.64,3.5,7.7,4.75.07,3-5.86,5.31-8.4a1.19,1.19,0,0,0,.2-.46c1.87-6.12-4.79-4.87-6.93-7.64-1.82-2.36-3.34.73-4.28,2.58-6.09-3.15-11.86.48-17.79.76-2.22.1-.86,4.1-4.08,3-7.47-2.62-14.31-.15-20.94,3.24-.79.45-1.37.1-2.19-.19-5.2-1.83-12.75,1.42-12.81,5.35-2.34,1.32-2.14-1-2.94-2-2.11-2.64-4.5-.21-6.74-.17s-1.64,2-1.43,3.43c.42,2.86,2.81,1.4,4.27,2C336.28,52.22,336.78,47.66,339.39,47.29ZM331,205l.76.28-.3-.75c-4-12.09-14.54-15.5-25-19l-.66-.3.25.71a5.25,5.25,0,0,0,2.29,4.24C315.33,196,321.91,202.46,331,205Zm-24,28.54c-3.43,3.32-4.53,5.89,1.65,7.27s12.26,3,18.25,5c4,1.3,5.63.34,5.53-3.78,1.07-2.35,7.13-4.61,1-7.19-6.8-2.87-14-5.2-21.61-4.74C309.6,230.28,306.91,230,307,233.59ZM71,128l.68,1.12-.22-1.51c.3-9.66-3.25-16.56-13.33-19-1.89-.46-3.54-1.83-5.4-2.5-1.41-.51-3.69-2.93-4.23.26-.46,2.75-4,7.11.84,8.46A43.37,43.37,0,0,1,71,128Zm41.1,116.27c-2.63-8.77-2.63-17.68-1.39-26.64.2-1.47.83-2.93-.58-4.16Q96.26,201.37,82.33,189.3c-.94-.81-2.48-2.19-2.82.29-1.12,8.13-3,16.24,2.68,23.84,8.69,11.66,20.09,20.75,29.4,31.8Zm-81-116.52-1.45,1,1.44,1c8,5.82,12,14.36,15.92,23.05,1.82,4.09.92,11.24,4.67,11.87,3.21.54,7.42-4.8,11.18-7.56,13.68-10.06,14-12.77,3.3-26.4a40.9,40.9,0,0,0-2.93-3.41c-7.27-7.4-15.08-8.54-24.15-3.66C36.55,125.1,33.85,126.38,31.18,127.72Zm130.1-21.38A554.27,554.27,0,0,0,65,161.8c-3.9,2.81-11.41,5.65-10.33,9.33,1.47,5,8.74,6.92,14,9.4,5.63,2.63,9.82,1.43,14.58-2.83,25.06-22.41,50.49-44.4,75.77-66.57,1.45-1.27,3.47-2.15,3.56-4.51.53-.58.68-1.24-.2-1.46C162.17,105.09,161.67,105.92,161.28,106.34Zm315,95.41c4.84,2.35,10.31,4.92,12.61,9.42,3.56,7,9.83,10.16,15.58,14,11.56,7.76,22.56,16.66,35.85,21.42,11.16,4,21.85,8.73,31.78,15.23a64.68,64.68,0,0,0,13.62,7.24c4.15,1.46,10.2,3,12.24-2.32,3.51-9.16-.29-17.62-8.82-22.29q-47.69-26.13-95.51-52c-1.16-.63-3.1-2.52-3.81-.9-2.67,6.06-9,5.52-13.51,8.23-.72.14-1.7.12-1.49,1.19C474.92,201.3,475.8,201.49,476.31,201.74ZM157.91,99.95c-.51-1.53-1.41-3.7-2-6-1.21-5-3.59-6.05-8.46-3.86a129.83,129.83,0,0,1-17.93,6.17c-4.51,1.28-8,2.5-4.52,8,.59.95.94,2.35-.66,2.86-1.28.4-1.83-.76-2-1.68-1.12-7.25-5.46-5.53-10-3.82-5.76,2.16-11.61,4.1-17.42,6.14-1.65.58-2.91,1-1.92,3.47,2.49,6.17,4.71,12.45,6.82,18.77.75,2.25,1.51,2.42,3.44,1.23C109.12,127.73,114.87,124,121,121c4.64-2.27,6.23-4.67,3.62-9.49-.62-1.14-2.44-3.81.12-4.54s1.91,2.45,2.82,3.82c1.2,1.81.44,6,4.94,3.77,7.76-3.83,15.63-7.45,23.44-11.19C157,102.82,158.65,102.57,157.91,99.95ZM50,190.72c-.3-3.48-.32-7-.95-10.43-2.91-15.91-5.63-31.93-17.22-44.46-1.72-1.86-3.34-4.83-6.49-3.66-3,1.11-2.81,4.3-2.89,6.89-.34,12.23,1,24.36,5.49,35.7,3.11,7.85,7.81,15.22,16,19.13C46.8,195.28,50.41,196.35,50,190.72Zm148.36-122c3.78,2.86,7.2,6.56,11.43,8.41,10,4.36,20.75,6.06,31.58,6.31,21.09.49,40.64-7.35,60.7-12.25,5.65-1.38,10.46-5.2,10.46-12.35,0-2.78-1.89-3.19-3.8-3.75-1.34-.4-2.69-.66-3.16,1.23-1.87,7.62-8.16,10.7-14.44,13.24-18.64,7.55-38.21,8.12-57.91,6.67A128.33,128.33,0,0,1,198.37,68.77ZM460.48,228.85c4.72-1.75,9.21-3.48,13.73-5.07,4.13-1.45,3.61-3.57,1.07-6.13-12-12.1-12-12.1-27.7-5a21.7,21.7,0,0,0-3.21,1.36c-4.93,3.29-9.47,2.16-14.44-.34-15.42-7.76-31-15.19-46.56-22.68-1.47-.71-3.47-2.6-4.74-.19-1.37,2.61,1.42,2.82,2.92,3.49q28.25,12.5,56.54,24.92C445.54,222.47,453,225.64,460.48,228.85ZM97.26,133c-2-6-4.34-11.85-6-17.92-1.19-4.46-3-4.51-7.29-3.79-8.43,1.42-11,5-7.7,12.92a27,27,0,0,1,1.09,4.85C81,146,81,146,95.29,136,96.36,135.27,97.74,134.78,97.26,133Zm341.92,68.52c.09,9,.45,9.27,8.59,5.67,9.89-4.37,19.84-8.61,29.61-13.24,1.66-.79,6.68-.59,4.29-3.81-2.13-2.86-3.54-9.38-9.88-6.46-10,4.6-19.86,9.36-29.81,14C440.23,198.52,438.52,199.21,439.18,201.54Zm98.27-45.86c-.83.22-1.68.27-1.72.48-.34,1.81,1.31,2.49,2.27,3.45q31.84,32.06,63.77,64c9.34,9.37,9.31,9.34-2.13,15.4-1.49.79-4.73,1.47-3.82,3a5.69,5.69,0,0,0,6.94,2.46c4.17-1.66,8.28-3.5,12.51-5,3.38-1.2,4-2,1.15-5.1-24.48-26.35-51.11-50.55-76.16-76.33C539.36,157.18,538.31,156.42,537.45,155.69ZM75.33,192.76c.07-3.92,1.16-6.47-2.4-7.21-6.1-1.28-11.43-4.34-16.72-7.48-.84-.5-1.74-1.92-2.84-.28-.8,1.19.65,17.46,1.69,18.29,5.14,4.09,11.19,6.38,17.28,8.55,2.12.75,3-.43,2.46-2.24C73.73,198.51,75.32,194.83,75.33,192.76Zm98.53,12.51c-1.16.12-4,.31-6.75.74-1.68.26-3.7.79-1.78,3.11,7.3,8.82,14.62,17.63,22,26.34,2.8,3.29,5.94.39,8.75-.21,2-.42.59-2.14-.09-3.18-5.48-8.31-11-16.58-16.46-24.92C178.55,205.6,177.38,204.7,173.85,205.27Zm9.15,36.8a21.42,21.42,0,0,0-1.57-2.56c-9-9.07-17.81-18.43-27.28-27-3-2.72-6.74.94-9,3.12-2.56,2.43,1.13,3.59,2.45,4.68,9.35,7.71,18.87,15.21,28.32,22.8,1.19,1,2.21,2,3.89.72A20,20,0,0,1,183,242.07Zm213.32-8.56a23.74,23.74,0,0,0-13.92,3.17c-3.6,2.2-4,4.68-.28,7.29,6.26,4.43,20.74,4.54,27.21.16,3.75-2.54,4.11-5.08-.09-7.5A23.57,23.57,0,0,0,396.32,233.52ZM525.18,171.6A21.35,21.35,0,0,0,512.63,175c-3.49,2.14-4.25,4.36-.19,7,7.11,4.68,20.5,4.76,27.63-.07,3.64-2.47,3-4.91-.23-7C535.64,172.36,530.91,171.48,525.18,171.6Zm-403,81c-.43.22-1.31.42-1.38.78a2.07,2.07,0,0,0,.6,1.75c5.78,4.34,9.91,11.11,17.47,12.8,9.83,2.19,19.76,4,29.68,5.75,1.62.29,4.22,2.16,4.85.31.8-2.34-2.22-2.75-4-3.43q-20.93-8-41.87-15.9Zm481.12,4c0,2.66,0,4.65,0,6.64,0,1.54.34,2.46,2.32,2.13,6.67-1.12,14.43-9.29,15.81-15.37,1.8-7.95-.53-8.79-6.94-5.16C609.37,247.8,600.63,247.37,603.33,256.65ZM313,209.4c-4.44.73-12.12-.27-12.19,5s7.7,5.16,12.41,5.09,12.32.05,12.36-5.22C325.62,209.83,318.08,209.93,313,209.4ZM461.7,149.95a6.6,6.6,0,0,0-6.43,3.68c-1.53,3.26,2.39,2.62,3.73,3.81,1.54,1.36,3.62,2.25,1.59,4.63-1,1.16-1.57,2.12-.13,3.32,1.21,1,2.41,1.76,4,.86,2.75-1.53,5.57-3,8.27-4.55.65-.38,2.3-.77,1.3-2C470.74,155.56,467.49,151.25,461.7,149.95ZM17.1,144.29h.07a22.18,22.18,0,0,1,0-4c.84-4.52-.29-6.2-5-4.05-6.51,3-2.57,7.86-1.85,11.71.46,2.46,3,5.78,5.85,5.11,2.14-.5.49-4.12.86-6.31A15.09,15.09,0,0,0,17.1,144.29ZM187.64,50.2c-1.7,1.24-4.06,2.07-4.94,4.4-.77,2-1.21,4.32,1.11,5.78,3.51,2.2,7.09,4.28,10.68,6.33a7.85,7.85,0,0,0,2.24.5,6.91,6.91,0,0,0-1.22-1.79c-4.31-3.27-7.43-7.07-6.55-13C189.08,51.66,189.56,50.32,187.64,50.2ZM115.1,73c0-2,.2-3.46-2.76-3.46-5.75,0-6.93,3.9-8,8.16-.28,1.12.08,2.32,1.41,1.56C109,77.46,115.11,79.61,115.1,73Zm-12.44,0c.05-1,.05-1.17-1.53-1.18-6.1-.06-5.71,5.5-7.56,9-.63,1.21.49,1.55,1.68,1.51C101.08,82.25,101.35,77.5,102.66,73.07Zm-10,2.9c.46-2-.18-2.21-.83-2-1.23.32-2.91.48-3.5,1.33A36.47,36.47,0,0,0,85,81.87c-.46,1.07-2.13,2.33-.71,3.32.72.51,3.08,0,3.61-.78A96.4,96.4,0,0,0,92.67,76Zm24.1,9.8c2.95-.08,6.28-.24,6.93-3.43.41-2-2.45-1.53-3.92-1.5-2.84.06-6.25.48-6.83,3.58C112.53,86.65,115.51,85.18,116.77,85.77ZM275.22,62.12c-1,.66-3.26.81-2.66,1.5,1.78,2.07,3.52,4.9,6.89,4.44a26,26,0,0,0,5.1-1.78,4.6,4.6,0,0,0-1.09-.93C280.72,64.24,277.94,63.18,275.22,62.12ZM321,50.89c1-1.43,4.38,1.71,4.53-2.28.06-1.73-.65-3-2.68-2.21-2.24.85-6-.55-6.46,2.71C316,51.71,319.08,50.3,321,50.89Zm-130.85,154c-1.61.11-1.78.93-1.14,2,1.45,2.43,2.93,4.84,4.49,7.19.27.41,1,.52,1.48.78a43.83,43.83,0,0,0-1.56-5.63C192.68,207.55,192.69,205.1,190.12,204.89ZM311,48.24c-1.11-2.29-3.73-1.81-5.79-2.42-.82-.24-1.74.15-1.13,1.33,1.1,2.13,3.28,2.62,5.32,3.15C310.78,50.66,311.13,49.71,311,48.24Zm-35.67,6.88c.17-1.33-.23-2.51-1.7-2.47-2.23.07-2.48,1.87-2.5,3.61,0,1.09-.36,2.87,1.15,2.81C274.44,59,275.09,57,275.37,55.13Zm183.18,105.4c-2.14-1-3.71-1.82-5.33-2.48-.6-.24-1.67,0-1.22.81a5.73,5.73,0,0,0,4.66,3.12C457.08,162,457.55,161.32,458.55,160.53Zm-291.9-53.92a9.89,9.89,0,0,0,1.19-2.48c.14-1-.71-1.48-1.56-1.11a3.8,3.8,0,0,0-1.5,1.62C164.71,104.77,165.48,105.39,166.65,106.61ZM489.57,134l-1.1-1.67c-.36.41-1,.8-1,1.24s.43,1,.68,1.56ZM196.86,41.48c-.29-.11-.61-.36-.79-.29a.56.56,0,0,0,.41,1C196.67,42.16,196.73,41.76,196.86,41.48ZM497.94,107.6l.74.52a4.18,4.18,0,0,0,.15-.78c0-.08-.28-.26-.34-.22A3.37,3.37,0,0,0,497.94,107.6ZM191.68,42.36l-.24,1.22a3.18,3.18,0,0,0,.66,0,.65.65,0,0,0,.05-.45A5.55,5.55,0,0,0,191.68,42.36Zm5.27,178.24.73.51a4.12,4.12,0,0,0,.15-.77c0-.08-.28-.25-.34-.22A3.32,3.32,0,0,0,196.95,220.6ZM380.14,249l-.63-.22c0,.15-.16.34-.11.45a3.61,3.61,0,0,0,.47.62C380,249.58,380.06,249.3,380.14,249ZM543.56,170.2l-.41-.13.28.44Z"/><path class="cls-2" d="M411.4,99.45l0-3.22c3.78.24,7.64,1.19,11.05-1.43,1.71-.58,1.77-2,1.62-3.42a2.94,2.94,0,0,1,2.7-2.8h2.76a8.23,8.23,0,0,0,9.69-.74c1.72-1.51-2-3.88-2.7-6.11l-.32-.93,2.89-.05c1.47,1.58,2,5.31,4.44,4.35s4.12-3.77,5.48-6.15c1.23-2.16-1.9-2.14-2.63-3.47L448,73.7c5.65,2.09,2.86-3.4,4.46-5l5.17-1.13,2,1a3.19,3.19,0,0,0-2.11,3.16c-1.68,0-1.6,1.46-1.91,2.45-3.85,12.31-11.39,19.93-25.06,19.68a3.86,3.86,0,0,0-3.36,1.59C422.89,100.64,417.37,101,411.4,99.45Z"/><path class="cls-3" d="M95,24.76c-2-.66-3.82-1.55-4.7-3.65C93.28,20.48,94.68,21.91,95,24.76Z"/><path class="cls-3" d="M12.72,69.74c2,0,3.41.71,3.56,2.94C14.19,72.8,13.13,71.66,12.72,69.74Z"/><path class="cls-3" d="M.55,118.75c2.44.85,2.07,2.31.87,4A3.67,3.67,0,0,1,.55,118.75Z"/><path class="cls-3" d="M4.13,136.74c1.68,1.21,1.5,2.55.28,4Z"/><path class="cls-4" d="M431.26,24.82q-1.48,1.75-3,0Z"/><path class="cls-4" d="M354.34,18.6c-.57,1-1.23,1.22-2,.23Z"/><path class="cls-4" d="M257.18,11.22c-1.47.56-2.55.33-2.89-1.41C256,8.7,256.19,10.8,257.18,11.22Z"/><path class="cls-3" d="M109.29,24.86c-.5,1.86-1.18,2.25-2.19.29Z"/><path class="cls-5" d="M303.81,178.57c-2.54,2.58-2,5.78-1.82,8.91-8.59.71-17.17,1.73-25.78,2.06-30.48,1.18-60.66-1-90.28-8.74l3.66-8.35,8.84-15.65,27.08-48c1.64-2.67,3.25-5.37,4.93-8,2.5-3.94,1.51-6.14-3.16-6.77-4.28-.57-8.53-1.3-12.8-2l-2.18-.32-11.92-2.06-.34-2c3.37-1.33,7-2.25,9.53-5.06,1.23-1.37,2.34-.73,3.58-.28,10.8,3.89,22.09,4.58,33.41,4.93,2.31.07,4.77-.45,4.58,3.23,0,.6.88,1.37,1.52,1.86q51.87,40.2,103.78,80.35L368.51,182l4.06,3.58c-.5,2.16-2.47,1.81-3.95,2.32-8,2.78-16.39,1.55-24.58,2.39l-7.66-3.88-2.43-1-.17,1.29-2.44-1.47c2.12-1.18.74-2.05-.34-2.72-3.21-2-6.48-3.86-9.73-5.78C314.71,170.21,309.46,176.29,303.81,178.57Zm-75.53-43.84c-2.31.21-4.65.8-6.91.56-5.43-.55-6.07,3.83-6.59,7-.65,4,3.46,2.39,5.5,3,1.7.48,3.64.09,5.46.23,6.26.48,14.49-1.25,18.32,2.07,5.72,4.94,11.14,4.23,17,4.2,6.8,0,13.58-1.07,20.38-1.19,4.84-.09,6-2.73,4.82-6.45-1.78-5.69-4.19-11.18-6.4-16.72-.72-1.81-2.41-2.24-4.12-2.23q-26.67,0-53.33.15c-3.34,0-4.23,2.86-4.56,5-.39,2.52,2.41,2.08,4.07,2.38,2.12.38,4.26.61,6.4.9Z"/><path class="cls-5" d="M473.28,274.11,394.5,253.55l.3-1.08c5.69-.06,11.38-.39,16.51-3.16,3.44-1.86,6.26-4.22,6.2-8.84s-2.46-7.29-6.12-8.88c-10.25-4.45-20.74-4.71-30.94,0-7,3.23-8.12,8.86-3.72,15a14,14,0,0,1,1,1.92,17.51,17.51,0,0,1-2.91-.23q-17.18-4.26-34.35-8.6l-1-2c.88-3.08-.85-4.86-3.35-5.79-7.16-2.68-14.38-5-22.15-5.52-6.9-.49-10.93,2.76-12.6,8.77-1,3.41-2.36,3.14-4.83,2.39q-46.8-14.21-93.63-28.28c-2.8-.84-5.13-2.71-4.58-5,.71-3,3.67-.58,5.35-.29a214.74,214.74,0,0,0,44.67,2.81l4,0,29-1.17a75.61,75.61,0,0,0,18.11-1.28l3.83-.18v1.32c-4.51,1.88-9.54,3.59-8.71,9.86s6,7.46,11,8.43c7,1.38,13.93,1.3,20.56-1.68,3-1.33,5.9-3.22,5.49-6.93-.54-4.93,1.58-4.53,4.22-2.29,6.86,5.81,12.25.19,17.49-2.59,3-1.61.59-5.55-.51-8.17s-1-3.52,2-4.32c10.39-2.77,19.77-1.91,29.86,3,23.05,11.12,47.1,20.16,70.15,31.29,20.32,9.81,40.46,20.12,59.74,32,4.35,2.68,9.3,4.39,14,6.5,1.15.52,2.81.34,2.9,2.18a3.69,3.69,0,0,1-1.84,3.73c-8.4,5.2-16.46,9.82-27.19,5.21-7.23-3.1-15.38-4-23.12-6Z"/><path class="cls-6" d="M189,164.91c-3.11,5.3-6.34,10.53-9.28,15.92-1.32,2.41-2.45,3.21-5.42,2.35-11.52-3.34-23-4.51-34.71.07a43.28,43.28,0,0,0-24.95,23.7c-1.53,3.45-2.68,3.39-5.17,1.17-8.46-7.51-17-15-25.58-22.3-2.19-1.86-1.32-2.8.3-4.21,31.72-27.69,63.35-55.48,95.19-83,4.08-3.53,9-6.47,15-5.45l7,1.24,8,1.36,4,.8c.48.12,1,.26,1.44.36,10.16,2,10.16,2,6.57,10.9l-27.12,47.8Z"/><path class="cls-7" d="M512.29,300.45c4.62,1.56,9.7,16.3,6.38,19.44-1.43,1.35-4.33,1.68-6.53,1.58-20.75-.87-40.76-5.81-60.52-11.72-37-11.07-73.25-24.28-109.84-36.54-9.68-3.24-19.22-7.68-30-5.28a4.76,4.76,0,0,1-3.8-.72c-8.83-8.89-20.26-9.47-31.65-10-6.2-.28-10.91-4.16-16.34-6-11.63-3.93-23.36-8.56-36.35-5.47-3.5.83-7.75-.58-9.15-5.7-.89-3.25-3.16-6.13-4.8-9.17,5.2-2.45,10.58-4.65,13.56-10.08l3.87.25,2.05.91q54.41,17.55,109.67,32.18c45.67,12.18,91.27,24.64,136.91,36.93,10.44,2.81,20.94,5.44,31.41,8.15A5.59,5.59,0,0,0,512.29,300.45Z"/><path class="cls-6" d="M411.4,99.45c6,1.53,11.49,1.19,15.75-4a3.86,3.86,0,0,1,3.36-1.59c13.67.25,21.21-7.37,25.06-19.68.31-1,.23-2.46,1.91-2.45,4.66,5.13,11.4,8.18,14.65,14.72-.68,12.65-4.12,24.62-8.84,36.28-7.48-1.67-14-.42-19,6l-.89,1.36q-.24,1.29-.48,2.58c-.28,1.18.43,1.73,1.35,2.14l7.35,6.91c-3.78,2.65-7.51,5.35-10.35,9.08-4.36-1.1-7.35-4.42-10.87-6.84-14.08-9.72-28-19.61-42.05-29.44l-2.11-1.7q-30.59-22-61.17-43.94c-3-2.19-6-1-9.08-.32a10.43,10.43,0,0,1-2.42,0c.29-.73.56-1.46.87-2.18.53-1.22,1.68-2.5,1.53-3.62-1-8,4.17-7.22,9.42-7.28q37.2-.43,74.39-1.31c4-.1,4.91.94,3.93,4.75-1.56,6.12-1.06,12.65-9,15.83-5.33,2.12-5.34,10.12-1.34,15.3C397.91,96,404.24,98.51,411.4,99.45Z"/><path class="cls-8" d="M149.33,37.8c-3.45,2.63-2.05,6.34-1.51,9.42.36,2,2.66,3.64,4.08,0l.21,0c-3.76,1-2.16,2.24-.06,3.22,4.52,2.12,9.39,1.85,14.21,1.85v1.43l.12.44-19.09,1.77-4.09.6-30.48,2.21.7-1.58c1.35-1.22,2.72-2.42,4-3.68,1.13-1.08,2.26-2.27.28-3.58-3.05-2-17.44.68-20,3.71l-1.82,1.88c-3.85,5.82-9.76,7.13-16.2,8.08-18.24,2.69-36.46,5.59-54.6,8.87-4.14.75-5.4-2.48-8.09-3.63L16.24,68C22.6,61,30.51,57.76,39.87,57.74c2,0,2.44,1.12,2.87,2.65.76,2.73,2.2,3.63,4.55,1.4,2.76-1.58,6.15-2.15,8.1-5a6.29,6.29,0,0,0-.07-2.42c-4.11-8.58,1.85-10.72,8.06-12.67,4.58-1.43,9.14-3,13.8-4.06,3.29-.78,7.25-2.5,8.42,3.15A2.11,2.11,0,0,0,88.52,42c4-1.79,9-1.69,11.58-6.19l-.32-1.09a.79.79,0,0,0-.38-.86.55.55,0,0,0,0-.77c13.91-6.77,29.17-8.69,44-12.11,9.84-2.27,19.73-4.39,29.85-5.16l.28,3c-.23,2.08,1,2.69,2.78,2.82,4.44.17,8.9.46,13.1-1.49,4-8.4,11.75-6,18.48-6.15,8.81-.2,17.63.15,26.42-.25,2.54-.12,3.19,2,5,2.42,1.24.75,2.54,1.33,3.85.27.18-.15-.22-1-.35-1.55a.61.61,0,0,0,.68.51c2.9,4.9,7.32,2.94,10.36,1.17a8,8,0,0,1,5.72-1.24q32.48,4.42,65,8.77c.56,1.07,2.59,1.72,1,3.43-10.22,2.85-20.47,5.62-30.65,8.6a14.93,14.93,0,0,1-8.8.1A127.09,127.09,0,0,0,247.22,31c-3.21,0-4.09-.94-3.5-3.89.41-2-.21-4-2.25-4.39-6.86-1.29-13.8-2.38-20.52.75l-.2.24c-1-2.16-2.39-.54-3.62-.47-2.13.51-4.56.3-6,2.48-1.59-.51-.82,3.21-3.29,1.63-7.34-4.68-14.92-1.79-22.42-.33l-4.21,1.45-2.12,1.15h0a14.21,14.21,0,0,1-8.1,2.57c-1.36.06-4.47-1.19-4.07,2.43l-.09.11c.66-3.67-2.07-1.93-3.32-1.88-3.57.14-4.23.68-4.7,2.88h-1c-2.93-3.71-4.73.33-7,1Z"/><path class="cls-5" d="M548.44,175.36q27,27.06,54,54.07c2.24,2.22,1.79,2.76-.62,4.54-7.46,5.51-13.79,4.73-21.91.12-32.26-18.34-65.07-35.72-97.59-53.62-4.93-2.71-9.38-6.31-14-9.53-1.05-.73-2.68-2.15-.43-2.69,7.51-1.82,10.21-9.29,16.06-13.11,3.35-2.19,6.39-.84,9.51-1.18,10-1.09,14.28-6.54,10.19-13.26-1.82-3-4.94-4-7.94-4.71-2.85-.69-3.49-2.12-3.79-4.8-.57-5.07.28-10.65-4.19-14.63l-.06-.08a4.42,4.42,0,0,0-4-4.07l-.1-.08c-4.16-4.13-7.61-8.51-5.65-15,.22-.73.31-1.51.46-2.27.53.5,1.09,1,1.6,1.5,2,2.12,4,4.27,6.06,6.4.17,1.29,1.09,1.64,2.2,1.77,5.6,12.16,15.94,20.22,25.35,29,2.58,2.41,6.38,3.81.54,6.7-2.17,1.08-3.29,3.62-1.73,5.47,4.08,4.84,6.93,10.85,15.28,10.88,6,0,8.57,6.87,12.52,10.83l-1,.28c-8-1.34-16.15-2.44-24.14,0-5.14,1.57-10.35,3.69-10.53,10.31-.19,6.94,5.05,9.29,10.44,10.83,8.68,2.47,17.41,2.39,25.82-1.26,5-2.19,8-5.81,6.75-11.77Z"/><path class="cls-7" d="M476.33,199.77c4.49-2.71,10.84-2.17,13.51-8.23.72-1.62,2.66.27,3.81.9q47.79,25.94,95.51,52c8.53,4.67,12.33,13.13,8.82,22.29-2,5.3-8.09,3.78-12.24,2.32a64.68,64.68,0,0,1-13.62-7.24c-9.94-6.51-20.63-11.24-31.78-15.23-13.29-4.76-24.29-13.66-35.85-21.42-5.74-3.85-12-7-15.58-14-2.3-4.5-7.77-7.08-12.61-9.42Z"/><path class="cls-8" d="M59.65,91.95c-.88.45-1.74,1.25-2.63,1.28-12,.46-14.24,8.67-14.55,18.28-.12,3.77-1.62,5.92-5.07,7.64-7.72,3.86-15.13,8.35-22.76,12.4-4.34,2.3-6.42.76-7.57-4.13C3,110.3,5.2,94.77,17.24,81.22a10.65,10.65,0,0,1,6.91-3.94C64.74,70.8,105.2,63.47,146.28,60.53l6-.67,14-1.22,2-.11,5,.13,2,.19a1.16,1.16,0,0,1-.08.87L160,64l-2.7.93c-11.52,3.19-23.07,6.26-34.53,9.63-3.62,1.06-5.26.73-4.69-3.48.33-2.48,0-5.13-3.45-4.61C102,68.41,89.49,70.56,77.35,74.54l-.05.06c-3-1.25-5.18,1.08-7.78,1.56C63.68,79.83,60.91,85.42,59.65,91.95Z"/><path class="cls-9" d="M385.95,117.92c26.52,19,53,38.13,79.61,57,4.65,3.29,4.8,4.53-.58,6.78-8.29,3.47-16.38,7.43-24.41,11.47-2.77,1.39-4.75,1.12-7.27-.53-8.89-5.85-17.94-11.45-26.93-17.14l-19.88-13.07L289.08,98.8c-6-3.91-12-7.81-18-11.75a20,20,0,0,1-2.18-1.93A17.75,17.75,0,0,1,271.65,84c15.55-3.69,31.12-7.28,46.64-11,2.84-.69,4.74.5,6.82,2q28.9,20.52,57.85,41ZM322,78.31c-12.65,2-23.17,3.64-33.67,5.43-2.28.39-5.68-.43-6.31,2.73-.56,2.82,2.63,3.5,4.47,4.69,43.82,28.39,88.2,56,131.23,85.51,14.12,9.69,26.07,12.32,40.56,3.93,1.38-.8,3.53-.7,3.83-2.74s-1.68-2.7-3-3.6q-66.9-46.77-133.83-93.49C323.72,79.63,322.15,78.29,322,78.31Z"/><path class="cls-8" d="M290.43,55.3c-8.94-.23-15.23-6.87-23.15-9.57l-.92-.5h-1q-1.16.39-.53,1.45l-3.45-.41c1.64-.84,1.9-2.05.06-2.58-1.49-.43-3.94-2.94-4.65,1l-3.9-.94c.7-.82,1-1.94-.12-2.27a4,4,0,0,0-3.07.65c-1,.71-.48,1.61.57,2.08v.09l-.18-.09c-4,1.13-8.38,1.24-11.09,5.08l-.12.12c-3.77.56-5.1,4.67-2.43,8.13s6.13,6.59,10.59,6.95,4.72,3.8,4.64,6.26S248.41,72,246.7,72c-15.1-.15-29.94-1.86-43.76-8.51-4.2-2-9.13-4.36-9.09-9.65S198.72,46,203,44.3q44.19-17.75,88.51,0a16.24,16.24,0,0,1,7.87,6c1.11,1.69,2.26,3.54.91,5.52s-3-.17-4.47-.13a45.49,45.49,0,0,1-5.32-.45Z"/><path class="cls-8" d="M162.64,106.61c-.08,2.37-2.11,3.25-3.56,4.51-25.28,22.16-50.71,44.15-75.77,66.57-4.76,4.26-8.95,5.46-14.58,2.83-5.29-2.47-12.55-4.36-14-9.4-1.08-3.68,6.44-6.52,10.33-9.33a554.27,554.27,0,0,1,96.23-55.46Z"/><path class="cls-8" d="M190.19,71.72l-11.91,4-3,1.13q-26.88,9.19-53.77,18.38c-11.8,4-23.78,7.59-35.37,12.15-8,3.15-15.09,3.69-22.38-1.47-3.33-2.36-7.24-3.9-10.89-5.82,3.91-1.3,7.78-2.74,11.74-3.88q20.61-6,41.28-11.78c1.34-.38,2.71-1.79,3.74,1.11,1.86,5.24,6.71,3.36,10.33,2.92s7.68-2.41,7.2-6.84c-.38-3.49,1.26-3.75,3.53-4.41,9.24-2.7,18.47-5.47,27.7-8.21l3.93-1.17a9,9,0,0,0,2.43-.34c9-4,17.64-4.52,25.69,2.19Z"/><path class="cls-7" d="M185.92,180.8c29.62,7.78,59.81,9.92,90.28,8.74,8.61-.33,17.19-1.36,25.78-2.06,1.17,1.61,2.22,3.33,3.52,4.82,2.11,2.42,5.59,3.43,6.94,6.66l-10.68,1.67c-.82.13-1.65.21-2.47.32l-18,1.25-8,.48a1.31,1.31,0,0,0-2,.06l-19,.93a2.15,2.15,0,0,0-1,.06c-17.43-.47-34.87-.59-52-4.37-7.3-1.61-10.18-8.54-15.7-12.31C181.7,185.77,184.09,182.57,185.92,180.8Z"/><path class="cls-10" d="M479.29,278.68c11.39,3.07,22.66,6.87,34.23,8.94,6.6,1.18,11.43-5.33,17.33-7.78,1.59-.66,3-2.58,5-1.29,2.61,1.68,6.19,3,7.26,5.46.69,1.55-3.79,2.88-5.86,4.43-1.33,1-3,1.55-4.25,2.61-7.14,6.08-14.93,8.09-23.79,4.13l-5.91-1.35c-27.89-7.68-55.76-15.41-83.66-23-26.47-7.21-53-14.25-79.46-21.49-1.95-.53-5.68.09-4.35-4.25,1.24-4.06,3.91-2,6.06-1.45q65,16.71,130,33.52c.79.2,1.62.29,2.43.42Z"/><path class="cls-5" d="M140.13,222.27c-8.22-5.75-8.64,3-11.91,6.41-5.55.2-8-4.88-12.1-7.12-1.12-9,3.67-16.09,8.81-22.4,15-18.47,46.69-18.91,62.37-.95,4.47,5.12-3.76.54-3.1,3.31-1.14.69-2.29,1.38-2,3-1.4-2.55-3.32-3.88-6.42-3.12-1.6.39-3.36.09-5,.47-4.07,1-9.73-1.09-11.89,3.31-2.07,4.23,4.2,6,5.32,9.63a.33.33,0,0,0,.07.48c-4,.32-5.32-3.31-7.23-5.48-2.53-2.87-4.56-3.07-7.54-1.19a42.48,42.48,0,0,1-7,3.61c-4,1.59-5,3.88-2.21,7.39Z"/><path class="cls-8" d="M157.91,99.95c.74,2.62-.87,2.87-2,3.41-7.81,3.74-15.68,7.35-23.44,11.19-4.5,2.22-3.74-2-4.94-3.77-.91-1.36-.4-4.51-2.82-3.82s-.74,3.4-.12,4.54c2.61,4.82,1,7.22-3.62,9.49-6.11,3-11.86,6.75-17.67,10.33-1.94,1.19-2.69,1-3.44-1.23-2.11-6.31-4.33-12.6-6.82-18.77-1-2.44.27-2.89,1.92-3.47,5.81-2,11.66-4,17.42-6.14,4.57-1.72,8.91-3.44,10,3.82.14.91.7,2.08,2,1.68,1.6-.51,1.25-1.91.66-2.86-3.45-5.54,0-6.76,4.52-8a129.83,129.83,0,0,0,17.93-6.17C152.37,87.94,154.75,89,156,94,156.5,96.25,157.4,98.42,157.91,99.95Z"/><path class="cls-10" d="M346.93,156.3c-2.31,3.09-3.74.18-5.16-.92q-40.25-31.17-80.36-62.52c-1.15-.9-4.69-1.25-2.64-3.93,1.47-1.92,3.66-1.85,6.1-.23,17.75,11.75,35.64,23.3,53.49,34.9,10,6.53,20.12,13,30.14,19.56,1.85,1.21,4.35,2.15,3.57,5.23l-2.93,4.49Z"/><path class="cls-5" d="M31.18,127.72c2.67-1.34,5.37-2.62,8-4,9.07-4.89,16.87-3.74,24.15,3.66a40.9,40.9,0,0,1,2.93,3.41c10.72,13.62,10.38,16.34-3.3,26.4-3.75,2.76-8,8.1-11.18,7.56-3.76-.63-2.85-7.78-4.67-11.87-3.88-8.7-7.91-17.24-15.92-23.05Z"/><path class="cls-7" d="M50,190.72c.4,5.63-3.21,4.56-6.11,3.17-8.14-3.91-12.85-11.29-16-19.13-4.49-11.34-5.83-23.47-5.49-35.7.07-2.59-.12-5.78,2.89-6.89,3.16-1.17,4.78,1.81,6.49,3.66,11.59,12.53,14.31,28.55,17.22,44.46C49.69,183.71,49.71,187.24,50,190.72Z"/><path class="cls-7" d="M116.12,221.56c4.11,2.24,6.55,7.32,12.1,7.12-3.76,10.36,2.59,14.15,10.74,17.49,10.27,4.21,19.51,10.68,30.16,14.13,1.52,2.82,3.42,1.27,5.25.44,4,3.32,8.55,3.6,13.37,2.73,2.07,7.18,6.3,9.62,11.55,6.42,4.26-2.59,6.75-6.66,8.25-11.34l3.31-.12c-1,12-15.57,22.39-27.07,19.25-1.22-.33-2.85-1-3.29-2-3.84-8.66-12.54-9.55-19.84-12.46-12.48-5-25.05-9.77-37.75-14.17-4-1.39-6.12-3.33-6.66-7.46C115.38,234.88,112.27,228.26,116.12,221.56Z"/><path class="cls-7" d="M111.59,245.23c-9.31-11-20.7-20.14-29.4-31.8-5.66-7.6-3.81-15.7-2.68-23.84.34-2.48,1.88-1.1,2.82-.29q13.95,12,27.84,24.13c1.42,1.23.79,2.69.58,4.16-1.25,9-1.24,17.88,1.38,26.64Z"/><path class="cls-10" d="M378.29,20.59a23.6,23.6,0,0,1,4,.21c4.72,1,10.46,1.83,11.87,6.65.46,1.57-6.77,2.06-10.49,2.78C361.76,34.4,339.85,38.36,318,42.41c-6.17,1.14-11.62-2.34-17.56-2.7l.34-1.9q22.49-6.37,45-12.75a79.81,79.81,0,0,1,19.56-3.29c-.81,7.81,4.6,6.43,9.16,6.11,1.8-.12,3.86-.43,3.93-2.9.06-2-1.53-2.78-3.22-3.19-3.24-.79-.52-.86.13-1.18Z"/><path class="cls-8" d="M406.13,180.15c8,5.34,15.85,11,24.14,15.9,5.25,3.09,3.94,8,4.72,12.27.41,2.24-1.49,1-2.32.62-17.76-8.4-35.48-16.87-53.26-25.22-2.2-1-1.94-2.14-1.09-3.87,1.45-3,2.73-6,4.08-9.06,1.82-3.2,3.74-3.5,6.92-1.22C394.7,173.42,400.5,176.66,406.13,180.15Z"/><path class="cls-11" d="M198.37,68.77a128.33,128.33,0,0,0,34.86,7.51c19.71,1.46,39.28.89,57.91-6.67,6.28-2.55,12.58-5.62,14.44-13.24.46-1.89,1.82-1.63,3.16-1.23,1.91.57,3.8,1,3.8,3.75,0,7.15-4.81,11-10.46,12.35C282,76.14,262.47,84,241.37,83.49c-10.82-.25-21.6-1.95-31.58-6.31C205.57,75.33,202.15,71.63,198.37,68.77Z"/><path class="cls-11" d="M460.48,228.85c-7.46-3.21-14.94-6.37-22.38-9.64q-28.29-12.41-56.54-24.92c-1.51-.67-4.29-.88-2.92-3.49,1.26-2.41,3.26-.52,4.74.19,15.55,7.49,31.14,14.92,46.56,22.68,5,2.5,9.51,3.63,14.44.34a21.7,21.7,0,0,1,3.21-1.36c15.73-7.1,15.73-7.1,27.7,5,2.54,2.57,3.07,4.68-1.07,6.13C469.68,225.37,465.2,227.1,460.48,228.85Z"/><path class="cls-9" d="M452.42,68.74c-1.6,1.55,1.19,7.05-4.46,5L443.29,71c-1.65-.41-3.33-3.66-4.78-.94-1,1.87,2.18,2.23,3.5,3.25a2.88,2.88,0,0,0,.93.29l3.41,1.86c.72,1.32,3.86,1.3,2.63,3.47-1.36,2.38-3.18,5.24-5.48,6.15s-3-2.78-4.44-4.35l-4.23-6.2-2.6-3.77-.37-2.1,2.39-.19,1,.45c.92.86,2.24,2.26,3,.48.84-2-1.47-2.35-2.79-3.05,1.06-5.84,5.05-2.2,7.79-2.32s7.35,2.06,7.54.12c.33-3.44-4.25-2.3-6.66-2.72-4-.69-4.6-2.64-3.5-5.95,1.53-.09,4.13.11,3.88-1.56-.38-2.47-2.74-1-4.32-.7-1.69,0-3.21,1.58-5,.54l.36-1.94,1.24-.91,1.53-1.2c1-.57,2.32-1.11,1.19-2.48-.83-1-1.92-.32-2.41.51-.77,1.32-.29,2.14,1.36,2-.83-2.13-2-1.87-3.31-.47l-1.89,1.41-.9.37a3,3,0,0,1-2.95-2.35l9.07-15.67c4.31-.85,5.79,2.55,7.51,5.25s-1.43,3.08-2.66,4.29c-.71.7-1.73,1.27-.9,2.36s1.72.2,2.61-.16c1.49-.61,3.2-3.49,4.37.37.83,2.71,2.27,5.52-2.11,6.5-1.19.12-2.92-.13-2.54,1.76.32,1.6,1.6,1,2.59.38,6.89-1.49,5.89,5.08,4.82,6.77C450,64,452.27,66.1,452.42,68.74Z"/><path class="cls-10" d="M354.38,42.14c6.63-3.4,13.47-5.86,20.94-3.24,3.22,1.13,1.86-2.87,4.08-3,5.93-.27,11.7-3.91,17.79-.76l0,0c-3.51,1.66-1.41,3.34,0,5l-.08.09c2.71,11.22-5.06,10.09-11.52,9.18-6.65-.94-13.1.71-19.65.37-4.36-.22-9.23,1.3-11.77-4.06l-.93-1.51c2.13.2,2.07-.7,1-2.08Zm24.49.26c-.61-.86,0-2.81-2-2.62-1.22.12-1.38,1.25-1.06,2.17s-.09,2.9,1.9,2.73C379,44.57,379,43.47,378.87,42.4Zm-1.31,2.38c-.2.39-.86,1-.76,1.56.16.81.66,2,1.3,2.19,1.22.42,1.66-.63,1.47-1.7C379.42,46,379.5,44.78,377.56,44.78Z"/><path class="cls-10" d="M210.86,258.42l-3.31.12c-1.13-4.2-1.22-9.46-6.88-10.15-4.78-.58-7.39,3.19-9.43,6.88a82.89,82.89,0,0,0-3.5,8.2c-4.82.87-9.4.6-13.37-2.73-.84-2.18,1.68-3.18,1.77-5,3.48-13.27,16.3-14.22,26-19.16.52-.26,5.86.75,6.86,4C210.79,246.32,213.21,252.14,210.86,258.42Z"/><path class="cls-8" d="M97.26,133c.49,1.75-.89,2.24-2,3C81,146,81,146,77.38,129.08a27,27,0,0,0-1.09-4.85c-3.31-7.89-.72-11.5,7.7-12.92,4.3-.72,6.1-.68,7.29,3.79C92.91,121.18,95.24,127.06,97.26,133Z"/><path class="cls-10" d="M439.18,201.54c-.66-2.33,1-3,2.79-3.83,9.95-4.65,19.84-9.41,29.81-14,6.34-2.92,7.74,3.59,9.88,6.46,2.4,3.22-2.63,3-4.29,3.81-9.77,4.63-19.72,8.87-29.61,13.24C439.63,210.81,439.27,210.57,439.18,201.54Z"/><path class="cls-12" d="M537.45,155.69c.86.73,1.9,1.5,2.8,2.42,25,25.78,51.68,50,76.16,76.33,2.85,3.07,2.23,3.9-1.15,5.1-4.23,1.5-8.34,3.34-12.51,5a5.69,5.69,0,0,1-6.94-2.46c-.91-1.53,2.33-2.22,3.82-3,11.45-6.06,11.47-6,2.13-15.4q-31.89-32-63.77-64c-1-1-2.62-1.64-2.27-3.45C535.77,156,536.62,155.9,537.45,155.69Z"/><path class="cls-11" d="M169.23,257.06q-17.15-8.67-34.31-17.34c-7.16-3.61-2.74-8.76-1-12.67,2.17-5,5-.48,7,.89,10,6.92,19.69,14.21,29.66,21.13,2.66,1.85,3.61,3.68,2.3,6.61Z"/><path class="cls-7" d="M534.32,314.83c-10.27,1.46-11.31.37-10.19-10.27a4.31,4.31,0,0,1,2.1-3.67c5.12-3.1,10.19-6.29,15.29-9.41,2.46-1.5,4-1.29,5.23,1.83,4.79,12.2,4.85,12.24-10.46,20.35Z"/><path class="cls-11" d="M75.33,192.76c0,2.07-1.59,5.75-.52,9.64.5,1.81-.34,3-2.46,2.24-6.1-2.17-12.14-4.46-17.28-8.55-1-.83-2.49-17.1-1.69-18.29,1.1-1.65,2-.22,2.84.28,5.29,3.14,10.62,6.2,16.72,7.48C76.48,186.29,75.4,188.84,75.33,192.76Z"/><path class="cls-11" d="M173.85,205.27c3.53-.57,4.7.33,5.71,1.88,5.45,8.33,11,16.61,16.46,24.92.68,1,2.05,2.76.09,3.18-2.81.6-5.95,3.5-8.75.21-7.42-8.71-14.74-17.52-22-26.34-1.92-2.32.09-2.85,1.78-3.11C169.88,205.58,172.69,205.39,173.85,205.27Z"/><path class="cls-8" d="M178.3,78.81c3.45-1,7-2.38,9.74,1.37l.21.09c-2.23,1.58-.18,3,.16,4.49.13,1.33.59,2.72-.64,3.82-7.54,3.47-15.15,6.81-22.59,10.49-2.92,1.44-4,1.23-5.09-2.1-3.32-10.23-3.49-10.16,6.86-13.91,2.8-1,5.57-2.11,8.35-3.16Z"/><path class="cls-11" d="M183,242.07a20,20,0,0,0-3.22,1.74c-1.68,1.3-2.7.24-3.89-.72-9.45-7.59-19-15.09-28.32-22.8-1.32-1.09-5-2.25-2.45-4.68,2.3-2.18,6-5.84,9-3.12,9.47,8.59,18.25,17.94,27.28,27A21.42,21.42,0,0,1,183,242.07Z"/><path class="cls-11" d="M396.31,233.52a23.54,23.54,0,0,1,12.93,3.11c4.2,2.43,3.84,5,.09,7.5-6.48,4.38-21,4.27-27.21-.16-3.68-2.61-3.32-5.09.28-7.29A23.7,23.7,0,0,1,396.31,233.52Z"/><path class="cls-11" d="M525.18,171.6c5.73-.13,10.47.75,14.66,3.41,3.24,2.05,3.87,4.49.23,7-7.12,4.83-20.52,4.75-27.63.07-4.06-2.67-3.3-4.89.19-7A21.35,21.35,0,0,1,525.18,171.6Z"/><path class="cls-11" d="M122.21,252.63l5.34,2.05q20.94,7.95,41.87,15.9c1.78.68,4.8,1.09,4,3.43-.64,1.85-3.23,0-4.85-.31-9.92-1.76-19.84-3.56-29.68-5.75-7.56-1.68-11.69-8.46-17.47-12.8a2.07,2.07,0,0,1-.6-1.75C120.9,253.05,121.78,252.86,122.21,252.63Z"/><path class="cls-11" d="M603.33,256.65c-2.7-9.27,6-8.85,11.2-11.77,6.4-3.62,8.74-2.78,6.94,5.16-1.38,6.08-9.14,14.25-15.81,15.37-2,.33-2.32-.58-2.32-2.13C603.32,261.3,603.33,259.31,603.33,256.65Z"/><path class="cls-11" d="M71,128a43.31,43.31,0,0,0-21.65-13.2c-4.86-1.35-1.3-5.71-.84-8.46.54-3.19,2.82-.77,4.23-.26,1.86.67,3.51,2,5.4,2.5,10.08,2.46,13.62,9.37,13.33,19Z"/><path class="cls-10" d="M479.93,116.07c4.18,5.76,5.46,12.33,5.32,19.29l-3,1.57c-9.57-3.46-12.79-13.5-6.93-21.43,1.9-2.57,2.88,1.54,4.5.48Z"/><path class="cls-9" d="M422.41,94.8c-3.41,2.62-7.27,1.67-11.05,1.43-5.13-1.79-10.6-2.85-14.32-7.42-1.87-2.29-3.19-4.74-2.59-7.72.48-2.4,2-4.71,4.43-4.84,2.88-.15.12,2.69,1.24,3.65a6.44,6.44,0,0,0,2.14.76l1.09,2.19c-.31,2.25,1.58,3.09,2.81,4.35C410.63,91.75,416.47,93.38,422.41,94.8Z"/><path class="cls-11" d="M313,209.4c5.07.53,12.62.42,12.59,4.86,0,5.27-7.66,5.15-12.36,5.22s-12.48.13-12.41-5.09S308.57,210.13,313,209.4Z"/><path class="cls-10" d="M307,233.59c-.13-3.56,2.56-3.31,4.81-3.44,7.63-.46,14.81,1.88,21.61,4.74,6.13,2.58.08,4.85-1,7.19Z"/><path class="cls-11" d="M460.69,133.16c-.73,2.93,2.06,3.28,3.44,4.63,1.17,1.13,2.9,1.83,3.72,3.13,1.32,2.11,2.43,5.24.86,7-1.43,1.56-3.86-.79-5.48-1.93-6.06-4.27-12-8.77-17.94-13.18l2.1-4c2-.81,4.28,1.32,6.27-.4l-.22.18c.6,4.16,3.74,4.73,7.08,5A.36.36,0,0,1,460.69,133.16Z"/><path class="cls-13" d="M461.7,149.95c5.8,1.31,9,5.61,12.37,9.73,1,1.24-.66,1.62-1.3,2-2.71,1.6-5.52,3-8.27,4.55-1.62.9-2.82.15-4-.86-1.44-1.2-.86-2.16.13-3.32,2-2.38-.06-3.26-1.59-4.63-1.35-1.19-5.27-.55-3.73-3.81A6.6,6.6,0,0,1,461.7,149.95Z"/><path class="cls-11" d="M223.29,220.82c-3,5.43-8.36,7.63-13.56,10.08-2.77-5-5.93-9.82-7.07-15.55,5.61-.65,10.35,2.47,15.54,3.63A40.92,40.92,0,0,1,223.29,220.82Z"/><path class="cls-9" d="M157.8,35.69h1c2.9,1.47,5.51.63,8-1l.09-.11c3.78,2.31,8-.21,11.85,1,.94.28,2.22.19,2.14,1.49,0,.53-1,1.19-1.71,1.46a50.86,50.86,0,0,1-24.82,3.76c-3-.34-3.81-2.43-5-4.44l1.44-1.12C153.74,40.72,155.64,37.29,157.8,35.69Z"/><path class="cls-7" d="M463.29,122.77c4.72-11.66,8.16-23.64,8.84-36.28,3.95,8.49,2.06,17.12.49,25.69-.6,3.24-2,6.32-2.88,9.52C468.32,126.8,466.12,126.5,463.29,122.77Z"/><path class="cls-7" d="M307,233.59l25.42,8.5c.11,4.12-1.57,5.08-5.53,3.78-6-2-12.1-3.63-18.25-5S303.61,236.91,307,233.59Z"/><path class="cls-11" d="M306.44,185.58c10.49,3.5,21.06,6.91,25,19l-.47.47c-9.09-2.59-15.67-9-22.68-14.81A5.25,5.25,0,0,1,306,186Z"/><path class="cls-12" d="M244.32,49.84c4.66,3.89,10.43,5.56,15.81,8,.83.38,3.9.65,1.44,2.72-5.27,4.42-20.21-.85-22.24-7.71Z"/><path class="cls-9" d="M331.35,185.22l2.44,1.47c-.37,2,1.5,2.07,2.5,2.89.75,1,2.09,2,.14,3.05-2.34,1.23-4.79,2.13-7.26.27-1.28-1-2.49-2-3.73-3.06-2.57-4.27-7.1-5.67-11.2-7.72-1.54-.77-4.92-.68-3.83-3.08.87-1.93,4-2.91,6.59-1.71,1.49.68,2.86,1.61,4.28,2.43C324.52,181.8,327.26,184.75,331.35,185.22Z"/><path class="cls-2" d="M368.51,182l-12.08-9.34,2.81-2.93c3.06,1.75,5.43,1.91,7-2.09.74-1.87,2.57-3.32,3.9-5l2.06,0c-1.65,2.85-3.28,5.71-4.94,8.54-.75,1.28-1.86,2.55-.09,3.84,2.35,1.7,2.71-.72,3.57-1.85,1.77-2.33,2.81-5.26,5.52-6.84.88,3.1-1.33,5.15-2.56,7.53-1,1.89-3.19,3.49-1.44,6C371.79,182.12,369.94,181.68,368.51,182Z"/><path class="cls-2" d="M406.13,180.15c-5.62-3.49-11.43-6.73-16.8-10.58-3.18-2.28-5.1-2-6.92,1.22l-2-2,1.26-4.07a5,5,0,0,0,4.84-2.32l19.88,13.07Z"/><path class="cls-9" d="M397.25,35.23l0,0c.94-1.84,2.46-4.94,4.28-2.58,2.14,2.77,8.81,1.52,6.93,7.64a1.19,1.19,0,0,1-.2.46c-2.34,2.54-.55,8.46-5.31,8.4-4.28-.06-1.91-5.22-3.5-7.7-.63-1-1.08-1.58-2.25-1.07l.08-.09C400.76,38.57,398.32,36.9,397.25,35.23Z"/><path class="cls-9" d="M353.29,44.31l.93,1.51c-1.3,1.43,0,5.22-3.77,4.39s-8.59,2.65-11.06-2.92v0c.06-3.93,7.61-7.19,12.81-5.35.82.29,1.4.64,2.19.19l0,.08C352.09,42,352.36,43,353.29,44.31Z"/><path class="cls-9" d="M423.28,41.75l-1,8-2-.58-1.53-1.76c-.7-.84-.76-2.37-2.37-2.27,1.26-1.28-.08-1.85-.71-2.62-1.84-3.8,1.14-11.27,5.05-12.39.33-.09,1,1,1.51,1.57Z"/><path class="cls-11" d="M17.1,144.29a15.09,15.09,0,0,1,0,2.49c-.37,2.19,1.29,5.81-.86,6.31-2.85.67-5.39-2.65-5.85-5.11-.72-3.85-4.66-8.72,1.85-11.71,4.69-2.15,5.82-.47,5,4.05a22.18,22.18,0,0,0,0,4Z"/><path class="cls-9" d="M436.16,80.79l.32.93c.75,2.23,4.42,4.59,2.7,6.11a8.23,8.23,0,0,1-9.69.74l-1.63-13.79c.56-1.38-1.26-3.58,1.47-4.2l.9,1.19,2.91,4.31Z"/><path class="cls-10" d="M334.18,196.68c2.92.05,5-4.56,7.83-2.34a23.22,23.22,0,0,1,8.1,11.6c1.11,3.76-2.66,3.09-4.81,3.65C342.88,204.18,337.23,201.54,334.18,196.68Z"/><path class="cls-10" d="M188.25,80.27l-.21-.09c.21-4.58,3.3-6.39,7.19-6.5s6.57,3.11,7.87,5.95c1.12,2.45-2.93,2.41-4.59,3.58A43.64,43.64,0,0,1,193.29,86l-2.2-1.22C190.25,83.21,191.35,80.41,188.25,80.27Z"/><path class="cls-11" d="M486.3,145.51c2.78,1.5,5.6,3.25,6.31-2,.21-1.52-1-4,1-4.36,2.39-.47,4.9.78,6.67,2.58,1.49,1.51,2,3.95.8,5.51-2.82,3.61-7.1,3.56-11.29,3.52-3.44,0-5.24-1.55-5.41-5Z"/><path class="cls-7" d="M441.29,150.82c2.83-3.73,6.57-6.43,10.35-9.08,5.33,2.25,6.09,4.05,1.52,9.08C448.2,156.27,445.29,156.89,441.29,150.82Z"/><path class="cls-7" d="M344,190.32c8.19-.84,16.57.39,24.58-2.39,1.48-.51,3.45-.16,3.95-2.32,3.68,1.72,1.84,3.33-.32,4.36-7.16,3.39-15,3.87-22.71,4.77C346.93,195,345.33,192.5,344,190.32Z"/><path class="cls-7" d="M422.41,94.8c-5.94-1.42-11.78-3.05-16.25-7.6-1.23-1.25-3.12-2.09-2.81-4.35l1.72-1.27c1.23,1,2.06,3.62,4.16,1l2.1-1c3.32,4.46,7.18,8.2,12.69,9.81C424.18,92.85,424.12,94.21,422.41,94.8Z"/><path class="cls-13" d="M259.47,64.83c4.09-.92,8.09-1.34,11.37,2.08.64.67,1.17,1.46,1.75,2.19A12.53,12.53,0,0,1,270,70.21c-2.75.53-5.56.8-8.3,1.37-4.8,1-7.59-.79-8.4-5.64Z"/><path class="cls-2" d="M321.28,179.76c-1.42-.82-2.79-1.75-4.28-2.43-2.63-1.2-5.72-.22-6.59,1.71-1.09,2.41,2.29,2.31,3.83,3.08,4.1,2.05,8.63,3.45,11.2,7.72-7.41-3.38-15.29-5.86-21.64-11.27,5.65-2.28,10.9-8.36,17.48-1.84Q321.28,178.24,321.28,179.76Z"/><path class="cls-9" d="M453.66,128.39c.25-2.91,2.27-1.61,3.52-1.28,6,1.58,11.06,5.12,16.29,8.24,1.35.81,4.07,2.16,2.78,3.86-1,1.33-3.9,1.29-5.95-.07-3.14-2.08-5.31-5.73-9.6-6a.35.35,0,0,0-.18.45c-.71-4-3.8-4.66-7.08-5Z"/><path class="cls-12" d="M166.26,53.71V52.27c2.71-.64,5.45-1.22,8.13-2,1.06-.29,2.45-.85,1.77-2.34s-1.95-.63-3-.37l-1.15-3c2.12-.82,4.21-1.75,6.38-2.42,1.13-.35,2.55-1.75,3.52-.38,1.36,1.92-.66,2.82-1.79,3.9l-2.36.88c-1.35.15-2.35.86-1.55,2.17a1.74,1.74,0,0,0,3.09.11l1-.41c2.45,3-.29,3.77-2.17,4.24A80.39,80.39,0,0,1,169.29,54Z"/><path class="cls-9" d="M427.35,28.78c3.5.12,7.29-.72,9.74,2.91-3.32,4.72-7.11,9.16-8.94,14.78C425.33,40.68,428.15,34.65,427.35,28.78Z"/><path class="cls-12" d="M180.37,32.5l1.13-1.67,3.8-1.26C189.2,29,193.1,28.3,197,27.92c2-.19,5.37-1.23,5.84.76.56,2.35-3.12,1.79-4.7,3l-3.68,1a34.87,34.87,0,0,1-11.82,1Z"/><path class="cls-13" d="M290.43,55.3l.09-.13a3.31,3.31,0,0,0,1.66,2.8c1.35,1.07,4.91.18,4.16,2.09a6.54,6.54,0,0,1-7,3.66c-3.35-.64-6.54-2.17-9.74-3.47a2.38,2.38,0,0,1-1.07-1.92c.1-1.51,1.41-1.42,2.59-1.61C284.22,56.2,287.75,58.47,290.43,55.3Z"/><path class="cls-11" d="M346.93,156.3l2.21-3.42c3.55.88,3.84-2.12,4.93-4.16,3-1,4.56.07,5,3.11,0,.37-.09.74-.14,1.11,2.45,2,.65,3-1,3.93-4.39-.56-4.08,3.52-5.67,5.73C347.91,162.62,349.28,157.9,346.93,156.3Z"/><path class="cls-7" d="M370.14,162.71c-1.33,1.64-3.17,3.08-3.9,5-1.57,4-3.94,3.85-7,2.09-.63-2.7.4-4.88,2.18-6.81l5.27-6.28a1.54,1.54,0,0,0,.53-.54l3.65,1.62Q370.5,160.23,370.14,162.71Z"/><path class="cls-11" d="M187.64,50.2c1.92.12,1.44,1.45,1.32,2.24-.88,5.91,2.24,9.71,6.55,13a6.91,6.91,0,0,1,1.22,1.79,7.85,7.85,0,0,1-2.24-.5c-3.59-2.05-7.17-4.13-10.68-6.33-2.32-1.45-1.88-3.73-1.11-5.78C183.59,52.27,185.95,51.44,187.64,50.2Z"/><path class="cls-13" d="M95.92,55.48l1.82-1.88c.94,2,2.19,1,3.67.6,3.88-1.12,7.82-2.65,11.86-.47l-2.46,2.73c-3.3,5-8.86,3.25-13.37,3.92C94.64,60.8,99.33,56.33,95.92,55.48Z"/><path class="cls-4" d="M375.29,20.6c-.65.32-3.37.4-.13,1.18,1.68.41,3.27,1.15,3.22,3.19-.07,2.47-2.13,2.77-3.93,2.9-4.56.32-10,1.7-9.16-6.11.21-2.53,2-.7,3-1.08a1.79,1.79,0,0,0,2-1.91h5Z"/><path class="cls-9" d="M261.34,46.28l3.45.41c-.43,1.18.53,1,1.15,1.21,2.47,1.52,6.28,2.72,1.36,5.93-3.73-1.6-7.5-3.08-11.16-4.83-2.28-1.09-5.87-.71-5.92-4.68v-.09l2.62-.46,3.9.94C257.91,46.3,259.72,46,261.34,46.28Z"/><path class="cls-11" d="M172,44.58l1.15,3a34,34,0,0,1-21.05-.4l-.21,0c-1.79-1.52-2.43-2.82.83-2.41A82.54,82.54,0,0,0,172,44.58Z"/><path class="cls-9" d="M115.1,73c0,6.57-6.07,4.42-9.33,6.27-1.34.76-1.69-.45-1.41-1.56,1.05-4.26,2.23-8.17,8-8.16C115.3,69.58,115.14,71,115.1,73Z"/><path class="cls-10" d="M46.25,48.85c6-.41,6.78,3.13,6,7.88l-4.94,3c-2.67-.62-1.45-3.64-3-4.92,1.07-2.07-2.78-4.31.21-6.32Z"/><path class="cls-7" d="M334.18,196.68c3.05,4.86,8.7,7.5,11.12,12.91-2.76,3-5.09,2.35-7-.89s-3.55-6.28-5.27-9.45C332.35,198,331.82,196.64,334.18,196.68Z"/><path class="cls-9" d="M376.27,166.43c-2.71,1.58-3.75,4.5-5.52,6.84-.86,1.14-1.22,3.56-3.57,1.85-1.78-1.29-.67-2.55.09-3.84,1.67-2.84,3.3-5.69,4.94-8.54l1.21-1.93c2.73-.87,3.76,1,4.74,2.94Z"/><path class="cls-9" d="M414.45,59.57c-6.12-1.47-7.22-6-3.17-13,1.44,4.39,8.07,6.86,4.84,13q-.45,0-.91.06A.52.52,0,0,0,414.45,59.57Z"/><path class="cls-3" d="M281.28,202.19l18-1.25.09,3.39a75.61,75.61,0,0,1-18.11,1.28Q281.28,203.9,281.28,202.19Z"/><path class="cls-7" d="M250.22,44.32c.05,4,3.64,3.58,5.92,4.68,3.65,1.75,7.43,3.24,11.16,4.83.4,3.22-1.33,2.68-3.28,1.91-3.37-1.34-6.66-3-10.15-3.84-4.75-1.1-5.35-3.71-3.82-7.66Z"/><path class="cls-2" d="M189,164.91l5.2-9.35c1.07,1.58,2.76,1.07,4.25,1.24l-8.84,15.65Z"/><path class="cls-11" d="M102.66,73.07c-1.31,4.43-1.58,9.18-7.41,9.36-1.19,0-2.32-.3-1.68-1.51,1.85-3.54,1.46-9.09,7.56-9C102.72,71.9,102.72,72,102.66,73.07Z"/><path class="cls-7" d="M416.12,59.58c3.23-6.13-3.4-8.6-4.84-13-.09-3.06,3.67-1.88,4.42-4,.64.76,2,1.34.72,2.62-1.82,1.72-1.27,3.38.61,4.28s1.41-1.09,1.76-2l1.53,1.76-.62,2.23c.42,2.46-3.17,6.67,2.91,6.65.08.13.23.26.22.38a5.36,5.36,0,0,1-.19.84Z"/><path class="cls-12" d="M77.3,74.6l.05-.06-1.61,6.06a.5.5,0,0,0,.35.61c-3,1.61-2.6,5-3.89,7.51-1.56.41-3.93,1.65-4.5,1.08-1.37-1.36.49-2.95,1.24-4.22,2.15-3.65,2.26-9.3,8.49-9.21Z"/><path class="cls-11" d="M376.27,166.43l1.89-2.68,3.48.95-1.25,4.07c-3.51,3.16-1.86,10.05-8.12,11.22-1.76-2.54.46-4.14,1.44-6C374.93,171.58,377.15,169.53,376.27,166.43Z"/><path class="cls-11" d="M194.5,32.63l3.68-1q0,1.48,0,3c-2,.67-1.63,2.38-1.68,3.9-2.72.75-5.4,1.63-8.16,2.18-1.27.25-3.34.94-3.49-1.39-.11-1.78.86-3,3-3.1C190.61,36.09,193.88,36.72,194.5,32.63Z"/><path class="cls-12" d="M339.39,47.31v0c-2.61.36-3.11,4.92-6.84,3.31-1.45-.63-3.85.83-4.27-2-.21-1.44-.81-3.38,1.43-3.43s4.63-2.47,6.74.17C337.25,46.31,337,48.63,339.39,47.31Z"/><path class="cls-12" d="M357.87,156.86c1.66-1,3.46-1.9,1-3.93,1.31,1.42,1.67-.06,2.28-.75,1.75.11,3.28.54,3.71,2.56l-5,6.85c-4.32,4.51-4.32,4.51-6,2.16C355.56,161.65,357.29,159.58,357.87,156.86Z"/><path class="cls-12" d="M92.67,76a96.4,96.4,0,0,1-4.76,8.45c-.53.78-2.89,1.29-3.61.78-1.42-1,.25-2.25.71-3.32a36.47,36.47,0,0,1,3.32-6.62c.59-.85,2.27-1,3.5-1.33C92.49,73.76,93.13,74,92.67,76Z"/><path class="cls-7" d="M433.4,56.68c1.89.8,2.7,2.1,1.27,3.84-2.17,2.63-4.75,4.86-8.47,4.36-2.76-.37-3.11-2.6-3-4.92C426.6,58.94,430.83,60.39,433.4,56.68Z"/><path class="cls-11" d="M228.32,31.72c-4.48.82-8.88,2.62-13.54.95-1-.37-2.66-.24-2.38-1.84s1.77-.81,2.84-1c3.67-.58,8.25,2.6,10.87-2.5l0-.1,2.42,2.11C227.63,30.06,227.94,30.88,228.32,31.72Z"/><path class="cls-7" d="M44.42,48.48c-3,2,.87,4.24-.21,6.32-2.13-.44-5.76,1.16-6.14-.94-.46-2.56,1-5.84,2.52-8.22.84-1.3,4.27-4.33,4.62,1.09Z"/><path class="cls-7" d="M59.65,91.95c1.26-6.53,4-12.11,9.87-15.78C66.68,81.71,66.87,89.15,59.65,91.95Z"/><path class="cls-11" d="M90.57,36.78c-.22.43-.44,1.25-.65,1.25-3.56-.07-3.41-5.1-7-5.26,1.58-2.47-.64-7.7,5.16-7.12C89.2,28,86.91,31.41,90.42,33L90,34.83Z"/><path class="cls-9" d="M472.6,145.48c-.34-5.29,4.29-2.77,6.23-3.26s1.9,3,2,4.78,2.86,4.6-1.45,5.19C478.76,148.3,475.53,147,472.6,145.48Z"/><path class="cls-11" d="M76.09,81.21a.5.5,0,0,1-.35-.61c.27-.16.52-.45.82-.51,2.82-.51,3.26-4.94,6.76-4.15,1.07.24.84,1.4.34,2-2.73,3.27-1.93,9.56-8.27,9.74C75.52,85.53,78.2,83.63,76.09,81.21Z"/><path class="cls-11" d="M414.29,60.75c.33,2,2.09,1.58,3.39,2,3.76,1.09,3.17,3,.9,5.16-2.52-2.06-5.44-.89-8.2-1-1.86-4-.49-6,3.88-6.14Z"/><path class="cls-9" d="M433.4,56.68c-2.57,3.71-6.79,2.27-10.23,3.28q-.28-.31-.54-.65a5.36,5.36,0,0,0,.19-.84c0-.12-.14-.25-.22-.38C425,48.29,429.47,54.65,433.4,56.68Z"/><path class="cls-12" d="M243.48,15.34a.61.61,0,0,1-.68-.51c0-1.23-1-1.11-1.79-1.25a6.8,6.8,0,0,0,2.81-5.48c0-1-1.19-2.61.7-3.08.19,0,1,1.83,1.29,2.87.38,1.25.35,2.67.89,3.82a15.75,15.75,0,0,0,2.37,3C247.23,15,245.5,16.48,243.48,15.34Z"/><path class="cls-4" d="M427.35,28.78c.8,5.87-2,11.91.81,17.69l.12,2.27c-5.77-.8-1.77-5.4-3.07-7.93a20.42,20.42,0,0,0-1.9-9C423.48,29.17,425.16,28.63,427.35,28.78Z"/><path class="cls-11" d="M530.29,147.71c2.35,0,4.06.91,3.7,3.49s-2.64,1.48-4,1.45c-2.88-.06-6.59,1.83-7.92-2.78l.11.33Z"/><path class="cls-11" d="M416.25,71.69a31.43,31.43,0,0,0,3.65-1.19c1.24-.57,2.32-2.65,3.74-1.16a3,3,0,0,1,0,4.41c-3.63-.09-4.28,4.17-7.28,5a2.82,2.82,0,0,1-1.87-3.62,3.69,3.69,0,0,0,.84-.43c1-.63,1.53-1.4.87-2.58Q416.13,71.7,416.25,71.69Z"/><path class="cls-11" d="M175.83,15.73c3-.61,5-1.94,4.56-5.55-.23-1.86.27-3.71,2.92-3.4-.26,4,.8,8.08-1,11.94l-5.94-.06Z"/><path class="cls-12" d="M140.13,222.27l.22-2.64c4.2,3.25,8.41,6.47,12.57,9.77.58.46,1.37,1.67,1.22,1.88-.82,1.05-1.73.37-2.54-.25Z"/><path class="cls-12" d="M228.32,31.72c-.39-.84-.69-1.66.24-2.36l9.57-2.2c.84-.19,1.68-1.77,2.44-.51s.07,2.52-1.21,3.33C235.93,32.15,232.09,31.72,228.32,31.72Z"/><path class="cls-11" d="M116.77,85.77c-1.26-.58-4.24.88-3.82-1.35.58-3.1,4-3.52,6.83-3.58,1.47,0,4.33-.53,3.92,1.5C123,85.53,119.72,85.68,116.77,85.77Z"/><path class="cls-9" d="M416.32,78.75c3-.82,3.65-5.09,7.28-5a21.27,21.27,0,0,1-.31,3.9c-.59,2.24,1.11,6-1.44,6.41C420,84.35,417,81.82,416.32,78.75Z"/><path class="cls-7" d="M472.6,145.48c2.93,1.56,6.17,2.82,6.81,6.71-.75,2.36-2.54,3.29-4.57,2.17C471.18,152.31,472.15,148.75,472.6,145.48Z"/><path class="cls-12" d="M275.22,62.12c2.72,1.06,5.49,2.12,8.24,3.23a4.6,4.6,0,0,1,1.09.93,26,26,0,0,1-5.1,1.78c-3.37.46-5.11-2.37-6.89-4.44C272,62.93,274.24,62.79,275.22,62.12Z"/><path class="cls-7" d="M427.86,74.78l1.63,13.79h-2.76C423.42,83.68,426.28,79.28,427.86,74.78Z"/><path class="cls-12" d="M182.33,18.71c1.78-3.86.72-8,1-11.94L189,18Z"/><path class="cls-12" d="M522.13,150.21l-.11-.33c-1.64-.57-3.65-.7-3.74-3.13l6.38-3.82a6.15,6.15,0,0,1,5.57,2.68C527.43,147,522.85,145.18,522.13,150.21Z"/><path class="cls-3" d="M191.1,84.77l2.2,1.22c0,3.41,2.41,3.63,4.93,3.7l.13.12c-.38,2.39,2.62,2.58,2.94,4.52l-7-1.24c-.46-4-3.63-4.08-6.55-4.52,1.23-1.1.77-2.49.64-3.82A2.11,2.11,0,0,0,191.1,84.77Z"/><path class="cls-9" d="M416.25,71.69q-.12,0-.09.43l-.17-.07-1.7.62c-4.26,0-2.93-3.66-3.9-5.82,2.76.12,5.68-1.05,8.2,1Z"/><path class="cls-12" d="M321,50.89c-1.89-.59-5,.82-4.61-1.78.44-3.26,4.22-1.86,6.46-2.71,2-.77,2.75.48,2.68,2.21C325.36,52.6,322,49.46,321,50.89Z"/><path class="cls-14" d="M428.28,48.73l-.12-2.27c1.83-5.62,5.62-10.06,8.94-14.78l1.36,1.4-9.07,15.67Z"/><path class="cls-12" d="M196.51,38.49c0-1.52-.34-3.23,1.68-3.9,2.82.33,5.16-4.19,8.28-.82l-3.65,2.81Z"/><path class="cls-12" d="M226.14,27.24l0,.1-6.43-.48c1.24-.41,1.35-1.48,1.49-2.54a.54.54,0,0,0-.42-.65l.2-.24c3.94,3.3,8.71-.31,12.72,1.75Z"/><path class="cls-14" d="M182.33,18.71,189,18l.43,2.08c-4.2,1.95-8.66,1.66-13.1,1.49l0-2.79.14-.13Z"/><path class="cls-14" d="M524.67,142.93l-6.38,3.82c-2-.37-4-1.38-2.29-3.45C518.43,140.29,521.63,139.56,524.67,142.93Z"/><path class="cls-7" d="M488.28,104.75c-1.11-.12-2-.47-2.2-1.77.74-.36,1.49-1,2.22-1,2.26.06,4.57-2.86,6.74,0,.43.57.86,1.94.67,2.08C493.41,105.73,490.86,105.62,488.28,104.75Z"/><path class="cls-12" d="M405.07,81.59l-1.72,1.27-1.09-2.19c.71-2.29,1.36-4.6,2.14-6.87.37-1.09-.13-2.85,1.53-2.95.31,0,1.22,2.39,1.05,3.56A57.82,57.82,0,0,1,405.07,81.59Z"/><path class="cls-11" d="M190.12,204.89c2.57.21,2.56,2.66,3.27,4.36a43.83,43.83,0,0,1,1.56,5.63c-.5-.25-1.21-.37-1.48-.78-1.56-2.36-3-4.77-4.49-7.19C188.34,205.83,188.51,205,190.12,204.89Z"/><path class="cls-2" d="M169.23,257.06l3.58-1.38,3.34,0c-.09,1.85-2.61,2.85-1.77,5-1.83.83-3.73,2.38-5.25-.44Z"/><path class="cls-12" d="M90.42,33c-3.51-1.59-1.22-5-2.3-7.35,1.6-1.24,2.8-.87,3.16,1.08C91.67,28.87,93.85,31.36,90.42,33Z"/><path class="cls-12" d="M303.24,205.47v-1.32c4.85-.07,9.75-2.95,14.95.09Z"/><path class="cls-3" d="M503.28,293.85l5.91,1.35c-.42,2.6,2.6,3.19,3.09,5.26a5.59,5.59,0,0,1-5.09-1.22C507.7,296.12,502.84,296.91,503.28,293.85Z"/><path class="cls-11" d="M311,48.24c.09,1.47-.26,2.42-1.6,2.07-2-.54-4.22-1-5.32-3.15-.61-1.18.31-1.57,1.13-1.33C307.31,46.43,309.93,45.95,311,48.24Z"/><path class="cls-4" d="M325.54,27.46c1.59-1.7-.44-2.35-1-3.43a3.35,3.35,0,0,1,1-.15c2.72.38,5.73-1.48,8.19,1A13.33,13.33,0,0,1,325.54,27.46Z"/><path class="cls-7" d="M275.38,55.13c-.29,1.9-.94,3.85-3.06,3.94-1.51.07-1.16-1.71-1.15-2.81,0-1.74.27-3.54,2.5-3.61C275.14,52.61,275.53,53.79,275.38,55.13Z"/><path class="cls-3" d="M152.33,59.85l-6,.67-3.08-4,4.09-.6C147.29,59.38,151,58,152.33,59.85Z"/><path class="cls-3" d="M182.2,204.54c-.3-1.64.85-2.33,2-3,.11,2.84.46,5.56,2.6,7.78.69.72,2,2.07.61,2.87-1.21.69-1.83-1-2.35-2C184.08,208.33,183.15,206.43,182.2,204.54Z"/><path class="cls-12" d="M458.55,160.53c-1,.79-1.47,1.47-1.9,1.45a5.73,5.73,0,0,1-4.66-3.12c-.45-.79.62-1.06,1.22-.81C454.84,158.71,456.41,159.52,458.55,160.53Z"/><path class="cls-3" d="M76.09,81.21c2.11,2.42-.58,4.31-.7,6.49l-3.19,1C73.49,86.21,73.07,82.82,76.09,81.21Z"/><path class="cls-3" d="M47.26,59.72l4.94-3,3.18,0c-2,2.88-5.34,3.45-8.1,5Z"/><path class="cls-3" d="M359.91,161.59l5-6.85,1.55,1.31a1.42,1.42,0,0,0,.26.63L361.42,163Z"/><path class="cls-3" d="M479.29,278.68l-5-1.1-1-3.47,6,1.55Q479.29,277.17,479.29,278.68Z"/><path class="cls-14" d="M423.3,31.75a20.42,20.42,0,0,1,1.9,9l-1.92,1-1-10Z"/><path class="cls-12" d="M164.33,215.29a.33.33,0,0,1-.07-.48,22.56,22.56,0,0,1,7.13,7.84,8.46,8.46,0,0,0-.63.65c-2-2.06-4.83-3.39-5.5-6.55L165,215.6l-.8.29A.4.4,0,0,1,164.33,215.29Z"/><path class="cls-4" d="M189.24,44.82l-2,1.94-.51-1.23-.36,1.27-3.13,1q0-1,0-2c1.86-1.29,3.16-5.84,6.07-1.06Z"/><path class="cls-4" d="M357.87,156.86c-.58,2.72-2.31,4.79-4,6.9l-1.7-1.16C353.79,160.38,353.48,156.3,357.87,156.86Z"/><path class="cls-7" d="M164,240.11a1.67,1.67,0,0,1-.45-.18c-2.1-1.7-4.93-2.56-6.17-5.24-.06-.12.71-.88.88-.81a14.55,14.55,0,0,1,6.71,5.36Z"/><path class="cls-3" d="M162.32,67.85,158.39,69l-1.11-4.08L160,64Z"/><path class="cls-14" d="M522.13,150.21c.72-5,5.31-3.24,8.11-4.59l.05,2.1Z"/><path class="cls-4" d="M202.81,36.59l3.65-2.81c.79,0,.51,2,1.82,1l2,1C208,37.58,205.41,37.18,202.81,36.59Z"/><path class="cls-3" d="M90.57,36.78,90,34.83a5.12,5.12,0,0,1,1.44-.05c1.47.38,3.15-1.46,4.43.4.11.16-.21.79-.49,1A4.08,4.08,0,0,1,90.57,36.78Z"/><path class="cls-4" d="M185.29,29.58l-3.8,1.26L179,29.57h0c1,.09,1.78-.09,2.12-1.15L185.4,27Z"/><path class="cls-14" d="M385.95,117.92l-3-2c1.86-.19,3.18-1,3.29-3l2.11,1.7Z"/><path class="cls-14" d="M482.29,136.93l3-1.57c-.26,1.76.93,4.44-1.85,4.73C481.72,140.27,482.55,138.07,482.29,136.93Z"/><path class="cls-14" d="M211.12,25.69c1.44-2.18,3.88-2,6-2.48l.16,1.55v2l-1,0-3-1Z"/><path class="cls-14" d="M210.31,35.76l-2-1c.27-1.15-.66-2.77,1-3.29.42-.14,1.36,1.05,1.95,1.73C212.34,34.5,212.26,35.48,210.31,35.76Z"/><path class="cls-4" d="M244.32,49.84l-5,3-.5-3.45.11-.12C240.66,50.29,242.74,47.56,244.32,49.84Z"/><path class="cls-3" d="M354.07,148.71c-1.1,2-1.38,5-4.93,4.16l2.93-4.49Z"/><path class="cls-3" d="M166.26,53.71l3,.25-1,4.56-2,.11.1-4.48Z"/><path class="cls-14" d="M534.32,314.83l2-1.17,2,4-2,1Z"/><path class="cls-3" d="M178.3,78.81l-3,1.1v-3l3-1.13Z"/><path class="cls-4" d="M373.41,160.81l-1.21,1.93-2.06,0q.36-2.48.72-5Z"/><path class="cls-14" d="M487.32,121.69a4.4,4.4,0,0,1,1.68,3.86,2.18,2.18,0,0,1-1.58.11c-1.91-1.12-.69-2.52-.21-3.84Z"/><path class="cls-3" d="M251.3,203.72a2.14,2.14,0,0,1,1-.06q0,1.56,0,3.12l-4,0Z"/><path class="cls-3" d="M166.65,106.61c-1.17-1.22-1.94-1.84-1.86-2a3.8,3.8,0,0,1,1.5-1.62c.84-.37,1.7.07,1.56,1.11A9.89,9.89,0,0,1,166.65,106.61Z"/><path class="cls-14" d="M479.86,116l.43-4.22h0l3.31.56.11.08c-.29,2.22-1.37,3.63-3.78,3.68Z"/><path class="cls-14" d="M175.83,15.73l.56,2.92-.14.13-2.74,0-.28-3Z"/><path class="cls-14" d="M486.3,145.51l-1.93.29c-1-.88-1.56-2.14-.08-2.67C486.25,142.42,486.17,144.23,486.3,145.51Z"/><path class="cls-4" d="M175.17,59.71a1.16,1.16,0,0,0,.08-.87l0-2.07c1.06.12,2.59-.28,2.69,1.3C178.1,60.09,176.38,59.6,175.17,59.71Z"/><path class="cls-14" d="M487.73,116.54c-.59,1-.15,2.87-2,2.89-.39,0-1.17-.85-1.12-1.22.24-1.81,1.93-1.35,3.08-1.75Z"/><path class="cls-14" d="M489.57,134l-1.44,1.13c-.25-.52-.72-1.07-.68-1.56s.65-.83,1-1.24Z"/><path class="cls-14" d="M430.23,71.78l-.9-1.19c0-1.25.8-1.77,1.91-2l.3.07h.31l.37,2.1Z"/><path class="cls-3" d="M110.81,56.47l2.46-2.73.15,3.41-.7,1.58Z"/><path class="cls-11" d="M394.8,252.47l-.3,1.08-4-1,.23-.84Z"/><path class="cls-14" d="M336.29,189.58c-1-.82-2.87-.89-2.5-2.89l.17-1.29,2.43,1Z"/><path class="cls-14" d="M241,13.58c.79.14,1.76,0,1.79,1.25.13.53.53,1.4.35,1.55-1.31,1.06-2.61.48-3.85-.27Z"/><path class="cls-14" d="M375.29,20.6V18.77c1.38,0,2.79-.08,3,1.82Z"/><path class="cls-4" d="M217.29,26.74q0-1,0-2l3.88-.44c-.14,1.06-.26,2.13-1.49,2.54Z"/><path class="cls-14" d="M440.15,53.24c1.58-.27,3.94-1.77,4.32.7.26,1.68-2.34,1.47-3.88,1.56Z"/><path class="cls-14" d="M447.39,128.79l-2.1,4-1.87-2.64.89-1.36Z"/><path class="cls-4" d="M259.47,64.83l-6.14,1.12C255,63.8,257.4,65.08,259.47,64.83Z"/><path class="cls-14" d="M435.43,66.36c1.32.7,3.64,1,2.79,3.05-.75,1.78-2.07.38-3-.48Z"/><path class="cls-4" d="M411.34,81.56l-2.1,1c.2-.86-.29-2.09,1-2.32C410.54,80.23,411,81.11,411.34,81.56Z"/><path class="cls-4" d="M431.86,68.68h-.31l-.3-.07c.87-2.92,1.95-1.38,3-.14Z"/><path class="cls-3" d="M99.79,34.67l.32,1.09c-.87-.18-2.12.33-2.29-1.06,0-.29.89-.69,1.37-1l.19.22A1.81,1.81,0,0,0,99.79,34.67Z"/><path class="cls-4" d="M213.29,25.76l3,1C214.65,28.35,213.71,27.83,213.29,25.76Z"/><path class="cls-4" d="M432.33,51.1l.9-.37,2.28,1.12-.36,1.94Z"/><path class="cls-14" d="M370.29,18.77a1.79,1.79,0,0,1-2,1.91A1.85,1.85,0,0,1,370.29,18.77Z"/><path class="cls-3" d="M162.64,106.61l-1.36-.28c.39-.42.89-1.24,1.17-1.18C163.32,105.38,163.16,106,162.64,106.61Z"/><path class="cls-3" d="M31.18,127.72v2.07l-1.44-1Z"/><path class="cls-4" d="M200,87.68l.34,2-2,.1-.13-.12A2,2,0,0,1,200,87.68Z"/><path class="cls-4" d="M419.69,51.44l.62-2.23,2,.58C422.11,51.41,421.13,51.79,419.69,51.44Z"/><path class="cls-4" d="M300.75,37.81l-.34,1.9c-.69-.13-1.75,0-1.47-1.09C299,38.22,300.12,38.07,300.75,37.81Z"/><path class="cls-4" d="M190.19,71.72l.25-2,1.41.93Z"/><path class="cls-4" d="M196.86,41.48c-.13.28-.19.68-.38.75a.56.56,0,0,1-.41-1C196.25,41.12,196.58,41.37,196.86,41.48Z"/><path class="cls-3" d="M229.2,222l-2.05-.91C228.79,219.19,229.05,220.45,229.2,222Z"/><path class="cls-4" d="M177.78,46.57l2.36-.88,1.16,1.07q0,.49,0,1-.5,0-1,0h0Z"/><path class="cls-3" d="M44.42,48.48l.79-1.76,1,2.13Z"/><path class="cls-3" d="M339.4,237.71l1,2C339.16,239.52,337.68,239.44,339.4,237.71Z"/><path class="cls-14" d="M476.33,199.77l0,2c-.51-.26-1.39-.44-1.46-.79C474.63,199.89,475.61,199.9,476.33,199.77Z"/><path class="cls-3" d="M175.29,56.77l0,2.07-2-.19A1.82,1.82,0,0,1,175.29,56.77Z"/><path class="cls-14" d="M497.94,107.6a3.37,3.37,0,0,1,.55-.48c.06,0,.34.14.34.22a4.19,4.19,0,0,1-.15.78Z"/><path class="cls-14" d="M447.33,53.84c-1,.62-2.27,1.22-2.59-.38-.38-1.89,1.35-1.64,2.54-1.76Z"/><path class="cls-3" d="M181.29,47.74q0-.49,0-1l2-1q0,1,0,2Z"/><path class="cls-14" d="M323.29,204.75c.58.42,1.67.49,1.15,1.67l-1.15-.63Z"/><path class="cls-14" d="M200.29,232.75c-.69-.56-.55-1.06.21-1.28.13,0,.52.83.79,1.28Z"/><path class="cls-3" d="M200.29,232.75h1l.67,1.13C200.77,234.43,200.71,233.32,200.29,232.75Z"/><path class="cls-4" d="M265.93,47.9c-.62-.18-1.58,0-1.15-1.21-.42-.7-.24-1.18.51-1.42a6.47,6.47,0,0,0,.21.66l.85-.7.92.5Z"/><path class="cls-4" d="M191.68,42.36a5.55,5.55,0,0,1,.48.81.65.65,0,0,1-.05.45,3.18,3.18,0,0,1-.66,0Z"/><path class="cls-3" d="M196.95,220.6a3.32,3.32,0,0,1,.54-.47c.06,0,.34.14.34.22a4.12,4.12,0,0,1-.15.77Z"/><path class="cls-14" d="M539.28,167.94l1-.28.05,1.74Z"/><path class="cls-3" d="M380.15,249c-.09.28-.18.56-.27.85a3.61,3.61,0,0,1-.47-.62c-.05-.11.07-.3.11-.45Z"/><path class="cls-2" d="M192.2,219.86l-1.06-2,.26-.26,1,2Z"/><path class="cls-7" d="M164.93,239.23l1.08,1.2c-.81.7-1.44.26-2-.32Z"/><path class="cls-11" d="M543.56,170.2l-.13.31-.28-.44Z"/><path class="cls-3" d="M111.59,245.23l.55-1Z"/><path class="cls-11" d="M548.44,175.36l-.8.68v-1.58Z"/><path class="cls-2" d="M323.29,204.75v1l-1.27-.53Z"/><path class="cls-2" d="M193.37,220.65l1,2-.23.23-1-2Z"/><path class="cls-12" d="M172.26,223.78l.81.94-.64.39-.09-1.45Z"/><path class="cls-4" d="M414.29,72.68l1.7-.62-.7,2.64a3.69,3.69,0,0,1-.84.43Z"/><path class="cls-14" d="M487.22,121.82l-1.19-.46a2.79,2.79,0,0,1,.25-.33c.36.2.7.43,1.05.66Z"/><path class="cls-11" d="M71.5,127.57l.22,1.51L71,128Z"/><path class="cls-14" d="M444.29,134.83c-.93-.41-1.63-1-1.35-2.14Z"/><path class="cls-4" d="M180.37,32.5l2.31,1.11C181.69,33.7,180.81,33.56,180.37,32.5Z"/><path class="cls-2" d="M361.17,152.19c-.62.69-1,2.17-2.28.75q.07-.55.14-1.11Z"/><path class="cls-3" d="M186.42,46.79l.36-1.27.51,1.23Q186.85,46.75,186.42,46.79Z"/><path class="cls-2" d="M191.14,217.87l-.31-.58.58.32Z"/><path class="cls-3" d="M180.29,48.43l-1,.41,1-1.1h0Q180.29,48.1,180.29,48.43Z"/><path class="cls-3" d="M16.24,68l.79.85Z"/><path class="cls-2" d="M192.4,219.66l1,1-.19.19-1-1Z"/><path class="cls-3" d="M99.4,33a.55.55,0,0,1,0,.77l0,.07-.19-.22Z"/><path class="cls-11" d="M331.47,204.58l.3.75-.77-.28Z"/><path class="cls-12" d="M171.39,222.66l.87,1.12.08-.12c-.76.93-1.1,0-1.58-.36A8.54,8.54,0,0,1,171.39,222.66Z"/><path class="cls-2" d="M194.42,222.65l.31.55-.54-.32Z"/><path class="cls-11" d="M414.45,59.57a.52.52,0,0,1,.76.07l-.92,1.11,0,0Z"/><path class="cls-11" d="M306,186l-.25-.71.67.3Z"/><path class="cls-14" d="M480.29,111.75l-.38-.21.38.21Z"/><path class="cls-11" d="M366.68,156.68a1.42,1.42,0,0,1-.26-.63.91.91,0,0,1,.79.08A1.54,1.54,0,0,1,366.68,156.68Z"/><path class="cls-4" d="M189.36,44.7l.35.28-.47-.16Z"/><path class="cls-14" d="M164.25,215.89l.8-.29.21,1.15Z"/><path class="cls-14" d="M436.16,80.79l-3-4.71,1.69-1.54,4.23,6.2Z"/><path class="cls-2" d="M228.32,133.63c-2.13-.29-4.28-.52-6.4-.9-1.67-.3-4.47.14-4.07-2.38.34-2.16,1.23-5,4.56-5q26.66-.08,53.33-.15c1.71,0,3.4.42,4.12,2.23,2.21,5.55,4.62,11,6.4,16.72,1.16,3.72,0,6.36-4.82,6.45-6.8.13-13.58,1.15-20.38,1.19-5.85,0-11.28.75-17-4.2-3.84-3.32-12.06-1.59-18.32-2.07-1.82-.14-3.75.25-5.46-.23-2-.58-6.15,1-5.5-3,.52-3.19,1.16-7.57,6.59-7,2.26.23,4.61-.35,6.91-.56h13.56v-1.09Zm24.17-3.71c-3.85-.81-3.82,2.07-3.33,4.18.92,4-3.44,10.12,4.4,11.42,9,1,17.86-.85,26.8-.86a2.54,2.54,0,0,0,1.94-.92c.8-1.47-5.56-15.06-7.09-15C267.62,129,260,127.83,252.49,129.92Zm-12,12.73c.4-.46,4.54,3.15,4.68-1.78.14-4.71-3.62-2.9-5.83-3-5.82-.2-11.66,0-17.49,0-1.93,0-3.36.62-3.46,2.7-.11,2.33,1.82,2,3.22,2C227.46,142.68,233.27,142.65,240.53,142.65Zm-12.21-14.73a9.65,9.65,0,0,0-2,0c-1.49.32-4.2-1-4.24.93s2.78,1.64,4.49,1.74c5.59.33,11.19.54,16.79.78,1,0,2.17-.13,2.32-1.32.19-1.53-1.18-1.25-2.08-1.3C238.53,128.47,233.42,128.21,228.32,127.92Z"/><path class="cls-4" d="M198.42,156.8c-1.49-.17-3.17.34-4.25-1.24l27.12-47.8,4.2,1.07Z"/><path class="cls-1" d="M225.5,108.83l-4.2-1.07c3.59-8.91,3.59-8.91-6.57-10.9-.48-.1-1-.24-1.44-.36-.88-2.49-2.35-2.07-4-.8l-8-1.36c-.32-1.94-3.31-2.13-2.94-4.52l2-.1,11.92,2.06c.47,1.85,1.14,2.38,2.18.32,4.27.66,8.52,1.38,12.8,2,4.67.63,5.66,2.83,3.16,6.77C228.75,103.46,227.14,106.15,225.5,108.83Z"/><path class="cls-1" d="M321.28,179.76q0-1.52,0-3c3.25,1.92,6.52,3.8,9.73,5.78,1.08.67,2.46,1.54.34,2.72C327.26,184.75,324.52,181.8,321.28,179.76Z"/><path class="cls-12" d="M228.32,133.63h13.54v1.09H228.28Z"/><path class="cls-3" d="M214.46,92.09c-1,2.07-1.71,1.54-2.18-.32Z"/><path class="cls-1" d="M252.29,206.78q0-1.56,0-3.12l19-.93c.71,1,1.39,1,2-.06l8-.48q0,1.71,0,3.42Z"/><path class="cls-3" d="M209.3,95.7c1.64-1.27,3.1-1.7,4,.8Z"/><path class="cls-1" d="M166.38,54.15l-.1,4.48-14,1.22c-1.28-1.82-5-.48-5-3.94Z"/><path class="cls-1" d="M113.42,57.15l-.15-3.41c-4-2.18-8-.65-11.86.47-1.48.43-2.73,1.44-3.67-.6,2.55-3,16.94-5.73,20-3.71,2,1.31.85,2.5-.28,3.58C116.14,54.73,114.77,55.93,113.42,57.15Z"/><path class="cls-1" d="M152.12,47.2a34,34,0,0,0,21.05.4c1.06-.26,2.36-1,3,.37s-.71,2-1.77,2.34c-2.69.74-5.42,1.32-8.13,2-4.82,0-9.69.26-14.21-1.85C150,49.44,148.36,48.2,152.12,47.2Z"/><path class="cls-1" d="M166.79,34.69c-2.51,1.63-5.13,2.48-8,1,.47-2.2,1.13-2.75,4.7-2.88C164.72,32.76,167.46,31,166.79,34.69Z"/><path class="cls-1" d="M157.8,35.69c-2.16,1.6-4.06,5-7,1C153.06,36,154.87,32,157.8,35.69Z"/><path class="cls-4" d="M173.51,18.75l2.74,0q0,1.39,0,2.79C174.55,21.44,173.28,20.83,173.51,18.75Z"/><path class="cls-1" d="M221.17,24.32l-3.88.44-.16-1.55c1.24-.08,2.67-1.69,3.62.47A.54.54,0,0,1,221.17,24.32Z"/><path class="cls-1" d="M181.19,28.44c-.34,1.06-1.16,1.23-2.12,1.15Z"/><path class="cls-1" d="M99.37,33.87l0-.07a.79.79,0,0,1,.38.86A1.81,1.81,0,0,1,99.37,33.87Z"/><path class="cls-2" d="M322,78.31c.11,0,1.67,1.32,3.31,2.46q66.92,46.73,133.83,93.49c1.29.91,3.28,1.52,3,3.6s-2.45,1.94-3.83,2.74c-14.49,8.39-26.44,5.76-40.56-3.93-43-29.54-87.41-57.12-131.23-85.51-1.84-1.19-5-1.86-4.47-4.69.63-3.15,4-2.34,6.31-2.73C298.88,82,309.4,80.33,322,78.31Zm132.24,99.46,1.39-.85-1.38-1.2a3.61,3.61,0,0,0-.62-.76q-65.07-45.46-130.1-91c-2.38-1.67-4.64-1.47-7.09-1.08q-12.08,1.91-24.14,3.92c-1,.17-2.64-.33-2.81,1.2-.06.57,1.21,1.41,2,1.93,5,3.29,10,6.54,15.07,9.78l97.73,63c.39,2.22,2.14,2.69,4,3.09l8.89,5.24,1.08.73c5.52,3.65,11.07,7.27,16.54,11a4.66,4.66,0,0,0,4.66.71Q446.87,180.62,454.29,177.78Z"/><path class="cls-1" d="M261.34,46.28c-1.62-.26-3.43,0-4.59-1.57.71-3.95,3.16-1.44,4.65-1C263.24,44.23,263,45.44,261.34,46.28Z"/><path class="cls-1" d="M252.85,43.77l-2.62.46c-1-.48-1.57-1.37-.57-2.08a4,4,0,0,1,3.07-.65C253.85,41.83,253.54,43,252.85,43.77Z"/><path class="cls-1" d="M266.36,45.23l-.85.7a6.47,6.47,0,0,1-.21-.66C265.67,45.24,266,45.24,266.36,45.23Z"/><path class="cls-3" d="M273.32,202.67c-.65,1-1.33,1.08-2,.06A1.31,1.31,0,0,1,273.32,202.67Z"/><path class="cls-14" d="M187.74,263.46a82.89,82.89,0,0,1,3.5-8.2c2-3.69,4.65-7.45,9.43-6.88,5.66.68,5.75,5.95,6.88,10.15-1.51,4.69-4,8.75-8.25,11.34C194,273.08,189.81,270.64,187.74,263.46Zm15.65-6.07c-.33-2.43-.67-5-3.27-4.53-6,1-6.75,6.15-7.65,10.91-.45,2.37.95,3.56,3.2,3.09C200.94,265.77,202.36,261.53,203.4,257.39Z"/><path class="cls-4" d="M434.82,74.54l-1.69,1.54-2.91-4.31,2-1Z"/><path class="cls-2" d="M443.29,71,448,73.7l-1.61,1.78-3.41-1.86Z"/><path class="cls-14" d="M443.29,71l-.35,2.6a2.86,2.86,0,0,1-.93-.29c-1.32-1-4.5-1.38-3.5-3.25C440,67.36,441.64,70.61,443.29,71Z"/><path class="cls-4" d="M435.12,49.31c1.32-1.41,2.49-1.66,3.31.47l-.14,0-1.54,1.2Z"/><path class="cls-14" d="M435.12,49.31l1.63,1.63-1.24.91-2.28-1.12Z"/><path class="cls-4" d="M438.43,49.78c-1.65.14-2.13-.68-1.36-2,.48-.83,1.58-1.52,2.41-.51,1.13,1.37-.22,1.92-1.19,2.48Z"/><path class="cls-1" d="M397.25,35.23c1.07,1.67,3.51,3.35,0,5C395.84,38.56,393.74,36.89,397.25,35.23Z"/><path class="cls-1" d="M378.87,42.4c.1,1.07.14,2.17-1.13,2.28-2,.17-1.53-1.67-1.9-2.73s-.16-2.05,1.06-2.17C378.89,39.59,378.27,41.54,378.87,42.4Z"/><path class="cls-1" d="M377.56,44.78c1.94,0,1.86,1.19,2,2.05.19,1.07-.25,2.13-1.47,1.7-.63-.22-1.14-1.38-1.3-2.19C376.71,45.83,377.36,45.17,377.56,44.78Z"/><path class="cls-1" d="M353.29,44.31c-.94-1.34-1.2-2.34,1-2.08C355.36,43.61,355.42,44.51,353.29,44.31Z"/><path class="cls-1" d="M191.1,84.77a2.11,2.11,0,0,1-2.69,0c-.34-1.49-2.39-2.91-.16-4.49C191.35,80.41,190.25,83.21,191.1,84.77Z"/><path class="cls-1" d="M453.43,128.57c3.28.39,6.37,1,7.08,5C457.18,133.3,454,132.73,453.43,128.57Z"/><path class="cls-4" d="M418.78,47.45c-.35.91,0,2.85-1.76,2s-2.43-2.56-.61-4.28C418,45.08,418.08,46.61,418.78,47.45Z"/><path class="cls-1" d="M180.26,47.74l-1,1.1a1.74,1.74,0,0,1-3.09-.11c-.8-1.32.2-2,1.55-2.17Z"/><path class="cls-14" d="M415.29,74.7l.7-2.64.17.06C416.82,73.3,416.27,74.07,415.29,74.7Z"/><path class="cls-5" d="M252.49,129.92c7.48-2.09,15.13-.92,22.71-1.19,1.53-.06,7.9,13.54,7.09,15a2.54,2.54,0,0,1-1.94.92c-8.94,0-17.83,1.87-26.8.86Z"/><path class="cls-13" d="M240.53,142.65c-7.26,0-13.07,0-18.88,0-1.4,0-3.33.3-3.22-2,.1-2.08,1.53-2.7,3.46-2.7,5.83,0,11.67-.21,17.49,0,2.21.08,6-1.73,5.83,3C245.07,145.8,240.94,142.19,240.53,142.65Z"/><path class="cls-13" d="M228.32,127.92c5.1.28,10.21.54,15.31.85.9.05,2.26-.23,2.08,1.3-.15,1.19-1.27,1.37-2.32,1.32-5.6-.25-11.2-.46-16.79-.78-1.7-.1-4.53.22-4.49-1.74s2.74-.61,4.24-.93A9.06,9.06,0,0,1,228.32,127.92Z"/><path class="cls-7" d="M252.49,129.92l1.07,15.6c-7.84-1.29-3.48-7.45-4.4-11.42C248.67,132,248.64,129.11,252.49,129.92Z"/><path class="cls-6" d="M404.33,162.74l-97.73-63c-5-3.24-10.07-6.49-15.07-9.78-.79-.52-2.06-1.36-2-1.93.17-1.53,1.78-1,2.81-1.2q12.06-2,24.14-3.92c2.45-.39,4.71-.58,7.09,1.08q65,45.56,130.1,91a3.61,3.61,0,0,1,.62.76v2q-7.41,2.86-14.82,5.72a4.66,4.66,0,0,1-4.66-.71c-5.47-3.72-11-7.34-16.54-11,.56-1.32,1.49-2.6.58-4.1-.11-.18-.54-.16-.82-.23l-.85,3.6-8.89-5.24C408,163.45,406.17,163.1,404.33,162.74Z"/><path class="cls-5" d="M417.18,171.07l.85-3.6c.28.07.72.05.82.23.9,1.5,0,2.78-.58,4.1Z"/><path class="cls-8" d="M404.33,162.74c1.84.36,3.69.72,4,3.09C406.47,165.43,404.72,165,404.33,162.74Z"/><path class="cls-5" d="M454.29,177.78v-2l1.38,1.2Z"/><path class="cls-11" d="M203.4,257.39c-1,4.14-2.46,8.37-7.72,9.47-2.25.47-3.65-.72-3.2-3.09.9-4.76,1.69-9.9,7.65-10.91C202.73,252.43,203.06,255,203.4,257.39Z"/></g></g></svg>