<svg xmlns="http://www.w3.org/2000/svg" viewBox="0 0 242.44 261.97"><defs><style>.cls-1{fill:#1a1613;}.cls-2{fill:#dddacb;}.cls-3{fill:#45403e;}.cls-4{fill:#14100d;}.cls-5{fill:#352e2b;}.cls-6{fill:#e5e3d5;}.cls-7{fill:#cbcbba;}.cls-8{fill:#6d6965;}.cls-9{fill:#8b8882;}.cls-10{fill:#d4d1c1;}.cls-11{fill:#5d5b58;}.cls-12{fill:#7b7670;}.cls-13{fill:#292522;}.cls-14{fill:#b9b7a6;}.cls-15{fill:#c8c6b5;}</style></defs><title>Asset 1</title><g id="Layer_2" data-name="Layer 2"><g id="Layer_1-2" data-name="Layer 1"><path class="cls-1" d="M88.08,140.09c-1.87-2.2-6.84-1.15-6.26-5.94C84,130,79.39,130.74,78.15,129l.2-1.86c1.15-1.29,1.65-4,3.59-3.53s-.12,2.49.24,3.85c.64,2.39,2.88,2.49,4.54,3.34s2.73-.4,3.7-1.58c4.86-5.93.93-7.43-4.19-8.34.34-2.64,1.28-2.34,3.63-1.58,3.79,1.21,4.36-2.3,5-5,.31-1.27.23-3.57-1.26-2.93-4,1.72-9.86,1.32-10.39,7.75-3-3.72.2-7.47-.06-11.2l0-2.08c8.37,2,10.3-2.65,10.45-9.71,0-2.27,1.36-4.52,2.28-7.33.47,2.79-.52,6.25,3.82,5.3l-.18-.05c.67,3.64-3.2,7.08-.45,10.81,0,2.75,3.07,1.64,4,3.22l-1,2.92-1.74-.29-.76-.27.28.76,2.2,2.81h0l1,1h0l1,2,0,0,1,1h0c0,1.35.76,1.95,2,2,2.15,2,3.13-1.73,5-1q-.06,1.45-.12,2.91c-.23.38-.47.75-.67,1.14,0,0,.22.19.34.28l.57-1.21c2.34-.51,3.64-2.27,4.89-4.09l2,.47-.08.1c.62,1.75.56,4,3.08,4.4v1c0,2.52-2.35,3.76-3.13,5.86l-6.6-1.2c-1.44-.76-2.87-1.29-4.13.31a51,51,0,0,0-4.83,2.4c-1.13.7-4.56.41-1.87,3.3.67.72,1.79,1.25,1.14,2.4-.8,1.41-2,.41-3.09.28-1.8-.22-3.63-.25-5.45-.36C89.5,132.77,90.32,139.46,88.08,140.09Zm21.71-13.78.15-.43c-.13,0-.33-.15-.36-.12a1.23,1.23,0,0,0-.17.42Z"/><path class="cls-2" d="M40.5,57.46A34.67,34.67,0,0,1,47.27,44l3.42-5.11.7.38L51,38.58l.2-1.54,3.26-2.33c.18,1.07.69,2.2.5,3.2-2.21,11.91-4.14,23.9-7.05,35.65-.8,3.24.68,7.06-1.24,9.23-2.59,2.95-2.33,4.4.61,6.22l.76.17,1.08.92a2.21,2.21,0,0,1,.09,1L48,91.24l-2,.63c-1.72,1.34-3.64,2.61-1.89,5.21-4.74,2-6.59-2.64-9.77-4.23l-2.93-1.14-.34-2.62c-.72-5.37,5-9,3.9-14.49a.35.35,0,0,1,0-.53c2.75-.77,4.92-1.8,2.26-5C37.56,65,42.08,62.06,40.5,57.46Z"/><path class="cls-3" d="M215.12,173c-5.62,10-11.41,20-16.83,30.17-7.69,14.44-15.12,29-22.64,43.55-2.12,4.1-4.15,8.26-6.28,12.35-.65,1.24-1.23,3.58-2.84,2.67-1.33-.75-4.54-.16-3.85-3.39,1.84-.42,3.42-1,2.42-3.44l1.25-2c3.74-.91,8.79-10.85,7.68-15.1l.13-1.81.91-.32c.37,1.24.64,3.2,2.06.66,2.13-3.81,4.08-7.73,6.12-11.59.7-1.33,1.12-2.5-1-2.74-.47-2.16,1.38-3.3,2.16-4.91l6.82-13,.94-3.05c5.78-5.46,6.91-13.51,11.12-19.85A5,5,0,0,0,205,176c.1-.78,1.58-1.23.53-2.28l2.63-1.72,1.08,0c1.66,1.91,2.15.1,2.89-.91Z"/><path class="cls-4" d="M83.22,105.89l0,2.08c-4.85,4.27-4,10.69-6.08,16L75,121l.22-2.91,1.91-7c3.77-6.94,4.82-14.55,5.5-22.26L83.17,87l1.29-1.84c1.33-.47,1.81-1.27,1-2.56l.94-4.47c1.21-.39,2.14-.87.7-2.13.42-1.59,1-3.17,1.24-4.79,1.12-6.86,5-13.16,4.23-20.41L94.1,45l1.22-.93c1.24-.38,2.4-.78.66-2.09.17-4.46,4-8.3,2.21-13.08a5,5,0,0,0,0-.89,4.47,4.47,0,0,0,.16-.93l1.06-.24a.94.94,0,0,0,.66-.67l.11-1.18a3.34,3.34,0,0,1,.17-.94l3.81.22Z"/><path class="cls-5" d="M119.07,118.65l.08-.1q0-1.26,0-2.52l-1-1.94c2.59-1.75,9.61.41,6-6.81v-1.35a4.08,4.08,0,0,1,4.91.57c2.86,3.19,6.22,2.34,9.61,2.11.52,1.73,4.08,1.6,2.73,4.47-3.67-1-7.31-2.06-11-2.92-.8-.19-1.8.4-2.67.71a3.27,3.27,0,0,0,.31,1.24c4.63.15,8.6,6.47,13.77,1.54l2.42,3.3a18.41,18.41,0,0,0-1.08,11,7.41,7.41,0,0,0-1.8,8.79c1.17,2.89-.9,2-2.17,2.26-3.25,1.69-3.55,5.6-6,7.91l-1,2.1h-1l-1.93.06-.16-2.25c-.66-2.45,3-3.36,2.07-5.91.72-1.44,1.07-3.39,2.23-4.23,5.14-3.72,1.14-8.48,1.77-12.67.45-3,4.29-7.78-2.91-7-3.76.43-1,4.63-2.14,6.85l-1.95-.11c.42-3.15-3.87-4.5-3-7.82l2,0c.7,1,1.36,1,2-.06-2.52-4-5.25-.57-7.89-.23a3.35,3.35,0,0,0,.43.22,3.42,3.42,0,0,0,.48.1l-.19,3.2Z"/><path class="cls-4" d="M239.16,63.5c4,.8,3.51,3.73,2.77,6.41-3.79,13.77-8.65,27.33-11.32,41.3-2.93,15.31-7.72,30.09-10.89,45.29l-1.88-2.33c.24-4.18,2.89-7.91,2.25-12.24,2.27-9.22,4.48-18.44,6.81-27.64,3.49-13.76,7.06-27.5,10.6-41.25,2.31-.91,1.92-2.36.79-4Z"/><path class="cls-3" d="M126,222.16c-1-6.23,1.67-11.28,5.28-16,4.21-1.59,5.47-5.49,7.11-9.08,1.84-.94.06-2,.09-3l.38,0,.35-.16c5.58-1.58,7.28-6.53,9.57-11l2.89-3,3-3.84,2.53-.19,2.26,2.17-1.62,2.67c-4.49,7-11.06,12.59-14.57,20.33l-12.91,16.89C127.4,217.88,127,220.39,126,222.16Z"/><path class="cls-6" d="M7.47,171.51c-2.38-2.69-3.63-5.42-.34-8.35,3.63-3.41,3.47-8,3.77-12.38l.25-1.87,2.31-4.18,6.72.3,1-1c4.31-.55-2.1-3.46.76-3.87,4.23-.62,2.74-4.87,4.81-6.77A9.69,9.69,0,0,0,20.8,131a5.75,5.75,0,0,1-1.68-.86c.25-.29.68-.87.73-.83,5.77,3.49,9.32-2.42,14-3.29l-1.3,3-4.46,9.92c-3.71,2.12-4.09,6.43-6.26,9.56-.89,1.28-2.94,3-1.36,4.17,2,1.44,2.39-1.67,3.7-2.52L26.14,149v2c-.13,4.66-3.95,3.76-6.71,4.45a25.45,25.45,0,0,0-6.57,7.92C11.2,166.17,9.28,168.8,7.47,171.51Zm12.1-23.74c-.34-1.52-1.35-1.65-2.33-1.66-1.44,0-2.63.51-2.87,2.08-.19,1.24.6,2,1.73,1.58A21,21,0,0,0,19.58,147.77Z"/><path class="cls-2" d="M20.17,145l-6.72-.3c.69-2.69,1.36-5.37,2.08-8.05.76-2.87-1.35-1.1-2.2-1.38L17.19,124c1.73-.25,2.2-1.45,2.25-3,1.46,0,3.33-.54,4.31.15,3.17,2.24,8.78-2.77,10.37,3.58l.08,1.31-.3-.1c-4.72.87-8.28,6.78-14,3.29-.06,0-.48.54-.73.83a5.75,5.75,0,0,0,1.68.86,9.69,9.69,0,0,1,5.93,2.45c-2.07,1.9-.58,6.15-4.81,6.77-2.86.42,3.55,3.32-.76,3.87C19.73,143.26,20.39,144.59,20.17,145Z"/><path class="cls-7" d="M154.63,176.23l-3,3.83c-.54-2.17-3.14-.93-3.49-1.55-2.11-3.79,2.35-1.52,3-3-6.39-3.72-8.72-.09-9.95,5.53l-4.32,0c-2.2-2.58,1.14-3.91,1.33-6,1.72.38,1.87-1,2.38-2.06l6.6-1.37c-1.35-1.06-4,.11-3.84-2.52.23-3.22,3.24-1.32,4.75-2.37-.86-1.4-5.95-.27-3.07-3.49,3.54-4-1.24-2.15-1.67-3.21l.78-3.83a1.63,1.63,0,0,1,.89-.43c1.75,3.35,4.67,3,7.65,2.42.76,2.69,2.81,4.27,4.95,5.78L157.1,168C154.23,170.13,155.47,173.49,154.63,176.23Z"/><path class="cls-1" d="M147.17,120.18c3,.29,3.66,3,5,5l1.66,1c1.52,1.34,2.71,3.57,5.32,2l1-.23c.63,1.29,1.8,1.24,3,1.18l1.25.09a.36.36,0,0,1,.3.54c-1.44,1.87.41,1.07,1,1.26l-.11-.09c1,.47,2.4.87,2,2.26-.14.49-1.58.62-2.42.92l-1-.7-.24.36,1.22.4c0,4.74,2.95,2.07,4.89,2a9.21,9.21,0,0,1,.18,1c-.09,2.55-2.22,5.67,2,7l-2,3-16-5c-1.28-2.73,14-4.8.33-8.05-.17,0-.24-.59-.3-.91-.67-3.32-3.23-3.82-6-4Zm14.35,12.44-.6-.19.09.34Z"/><path class="cls-8" d="M239.16,63.5l-.87,5.58-4.75.1A7.36,7.36,0,0,0,226,65.64l-3.9-2c-.55-1.57,2.07-3.47-.47-4.8a11.38,11.38,0,0,0-2.32-.65l.82,4.84a.39.39,0,0,1,.09.56l-11-4.77a7.17,7.17,0,0,0-6-1.62,11.53,11.53,0,0,0-1.93-8.2l31.18,11.89c-2.91,2.09.32,2.63,1.07,3.16,2.27,1.63,2.68,0,2.63-1.92Z"/><path class="cls-3" d="M176,78c2.29-9,7.7-16.65,11.8-24.84.56-1.11,1.75-2.74,1.79-3.6.22-5,2.51-4.57,5.72-2.72-.61,1.44-5,.94-2.15,4.16q0,.46-.05.92c-1.32,3.4-1.35,7-1.33,10.52-2.46,6.72-1,13.87-2.23,20.73l-.8,6.8-.83,0c-1.14.21-3.15,2.5-2.63-1.17q1.76-12.38,3.41-24.78c.17-1.28.2-2.58.29-3.88l-2.94,1.87a28,28,0,0,0-4.86,10l-1.86,3L179.13,78Z"/><path class="cls-9" d="M64.14,4.6c0-2.53-1-5.91,3.84-4.07,9.58,3.64,19.24,7.1,28.81,10.77,1.62.62,3,1.9,4.46,2.88l-.94,2.89c1.19,2.82-.27,3-2.44,2.42,0-1.8-1.45-1.65-2.55-2C87.07,12.9,78.19,9.85,69.27,6.9c-1.36-1.25-2.93-.85-4.49-.58Z"/><path class="cls-10" d="M176,78l3.1,0L180.19,81c-2,.34-5.25-1-4.91,2.79.28,3.13-1.39,5.55-2,8.32a3.4,3.4,0,0,0,0,.91l-1.13,1.09c-1.66,1.66-1,2.51,1,2.95l.94,1.85-.92,1.12c-3.38-1.74-4,.22-4,3-1,.15-2,.46-1.75,1.74.31,1.51,1.67,1.18,2.75,1.26-.3,1.22-.39,3.39-.94,3.51-9,2-8.36,7.91-6,14.54l-1,.95a1.87,1.87,0,0,0-2-2l-.86-2.47-.72.4,1.55,2.1c-4,1-2.13,3.07-1,5-2.61,1.61-3.8-.62-5.32-2,1.93-3.9,3.66-7.93,5.87-11.66,1.49-2.51.4-2.54-1.56-2.41.93-2.86,1.77-5.79,5-7,4.71-4.29,5.69-10.65,8.74-15.87.55-.94-.92-.93-1.67-1C172.41,84.92,171.74,80,176,78Z"/><path class="cls-3" d="M32.15,228a4.94,4.94,0,0,1-4.08-1.87L30.16,221l.27-1.25c4.93-4.52,6.4-10.62,7.67-16.81a2.45,2.45,0,0,1,.3-.83c1.27-.29,2.17-.74.86-2.09l1.11-1.92C44.51,194.3,44.8,188.37,48,184c2.07,1.77,3.24-.74,4.88-1L39.87,212c-1.42.38-1.73,1.31-1.3,2.61L36.12,220C32.5,221.55,32.81,225,32.15,228Z"/><path class="cls-11" d="M112.43,128.7l6.59,1.2.51.48.62,7.7a1.87,1.87,0,0,0,1.9,2.05l2.08,2c-2.24,2.34-.57,5.12-.89,7.68-.78,3-5.69,5.53-1.08,9.17-3.6,1.89-7.35-.3-11,.42-1.56-2.9-5.09-1.74-7.21-3.49l.22-1.91a7,7,0,0,0,2.37.63c3.1-.33,3.75-4,6.51-4.89-.67-1.36-1.93-.46-2.89-.75l2.3-2,1.75,0,1.17.2a2.81,2.81,0,0,0,3.88,0c1.13-1,1.11-2.21-.15-3.23.1-2.05.22-4.11-1-5.94-.41-2.12,1.24-4.77-1.61-6.26l-2.14-1.07L112,129.28Z"/><path class="cls-6" d="M47.26,89c-2.94-1.83-3.2-3.28-.61-6.22,1.91-2.17.43-6,1.24-9.23,2.91-11.75,4.84-23.73,7.05-35.65.19-1-.32-2.13-.5-3.2L51.18,37l1-6.8L54,25.07c4.3.3,2.18-5.17,5.32-5.92L55.88,46,49,83Z"/><path class="cls-5" d="M76.14,132,62.89,160c-2.11.66-1.69,2.17-1.23,3.68L61,165c-4.15,3.4-5.17,8.42-6.8,13.11l0-.06-2.46.28c-1.31-2.47.87-4,1.67-5.87,3.83-8.78,9-17,10.48-26.72l1-1.72c1.67-1,2.59-2.32,1.86-4.34l1-1.66c1.27-.45,1.45-1.28.84-2.39L70,133c2.23-.44.41-3.85,3-4l2.36.17C75.24,130.23,74.65,131.44,76.14,132Z"/><path class="cls-12" d="M30.16,221l-2.09,5.11-28-36,2.9-2.06L6,191.15C11.75,199.36,19.49,206,24.27,215l3.61,2.83C28.32,219.12,28.66,220.49,30.16,221Z"/><path class="cls-8" d="M138.66,108.61c-3.38.23-6.75,1.08-9.61-2.11a4.08,4.08,0,0,0-4.91-.57c-2.17-.29-4.16-1.77-6.49-.93l0,0c-1.87-2-3.85-3.26-6.42-1.08l-.09,2.36c-1.17-.82-2.33-1.69-3.9-1.05-1.8-1.78-4.28-.32-6.25-1.3,7.81-5.45,16.69-6.12,25.33-3.78A23.22,23.22,0,0,1,138.66,108.61Z"/><path class="cls-13" d="M122.16,159c-4.61-3.64.29-6.16,1.08-9.17l1,1c1.89,2.14,3,.55,4-.9l.77,0,2.13-1h1l1,0,0,0c.53,2-1.29,4.59,1.42,6.11.45,2.77,5.45,3.39,4.16,5.78-1.09,2-4.33-1.55-6.7-.83C128.51,161.14,125.5,158.71,122.16,159Z"/><path class="cls-1" d="M145,155.72a1.63,1.63,0,0,0-.89.43c-2-1,0-2.95-.93-4.2l0-3.84a5.58,5.58,0,0,1,1-.1c2.14,1.36,4.6,1.4,5.61-.84,1.3-2.86,3-.92,4.51-1.09,1.8,1.49,5.28,1.31,4.91,5-1.9,2.68,3.54,4.49.86,7.27-3.91,1.57-4.13-4-7.33-3.78C149.64,151.76,147.13,152.51,145,155.72Zm12.31-.41a1,1,0,0,0-.38.13s.05.22.08.34a1.06,1.06,0,0,0,.38-.13S157.35,155.43,157.32,155.31Z"/><path class="cls-11" d="M126,222.16c1.06-1.78,1.44-4.28,4.36-4.07.51,4.15,3.58,6.12,6.79,8,1.61,3.58,4.87,5.75,7.31,8.63-.26,1-1.6,1.88-.44,2.88.87.74,1.72.14,2.27-.75,1.42.15,2.75.44,3,2.18-4,.32,1.42,4.4-2,5a14.74,14.74,0,0,1-6.23-6.51c.11-2.43-1.18-3.41-3.46-3.36l-.52-.7-1.25-1.29-4.73-4.84c.07-1.52-.62-2.28-2.17-2.18Z"/><path class="cls-4" d="M55.88,46l3.43-26.82c1.52-1.73,1.26-3.56.29-5.42,1.64-3-.28-7.73,4.54-9.13l.64,1.72-1,6.62c-1.38.38-1.77,1-.57,2.11l-.51,4.87c-2.53.67-1.48,2.6-1.48,4.17l.41,3.07L60.48,31l.42,3.09C58.14,37.49,60,41.68,59,45.37c-.87-.51-1.39-.12-1.75.68Z"/><path class="cls-9" d="M31.48,91.71l2.93,1.14c-.75,1.1-5.5.89-.82,3.79,2.5,1.55,5.17,4.52,3.5,8.51l-3.75-.3L29.21,101c-1.41-1.95-3.45-.64-5.16-1l.31-8C26.67,90.58,29.29,96.2,31.48,91.71Z"/><path class="cls-3" d="M88.08,140.09c2.24-.63,1.43-7.32,6.11-3.07,1.75,2.9,8,1.31,7,7a5.6,5.6,0,0,1-.82,1.65c-1.23,1.2-4.4-.72-4.28,1.41.15,2.74,3.26,1.61,5.16,2l-.06,0a1,1,0,0,0,.25.93c-1.78,2.39-4.43.42-6.52,1.3a7.81,7.81,0,0,1-3.1-5.8c.82-.47,1.61-1,2.46-1.39,1.21-.56,3.63,1,3.55-1.19,0-.91-2.88-1.86-4.76-1.18A29.21,29.21,0,0,0,90,143.19,3,3,0,0,1,88.08,140.09Z"/><path class="cls-8" d="M147.29,244c3.39-.57-2.05-4.65,2-5l5,3c-.27,6.11,6.84,6.25,8.65,10.67l2.23,2.25c1,2.42-.58,3-2.42,3.44l-.07-.06c-.8-1.57-1.18-3.67-3.77-2.93l.27-.18c-.31-1.15-1.21-1.16-2.14-1.13l-1.85-1.84c.18-3.39-1.31-5.21-4.81-5.16Z"/><path class="cls-5" d="M7.47,171.51c1.81-2.7,3.73-5.34,5.39-8.13a25.48,25.48,0,0,1,6.57-7.93c.91,1.25.28,2.16-.24,3.48-1.88,4.79-6.23,8.17-7.35,13.32L7,179.59,6,181c-2.11-3,1.29-5.27,1.1-8a.85.85,0,0,0,0-.94A.41.41,0,0,0,7.47,171.51Z"/><path class="cls-10" d="M33.35,104.84l3.75.3a4.68,4.68,0,0,1,.18.84c-4.18,4.08-8.95,5.24-14.42,2.92l.31-4.43c.54-1.42-2.71-3.59.87-4.42,1.72.35,3.75-1,5.16,1-.86.42-2,.88-1.31,2C29.13,105.21,31.19,105.32,33.35,104.84Z"/><path class="cls-1" d="M215.12,173l-3-2c.84-1.2,3.08-2,1.22-4,1.27-2.69.09-5.22-.52-7.78l-.38-3a18.48,18.48,0,0,0,3.06-8.63,1.34,1.34,0,0,0,.65-.56c2.1,2.32-1,4.77.18,7.11-1.18,1.93-1.94,4.16-1.28,6.2.18.56,1.19-2.91,3.31-2.27A40.24,40.24,0,0,1,215.12,173Z"/><path class="cls-5" d="M101,103.94c2,1,4.45-.48,6.25,1.3,1.38,2.94,3.57,4.73,6.92,4.87a2,2,0,0,1,0,.59l1,2.34,0,0,1,1v0l0,2.1,0,0-2.06-.06c-3.3-2.45-8.37-3-8.84-8.44l-2.2.56c-.92-1.58-4-.47-4-3.22Z"/><path class="cls-8" d="M94.9,151.21c2.08-.88,4.74,1.09,6.52-1.3a1.58,1.58,0,0,1,.51.15l2.29.09c1.55.51,3.85,4,4-1l1.92-.13c1,.29,2.21-.61,2.89.75-2.76.86-3.42,4.56-6.51,4.89a7,7,0,0,1-2.37-.63L102,152.42l.18,3.49C99,155.54,96.9,153.46,94.9,151.21Z"/><path class="cls-11" d="M7.13,173c.19,2.75-3.21,5-1.1,8l-3.09,7.07L0,190.12a22.6,22.6,0,0,1,6.11-17.38Z"/><path class="cls-6" d="M138.35,197.08c-1.65,3.59-2.91,7.49-7.11,9.08-2.83-3.09-1.13-5.64,1-8.15,1.45.06,3,.23,1.91-2.07l.95-3,2.09,1.11C137.36,195.14,135.66,197,138.35,197.08Z"/><path class="cls-13" d="M97.88,19.48c2.17.56,3.62.4,2.44-2.42,4.69-1.32.6,5.69,4.69,4.94l-.87,2.3-3.81-.22-.92-1.42L98.13,25c-1.29.71-.86,1.89-.81,3-1.47,0-3.09.52-4.19-1C94.42,24.28,95.31,21.35,97.88,19.48Z"/><path class="cls-12" d="M193.19,51c-2.84-3.22,1.54-2.72,2.15-4.16A10,10,0,0,1,201.27,49a11.53,11.53,0,0,1,1.93,8.2q0,.42,0,.84l-1-.89c0-1.52.1-3-2.07-3.06l.06,0C198.57,51.42,195.79,51.43,193.19,51Z"/><path class="cls-3" d="M170.24,88.16c.75.08,2.22.06,1.67,1-3.05,5.22-4,11.58-8.74,15.87C163.25,98.46,168,93.82,170.24,88.16Z"/><path class="cls-11" d="M23.18,104.47l-.31,4.43L20.39,116v1l-1,4c0,1.52-.51,2.73-2.25,3C18.07,117.15,18.63,110.2,23.18,104.47Z"/><path class="cls-11" d="M134.56,155.13c-2.7-1.52-.89-4.09-1.42-6.11l4-1.93c1.36,2.07,3.58-.22,5.11,1-.88,3.09-4.49,3.35-6,5.79Z"/><path class="cls-3" d="M141.8,113.65c-5.17,4.93-9.14-1.39-13.77-1.54a3.27,3.27,0,0,1-.31-1.24c.87-.32,1.87-.9,2.67-.71,3.7.85,7.35,1.92,11,2.92l.37.17Z"/><path class="cls-11" d="M40.5,57.46c1.58,4.6-2.94,7.51-3.21,11.6L34.6,71.33C35.53,66.27,37.1,61.47,40.5,57.46Z"/><path class="cls-2" d="M143.35,160c.43,1.06,5.21-.75,1.67,3.21-2.88,3.22,2.21,2.09,3.07,3.49-1.51,1.06-4.53-.84-4.75,2.37-.18,2.63,2.49,1.46,3.84,2.52l-6.6,1.37c-.19-3,3.42-5.81.57-9Z"/><path class="cls-11" d="M13.34,135.29c.84.28,3-1.49,2.2,1.38-.71,2.68-1.39,5.37-2.08,8.05l-2.31,4.18C10,144.06,13.11,139.91,13.34,135.29Z"/><path class="cls-5" d="M99.58,94.1l.18.05c-.44-6.63,3-12.51,3.64-18.94,0-.29.66-.51,1-.77.26.54.86,1.18.73,1.59C103.23,82,103.23,88.64,99.58,94.1Z"/><path class="cls-11" d="M147.17,120.18l1,8.87a4.37,4.37,0,0,0-.92,0c-.36-1.38-.54-3.08-2.16-3.36-.49-.08-1.27,1.53-1.91,2.37l-.08-.1a18.41,18.41,0,0,1,1.08-11Z"/><path class="cls-3" d="M158.18,112.06c2-.13,3-.1,1.56,2.41-2.22,3.73-3.94,7.76-5.87,11.66l-1.66-1Z"/><path class="cls-12" d="M31.48,91.71c-2.19,4.49-4.81-1.13-7.13.3.13-2.76,1.79-4.58,3.76-6.23,1.64.53.61,3.51,3,3.31Z"/><path class="cls-11" d="M10.9,150.78c-.29,4.42-.14,9-3.77,12.38C6.95,158.6,7.28,154.19,10.9,150.78Z"/><path class="cls-5" d="M105,22c-4.09.75,0-6.26-4.69-4.94l.94-2.89C106.15,15,108.44,17.15,105,22Z"/><path class="cls-11" d="M141.13,164c2.85,3.19-.75,6-.57,9-.51,1-.66,2.45-2.38,2.06A17.5,17.5,0,0,1,141.13,164Z"/><path class="cls-12" d="M52.22,30.24l-1,6.8L51,38.58l-.29.3L47.27,44C47,38.73,49.42,34.42,52.22,30.24Z"/><path class="cls-8" d="M35,74.06a.36.36,0,0,0,0,.53c-3.12,2.88-2.24,8.39-6.8,10.31,1.82-4,1.74-8.94,6-11.64Z"/><path class="cls-6" d="M28.25,84.9C32.81,83,31.93,77.47,35,74.59c1.13,5.48-4.62,9.12-3.9,14.49-2.43.2-1.4-2.78-3-3.31A2.08,2.08,0,0,1,28.25,84.9Z"/><path class="cls-9" d="M59.6,13.73c1,1.86,1.23,3.69-.29,5.42-3.14.74-1,6.22-5.32,5.92C55.48,21.1,56.58,16.94,59.6,13.73Z"/><path class="cls-11" d="M54.23,178.12c1.63-4.7,2.65-9.72,6.8-13.11C59.22,169.61,58.33,174.7,54.23,178.12Z"/><path class="cls-2" d="M136.85,181l4.32,0c.45,1.33-2.79,3.53,1,4.07l0,1.06-2-.09c-1.26-.68-1.82,2.12-3.24.65l.14-2.44C137.28,183.15,133.08,182.35,136.85,181Z"/><path class="cls-11" d="M137.1,184.27l-.14,2.45-1.6,5.27-.3,1-.95,3-1.82-1.07,2.08-8.68a1.78,1.78,0,0,0,2-1.92A1,1,0,0,1,137.1,184.27Z"/><path class="cls-4" d="M136.24,153.88c1.5-2.45,5.11-2.7,6-5.79l.46,0,.46,0,0,3.84A7,7,0,0,1,136.24,153.88Z"/><path class="cls-9" d="M103.95,155.95c2.12,1.75,5.65.59,7.21,3.49-3.56,2-5.77.32-7.43-2.78A.93.93,0,0,1,103.95,155.95Z"/><path class="cls-8" d="M90,143.19A29.21,29.21,0,0,1,93,141.66c1.88-.69,4.73.27,4.76,1.18.09,2.2-2.34.63-3.55,1.19-.85.4-1.64.92-2.46,1.39Z"/><path class="cls-3" d="M78.15,129c1.24,1.69,5.89.93,3.68,5.11l-4.63-2.29q0-1.44-.08-2.87Z"/><path class="cls-3" d="M218.39,158.09c-2.12-.64-3.12,2.83-3.31,2.27-.66-2,.09-4.27,1.27-6.2l1.49,0,1.88,2.33A1.36,1.36,0,0,1,218.39,158.09Z"/><path class="cls-5" d="M52.92,183c-1.64.28-2.82,2.79-4.88,1a8.9,8.9,0,0,1,3.71-5.68l1.6,2.75Z"/><path class="cls-11" d="M32.15,228c.66-3,.35-6.46,4-8C35.12,222.86,35.36,226.29,32.15,228Z"/><path class="cls-11" d="M236.15,62.12c0,1.93-.37,3.55-2.63,1.92-.74-.53-4-1.07-1.07-3.16Z"/><path class="cls-6" d="M35,74.06l-.76-.8.32-1.93,2.69-2.28C39.95,72.26,37.78,73.29,35,74.06Z"/><path class="cls-3" d="M150.3,247.08c3.5,0,5,1.77,4.81,5.16Z"/><path class="cls-3" d="M103.95,155.95a.93.93,0,0,0-.21.71l-1.52-.75-.18-3.49,2.14,1.62Z"/><path class="cls-3" d="M158.84,255.4c2.59-.74,3,1.36,3.77,2.93C160.17,258.87,159.55,257.07,158.84,255.4Z"/><path class="cls-3" d="M137.6,234.12c2.29,0,3.58.93,3.46,3.36Z"/><path class="cls-11" d="M77.11,129l.08,2.87-1.05.17c-1.49-.6-.9-1.81-.84-2.86l1.67-.32Z"/><path class="cls-3" d="M53.34,181.1l-1.59-2.75,0,0,2.46-.28C54.12,179.13,54.78,180.41,53.34,181.1Z"/><path class="cls-11" d="M61.66,163.65c-.46-1.52-.88-3,1.23-3.68Z"/><path class="cls-10" d="M132.29,194.88l1.82,1.07c1.11,2.3-.46,2.13-1.91,2.07Z"/><path class="cls-8" d="M38.57,214.58c-.43-1.3-.13-2.23,1.3-2.61Z"/><path class="cls-14" d="M136.36,184.28a1.78,1.78,0,0,1-2,1.92C134.08,184.58,135.08,184.28,136.36,184.28Z"/><path class="cls-3" d="M128.92,225.11c1.56-.11,2.25.65,2.17,2.18Z"/><path class="cls-3" d="M157,254.08c.93,0,1.84,0,2.14,1.13C157.91,255.75,157.56,254.68,157,254.08Z"/><path class="cls-6" d="M7.13,173l-1-.25,1-.69A.85.85,0,0,1,7.13,173Z"/><path class="cls-3" d="M135.83,232.13l1.25,1.29Z"/><path class="cls-3" d="M77.1,124c2-5.33,1.23-11.76,6.08-16,.26,3.73-3,7.48.06,11.2l3,1.75c5.12.91,9.05,2.41,4.19,8.34-1,1.18-2,2.45-3.7,1.58s-3.9-.94-4.54-3.34c-.36-1.36,1.65-3.41-.24-3.85s-2.44,2.23-3.59,3.53l-1.15-1.12Z"/><path class="cls-13" d="M101.16,144c1-5.66-5.22-4.08-7-7,1.82.11,3.65.14,5.45.36,1.09.13,2.29,1.13,3.09-.28.65-1.14-.47-1.67-1.14-2.4-2.69-2.89.74-2.59,1.87-3.3a51.06,51.06,0,0,1,4.83-2.4,3.18,3.18,0,0,1,.9.12c-.06,2.56-4,3.34-3,6.29,1.54,4.4-.63,6.89-4.16,8.81A6.88,6.88,0,0,1,101.16,144Z"/><path class="cls-13" d="M103.12,108.14l2.2-.56c.47,5.41,5.54,6,8.84,8.44v2l0,0-2,1h0c-1.89-.7-2.86,3-5,1-.08-1.28-.68-2-2-2h0l-1-1,0,0-1-2h0l-1-1h0l0-3Z"/><path class="cls-13" d="M86.23,120.92l-3-1.75c.53-6.43,6.41-6,10.39-7.75,1.49-.64,1.58,1.65,1.26,2.93-.66,2.69-1.23,6.2-5,5C87.51,118.58,86.57,118.28,86.23,120.92Z"/><path class="cls-8" d="M128.18,123.83l1.95.11,2.85,2.13c.24.74.9,1.87.64,2.16-1.11,1.23-1.91-.67-3-.56-2-3.21-4.84-1.08-7.33-1.24L122.15,124q0-.5,0-1v0l2,1c.65.95,1.32.93,2,0Z"/><path class="cls-5" d="M117.18,118.08c-1.25,1.82-2.55,3.58-4.89,4.09l-.24-.2.12-2.91h0l2-1h0l2,0Z"/><path class="cls-11" d="M122.15,124l1.12,2.38-.29,1.46-3.46,2.5-.51-.48C119.8,127.8,122.18,126.57,122.15,124Z"/><path class="cls-11" d="M119.07,118.65l2.92.61q.08,1.9.16,3.81v0C119.64,122.62,119.69,120.4,119.07,118.65Z"/><path class="cls-11" d="M117.18,118.08l-1,0,0-2,0,0,3-.08q0,1.26,0,2.52Z"/><path class="cls-11" d="M109.2,129.13a3.18,3.18,0,0,0-.9-.12c1.26-1.61,2.69-1.08,4.13-.31l-.44.57Z"/><path class="cls-3" d="M105.13,118.05c1.36,0,2,.76,2,2C105.9,120,105.14,119.4,105.13,118.05Z"/><path class="cls-3" d="M102.16,111.05l0,3-2.2-2.81.49-.49Z"/><path class="cls-11" d="M77.19,126.06l1.15,1.12-.2,1.86-1,0-.13-.13Q77.09,127.46,77.19,126.06Z"/><path class="cls-5" d="M109.79,126.31l-.37-.13a1.23,1.23,0,0,1,.17-.42s.24.07.36.12Z"/><path class="cls-3" d="M103.15,115.06l1,2Z"/><path class="cls-5" d="M112.3,122.17l-.57,1.21c-.12-.1-.35-.26-.34-.28.21-.39.44-.76.67-1.14Z"/><path class="cls-3" d="M102.15,114.06l1,1Z"/><path class="cls-3" d="M99.94,111.24l-.28-.76.76.27Z"/><path class="cls-3" d="M104.13,117l1,1Z"/><path class="cls-12" d="M37.28,106a4.68,4.68,0,0,0-.18-.84c1.67-4-1-7-3.5-8.51-4.68-2.9.07-2.69.82-3.79,3.18,1.59,5,6.24,9.77,4.23v1l.95.9,0,.29q0,.39,0,.77L43,101.24a.91.91,0,0,0-.84-.21,1.21,1.21,0,0,0-.12-.38c0-.06-.19-.06-.29-.08l.4.48.86.4L43.1,103l-.94,1.53,0,0-1.9,3.62H38.37Z"/><path class="cls-11" d="M49.19,91.07a2.21,2.21,0,0,0-.09-1L52.45,87c1.59-.6,3.19-1.22,4.78,0l1,1.37.3,3.65L57.12,94c-1.2-.74-2.11-2.59-3.9-1l-3,0Z"/><path class="cls-11" d="M44.19,98.08v-1c-1.75-2.6.17-3.87,1.89-5.21l1.06,3.2-.24.36.23-.36,1,0,4.14.16c-.7,2.56-3.26,2.66-5,3.81l-2.09.25,0-.29Z"/><path class="cls-11" d="M47.26,89,49,83l2.73-.24.4,3.32c-2.15,0-2.93,1.78-4.08,3.07Z"/><path class="cls-1" d="M48,89.18c1.16-1.3,1.94-3.09,4.08-3.07l.34.94L49.1,90.1Z"/><path class="cls-3" d="M47.13,95.07l-1.06-3.2,2-.63.11,1.82,0,2-1,0Z"/><path class="cls-9" d="M48.14,93.06,48,91.24l1.16-.16,1,2Z"/><path class="cls-6" d="M51,38.58l.41.68-.7-.38Z"/><path class="cls-7" d="M203.26,181.18c-4.2,6.34-5.34,14.4-11.12,19.85l-3-1h0a1.87,1.87,0,0,0-2-2l0,0-1-2v0l-1-2h0l-1-2h0c.09-1.71-.21-3.23-2-4h0l-1-1h0c.37-3.83-3.73-6.29-3.15-10.18l2.27,0c-.14,1.26.15,2.45,1.45,2.81,1.1.3,1.25-.73,1.35-1.57h2c1.14-.67,1-1.36,0-2.06-1.57-2.61-2.63-1.75-3.49.51-1.07-1.32-2-2.69-1.74-4.51,4.84,1.78,3.07-3.31,4.64-4.88s-1.05-1.91-2.45-2.06l.13-1c1.48.42,3.18-1.4,4.53.42.66.88,1.12,2.47,2.39,2,1.81-.63.54-2.62,1.1-3.89,2.2.3,2.15,3.89,4.91,3.36l1,1.17c-.24,2.39,1,3.86,3,4.91C198.49,176,201.32,178.4,203.26,181.18Zm-9.18-7.06,1,2.43.7-.41L194.23,174c-.35-1.37-.47-2.9-2.12-3.45-.12,0-.59.38-.57.55C191.71,172.63,192.35,173.84,194.08,174.12Zm-6.39,4.37c-.73,1.19-1.17,1.65-1.08,1.83a7.14,7.14,0,0,0,1.13,1.36c.32-.38.93-.77.91-1.13A7.08,7.08,0,0,0,187.68,178.49Zm-1.8-9c-.12.29-.37.62-.29.8a.57.57,0,0,0,1.05-.42C186.57,169.65,186.17,169.59,185.89,169.46Zm11,9.6-.21-.38c-.09.11-.25.22-.26.33s.12.25.19.38Zm-13.37,2.71a1.21,1.21,0,0,0-.13.42c0,.05.23.09.35.13a1.21,1.21,0,0,0,.13-.42C183.89,181.84,183.66,181.81,183.54,181.76Zm6,2a1.21,1.21,0,0,0-.12.41s.22.09.34.13a1.2,1.2,0,0,0,.12-.41S189.67,183.81,189.55,183.77Z"/><path class="cls-7" d="M191.2,204.09l-6.82,13-1.21-1-1-1v0l-1-2v0l-1-2c.09-1.71-.3-3.18-2-4l-.47-1.22a2.74,2.74,0,0,0-.34.26c.21.37.45.72.68,1.07,0,1.68.33,3.18,2,4q0,1,0,1.94l-1,3-1,0h0c-.16-2.83-1.09-5.13-4.13-6l-.41-1.28a.44.44,0,0,0,.34-.4l1.32-17.55c1.09-1.43,0-3.75,2-4.82l3.88,1h0l1,1h0c-.12,1.73.24,3.21,2,4h0l1,2h0l1,2v0l1,2,0,0a1.91,1.91,0,0,0,2,2h0Z"/><path class="cls-1" d="M177.28,186.06c-2,1.06-.91,3.39-2,4.82A16.21,16.21,0,0,0,174,208.42a.44.44,0,0,1-.35.4c-3.86,1.24-5.61,12.85-2.45,16.22l-.82,2c-1.59,2-3.69,3.9-.2,6l-1.05,11c-.42,3.12-3.28,5.48-2.75,8.89l-1.25,2-2.23-2.25c.71-5.25,2.22-10.55,1.93-15.74-.41-7.5,4.05-14.53,1.64-22.07,2.77-4.29,1.16-9.18,1.92-13.75,2.34-2,0-4.78,1-7,1.1-.34,1.06-1.16.86-2l.16-1,.4-4.93c4.28-.61-.21-4.87,2.54-6.11,4-3.29-.11-8.46,2.78-12l1.23,9.1C174.7,180.08,177.87,183.09,177.28,186.06Zm-10.51,61.28a1.56,1.56,0,0,0,.12-.43s-.19-.09-.29-.14a1.53,1.53,0,0,0-.11.43S166.67,247.29,166.77,247.34Z"/><path class="cls-13" d="M213.38,167c1.86,2-.37,2.81-1.22,4-.74,1-1.23,2.82-2.89.91l.84-.68c.52-.43.82-.85,0-1.25a5.84,5.84,0,0,1-.79.07c1.77-1.58.41-2.33-.82-3.15-.74-.49-1.64-.94-2,.12-.57,1.57.75,2.37,1.8,3.19l0,1.75-2.63,1.72.57-1-.55-.74.46.75-1.87-.67c-.26-4.64-3.11-5.57-7.06-4.95l0,0,0-2.05.21-.41-.22.39-2.07,0c-1.9-2.41-4.33-4.48-3.47-8.19.48-2.06-1-1.8-1.89-.74a33.53,33.53,0,0,0-2.68,4.16l-2.68-.89L183.19,157,190,147c4.15,6.83,11.35,10.15,17.23,15C207.92,165.29,209.91,167.07,213.38,167Z"/><path class="cls-10" d="M179.17,216l1-3a7.86,7.86,0,0,0,1,.05v0l1,2v0l1,1,1.21,1c-.78,1.61-2.62,2.76-2.16,4.91l-7.16,13.67-.91.32c-4.16-4.43.79-8.7.22-13.06l3.45,1.13a28.91,28.91,0,0,0-1-3.58c-.48-1.18-1.05-2.43-2.66-2.48l-1.42-.06.44-3.95,2-1,2.95,3.07h0c.06,1.26.1,3.45,1.27,3.12C181.15,218.66,179.32,217.13,179.17,216Z"/><path class="cls-2" d="M172.77,218l1.42.06.18,4.93c.56,4.36-4.39,8.64-.22,13.06l-.13,1.81c-2.61,1.3-1.21,5.79-4.93,6.21l1.05-11c.07-2,1.76-4,.2-6l.82-2Z"/><path class="cls-11" d="M169.09,244.05c3.72-.42,2.32-4.9,4.93-6.21,1.12,4.25-3.94,14.19-7.68,15.1C165.81,249.53,168.67,247.17,169.09,244.05Z"/><path class="cls-11" d="M175.06,235.72,182.22,222c2.15.23,1.73,1.41,1,2.74-2,3.86-4,7.78-6.12,11.59C175.71,238.92,175.43,237,175.06,235.72Z"/><path class="cls-2" d="M204.16,172l1.86.67h.1l-.57,1c1,1-.44,1.5-.53,2.28-3.27.63-4.1-2.34-5.85-3.95-2-1-3.24-2.52-3-4.91l.47-.09.48,0,0,0C199.78,168.27,201,171.5,204.16,172Z"/><path class="cls-14" d="M199.17,172.05c1.75,1.61,2.59,4.58,5.85,3.95a5,5,0,0,1-1.76,5.18C201.32,178.4,198.49,176,199.17,172.05Z"/><path class="cls-14" d="M191.2,204.09l-2-4.05,3,1Z"/><path class="cls-1" d="M208.19,172q0-.87,0-1.75l1-.15a5.9,5.9,0,0,0,.79-.07q0,.62,0,1.25l-.84.68Z"/><path class="cls-6" d="M83.17,87l-.51,1.74a2.4,2.4,0,0,0-1.8,3.16c-1.76-.36-2.85-1.83-5.26-1.44-5.06.81-10.31.46-15.48.59,4.58-3.54,10.25-1.6,15.26-3A34.9,34.9,0,0,1,79,87.44C78.28,85.7,77,85.19,75.11,85c-4.56-.5-8.81.91-13.16,1.72l.52-2.11a4.21,4.21,0,0,0,2.86-4.48l1-1.07L69.1,79l.13.13c-.11,1.53-4.27,3.45-.54,4.28,3.49.77,7.48-.62,11.24-1.13,1.24-.17,2.29-.82,2.13-2.28-.23-2-1.73-.94-2.72-1-2.31,0-4.62,0-6.94,0,4-1.46,7.89-3.38,11.9-.83C83.89,81.12,81.56,83.83,83.17,87Z"/><path class="cls-5" d="M93.13,27c1.1,1.55,2.72,1,4.19,1q.42,0,.83,0a5,5,0,0,1,0,.89c-1.67,1.23-3.65,2.26-3,4.9C89.7,38.62,86.66,45,83.61,51.39c-1.52.59-1.47,2.07-1.9,3.29a.54.54,0,0,0-.73,0l-3.06,3.21-.64-3.23c.45-4.09,4-6.6,5.24-10.29L82.34,44l.15.33Z"/><path class="cls-15" d="M75.26,118.09,75,121,74,122.92l-3.88-.78L68.21,121c.08-1.43-.69-2-2-2h0c-1.16-1.92-2.44-3.72-4.88-4.12A7.14,7.14,0,0,0,56.22,111h0l.13-2,1-1.08,2.83.16.94,3C66.17,112.68,73,110.8,75.26,118.09Z"/><path class="cls-9" d="M83.17,87c-1.62-3.21.71-5.92,1.12-8.88l4.27-16.84L90.22,54c-.06-1.67.21-3.1,2.34-3.17.76,7.25-3.11,13.54-4.23,20.41-.26,1.62-.82,3.19-1.24,4.79l-.7,2.13q-.47,2.23-.93,4.47a2.19,2.19,0,0,0-1,2.56Z"/><path class="cls-6" d="M75.26,118.09C73,110.8,66.17,112.68,61.1,111c3.66,0,7.33.07,11,0,.85,0,2.25.85,2-1.52-.13-1.29.18-2.38-1.28-2.31-4.23.21-8.58-1.28-12.67.87l-2.83-.16-1.94-.81.11-1.55,2.55.37c6.4.12,12.81.6,19.14-.88.74,2-2,4,0,6Z"/><path class="cls-7" d="M92.56,50.85c-2.12.06-2.4,1.49-2.34,3.17l-8.51.67c.43-1.21.38-2.7,1.9-3.29,3.75,2.46,4.15-1.19,4.74-3,.83-2.61,1.77-4.47,4.82-4.32l.94,1Z"/><path class="cls-9" d="M77.16,111c-2-2,.76-4,0-6l.1-1.9c1.14-.79,1.11-1.92.92-3.1a2.72,2.72,0,0,0,0-.83L80.25,94l.61-2.06a2.4,2.4,0,0,1,1.8-3.16C82,96.49,80.93,104.1,77.16,111Z"/><path class="cls-12" d="M94.1,45l-.94-1c-.07-3.55,3-6.49,2-10.21-.61-2.64,1.37-3.67,3-4.9,1.74,4.78-2,8.63-2.21,13.08l-.66,2.09Z"/><path class="cls-1" d="M74,122.92,75,121l2.05,3,.09,2.06q-.11,1.4-.21,2.8l-1.68.32L72.94,129Z"/><path class="cls-8" d="M98.13,25l1.27-2.36.92,1.42a3.34,3.34,0,0,0-.17.94h-2Z"/><path class="cls-3" d="M86.39,78.17l.7-2.13C88.53,77.29,87.6,77.78,86.39,78.17Z"/><path class="cls-3" d="M84.47,85.2a2.19,2.19,0,0,1,1-2.56C86.28,83.93,85.8,84.73,84.47,85.2Z"/><path class="cls-5" d="M95.33,44.11,96,42C97.73,43.33,96.56,43.73,95.33,44.11Z"/><path class="cls-8" d="M98.15,28q-.41,0-.83,0c0-1.08-.48-2.26.81-3h0l.16,2.07A4.47,4.47,0,0,1,98.15,28Z"/><path class="cls-5" d="M98.32,27.11,98.15,25h2L100,26.2l-.67.68Z"/><path class="cls-8" d="M99.37,26.87l.67-.68A.94.94,0,0,1,99.37,26.87Z"/><path class="cls-13" d="M119.53,130.38l3.46-2.5.18.17a42.85,42.85,0,0,0-.88,6.82c0,2.15,1.67,3.54,3.74,4.06,1.53.38,3.93-.14,3.83-1.34-.27-3.22,2.91-6.32.28-9.51l.48-.42c1.09-.11,1.88,1.8,3,.57.26-.29-.4-1.42-.63-2.16l2.2-2c-.63,4.19,3.38,9-1.77,12.67-1.16.84-1.51,2.79-2.23,4.23l-7,1.23-2.08-2-1.9-2.05Z"/><path class="cls-3" d="M114.19,110.7a2,2,0,0,0,0-.59l-3-3.82.09-2.36L117.7,105l0,0c1.59,2.39,4.18,1.95,6.49,2.28,3.58,7.22-3.43,5.06-6,6.8l-1.94-.08v0l-1-1,0,0Z"/><path class="cls-12" d="M124.13,142.17l7-1.23c1,2.55-2.74,3.47-2.07,5.91L127.32,149l-3.08,1.89-1-1C123.55,147.3,121.89,144.51,124.13,142.17Z"/><path class="cls-3" d="M135.17,124l-2.2,2-2.85-2.13c1.1-2.23-1.62-6.42,2.14-6.85C139.46,116.26,135.62,121.08,135.17,124Z"/><path class="cls-13" d="M137.13,147.1l-4,1.93,0,0v-2.13c2.43-2.31,2.74-6.22,6-7.91l3,2Z"/><path class="cls-13" d="M122.15,123.07q-.08-1.91-.16-3.81.09-1.6.18-3.19l3-.06c-.88,3.32,3.41,4.67,3,7.82l-2,.3-2,0Z"/><path class="cls-1" d="M142.13,141.06l-3-2c1.27-.21,3.34.63,2.17-2.26a7.41,7.41,0,0,1,1.8-8.79l.07.1q0,4.51,0,9l-.1,3.89-.06.06A1.65,1.65,0,0,0,142.13,141.06Z"/><path class="cls-3" d="M125.19,116l-3,.06a1.8,1.8,0,0,1-.91-.31c2.64-.34,5.37-3.73,7.89.23l-2,.06Z"/><path class="cls-1" d="M124.15,107.28c-2.31-.34-4.9.1-6.49-2.28,2.33-.84,4.32.64,6.49.93Q124.14,106.61,124.15,107.28Z"/><path class="cls-1" d="M116.18,114l1.94.08,1,1.94-3,.08Z"/><path class="cls-1" d="M127.32,149l1.78-2.14.16,2.25q-.12.46-.21.94l-.78,0Z"/><path class="cls-11" d="M133.18,146.93v2.13l-1,0Z"/><path class="cls-3" d="M129.06,150q.09-.47.21-.94l1.93-.06Z"/><path class="cls-13" d="M127.16,116l2-.06C128.52,117,127.85,117,127.16,116Z"/><path class="cls-5" d="M233.54,69.18l4.75-.1c1.13,1.6,1.52,3-.79,4-5.3,1.6-3.57,7.46-6.4,10.56-4.66,2.5-6.86,6.93-9,11.42L220,98.62,216,101c-1.27-2.39-2.36.14-3.54.13l-2.27-.1c3.26-7.33,10.11-12.34,12.87-20C224.88,75.62,230.87,73.86,233.54,69.18Z"/><path class="cls-11" d="M231.11,83.6c2.82-3.1,1.09-9,6.4-10.56-3.53,13.75-7.11,27.49-10.59,41.25-2.33,9.2-4.55,18.43-6.81,27.64L218,139c-.7-2.09,2-3.95.41-6.1a.84.84,0,0,0-.22-.51c2.56-1.82,2.22-4.76,2.85-7.33l.15-3.95c2.81-2,2.18-5.28,3-8l.16-1c1.93-6.91,4.06-13.77,5.67-20.76C230.59,88.8,233.25,86.48,231.11,83.6Z"/><path class="cls-5" d="M218,139l2.06,3c.64,4.34-2,8.07-2.25,12.24l-1.49,0c-1.17-2.34,1.93-4.79-.17-7.11Z"/><path class="cls-15" d="M170.83,186.17l-.4,4.93c-.66.23-.9.52-.16,1,.2.88.24,1.7-.86,2-6.2-.09-3,4.25-3.25,6.93-6.65,0-3,3.46-2,6h-2c-.36-.64-.72-.65-1.08,0-1.35,1.09-.86,2.62-1,4-8.61-1.71-6.78,6-9,10-4.2,1.69-9.1,1.07-12.94,3.95-7.31-5.92-1.78-10.73,1.38-15.73.37-.59.65-2.33,1.7-.3.62,1.2.18,3.06,2.05,3.54A25.13,25.13,0,0,0,143,208a2.52,2.52,0,0,1,1.14-2.93l.22.38.17-.17-.38-.21-.94-3.84c3.52-7.74,10.09-13.29,14.57-20.33,4.7.34,8.42-4.65,7.35-9.86l.88-1.22,1.22,1.1.6,2.11-.08,4c-2.16,1-.53,1.45.25,2l.22,1c-1.56,1.7-1.76,3.14.79,4C169.09,185.21,167.46,187.84,170.83,186.17ZM150.16,208l.38.21-.38-.21c-.31-.9.55-2.76-1.41-2.27-.83.21-2.1,2-1.9,2.39C147.8,209.86,149,208.34,150.16,208Zm4.61-2.24c.5-1.25,1.09-2,1-2.67a2.23,2.23,0,0,0-1.41-1.58c-1.13-.13-1.18.93-.95,1.72A16.22,16.22,0,0,0,154.77,205.8Z"/><path class="cls-10" d="M144.16,205A2.52,2.52,0,0,0,143,208a25.13,25.13,0,0,1,.33,4.54c-1.87-.48-1.43-2.34-2.05-3.54-1.05-2-1.33-.29-1.7.3-3.16,5-8.68,9.81-1.38,15.73l-1.12,1.08c-3.2-1.86-6.27-3.83-6.79-8l12.91-16.89Z"/><path class="cls-15" d="M142.13,185.09c-3.75-.55-.51-2.75-1-4.07,1.23-5.63,3.55-9.26,9.95-5.54-.62,1.5-5.08-.76-3,3,.35.63,3-.61,3.49,1.55l-2.9,3C146.1,182.35,144.29,184.28,142.13,185.09Z"/><path class="cls-10" d="M142.13,185.09c2.16-.81,4-2.74,6.61-2.08-2.29,4.44-4,9.4-9.56,11,.3-3.66-2.06-2.25-3.81-2l1.6-5.27c1.42,1.46,2-1.33,3.24-.65,1.12.89.17,4,2.52,3.15,1.69-.6.3-2.11-.56-3.06Z"/><path class="cls-8" d="M154.63,176.23c.84-2.73-.4-6.09,2.47-8.21H161l-1,3.92-1.77,3.17-1.05.94Z"/><path class="cls-14" d="M165.15,171c1.07,5.21-2.65,10.2-7.35,9.86l1.62-2.67,1-2Z"/><path class="cls-14" d="M135.36,192c1.75-.24,4.11-1.65,3.81,2l-.35.16-.38,0-1.29,0-2.09-1.11Z"/><path class="cls-5" d="M160.41,176.17l-1,2L157.15,176l1.05-.94Z"/><path class="cls-10" d="M137.15,194.06l1.29,0c0,1,1.76,2-.09,3C135.66,197,137.36,195.14,137.15,194.06Z"/><path class="cls-10" d="M11.84,172.25c1.12-5.16,5.48-8.53,7.35-13.32.52-1.32,1.15-2.23.24-3.48,2.76-.69,6.58.21,6.71-4.45l11-12c.66,7.77-1.43,15.42-2.65,22.84-2.15,13-3.19,26.28-6.34,39.15l0,0c-1.6,4.56-.27,9.93-3.88,13.94C19.49,206,11.75,199.36,6,191.15l2.21-9.07C12.19,179.82,12.23,176.12,11.84,172.25Z"/><path class="cls-2" d="M37.17,139l-11,12q0-1,0-2l-.1-2,0,0a2.35,2.35,0,0,0,1.78-3L29.11,141c2.32-3.44,5.06-6.64,6.2-10.76,1-.61.73-2.82,2.74-2.2l1.95,3-.42,8.09Z"/><path class="cls-4" d="M29.11,141l-1.26,2.86c-1.67.38-2,1.58-1.78,3l0,0c-2,.27-2,1.68-1.83,3.15-1.31.84-1.75,4-3.7,2.52-1.59-1.17.47-2.89,1.36-4.17,2.17-3.13,2.56-7.44,6.26-9.56Z"/><path class="cls-3" d="M29.11,141l-1-2.13L32.59,129l2.54,0,.17,1.26C34.16,134.39,31.42,137.59,29.11,141Z"/><path class="cls-2" d="M19.58,147.77a21,21,0,0,1-3.47,2c-1.13.41-1.92-.34-1.73-1.58.24-1.57,1.43-2.11,2.87-2.08C18.22,146.12,19.23,146.25,19.58,147.77Z"/><path class="cls-11" d="M24.22,150.11c-.12-1.48-.12-2.88,1.83-3.15l.1,2Z"/><path class="cls-1" d="M35.13,129l-2.53,0,1.3-3,.3.1Z"/><path class="cls-10" d="M20.17,145c.22-.44-.44-1.77,1-1Z"/><path class="cls-6" d="M37.28,106l1.09,2.11-2.53,13.67L34.6,125a.62.62,0,0,0-.49-.24c-1.6-6.35-7.2-1.34-10.37-3.58-1-.69-2.85-.13-4.31-.15l1-4c.63.13,1.76.15,1.82.41,1.1,4.83,4.78,1.9,7.25,2.36a1.48,1.48,0,0,0,1.46-2.07c-1.21-3.11-4-1.3-6.07-1.67a26.33,26.33,0,0,0-4.48-.07l2.47-7.12C28.33,111.22,33.1,110.06,37.28,106Zm-9.72,9.12c2.11-.37,5.32.78,5.58-2.26.2-2.35-2.66-1.72-4.36-1.77-2.08-.06-4.87-.54-5,2.43C23.63,116.14,26.28,114.51,27.56,115.1Z"/><path class="cls-11" d="M35.84,121.76l2.53-13.67h1.87l-.08,2L42,115.94l.15,1,1,4c.52,4-.47,6.89-5.16,7.1-2-.63-1.73,1.59-2.74,2.2L35.13,129l-.94-2.94-.08-1.31a.62.62,0,0,1,.49.24c1.15-.25,2.85.78,3.28-1.1C38.21,122.48,37.13,121.9,35.84,121.76Z"/><path class="cls-11" d="M152.7,154.51c3.19-.2,3.42,5.36,7.33,3.78l.3,4.74-.15,1-2.56-.11c-2.14-1.51-4.19-3.1-4.95-5.78Z"/><path class="cls-2" d="M152.7,154.51l0,3.63c-3,.58-5.91.93-7.65-2.42C147.13,152.51,149.64,151.76,152.7,154.51Z"/><path class="cls-12" d="M157.62,163.92l2.56.11,5,1h2l1,2-2.1,1.08-2.83-.2,0,.13-1.05-.94L161,168H157.1Z"/><path class="cls-13" d="M159.17,151c.37-3.64-3.1-3.47-4.91-5q-.06-2-.11-4l0,0,16,5a16.58,16.58,0,0,1,2.47.14c2.84.58,5.66,1.23,8.49,1.85-1.13-5-6.05-3.19-9-5-4.19-1.34-2.07-4.47-2-7l2,.08c3.26,2.53,6.24,5.69,11,5h3l-5,15-1.25,1.52-.78-1.52c-1.44-4-9.46-5.89-13-3l-1,0C164.27,150.93,161.11,152.18,159.17,151Z"/><path class="cls-13" d="M147.29,129.06a4.37,4.37,0,0,1,.92,0c2.76.2,5.32.69,6,4,.06.32.14.87.3.91,13.65,3.26-1.61,5.33-.33,8.05l0,0C147.45,140.05,146.63,134.95,147.29,129.06Z"/><path class="cls-11" d="M162.16,125l1-.95,11-.78a1.55,1.55,0,0,0-.07.61l-.08,1.37-.71,2.59-.11,1.21-1,1-1.6-.18c-1.7.23-4.46-5.27-5,.94l.11.09-1-1.26a.36.36,0,0,0-.3-.54c-.35-1-.76-1.08-1.25-.09-1.17.06-2.34.11-3-1.18Z"/><path class="cls-4" d="M172.17,144c2.92,1.79,7.84,0,9,5-2.83-.62-5.65-1.28-8.49-1.85a16.58,16.58,0,0,0-2.47-.14Z"/><path class="cls-4" d="M165.59,130.84c.58-6.2,3.34-.71,5-.94-2,1.87,1.06,4.23-.61,6.12-1.94.12-4.89,2.79-4.89-2l0-.05c.85-.3,2.29-.43,2.42-.92C168,131.7,166.62,131.3,165.59,130.84Z"/><path class="cls-3" d="M170,136c1.67-1.9-1.36-4.26.61-6.12l1.6.18,2,1.9c-.42,1-1.11,2.06.85,2.07q0,.49.07,1t-.09.93l0,0-2.92,1.07-2-.08A9.12,9.12,0,0,0,170,136Z"/><path class="cls-15" d="M162.16,125l-2,2.8-1,.23c-1.16-2-3-4.06,1-5l0,0A1.87,1.87,0,0,1,162.16,125Z"/><path class="cls-4" d="M165.13,134.07l-1.22-.4.24-.36,1,.7Z"/><path class="cls-4" d="M161.51,132.62l-.51.15-.09-.34Z"/><path class="cls-4" d="M164.68,129.66l1,1.26C165.08,130.73,163.23,131.53,164.68,129.66Z"/><path class="cls-4" d="M163.13,129c.49-1,.9-.88,1.25.09Z"/><path class="cls-14" d="M203.16,58q0-.42,0-.84a7.17,7.17,0,0,1,6,1.62c-.49,4.77-3.37,9.68.88,14.15-3.37,2.21-1.57,6.4-3.44,9.22-.11.17.91,1.48,1.59,1.71,1.26.43,1.09-1,1.24-1.56.66-2.72,1.18-5.48,1.74-8.23a4.46,4.46,0,0,1,5-1.06c1.57,4.14-5.18,4.07-4,8-.42,2.72-3.45,4.77-2,8a9.68,9.68,0,0,0-1.91,6c-.6,4.95-2.55,8.85-7.74,10.46-1.3.41-3.23.91-2.86,2.79.5,2.58,2.05-.44,3,.32.63.51,1.23,1,1.85,1.56q.05.45.07.91c-1.18.92-1.07,3.3-3.35,3-.3-.51-.58-1.45-.89-1.46-1.14,0-.92,1-1,1.76l-7.06,7.74-5.79,3.75,0-2.3v0l.25-1.33c2.36-1.43,2.28-3.85,2.5-6.14l1.56-2.07-.71-.38-.82,2.48-1.82-2.61,0-1.23c1.61-.55,2.4-1.19.26-2.18l.75-4.92c1.34-.17,1.56-2.76,3.5-1.61l.77,1.55.54-2.1c4.25,1,6.24-3.18,6.62-5.12.82-4.19-1.91-8.57-1.18-13.11-3,.36-2.09,4.26-4.55,5.11a8.53,8.53,0,0,1-2,.2c-1.38-2.19,3.08-4.83-.51-6.85,1.23-6.86-.23-14,2.23-20.73.58-1,1.15-2,1.76-2.91.73-1.15,1.51-2.27,2.26-3.4-.18,2.34,3.53,2.78,2.63,5.54a28.2,28.2,0,0,0-1.22,5.3c-.13,1.09-.09,2.95.48,3.23,1.69.84,1.17-1.58,2.07-2C204.94,66.13,202.67,61.64,203.16,58Zm.27,26.91c1.11-4.56.22-6.87-1.29-9,0-.05-.94.25-1.06.54C199.85,79.47,203.06,80.76,203.43,84.94Zm-.91,15.51a6.86,6.86,0,0,0-1,1.34c-.07.19.24.53.39.8.36-.23.88-.39,1-.72S202.74,101.12,202.52,100.45Zm-13,10.86c.28.12.61.37.78.3a.8.8,0,0,0,.32-.73.78.78,0,0,0-.71-.32C189.74,110.63,189.68,111,189.55,111.31Zm4-28.08a4.21,4.21,0,0,0,.47-.69c0-.12-.06-.3-.1-.45-.21.07-.59.15-.59.22A4,4,0,0,0,193.57,83.23Zm11.18-8.92a1.18,1.18,0,0,0,.12-.39s-.28-.15-.31-.11a.59.59,0,0,0-.14.38S204.64,74.27,204.76,74.31Zm.82,4.1.2-.63-.36.1Zm-10,0,.21-.67-.37.1ZM202.91,73l-.21-.39c-.09.11-.25.22-.26.34s.12.26.19.39Z"/><path class="cls-7" d="M210.08,73c-4.25-4.47-1.37-9.39-.88-14.15l11,4.77-1,3.46c-2.45,1.28-3,3.53-3.12,6v0a4.46,4.46,0,0,0-5,1.06Z"/><path class="cls-14" d="M233.54,69.18c-2.68,4.69-8.67,6.45-10.5,11.88-2.56-.43-1.65-2.49-1.89-4l-1-4c7.36,1.83,3.93-4.9,5.86-7.38A7.36,7.36,0,0,1,233.54,69.18Z"/><path class="cls-10" d="M226,65.64c-1.93,2.48,1.5,9.21-5.86,7.38l0,0V71c.26-.64.53-1.29.77-1.94,0,0-.25-.15-.38-.23l-.4,2.16h-1l-1,0,1.14-4,1-3.46a.38.38,0,0,0-.09-.56l2,.61Z"/><path class="cls-3" d="M222.12,63.62l-2-.61-.82-4.84a11.38,11.38,0,0,1,2.32.65C224.18,60.15,221.57,62.05,222.12,63.62Z"/><path class="cls-4" d="M186.07,62.07,189,60.2c-.09,1.29-.11,2.6-.29,3.88q-1.67,12.39-3.41,24.78c-.52,3.66,1.49,1.38,2.63,1.17l-1,7c-3.94,1.92-1.68,5.24-1.8,8-1.72.47-1.77,3.14-4,3l-.11-6c1.67-2.14.85-4.61.91-7l.29-1.95c1.82-1.84.53-4,.68-6-.69-2.06,1.83-4,.3-6.06l0-4.9h0c1.75-1,.53-2.71,1-4C185.65,68.89,186.93,65.67,186.07,62.07Z"/><path class="cls-15" d="M186.95,97l1-7,.83,0,1.32.06a8.53,8.53,0,0,0,2-.2c2.45-.84,1.51-4.75,4.55-5.11-.73,4.54,2,8.92,1.18,13.11-.38,1.94-2.37,6.09-6.62,5.12q0-.35,0-.71l-.66-1.4-.4,1.32-.28,1.43Z"/><path class="cls-7" d="M203.16,58c-.49,3.61,1.78,8.1-3.37,10.22-.9.37-.38,2.79-2.07,2-.57-.28-.61-2.14-.48-3.23a28.2,28.2,0,0,1,1.22-5.3c.9-2.76-2.82-3.2-2.63-5.54-.76,1.13-1.53,2.25-2.26,3.4-.61,1-1.17,1.94-1.76,2.91,0-3.56,0-7.12,1.33-10.52,2.17,1.27,4.28,2.71,7,2.2l-.06,0a3.21,3.21,0,0,0,2.07,3.06Z"/><path class="cls-6" d="M186.07,62.07c.86,3.61-.43,6.82-1.83,10L182.12,72a6.07,6.07,0,0,0-.91,0A28,28,0,0,1,186.07,62.07Z"/><path class="cls-14" d="M183.23,76.1l0,4.9-2.1,0-1,0h0L179.13,78l.22-2.93Z"/><path class="cls-11" d="M200.14,54.13c-2.72.51-4.84-.93-7-2.2q0-.46.05-.92C195.79,51.43,198.57,51.42,200.14,54.13Z"/><path class="cls-10" d="M183.23,76.1,179.35,75l1.86-3a6,6,0,0,1,.91,0l1.08,4.08Z"/><path class="cls-6" d="M190.09,90,188.77,90l.8-6.8C193.17,85.2,188.71,87.83,190.09,90Z"/><path class="cls-10" d="M61.6,27.15l-.41-3.07,1.54-.64,1,2.42c2.56-4.35,2.16-9.84,5.36-14,0-.06-.11-.3-.2-.43-1.15-1.64-.38-3.11.39-4.58,8.92,3,17.8,6,26.06,10.59-1.49,2.67-1.82,6.29-6.53,5.81-2-.21-2.61,2.08-2,4.15.48,1.62,1,4-.55,4.6-6.42,2.69-2.86,8.12-3.77,12.29L82.34,44l.17.32a18.45,18.45,0,0,0-9.18,14.85l0,0c-1.88.16-3.19.71-2,3l-.25,1.76-3.67,4.23c-5,3.41-7.94,8-8.18,14.16a1.05,1.05,0,0,1-.16.78l-3.37.07L52.64,81l3.52-17c6.17-5.9,5.19-13.51,5-20.94a3.07,3.07,0,0,0,1.9-3c-.22-1.36,1.81-2.67.07-4.06C63.61,32.91,64.47,29.7,61.6,27.15Z"/><path class="cls-2" d="M82.49,44.34c.91-4.17-2.65-9.6,3.77-12.29,1.52-.64,1-3,.55-4.6-.62-2.08,0-4.36,2-4.15,4.71.48,5-3.14,6.53-5.81,1.1.34,2.59.2,2.55,2-2.57,1.87-3.46,4.8-4.75,7.49Z"/><path class="cls-6" d="M69.27,6.9c-.76,1.47-1.53,2.95-.39,4.58.09.13.24.37.2.43-3.2,4.11-2.81,9.6-5.36,14l-1-2.42-.06-3.53L63.17,15l.57-2.11,1-6.62C66.33,6,67.91,5.65,69.27,6.9Z"/><path class="cls-15" d="M174.19,123.32l-11,.78c-2.33-6.63-3-12.5,6-14.54.55-.12.64-2.3.94-3.51h0c1-.67,1-1.34,0-2h0l-1-1h0c0-2.77.64-4.73,4-3,1,1.39,2.54.87,3.89.95a31.72,31.72,0,0,0-.94,14c.4,1.3,1.75,2.64-.14,3.86L175.1,121Z"/><path class="cls-15" d="M181.17,81l2.1,0c1.54,2.1-1,4-.3,6.06-4.73,1.51-1.79,3.88-.68,6L182,95.05h-2.85l-3,0h0c.13-2-.59-3.25-2.88-2.91.61-2.78,2.28-5.19,2-8.32-.34-3.76,2.91-2.45,4.91-2.79h0Z"/><path class="cls-15" d="M172.16,94.13,173.29,93l2.87,2h0l1.92,4.13-1-.13-3-.1-.94-1.85Z"/><path class="cls-15" d="M170.16,106c-1.08-.08-2.43.25-2.75-1.26-.27-1.28.74-1.58,1.75-1.74h0l1,1h0v2Z"/><path class="cls-14" d="M174.1,98.93l3,.1q0,1,0,2c-1.36-.08-2.86.44-3.89-.95Z"/><path class="cls-14" d="M176.16,95l-2.87-2a3.45,3.45,0,0,1,0-.91C175.57,91.79,176.29,93,176.16,95Z"/><path class="cls-15" d="M160.15,123.05,158.6,121l.72-.4.86,2.47Z"/><path class="cls-14" d="M172.16,94.13l1,2.95C171.21,96.64,170.51,95.78,172.16,94.13Z"/><path class="cls-13" d="M39.56,139.16l.42-8.09c1.71-.11,3.44-.31,4.61,1.37a3.62,3.62,0,0,0,.62.54l-.81,2.08-.2,5a1.33,1.33,0,0,0-.52,2.09L43.25,147l-.66,1.84L42.51,153a59.42,59.42,0,0,0-3.07,17.11l-.66,1.88-.33,3.13-.26,2c-1.36,1.51-1,3.28-.77,5L37.09,184l-.66,2.06L36.11,190l-.67,3.06-3,17.89c-2.37,2.55-.58,6.05-2,8.82L30.16,221c-1.5-.55-1.84-1.92-2.28-3.22.25-1.64.52-3.27.76-4.91C32.36,188.34,37.09,163.92,39.56,139.16Z"/><path class="cls-12" d="M51.73,178.34l0,0A8.88,8.88,0,0,0,48,184c-3.24,4.33-3.53,10.26-7.67,14.09l3-10.86-.08-.14,1.2-2,.75-.76c1.63-1.36,2-3.25,2.26-5.22l.94-2.9c1.54-.54,1.92-1.7,1.69-3.18a1.48,1.48,0,0,0,0-.93c1.4-.08,1.86-1.16,2.33-2.22L63,145.82l.41-.12.42,0c-1.52,9.68-6.66,17.94-10.48,26.72C52.59,174.3,50.41,175.87,51.73,178.34Z"/><path class="cls-6" d="M43.39,187.27l-3,10.86-1.11,1.92-.86,2.09a2.45,2.45,0,0,0-.3.83c-3,1.86-1.53,6.91-5.65,8l3-17.89c1.94-.64,2.28-1.64.67-3.06l.32-3.94c1.35-.32,2.2-.81.66-2.06l.34-1.93L39.1,182l1.13,1.15.94,1.91h0l1,2Zm-3.63,2.45c-.25.49-.53.78-.51,1.05a6.16,6.16,0,0,0,.4,1.34c.15-.28.42-.55.42-.83A8.15,8.15,0,0,0,39.76,189.72Z"/><path class="cls-12" d="M32.45,211c4.12-1.08,2.63-6.14,5.65-8-1.27,6.19-2.74,12.29-7.67,16.81C31.86,217,30.08,213.53,32.45,211Z"/><path class="cls-12" d="M38.4,202.15l.86-2.09C40.57,201.41,39.68,201.85,38.4,202.15Z"/><path class="cls-4" d="M109.2,129.13l2.79.14,2.41,1.42c-2.52,1-3.87,2.71-3.17,5.58.21.89.55,1.47,1.65,1.3,3.17-.5,2.8-3,3-5.16,0-.23.46-.43.71-.64,2.85,1.49,1.2,4.14,1.61,6.26-1.72.85-3.38,2.27-5.16,2.44-7.92.79-1.91,3.58-.93,5.66a5.42,5.42,0,0,0,.42.87l-2.3,2-1.92.13c-1.56-.53-3.48-2.55-4,1l-2.29-.09-.76-1.08.06,0,.81-4.79c3.53-1.93,5.7-4.42,4.16-8.81C105.16,132.47,109.14,131.69,109.2,129.13Z"/><path class="cls-3" d="M112,146.12c-1-2.07-7-4.87.93-5.66,1.78-.18,3.44-1.6,5.16-2.44,1.2,1.84,1.08,3.89,1,5.94-1.19,1.15-4,.44-3.73,3.26l-1.17-.2C113.59,146.48,113.39,144.95,112,146.12Z"/><path class="cls-1" d="M116.53,131.76c-.25.21-.69.41-.71.64-.15,2.21.21,4.66-3,5.16-1.09.17-1.43-.41-1.65-1.3-.69-2.86.65-4.55,3.17-5.58Z"/><path class="cls-8" d="M115.38,147.23c-.27-2.83,2.54-2.11,3.73-3.26,1.25,1,1.28,2.19.15,3.23A2.81,2.81,0,0,1,115.38,147.23Z"/><path class="cls-8" d="M112,146.12c1.34-1.17,1.55.36,2.17.91l-1.75,0A5.47,5.47,0,0,1,112,146.12Z"/><path class="cls-3" d="M120.14,138.08l1.9,2.05A1.87,1.87,0,0,1,120.14,138.08Z"/><path class="cls-1" d="M56.16,64,52.64,81l-.94,1.75L49,83l6.9-37,1.34.08,1.57,1.09Z"/><path class="cls-2" d="M63.88,145.76l-.42,0-.41.12c-2-2.19-2.09-5.1-2.92-7.73l1-1.05,1.8.62c.54-3.7-2.87-6.09-3.19-9.6-.12-1.34-1.72-1-2.63,0-1.56-1.69-4-3.07-2-6a11.27,11.27,0,0,0,6.74,1.27c1.3,4.4,5.41,6.45,8.09,9.69l-1.39,2.6c-1,.54-1.6,1.22-.84,2.39l-1,1.66c-2.66.57-3,2.12-1.86,4.34Z"/><path class="cls-12" d="M70,133c-2.68-3.24-6.8-5.29-8.09-9.69l.33-.37c2.54-1.07,5.61,2.7,7.88-.85l3.88.78-1,6.09C70.38,129.2,72.2,132.61,70,133Z"/><path class="cls-12" d="M64.85,144c-1.18-2.22-.8-3.77,1.86-4.34C67.44,141.72,66.52,143,64.85,144Z"/><path class="cls-12" d="M67.75,138c-.77-1.16-.17-1.85.84-2.39C69.2,136.76,69,137.58,67.75,138Z"/><path class="cls-6" d="M39.56,139.16c-2.47,24.76-7.21,49.17-10.92,73.75-.25,1.64-.51,3.27-.76,4.91L24.27,215c3.6-4,2.28-9.38,3.88-13.94l.41.2-.38-.23c3.15-12.87,4.18-26.12,6.34-39.15,1.23-7.42,3.31-15.07,2.65-22.84Z"/><path class="cls-6" d="M8.23,182.08,6,191.15l-3.07-3.09L6,181l.93-1.4Z"/><path class="cls-1" d="M111.19,106.3l3,3.82c-3.35-.14-5.54-1.93-6.92-4.87C108.86,104.6,110,105.48,111.19,106.3Z"/><path class="cls-1" d="M117.7,105l-6.42-1.08C113.84,101.76,115.83,103.07,117.7,105Z"/><path class="cls-3" d="M127.32,149l1,1c-1.09,1.45-2.15,3-4,.9Z"/><path class="cls-5" d="M147.29,129.06c-.66,5.89.16,11,6.86,13q.05,2,.11,4c-1.52.17-3.22-1.77-4.51,1.09-1,2.24-3.48,2.2-5.61.84l-1-7,.06-.06c1.06-.07,1.81-.49,1.9-1.66s-.42-2.12-1.8-2.23q0-4.51,0-9c.65-.84,1.42-2.45,1.91-2.37C146.75,126,146.93,127.68,147.29,129.06Z"/><path class="cls-4" d="M159.17,151c1.95,1.16,5.11-.1,6.05,3q0,.48-.08,1c-1.24.16-3.16-.17-2.63,1.88.41,1.61,1.7,1.12,2.65.12l2,1h0l6,2a5,5,0,0,0,.1.95l-1.14,1.17c-1.73-.43-3.49-.74-5.17-1.3-2.58-.87-5.38-2.66-5.77,2.17h-.85l-.3-4.74C162.71,155.52,157.27,153.7,159.17,151Z"/><path class="cls-3" d="M143.1,141l1,7a5.55,5.55,0,0,0-1,.1l-.46,0-.46,0c-1.53-1.22-3.75,1.08-5.11-1l5-6A1.65,1.65,0,0,1,143.1,141Z"/><path class="cls-4" d="M157.32,155.31c0,.12.12.3.08.34a1.06,1.06,0,0,1-.38.13c0-.12-.12-.3-.08-.34A1,1,0,0,1,157.32,155.31Z"/><path class="cls-7" d="M137.1,226.07l1.12-1.08c3.84-2.88,8.74-2.26,12.94-3.95q0,.5,0,1l-.21.39.22-.38h2c1.94-.07.89-4.44,4-2.79.4-3,7.11-3.62,3-8.21.1-1.39-.39-2.92,1-4h2l.49,1.25.5-1.24c-1-2.54-4.66-6,2-6l2.21.09c-.76,4.57.85,9.46-1.92,13.75-1.45,1-1.54,3.34-3.82,3.51a11.81,11.81,0,0,0-2.88,1c6.17,2.39.76,7.36,2.42,11.13,3,6.9-1.23,12.51-7.48,11.36-.14,0-.31.1-.47.16l-5-3c-.28-1.74-1.6-2-3-2.18l-1.83-2.13C142,231.82,138.71,229.65,137.1,226.07Zm11.53,4.54c1.92-.18,1.36-1.83,1.73-2.85s.92-2.29-.85-2.6c-2.06-.37-2.16,1.41-2.79,2.66C145.64,230,148.29,229.34,148.63,230.62Z"/><path class="cls-8" d="M144.41,234.7l1.83,2.13c-.55.89-1.4,1.49-2.27.75C142.8,236.58,144.15,235.66,144.41,234.7Z"/><path class="cls-2" d="M56.16,64l2.62-16.91L59,45.37c1-3.69-.82-7.87,1.94-11.26l.3.22L63.15,36c1.73,1.38-.29,2.7-.07,4.06-2,.13-1.91,1.6-1.9,3C61.35,50.53,62.34,58.14,56.16,64Z"/><path class="cls-6" d="M63.15,36,61.2,34.32c1-1.37,1.71-2.68-.72-3.31l1.12-3.86C64.47,29.7,63.61,32.91,63.15,36Z"/><path class="cls-3" d="M62.67,19.92l.06,3.53-1.54.64C61.18,22.52,60.14,20.58,62.67,19.92Z"/><path class="cls-10" d="M60.48,31c2.43.62,1.69,1.94.72,3.31l-.3-.21Z"/><path class="cls-3" d="M63.74,12.94,63.17,15C62,14,62.36,13.32,63.74,12.94Z"/><path class="cls-3" d="M59,45.37l-.18,1.77L57.21,46C57.57,45.25,58.09,44.85,59,45.37Z"/><path class="cls-14" d="M33.35,104.84c-2.17.48-4.22.37-5.46-1.76-.67-1.16.45-1.63,1.31-2Z"/><path class="cls-9" d="M102,144.24l-.81,4.79c-1.9-.36-5,.76-5.16-2-.12-2.13,3-.21,4.28-1.41a5.6,5.6,0,0,0,.82-1.65A6.91,6.91,0,0,0,102,144.24Z"/><path class="cls-9" d="M101.17,149l.76,1.08a1.58,1.58,0,0,0-.51-.15A1,1,0,0,1,101.17,149Z"/><path class="cls-2" d="M154.22,242c.16-.06.32-.18.47-.16,6.25,1.15,10.5-4.46,7.48-11.36-1.66-3.78,3.75-8.74-2.42-11.13a11.81,11.81,0,0,1,2.88-1c2.28-.17,2.37-2.55,3.82-3.51,2.41,7.54-2,14.57-1.64,22.07.28,5.2-1.22,10.49-1.93,15.74C161.05,248.27,153.95,248.13,154.22,242Z"/><path class="cls-2" d="M8.23,182.08,7,179.59l4.88-7.34C12.23,176.12,12.19,179.82,8.23,182.08Z"/><path class="cls-14" d="M218.23,132.37a.84.84,0,0,1,.21.51,45.51,45.51,0,0,0-6.49.19c-2.76.46-5.36-2.35-8.11-.25,2.64,2.45,5.89.63,8.78,1.27,1.39.31,3.89-1.15,3.91,1.52,0,2.4-2.21,2.41-4.14,2.44-4.62.08-9.39-2.23-14.48,1,4.8,0,9-.06,13.12,0,1.52,0,3.77-.66,3.87,1.87s-2.15,2-3.68,2.05c-4.3.07-8.6,0-12.9,0,5.26,1.29,10.69,1.05,15.79,2.94l-1.91,3.1c-4.91,0-9.77-2.06-15.13-.56l16,2.58c.71,1.82-5.06,2.85-.63,5.13l.38,3c-2,.67-1.8,5.91-5.66,2.72-5.88-4.83-13.08-8.15-17.23-15a2.38,2.38,0,0,0,.35-2.88l.37-2.13.65-4.84c2.62-.81,2.57-3.05,2.77-5.16,2.11-3,3.33-6.62,6.44-8.88,3.45,0,6.94-.33,10.34.06,2.79.33,6.31-2,8.33,1.85-.22,2.2-1.4,2.32-3.44,2.2-4.77-.3-9.57-.1-14.35-.1A56.63,56.63,0,0,0,214.58,129C217,129.06,218.36,129.78,218.23,132.37Z"/><path class="cls-7" d="M214.12,146c-5.09-1.89-10.53-1.65-15.79-2.94,4.3,0,8.6,0,12.9,0,1.54,0,3.79.55,3.68-2.05s-2.35-1.84-3.87-1.87c-4.16-.08-8.32,0-13.12,0,5.09-3.25,9.86-.93,14.48-1,1.93,0,4.16,0,4.14-2.44,0-2.67-2.52-1.21-3.91-1.52-2.89-.64-6.14,1.19-8.78-1.27,2.75-2.1,5.35.7,8.11.25a45.51,45.51,0,0,1,6.49-.19c1.56,2.15-1.12,4-.41,6.1L216.18,147a1.34,1.34,0,0,1-.65.56Z"/><path class="cls-3" d="M207.19,162c3.85,3.19,3.66-2,5.66-2.72.62,2.56,1.79,5.09.52,7.78C209.91,167.07,207.92,165.29,207.19,162Z"/><path class="cls-2" d="M214.12,146l1.41,1.63a18.48,18.48,0,0,1-3.06,8.63c-4.43-2.28,1.34-3.31.63-5.13l-.89-2Z"/><path class="cls-1" d="M116.22,116.08l0,2-2,0v-2Z"/><path class="cls-1" d="M114.19,110.7l1,2.34Z"/><path class="cls-1" d="M115.16,113l1,1Z"/><path class="cls-5" d="M104.21,150.15c.56-3.54,2.48-1.52,4-1C108.06,154.19,105.76,150.66,104.21,150.15Z"/><path class="cls-11" d="M202.14,57.14a3.21,3.21,0,0,1-2.07-3.06C202.24,54.11,202.19,55.63,202.14,57.14Z"/><path class="cls-2" d="M20.39,116a26.33,26.33,0,0,1,4.48.07c2.07.37,4.86-1.44,6.07,1.67a1.48,1.48,0,0,1-1.46,2.07c-2.47-.47-6.15,2.47-7.25-2.36-.06-.26-1.19-.28-1.82-.41Z"/><path class="cls-14" d="M142.15,186.15c.85.95,2.25,2.46.56,3.06-2.35.83-1.39-2.26-2.52-3.15Z"/><path class="cls-1" d="M114.18,118l-2,1Z"/><path class="cls-13" d="M123,127.88l.29-1.46c2.49.16,5.36-2,7.33,1.24l-.48.42-7,0Z"/><path class="cls-11" d="M124.15,124.1l2,0C125.47,125,124.81,125,124.15,124.1Z"/><path class="cls-1" d="M40.16,110.09l.08-2,1.9-3.62q.15,1.7.31,3.39l-1.39,2.3A1.71,1.71,0,0,0,40.16,110.09Z"/><path class="cls-8" d="M42.44,107.85l-.31-3.39,0,0,2.16,1.57a1.84,1.84,0,0,0-.07.9Z"/><path class="cls-11" d="M43.1,103,43,101.46s0-.21,0-.21l2.15-1.2,1,1.38,0,1.6a1.64,1.64,0,0,0-.9.12Z"/><path class="cls-3" d="M43.1,103l2.15.18-.92,2.93-2.16-1.57Z"/><path class="cls-9" d="M46.17,101.43l-1-1.39q0-.39,0-.77L47.28,99Z"/><path class="cls-3" d="M42.16,101l-.4-.48c.1,0,.24,0,.29.08a1.21,1.21,0,0,1,.12.38Z"/><path class="cls-5" d="M44.19,98.08l.95.9Z"/><path class="cls-3" d="M43,101.24s0,.22,0,.21l-.86-.41h0A.91.91,0,0,1,43,101.24Z"/><path class="cls-10" d="M80.87,91.94,80.25,94C74.12,93,68,95.82,61.82,94c-.52-.15-2,1.08-2.07,1.75-.14,1.68,1.92,1.72,2.49,1.41,4.07-2.24,8.53-.27,12.57-1.36,3.71-1,3.34,1.16,3.38,3.36a2.72,2.72,0,0,1,0,.83c-3.66,0-7.33-.13-11,.09-1.77.1-4.79-1.16-5,1.1-.14,1.51,3.08.6,4.79.79,3.42.4,7-.79,10.26,1.12l-.1,1.9c-6.32,1.49-12.74,1-19.14.88q.06-.43.1-.87l1-1.05,0,0q1.95-1.5,0-3l-2.71-2,.07-2.07.8-2.63L57.12,94l1.4-1.92,1.61-1c5.17-.13,10.42.23,15.48-.59C78,90.11,79.11,91.58,80.87,91.94Z"/><path class="cls-7" d="M60.13,91.09l-1.61,1-.3-3.65L62,86.71c4.35-.82,8.6-2.23,13.16-1.72,1.84.2,3.17.71,3.9,2.45a34.9,34.9,0,0,0-3.62.64C70.38,89.48,64.71,87.54,60.13,91.09Z"/><path class="cls-13" d="M62,86.71l-3.74,1.7-1-1.37L58.08,85l1-1.93a1.05,1.05,0,0,0,.16-.78l5.56-8.46,2.66,1.31-1.15,3.94-1,1.07c-2.67.4-3.08,2.24-2.86,4.48Z"/><path class="cls-9" d="M58.08,85,57.22,87c-1.59-1.23-3.18-.61-4.78,0l-.34-.94-.4-3.32L52.64,81l3.07,2.09C56.16,84.17,56.37,85.53,58.08,85Z"/><path class="cls-8" d="M48.14,93.06l2.1,0,3,0q0,.49,0,1l-.05,1.07a3,3,0,0,0-.86.15L48.16,95Z"/><path class="cls-3" d="M53.21,94q0-.49,0-1c1.79-1.61,2.7.24,3.9,1l.15.29-1.65.07Z"/><path class="cls-3" d="M52.3,95.2a3,3,0,0,1,.86-.15c.06,1.45.92,1.93,2.24,1.85l1.08,0L56.41,99a8.83,8.83,0,0,0-.91,6.56l-.11,1.55L55.28,109a3,3,0,0,0-2.18,2.88l-1.94.11c.35-3.32.1-5.81-4-2.92-2.67-1.61-1.78.65-1.93,1.78l0,1.07-3.09,1.15-1.09-2.92,1.39-2.3,1.81-.88c2.06-.63,5.18-.76,1.89-4l0-1.6L47.28,99C49,97.86,51.6,97.76,52.3,95.2Z"/><path class="cls-12" d="M47.13,95.07l-.23.36.24-.36Z"/><path class="cls-1" d="M172.12,162.17l1.14-1.17c2.13-.39,3,2.55,3.6,2.43,4.34-.88,1.23-2.8.36-4.4l0-2h2l.78,1.52,1.25-1.52c.67.15,1.36,1,2,0l1.17,2.39-2.12,4.65-.13,1-1.28.78-3.69,1c-2.77-3.76-3.32,3.13-5.71,1.19a7.85,7.85,0,0,0-.29-.93c.79-.89,3.79-1.19.85-3.1Z"/><path class="cls-12" d="M177.15,166.79l3.69-1c.41,2.16.51,4.27-.9,6.16-.25,1.82.67,3.2,1.74,4.51v0l-1.4.27-2.27,0a4.45,4.45,0,0,0-.63.29l-1.23-9.1Z"/><path class="cls-1" d="M187,160.29a33.53,33.53,0,0,1,2.68-4.16c.91-1.06,2.37-1.32,1.89.74-.86,3.72,1.57,5.79,3.47,8.19a7.28,7.28,0,0,0,.09.91c-2.76.52-2.71-3.06-4.91-3.36Z"/><path class="cls-14" d="M187,160.29l3.22,2.33c-.56,1.27.71,3.26-1.1,3.89-1.27.44-1.73-1.15-2.39-2-1.35-1.81-3,0-4.53-.42l2.12-4.65Z"/><path class="cls-14" d="M177.38,177.14a4.45,4.45,0,0,1,.63-.29c-.58,3.9,3.51,6.35,3.15,10.18l-3.88-1C177.87,183.09,174.7,180.08,177.38,177.14Z"/><path class="cls-15" d="M179.93,172c1.41-1.89,1.31-4,.9-6.16l1.28-.78c1.4.15,4,.52,2.45,2.06S184.78,173.77,179.93,172Z"/><path class="cls-15" d="M181.69,176.55v0c.86-2.26,1.92-3.12,3.49-.51l0,2.06h-2Z"/><path class="cls-14" d="M194.07,174.12c-1.72-.28-2.36-1.49-2.53-3,0-.17.45-.59.57-.55,1.64.56,1.76,2.08,2.12,3.45Z"/><path class="cls-14" d="M187.68,178.49a7.08,7.08,0,0,1,1,2.06c0,.36-.58.75-.91,1.13a7.14,7.14,0,0,1-1.13-1.36C186.51,180.13,187,179.68,187.68,178.49Z"/><path class="cls-14" d="M181.69,176.55l1.4,1.51c-.1.84-.25,1.87-1.35,1.57-1.3-.36-1.59-1.54-1.45-2.81Z"/><path class="cls-14" d="M184.16,192c-1.76-.79-2.12-2.28-2-4C184,188.81,184.25,190.33,184.16,192Z"/><path class="cls-14" d="M194.23,174l1.51,2.15-.7.41-1-2.43Z"/><path class="cls-14" d="M189.16,200a1.91,1.91,0,0,1-2-2A1.87,1.87,0,0,1,189.16,200Z"/><path class="cls-15" d="M185.89,169.46c.28.13.69.2.76.39a.57.57,0,0,1-1.05.42C185.52,170.07,185.77,169.75,185.89,169.46Z"/><path class="cls-5" d="M195.17,166a7.28,7.28,0,0,1-.09-.91l2.07,0,0,0,0,2.05-.48,0-.47.09Z"/><path class="cls-14" d="M196.91,179.05l-.27.33c-.07-.13-.2-.26-.19-.38s.17-.22.26-.33Z"/><path class="cls-14" d="M185.16,194l-1-2Z"/><path class="cls-14" d="M183.54,181.76c.12,0,.35.08.35.13a1.21,1.21,0,0,1-.13.42c-.12,0-.35-.08-.35-.13A1.21,1.21,0,0,1,183.54,181.76Z"/><path class="cls-14" d="M189.55,183.77c.12,0,.34.08.34.13a1.2,1.2,0,0,1-.12.41c-.12,0-.34-.08-.34-.13A1.21,1.21,0,0,1,189.55,183.77Z"/><path class="cls-14" d="M186.17,196.05l-1-2Z"/><path class="cls-14" d="M187.17,198.05l-1-2Z"/><path class="cls-14" d="M185.13,178.05l0-2.06C186.1,176.69,186.27,177.38,185.13,178.05Z"/><path class="cls-14" d="M182.16,188l-1-1Z"/><path class="cls-3" d="M172.77,218,171.16,225c-3.16-3.37-1.4-15,2.45-16.22l.41,1.28-.71,2-.1,1.95Z"/><path class="cls-3" d="M174,208.42a16.21,16.21,0,0,1,1.32-17.55Z"/><path class="cls-14" d="M173.31,212.09l.71-2c3,.83,4,3.12,4.13,6L175.21,213Z"/><path class="cls-14" d="M178.22,207c1.65.86,2,2.34,2,4l0,0c-1.71-.79-2.05-2.29-2-4Z"/><path class="cls-14" d="M179.17,216c.15,1.11,2,2.64.24,3.14-1.17.34-1.21-1.86-1.27-3.12Z"/><path class="cls-14" d="M178.1,207.09c-.23-.35-.47-.7-.68-1.07a2.74,2.74,0,0,1,.34-.26l.47,1.22Z"/><path class="cls-14" d="M181.15,213.06a7.86,7.86,0,0,1-1-.05q0-1,0-1.94l0,0Z"/><path class="cls-14" d="M182.16,215.06l-1-2Z"/><path class="cls-14" d="M183.17,216.09l-1-1Z"/><path class="cls-13" d="M177.15,166.79l-1,1.25c-2.89,3.55,1.24,8.73-2.79,12l-2-1.05,0-1.83c3-1.69,2-3.89.8-6.13l-.71-3.06C173.83,169.92,174.38,163,177.15,166.79Z"/><path class="cls-3" d="M171.38,179l2,1.05c-2.75,1.24,1.74,5.5-2.54,6.11-3.36,1.67-1.73-1-1.82-2.11l.05-4Z"/><path class="cls-2" d="M168.37,201.13l-2.21-.09c.29-2.68-3-7,3.25-6.93C168.37,196.35,170.7,199.08,168.37,201.13Z"/><path class="cls-3" d="M170.34,227c1.56,2.06-.12,4-.2,6C166.66,230.92,168.75,229,170.34,227Z"/><path class="cls-11" d="M166.77,247.34c-.1,0-.28-.09-.28-.14a1.53,1.53,0,0,1,.11-.43c.1,0,.29.09.29.14A1.56,1.56,0,0,1,166.77,247.34Z"/><path class="cls-2" d="M170.27,192.08c-.74-.45-.51-.75.16-1Z"/><path class="cls-4" d="M183.19,157c-.66,1-1.34.18-2,0l5-15q0-.49,0-1c3.67-1.51,1.25-4.71,2-7,2-1,3.21-2.54,3.1-4.9,3-1.91,6.37-3.59,4.93-8.18l.13-1.17a.57.57,0,0,0,.56-.57l1.31-1,1-1.12h.95c0,1.21-.07,2.46,1.3,3.1l-.9,3c-3.11,2.26-4.33,5.89-6.44,8.88-2.81.71-2.9,2.87-2.77,5.16l-.65,4.84c-1.53.47-2,1.11-.37,2.13A2.38,2.38,0,0,1,190,147Z"/><path class="cls-5" d="M204.16,172c-3.13-.53-4.38-3.76-7.06-4.95C201,166.46,203.9,167.39,204.16,172Z"/><path class="cls-3" d="M209.27,170.1l-1,.15c-1-.82-2.37-1.62-1.79-3.18.38-1.05,1.29-.61,2-.12C209.68,167.76,211,168.52,209.27,170.1Z"/><path class="cls-3" d="M210.1,171.27q0-.62,0-1.25C210.92,170.42,210.62,170.84,210.1,171.27Z"/><path class="cls-3" d="M206.12,172.69H206c-.14-.25-.3-.5-.45-.75Z"/><path class="cls-5" d="M197.15,165l.22-.39-.21.41Z"/><path class="cls-14" d="M174.37,223l-.18-4.93c1.61,0,2.18,1.3,2.66,2.48a28.91,28.91,0,0,1,1,3.58Z"/><path class="cls-2" d="M173.31,212.09l1.89.9-2,1Z"/><path class="cls-10" d="M66.31,79.06l1.15-3.94c2.6-1.23,4.69-2.84,4.56-6.11,1.2-1.05,2.59-2,2.22-3.94l2.15-3c3.55.23,3.38-3.1,4.75-5,2.7-.18,6.72-2.2,5.09,3.65l2.35.58L84.29,78.16c-4-2.55-7.92-.63-11.9.83,2.31,0,4.63,0,6.94,0,1,0,2.49-1,2.72,1,.17,1.46-.88,2.11-2.13,2.28-3.76.51-7.75,1.91-11.24,1.13-3.73-.83.43-2.75.54-4.28l.16-.5L69.1,79Z"/><path class="cls-3" d="M62.47,84.6c-.22-2.24.19-4.08,2.86-4.48A4.21,4.21,0,0,1,62.47,84.6Z"/><path class="cls-6" d="M95.16,33.83c1,3.72-2.07,6.66-2,10.21-3-.14-4,1.71-4.82,4.32-.58,1.84-1,5.49-4.74,3C86.66,45,89.7,38.62,95.16,33.83Z"/><path class="cls-6" d="M73.33,59.18a18.45,18.45,0,0,1,9.18-14.85c-1.23,3.7-4.8,6.2-5.24,10.3Z"/><path class="cls-1" d="M73.33,59.18l3.94-4.56.64,3.23-1.53,4.2-2.15,3c-1.08-.31-3,1.47-3.15-1.2l.25-1.76a3.61,3.61,0,0,0,2-3Z"/><path class="cls-6" d="M88.57,61.32l-2.35-.58c1.63-5.85-2.39-3.83-5.09-3.65L81,54.64a.54.54,0,0,1,.73,0L90.22,54Z"/><path class="cls-7" d="M81,54.64l.16,2.45c-1.37,1.86-1.2,5.19-4.75,5l1.53-4.2Z"/><path class="cls-12" d="M61.88,123.36a11.27,11.27,0,0,1-6.74-1.27,3.16,3.16,0,0,0-2.06-2.88c-.08-2.16.75-3.43,3.12-3.2l0,0,1.47,1.39.43-1.19,3.23-1.3c2.44.41,3.72,2.2,4.88,4.12-3.53-.88-4.81.49-4,4Z"/><path class="cls-10" d="M60.16,108.06c4.09-2.15,8.44-.67,12.67-.87,1.46-.07,1.15,1,1.28,2.31.23,2.37-1.17,1.51-2,1.52-3.66.06-7.32,0-11,0Z"/><path class="cls-11" d="M61.31,114.89l-3.23,1.3-1.9-.2,0,0-3.1-4.12A3,3,0,0,1,55.28,109l1.05,0-.13,2-.23.37.25-.36A7.14,7.14,0,0,1,61.31,114.89Z"/><path class="cls-11" d="M62.21,123c-.83-3.48.45-4.86,4-4h0a1.78,1.78,0,0,0,2,2l1.89,1.13C67.82,125.68,64.76,121.92,62.21,123Z"/><path class="cls-12" d="M68.21,121a1.78,1.78,0,0,1-2-2C67.52,119,68.29,119.58,68.21,121Z"/><path class="cls-14" d="M56.33,109l-1.05,0,.11-1.92,1.94.81Z"/><path class="cls-14" d="M55.5,105.55A8.83,8.83,0,0,1,56.41,99l2.71,2q0,1.5,0,3l0,0-1,1.05q0,.43-.1.87Z"/><path class="cls-6" d="M78.19,99.2c0-2.2.33-4.36-3.38-3.36-4,1.09-8.51-.87-12.57,1.36-.57.31-2.63.27-2.49-1.41.06-.67,1.55-1.9,2.07-1.75C68,95.82,74.12,93,80.25,94Z"/><path class="cls-6" d="M77.28,103.13C74,101.22,70.44,102.41,67,102c-1.7-.2-4.93.71-4.79-.79.21-2.26,3.23-1,5-1.1,3.65-.21,7.31-.08,11-.09C78.39,101.21,78.42,102.34,77.28,103.13Z"/><path class="cls-5" d="M123.17,128.05l7,0c2.63,3.19-.55,6.29-.28,9.51.1,1.2-2.3,1.73-3.83,1.34-2.07-.52-3.69-1.91-3.74-4.06A42.85,42.85,0,0,1,123.17,128.05Z"/><path class="cls-3" d="M143.26,137.09c1.38.11,1.91.92,1.8,2.23s-.85,1.59-1.9,1.66Z"/><path class="cls-15" d="M221.16,77c.24,1.52-.67,3.58,1.89,4-2.76,7.65-9.61,12.66-12.87,20l-7.72,9.12c-.61-.52-1.22-1.06-1.85-1.56-1-.77-2.5,2.26-3-.32-.36-1.88,1.56-2.38,2.86-2.79,5.19-1.62,7.14-5.51,7.74-10.46,4.87-.67,3.16-3.43,1.91-6-1.44-3.19,1.59-5.24,2-8,2,.8,2-4,4.13-1.62,1.63,1.83-1.08,2.16-1.87,3.17-.36.47-.83,1.31-.64,1.66.47.89,1.24.44,2.08.2C219.58,83.34,219.67,79.7,221.16,77Zm-5.62,10.27c.29.12.61.37.8.29s.25-.48.36-.75c-.26-.12-.58-.38-.77-.31S215.68,87,215.54,87.31Z"/><path class="cls-7" d="M231.11,83.6c2.14,2.87-.52,5.2-1.08,7.66-1.61,7-3.74,13.85-5.67,20.76l-1.2,0h0v-1c-1.85-3.66,4.17-7.33,0-11,.83-.23,2.24.48,2.25-1.12,0-2.15-1.47-3.2-3.3-3.88C224.24,90.54,226.45,86.11,231.11,83.6Z"/><path class="cls-3" d="M212.44,101.15c1.18,0,2.27-2.52,3.54-.13l-.33,1.92-4.8,6.92-3.93,4.43L205.15,113l.23-2A22.86,22.86,0,0,0,212.44,101.15Z"/><path class="cls-13" d="M212.44,101.15a22.84,22.84,0,0,1-7.07,9.94h-2.86q0-.46-.07-.91l7.72-9.12Z"/><path class="cls-14" d="M222.11,95c1.83.67,3.31,1.73,3.3,3.88,0,1.6-1.42.9-2.25,1.12h-2L220,98.62Z"/><path class="cls-7" d="M220,98.62l1.13,1.4a5.91,5.91,0,0,1-5.52,2.91L216,101Z"/><path class="cls-10" d="M206.93,114.29l3.93-4.44c.75.5,1.42,1.22.7,2-4.78,5.27-1,5.31,3.11,5.18,1.16,0,2.33,0,3.49,0q0,.48,0,1c-3.16,0-6.33,0-9.48.13-1.09.05-2.58.34-2.65,1.74-.08,1.7,1.29,2.14,2.76,2.1,4.14-.1,8.33.52,12.36-1l.1,0-.15,3.95-1.86,0c-2-3.85-5.54-1.52-8.33-1.85-3.4-.4-6.89-.08-10.34-.06l.9-3C204.05,118.91,205.62,116.73,206.93,114.29Z"/><path class="cls-7" d="M219.22,125l1.86,0c-.63,2.57-.29,5.52-2.85,7.33.12-2.59-1.19-3.31-3.66-3.39a56.63,56.63,0,0,1-13.14-1.86c4.79,0,9.58-.2,14.35.1C217.82,127.34,219,127.22,219.22,125Z"/><path class="cls-7" d="M218.15,118q0-.48,0-1c2.14-1,5.21-1.31,4-5h1l1,1c-.78,2.76-.15,6-3,8l-.1,0C221.34,118.86,220.33,117.86,218.15,118Z"/><path class="cls-10" d="M224.2,113.05l-1-1,1.2,0Z"/><path class="cls-10" d="M160.16,211c4.12,4.6-2.58,5.26-3,8.21-3.13-1.65-2.08,2.72-4,2.79,0-1.71-.92-1.49-2-1C153.38,217,151.56,209.33,160.16,211Z"/><path class="cls-11" d="M171.38,179l-2.32,1.06a4.6,4.6,0,0,1-.84,0l-.22-1-.25-2,.08-4-.6-2.11-1.22-1.1.06-1.69,2.1-1.08,3,0a7.85,7.85,0,0,1,.29.93l.71,3.06c-1.74,1.85-.79,4.05-.8,6.13Z"/><path class="cls-1" d="M166.08,168.09l-.06,1.69-.88,1.22-4.74,5.16-2.2-1.08,1.78-3.17c2.65-.08,2.84-2.15,3.27-4Z"/><path class="cls-10" d="M150.16,208c-1.13.3-2.36,1.82-3.3.12-.21-.37,1.07-2.18,1.9-2.39,2-.49,1.1,1.37,1.41,2.27Z"/><path class="cls-10" d="M154.77,205.8a16.22,16.22,0,0,1-1.35-2.53c-.23-.79-.18-1.85.95-1.72a2.23,2.23,0,0,1,1.41,1.58C155.86,203.79,155.27,204.55,154.77,205.8Z"/><path class="cls-14" d="M168.22,180a4.6,4.6,0,0,0,.84,0l-.05,4C166.46,183.16,166.66,181.72,168.22,180Z"/><path class="cls-14" d="M167.76,177l.25,2C167.23,178.44,165.6,177.94,167.76,177Z"/><path class="cls-10" d="M164.16,207l-.5,1.24-.49-1.25Z"/><path class="cls-14" d="M167.24,170.89l.6,2.11Z"/><polygon class="cls-10" points="144.16 205.04 144.54 205.25 144.38 205.42 144.16 205.04"/><path class="cls-10" d="M162.2,207h-1.08C161.48,206.39,161.84,206.4,162.2,207Z"/><path class="cls-10" d="M150.16,208l.38.21-.38-.21Z"/><path class="cls-5" d="M163.25,167.89c-.43,1.88-.62,3.95-3.27,4l1-3.92,1.23-.93,1.05.94Z"/><path class="cls-3" d="M44.6,132.45c-1.17-1.69-2.9-1.49-4.61-1.37l-1.95-3c4.69-.21,5.67-3.11,5.15-7.1,4.27,1,4.83-3.16,7-5l1.17,3.26-3.56,6.66-2.74,3.2-1.24.44L45,130Z"/><path class="cls-11" d="M26.06,146.93c-.17-1.46.11-2.66,1.78-3A2.35,2.35,0,0,1,26.06,146.93Z"/><path class="cls-2" d="M27.56,115.1c-1.28-.6-3.93,1-3.8-1.6.15-3,2.94-2.49,5-2.43,1.69,0,4.55-.58,4.36,1.77C32.89,115.89,29.67,114.74,27.56,115.1Z"/><path class="cls-13" d="M35.84,121.76c1.29.14,2.37.72,2,2.14-.43,1.88-2.13.85-3.28,1.1Z"/><path class="cls-8" d="M50.22,115.94c-2.2,1.87-2.76,6-7,5l-1-4c2.29-.2,2.64-1.16,1.13-2.86l-1.16-1,3.09-1.15c.3,1.05.34,2.81.94,3,2.19.79.35-1.44,1.14-1.87l2.9,2A4.08,4.08,0,0,0,50.22,115.94Z"/><path class="cls-9" d="M42.14,113.07l1.16,1L42,115.94l-1.87-5.85a1.71,1.71,0,0,1,.9.06Z"/><path class="cls-5" d="M42,115.94l1.28-1.84c1.51,1.7,1.16,2.66-1.13,2.86Z"/><path class="cls-1" d="M160.32,163h.85c1.64.05,3.62-.57,4,2l-5-1Z"/><path class="cls-3" d="M165.17,165c-.37-2.58-2.35-2-4-2,.39-4.83,3.19-3,5.77-2.17,1.68.56,3.44.88,5.17,1.3q-.06.89-.12,1.78l-4.87,1.1Z"/><path class="cls-4" d="M167.13,165l4.87-1.1c2.94,1.91-.06,2.21-.85,3.1l-3,0Z"/><path class="cls-1" d="M163.23,168l-1.05-.94Z"/><path class="cls-5" d="M177.18,157q0,1,0,2l-4.06,1-6-2,4.82-.3c-2.37-1-3.69-.94-4.82.31l-2-1,0-2q0-.48.08-1l1,0C170.21,153.73,173.61,155.69,177.18,157Z"/><path class="cls-5" d="M186.19,141.08q0,.49,0,1h-3q0-1.5,0-3l2.07-7.07c2.57.27,2.5-5,6-2.84.11,2.36-1.12,3.86-3.1,4.9C184.49,135.55,186.81,138.72,186.19,141.08Z"/><path class="cls-4" d="M183.21,139.05l0,3c-4.73.72-7.71-2.44-11-5l2.92-1.07,2.06,1,5,1Z"/><path class="cls-4" d="M177.18,157c-3.57-1.35-7-3.31-11-3,3.5-2.88,11.52-1,13,3Z"/><path class="cls-5" d="M173.22,129.1l.11-1.21,2.77-1.77c1.33-.13,2.7,1.13,4-.09l1,5.92Z"/><path class="cls-4" d="M173.22,129.1l7.9,2.84q0,1.08,0,2.15L174.27,132l-2-1.9Z"/><path class="cls-12" d="M180.11,126c-1.31,1.22-2.67,0-4,.09l-2.06-.82.08-1.37,3.23-.94a1.49,1.49,0,0,1,.49.1l1.27.52,1.35,1.53A1.26,1.26,0,0,0,180.11,126Z"/><path class="cls-8" d="M177.36,123l-3.24.94a1.55,1.55,0,0,1,.07-.61l.91-2.33Z"/><path class="cls-4" d="M174,125.29l2.06.82-2.77,1.77Z"/><path class="cls-13" d="M174.27,132l6.88,2.11,1,4-5-1c1.34-2.4.26-3.12-2.06-3C173.16,134,173.85,133,174.27,132Z"/><path class="cls-1" d="M175.11,134c2.32-.13,3.4.59,2.06,3l-2.06-1,0,0a2.7,2.7,0,0,0,.41-.21,6.46,6.46,0,0,0-.32-.73Q175.14,134.54,175.11,134Z"/><path class="cls-13" d="M175.18,135a6.46,6.46,0,0,1,.32.73,2.7,2.7,0,0,1-.41.21Z"/><path class="cls-5" d="M180.46,125.13l-1.35-1.54c-.42-.81,1.24-2.42-1-2.53L176,118.82c1.89-1.22.55-2.55.14-3.86L181.2,108c2.19.14,2.23-2.54,4-3l1.19.08-.75,4.92a1.06,1.06,0,0,0-.62.55c-1.54.32-2.72.9-2.72,2.81,0,3.83-.14,7.66-.21,11.49Z"/><path class="cls-3" d="M191.24,129.14c-3.47-2.17-3.4,3.11-6,2.84l-3-4.66,2.11-1.47,5.79-3.75c2.85,4.12,4-.59,6-1.14C197.61,125.55,194.23,127.22,191.24,129.14Z"/><path class="cls-7" d="M221.16,77c-1.49,2.66-1.58,6.3-5.34,7.4-.84.25-1.62.69-2.08-.2-.19-.35.28-1.2.64-1.66.79-1,3.5-1.34,1.87-3.17-2.12-2.38-2.17,2.42-4.13,1.62-1.14-3.92,5.61-3.86,4-8v0l2-2,1,0,1.05,2,0,0Z"/><path class="cls-1" d="M196.17,121c-2,.55-3.13,5.26-6,1.14l7.06-7.74,1.91-.31c2.29.33,2.17-2.05,3.35-3h2.86q-.11,1-.23,2c-2.17.71-2.11,4.2-5,4h-.95c-1.62-.79-.84.6-1,1.12l-1.31,1a2.4,2.4,0,0,0-.57.57Z"/><path class="cls-4" d="M184.41,125.85l-2.11,1.47-.26-2.44c.08-3.83.2-7.66.21-11.49,0-1.91,1.18-2.49,2.72-2.81l.36,1.63c0,.41,0,.82,0,1.23-2.1,2.76-1,5.77-.72,8.73l-.25,1.33-.75,0c.12.09.23.23.36.24s.26-.12.39-.19Z"/><path class="cls-10" d="M210.08,73l1.13,1.13c-.57,2.75-1.08,5.51-1.74,8.23-.15.61,0,2-1.24,1.56-.68-.23-1.7-1.54-1.59-1.71C208.52,79.36,206.71,75.17,210.08,73Z"/><path class="cls-13" d="M186.34,105.11l-1.19-.08c.12-2.78-2.14-6.09,1.8-8l2.91,6.58,0-.1C187.89,102.35,187.67,104.95,186.34,105.11Z"/><path class="cls-9" d="M184.64,122.17c-.31-3-1.39-6,.72-8.73l1.82,2.61,0,0C186.92,118.33,187,120.75,184.64,122.17Z"/><path class="cls-7" d="M203.43,84.94c-.37-4.18-3.58-5.47-2.35-8.49.12-.29,1-.59,1.06-.54C203.65,78.07,204.54,80.38,203.43,84.94Z"/><path class="cls-7" d="M210.11,89c1.25,2.61,3,5.36-1.91,6A9.69,9.69,0,0,1,210.11,89Z"/><path class="cls-9" d="M185.33,112.21l-.36-1.63a1.07,1.07,0,0,1,.62-.55C187.73,111,186.95,111.67,185.33,112.21Z"/><path class="cls-15" d="M202.52,100.45c.21.68.53,1.14.41,1.43s-.66.49-1,.72c-.14-.27-.46-.61-.39-.8A6.86,6.86,0,0,1,202.52,100.45Z"/><path class="cls-9" d="M187.18,116.06l.82-2.48.71.38L187.14,116Z"/><path class="cls-15" d="M199.16,114l-1.91.31c.1-.75-.12-1.79,1-1.76C198.58,112.59,198.87,113.53,199.16,114Z"/><path class="cls-9" d="M189.55,111.31c.13-.28.19-.67.39-.76a.78.78,0,0,1,.71.32.8.8,0,0,1-.32.73C190.16,111.68,189.83,111.43,189.55,111.31Z"/><path class="cls-7" d="M189.84,103.5l0,.1.28-1.43,1.05.08q0,.35,0,.71l-.54,2.09Z"/><path class="cls-7" d="M193.57,83.23a4,4,0,0,1-.22-.92c0-.07.38-.15.59-.22,0,.15.15.34.1.45A4.21,4.21,0,0,1,193.57,83.23Z"/><path class="cls-7" d="M204.76,74.31c-.12,0-.33-.08-.33-.12a.59.59,0,0,1,.14-.38s.31.07.31.11A1.18,1.18,0,0,1,204.76,74.31Z"/><path class="cls-7" d="M205.58,78.41l-.16-.54.36-.1Z"/><path class="cls-7" d="M195.58,78.45l-.16-.56.37-.1Z"/><path class="cls-10" d="M202.91,73l-.28.34c-.07-.13-.21-.26-.19-.39s.17-.23.26-.34Z"/><path class="cls-9" d="M184.39,123.54c-.13.07-.27.2-.39.19s-.24-.16-.36-.24l.75,0Z"/><path class="cls-14" d="M218.13,71l-2,2c.1-2.49.67-4.74,3.12-6Z"/><path class="cls-14" d="M220.16,71l.4-2.16c.13.08.39.2.38.23-.24.65-.51,1.3-.77,1.94Z"/><path class="cls-14" d="M220.18,73.05l-1.05-2h1Z"/><path class="cls-6" d="M181.2,108,176.14,115a31.72,31.72,0,0,1,.94-14q0-1,0-2l1,.13,2.09,1.08.92,1.77Z"/><path class="cls-10" d="M181.08,102l-.92-1.78-1-5.19H182C181.93,97.41,182.75,99.88,181.08,102Z"/><path class="cls-10" d="M182.29,93.1c-1.11-2.17-4-4.54.68-6C182.82,89.08,184.11,91.27,182.29,93.1Z"/><path class="cls-15" d="M183.2,76.09,182.12,72l2.12.08C183.73,73.37,184.95,75.12,183.2,76.09Z"/><path class="cls-9" d="M191.19,102.24l-1.05-.08.4-1.32Z"/><path class="cls-10" d="M181.17,81l-1,0Z"/><path class="cls-6" d="M64.79,73.81l-5.56,8.46c.24-6.16,3.18-10.75,8.18-14.16l-.25,1.95C65.38,70.68,65.23,72.33,64.79,73.81Z"/><path class="cls-13" d="M67.16,70.05l.25-1.95,3.67-4.23c.19,2.67,2.07.89,3.15,1.2C74.6,67,73.21,68,72,69c-1.46.1-2.07,1.2-2.93,2.2C66.81,73.82,67.38,71.18,67.16,70.05Z"/><path class="cls-6" d="M73.35,59.16a3.61,3.61,0,0,1-2,3C70.16,59.87,71.47,59.32,73.35,59.16Z"/><path class="cls-6" d="M61.17,43.11c0-1.41-.11-2.88,1.9-3A3.07,3.07,0,0,1,61.17,43.11Z"/><path class="cls-6" d="M58.08,85c-1.71.55-1.92-.81-2.37-1.86l3.36-.07Z"/><path class="cls-9" d="M176,118.82l2.15,2.25-.29,2a1.49,1.49,0,0,0-.49-.1l-2.26-2Z"/><path class="cls-10" d="M170.16,106v-2C171.14,104.7,171.15,105.37,170.16,106Z"/><path class="cls-10" d="M170.16,104l-1-1Z"/><path class="cls-14" d="M179.14,95.06l1,5.19-2.09-1.08L176.16,95Z"/><path class="cls-6" d="M44.6,132.45,45,130a1.29,1.29,0,0,0,0-1l2.74-3.2c2.76.24,2.85,2.88,4.08,4.5.47.62,1.09,2.2,1.75.22.31-.91-1.17-2.39.42-2.85.4-.12,1.42,1.82,2.12,2.84,1,1.48,2,3,3,4.49h0l1,3.05c.83,2.63.92,5.54,2.92,7.73L52.51,169.9c-.46,1.06-.93,2.13-2.33,2.22l-2-4.05,2-1c2.22-2-.66-4,0-6l1-1c.46.64.93,1.83,1.37,1.82,1.27,0,.68-1.3.55-1.84-1-3.94-1.86-7.94-4.83-11l-1.08-2-.55-2.9L45.15,147l-1.9,0,.45-4.84c1.09-.47,1.67-1.07.52-2.09l.2-5c1.35-.28,2.29-.71.81-2.08A3.62,3.62,0,0,1,44.6,132.45Zm3.64-3.07c.24,2.54.07,3.69.47,4.58,2.33,5.27,4.79,10.48,7.22,15.7.44.94.12,2.6,1.79,2.33a5.06,5.06,0,0,0,.12-3.19c-2.36-5.45-4.91-10.82-7.44-16.2A36.53,36.53,0,0,0,48.23,129.38Zm3.39,15.8c-.55.62-1.08,1-1,1.18,1.34,3.68,2.75,7.34,4.15,11,.39-.17,1.14-.46,1.13-.48C54.55,153.11,53.16,149.34,51.63,145.18Zm-1.42-3.24-2.33-3.82c-.21.46-.71,1-.59,1.36.5,1.41.21,3.29,2.07,3.92A8,8,0,0,0,50.2,141.95Z"/><path class="cls-2" d="M50.16,167l-2,1-1,0a7.59,7.59,0,0,0-1.78-6c-.1-.11-.69.24-1.05.37.81,1.77,1.62,3.55,2.44,5.31.06.13.25.2.39.3,0,2.25-.28,4.68,3,5,.23,1.48-.15,2.64-1.69,3.18-3.56-.71-1.46-7.21-4.5-6-1.75.71,2,5.5,2.23,8.73l-.92,5.36-.75.76a1.63,1.63,0,0,0-1.2,2l.08.14L42.12,187l-1-2h0l-.94-1.91L39.1,182l-.9-4.93.26-2c2.24-.82,2.1-1.89.33-3.13l.66-1.88C42,166.44,42.6,162.12,43,158c.27-2.95,1.09-3,3.19-1.91h0l1,2v0Zm-7.27-1-.2-.36c-.09.1-.24.2-.25.31s.11.24.18.36Z"/><path class="cls-7" d="M46.17,156C44.07,155,43.25,155,43,158c-.38,4.16-1,8.48-3.54,12.1A59.39,59.39,0,0,1,42.51,153l3.64-1.84,2,1.85C46.2,153.18,46.16,154.6,46.17,156Z"/><path class="cls-2" d="M46.15,151.11,42.51,153q0-2.06.08-4.13l2.59-.76,2,0q0,.49,0,1Z"/><path class="cls-7" d="M38.19,177.05l.9,4.93-1.67.11C37.15,180.33,36.83,178.56,38.19,177.05Z"/><path class="cls-7" d="M38.78,171.94c1.77,1.24,1.91,2.31-.33,3.13Z"/><path class="cls-7" d="M36.11,190c1.61,1.42,1.27,2.41-.67,3.06Z"/><path class="cls-7" d="M45.22,133c1.48,1.37.54,1.81-.81,2.08Z"/><path class="cls-7" d="M44.21,140.06c1.16,1,.57,1.62-.52,2.09A1.33,1.33,0,0,1,44.21,140.06Z"/><path class="cls-7" d="M45.19,148.06l-2.59.76.65-1.84,1.9,0Z"/><path class="cls-7" d="M37.09,184c1.53,1.25.69,1.74-.66,2.06Z"/><path class="cls-10" d="M46.18,179c-.21-3.24-4-8-2.23-8.73,3-1.23.94,5.26,4.5,6l-.94,2.9Z"/><path class="cls-10" d="M50.14,173c-3.25-.32-3-2.75-3-5h0l1,0,2,4.05A1.48,1.48,0,0,1,50.14,173Z"/><path class="cls-6" d="M46.18,179l1.33.14c-.21,2-.63,3.86-2.25,5.22Z"/><path class="cls-6" d="M43.3,187.13a1.63,1.63,0,0,1,1.2-2Z"/><path class="cls-7" d="M39.76,189.72a8.15,8.15,0,0,1,.31,1.56c0,.28-.27.56-.42.83a6.16,6.16,0,0,1-.4-1.34C39.23,190.5,39.51,190.21,39.76,189.72Z"/><path class="cls-7" d="M41.16,185l1,2Z"/><path class="cls-7" d="M40.22,183.13l.94,1.91Z"/><path class="cls-7" d="M59.17,135.05c-1-1.5-2-3-3-4.49-.69-1-1.72-3-2.12-2.84-1.59.47-.11,1.94-.42,2.85-.67,2-1.28.41-1.75-.22-1.23-1.62-1.32-4.26-4.08-4.5l3.56-6.66h1.69a3.15,3.15,0,0,1,2.06,2.88c-2,2.89.44,4.27,2,6C58.31,130.25,59.53,132.42,59.17,135.05Z"/><path class="cls-6" d="M59.17,135.05c.35-2.63-.86-4.81-2-7,.92-1,2.51-1.34,2.63,0,.32,3.51,3.73,5.9,3.19,9.6l-1.8-.62-2-2Z"/><path class="cls-10" d="M59.16,135l2,2-1,1.05Z"/><path class="cls-10" d="M28.18,201l.38.23-.41-.2Z"/><path class="cls-13" d="M173.16,160.06l4.06-1c.87,1.6,4,3.52-.36,4.4-.59.12-1.47-2.82-3.6-2.43A5.11,5.11,0,0,1,173.16,160.06Z"/><path class="cls-1" d="M165.14,155l0,2c-.95,1-2.24,1.49-2.65-.12C162,154.86,163.9,155.19,165.14,155Z"/><path class="cls-15" d="M148.63,230.62c-.34-1.28-3-.63-1.91-2.79.62-1.25.72-3,2.79-2.66,1.77.32,1.24,1.52.85,2.6S150.55,230.43,148.63,230.62Z"/><path class="cls-15" d="M151.16,221c1.08-.49,2-.71,2,1h-2Q151.16,221.54,151.16,221Z"/><path class="cls-15" d="M151.16,222l-.22.38.21-.39Z"/><path class="cls-7" d="M212.21,149.09l.89,2-16-2.58C202.44,147,207.3,149,212.21,149.09Z"/><path class="cls-12" d="M191.34,137.14c-.14-2.29,0-4.45,2.77-5.16C193.91,134.09,194,136.33,191.34,137.14Z"/><path class="cls-13" d="M190.32,144.11c-1.64-1-1.16-1.67.37-2.13Z"/><path class="cls-13" d="M46.15,103c3.28,3.19.17,3.32-1.89,4a1.85,1.85,0,0,1,.07-.9l.93-2.93A1.65,1.65,0,0,1,46.15,103Z"/><path class="cls-14" d="M56.48,96.92l-1.08,0,.23-2.54,1.65-.07Z"/><path class="cls-6" d="M59.11,104q0-1.5,0-3Q61.06,102.54,59.11,104Z"/><path class="cls-6" d="M58.15,105.05l1-1.05Z"/><path class="cls-3" d="M67.16,70.05c.21,1.12-.36,3.77,1.92,1.15.86-1,1.47-2.09,2.93-2.2.13,3.27-2,4.88-4.56,6.11l-2.66-1.31C65.23,72.33,65.38,70.68,67.16,70.05Z"/><path class="cls-11" d="M55.63,94.36,55.4,96.9c-1.32.08-2.18-.4-2.24-1.85L53.21,94Z"/><path class="cls-11" d="M50.21,115.08l-2.9-2L47.16,111l0-1.91c4.14-2.89,4.39-.4,4,2.92Z"/><path class="cls-9" d="M50.21,115.08l.94-3.08,1.94-.11L56.2,116c-2.37-.23-3.2,1-3.12,3.2H51.39l-1.17-3.26A4.11,4.11,0,0,1,50.21,115.08Z"/><path class="cls-13" d="M47.16,111l.15,2.09c-.79.43,1.05,2.66-1.14,1.87-.6-.22-.64-2-.94-3l0-1.07Z"/><path class="cls-12" d="M47.16,111l-2-.14c.15-1.13-.73-3.39,1.93-1.78Q47.14,110,47.16,111Z"/><path class="cls-3" d="M171.35,177.17c0-2.08-.93-4.28.8-6.13C173.37,173.28,174.3,175.48,171.35,177.17Z"/><path class="cls-13" d="M200.15,117c2.89.19,2.83-3.3,5-4l1.78,1.25c-1.3,2.44-2.88,4.63-5.48,5.85C200.07,119.5,200.17,118.25,200.15,117Z"/><path class="cls-13" d="M186.19,141.08c.62-2.36-1.69-5.53,2-7C187.44,136.37,189.86,139.56,186.19,141.08Z"/><path class="cls-13" d="M198.18,118.18c.18-.52-.6-1.91,1-1.12Z"/><path class="cls-3" d="M196.3,119.79a2.4,2.4,0,0,1,.57-.57A.57.57,0,0,1,196.3,119.79Z"/><path class="cls-6" d="M69.1,79l.29-.38-.16.5Z"/><path class="cls-9" d="M56.18,116l1.9.2-.43,1.19Z"/><path class="cls-9" d="M56.22,111l-.25.36.23-.37Z"/><path class="cls-7" d="M215.54,87.31c.13-.28.2-.69.4-.76s.51.19.77.31c-.12.26-.17.67-.36.75S215.83,87.43,215.54,87.31Z"/><path class="cls-15" d="M222.16,112c1.21,3.7-1.86,4-4,5-1.16,0-2.33,0-3.49,0-4.13.12-7.89.08-3.11-5.18.72-.8,0-1.51-.7-2l4.8-6.92a5.9,5.9,0,0,0,5.52-2.91h2c4.17,3.66-1.84,7.33,0,11h-8.72l0,1Z"/><path class="cls-10" d="M222.16,112h-7.7l0-1h8.72q0,.51,0,1Z"/><path class="cls-14" d="M218.15,118c2.18-.16,3.19.83,3,3-4,1.47-8.22.85-12.36,1-1.48,0-2.85-.4-2.76-2.1.07-1.4,1.56-1.69,2.65-1.74C211.82,118,215,118.05,218.15,118Z"/><path class="cls-13" d="M45.09,129.06a1.29,1.29,0,0,1,0,1l-1.19-.52Z"/><path class="cls-13" d="M167.12,158.07c1.12-1.25,2.44-1.27,4.82-.31l-4.82.3Z"/><path class="cls-1" d="M182,124.88l.26,2.44,3,4.66-2.07,7.07-1-1-1-4q0-1.07,0-2.15l-1-5.92a1.26,1.26,0,0,1,.36-.89Z"/><path class="cls-4" d="M177.85,123.08l.29-2c2.22.11.55,1.72,1,2.53Z"/><path class="cls-10" d="M48.23,129.38a36.53,36.53,0,0,1,2.16,3.23c2.52,5.38,5.07,10.75,7.44,16.2a5.06,5.06,0,0,1-.12,3.19c-1.68.27-1.35-1.39-1.79-2.33C53.5,144.44,51,139.23,48.7,134,48.31,133.07,48.47,131.92,48.23,129.38Z"/><path class="cls-10" d="M46.15,151.11l1-2.08,1.08,0c3,3.07,3.88,7.06,4.83,11,.13.54.72,1.81-.55,1.84-.44,0-.91-1.18-1.37-1.82l-3-7.08Z"/><path class="cls-10" d="M51.63,145.18c1.54,4.16,2.93,7.92,4.27,11.7,0,0-.74.32-1.13.48-1.4-3.66-2.81-7.33-4.15-11C50.55,146.19,51.08,145.81,51.63,145.18Z"/><path class="cls-2" d="M48.13,153l3,7.08-1,1-3-3v0l-1-2h0C46.16,154.6,46.2,153.18,48.13,153Z"/><path class="cls-10" d="M47.17,158.05l3,3c-.64,2,2.24,4,0,6Z"/><path class="cls-10" d="M50.2,141.95a8,8,0,0,1-.85,1.46c-1.86-.64-1.57-2.51-2.07-3.92-.12-.34.38-.9.59-1.36Z"/><path class="cls-10" d="M45.19,148.06l0-1.11,1.47-2.86.55,2.91v1Z"/><path class="cls-7" d="M47.16,148v-1l1.08,2-1.07,0Q47.16,148.54,47.16,148Z"/><path class="cls-10" d="M47.16,168c-.13-.1-.32-.17-.39-.3-.82-1.77-1.63-3.54-2.44-5.31.36-.14,1-.48,1.05-.37a7.59,7.59,0,0,1,1.78,6Z"/><path class="cls-10" d="M42.9,166.08l-.26.31c-.07-.12-.19-.25-.18-.36s.16-.21.25-.31Z"/><path class="cls-10" d="M46.16,156l1,2Z"/></g></g></svg>