<svg xmlns="http://www.w3.org/2000/svg" viewBox="0 0 271.73 222.81"><defs><style>.cls-1{fill:#07090a;}.cls-2{fill:#818282;}.cls-3{fill:#080a0b;}.cls-4{fill:#0a0c0d;}.cls-5{fill:#0b0d0d;}.cls-6{fill:#0e1011;}.cls-7{fill:#0d0f10;}.cls-8{fill:#0b0d0e;}.cls-9{fill:#121415;}.cls-10{fill:#9fa0a0;}.cls-11{fill:#e0e0e0;}.cls-12{fill:#d3d3d4;}</style></defs><title>Asset 1</title><g id="Layer_2" data-name="Layer 2"><g id="Layer_1-2" data-name="Layer 1"><path class="cls-1" d="M185.46,87.87c-9.11,0-18.23-.19-27.33.06-3.25.09-4.73-.95-5.51-4-.87-3.47-2.31-6.69-6.94-6l.09.05c-2.14-3.25-5.35-4.6-9.06-5l.06.11c-.69-2.65-2.89-1.47-4.36-1.49-10.83-.12-21.66-.16-32.48,0-3,0-4.36-.42-4.3-4,.22-14.16.16-28.32,0-42.47,0-2.6.79-3.86,3.24-4.7,3.92-1.34,7.78-2.93,11.55-4.65C120,11.4,131.07,9.46,137.73,0h14c.82,1.57,2.32,1,3.52,1,12.52,0,25,0,37.57-.07,3.5,3.66,7.82,5.91,12.46,7.84,12.54,5.2,25,10.65,37.47,16,2,.85,3.76,1.42,3.9,4.33q.81,17.9,2.21,35.78c.28,3.5-.89,4.13-4.07,4.09-15.12-.15-30.24-.11-45.36,0-1.7,0-4.23-1.26-4.81,1.9Zm-23.09-6.69c1.52,1.12-1.45,4.35,1.75,4.47,2.1.08,1.27-2.71,1.18-4.17s1.32-4.39-1.33-4.53S163.3,79.57,162.37,81.18Zm18.09.16c-.5-1.5.86-4.21-1.23-4.25-2.75,0-1.25,2.79-1.35,4.29s-1,4.15,1,4.21C181.64,85.67,179.78,82.75,180.46,81.34Zm-7.92-.06c1,1.29-1.07,4.17,1.14,4.41s1.12-2.53,1.11-3.87c0-1.6,1.15-4.43-.89-4.63C171.63,77,173.28,79.73,172.54,81.28Zm-2.64.09c-1.1-1.17,1.2-4.06-1.3-4.2-2-.11-1,2.65-.95,4.06s-1.13,4.35,1.06,4.44C170.73,85.76,169.23,83,169.9,81.37Z"/><path class="cls-2" d="M192.73,0q.06.45.09.9c-12.52,0-25,.08-37.57.07-1.2,0-2.7.61-3.52-1Z"/><path class="cls-3" d="M78.72,109c-1-.6-1.92-1.22-2.9-1.8-1.49-.87-4.32.6-4.64-1.55s2.24-3,3.82-4.2q13.18-9.82,26.36-19.65c1.15-.85,2.51-2.5,3.86-1.42,1.7,1.36-.75,2.5-.92,3.8-1.08,8.48-3.59,16.58-6.35,24.63a12.92,12.92,0,0,0-.79,2.87c-.55,5.7-7.78,4.91-9.08,8.86-1.16,3.5,6.13,6.1,2.82,11l-.23,1.61,1.49-.72c5.35-3.77,10.48-1.85,15.6.58l0-.05c3.45,6.11,1.76,11.65-1.91,17-.34.36-1.34.52-.41,1.29l.38-1.31c3.18.13,2.43,2.6,2.41,4.37,0,4.93-.42,9.86-.4,14.79,0,2.08-.44,4.83,3,5.07a5,5,0,0,0,2,3.87c.9,2.26-5.3,5.54,1,7l-.06-.12c-1.33,1.54-.57,2.06,1.05,2.16l0-.16c-1.63,2,2.64,6.55-3,6.72l-.57-1-.44,1.13c-1.73.9-.22,2.73-.07,2.86,6.45,5.38,6.92,14.65,13.1,20.1.94.83,1.87,1.45,1.64,2.71S124,221,122.74,221c-15.62,0-31.24,0-46.86,0a7.24,7.24,0,0,1-2.11-.69,14.87,14.87,0,0,1,1.13-1.47c.46-.47,1.41-.81,1.47-1.28,1.18-9.74,9.66-15.33,13.29-23.65.29-.67-.06-1.63-.11-2.46a8.39,8.39,0,0,0-1.55.83c-.7.58-1.11,2-2.27,1.23s-.68-2-.35-3.16c3.07-10.87,5.15-21.87,4-33.26,1-2.19-1.07-5.84,1.5-6.57,1.75-.5,2.77.3,1.26-1.77-1-1.38-3-3.74-3.48-3.5-1.93.92-.71,3.17-.85,4.86-.19,2.3,0,4.63,0,6.94l-.68,2L85.85,159c-4.21-9.84-11.27-17.77-17.55-26.22-.85-1.15-2.25-2.31-1.26-3.87.28-.44,1.73-.15,2.65-.19,5.79,1,10.44-.14,12.06-6.69v0c2.77-2.68,2.8-5.35,0-8h0C82.58,111.21,80.59,110.14,78.72,109Zm24.1,79.53v.13c1,0,2,0,3,0s2.82,1.06,3-.36c.24-2.11-1.9-1.22-3-1.25-4.3-.11-8.61-.08-12.91,0-.64,0-1.77.74-1.78,1.16,0,1.22,1.14.78,1.81.76C96.23,188.91,99.53,188.7,102.83,188.54ZM90.95,137.24c-.47-1.08.25-3-1.74-3s-.86,2.11-1.67,3.12c-1,1.22.32,1.61,1.36,1.64S91.4,139.18,90.95,137.24Zm5.8,14-1.23-.74c-.21.4-.61.83-.56,1.19s.61.56.94.84Zm-.11-10.29c.21-.49.49-.83.41-1a6,6,0,0,0-.87-1.11c-.12.29-.41.63-.34.86A5.66,5.66,0,0,0,96.64,140.92Zm-2.5-2.13-1-1c-.12.29-.42.65-.34.84a4.53,4.53,0,0,0,.84,1Zm9.46,12.47-.66-.22c0,.16-.17.35-.11.46a3.74,3.74,0,0,0,.49.64C103.42,151.85,103.52,151.56,103.6,151.26Zm1.65-8c.15-.28.38-.52.37-.76s-.26-.47-.4-.71c-.13.24-.38.49-.37.73S105.09,143,105.24,143.24Zm-2.58-1.74-.43-.71c-.14.24-.39.48-.39.72s.25.48.39.72C102.37,142,102.52,141.75,102.66,141.49Zm-3.4-1.75c-.16.26-.42.48-.43.72s.22.49.35.74c.15-.23.41-.45.43-.68S99.4,140,99.26,139.74Z"/><path class="cls-4" d="M222.67,97.15c1.74-.63,3.2-1.54,4,1.47,2.42,8.73,5.41,17.3,7.77,26.05.8,3,2.85,6-.5,9.52-1.31,1.36,5.07,3.48,2.84,7.34,3.81,2.09.49,4.49.28,6.75-.15.58-1.65.61-.65,1.57.08.08.84-.54,1.28-.84,2.48-.94,3.2.76,3.76,2.58,1.43,4.6,3.06,9.15,4.14,13.83.85,3.67,2.13,6.85,5.21,9.18.87.66,2.22,2.15,2,2.53-3.37,6.2,2.25,7.85,5.29,10.79,1.07,1,2.57,1.9.44,3.43-3.79,2.73-2.93,8.71,1.87,10.74,4.47,1.89,6.65,4.61,5.79,9.5-.38,2.19.57,3.57,2.34,5s4.09,3.18,2.73,6.23c-15.46-.1-30.92-.17-46.38-.33-1.5,0-3.64.88-4.23-1.41-.54-2.08,1.67-2.22,2.81-2.88a3.84,3.84,0,0,0,2.28-3.43c.42-5.39,1.45-10.1,7.16-13.22,2-1.12,1.88-6.3,2.65-9.64,0-.17-.6-.49-.93-.74a4.43,4.43,0,0,0-.82,1.1c-.47,1.41-.86,2.86-1.27,4.29a1.85,1.85,0,0,1-2.18,1.55c-1.27-.17-1.2-1-1.38-2.13-2-12.83-.62-26.25-6.55-38.46-.46-1-3.7-4.23,1.21-4.32.69.37,1.36.79,2.07,1.09,2.61,1.08,7.3.06,7.16-.55-.76-3.48-3.55.21-5.45-.8a15.27,15.27,0,0,0-3.75-.91c-1.49-1.9-5.29-2.46-3.58-6.2l1.59-.31-1.21-.48c-3.91-1.92-.21-4.71-.8-7a2.77,2.77,0,0,0,3-2.74l2.41-.83a10.78,10.78,0,0,1,2.44-.38c1.62.11,3.23.43,4.85.63,1.33.16,2.13-.65.9-1.42a8.52,8.52,0,0,0-8.09-.56c-.45.19-.9.42-1.34.63L221.63,135c-2,.12-2.92.94-1.91,3-2.36.72-2.32-1.27-2.65-2.53-2.81-10.57-4.2-21.51-8.14-31.81-.9-2.36.28-3.43,2.69-3.31,3.95,1.41,7.52,1.23,10.28-2.41Zm15.11,93.93c.23-.36.47-.72.68-1.1a2.25,2.25,0,0,0-.33-.27l-.49,1.23-.36.29.21.21Zm11.15-2.88c-2.91-.5-4.33.41-5.09,2-.49,1,.78.91,1.2.75,1.74-.66,3.43-1.48,5.13-2.24Zm3.53,1.18c-.12.29-.38.62-.3.81a.57.57,0,0,0,1.06-.41C253.16,189.58,252.75,189.51,252.46,189.37Zm-19-47c0,.11,0,.28.08.33a1,1,0,0,0,.39.09l-.11-.56Zm-4,1c0,.11,0,.28.08.33a1,1,0,0,0,.39.09l-.11-.56Zm-3.71.86-.32.22.57.27c0-.11.12-.26.07-.31S225.82,144.29,225.7,144.24Z"/><path class="cls-5" d="M72.73,56.83c0,3.33.05,6.66,0,10,0,1.16.63,2.81-1.52,3-5.05.5-2.68,2.92-.85,4.42,1.11.91,1.62,2.53,1.07,2.54-3.73.13-5,4.39-8.94,4.54A105.64,105.64,0,0,0,44.12,83.7c-7.27,1.58-16.11,3.3-24.83.1-4.22-1.55-9.74-6.19-15.52-2.2-.8.55-2.8,1.06-3-1.19-.1-1.52-.81-3.28,1.85-3.75,1.91-.34,4.53-1.27,4.23-3.49-.32-2.42-3-1-4.53-1.07C-.6,72-.26,70,.61,68.82,5,63.1,8.89,56.47,14.54,52.34c6.5-4.75,14.51-12.42,22-9.8,10.49,3.67,18.25-2.62,27.33-2.9,2-.06,3.14-.49,2.9,2A1.9,1.9,0,0,0,67.16,43C72.73,48.63,72.73,48.62,72.73,56.83ZM24.68,76.08l.48.15L24.8,76l-1-1.46-.58.58Zm.1-22,1.46-1-.58-.58-1,1.46-.16.47ZM38.64,68.91c-1,.91-3,.94-2.64,3,0,.23.48.6.64.56C38.39,72,38.41,70.4,38.78,69c.23-.35.46-.69.66-1a2.5,2.5,0,0,0-.32-.26Zm-22-7c-2.94,1.73-3,3.46,0,5.17-1.48,2.63.11,4.38,1.83,6,.33.31,1.12.13,1.7.18-.74-1.58-1.45-3.18-2.22-4.75a13,13,0,0,0-1.12-1.62q0-2.44,0-4.88c.23-.35.46-.69.67-1a2.49,2.49,0,0,0-.32-.26ZM47.78,60.1c1.1-.77,4.67,1.23,4.17-1a12.5,12.5,0,0,0-5.73-7.69c-2.65-1.33-6.46-.34-9.77-.3a2.28,2.28,0,0,0-.18,1C40.56,54,40.87,61.31,47.78,60.1ZM59.45,51c-6,0-6.51.33-5.92,1.18,2.13,3.09,2,8.37,7.91,8,2.49-.14,3.36-.37,3.3-3.17C64.64,52.85,64.38,49.51,59.45,51ZM62,70c1.76.23,3,0,3-2.42-.05-2.07-.49-3-2.76-2.65-1.79.24-3.5-.19-3.41,2.69C58.87,70.13,60.22,70.1,62,70ZM19.06,55a11.94,11.94,0,0,0-1.13,2.47c0,.23.76.63,1.18,1A16.51,16.51,0,0,0,20,56.16C20,55.94,19.55,55.59,19.06,55ZM29.8,51.91l-1.34.78A16.91,16.91,0,0,0,30,54.46c.11.1.66-.28,1-.43Zm4,23A7.33,7.33,0,0,0,33,73.72a6.1,6.1,0,0,0-2,1.15c-.27.28-.67,1.37.54,1.11A10,10,0,0,0,33.8,74.86Zm-.45-19.64.92,1c.12-.27.4-.62.32-.81a4.42,4.42,0,0,0-.81-1Zm6.25,5.71a5.53,5.53,0,0,0-1.2-.79c-.22-.07-.56.19-.84.3a5.64,5.64,0,0,0,1,.85C38.77,61.37,39.11,61.12,39.6,60.93Zm-3.13-3.31a3.41,3.41,0,0,0-.39.66c0,.08.21.35.27.33a3.81,3.81,0,0,0,.71-.31ZM22.15,55.35l.19-.6-.35.09Z"/><path class="cls-5" d="M180.1,191.19c-.72,2.74-3,3.57-5,2.61-2.22-1.06-1.39-3.34-.26-5.17,1.47-2.38,3.24-4.69.69-7.55a2.88,2.88,0,0,1,0-2.74c6.67-9.1,2.59-19.52,3.75-29.28.18-1.52-.89-3.29.81-4.52.08-.06.3,0,.43.09a2,2,0,0,1,.36.34c3.18,5.31,7.46,7.62,13.57,5,1.4-.78,3.56-.59,3.77-2.91a3.53,3.53,0,0,1,.67-.65c2.5-1.08,3.16-.07,3.1,2.41-.13,5.33.11,10.66-.09,16-.15,4,.06,7.6,3.35,10.4a5.4,5.4,0,0,1,1.32,2c-4.93,4.44.36,7.85,1.07,11.7.53,2.9,1.06,6.12-3.8,4.9-.85-.21-1.78-.7-1.62.59.23,1.9-.36,4.5,1.71,5.44,5,2.28,5.1,6.53,4.81,10.92-.18,2.65.26,4.51,3.28,4.9,1.38.18,1.92,1.08,1.75,2.47-.21,1.8-1.59,1.38-2.65,1.38q-20.24,0-40.47,0c-.75,0-1.85-.18-2.18-.68-.77-1.15.44-1.89,1.2-2.27,3.3-1.65,4-4.57,4.25-7.85s1.91-5.58,4.82-7.51c3.72-2.46,4.49-6.05,1.44-9.86l2-1s-.08-.19-.13-.29ZM200.72,189c-4.9-4.57-10.53-.73-15.75-1.69,4.74,2.28,10.05-.43,14.75,2.05l.71.93Z"/><path class="cls-6" d="M222.67,97.15l-.77.81c-3.36.69-6.69,1.75-10.2,1.11l-5.79-4.52L204.73,93c0-.49-.1-1.33.09-1.41,4.23-1.77-2.49-3.74.12-5.49-.28-.22-.79-.65-.81-.62A5.23,5.23,0,0,0,203,90.86a26.16,26.16,0,0,0,1.15,2.66l1.6,2.52c.68,4-1.86,2.82-4,2.47s-4.12-.56-6.18-.83l.11.12c-5.74-3.64-12.72-3.94-19-7,3.5-2.41,8.48,2,11-2.82l7.93-16c1.2-2,3.16-1.51,4.94-1.5,15.65.1,31.3.31,46.94.26,3.21,0,4.13.86,3.39,3.94-.5,2.09-.55,4.28-.92,6.41-2,11.53-7.31,16-19,16.16-2.49,0-2.46-1.81-3.1-3.15-1.49-3.18-.1-7-2.23-10.08-3.72-7.33-12-9.17-18-4-.52.71-1,1.41-1.52,2.14,0,0,.44.48.66.47,1.4-.08,1.74-1.12,1.93-2.27,6-2.32,11.39-1.89,15.5,3.75.88,1.68.28,2.64-1.48,3l-10.46,1c-1.64-.16-3.15.42-2.66,2.18.33,1.21,1.5.32,2.13-.43l11-1.77c3.84-.21,2.85,2.1,2.09,4.15C224.23,94,223.41,95.54,222.67,97.15Z"/><path class="cls-7" d="M106.88,96c-1.42-5.94,1.88-11.19,2.55-16.31,1.15-8.83,6.25-5.7,10-6.16,5.72-.71,11.56-.38,17.35-.5l-.06-.11a14.2,14.2,0,0,0,9.06,5l-.09-.05c3,2.49,4.71,5.71,6.39,9.19,2.32,4.78,7.13,1.38,10.7,2.3.86.22,2.35-.07,2.55.35.6,1.24-.8,1.7-1.59,2A157.22,157.22,0,0,1,126.26,99c-1.44.1-1.54-.87-1.43-2,3.2-3.07,3.69-6.66,2.53-11.09-1.64,1.53,1,5-2.91,4.39-.83-.05-1.88-1.44-2.41,0-.48,1.3.8,1.49,1.79,1.63,4.08,1.93.39,3.31-.34,4.91-5.82,4.24-11.25,1.67-16.69-.94Zm16-15.95c-.55-2.18-2.49-2.62-4.18-2.93-2.71-.51-5.55-.87-7.95,1.16-.13.11,0,.78,0,.78,4-.15,8.06-1,11.61,1.75ZM117,88.82c-.34-1-.84-1.9-2.06-1.63-.53.12-1,.71-1.43,1.09a13.11,13.11,0,0,0,2.3,1.5C116.36,90,117.12,89.82,117,88.82Zm2.38-.2a5.48,5.48,0,0,0-.51.79c-.05.13,0,.32,0,.48l.68-.08Z"/><path class="cls-4" d="M198.84,146.44a3.46,3.46,0,0,0-.67.65,4.86,4.86,0,0,0-4.47,2,12,12,0,0,1-12-5.07c-.67-2.67-2.24-5.37.27-7.93l7.09,2.5.46-1.34L182.32,135c-.78-1.8,1.12-2.38,1.63-3.59,4.7-2.45,9.32-3.12,13.75.59l3,3.53c.28-.48.88-1,.8-1.43-.38-1.89-1.35-3.27-3.59-3.07-4.44-5.4-9.25-4.3-14.19-.81-1.91.14-2.13-.57-1.57-2.34,2.57-8,5-16.07,7.45-24.12a8.92,8.92,0,0,1,6.06-5.92l-.12-.13c4.67,3.12,11.44,3.38,12.64,11.13.56,3.63,1.69,6.94,0,10.4-3.48,7.22-.71,17-9.18,22.31C198.1,142.12,201.16,144.81,198.84,146.44Zm-6.63-7.85c-.17.46-.45.82-.36,1a4.6,4.6,0,0,0,.84,1c.12-.26.39-.58.32-.78A6.74,6.74,0,0,0,192.21,138.59Zm3.05,1.13c-.16.26-.41.5-.41.73s.22.49.35.74c.15-.23.4-.46.41-.7S195.4,140,195.26,139.72Z"/><path class="cls-8" d="M107.76,133c-1-4.92-5-5.41-8.6-5-4.75.49-4.54-1.09-3.3-4.67,2.74-7.94,5.12-16,7.59-24,.55-1.81.63-3.92,3.44-3.25l-.09-.09c2.58,5.5,7.36,5.88,12.31,4.79,2.49-.55,3.09-.26,2.39,2.07-3.16,10.49-6,21.09-9.75,31.37-1.29,3.57-1.68-3.95-4-1.19Z"/><path class="cls-7" d="M112.77,178a5,5,0,0,1-2-3.87c-1.82-6.08-.72-12.11.29-18.14l.4,0h.4c3.8,2.72,7.47,5.68,12.63,3,1.46-.77,2.86.2,3.85,1.5,2.37,3.13,4.88,5.87,9.46,4.61,1.54-.43,2.39,1,3.12,2.05s-.41,1.75-1.11,2.32c-7.22,5.85-14.51,11.61-21.66,17.54-1.43,1.19-2.3.26-3.42-.11l0,.16-1.05-2.16.06.12C112.29,182.86,117.53,179.71,112.77,178Z"/><path class="cls-8" d="M69.69,127.22c-6.07-2.56-8.65-7.9-6.27-13,2.66-5.67,8.54-7,15.33-3.46,1.31.78-.82,4.77,3,3.2h0q0,4,0,8v0C78.11,124.62,74.89,128.23,69.69,127.22Zm-.12-7.72,2.74-1.25c-.38-.37-.87-1.13-1.11-1.05a5.89,5.89,0,0,0-2.88,1.41C67.69,119.41,68.84,119.3,69.58,119.49Z"/><path class="cls-9" d="M79.53,69.8c-4.43.88-6.2-.61-5.77-5.39a92.94,92.94,0,0,0,0-15.41c-.4-5.08,1.37-6.69,6.16-5.14Z"/><path class="cls-9" d="M88.85,44.12c4.9-1.24,6.25.81,5.83,5.56a82.28,82.28,0,0,0,0,14.81c.46,4.82-1.43,6.17-5.77,5.32Z"/><path class="cls-1" d="M81.71,44a6.68,6.68,0,0,1,5.19-.11l-.39,25.9-4.52,0Z"/><path class="cls-9" d="M111.86,156h-.4l-.4,0c1.07-2.7-2.15-5-.55-7.92.71-1.28.7-3,2.67-2.94,3.08,0,3.82,2.87,5.17,4.75,1.16,1.61-1.12,1.93-1.73,2.91C115.51,154.67,111.8,152.57,111.86,156Z"/><path class="cls-10" d="M81.71,44,82,69.75l-2.46,0,.4-25.94Z"/><path class="cls-10" d="M86.51,69.79l.39-25.9,2,.23.07,25.69Z"/><path class="cls-11" d="M195.63,72l-7.93,16-2.25-.13,9.15-17.08Z"/><path class="cls-12" d="M197.71,132c-4.43-3.71-9.06-3-13.75-.59l-.21-1.2c4.95-3.49,9.75-4.58,14.19.81Z"/><path class="cls-12" d="M87.86,157c0-2.32-.2-4.64,0-6.94.14-1.69-1.08-3.94.85-4.86.5-.24,2.48,2.12,3.48,3.5,1.51,2.08.49,1.28-1.26,1.77-2.57.73-.51,4.38-1.5,6.57Z"/><path class="cls-11" d="M181.73,144a12,12,0,0,0,12,5.07l.7.94c-6.11,2.6-10.39.28-13.57-5Z"/><path class="cls-11" d="M69.69,127.22c5.2,1,8.41-2.59,12.05-5.19-1.62,6.56-6.27,7.65-12.06,6.69Z"/><path class="cls-11" d="M123.48,96.87c.73-1.59,4.42-3,.34-4.91l.63-1.65c3.89.59,1.27-2.86,2.91-4.39,1.16,4.44.68,8-2.53,11.09Z"/><path class="cls-12" d="M223.72,152a15.27,15.27,0,0,1,3.75.91c1.91,1,4.69-2.68,5.45.8.14.62-4.56,1.63-7.16.55-.72-.3-1.38-.72-2.07-1.09Z"/><path class="cls-12" d="M211.71,99.07c3.51.64,6.83-.42,10.2-1.11-2.76,3.64-6.33,3.82-10.28,2.41Z"/><path class="cls-9" d="M182.32,135l7.23,2.24-.46,1.34-7.09-2.5Z"/><path class="cls-11" d="M81.75,114c-3.81,1.57-1.69-2.42-3-3.2l0-1.78C80.59,110.14,82.58,111.21,81.75,114Z"/><path class="cls-6" d="M180.1,191.19,182,190c0,.1.13.28.13.29l-2,1Z"/><path class="cls-9" d="M220.52,145l1.21.48-1.59.31A.56.56,0,0,1,220.52,145Z"/><path class="cls-4" d="M110.72,193.75l.44-1.13.57,1Z"/><path class="cls-8" d="M85.85,159l1.32.06-.71.87Z"/><path class="cls-12" d="M162.37,81.18c.93-1.61-1-4.38,1.6-4.24s1.23,2.95,1.33,4.53.92,4.25-1.18,4.17C160.92,85.53,163.9,82.3,162.37,81.18Z"/><path class="cls-12" d="M180.46,81.34c-.68,1.42,1.18,4.34-1.62,4.25-2-.06-1-2.78-1-4.21s-1.4-4.33,1.35-4.29C181.33,77.12,180,79.83,180.46,81.34Z"/><path class="cls-9" d="M250.18,40.07a11.71,11.71,0,0,1,1.39,1.59c2.73,4.33,5.49,8.64,8.08,13.05,1.58,2.7-3.48,12.69-6.73,13.69-1.86.57-1.25-.93-1.36-1.63-1.33-8.26-.5-16.76-2.79-24.92C248.56,41.13,248.58,40.12,250.18,40.07Z"/><path class="cls-11" d="M224.24,84.11c-4.11-5.63-9.47-6.07-15.5-3.75L207.66,80c6-5.18,14.27-3.34,18,4Z"/><path class="cls-12" d="M212.29,88.17l10.46-1v1l-11,1.77Z"/><path class="cls-2" d="M102.83,188.54c-3.3.17-6.6.37-9.9.48-.67,0-1.85.47-1.81-.76,0-.42,1.15-1.14,1.78-1.16,4.3-.11,8.61-.15,12.91,0,1.08,0,3.22-.86,3,1.25-.16,1.42-1.92.39-3,.36s-2,0-3,0Z"/><path class="cls-11" d="M112.77,178c4.76,1.7-.48,4.84,1,7C107.47,183.56,113.67,180.27,112.77,178Z"/><path class="cls-6" d="M90.94,137.25c.46,1.92-.91,1.76-2,1.73s-2.34-.43-1.36-1.64c.81-1-.33-3.11,1.67-3.12S90.47,136.16,90.94,137.25Z"/><path class="cls-11" d="M81.76,122q0-4,0-8C84.56,116.65,84.53,119.33,81.76,122Z"/><path class="cls-7" d="M96.75,151.21l-.84,1.28c-.33-.28-.89-.52-.94-.84s.35-.79.56-1.19Z"/><path class="cls-6" d="M96.64,140.92a5.66,5.66,0,0,1-.8-1.25c-.07-.23.21-.57.34-.86a6,6,0,0,1,.87,1.11C97.13,140.08,96.85,140.43,96.64,140.92Z"/><path class="cls-6" d="M94.14,138.79l-.45.85a4.53,4.53,0,0,1-.84-1c-.08-.19.21-.56.34-.84Z"/><path class="cls-7" d="M103.6,151.26c-.09.29-.19.58-.28.87a3.74,3.74,0,0,1-.49-.64c-.05-.11.07-.31.11-.46Z"/><path class="cls-6" d="M105.24,143.24c-.16-.27-.4-.51-.41-.75s.24-.49.37-.73c.14.24.4.47.4.71S105.39,143,105.24,143.24Z"/><path class="cls-6" d="M102.66,141.5l-.44.72c-.14-.24-.39-.48-.39-.72s.25-.48.39-.72Z"/><path class="cls-6" d="M99.26,139.74c.14.28.36.54.35.78s-.27.46-.43.68c-.13-.25-.36-.5-.35-.74S99.1,140,99.26,139.74Z"/><path class="cls-7" d="M105.78,149.92l-.38,1.31c-.93-.77.07-.92.41-1.29Z"/><path class="cls-7" d="M248.94,188.2l1.24.48c-1.7.76-3.39,1.58-5.13,2.24-.42.16-1.69.25-1.2-.75C244.61,188.61,246,187.7,248.94,188.2Z"/><path class="cls-7" d="M219.72,138c-1-2-.11-2.87,1.91-3l1.1.24a2.77,2.77,0,0,1-3,2.74Z"/><path class="cls-7" d="M252.46,189.37c.28.13.69.2.76.39a.57.57,0,0,1-1.06.41C252.09,190,252.34,189.66,252.46,189.37Z"/><path class="cls-9" d="M233.42,142.37l.36-.15.11.56a1,1,0,0,1-.39-.09C233.43,142.65,233.44,142.49,233.42,142.37Z"/><path class="cls-9" d="M229.42,143.37l.36-.15.11.56a1,1,0,0,1-.39-.09C229.43,143.65,229.44,143.49,229.42,143.37Z"/><path class="cls-9" d="M225.7,144.24c.11.05.26.08.33.17s0,.21-.07.31l-.57-.27Z"/><path class="cls-7" d="M237.64,190.94l.49-1.23a2.25,2.25,0,0,1,.33.27c-.21.38-.45.74-.68,1.1Z"/><path class="cls-7" d="M237.78,191.08l-.29.36-.21-.21.36-.29Z"/><path class="cls-8" d="M16.83,66.91A13.15,13.15,0,0,1,18,68.52c.78,1.56,1.49,3.16,2.22,4.75-.58,0-1.37.13-1.7-.18-1.72-1.62-3.31-3.38-1.83-6Z"/><path class="cls-8" d="M16.65,67.07c-3-1.71-3-3.44,0-5.17l.15.12q0,2.44,0,4.88Z"/><path class="cls-8" d="M19.06,55c.48.6,1,1,.9,1.18a16.51,16.51,0,0,1-.86,2.24c-.42-.32-1.23-.73-1.18-1A11.94,11.94,0,0,1,19.06,55Z"/><path class="cls-8" d="M38.78,69c-.37,1.36-.39,3-2.15,3.43-.16,0-.6-.33-.64-.56-.35-2.05,1.65-2.09,2.64-3Z"/><path class="cls-8" d="M29.8,51.91,31,54c-.35.16-.9.54-1,.43a16.91,16.91,0,0,1-1.54-1.77Z"/><path class="cls-8" d="M33.8,74.86A10,10,0,0,1,31.6,76c-1.21.26-.81-.83-.54-1.11a6.1,6.1,0,0,1,2-1.15A7.33,7.33,0,0,1,33.8,74.86Z"/><path class="cls-8" d="M33.35,55.22l.43-.83a4.42,4.42,0,0,1,.81,1c.08.19-.2.53-.32.81Z"/><path class="cls-8" d="M24.66,54l1-1.46.58.58-1.46,1Z"/><path class="cls-8" d="M24.68,76.08l-1.46-1,.58-.58,1,1.46Z"/><path class="cls-8" d="M39.6,60.93c-.48.18-.82.44-1,.35a5.64,5.64,0,0,1-1-.85c.28-.11.62-.37.84-.3A5.53,5.53,0,0,1,39.6,60.93Z"/><path class="cls-8" d="M36.46,57.63l.59.69a3.81,3.81,0,0,1-.71.31c-.07,0-.3-.25-.27-.33A3.41,3.41,0,0,1,36.46,57.63Z"/><path class="cls-8" d="M16.63,61.91l.5-1.18a2.49,2.49,0,0,1,.32.26c-.21.36-.44.7-.67,1Z"/><path class="cls-8" d="M38.64,68.91l.49-1.18a2.5,2.5,0,0,1,.32.26c-.21.36-.44.7-.66,1Z"/><path class="cls-8" d="M22.15,55.35,22,54.84l.35-.09Z"/><path class="cls-8" d="M24.78,54.07l-.28.35.16-.47Z"/><path class="cls-8" d="M24.8,76l.35.28-.48-.15Z"/><path class="cls-10" d="M199.72,189.34c-4.7-2.48-10,.23-14.75-2.05,5.22,1,10.85-2.88,15.75,1.69Z"/><path class="cls-6" d="M194.4,150l-.7-.94a4.86,4.86,0,0,1,4.47-2C198,149.41,195.81,149.22,194.4,150Z"/><path class="cls-6" d="M199.72,189.34l1-.37-.29,1.29Z"/><path class="cls-9" d="M212.29,88.17l-.53,1.75c-.63.75-1.8,1.63-2.13.43C209.15,88.59,210.65,88,212.29,88.17Z"/><path class="cls-9" d="M207.66,80l1.08.34c-.19,1.15-.53,2.19-1.93,2.27-.22,0-.67-.46-.66-.47C206.62,81.43,207.14,80.73,207.66,80Z"/><path class="cls-11" d="M122.87,80.08l-.48.76c-3.55-2.75-7.63-1.9-11.61-1.75,0,0-.16-.67,0-.78,2.39-2,5.23-1.67,7.95-1.16C120.38,77.46,122.32,77.9,122.87,80.08Z"/><path class="cls-6" d="M117,88.83c.14,1-.62,1.19-1.19,1a13.11,13.11,0,0,1-2.3-1.5c.47-.38.9-1,1.43-1.09C116.13,86.93,116.63,87.84,117,88.83Z"/><path class="cls-6" d="M124.45,90.32,123.82,92c-1-.14-2.26-.34-1.79-1.63C122.57,88.87,123.62,90.26,124.45,90.32Z"/><path class="cls-6" d="M119.36,88.63l.21,1.19-.68.08c0-.16-.09-.34,0-.48A5.48,5.48,0,0,1,119.36,88.63Z"/><path class="cls-9" d="M197.71,132l.23-1c2.24-.2,3.2,1.18,3.59,3.07.08.41-.52,1-.8,1.43Z"/><path class="cls-9" d="M192.21,138.59a6.74,6.74,0,0,1,.8,1.27c.07.2-.2.52-.32.78a4.6,4.6,0,0,1-.84-1C191.76,139.41,192,139,192.21,138.59Z"/><path class="cls-9" d="M195.26,139.72c.14.28.36.54.35.78s-.27.46-.41.7c-.13-.25-.36-.5-.35-.74S195.1,140,195.26,139.72Z"/><path class="cls-6" d="M69.58,119.49c-.73-.2-1.89-.08-1.25-.89a5.89,5.89,0,0,1,2.88-1.41c.24-.07.73.68,1.11,1.05Z"/></g></g></svg>