<svg xmlns="http://www.w3.org/2000/svg" viewBox="0 0 628.06 540.67"><defs><style>.cls-1{fill:#c3c1c3;}.cls-2{fill:#d3d5d3;}.cls-3{fill:#040204;}.cls-4{fill:#939593;}.cls-5{fill:#838183;}.cls-6{fill:#cecfce;}.cls-7{fill:#d3d4d3;}.cls-8{fill:#d0d2d0;}</style></defs><title>Asset 1</title><g id="Layer_2" data-name="Layer 2"><g id="Layer_1-2" data-name="Layer 1"><path class="cls-1" d="M397.15,464.41c5.31-6.31,15.31-12.78,15.09-18.89-.75-20.49,19.56-32.66,17.79-53.46-1.2-14.15,4-28.42,1.83-43.23-2-13.87,10.56-22.75,16-34.05,13.58-28.43,27.11-56.89,40-85.63l4.73-.31c0-.43,0-1.22-.11-1.24-1.79-.3-3.82-1.13-4.59,1.58l-32.49-8.12c-1.18-2.36,3.81-7.71-3.44-7.14l-16.24,1.3a6,6,0,0,1-6.2-4.21c5-3.84,10.78-.9,16.12-1.84,1.5-.26,4.08.23,3.54-2-.63-2.64-2.53,0-3.81.05-19.84,1.4-19.84,1.43-19.85-18.38a10,10,0,0,0,0-3c-1-3.11,3.07-9-4.31-8.69-6.43.27-2.94,5.42-3.6,8.38-1.56,7,2.68,14.74-2.53,21.36-3.36-6.88-.47-14.24-1.67-21.25-.51-3,2.9-8.1-3.46-8.49-7.36-.45-3.7,5.39-4.41,8.57-1.59,7,1.09,21.11-2.34,20.14-8.79-2.49-1.57-13.36-3.77-20.39-.91-2.91,2.77-8.12-3.69-8.33-7.38-.24-4.1,5.65-4.16,8.72-.45,22.67-.32,22.67-23.06,21.31a16,16,0,0,1-2-.12c-1-.19-2.13-2.19-2.86.11-.14.45.85,1.65,1.55,1.92,5.68,2.23,6.53,5.49,2.35,10-18.47,6-37.13,11.09-56.65,12.24-6.39-.55-3.37-4.58-3.08-7.87.6-6.86.88-13.74,1.18-20.62.07-1.53.14-3.68-2.29-3.26-.7.12-1.7,2.06-1.55,3,1.91,12-6.07,22.86-4.2,34.86l.19-.23-2.31,2.16c-10.66,27.8-20.36,56-32.4,83.22-5.72,12.91-3.84,26.32-6.4,39.27-1.76,8.94,10.84,16.45,19.55,21.64,5.81,3.46,13.07,4.5,19.68,6.62,2.84,9.12,1.42,18.52,1.79,27.81-1.16,5.23-11.88,7.85-6.45,13.52,4.08,4.25,6.81-4.75,10.86-6.72.29-.14.49-.59.76-.62,18.54-2,1.64-6.71.78-10.19l-.94-3.41,8.07-1.66c-3-1.78-4.46-6.45-9.29-5.07a14.88,14.88,0,0,1-1.36-2.7l5.41-1.31c2.67,1.06,5.35,2.11,8,3.2,17.38,7.05,17.94,8.79,6.46,23-1.67,2.08-2,3.49-.1,4.81,2.94,2,5.75,4.14,10,2.16,12-5.6,30.34,1,36.4,12.8.81,1.59,1.58,4.73.83,5.37-12,10.37-15.07,25.76-22.26,38.81-.9,1.63-3.3,4.06-4.32,3.76-12-3.49-14.35,7.07-18.79,13.35-6.37,9-11.63,12.72-20.47,2.56-7-8-16.47-14.21-10.83-27,1.81-4.11-1.13-6.88-3.35-9.7-1.55-2-3.56-2.09-5,0-10.39,15.28-16,2.36-22.75-3.81a33.14,33.14,0,0,1-3.59-4.69c-.78-4.74-1.94-9.45-2.17-14.21-.12-2.49-1.89-7.28,1.81-7.31s1.49,4.69,2,7.26c.9,4.65-2.32,13.13,8.14,8.15,4.14.59,10.37,9.08,10.47,4.29.23-10.82,8.25-15.08,12.38-22.35,2.19-3.85-1.31-5.65-2.93-7.65-2.58-3.19-3.65,1-5.19,2a85.06,85.06,0,0,0-6.91,5.67c-6.68-.05-13.44-.78-20,.08-4.44.58-8.59,3.38-12.87,5.19L258.65,466c.05,4,0,7.92.17,11.88.44,11.58-5.09,12.87-14.11,8.3,0-5.67-1.86-12.36.51-16.78,3.66-6.85-.07-7.82-4.42-9.7-5-4.1-11.37,4.69-16.18-1.63-4.92-3.87-10.62-.91-15.87-1.82-5.67,1.52-9.8-2.28-14.48-4.2,1.31-7-1.63-12.7-5.76-18-.54-4.34,1.42-7.89,4-10.94,9.81-11.38,12.67-25.14,13.94-39.47.42-4.69,0-7.92-5.37-11.09-13.23-7.83-13.22-21.18-8.88-33.69,6.94-20,17.51-38.9,22.73-59.25,8.12-31.67,29.88-58.32,32.28-92,.37-5.13,5-10,7.68-14.92,2.51-.57,5-1.61,7.52-1.62,23-.12,46,.88,68.93,1.55,41.41,1.21,82.88,0,124.32.58a268.12,268.12,0,0,0,32.79-1.42c20.48-2.2,41-.42,61.53,1l6.2,4.21c6.85,10.09,12.35,20.57,9.89,33.42-.33,1.73.75,4.45-2.36,4.23-.64,0-1.5-2.58-1.58-4-.3-5.55.52-11.17-2-16.52-.73-1.55-.83-3.46-2.94-2.68-.7.25-1.23,2.41-1,3.53,3.16,15.35,6.46,30.68,9.72,46,1.33,15.64,7.12,30.6,2.86,47.15-2.21,8.58,2.17,18.8,3.29,28.31,3.41,29.13,6.94,58.26,9.83,87.44.72,7.27,6.66,11.6,8,17.93,3.28,15.07,7,29.84,16.34,42.52q0,10.89,0,21.78-6.06,5-12.11,0c1.74-6.74-3.25-14.32,2.84-20.75.79-.83-.22-6-4.73-5.05-4.17-.7-2.9-10.83-10.29-5.93l-35.84,1.79a6.9,6.9,0,0,0-8.35,0l-3.64-3.71c-10.28-12.42-.23-23.52,2.07-35.23,2.48-12.63-2.52-24.68-4.43-36.92-4.07-26-8.86-52-13.52-77.93-.36-2,.67-5.59-2.4-5.7-1.5-.06-3.64,2.67-4.58,4.59-14.93,30.24-36.2,57.44-36.61,94.19-.15,13.57,2.71,27.49,1.06,39.54-2.18,15.93,6,28.22,6.06,42.53,0,11.41-4.83,13.38-14.19,8.56,0-5.67-1.85-12.35.51-16.78,3.63-6.82,0-7.83-4.41-9.69-4.46-2.85-10.05,4.09-14.18-1.64-2.75-5.15-3.48-10.66-.45-15.65,4.73-7.79-1.68-15.31,0-22.94A5.18,5.18,0,0,0,446,418.3c-.91.17-2.32,1.6-2.27,2.39.7,10.13-8,18.79-4.32,29.49,1.49,4.36-.79,6.91-5.74,6.07-7.88.28-17-6.77-23.12,3.92q-6.52,2.13-1,6.19l-.25-.15.12,20q-6.06,5-12.11,0ZM523.94,274.57c-2.83,11-2.68,10.79,5.27,17.87,1.68,1.5,1.91,4.67,2.73,7.09s-1.7,7.63,2,7.35c4.12-.31,1.16-5.47,2-8.37s-2.13-7.5,2.15-8.63c3.52-.93,9.09-1.15,11.22.92,9.42,9.13,6.86-9.53,13.54-5.38l-1.44-6.62c-.49,1.49-1,3-1.47,4.46-1,2.77-2,.94-3.84.74-9.21-1-18.53-1-27.82-1.21a25.79,25.79,0,0,0-.37,2.8c-.21,1.52.28,3.71-2.2,3.54s-1.7-2.43-1.75-3.87C523.84,281.71,523.94,278.14,523.94,274.57Zm25.11-20c1.07-7.23,2.7-16.27-3.28-18.55-7.09-2.71-16-.58-24.17-.54l2.65,28.94c1-7.69.25-16.29,13.71-14.32-7.84.75-13.71-.17-13.63-8.29,0-3.76,4.36-4.27,7.45-4.45C543.56,236.67,548.88,242.95,549.05,254.58Zm-178.27-77.9c-5.81,2.06-16.9-2.25-16.45,2.94.69,7.89,10.8,2.63,16.63,3.06,5.23.39,15.68,3.05,15.33-2.24C385.79,172.85,375.92,179.36,370.78,176.68Zm69.8,6.81c3.44-2.28,10.51,3,10.51-3.45,0-6.19-6.95-2.71-10.51-2.71s-10.51-3.48-10.51,2.71C430.07,186.47,437.14,181.22,440.58,183.49Zm-63.77,1.16c-3.71,2-10.61-2.64-11,3-.42,6.72,6.62,3,10.05,3.09,3.67.1,10.53,3.23,10.88-2.33C387.21,181.49,380,187,376.8,184.65Zm63.33.09c-3.13,2.22-9.88-3.3-10.15,3.58-.21,5.32,5.9,2.7,8.8,2.49,3.56-.27,10.08,3.65,10.36-3C449.38,182.41,443.27,186.44,440.14,184.74Zm-62.26,8c-3.13,2.22-9.88-3.3-10.15,3.58-.21,5.32,5.9,2.7,8.8,2.49,3.56-.27,10.08,3.65,10.36-3C387.11,190.44,381,194.48,377.87,192.78ZM511,213.47l-2.66-10.1c-4.89,2.44-1.4,6.87-2.41,10.24-.55,1.84-.56,3.84-1.09,5.69-.86,3-3,6.91,1.82,7.67,5.11.79,2.65-4,3.22-6.39C510.34,218.45,510.54,216.24,511,213.47Zm32,108.61c10.52,2.23,23.73,7.55,17.12-12.47-.47-1.41.44-3.74-2-3.7s-2.29,2.45-1.89,3.74C560.05,322,553.22,323.49,543,322.08ZM438.57,192.82c-2.85,1.72-8.69-2.51-8.68,3.29,0,5.64,5.72,2.77,8.68,2.77s8.67,2.87,8.68-2.77C447.26,190.31,441.42,194.54,438.57,192.82ZM332.29,469.65c-2.19-1.88,1.2-7.65-5.5-7.47-6,.16-3.51,4.73-3.9,7.25-.75,4.84,4.35,3.55,6.66,4.61C333.57,475.88,331.16,471.6,332.29,469.65ZM275.47,245.54l.22,1.46-14.2,1c6.64,2.51,13.38-1.55,14.14,6.39,1-3.21,3.84-8,2.69-9.33-3.11-3.61-8-1.62-12.35,0Zm-36.83,76.65c-2.64.69-6.84-.4-6.39-7.34.05-.83-1.72-1.78-2.65-2.67-.3.9-.64,1.78-.9,2.69C224.12,330.91,236.82,320.77,238.64,322.18Zm6-45.2c2.08-4.45-1.19-3-1.59-4.16-2.47,3.45-5.07,6.83-7.28,10.45-.27.44,1.48,2.13,2.29,3.24C241.57,283.45,245.42,280.66,244.68,277Zm23.5-.9c-2.77,3.25-1.48,8.74-7.6,10.09-2.27.5,1.31,5.24,2.6,7.65,1.11,2.07,1.94-.58,1.9-1.29C264.73,286.85,270.72,282.39,268.18,276.08Zm4.33,17.35-2.9-4.9-2.11,2.62c1.65.78,3.27,1.62,5,2.27C272.78,293.53,273.4,292.86,272.51,293.42Z"/><path class="cls-2" d="M483.62,10.09Q524,27.19,564.37,44.27c6.14,2.59,12.16,5.82,18.57,7.33,10.66,2.51,15.35,8.27,13.34,19.16,1.19,10-2.73,20.34,2.1,30.07l-.22-.3c1.34,9.43-2.36,19.24,2.1,28.44l-.15-.23c2.86,12-2.2,14.88-13.85,14.51-14-.45-28.24-2.56-42.15,1.41l0,2.43a7.69,7.69,0,0,1-.47,1.78c-4.19-.72-6.69,2.56-9.89,4.16-15,0-30.09-.6-45.09.11-7.92.38-9.19-2.35-9.07-9.49.41-24.38.09-48.77.05-73.16,4.26-2.85,1.74-7.12,2-10.68C483,43.28,479.45,26.53,483.62,10.09Zm27.48,57c-6,1.83-20.63-7.18-16.94,10.43,1.57,7.48-9.31,24.06,10.58,20.58,8.5-1.48,25.66,12.35,25.47-11.44C530.11,73.38,531.85,60.76,511.1,67.09ZM569,98.7c-4.34,0-8.78.59-13-.12-10.26-1.72-12.58,2.35-12.29,12.27.76,26,.24,26,26.44,26,2.34,0,4.74-.37,7,.06,12.74,2.46,16-2.76,15.34-15.23C591.42,98.74,592.22,98.7,569,98.7Z"/><path class="cls-2" d="M226.41,44.6c27.16-8.07,54.64-15.16,80.74-26.48,4.14,9.74.76,20,1.87,29.89,1.21,10.79-2.56,21.9,2.11,32.47,0,14.38,0,28.77-.12,43.15-.08,11.64,4.65,26.43-15.94,25l-2.16,5.87a7,7,0,0,1-1.82.45l-4.42,0c-18.69,0-37.39-.4-56.06.08-6.79.17-8.29-1.95-8.1-8.36,1-31.88,1.44-63.77,2.21-95.65C224.78,48.92,225.83,46.76,226.41,44.6Zm35.85,20.57c1.81,12.13-3.53,23.65,3.2,30.7,3.6,3.77,18.51,3.5,21.38-.25,5.45-7.14,1.6-18.06,2.06-28.9-6,9,5.22,21.95-6.64,25.5C257.89,99.51,269.5,76.14,262.26,65.16Z"/><path class="cls-3" d="M226.41,44.6c-.59,2.17-1.64,4.32-1.69,6.5-.77,31.88-1.25,63.78-2.21,95.65-.19,6.42,1.31,8.54,8.1,8.36,18.68-.48,37.37-.11,56.06-.08-2.28,3.93-6,1.73-8.94,1.78-15,.27-30.08.17-45.12.1-4.42,0-8.26-.81-8.21,6.24,0,7.45,4.57,5.81,8.58,5.81,27.07,0,54.15-.34,81.21.25,8,.17,9.09-2.5,9-9.56-.31-47.46-.12-94.91-.25-142.37,0-3.05,1.75-6.72-1.76-9.21l3.62-5.58c3.55,3.74,8.07,1,12.06,1.79,7.58,1.5,15.76-2.87,23,2.3-9.37-.08-18.75.13-28.09-.34-5.15-.26-6.87,1-6.85,6.52.21,50.55.1,101.09.19,151.64,0,2.14.8,6.08,1.5,6.14,5.64.5,12.07,1.9,16.81-.21,4.22-1.89,1.1-8.51,1.67-13,1-7.84-7.13-2-9.2-6.4,39.09,0,77.88,0,116.68,0,2.06,0,5-1,5,2.94,0,3.78-3,3.35-5,2.93-3.83-.79-8.63,2.85-11.53-2.69-.95-1.81-3.24-1.4-3.33.82-.21,5-.79,14,.42,14.26a75,75,0,0,0,22.56,1.5c5.66-.44,2.78-5.94,2.79-9,.2-45.19.11-90.38.12-135.57,0-20.2,0-20-20.38-20-6,0-8,1.21-7.88,7.62.45,19.41,1.28,38.91-.18,58.22-1.21,16,1.92,24.71,20,20.83.33-.07.83.68,1.73,1.46H336.32a55.35,55.35,0,0,1,18.43-1.48c5.5.44,6.66-1.68,6.59-6.8-.33-26.1-.29-52.21-.39-78.31h2.56c-.09,19.41-.24,38.82-.27,58.23,0,27.89,0,27.72,27.56,26.92,5.27-.15,6.81-1.46,6.69-6.75-.34-16.06-.12-32.13-.12-48.2,0-32.74,0-32.74-32.83-31.29,1.62-5,5.64-2.09,8.31-2.13,19.83-.29,39.67-.16,59.51-.16l0-1.55H324.65c1.52-4.12,5.08-2.38,7.72-2.39,42-.11,84,0,125.92-.18,5.13,0,9.07.89,11.25,5.88-6.77.87-3.7,6.17-3.72,9.37-.21,49.09-.14,98.17-.14,147.26v8.88c4.29-12.82-1.22-26.22,4.13-38.82,1.79,3.87-4.33,11.52,3.77,11.75,8.51.24,3.6-7.6,3.88-11.44.79-10.88-.25-21.88.43-32.78.62-9.87-2.9-20.06,2-29.63l-.24-.15c0,24.39.35,48.78-.05,73.16-.12,7.14,1.15,9.87,9.07,9.49,15-.72,30.05-.15,45.09-.11-18.27,4-36.71,1.56-55.07,1.19-2.69-.05-6.82-2.84-7.92-.21-1.56,3.72-1.43,8.56-.7,12.69s5,2.18,7.6,2.19c35.48.14,71-.75,106.44.5,15.09.53,21.33-3.23,18.12-18.52,6,15.26,2.94,19.75-12.15,20.28-13.34.47-26.86-2.58-40,1.7-20.5-1.45-41-3.23-61.53-1a268.12,268.12,0,0,1-32.79,1.42c-41.44-.59-82.91.63-124.32-.58-23-.67-45.94-1.67-68.93-1.55-2.51,0-5,1.06-7.52,1.62-6-3.89-12.66-1.23-19-1.61-7.27-.43-14.48,2.12-13.94-10.64.29-7-8.92-2-13.6-3.47,3.92-11.18,18.07-19.34,8.91-34.48-3.54-5.86-7.53-12.55-13.25-13.13-6.69-.68-5.43,7.15-5.49,12.11-.11,8.68,0,17.36,0,26,0,6.75,2.53,10.74,10.09,9.22-4.66,4.34-9.39,2.14-14.12.16q0-27.24,0-54.47h-2.24v49.23h-1.8V102c-.4,18.44-5,37,.53,55.26-4.22,2.12-8.41,3.33-12.42-.45l-.23.23c4,0,8.88.84,6.11-6,4.7-16.12.7-32.38.13-48.57v48.66L180.45,147c4.68-14.78.64-29.7.13-44.56V147.1l-4-6.22c4.24-12.71.82-25.51,1.18-38.27-3.14,11.93,1.44,24.38-3.31,36.14-2.58-.25-1.82-2.28-2-3.8,4.35-10.75,1.09-21.66.13-32.52v32.6c-6.82-8.31-6.8-18.06-6.27-28.06.14-2.6,1.78-7.47-1.68-7.6-4.23-.16-2,4.68-2.08,7.18-.33,7.39-.05,14.81,0,22.22-6.37,11.45-16.42,3.84-24.69,5.07a47.83,47.83,0,0,1,14.73-.91c6.43.67,6.26-3.26,5.77-7.43-.43-3.63,2.59-9.33-5.38-8.77-6.33.45-12.81.72-19-.25-2.8-.44-4.25,5.15-5.25,1.62-1.45-5.09,3.74-2.65,6.14-3.34,4.41-1.27,10.5,3,13.2-2.71,1.51-3.21-.71-7.64,6-7.55,7.85.1,2.07,7.34,7.25,9.95-3.46-8.39,3.93-17.32-4.71-24,1-2.71,4.64-1.92,4.75-1.35,2.91,14.21,14.28,8.62,22.51,9.49,9.28,1,18.5-2.17,28.07-.13C219,100,222.72,95.2,222.67,87.78c-.09-12-.18-24.09.1-36.13C222.83,49.09,220.18,44.28,226.41,44.6Zm207.13,5v-17c0-27,0-26.73-27-26.47-6.78.07-7.35,2.68-7.27,8.19.27,19.37,1.43,38.87-.29,58.1-1.51,16.85,3,22.31,20.41,20.88,11.3-.93,15.78-2.64,14.33-14.62C432.58,69.1,433.5,59.3,433.55,49.61ZM390.35,171c12.7,0,25.42-.54,38.08.19,8.16.48,7.22-4.09,7.19-9.21s1.06-9.48-7.14-9.27c-23.37.59-46.77.27-70.15.17-6.4,0-11.63-1.13-11.61,9.08s5,9.23,11.56,9.11C369,170.86,379.66,171,390.35,171Z"/><path class="cls-2" d="M156.5,90.42c8.64,6.71,1.26,15.64,4.71,24-5.18-2.61.6-9.84-7.25-9.95-6.67-.09-4.45,4.34-6,7.55-2.7,5.74-8.79,1.44-13.2,2.71-2.39.69-7.59-1.75-6.14,3.34,1,3.53,2.45-2.06,5.25-1.62,6.21,1,12.7.7,19,.25,8-.56,4.95,5.15,5.38,8.77.49,4.17.66,8.1-5.77,7.43a47.83,47.83,0,0,0-14.73.91c8.28-1.23,18.33,6.38,24.69-5.07l-.24-.09c-.61,2.74,1.92,6.18-1.86,8.2l.19,0c-10.08.53-20.13.39-30.28,1.47-10.55,1.12-21.9,3.2-32.45-1.68,8.9.07,17.79.26,26.68.17,5-.05,5-.26,1.69-5.86-1.42-5.27-4.43-6.15-9.42-4.19-4.8,1.89-10,2.86-15,4.24-5.55-.81-3.21,3.46-3.77,5.86-17.69-3.18-34.5,4.68-52,4.12-8.8-2.43-5.37,4.46-6.18,8.11-8,4.53-16-.91-24-.14-8.65-6.83-2.41-13.39,2.75-15.46C31,128.57,39.9,118.74,52.22,113.26,61.74,109,70.06,99.55,82,97.67c2.59-.41,5.9-1.63,7.75-.54,17.95,10.5,34.78.21,51.79-2.9C146.38,93.33,152.33,94.7,156.5,90.42Zm-43.18,24.24c-2.57-2.42-5-5.28-9.16-3.8-6.92-6.07-11.59,4.15-17.9,2.47,1.3,2.45,3.27,4.77,3.75,7.37,1.22,6.5,15.7-11.43,10.45,5.83a14.44,14.44,0,0,0,3.92-.08c3.47-1,6.82-2.48,10.3-3.51,2.31-.69,5.11-1.29,4.84-4C119.21,115.72,117.08,113.61,113.33,114.66Z"/><path class="cls-3" d="M433.71,456.25c5,.84,7.23-1.71,5.74-6.07-3.66-10.69,5-19.35,4.32-29.49-.05-.79,1.36-2.22,2.27-2.39a5.18,5.18,0,0,1,3.13,1.19c-1.73,7.63,4.68,15.15,0,22.94-3,5-2.3,10.5.45,15.65-6.07-.22-5.3,6-5.35,8.19-.1,3.93,4.56,1.7,7.09,1.89,5.5.43,12.67-1.81,10.24,8.26l.23-.24c-2.34-7.43-8.49-5.84-13.95-5.88-7.28-.06-2.71,6-4.58,8.75-3,4.29-.26,9.43-2,13.51-2.34,5.55-2.51,13,2.49,13.18,11.37.39,23.4,4.19,34.43-2.22.08,0-.13-.62-.21-.94,5.3,6.89,8.46,14.75,7.47,23.33-.37,3.18.13,4.69,2.16,6.41-2.85.05-4.75,1.42-3.64,4.28,1.49,3.85,5.17,1.64,7.82,1.84,2,.16,6.84,2,4.27-3.73,2.29-.3,3.8.15,3.76,3,0,3-2.06,2.87-4.05,2.87H379.35c-2,0-4,.18-4.06-2.86,0-2.85,1.47-3.3,3.76-3-2.57,5.7,2.21,3.89,4.27,3.73,2.65-.2,6.33,2,7.81-1.83,1.08-2.79-.58-4.34-3.63-4.09,2-8.33,4-16.64,5.8-25,.52-2.47-.59-5.69,3.84-4.92.44,1.23-2.69,3.52.24,3.62,10.93.39,21.88.08,32.83.27,3.89.07,4.44-3.34,4.74-5.24.76-4.78-3.51-2.63-5.49-2.7-7.95-.3-15.92-.14-23.88-.16l6-5.85-.23-.23c6.4,9,15.29,2.66,23,3.37,2.43.22,5.11-23.48,2.52-24.09-7.23-1.71-15.05-4-21.46,2.64l.24.18c.29-12.82,10-3.23,14.54-6.08,2.85-1.8,7.84,3.25,9.56-3.34C441.2,459.18,436.15,458.81,433.71,456.25Zm-9.89,60.06c3.45-3.67,10,1.13,9.4-5.14-.53-5.4-6-2.37-9-2.57-7.67-.48-15.39-.26-23.08-.09-2,0-6.31-1-5.36,2.17,2.1,6.91-2.66,12.33-2.56,18.75.1,6.12.29,9.48,8.24,9.49s8.18-3.42,8.32-9.5c.06-2.79-4.2-7.93,1-8.3,2.82-.2-.49,5.75.72,8.78s-2.88,8.13,3.48,8.54c3.82.25,6.8,1,9.39-5.15,2.81-6.7,12.38-1.83,18.92-2.55,2.62-.29,7.77-2.58,8.12,2.53.64,9.32,7.3,4.87,11.12,5,5.53.19,2.8-4.92,3.05-7.67.3-3.29-.44-6.68-.73-10,6,2.83,1.42,8.17,2.86,12.09a2.29,2.29,0,0,1,0,1c-.71,6.29,3.89,4.7,7.27,4.9,3.85.23,6.66.4,7-5.36,1-18.37-4.33-24.77-22.21-24.77-2.68,0-5.5-.54-8,.13-3.36.91-9.1-3.31-9.83,2.84-.71,6,6.47.9,9,5-7.08-.78-11.49,1.26-11.39,8.7,0,1.06-.87,2.93-1.56,3-2.44.41-2.37-1.69-2.33-3.29C435.78,517.27,430.81,515.81,423.82,516.31Zm14.46,16c-3.45,1.47-9.46-2.25-10.06,2.62-.56,4.49,5.21,3.72,8.69,3.62,3.76-.11,9.84,1.58,10-3.39C447.13,529.85,441.09,534.07,438.28,532.28Z"/><path class="cls-1" d="M321.23,8.07c3.5,2.49,1.75,6.16,1.76,9.21.13,47.46-.06,94.92.25,142.37,0,7.06-1.07,9.73-9,9.56-27.06-.58-54.14-.2-81.21-.25-4,0-8.53,1.63-8.58-5.81,0-7.05,3.79-6.26,8.21-6.24,15,.07,30.08.17,45.12-.1,2.93-.05,6.66,2.15,8.94-1.78l4.42,0c1,15.34,12.53,6,19,7.64,5.79,1.5,9.29-2,9.12-9.1-.45-19,.13-38-.32-57-.14-5.9,2.72-12.35-2-17.82q-.06-32.09-.13-64.19Z"/><path class="cls-4" d="M550,172.86c13.17-4.28,26.69-1.23,40-1.7,15.09-.53,18.13-5,12.15-20.28l.11.18c-1.09-7.4,2.26-15.24-2.17-22.32l.15.23c0-6.28-.08-12.57,0-18.85,0-1.8-.91-4.56,1.71-4.87,1.2-.14,2.69,2.09,4.06,3.25,18.85,29.66,5.13,58.22-3,86.95-1.52,5.37-3.34,10.65-5,16-2.72.59-6.68,4.73-7.55-1.1a63.17,63.17,0,0,1,0-18.9c1.67-10.56-1.75-15-12.7-16.86-8-1.36-14,6.63-21.58,2.51Z"/><path class="cls-3" d="M178.59,156.84c-13.61.27-12.89.12-9.88,14.24.78,3.69-7.62.19-10.33,3.93-14.94-4.32-30.18-1-45.27-1.83-2-.1-3,1.3-2.67,3.26C111,179.95,113.9,179,116,179c13.38.16,26.76.19,40.14.26-10.82,4-22.05.65-33,1.85-4.8.52-9.94-2.18-13.79,4.87-1.63,3-9.71,4.83-16.28,1.82-4.14-1.89-10.4-3.39-15.05,1.21l.16.24c0-4-.11-8-.07-12,0-1.93-.25-4.31,2.79-4.12,1.78.11,4.26-1,5,1.72,2.48,9,4.87.64,7.42.13s-3.88-8.25,6.1-5c12.64,4.15,27.67,1.07,41.68,1,2.07,0,5.09,1,5.16-2.79.09-4.6-3.54-2.78-5.81-3.17-7.26-1.24-15,2.45-22-1.91,8-.05,16,0,24-.22,3.57-.12,2.91-1.23,2.55-4.66-.62-5.88-5-14.06,8-13.57,15,.56,2.86,13,9.26,17.47-.69-8.1,2.2-15.94-1.55-23.52,1.42-1.59,2.71-1.53,3.87.29v16.57l1.37-.06L167.13,142c3.17,3.88,6.38,7.73,9.47,11.67a19.68,19.68,0,0,1,1.76,3.44Zm-27.06.09c3.53-.05,7.06,1.06,7-4.54-.05-4.4-1.34-6-5.71-5.51-3.08.38-6.76-1.1-6.64,4.57C146.28,155.79,147.42,157.74,151.53,156.93Z"/><path class="cls-3" d="M16,149c8-.77,16,4.67,24,.14,6.66,3.6,12.84,1.83,18.7-1.19-3-4.65-13.36,5.21-12.51-6.92,17.48.55,34.29-7.3,52-4.12l-.24-.23c10.55,4.89,21.91,2.81,32.46,1.69,10.15-1.08,20.2-.93,30.29-1.47.15.62.29,1.25.43,1.89-18.47.71-37,1.15-55.41,2.31C101,141.34,93.8,140,94,148.66c-1.94-7.14-7.75-6.48-12.82-5.59-7,1.23-1.43,5.32-1.17,8.1.69,7.62-5.31,10.48-10.36,11.31-4.59.75-12.67,4.34-13.82-5.63,4.6,0,9.2,0,13.79.13,3.36.13,6-1.92,4-4.37-3.2-3.88-8.57-1-13-1.66-5.2-.78-4.9,2.7-4.58,6.13l-18.21.19c-6.75-2.89-11.72,3.42-17.9,3.46-.79-6.88-6.29-4-8.95-3.21C7,158.76,3.5,160.45.6,156.45a5.56,5.56,0,0,1,.12-5.25c3-3.77,6.62-2.67,10.39-.53A3.21,3.21,0,0,0,16,149Z"/><path class="cls-3" d="M606.54,502.57c6.49,5.82,6.89,15,7,21.67.09,8.64,3,10.93,9.81,12.31,1.73.35,4.64-1.07,4.75,1.91s-2.81,2.07-4.52,2.07q-58.64.09-117.28,0c-1.4,0-3.92-.82-4-1.49-.39-3.2,2.4-2.62,4.1-2.39,9.32,1.24,10.09-2.73,10.21-11.39.11-7.37.76-16.41,7.12-22.68-1.31,2.51-1.4,3.93,2.28,3.92q39.14-.17,78.29,0C607.94,506.5,607.84,505.08,606.54,502.57Zm-41.21,5.88c-12.36,0-24.72,0-37.08,0-3.37,0-7.35-1.44-5.24,5.42,1.13,3.67-3.07,8.72-2.68,12.95.36,4-5.23,11.32,5,11.88,7.44.4,12.35-.34,10.79-9.71-.42-2.52-1.6-5.88,1.4-8.12.15,2.76-.08,5.62.55,8.27.74,3.14-2.85,8.16,2.67,9.14,3.88.69,9.55,2.69,9.7-5.53.05-3.08,27.16-3.36,27.25-.3.29,9.77,7.38,6.23,11.44,5.77,6.17-.7,2.08-6.41,3-9.78.63-2.4.21-5.08.25-7.64,3.75,1.9,2,5.48,1.69,7.88-1.31,8.81,2.53,10.48,10.51,10.09,10.16-.49,5.49-7.68,5.44-11.6-.17-14.59-6.07-22.7-22.68-19C580.31,509.74,572.67,508.44,565.32,508.44Zm-1.1,23.88c-3.2,1.36-9.07-2-9.42,2.11-.49,5.62,5.56,4,9.2,4s9.73,1.6,9.44-3.85C573.22,530.26,567.33,533.76,564.23,532.32Z"/><path class="cls-3" d="M255,502.57c6.51,5.8,6.83,14.94,7,21.65.16,8.54,2.94,11,9.76,12.33,1.74.34,4.64-1,4.8,1.87s-2.75,2.11-4.47,2.12q-58.59.08-117.17,0c-1.74,0-4.44.8-4.23-2.3,0-.64,2.6-1.62,4-1.59,8.61.18,13.3-1,12.57-12.49-.4-6.33.42-15.79,6.95-21.59-1.31,2.51-1.4,3.93,2.28,3.92q38.14-.17,76.28,0C256.44,506.5,256.34,505.08,255,502.57Zm-40.18,5.88c-12.05,0-24.1-.09-36.15.09-2.21,0-7-1.43-5.92,2.6,1.82,6.89-3.24,12.09-2.75,18.77s1.68,8.91,8.87,9c7.47.08,7.84-3.14,7.79-8.91,0-3.05-1.76-9.23.38-8.82,4.57.88-.13,6,1.38,9.22,1.23,2.6-2.39,7.42,3,8,2.88.29,8.42,2.17,8.59-1.82.35-8.09,5.69-6.51,9.62-5.78,7.11,1.32,17.6-6,20.74,7.41.17.72,6.42,1.38,8.44,0,4.18-2.85,1-8,1.91-12,.4-1.76,1.18-5,1.43-5,4,.54.2,2.54.44,4a34.83,34.83,0,0,1,.08,9c-.43,4.69,2.62,5,5.7,4.36,3.46-.74,8.37,2.84,10.27-2.71,3.06-8.92-3.36-17-3.07-26,.08-2.55-10.15-1-15.63-1.18C231.61,508.2,223.23,508.44,214.87,508.44Zm0,23.82c-3.18,1.73-9.28-2.54-9.64,2.92-.28,4.29,5.53,3.44,9,3.32,3.71-.12,9.78,1.55,9.7-3.69C223.91,530.1,218,533.89,214.89,532.26Z"/><path class="cls-3" d="M556.22,177.07c7.62,4.12,13.59-3.86,21.58-2.51,10.95,1.86,14.37,6.3,12.7,16.86a63.17,63.17,0,0,0,0,18.9c.87,5.83,4.83,1.69,7.55,1.1-5.69,4.6-11.62,13.32-17,13C567,223.63,564.11,229.27,566,241c-3.27-15.33-6.57-30.66-9.72-46-.23-1.12.3-3.27,1-3.53,2.11-.77,2.22,1.13,2.94,2.68,2.52,5.36,1.69,11,2,16.52.08,1.42.94,4,1.58,4,3.11.21,2-2.51,2.36-4.23C568.57,197.64,563.07,187.15,556.22,177.07Zm23.93,24.82c0-7.89.07-14.23-.05-20.57,0-1.43.5-3.82-2-3.6-.76.07-1.83,2.37-1.87,3.68a189.6,189.6,0,0,0,0,19c.51,7.44-2,15.08,1.46,22.31C583.25,215.79,578.27,207.68,580.15,201.88Zm-10,20.16c0-13.63,0-27.26,0-40.89,0-1.49.32-3.82-2.09-3.48-.78.11-2,2.78-1.7,3.85C570.5,194.83,566.36,208.67,570.11,222Zm13.57-43.39-1,0V222h1Zm-10-.16-1,.29V221.9h1Zm14,4.27-1-.14V216h1Z"/><path class="cls-3" d="M367.51,219.05c4.18-4.5,3.33-7.76-2.35-10-.7-.27-1.69-1.47-1.55-1.92.73-2.29,1.86-.3,2.86-.11a16,16,0,0,0,2,.12c22.73,1.36,22.6,1.36,23.06-21.31.06-3.08-3.22-9,4.16-8.72,6.46.21,2.78,5.41,3.69,8.33,2.19,7-5,17.9,3.77,20.39,3.43,1,.76-13.12,2.34-20.14.72-3.18-2.95-9,4.41-8.57,6.36.39,3,5.51,3.46,8.49,1.2,7-1.7,14.37,1.67,21.25,5.21-6.62,1-14.35,2.53-21.36.66-3-2.83-8.11,3.6-8.38,7.38-.3,3.29,5.58,4.31,8.69a10,10,0,0,1,0,3c0,19.81,0,19.78,19.85,18.38,1.28-.09,3.18-2.7,3.81-.05.54,2.27-2,1.78-3.54,2-5.34.94-11.12-2-16.12,1.84-10.73-2.94-21.4-3.27-32,.7-6.62-4.7-14-2.15-21-1.9-.33,0-1.32,3.26-.73,4.09,4.68,6.53,11.66,1.93,17.48,3.28a9.7,9.7,0,0,0,2,.05C386.23,221.5,376.74,218.23,367.51,219.05Zm56.08-31.82c-.93-2.56,1.65-7.41-2.2-7.33-3.55.07-1.64,4.89-1.77,7.54-.12,2.38-1.35,6.84,1.5,6.85C425.62,194.32,422.47,189.61,423.6,187.23Zm-12.06.18c-.9-2.54,1.61-7.41-2-7.51-3.9-.1-2,4.77-1.95,7.28s-2.27,7.13,2.16,7.14C412.71,194.32,410.87,189.87,411.53,187.41Zm-18.25-.15c1.13,2.38-2,7.1,2.51,7.06,2.8,0,1.6-4.49,1.47-6.88-.14-2.65,1.79-7.47-1.78-7.53C391.66,179.84,394.2,184.69,393.28,187.26Z"/><path class="cls-1" d="M478,502.57c.08.32.29.89.21.94-11,6.4-23.06,2.61-34.43,2.22-5-.17-4.83-7.63-2.49-13.18,1.72-4.09-1-9.22,2-13.51,1.86-2.71-2.7-8.81,4.58-8.75,5.46,0,11.61-1.54,13.95,5.88.74,4.76-2.3,10.05,2,14.3l-.2-.28c-2.92,13.62-15.07,1.43-21.05,8h25Z"/><path class="cls-1" d="M469.81,132.75c-5.35,12.6.16,26-4.13,38.82v-8.88c0-49.09-.06-98.17.14-147.26,0-3.2-3.05-8.51,3.72-9.37L472,8.47l-.34,42.15.18-.26c-4,2.19-2,6-2,8.9-.22,24.57-.17,49.14-.19,73.72Z"/><path class="cls-1" d="M606.54,502.57c1.3,2.51,1.4,3.94-2.29,3.92q-39.14-.17-78.29,0c-3.69,0-3.6-1.4-2.28-3.92l10.45-4.2,64-.21C600.15,501.06,603.21,502.08,606.54,502.57Z"/><path class="cls-1" d="M255,502.57c1.3,2.51,1.4,3.94-2.29,3.92q-38.14-.17-76.28,0c-3.69,0-3.6-1.41-2.28-3.92l10.45-4.2,61.95-.21C248.66,501.06,251.71,502.08,255,502.57Z"/><path class="cls-1" d="M184.52,486.19q-6.06,5-12.11,0l-.21-21.78,16.47-20.48c3.42,3.7,1.76,8,1.42,12.14l-4.45,4.11q-6.52,2.13-1,6.19l-.25-.16Z"/><path class="cls-3" d="M78,189c-10.54,4.64-21.57,1.33-32.35,1.72-3,.11-1.22-3.71-1.62-5.73l-.24.17c2.76-.4,1.65,5.11,4.72,3.34,1.1-.63.87-3.41,1.45-5.14,1.12-3.37-2.66-9.79,2.7-9.82,6.64,0,1.86,6.77,3.29,10.23.12.29-.08.7,0,1,.55,1.36,1,3.69,1.77,3.85,2.42.47,1.78-1.91,2.24-3.34,1.3-4-2.94-11.67,2.78-11.55,6.61.14,1.61,8,3.28,12.14.27.67.6,1.31,2,4.26,0-5.07-.17-7.69,0-10.27.24-2.9-1.67-7.12,4.21-6.86s3.05,4.62,3.79,7.33c.8,3-1.9,6.73,2.11,8.92Z"/><path class="cls-3" d="M44,185c-8.91-10.19-20.5-6.68-31.52-6.24-3.5.14-7.52,1.81-10.25-1-1.18-1.24-.89-4.53-.33-6.65,1-3.72,4.37-1.69,6.7-2a46.94,46.94,0,0,1,6.94.09c1.53,2.91,4,1.69,6.29,1.47h16c6.41,3,6.21,8.76,5.93,14.53Z"/><path class="cls-3" d="M258.65,466l-14.79-20.56c4.28-1.81,8.43-4.61,12.87-5.19,6.56-.86,13.32-.13,20-.08-11.07,2.35-7.3,11.13-7.82,18.05-10.46,5-7.24-3.5-8.14-8.15-.5-2.57,1.84-7.28-2-7.26s-1.93,4.82-1.81,7.31c.23,4.76,1.39,9.48,2.17,14.21A6,6,0,0,0,258.65,466Z"/><path class="cls-3" d="M316.81,14.5q.06,32.09.13,64.19l.23-.15c-2.25-.43-2.09-2.2-2.1-3.83,0-13.75,0-27.5-.08-41.24,0-1.7,1-4.67-2-4.62s-1.9,3-1.91,4.7c-.13,15.71-.13,31.43-.17,47.15l.22-.22C306.47,69.91,310.24,58.8,309,48c-1.12-9.93,2.27-20.15-1.87-29.89C309.54,14.7,315.51,20.82,316.81,14.5Z"/><path class="cls-1" d="M405.58,498.36c8,0,15.93-.14,23.88.16,2,.07,6.24-2.08,5.49,2.7-.3,1.9-.85,5.31-4.74,5.24-10.94-.19-21.89.12-32.83-.27-2.93-.1.2-2.39-.24-3.62Z"/><path class="cls-1" d="M536,486.19q-6.06,5-12.11,0l-.21-19.77,5.73-4.3C539,468.13,535.35,477.75,536,486.19Z"/><path class="cls-5" d="M156.12,179.24c-13.38-.07-26.76-.09-40.14-.26-2.09,0-5,1-5.55-2.53-.31-2,.65-3.37,2.67-3.26,15.08.78,30.33-2.49,45.27,1.83Z"/><path class="cls-5" d="M191,157.29c-5.53-18.28-.93-36.83-.53-55.26v49.68h1.8V102.49h2.24q0,27.24,0,54.47Z"/><path class="cls-6" d="M37.84,170.63h-16A3.51,3.51,0,0,0,18,167.07l1.9-6.36c6.18,0,11.15-6.34,17.9-3.46Z"/><path class="cls-3" d="M471.61,50.62,472,8.47c3.31,4.7,8.18-1.84,11.66,1.62-4.17,16.45-.63,33.19-2,49.74-.29,3.56,2.23,7.83-2,10.68l.24.15c0-17.26,0-34.51-.2-51.77,0-2.45,1.83-6.82-3.39-6.36-4.15.36-2.22,4-2.5,6.31C472.45,29.39,476.16,40.28,471.61,50.62Z"/><path class="cls-3" d="M300.92,237.42c-1.87-12,6.11-22.82,4.2-34.86-.15-.95.85-2.89,1.55-3,2.43-.42,2.35,1.73,2.29,3.26-.29,6.88-.58,13.76-1.18,20.62-.29,3.29-3.31,7.32,3.08,7.87C308.09,234.22,306.06,238.34,300.92,237.42Z"/><path class="cls-3" d="M536,486.19c-.66-8.44,3-18.06-6.59-24.06l4.77-9.58,3.64,3.71q.08,7.32.15,14.63c0,2.75-.67,6.34,4.12,3.55l-.23-.23c.51,6.44-.41,12.55-4,18.08l.24.19C537.38,490.39,539.39,487.39,536,486.19Z"/><path class="cls-1" d="M395.23,217.24a9.7,9.7,0,0,1-2-.05c-5.82-1.35-12.8,3.25-17.48-3.28-.59-.83.4-4.08.73-4.09,7.08-.26,14.42-2.8,21,1.9C397.5,213.86,397.68,216.1,395.23,217.24Z"/><path class="cls-3" d="M246.59,498.15l-61.95.21c3.13-2.57-.19-7.72,4-9.87l-.23-.23c-.78,6,1,8.65,7.9,8.3a354.1,354.1,0,0,1,36.67,0c6.85.36,8.68-2.28,7.9-8.3l-.23.22C244.34,490.64,241.47,496.87,246.59,498.15Z"/><path class="cls-3" d="M308.86,399.74,303.45,401a14.88,14.88,0,0,0,1.36,2.7c4.84-1.38,6.27,3.3,9.29,5.07L306,410.48l.94,3.41c-3.79-1.34-3.4,3.52-6,4-.37-9.28,1-18.68-1.79-27.81C305.3,390.44,302,400.16,308.86,399.74Z"/><path class="cls-3" d="M598.09,498.15l-64,.21,4-5.89-.24-.19c-.06,2.7.85,4.16,4,4.14q23.28-.16,46.57,0c3.1,0,4-1.43,4-4.14l-.23.22Z"/><path class="cls-3" d="M592.31,460.39c4.5-.92,5.51,4.23,4.73,5.05-6.08,6.42-1.1,14-2.84,20.75-3.39,1.22-1.37,4.22-2.08,6.32l.23-.22c-3.61-5.52-4.53-11.64-4-18.08l-.23.23c1.41-.37,4.28,3.69,4.14-1.44C592.13,468.79,592.28,464.59,592.31,460.39Z"/><path class="cls-3" d="M463.83,490.47c-4.34-4.25-1.3-9.54-2-14.3l-.23.24c8.36-4.56,3.67-10.84,2.2-16.7,4.39,1.87,8,2.87,4.41,9.69-2.36,4.43-.48,11.11-.51,16.78C461.67,483.4,464.09,488.14,463.83,490.47Z"/><path class="cls-3" d="M240.8,459.7c4.35,1.88,8.08,2.86,4.42,9.7-2.36,4.42-.49,11.11-.51,16.78-2.55-1.34-4.67-1.91-4.09,2.31l.23-.22c-4.55-3.37-1.09-8.08-2-12.05l-.23.23C246.93,471.85,242.3,465.58,240.8,459.7Z"/><path class="cls-3" d="M409.48,486.19l-.12-20c5.68,0-2.56,10.58,6.24,8.18l-.24-.18c.51,6.44-.41,12.56-4,18.08l.23.23C410.85,490.41,412.86,487.41,409.48,486.19Z"/><path class="cls-3" d="M435.71,215.22l16.24-1.3c7.25-.57,2.25,4.78,3.44,7.14C448.12,221.52,441.77,218.87,435.71,215.22Z"/><path class="cls-3" d="M190.09,456.07c.34-4.14,2-8.44-1.42-12.14,4-3.35-8.25-6.45-.15-9.86,4.14,5.29,7.07,11,5.76,18Z"/><path class="cls-3" d="M184.52,486.19l-.12-20c5.49,1.34-2.14,10.65,6.22,10.24l-.23-.23c-.92,4,2.55,8.68-2,12.05l.23.23C189.19,484.28,187.07,484.85,184.52,486.19Z"/><path class="cls-3" d="M606.07,108.5c-1.36-1.16-2.85-3.4-4.06-3.25-2.62.31-1.68,3.07-1.71,4.87-.1,6.28,0,12.57,0,18.85-4.46-9.2-.76-19-2.1-28.44C600.51,103.48,608.4,100.92,606.07,108.5Z"/><path class="cls-3" d="M467.53,498.15h-25c6-6.54,18.13,5.66,21.05-8Z"/><path class="cls-1" d="M387.51,532.51c3-.25,4.71,1.3,3.63,4.09-1.48,3.83-5.17,1.63-7.81,1.83-2.05.16-6.83,2-4.27-3.73Z"/><path class="cls-3" d="M606.31,486.19q0-10.89,0-21.78C606.92,471.67,614.93,478.93,606.31,486.19Z"/><path class="cls-3" d="M523.69,466.42l.21,19.77C514.5,479.7,523.62,473,523.69,466.42Z"/><path class="cls-3" d="M598.39,100.84c-4.83-9.73-.92-20.08-2.1-30.07C600.93,80.51,596.77,90.88,598.39,100.84Z"/><path class="cls-3" d="M172.19,464.41l.21,21.78C163.62,479,172.12,471.67,172.19,464.41Z"/><path class="cls-1" d="M496.07,534.7c2.57,5.71-2.23,3.88-4.27,3.73-2.65-.2-6.32,2-7.82-1.84-1.11-2.86.78-4.23,3.64-4.28C489.71,535.64,493.18,534.14,496.07,534.7Z"/><path class="cls-3" d="M397.15,464.41l.21,21.78C388.57,479,397.07,471.67,397.15,464.41Z"/><path class="cls-1" d="M18,167.07a3.51,3.51,0,0,1,3.78,3.56c-2.26.22-4.76,1.44-6.29-1.47Z"/><path class="cls-3" d="M298.79,239.35l2.31-2.16-.92,7.37Z"/><path class="cls-3" d="M523.94,274.57c0,3.57-.1,7.14,0,10.7.06,1.43-.72,3.7,1.75,3.87s2-2,2.2-3.54a25.79,25.79,0,0,1,.37-2.8c9.29.21,18.62.18,27.82,1.21,1.8.2,2.88,2,3.84-.74.52-1.48,1-3,1.47-4.46l1.44,6.62c-6.69-4.15-4.13,14.51-13.54,5.38-2.13-2.07-7.7-1.85-11.22-.92-4.28,1.13-1.3,5.7-2.15,8.63s2.12,8.06-2,8.37c-3.73.28-1.17-4.81-2-7.35s-1-5.6-2.73-7.09C521.26,285.36,521.11,285.52,523.94,274.57Z"/><path class="cls-3" d="M542.11,474.44c-1.56-7.19,3.41-5.8,7.66-6.32,4.05-.49,11,2.94,11.66-2.56,1-8.34-6.52-7.61-12.44-7.44-.92,0-1.87-1.21-2.81-1.87L582,454.45c-2.39,3.71-6,.94-9,1.74-2.69.73-7.51-2-6.83,4,.48,4.24,1.4,7.34,7.2,8.46,4.87.94,14.42-7.17,14.73,5.74l.23-.23c-9.34-8.2-20.47-2.49-30.7-3.74-5.33-.65-11.64-2.2-15.74,3.74Z"/><path class="cls-3" d="M549.05,254.58c-.18-11.63-5.5-17.91-17.27-17.22-3.09.18-7.41.69-7.45,4.45-.08,8.12,5.8,9,13.63,8.29-13.45-2-12.66,6.62-13.71,14.32l-2.65-28.94c8.14,0,17.08-2.17,24.17.54C551.75,238.31,550.13,247.35,549.05,254.58Z"/><path class="cls-3" d="M224.62,458.07c-4.44-.48-6.26,1-6.16,6,.11,5.79,4,3.55,6.72,4.32,5.17,1.44,15.44-5.25,13.44,8.1l.23-.23c-1.91-5.08-5.55-6.36-10.84-6.07a246.53,246.53,0,0,1-26.77,0c-5.29-.29-8.93,1-10.84,6.07l.23.23c-2-13.47,8.42-6.39,13.49-8.19,2.76-1,7,2.4,8.36-2.36a8.07,8.07,0,0,0-3.72-9.65C214,457.16,219.7,454.2,224.62,458.07Z"/><path class="cls-3" d="M370.78,176.68c5.14,2.68,15-3.83,15.51,3.77.35,5.29-10.1,2.63-15.33,2.24-5.82-.43-15.94,4.82-16.63-3.06C353.88,174.43,365,178.74,370.78,176.68Zm-13.5,2.74-.87,1h27.37v-1Z"/><path class="cls-3" d="M440.58,183.49c-3.44-2.28-10.51,3-10.51-3.45,0-6.19,6.95-2.71,10.51-2.71s10.51-3.48,10.51,2.71C451.09,186.47,444,181.22,440.58,183.49Z"/><path class="cls-3" d="M376.8,184.65c3.17,2.33,10.41-3.17,10,3.81-.35,5.56-7.21,2.43-10.88,2.33-3.44-.09-10.47,3.63-10.05-3.09C366.19,182,373.1,186.66,376.8,184.65Z"/><path class="cls-3" d="M440.14,184.74c3.13,1.7,9.24-2.34,9,3.08-.28,6.63-6.8,2.72-10.36,3-2.9.22-9,2.83-8.8-2.49C430.25,181.45,437,187,440.14,184.74Z"/><path class="cls-3" d="M377.87,192.78c3.13,1.7,9.24-2.34,9,3.08-.28,6.63-6.8,2.72-10.36,3-2.9.22-9,2.83-8.8-2.49C368,189.48,374.74,195,377.87,192.78Z"/><path class="cls-3" d="M511,213.47c-.42,2.77-.62,5-1.13,7.11-.57,2.42,1.89,7.19-3.22,6.39-4.85-.75-2.68-4.66-1.82-7.67.53-1.85.54-3.85,1.09-5.69,1-3.37-2.48-7.8,2.41-10.24Z"/><path class="cls-3" d="M543,322.08c10.24,1.41,17.08,0,13.19-12.43-.41-1.29-.53-3.7,1.89-3.74s1.58,2.29,2,3.7C566.7,329.63,553.5,324.31,543,322.08Z"/><path class="cls-3" d="M438.57,192.82c2.85,1.72,8.69-2.51,8.68,3.29,0,5.64-5.72,2.77-8.68,2.77s-8.67,2.87-8.68-2.77C429.88,190.31,435.72,194.54,438.57,192.82Z"/><path class="cls-3" d="M332.29,469.65c-1.14,2,1.28,6.23-2.74,4.39-2.31-1.06-7.41.24-6.66-4.61.39-2.52-2.06-7.1,3.9-7.25C333.49,462,330.1,467.77,332.29,469.65Z"/><path class="cls-3" d="M275.47,245.54,266,245c4.3-1.62,9.24-3.61,12.35,0,1.16,1.34-1.67,6.12-2.69,9.33-.76-7.93-7.5-3.88-14.14-6.39l14.2-1Z"/><path class="cls-3" d="M238.64,322.18c-1.82-1.41-14.52,8.73-9.94-7.31.26-.91.6-1.8.9-2.69.93.89,2.7,1.84,2.65,2.67C231.8,321.78,236,322.87,238.64,322.18Z"/><path class="cls-3" d="M244.68,277c.74,3.68-3.12,6.47-6.57,9.53-.81-1.11-2.57-2.79-2.29-3.24,2.21-3.61,4.8-7,7.28-10.45C243.49,274,246.76,272.53,244.68,277Z"/><path class="cls-3" d="M268.18,276.08c2.54,6.31-3.45,10.78-3.1,16.45,0,.71-.79,3.36-1.9,1.29-1.29-2.42-4.88-7.15-2.6-7.65C266.71,284.82,265.41,279.32,268.18,276.08Z"/><path class="cls-3" d="M272.51,293.42c.89-.56.27.11-.05,0-1.7-.65-3.32-1.49-5-2.27l2.11-2.62Z"/><path class="cls-3" d="M487.88,229.18c.77-2.71,2.8-1.87,4.59-1.58.1,0,.08.81.11,1.24l-4.73.31Z"/><path class="cls-3" d="M410.59,460.17l-1,6.19Q404.07,462.3,410.59,460.17Z"/><path class="cls-1" d="M602.19,150.88c3.22,15.28-3,19-18.12,18.52-35.44-1.25-71-.35-106.44-.5-2.6,0-6.85,2-7.6-2.19s-.86-9,.7-12.69c1.1-2.63,5.23.15,7.92.21,18.36.37,36.8,2.81,55.07-1.19,3.21-1.61,5.71-4.88,9.89-4.16,2.27,4.4-3.35,12.39,3.47,13.61a82.45,82.45,0,0,0,28.83-.33c2.21-.4,10.73-.8,10-7.15-.7-6.06-7.72-7.17-11.84-7.68-9.85-1.21-20-.29-30-.23l0-2.43c15.83.08,31.66.41,47.48.09,5.35-.11,9,1,10.69,6.31Z"/><path class="cls-3" d="M511.1,67.09c20.76-6.33,19,6.3,19.12,19.57.19,23.79-17,10-25.47,11.44-19.89,3.48-9-13.1-10.58-20.58C490.47,59.91,505.07,68.92,511.1,67.09ZM513,96.47c9.59,1.89,19.66.4,14.46-12.91-5-12.84-18.39,2-27.06-4.68-3-2.29-4.06,1.66-4.72,5C492.61,99.49,503.18,96.93,513,96.47Zm.93-22.64c-.36-2,1-4.94-2.77-5.21s-3.31,2.47-3.22,4.7c.08,2.07-1,4.95,2.7,5.22S513.76,76.08,513.91,73.84Z"/><path class="cls-3" d="M544.1,147.09c10-.06,20.13-1,30,.23,4.12.51,11.14,1.62,11.84,7.68.74,6.35-7.78,6.75-10,7.15a82.45,82.45,0,0,1-28.83.33c-6.82-1.22-1.2-9.21-3.47-13.61A7.69,7.69,0,0,0,544.1,147.09Zm32.52,1c-9.53,2.1-17.34-1.59-24.17,2.7-1.35.85-1.26,7.67,0,8.34,7.11,3.81,14.86,1.37,23.05,1.49-4.8-4.69-14.84,3-14.8-5.74C560.72,146.43,570.74,153.93,576.61,148.1Z"/><path class="cls-3" d="M569,98.7c23.18,0,22.38,0,23.49,23,.61,12.47-2.61,17.69-15.34,15.23-2.25-.44-4.66-.06-7-.06-26.19,0-25.68,0-26.44-26-.29-9.92,2-14,12.29-12.27C560.27,99.29,564.7,98.7,569,98.7Zm-1.82,36.15c3.67,0,7.44-.53,11,.1,10.32,1.84,12.61-2.43,12.25-12.29-.8-21.95-.25-22-22.46-22-3.34,0-6.77.5-10-.09-10.32-1.87-12.6,2.42-12.24,12.28C546.57,134.83,546,134.85,567.22,134.85Z"/><path class="cls-3" d="M602.3,151.06c-1.71-5.27-5.34-6.42-10.69-6.31-15.82.32-31.65,0-47.48-.09,13.91-4,28.16-1.86,42.15-1.41,11.65.37,16.7-2.49,13.85-14.51C604.55,135.82,601.21,143.65,602.3,151.06Z"/><path class="cls-3" d="M316.93,78.69c4.67,5.47,1.81,11.92,2,17.82.46,19-.13,38,.32,57,.17,7.13-3.33,10.61-9.12,9.1-6.48-1.68-18,7.71-19-7.64a7,7,0,0,0,1.82-.45c6.67.13,13.35.16,20,.41,5.88.22,3.83-4.05,4-6.95.12-1.72-1.27-4.2-2.61-2.58-5.69,6.84-12.91,2.08-19.28,3.25,20.59,1.38,15.87-13.41,15.94-25,.09-14.38.08-28.77.12-43.15l-.22.22c2.87.66,2.08,3,2.09,4.83.07,14.73,0,29.46.1,44.19,0,1.72-1,4.66,1.93,4.69s2-2.94,2-4.65c.13-17.07.13-34.14.17-51.21Z"/><path class="cls-3" d="M262.26,65.16c7.24,11-4.37,34.35,20,27,11.86-3.55.61-16.48,6.64-25.5-.46,10.84,3.4,21.76-2.06,28.9-2.87,3.75-17.77,4-21.38.25C258.73,88.82,264.07,77.29,262.26,65.16Z"/><path class="cls-1" d="M295.07,148.67c6.36-1.17,13.59,3.59,19.28-3.25,1.34-1.61,2.73.87,2.61,2.58-.2,2.9,1.84,7.17-4,6.95-6.67-.25-13.34-.28-20-.41Z"/><path class="cls-2" d="M361,7.67c.09,26.11.06,52.21.39,78.31.06,5.12-1.1,7.24-6.59,6.8a55.35,55.35,0,0,0-18.43,1.48H456.9c-.9-.78-1.4-1.53-1.73-1.46-18,3.89-21.17-4.87-20-20.83,1.46-19.31.63-38.81.18-58.22-.15-6.4,1.93-7.64,7.88-7.62,20.42.08,20.38-.16,20.38,20,0,45.19.08,90.38-.12,135.57,0,3,2.87,8.52-2.79,9a75,75,0,0,1-22.56-1.5c-1.22-.28-.63-9.3-.42-14.26.09-2.22,2.38-2.63,3.33-.82,2.9,5.54,7.71,1.89,11.53,2.69,2,.42,4.94.85,5-2.93,0-3.94-2.94-2.93-5-2.94-38.79-.06-77.59,0-116.68,0,2.08,4.42,10.19-1.44,9.2,6.4-.56,4.49,2.55,11.12-1.67,13-4.74,2.12-11.17.72-16.81.21-.7-.06-1.5-4-1.5-6.14-.08-50.55,0-101.1-.19-151.64,0-5.47,1.7-6.78,6.85-6.52,9.35.47,18.73.27,28.09.34Q360.44,7.11,361,7.67ZM332.6,98.19l-1-.07v49.72h1Zm128.63-.27-1,.46v49.27h1Zm-11.58,5.21c2-2.38,7.18,2.42,7.73-3,.6-5.9-4.73-3.29-7.29-3.24-2.77,0-7.65-2.64-8.22,2.35C441.19,105.23,446.65,101.56,449.65,103.14Zm-.32,7.78c2.66-1.39,7.7,2.36,8.05-2.92.39-5.82-4.9-3.06-7.48-3.05s-7.68-2.68-8,2.51C441.43,113.35,446.82,109.52,449.33,110.92Zm.32,8.29c2-2.38,7.18,2.42,7.73-3,.6-5.9-4.73-3.29-7.29-3.24-2.77,0-7.65-2.64-8.22,2.35C441.19,121.29,446.65,117.63,449.65,119.21Zm.11,26.13c1.93-2.42,7.22,2.43,7.63-3.13.43-5.88-4.86-3.13-7.42-3.12-2.74,0-7.67-2.66-8.11,2.45C441.34,147.48,446.76,143.68,449.76,145.34Zm.72-8c1.65-2.39,7.48,2.5,6.9-3.77-.47-5.13-5.38-2.45-8.11-2.46-2.57,0-7.89-2.76-7.41,3.1C442.28,139.38,447.29,135.66,450.49,137.3ZM448.87,127c2.64-1.71,8.16,2.77,8.53-3.31.3-4.92-4.54-2.93-6.85-2.69-3,.31-8.31-3-8.71,2.91C441.5,128.88,446.33,125.87,448.87,127Zm1.84,36.3c1.84-1.6,6.6,1.26,6.38-2-.33-4.71-5.3-2-8.16-2.22-2.29-.21-7-1.43-6.72,1.51C442.6,165.4,447.59,161.85,450.7,163.3Z"/><path class="cls-2" d="M364.57,6.58c32.83-1.45,32.83-1.45,32.83,31.29,0,16.07-.22,32.14.12,48.2.11,5.29-1.43,6.6-6.69,6.75-27.58.79-27.61,1-27.56-26.92,0-19.41.17-38.82.27-58.23Q364,7.12,364.57,6.58Z"/><path class="cls-2" d="M433.53,49.61c0,9.69-.94,19.49.21,29,1.45,12-3,13.7-14.33,14.62C402,94.7,397.49,89.24,399,72.39c1.72-19.22.56-38.72.29-58.1-.08-5.51.49-8.12,7.27-8.19,27-.26,27-.55,27,26.47Q433.55,41.09,433.53,49.61Z"/><path class="cls-7" d="M390.35,171c-10.69,0-21.38-.15-32.07.06-6.52.13-11.54,1-11.56-9.11s5.21-9.1,11.61-9.08c23.39.1,46.78.43,70.15-.17,8.2-.21,7.11,4.22,7.14,9.27s1,9.69-7.19,9.21C415.77,170.46,403,171,390.35,171Z"/><path class="cls-1" d="M471.61,50.62c4.55-10.34.84-21.23,2.15-31.78.28-2.27-1.65-5.95,2.5-6.31,5.22-.46,3.36,3.91,3.39,6.36.2,17.25.16,34.51.2,51.77-4.87,9.58-1.35,19.76-2,29.63-.68,10.89.36,21.9-.43,32.78-.28,3.84,4.63,11.68-3.88,11.44-8.1-.23-2-7.88-3.77-11.75l-.2.22c4-2.19,2-6,2-8.9.22-24.57.17-49.14.19-73.72Z"/><path class="cls-1" d="M208.64,156.8c-7.56,1.52-10.09-2.47-10.09-9.22,0-8.68-.08-17.36,0-26,.06-5-1.2-12.79,5.49-12.11,5.71.58,9.7,7.26,13.25,13.13,9.15,15.14-5,23.3-8.91,34.48Zm-6.07-23.87c0,4.66,0,9.33,0,14a12.59,12.59,0,0,0,.57,2.58c.57-.57,1.14-1.13,1.69-1.7,6.94-7.2,6.53-16.22,5.33-25-.35-2.55-4.08-6.41-6.32-6.45-2.67,0-1,4.23-1.23,6.58A95.81,95.81,0,0,0,202.57,132.92Z"/><path class="cls-1" d="M178.36,157.07a19.68,19.68,0,0,0-1.76-3.44c-3.09-3.94-6.3-7.79-9.47-11.67L166,155.38l-1.37.06q0-8.28,0-16.57l-.22.14,1.54-.79-1.54-1.49.23.15c-1.12-2.63,1.72-6.37-2.31-8.17l.24.09c0-7.41-.32-14.83,0-22.22.11-2.5-2.15-7.34,2.08-7.18,3.46.13,1.82,5,1.68,7.6-.54,10-.55,19.76,6.27,28.06l-.13-.09c.19,1.52-.57,3.54,2,3.8l2.13,2.12,4,6.22-.13-.09,4.15,4.1-.13-.09C187.24,157.91,182.4,157.08,178.36,157.07Z"/><path class="cls-1" d="M364.57,6.58q-.53.54-1,1.09H361q-.52-.56-1.06-1.09c-7.22-5.18-15.4-.81-23-2.3-4-.79-8.51,2-12.06-1.79l-.2.24H432.37l0,1.55c-19.84,0-39.68-.13-59.51.16C370.21,4.49,366.18,1.63,364.57,6.58Z"/><path class="cls-5" d="M184.6,151.12V102.46c.57,16.2,4.57,32.45-.13,48.57Z"/><path class="cls-5" d="M180.58,147.1V102.46c.5,14.86,4.54,29.78-.13,44.56Z"/><path class="cls-5" d="M176.56,140.89l-2.13-2.12c4.75-11.77.18-24.22,3.31-36.14C177.38,115.37,180.8,128.18,176.56,140.89Z"/><path class="cls-5" d="M172.55,135.05v-32.6c1,10.86,4.22,21.77-.13,32.52Z"/><path class="cls-4" d="M113.33,114.66c3.76-1.06,5.88,1.06,6.2,4.24.27,2.75-2.53,3.36-4.84,4-3.47,1-6.83,2.46-10.3,3.51a14.44,14.44,0,0,1-3.92.08c5.25-17.26-9.23.67-10.45-5.83-.49-2.6-2.46-4.92-3.75-7.37,6.31,1.68,11-8.54,17.9-2.47C106.61,113.6,107.83,119.29,113.33,114.66Z"/><path class="cls-4" d="M101.88,131c5-1.38,10.16-2.35,15-4.24,5-2,8-1.08,9.42,4.19-6.77,8.78-16,2-23.92,3.55C99.59,135,102.21,132.23,101.88,131Z"/><path class="cls-1" d="M46.13,141c-.85,12.13,9.49,2.27,12.51,6.92-5.86,3-12,4.79-18.7,1.19C40.76,145.45,37.33,138.56,46.13,141Z"/><path class="cls-3" d="M101.88,131c.33,1.22-2.29,4,.46,3.5,7.94-1.54,17.15,5.23,23.92-3.55,3.35,5.6,3.35,5.81-1.69,5.86-8.89.09-17.79-.1-26.68-.17l.23.22C98.68,134.47,96.33,130.2,101.88,131Z"/><path class="cls-3" d="M113.33,114.66c-5.49,4.62-6.72-1.06-9.16-3.8C108.36,109.38,110.75,112.24,113.33,114.66Z"/><path class="cls-3" d="M162.28,128.7c4,1.8,1.19,5.55,2.31,8.17-1.38,1.74-2.76,1.82-4.16,0C164.2,134.89,161.67,131.44,162.28,128.7Z"/><path class="cls-1" d="M160.42,136.9c1.4,1.79,2.79,1.72,4.16,0l-.23-.15c-.22.25-.65.54-.61.75a7.24,7.24,0,0,0,.61,1.52l.22-.14c-1.16-1.82-2.45-1.89-3.87-.29l.34.16c-.14-.63-.27-1.26-.42-1.88Z"/><path class="cls-1" d="M423.82,516.31c7-.49,12,1,11.77,8.55,0,1.6-.1,3.7,2.33,3.29.7-.12,1.58-2,1.56-3-.1-7.44,4.31-9.48,11.39-8.7-2.51-4.09-9.68,1-9-5,.73-6.16,6.47-1.93,9.83-2.84,2.49-.68,5.32-.13,8-.13,17.88,0,23.26,6.4,22.21,24.77-.33,5.76-3.13,5.59-7,5.36-3.38-.2-8,1.4-7.27-4.9a2.29,2.29,0,0,0,0-1c-1.45-3.91,3.12-9.26-2.86-12.09.29,3.35,1,6.73.73,10-.26,2.75,2.48,7.86-3.05,7.67-3.82-.13-10.48,4.31-11.12-5-.35-5.11-5.51-2.82-8.12-2.53-6.54.72-16.11-4.15-18.92,2.55-2.59,6.17-5.56,5.4-9.39,5.15-6.36-.41-2.32-5.66-3.48-8.54s2.1-9-.72-8.78c-5.19.37-.93,5.51-1,8.3-.14,6.09-.32,9.51-8.32,9.5s-8.15-3.37-8.24-9.49c-.1-6.42,4.66-11.84,2.56-18.75-.95-3.12,3.36-2.12,5.36-2.17,7.69-.17,15.42-.39,23.08.09,3.08.19,8.51-2.83,9,2.57C433.83,517.44,427.27,512.64,423.82,516.31Z"/><path class="cls-1" d="M411.32,492.29c3.61-5.52,4.53-11.64,4-18.08,6.41-6.63,14.23-4.35,21.46-2.64,2.6.61-.09,24.31-2.52,24.09C426.61,494.95,417.73,501.26,411.32,492.29Z"/><path class="cls-1" d="M438.28,532.28c2.81,1.8,8.86-2.42,8.66,2.84-.19,5-6.27,3.28-10,3.39-3.48.1-9.25.87-8.69-3.62C428.82,530,434.83,533.75,438.28,532.28Z"/><path class="cls-1" d="M37.84,170.63V157.26l18.21-.19-.23-.23c1.16,10,9.23,6.39,13.82,5.63,5.05-.83,11.06-3.69,10.36-11.31-.25-2.78-5.81-6.87,1.17-8.1,5.07-.89,10.87-1.56,12.82,5.59-2.23,11.42,2.68,15.27,13.73,13.54,3.45-.54,7.15.55,10.74.89,7,4.36,14.69.67,22,1.91,2.27.39,5.91-1.43,5.81,3.17-.08,3.76-3.1,2.78-5.16,2.79-14,.07-29,3.15-41.68-1-10-3.28-3.47,4.44-6.1,5s-4.94,8.83-7.42-.13c-.76-2.76-3.24-1.6-5-1.72-3-.19-2.77,2.19-2.79,4.12,0,4,0,8,.07,12-4-2.19-1.3-6-2.11-8.92-.73-2.7,2.1-7.06-3.79-7.33s-4,4-4.21,6.86c-.21,2.59,0,5.21,0,10.27-1.36-3-1.68-3.6-2-4.26-1.67-4.11,3.33-12-3.28-12.14-5.72-.12-1.48,7.56-2.78,11.55-.47,1.43.18,3.81-2.24,3.34-.81-.16-1.23-2.49-1.77-3.85-.12-.29.08-.7,0-1-1.43-3.46,3.36-10.26-3.29-10.23-5.36,0-1.58,6.45-2.7,9.82-.58,1.73-.35,4.5-1.45,5.14-3.07,1.77-2-3.74-4.72-3.34C44,179.39,44.25,173.66,37.84,170.63Z"/><path class="cls-8" d="M118.46,163.08c-3.59-.34-7.29-1.43-10.74-.89-11,1.73-16-2.12-13.73-13.54-.19-8.68,7-7.31,11.66-7.61,18.45-1.16,36.94-1.6,55.41-2.31l-.34-.17c3.74,7.58.86,15.42,1.54,23.52-6.39-4.49,5.73-16.91-9.26-17.47-12.95-.49-8.62,7.69-8,13.57.36,3.44,1,4.55-2.55,4.66C134.46,163.12,126.46,163,118.46,163.08Z"/><path class="cls-2" d="M151.53,156.93c-4.1.81-5.25-1.14-5.35-5.48-.13-5.68,3.55-4.19,6.64-4.57,4.37-.54,5.65,1.11,5.71,5.51C158.59,158,155.06,156.88,151.53,156.93Z"/><path class="cls-1" d="M56.05,157.07c-.32-3.43-.62-6.91,4.58-6.13,4.38.66,9.75-2.22,13,1.66,2,2.45-.62,4.49-4,4.37-4.59-.17-9.19-.1-13.79-.13Z"/><path class="cls-1" d="M565.32,508.44c7.35,0,15,1.3,22-.26,16.61-3.7,22.52,4.41,22.68,19,0,3.92,4.72,11.1-5.44,11.6-8,.39-11.82-1.27-10.51-10.09.36-2.4,2.06-6-1.69-7.88,0,2.56.38,5.24-.25,7.64-.88,3.37,3.21,9.08-3,9.78-4.06.46-11.15,4-11.44-5.77-.09-3.07-27.19-2.78-27.25.3-.14,8.22-5.82,6.21-9.7,5.53-5.52-1-1.92-6-2.67-9.14-.63-2.65-.4-5.5-.55-8.27-3,2.24-1.82,5.61-1.4,8.12,1.56,9.37-3.35,10.11-10.79,9.71-10.26-.55-4.67-7.91-5-11.88-.38-4.23,3.81-9.28,2.68-12.95-2.11-6.86,1.86-5.4,5.24-5.42C540.6,508.4,553,508.44,565.32,508.44Z"/><path class="cls-1" d="M564.23,532.32c3.1,1.43,9-2.06,9.22,2.3.28,5.45-5.78,3.86-9.44,3.85s-9.69,1.58-9.2-4C555.16,530.34,561,533.69,564.23,532.32Z"/><path class="cls-1" d="M214.87,508.44c8.37,0,16.75-.24,25.1.09,5.48.22,15.71-1.37,15.63,1.18-.28,9,6.13,17.11,3.07,26-1.9,5.55-6.81,2-10.27,2.71-3.09.66-6.13.32-5.7-4.36a34.83,34.83,0,0,0-.08-9c-.25-1.41,3.58-3.41-.44-4-.25,0-1,3.23-1.43,5-.93,4,2.27,9.18-1.91,12-2,1.37-8.27.71-8.44,0-3.14-13.37-13.63-6.08-20.74-7.41-3.93-.73-9.27-2.32-9.62,5.78-.17,4-5.71,2.12-8.59,1.82-5.39-.55-1.76-5.36-3-8-1.51-3.18,3.19-8.34-1.38-9.22-2.14-.41-.41,5.76-.38,8.82.06,5.77-.31,9-7.79,8.91-7.19-.08-8.37-2.26-8.87-9s4.57-11.88,2.75-18.77c-1.06-4,3.72-2.56,5.92-2.6C190.76,508.35,202.82,508.44,214.87,508.44Z"/><path class="cls-1" d="M214.89,532.26c3.08,1.62,9-2.17,9.1,2.56.09,5.23-6,3.57-9.7,3.69-3.51.11-9.32,1-9-3.32C205.61,529.72,211.71,534,214.89,532.26Z"/><path class="cls-4" d="M580.15,201.88c-1.88,5.8,3.1,13.9-2.44,20.85-3.45-7.23-.95-14.88-1.46-22.31a189.6,189.6,0,0,1,0-19c0-1.31,1.11-3.61,1.87-3.68,2.46-.23,1.93,2.17,2,3.6C580.21,187.65,580.15,194,580.15,201.88Z"/><path class="cls-4" d="M570.11,222c-3.74-13.38.39-27.22-3.82-40.52-.34-1.06.92-3.73,1.7-3.85,2.41-.35,2.08,2,2.09,3.48C570.13,194.79,570.11,208.42,570.11,222Z"/><path class="cls-4" d="M583.68,178.66V222h-1V178.62Z"/><path class="cls-4" d="M573.68,178.49v43.4h-1V178.78Z"/><path class="cls-4" d="M587.69,182.76V216h-1V182.62Z"/><path class="cls-4" d="M423.6,187.23c-1.13,2.38,2,7.09-2.48,7.07-2.84,0-1.61-4.47-1.5-6.85.13-2.66-1.77-7.47,1.77-7.54C425.25,179.83,422.66,184.68,423.6,187.23Z"/><path class="cls-4" d="M411.53,187.41c-.67,2.46,1.17,6.91-1.75,6.91-4.43,0-2.08-4.67-2.16-7.14s-1.95-7.38,1.95-7.28C413.14,180,410.63,184.87,411.53,187.41Z"/><path class="cls-4" d="M393.28,187.26c.91-2.57-1.62-7.42,2.19-7.35,3.57.06,1.64,4.88,1.78,7.53.13,2.39,1.33,6.85-1.47,6.88C391.26,194.36,394.41,189.64,393.28,187.26Z"/><path class="cls-3" d="M471.8,50.36c0,24.57,0,49.15-.19,73.72,0,2.95,2,6.71-2,8.9,0-24.57,0-49.15.19-73.72C469.83,56.31,467.81,52.55,471.8,50.36Z"/><path class="cls-3" d="M185.63,460.17l-1,6.19Q179.11,462.3,185.63,460.17Z"/><path class="cls-1" d="M317.16,78.54c0,17.07,0,34.14-.17,51.21,0,1.71,1,4.67-2,4.65s-1.92-3-1.93-4.69c-.1-14.73,0-29.46-.1-44.19,0-1.8.78-4.17-2.09-4.83,0-15.72,0-31.43.17-47.15,0-1.72-1-4.65,1.91-4.7s2,2.92,2,4.62c.11,13.75.06,27.49.08,41.24C315.07,76.34,314.91,78.11,317.16,78.54Z"/><path class="cls-1" d="M541.88,474.21c4.1-5.93,10.41-4.38,15.74-3.74,10.23,1.25,21.36-4.46,30.7,3.74-.51,6.44.41,12.55,4,18.08.06,2.7-.85,4.16-4,4.14q-23.28-.16-46.57,0c-3.1,0-4-1.43-4-4.14C541.47,486.76,542.39,480.65,541.88,474.21Z"/><path class="cls-1" d="M190.39,476.22c1.91-5.08,5.55-6.36,10.84-6.07a246.53,246.53,0,0,0,26.77,0c5.29-.29,8.93,1,10.84,6.07.92,4-2.55,8.68,2,12.05.78,6-1,8.65-7.9,8.3a354.1,354.1,0,0,0-36.67,0c-6.85.36-8.68-2.28-7.9-8.3C192.93,484.9,189.47,480.19,190.39,476.22Z"/><path class="cls-4" d="M357.29,179.42h26.5v1H356.42Z"/><path class="cls-1" d="M513,96.47c-9.8.45-20.37,3-17.31-12.6.65-3.33,1.76-7.29,4.72-5,8.67,6.72,22-8.16,27.06,4.68C532.64,96.87,522.57,98.37,513,96.47Z"/><path class="cls-1" d="M513.9,73.84c-.14,2.24.49,5-3.28,4.71s-2.62-3.15-2.7-5.22c-.09-2.23-.55-5,3.22-4.7S513.55,71.8,513.9,73.84Z"/><path class="cls-1" d="M576.61,148.1c-5.87,5.82-15.9-1.68-15.93,6.79,0,8.7,10,1.05,14.8,5.74-8.2-.12-15.94,2.33-23.05-1.49-1.25-.67-1.33-7.49,0-8.34C559.27,146.51,567.08,150.2,576.61,148.1Z"/><path class="cls-7" d="M567.22,134.85c-21.21,0-20.65,0-21.45-22-.36-9.85,1.93-14.15,12.24-12.28,3.23.59,6.66.09,10,.09,22.21,0,21.65,0,22.46,22,.36,9.85-1.92,14.12-12.25,12.29C574.66,134.32,570.9,134.85,567.22,134.85ZM586,108.17c1.84-6.92-3.38-5.08-7.14-5.5-5-.55-6.85.85-6.94,6.38-.11,6.46,3.51,5.57,7.57,5.8C584.34,115.12,587.43,114.22,586,108.17Z"/><path class="cls-3" d="M332.6,98.19v49.65h-1V98.12Z"/><path class="cls-3" d="M461.23,97.93v49.71h-1V98.38Z"/><path class="cls-3" d="M449.65,103.14c-3-1.58-8.46,2.09-7.78-3.88.57-5,5.44-2.3,8.22-2.35,2.56,0,7.89-2.66,7.29,3.24C456.83,105.56,451.62,100.76,449.65,103.14Z"/><path class="cls-3" d="M449.33,110.92c-2.5-1.4-7.89,2.43-7.48-3.46.37-5.19,5.33-2.51,8-2.51s7.87-2.77,7.48,3.05C457,113.28,452,109.54,449.33,110.92Z"/><path class="cls-3" d="M449.65,119.21c-3-1.58-8.46,2.09-7.78-3.88.57-5,5.44-2.3,8.22-2.35,2.56,0,7.89-2.66,7.29,3.24C456.83,121.63,451.62,116.83,449.65,119.21Z"/><path class="cls-3" d="M449.76,145.34c-3-1.66-8.42,2.14-7.9-3.79.44-5.12,5.37-2.44,8.11-2.45,2.56,0,7.86-2.76,7.42,3.12C457,147.77,451.69,142.92,449.76,145.34Z"/><path class="cls-3" d="M450.49,137.3c-3.2-1.64-8.21,2.08-8.63-3.13-.47-5.86,4.85-3.11,7.41-3.1,2.73,0,7.64-2.67,8.11,2.46C458,139.8,452.13,134.91,450.49,137.3Z"/><path class="cls-3" d="M448.87,127c-2.53-1.13-7.36,1.88-7-3.09.4-5.91,5.7-2.6,8.71-2.91,2.31-.24,7.15-2.23,6.85,2.69C457,129.78,451.5,125.3,448.87,127Z"/><path class="cls-3" d="M450.7,163.3c-3.11-1.46-8.11,2.1-8.51-2.68-.25-2.94,4.43-1.71,6.72-1.51,2.86.26,7.83-2.49,8.16,2.22C457.31,164.56,452.54,161.7,450.7,163.3Z"/><path class="cls-3" d="M202.57,132.92a96.75,96.75,0,0,1,.08-10c.24-2.34-1.44-6.62,1.23-6.58,2.24,0,6,3.91,6.32,6.45,1.2,8.76,1.61,17.78-5.33,25-.56.58-1.13,1.14-1.69,1.7a12.59,12.59,0,0,1-.57-2.58C202.54,142.25,202.57,137.59,202.57,132.92Z"/><path class="cls-3" d="M164.36,139a7.24,7.24,0,0,1-.61-1.52c0-.21.39-.5.61-.75l1.54,1.49Z"/><path class="cls-3" d="M586,108.17c1.43,6-1.66,7-6.52,6.68-4.05-.23-7.67.67-7.57-5.8.09-5.53,2-6.94,6.94-6.38C582.62,103.09,587.84,101.24,586,108.17Zm-6.75,4.55c3,.29,5-.21,5-4.09,0-4.09-2.44-3.87-5.21-3.93-3-.06-5,.25-5,4.16C574.11,112.92,576.49,112.87,579.25,112.72Z"/><path class="cls-1" d="M579.27,112.72c-2.78.15-5.17.2-5.21-3.87,0-3.91,2-4.22,5-4.16,2.76.06,5.18-.15,5.21,3.93C584.28,112.51,582.29,113,579.27,112.72Z"/></g></g></svg>